<svg width="128" height="96" viewBox="0 0 128 96" fill="none" xmlns="http://www.w3.org/2000/svg">
<path opacity="0.2" d="M105.629 38.2L107.171 37.8C107.457 37.7429 107.743 37.4571 107.8 37.1714L108.2 35.6286C108.314 35.2286 108.657 35 109 35C109.4 35 109.743 35.2857 109.8 35.6286L110.2 37.1714C110.257 37.4571 110.543 37.7429 110.829 37.8L112.371 38.2C112.771 38.3143 113 38.6571 113 39C113 39.4 112.714 39.7429 112.371 39.8L110.829 40.2C110.543 40.2571 110.257 40.5429 110.2 40.8286L109.8 42.3714C109.686 42.7714 109.343 43 109 43C108.6 43 108.257 42.7143 108.2 42.3714L107.8 40.8286C107.743 40.5429 107.457 40.2571 107.171 40.2L105.629 39.8C105.229 39.6857 105 39.3429 105 39C105 38.6 105.286 38.2571 105.629 38.2Z" fill="#888888"/>
<path opacity="0.2" d="M15.9428 31.8L18.2571 31.2C18.6857 31.1143 19.1143 30.6857 19.2 30.2571L19.8 27.9429C19.9714 27.3429 20.4857 27 21 27C21.6 27 22.1143 27.4286 22.2 27.9429L22.8 30.2571C22.8857 30.6857 23.3143 31.1143 23.7429 31.2L26.0572 31.8C26.6572 31.9714 27 32.4857 27 33C27 33.6 26.5714 34.1143 26.0572 34.2L23.7429 34.8C23.3143 34.8857 22.8857 35.3143 22.8 35.7429L22.2 38.0571C22.0286 38.6571 21.5143 39 21 39C20.4 39 19.8857 38.5714 19.8 38.0571L19.2 35.7429C19.1143 35.3143 18.6857 34.8857 18.2571 34.8L15.9428 34.2C15.3428 34.0286 15 33.5143 15 33C15 32.4 15.4286 31.8857 15.9428 31.8Z" fill="#888888"/>
<path opacity="0.2" d="M0.628557 53.2L2.17142 52.8C2.45714 52.7429 2.74287 52.4571 2.80001 52.1714L3.19999 50.6286C3.31427 50.2286 3.65714 50 4 50C4.4 50 4.74287 50.2857 4.80001 50.6286L5.19999 52.1714C5.25713 52.4571 5.54286 52.7429 5.82858 52.8L7.37144 53.2C7.77144 53.3143 8 53.6571 8 54C8 54.4 7.7143 54.7429 7.37144 54.8L5.82858 55.2C5.54286 55.2571 5.25713 55.5429 5.19999 55.8286L4.80001 57.3714C4.68573 57.7714 4.34286 58 4 58C3.6 58 3.25713 57.7143 3.19999 57.3714L2.80001 55.8286C2.74287 55.5429 2.45714 55.2571 2.17142 55.2L0.628557 54.8C0.228557 54.6857 0 54.3429 0 54C0 53.6 0.2857 53.2571 0.628557 53.2Z" fill="#888888"/>
<path opacity="0.2" d="M126.5 52C125.675 52 125 51.325 125 50.5C125 49.675 125.675 49 126.5 49C127.325 49 128 49.675 128 50.5C128 51.325 127.325 52 126.5 52Z" fill="#888888"/>
<path opacity="0.2" d="M23 70C21.9 70 21 69.1 21 68C21 66.9 21.9 66 23 66C24.1 66 25 66.9 25 68C25 69.1 24.1 70 23 70Z" fill="#888888"/>
<path d="M70 76C70 78.2091 68.2091 80 66 80H47C42.5817 80 39 76.4183 39 72V24C39 19.5817 42.5817 16 47 16H84C88.4183 16 92 19.5817 92 24V36C92 38.2091 90.2091 40 88 40H78C73.5817 40 70 43.5817 70 48V76Z" fill="#C18010"/>
<path d="M70 76C70 78.2091 68.2091 80 66 80H46C41.5817 80 38 76.4183 38 72V24C38 19.5817 41.5817 16 46 16H80C84.4183 16 88 19.5817 88 24V40H78C73.5817 40 70 43.5817 70 48V76Z" fill="#E2A412"/>
<path fill-rule="evenodd" clip-rule="evenodd" d="M45 20C43.8954 20 43 20.8954 43 22V48C43 60.8559 41.9798 69.6309 41.3967 73.5965C41.2131 74.8452 42.1775 76 43.4396 76H70.0002V48C70.0002 43.5817 73.5819 40 78.0002 40H83V21.9924C83 20.8878 82.1046 20 81 20H45Z" fill="#FFDE7A"/>
<path d="M51 20C51 18.8954 51.8954 18 53 18H73C74.1046 18 75 18.8954 75 20V24C75 25.1046 74.1046 26 73 26H53C51.8954 26 51 25.1046 51 24V20Z" fill="#999999"/>
<path d="M51 20C51 18.8954 51.8954 18 53 18H73C74.1046 18 75 18.8954 75 20V22C75 23.1046 74.1046 24 73 24H53C51.8954 24 51 23.1046 51 22V20Z" fill="#D9D9D9"/>
<path fill-rule="evenodd" clip-rule="evenodd" d="M70 59.5H68.75C66.4028 59.5 64.5 57.5972 64.5 55.25V50.75C64.5 48.4028 66.4028 46.5 68.75 46.5H70.1404C70.0482 46.9859 70 47.4873 70 48V49H68.75C67.7835 49 67 49.7835 67 50.75V55.25C67 56.2165 67.7835 57 68.75 57H70V59.5ZM70 55C69.4477 55 69 54.5523 69 54V52C69 51.4477 69.4477 51 70 51V55ZM73.1681 41.6235C73.3623 41.2889 73.7073 41.0526 74.1101 41.0077C73.7811 41.1912 73.4664 41.3971 73.1681 41.6235ZM75 40.5815V38.25C75 37.5596 75.5596 37 76.25 37C76.9404 37 77.5 37.5596 77.5 38.25V40.0154C76.6207 40.0696 75.7798 40.2659 75 40.5815ZM52.75 59.5C50.4028 59.5 48.5 57.5972 48.5 55.25V50.75C48.5 48.4028 50.4028 46.5 52.75 46.5H57.25C59.5972 46.5 61.5 48.4028 61.5 50.75V55.25C61.5 57.5972 59.5972 59.5 57.25 59.5H52.75ZM51 55.25C51 56.2165 51.7835 57 52.75 57H57.25C58.2165 57 59 56.2165 59 55.25V50.75C59 49.7835 58.2165 49 57.25 49H52.75C51.7835 49 51 49.7835 51 50.75V55.25ZM54 55C53.4477 55 53 54.5523 53 54V52C53 51.4477 53.4477 51 54 51H56C56.5523 51 57 51.4477 57 52V54C57 54.5523 56.5523 55 56 55H54ZM54 39C53.4477 39 53 38.5523 53 38V36C53 35.4477 53.4477 35 54 35H56C56.5523 35 57 35.4477 57 36V38C57 38.5523 56.5523 39 56 39H54ZM52.75 43.5C50.4028 43.5 48.5 41.5972 48.5 39.25V34.75C48.5 32.4028 50.4028 30.5 52.75 30.5H57.25C59.5972 30.5 61.5 32.4028 61.5 34.75V39.25C61.5 41.5972 59.5972 43.5 57.25 43.5H52.75ZM51 39.25C51 40.2165 51.7835 41 52.75 41H57.25C58.2165 41 59 40.2165 59 39.25V34.75C59 33.7835 58.2165 33 57.25 33H52.75C51.7835 33 51 33.7835 51 34.75V39.25ZM65.75 37C66.4404 37 67 36.4404 67 35.75V33.25H67.75C68.4404 33.25 69 32.6904 69 32C69 31.3096 68.4404 30.75 67.75 30.75H65.75C65.0596 30.75 64.5 31.3096 64.5 32V35.75C64.5 36.4404 65.0596 37 65.75 37ZM72.25 33.25C71.5596 33.25 71 32.6904 71 32C71 31.3096 71.5596 30.75 72.25 30.75H76.25C76.9404 30.75 77.5 31.3096 77.5 32V33.75C77.5 34.4404 76.9404 35 76.25 35C75.5596 35 75 34.4404 75 33.75V33.25H72.25ZM66 43.25C65.9578 43.25 65.9161 43.2479 65.875 43.2438C65.8339 43.2479 65.7922 43.25 65.75 43.25C65.0596 43.25 64.5 42.6904 64.5 42V40.25C64.5 39.5596 65.0596 39 65.75 39C66.4404 39 67 39.5596 67 40.25V40.75H69.75C70.4404 40.75 71 41.3096 71 42C71 42.6904 70.4404 43.25 69.75 43.25H66ZM69 37.75C69 38.4404 69.5596 39 70.25 39H71.75C72.4404 39 73 38.4404 73 37.75V36.25C73 35.5596 72.4404 35 71.75 35H70.25C69.5596 35 69 35.5596 69 36.25V37.75Z" fill="#F9BE1A"/>
<path d="M78 44H86C88.2091 44 90 45.7909 90 48V71V84C90 86.2091 88.2091 88 86 88H79.9474H78C75.7909 88 74 86.2091 74 84V48C74 45.7909 75.7909 44 78 44Z" fill="#444444"/>
<path d="M80.6668 44H99.3335C101.543 44 103.333 45.7909 103.333 48V84C103.333 86.2091 101.543 88 99.3335 88H80.6668C78.4577 88 76.6668 86.2091 76.6668 84V76.1538V48C76.6668 45.7909 78.4577 44 80.6668 44Z" fill="#666666"/>
<path fill-rule="evenodd" clip-rule="evenodd" d="M99.5718 85.3327H80.4279C79.8216 85.3327 79.3332 84.8054 79.3332 84.161V47.8377C79.3332 47.1933 79.8216 46.666 80.4279 46.666H99.5718C100.178 46.666 100.667 47.1933 100.667 47.8377V84.161C100.667 84.8054 100.178 85.3327 99.5718 85.3327ZM87.3331 47.9995C86.5967 47.9995 85.9998 48.5965 85.9998 49.3328C85.9998 50.0692 86.5967 50.6662 87.3331 50.6662H92.6664C93.4028 50.6662 93.9998 50.0692 93.9998 49.3328C93.9998 48.5965 93.4028 47.9995 92.6664 47.9995H87.3331Z" fill="#ADC2FC"/>
<path d="M107.404 63.5244H111.006C111.667 63.5244 112.207 64.0647 112.207 64.7251C112.207 65.3855 111.667 65.9258 111.006 65.9258H107.404C106.744 65.9258 106.204 65.3855 106.204 64.7251C106.204 64.0647 106.744 63.5244 107.404 63.5244Z" fill="#CCCCCC"/>
<path d="M108.605 52.7188C108.911 52.7188 109.217 52.8388 109.452 53.0729C109.92 53.5412 109.92 54.3036 109.452 54.7719L107.05 57.1733C106.582 57.6415 105.819 57.6415 105.351 57.1733C104.883 56.705 104.883 55.9426 105.351 55.4743L107.753 53.0729C107.987 52.8388 108.293 52.7188 108.599 52.7188H108.605Z" fill="#CCCCCC"/>
<path d="M106.21 71.9302C105.904 71.9302 105.598 72.0502 105.363 72.2844C104.895 72.7526 104.895 73.5151 105.363 73.9833L107.765 76.3847C108.233 76.853 108.995 76.853 109.464 76.3847C109.932 75.9164 109.932 75.154 109.464 74.6857L107.062 72.2844C106.828 72.0502 106.522 71.9302 106.216 71.9302H106.21Z" fill="#CCCCCC"/>
<path fill-rule="evenodd" clip-rule="evenodd" d="M82 63.4723V70.3335C82 71.8062 83.1939 73.0001 84.6667 73.0001H95.3333C96.8061 73.0001 98 71.8062 98 70.3335V63.4723C98 62.1069 96.8932 61.0001 95.5279 61.0001H95.118C94.4328 61.0001 93.8064 60.613 93.5 60.0001C93.1936 59.3873 92.5672 59.0001 91.882 59.0001H88.118C87.4328 59.0001 86.8064 59.3873 86.5 60.0001C86.1936 60.613 85.5672 61.0001 84.882 61.0001H84.4721C83.1068 61.0001 82 62.1069 82 63.4723ZM90 71.0001C92.2091 71.0001 94 69.2093 94 67.0001C94 64.791 92.2091 63.0001 90 63.0001C87.7909 63.0001 86 64.791 86 67.0001C86 69.2093 87.7909 71.0001 90 71.0001Z" fill="#8FABF9"/>
</svg>
