<svg width="64" height="64" viewBox="0 0 64 64" fill="none" xmlns="http://www.w3.org/2000/svg">
<g clip-path="url(#clip0_4730_964)">
<path d="M31.9962 17.9991L56.241 17.9992C53.7842 13.7425 50.25 10.2076 45.9937 7.75003C41.7375 5.29247 36.9092 3.99882 31.9944 3.99916C27.0796 3.9995 22.2515 5.29383 17.9955 7.75199C13.7396 10.2101 10.2059 13.7455 7.7497 18.0025L19.8721 38.9991L19.8829 38.9963C18.6497 36.8698 17.999 34.4558 17.9962 31.9976C17.9934 29.5393 18.6388 27.1239 19.8672 24.9946C21.0956 22.8653 22.8636 21.0975 24.993 19.8693C27.1224 18.6412 29.538 17.9961 31.9962 17.9991Z" fill="url(#paint0_linear_4730_964)"/>
<path d="M44.1271 38.9973L32.0047 59.9939C36.9195 59.9946 41.7479 58.7013 46.0043 56.2441C50.2608 53.7868 53.7952 50.2522 56.2523 45.9957C58.7095 41.7392 60.0026 36.9107 60.0017 31.9959C60.0008 27.0811 58.706 22.2531 56.2474 17.9975L32.0026 17.9975L31.9996 18.0083C34.4578 18.0036 36.8738 18.647 39.0041 19.8737C41.1344 21.1004 42.9036 22.8671 44.1334 24.9955C45.3632 27.124 46.0102 29.539 46.0091 31.9973C46.008 34.4555 45.3588 36.8699 44.1271 38.9973Z" fill="url(#paint1_linear_4730_964)"/>
<path d="M19.8767 39.0036L7.75433 18.007C5.2963 22.263 4.00214 27.0911 4.00195 32.0059C4.00177 36.9207 5.29558 41.749 7.75328 46.0052C10.211 50.2613 13.746 53.7954 18.0027 56.2521C22.2595 58.7087 27.0881 60.0014 32.0029 60L44.1253 39.0033L44.1175 38.9954C42.8924 41.1266 41.1272 42.8972 38.9997 44.1287C36.8722 45.3602 34.4576 46.0091 31.9994 46.0099C29.5412 46.0107 27.1262 45.3635 24.9979 44.1334C22.8696 42.9034 21.1032 41.134 19.8767 39.0036Z" fill="url(#paint2_linear_4730_964)"/>
<path d="M32 46C39.732 46 46 39.732 46 32C46 24.268 39.732 18 32 18C24.268 18 18 24.268 18 32C18 39.732 24.268 46 32 46Z" fill="white"/>
<path d="M31.9998 43.0833C38.121 43.0833 43.0832 38.1211 43.0832 32C43.0832 25.8788 38.121 20.9166 31.9998 20.9166C25.8787 20.9166 20.9165 25.8788 20.9165 32C20.9165 38.1211 25.8787 43.0833 31.9998 43.0833Z" fill="#1A73E8"/>
</g>
<defs>
<linearGradient id="paint0_linear_4730_964" x1="53.2164" y1="16.252" x2="28.9708" y2="58.2466" gradientUnits="userSpaceOnUse">
<stop stop-color="#D93025"/>
<stop offset="1" stop-color="#EA4335"/>
</linearGradient>
<linearGradient id="paint1_linear_4730_964" x1="57.8368" y1="21.4993" x2="9.34559" y2="21.4992" gradientUnits="userSpaceOnUse">
<stop stop-color="#FCC934"/>
<stop offset="1" stop-color="#FBBC04"/>
</linearGradient>
<linearGradient id="paint2_linear_4730_964" x1="35.0311" y1="58.2517" x2="10.7854" y2="16.257" gradientUnits="userSpaceOnUse">
<stop stop-color="#1E8E3E"/>
<stop offset="1" stop-color="#34A853"/>
</linearGradient>
<clipPath id="clip0_4730_964">
<rect width="56" height="56" fill="white" transform="translate(4 4)"/>
</clipPath>
</defs>
</svg>
