<svg viewBox="0 0 128 96" fill="none" xmlns="http://www.w3.org/2000/svg">
  <g opacity=".2" fill="#888">
    <path d="M105.629 30.533l1.542-.4c.286-.057.572-.343.629-.628l.4-1.543c.114-.4.457-.629.8-.629.4 0 .743.286.8.629l.4 1.543c.057.285.343.571.629.628l1.542.4c.4.114.629.457.629.8 0 .4-.286.743-.629.8l-1.542.4c-.286.057-.572.343-.629.629l-.4 1.543c-.114.4-.457.628-.8.628-.4 0-.743-.285-.8-.628l-.4-1.543c-.057-.286-.343-.572-.629-.629l-1.542-.4c-.4-.114-.629-.457-.629-.8 0-.4.286-.743.629-.8z"/>
    <path d="M15.943 24.133l2.314-.6c.429-.085.857-.514.943-.943l.6-2.314c.171-.6.686-.943 1.2-.943.6 0 1.114.429 1.2.943l.6 2.314c.086.429.514.858.943.943l2.314.6c.6.172.943.686.943 1.2 0 .6-.429 1.115-.943 1.2l-2.314.6c-.429.086-.857.515-.943.943l-.6 2.314c-.171.6-.686.943-1.2.943-.6 0-1.114-.428-1.2-.943l-.6-2.314c-.086-.428-.514-.857-.943-.943l-2.314-.6c-.6-.171-.943-.686-.943-1.2 0-.6.429-1.114.943-1.2z"/>
    <path d="M.629 45.533l1.542-.4c.286-.057.572-.343.629-.628l.4-1.543c.114-.4.457-.629.8-.629.4 0 .743.286.8.629l.4 1.543c.057.285.343.571.629.628l1.542.4c.4.114.629.457.629.8 0 .4-.286.743-.629.8l-1.542.4c-.286.057-.572.343-.629.629l-.4 1.543c-.114.4-.457.628-.8.628-.4 0-.743-.285-.8-.628l-.4-1.543c-.057-.286-.343-.572-.629-.629l-1.542-.4c-.4-.114-.629-.457-.629-.8 0-.4.286-.743.629-.8z"/>
    <path d="M126.5 44.333c-.825 0-1.5-.675-1.5-1.5s.675-1.5 1.5-1.5 1.5.675 1.5 1.5-.675 1.5-1.5 1.5z"/>
    <path d="M23 62.333c-1.1 0-2-.9-2-2s.9-2 2-2 2 .9 2 2-.9 2-2 2z"/>
  </g>
  <path fill-rule="evenodd" clip-rule="evenodd" d="M51 28h41c2.21 0 4 1.79 4 4v13.999c0 2.102-1.088 3.951-2.731 5.014-.565.365-1.169.68-1.779.987h-.157c-10.188 0-18.536 7.881-19.28 17.88-.315.079-.642.12-.973.12H51c-2.21 0-4-1.79-4-4V32c0-2.21 1.79-4 4-4z" fill="#888"/>
  <path d="M54.304 23.132c.407-1.83 2.03-3.132 3.905-3.132H73.79c1.875 0 3.498 1.302 3.905 3.132l2.222 10C80.473 35.63 78.573 38 76.014 38H55.987c-2.56 0-4.46-2.37-3.905-4.868l2.222-10z" fill="#888"/>
  <path fill-rule="evenodd" clip-rule="evenodd" d="M48.304 23.132c.407-1.83 2.03-3.132 3.905-3.132H67.79c1.875 0 3.498 1.302 3.905 3.132L72.778 28H86c2.21 0 4 1.79 4 4v20.045C80.385 52.7 72.7 60.385 72.045 70H36c-2.21 0-4-1.79-4-4V32c0-2.21 1.79-4 4-4h11.222l1.082-4.868z" fill="#ABABAB"/>
  <path fill-rule="evenodd" clip-rule="evenodd" d="M72 49c0-6.627-5.373-12-12-12s-12 5.373-12 12 5.373 12 12 12 12-5.373 12-12zM60 33c8.837 0 16 7.163 16 16s-7.163 16-16 16-16-7.163-16-16 7.163-16 16-16z" fill="#DDD"/>
  <path d="M84 37c0-2.21-1.79-4-4-4s-4 1.79-4 4 1.79 4 4 4 4-1.79 4-4z" fill="#F9BE1A"/>
  <path d="M91.5 87c8.56 0 15.5-6.94 15.5-15.5 0-8.56-6.94-15.5-15.5-15.5C82.94 56 76 62.94 76 71.5 76 80.06 82.94 87 91.5 87z" fill="#DE5833"/>
  <path d="M114.565 70.858h3.602c.66 0 1.201.54 1.201 1.2 0 .66-.541 1.2-1.201 1.2h-3.602c-.66 0-1.201-.54-1.201-1.2 0-.66.541-1.2 1.201-1.2z" fill="#CCC"/>
  <path d="M115.766 60.051c.306 0 .612.12.846.355.468.468.468 1.23 0 1.699l-2.401 2.401c-.468.468-1.231.468-1.699 0-.468-.468-.468-1.23 0-1.699l2.401-2.401c.234-.234.54-.355.847-.355h.006z" fill="#CCC"/>
  <path d="M113.371 79.263c-.307 0-.613.12-.847.355-.468.468-.468 1.23 0 1.699l2.401 2.4c.469.47 1.231.47 1.699 0 .469-.467.469-1.23 0-1.698l-2.401-2.401c-.234-.234-.54-.355-.846-.355h-.006z" fill="#CCC"/>
  <path fill-rule="evenodd" clip-rule="evenodd" d="M83.667 68.667c-.368 0-.667.298-.667.666v4.334c0 .368.299.666.667.666h15.666c.368 0 .667-.298.667-.666v-4.334c0-.368-.299-.666-.667-.666H83.667z" fill="#fff"/>
</svg>
