<svg width="16" height="16" viewBox="0 0 16 16" fill="none" xmlns="http://www.w3.org/2000/svg">
<path d="M5.59267 1.4347C6.63855 -0.460007 9.36191 -0.460001 10.4078 1.4347L15.6443 10.9212C16.656 12.754 15.3303 15.0001 13.2368 15.0001H2.7637C0.670173 15.0001 -0.655582 12.754 0.356139 10.9212L5.59267 1.4347Z" fill="#FDD20A"/>
<path fill-rule="evenodd" clip-rule="evenodd" d="M7.52562 4C7.23968 4 7.01197 4.23938 7.02625 4.52497L7.22625 8.52497C7.23955 8.79107 7.45919 9 7.72562 9H8.27438C8.54081 9 8.76045 8.79107 8.77375 8.52497L8.97375 4.52497C8.98803 4.23938 8.76032 4 8.47438 4H7.52562ZM8 12C8.55228 12 9 11.5523 9 11C9 10.4477 8.55228 10 8 10C7.44772 10 7 10.4477 7 11C7 11.5523 7.44772 12 8 12Z" fill="black" fill-opacity="0.84"/>
</svg>
