<svg fill="none" viewBox="0 0 32 32" xmlns="http://www.w3.org/2000/svg">
  <path fill="#E2A412" fill-rule="evenodd" d="M32 11.5C32 17.299 27.299 22 21.5 22H19v-.3a10.43 10.43 0 0 1-.592-.163L17 23h-3v3.476c0 .29-.235.524-.524.524H10v3.476c0 .29-.235.524-.524.524H3.034A1.034 1.034 0 0 1 2 29.966V23.5l9.34-9.34c-.222-.85-.34-1.74-.34-2.66 0-5.115 3.658-9.376 8.5-10.31V1H21v.012c.166-.008.332-.012.5-.012C27.299 1 32 5.701 32 11.5m-8-.5a3 3 0 1 0 0-6 3 3 0 0 0 0 6" clip-rule="evenodd"/>
  <path fill="#FC3" fill-rule="evenodd" d="M30 11.5C30 17.299 25.299 22 19.5 22c-1.2 0-2.354-.201-3.428-.572L14.5 23H12v3.476c0 .29-.235.524-.524.524H8v3.476c0 .29-.235.524-.524.524H1.034A1.034 1.034 0 0 1 0 29.966V24l9.45-9.45A10.5 10.5 0 0 1 9 11.5C9 5.701 13.701 1 19.5 1S30 5.701 30 11.5m-8-.5a3 3 0 1 0 0-6 3 3 0 0 0 0 6" clip-rule="evenodd"/>
  <path fill="#F9BE1A" d="M11.592 18.408 0 30v-2.5l10.534-10.533c.312.51.666.992 1.058 1.44Z"/>
</svg>
