<svg width="128" height="96" viewBox="0 0 128 96" fill="none" xmlns="http://www.w3.org/2000/svg">
<path opacity="0.2" d="M105.629 38.866L107.171 38.466C107.457 38.4089 107.743 38.1232 107.8 37.8374L108.2 36.2946C108.314 35.8946 108.657 35.666 109 35.666C109.4 35.666 109.743 35.9517 109.8 36.2946L110.2 37.8374C110.257 38.1232 110.543 38.4089 110.829 38.466L112.371 38.866C112.771 38.9803 113 39.3232 113 39.666C113 40.066 112.714 40.4089 112.371 40.466L110.829 40.866C110.543 40.9232 110.257 41.2089 110.2 41.4946L109.8 43.0374C109.686 43.4374 109.343 43.666 109 43.666C108.6 43.666 108.257 43.3803 108.2 43.0374L107.8 41.4946C107.743 41.2089 107.457 40.9232 107.171 40.866L105.629 40.466C105.229 40.3517 105 40.0089 105 39.666C105 39.266 105.286 38.9232 105.629 38.866Z" fill="#888888"/>
<path opacity="0.2" d="M15.9428 32.466L18.2571 31.866C18.6857 31.7803 19.1143 31.3517 19.2 30.9232L19.8 28.6089C19.9714 28.0089 20.4857 27.666 21 27.666C21.6 27.666 22.1143 28.0946 22.2 28.6089L22.8 30.9232C22.8857 31.3517 23.3143 31.7803 23.7429 31.866L26.0572 32.466C26.6572 32.6374 27 33.1517 27 33.666C27 34.266 26.5714 34.7803 26.0572 34.866L23.7429 35.466C23.3143 35.5517 22.8857 35.9803 22.8 36.4089L22.2 38.7232C22.0286 39.3232 21.5143 39.666 21 39.666C20.4 39.666 19.8857 39.2374 19.8 38.7232L19.2 36.4089C19.1143 35.9803 18.6857 35.5517 18.2571 35.466L15.9428 34.866C15.3428 34.6946 15 34.1803 15 33.666C15 33.066 15.4286 32.5517 15.9428 32.466Z" fill="#888888"/>
<path opacity="0.2" d="M0.628558 53.866L2.17142 53.466C2.45714 53.4089 2.74287 53.1232 2.80001 52.8374L3.19999 51.2946C3.31427 50.8946 3.65714 50.666 4 50.666C4.4 50.666 4.74287 50.9517 4.80001 51.2946L5.19999 52.8374C5.25713 53.1232 5.54286 53.4089 5.82858 53.466L7.37144 53.866C7.77144 53.9803 8 54.3232 8 54.666C8 55.066 7.7143 55.4089 7.37144 55.466L5.82858 55.866C5.54286 55.9232 5.25713 56.2089 5.19999 56.4946L4.80001 58.0374C4.68573 58.4374 4.34286 58.666 4 58.666C3.6 58.666 3.25713 58.3803 3.19999 58.0374L2.80001 56.4946C2.74287 56.2089 2.45714 55.9232 2.17142 55.866L0.628558 55.466C0.228558 55.3517 4.76837e-07 55.0089 4.76837e-07 54.666C4.76837e-07 54.266 0.285701 53.9232 0.628558 53.866Z" fill="#888888"/>
<path opacity="0.2" d="M126.5 52.666C125.675 52.666 125 51.991 125 51.166C125 50.341 125.675 49.666 126.5 49.666C127.325 49.666 128 50.341 128 51.166C128 51.991 127.325 52.666 126.5 52.666Z" fill="#888888"/>
<path opacity="0.2" d="M23 70.666C21.9 70.666 21 69.766 21 68.666C21 67.566 21.9 66.666 23 66.666C24.1 66.666 25 67.566 25 68.666C25 69.766 24.1 70.666 23 70.666Z" fill="#888888"/>
<path d="M67.4213 65.8719C66.9296 67.608 66.6665 69.44 66.6665 71.3335V73.4874C66.6665 76.0067 64.7873 78.1776 62.2684 78.138C57.4868 78.0628 52.6628 76.8838 48.1814 74.5004C47.5169 74.1491 46.696 74.3638 46.3247 75.0078L43.8035 79.3206C43.1781 80.3744 41.595 80.1598 41.2823 78.9693L36.9045 62.1475C36.7091 61.4255 37.139 60.6644 37.8817 60.4692L54.67 56.0784C55.8622 55.7661 56.8394 57.0541 56.214 58.1079L53.6342 62.4988C53.2433 63.1818 53.4778 64.0795 54.1814 64.4308C58.4187 66.5235 63.1021 66.932 67.4213 65.8719Z" fill="#DE5833"/>
<path d="M81.6313 51.9727C82.0261 50.4941 82.2394 48.9908 82.2858 47.4918C82.3249 45.8135 83.3998 44.3695 85.0219 43.9401L91.491 42.2423C92.6246 41.9496 93.7386 42.7497 93.8558 43.9206C93.954 44.9453 94.0024 45.9761 93.9998 47.0093C93.9937 49.4986 91.8393 51.3335 89.3501 51.3335H86.6665C84.9273 51.3335 83.24 51.5555 81.6313 51.9727Z" fill="#DE5833"/>
<path d="M47.3124 37.4329C52.1212 29.2366 62.4257 26.2283 70.8321 30.3715C71.4829 30.6957 71.6999 31.5244 71.3383 32.1549L68.952 36.2079C68.3735 37.1807 69.2774 38.3696 70.3802 38.0814L85.9094 34.0283C86.5964 33.8481 86.9941 33.1456 86.8133 32.4791L82.7638 16.9512C82.4745 15.8524 81.0102 15.6543 80.4317 16.627L78.0996 20.608C77.7561 21.2025 76.9968 21.4007 76.3822 21.0764C62.8054 13.8709 45.8299 18.5905 37.9659 31.9747C34.766 37.4149 33.5729 43.4675 34.1333 49.3039C34.2418 50.3848 35.2722 51.1233 36.3208 50.8531L42.3047 49.2859C43.8052 48.8896 44.7994 47.5566 44.8356 46.0074C44.926 43.0892 45.7034 40.153 47.2943 37.4509L47.3124 37.4329Z" fill="#3969EF"/>
<path d="M87 87C95.8366 87 103 79.8366 103 71C103 62.1634 95.8366 55 87 55C78.1634 55 71 62.1634 71 71C71 79.8366 78.1634 87 87 87Z" fill="#21C000"/>
<path d="M96.0408 68.7127C96.5687 68.1909 96.5687 67.3385 96.0408 66.8168L94.1273 64.9258C93.6082 64.4127 92.7729 64.4127 92.2537 64.9258L85.556 71.5448C85.0369 72.0579 84.2016 72.0579 83.6824 71.5448L81.7464 69.6316C81.2272 69.1186 80.3919 69.1186 79.8728 69.6317L77.9593 71.5226C77.4314 72.0443 77.4314 72.8968 77.9594 73.4185L83.6824 79.0742C84.2016 79.5873 85.0369 79.5873 85.556 79.0742L96.0408 68.7127Z" fill="white"/>
<path d="M108.605 59C108.911 59 109.217 59.1201 109.452 59.3542C109.92 59.8225 109.92 60.5849 109.452 61.0532L107.05 63.4545C106.582 63.9228 105.819 63.9228 105.351 63.4545C104.883 62.9863 104.883 62.2238 105.351 61.7556L107.753 59.3542C107.987 59.1201 108.293 59 108.599 59H108.605Z" fill="#CCCCCC"/>
<path d="M107.404 69.8062H111.006C111.667 69.8062 112.207 70.3465 112.207 71.0068C112.207 71.6672 111.667 72.2075 111.006 72.2075H107.404C106.744 72.2075 106.204 71.6672 106.204 71.0068C106.204 70.3465 106.744 69.8062 107.404 69.8062Z" fill="#CCCCCC"/>
<path d="M105.363 78.5661C105.598 78.332 105.904 78.2119 106.21 78.2119H106.216C106.522 78.2119 106.828 78.332 107.062 78.5661L109.464 80.9675C109.932 81.4357 109.932 82.1982 109.464 82.6664C108.995 83.1347 108.233 83.1347 107.765 82.6664L105.363 80.2651C104.895 79.7968 104.895 79.0344 105.363 78.5661Z" fill="#CCCCCC"/>
</svg>
