<svg width="24" height="24" viewBox="0 0 24 24" fill="none" xmlns="http://www.w3.org/2000/svg">
<circle cx="12" cy="12" r="11" fill="white"/>
<path fill-rule="evenodd" clip-rule="evenodd" d="M24 12C24 18.6274 18.6274 24 12 24C5.37258 24 0 18.6274 0 12C0 5.37258 5.37258 0 12 0C18.6274 0 24 5.37258 24 12ZM13.0776 13.0083H13.0776C12.843 13.0056 12.6085 13.0029 12.374 12.9999L11.5202 12.9885C11.1793 12.984 10.8385 12.9794 10.4977 12.975C9.80918 12.9662 9.12071 12.9576 8.43226 12.9491L8.43113 12.949L7.7417 12.9404C7.71513 12.9401 7.68855 12.9401 7.66198 12.94C7.6177 12.9399 7.57342 12.9398 7.52916 12.9385C7.4679 12.9368 7.41903 12.9102 7.39755 12.8509C7.37621 12.7919 7.38595 12.7362 7.4307 12.6881C7.47725 12.638 7.53445 12.6196 7.60132 12.6188C8.39047 12.6095 9.17963 12.5995 9.96878 12.5893L10.8937 12.5772C11.2328 12.5728 11.5719 12.5683 11.911 12.564C12.1666 12.5608 12.4221 12.5571 12.6776 12.5534H12.6777C13.3335 12.5439 13.9892 12.5344 14.645 12.5326C15.0486 12.5316 15.424 12.4433 15.7743 12.2489C16.3162 11.9479 16.7316 11.5266 16.9679 10.9465C17.0656 10.7068 17.1572 10.4646 17.2488 10.2224L17.2488 10.2222C17.2944 10.1017 17.3399 9.98129 17.3862 9.86115C17.4089 9.80228 17.4125 9.74508 17.3982 9.68247C17.2257 8.93361 16.9027 8.25634 16.3943 7.6805C15.1895 6.3159 13.6722 5.76372 11.8863 6.09246C10.2907 6.38618 9.15461 7.32584 8.45483 8.78911C8.41018 8.88249 8.37245 8.97917 8.33449 9.07643L8.33448 9.07646L8.33443 9.0766C8.31671 9.122 8.29894 9.16752 8.2804 9.21289L8.2694 9.20691C8.26273 9.20335 8.25705 9.20032 8.25183 9.19664C7.92574 8.9656 7.56463 8.83147 7.16522 8.80117C6.57222 8.75628 6.04552 8.92697 5.6049 9.32103C4.98354 9.87676 4.76661 10.5773 4.92228 11.3937C4.9335 11.4529 4.91628 11.4588 4.86779 11.4589C4.7454 11.4591 4.62417 11.4751 4.50423 11.4978C3.55412 11.6775 2.839 12.189 2.36369 13.0298C2.14309 13.4199 2.02334 13.8426 2 14.2913V14.6833L2.00418 14.734L2.00418 14.734C2.00724 14.7706 2.01029 14.8072 2.0129 14.8438C2.02515 15.0158 2.06184 15.05 2.23504 15.05H15.4155L15.4347 15.0502C15.4503 15.0504 15.4659 15.0506 15.4814 15.0496C15.5683 15.0437 15.6319 15.0021 15.6552 14.9171C15.6699 14.8633 15.6857 14.8097 15.7016 14.756C15.7542 14.5782 15.8068 14.4003 15.8192 14.2132C15.8389 13.9175 15.7771 13.6442 15.5831 13.4124C15.3567 13.1419 15.0509 13.0384 14.712 13.0316C14.1673 13.0207 13.6224 13.0145 13.0776 13.0083ZM21.9871 13.5584C21.947 13.0585 21.8176 12.5838 21.5938 12.1361C21.2334 11.415 20.7029 10.8523 20.0029 10.4518C19.3533 10.0801 18.6517 9.91525 17.9052 9.93621C17.7938 9.9393 17.7652 9.96432 17.735 10.07L17.6606 10.3302C17.5991 10.5459 17.5375 10.7616 17.4751 10.977C17.4112 11.1974 17.3758 11.421 17.4175 11.649C17.5065 12.1359 17.8351 12.4511 18.329 12.5147C18.5625 12.5447 18.7976 12.5563 19.0327 12.5679L19.0329 12.5679C19.1538 12.5739 19.2747 12.5798 19.3953 12.5883C19.4775 12.5941 19.5597 12.5992 19.6419 12.6043L19.6421 12.6043C19.7718 12.6123 19.9014 12.6203 20.0308 12.6311C20.1381 12.64 20.1905 12.762 20.1292 12.8515C20.0915 12.9063 20.0397 12.9386 19.9703 12.9426L19.792 12.9526L19.7916 12.9527C19.4344 12.9728 19.0772 12.9929 18.7203 13.0165C18.6672 13.02 18.614 13.0223 18.5608 13.0246C18.4164 13.031 18.272 13.0373 18.13 13.0667C17.4897 13.199 16.9854 13.5466 16.5807 14.0507C16.3822 14.2981 16.261 14.5854 16.1508 14.8786C16.1023 15.0079 16.1301 15.0502 16.2667 15.0502L18.9639 15.0502L21.6684 15.0502C21.7939 15.0502 21.8359 15.016 21.8681 14.8931C21.9829 14.4548 22.0234 14.0107 21.9871 13.5584Z" fill="#333333"/>
</svg>
