<svg width="24" height="24" viewBox="0 0 24 24" fill="none" xmlns="http://www.w3.org/2000/svg">
<circle cx="12" cy="12" r="11" fill="white"/>
<path fill-rule="evenodd" clip-rule="evenodd" d="M24 12C24 18.6274 18.6274 24 12 24C5.37258 24 0 18.6274 0 12C0 5.37258 5.37258 0 12 0C18.6274 0 24 5.37258 24 12ZM19.9115 11.7201C19.9068 11.7771 19.8771 11.7879 19.826 11.7872C19.6994 11.7853 19.5729 11.7856 19.4463 11.7859L19.3017 11.7862V11.7857L19.1614 11.7858C19.0334 11.7861 18.9054 11.7863 18.7774 11.7848C18.7289 11.7841 18.7125 11.7972 18.717 11.8482C18.7424 12.1296 18.8979 12.2862 19.1801 12.3044C19.3527 12.3154 19.5237 12.3053 19.6858 12.2359C19.7324 12.2158 19.7614 12.2252 19.7762 12.2756C19.7827 12.2975 19.7909 12.3188 19.7991 12.3402C19.8032 12.3509 19.8073 12.3616 19.8112 12.3724C19.8608 12.5099 19.8621 12.5138 19.7247 12.5581C19.4543 12.645 19.1778 12.6611 18.904 12.5855C18.6102 12.5045 18.4179 12.3113 18.3531 12.0089C18.2806 11.6702 18.2976 11.342 18.508 11.0483C18.7906 10.6538 19.5503 10.6271 19.8022 11.0953C19.9077 11.2915 19.9293 11.5021 19.9115 11.7201ZM18.0952 12.5673C17.8768 12.6297 17.6565 12.65 17.4332 12.6077C17.1459 12.5532 16.9454 12.3875 16.8447 12.1129C16.7468 11.8463 16.7446 11.5742 16.8363 11.3051C16.9606 10.9403 17.2585 10.7478 17.7053 10.7515C17.8151 10.7465 17.9438 10.7698 18.072 10.8032C18.143 10.8218 18.1795 10.8454 18.1388 10.9251C18.1274 10.9477 18.1205 10.974 18.1138 11.0001L18.1138 11.0001C18.1024 11.0439 18.0913 11.0868 18.0587 11.1098C18.0262 11.1329 17.9858 11.1182 17.9443 11.103C17.9202 11.0942 17.8956 11.0852 17.8719 11.0835L17.8527 11.082C17.7591 11.0749 17.6653 11.0677 17.5718 11.0805C17.3948 11.1045 17.2819 11.2112 17.2211 11.3722C17.1403 11.5863 17.1396 11.8047 17.2206 12.0185C17.2857 12.1902 17.4233 12.2781 17.6007 12.2989C17.7376 12.315 17.8764 12.3129 18.0072 12.2613C18.067 12.2377 18.0911 12.258 18.1073 12.3116L18.109 12.3174C18.1216 12.3593 18.1343 12.4018 18.1539 12.4405C18.1896 12.511 18.1744 12.5446 18.0952 12.5673ZM16.7352 10.89C16.724 10.9149 16.7159 10.942 16.7078 10.9689L16.7077 10.969C16.6939 11.015 16.6801 11.0607 16.6516 11.0944C16.6193 11.1328 16.5714 11.1241 16.5228 11.1154C16.4973 11.1108 16.4717 11.1061 16.4479 11.1081C16.2275 11.1266 16.0886 11.2709 16.0663 11.5189C16.0456 11.7501 16.0488 11.9818 16.0519 12.2135V12.2135C16.0532 12.3053 16.0544 12.3971 16.0542 12.4888C16.0539 12.5687 16.0384 12.6039 15.9518 12.5943C15.8844 12.5868 15.8154 12.5901 15.7473 12.5935L15.7459 12.5936C15.6925 12.5962 15.6757 12.5733 15.6758 12.5231C15.6765 11.9648 15.6767 11.4064 15.6756 10.8482C15.6754 10.7969 15.6977 10.7852 15.7433 10.7869L15.7488 10.7871H15.7488C15.8185 10.7897 15.8886 10.7923 15.9579 10.7863C16.0315 10.7797 16.0569 10.8082 16.0467 10.878C16.0452 10.8885 16.0455 10.8993 16.0459 10.9157V10.9158V10.9159C16.0461 10.9255 16.0464 10.9372 16.0464 10.9519C16.2363 10.771 16.4456 10.7425 16.6738 10.7881C16.7374 10.8009 16.766 10.8215 16.7352 10.89ZM15.3285 12.028C15.3068 12.1133 15.2743 12.1932 15.2271 12.2677C15.2113 12.2926 15.194 12.3169 15.1748 12.3405C15.1606 12.358 15.1463 12.3746 15.1314 12.3903C15.1168 12.406 15.1017 12.4209 15.0864 12.4349C14.8718 12.6317 14.6018 12.6657 14.313 12.6039C14.2318 12.5864 14.1594 12.5595 14.0952 12.5238C13.9027 12.417 13.7849 12.232 13.7319 11.995C13.7252 11.9655 13.72 11.9359 13.715 11.9064C13.7016 11.8267 13.6939 11.7471 13.694 11.6682C13.6943 11.4882 13.733 11.3117 13.8232 11.1433C13.863 11.0692 13.914 11.0043 13.9738 10.9497L13.9766 10.9473L13.9817 10.9431C14.0097 10.9183 14.0392 10.8954 14.0705 10.875C14.2201 10.7779 14.4059 10.7328 14.6005 10.7487C14.6172 10.75 14.634 10.752 14.6508 10.7544L14.6564 10.7551C14.6649 10.7561 14.6735 10.7571 14.682 10.7585C14.7088 10.7631 14.7348 10.769 14.7602 10.7756C14.7879 10.7828 14.8147 10.7913 14.8407 10.8009C15.1067 10.8986 15.287 11.1181 15.344 11.4224C15.3604 11.5101 15.3663 11.5982 15.3652 11.6571C15.3666 11.7907 15.3573 11.9142 15.3285 12.028ZM13.6186 11.0775C13.6142 11.0982 13.5934 11.0977 13.5751 11.0974L13.5671 11.0973C13.5301 11.0975 13.4932 11.0975 13.4519 11.0974L13.4005 11.0974C13.3814 11.0995 13.3588 11.0968 13.3356 11.0941C13.2904 11.0888 13.2427 11.0831 13.2134 11.1115C13.1855 11.1385 13.1805 11.1898 13.1756 11.2403L13.1756 11.2403C13.1737 11.26 13.1718 11.2796 13.1686 11.2976C13.1406 11.4539 13.113 11.6103 13.0853 11.7667C13.0307 12.0748 12.9762 12.3829 12.9196 12.6906C12.8916 12.8426 12.8474 12.9912 12.7668 13.1255C12.6552 13.3113 12.4915 13.4117 12.2736 13.4196C12.1705 13.4233 12.0679 13.4252 11.9669 13.3949C11.9119 13.3784 11.8872 13.3535 11.9138 13.2965C11.9164 13.291 11.9183 13.2852 11.9202 13.2794L11.9226 13.2723C11.9291 13.2542 11.9343 13.2349 11.9395 13.2156C11.9513 13.1721 11.9631 13.1285 11.9897 13.0979C12.0209 13.0619 12.0603 13.0768 12.1004 13.092C12.1215 13.0999 12.1428 13.108 12.1633 13.1088C12.3146 13.1151 12.4091 13.062 12.4741 12.9158C12.537 12.7744 12.5627 12.6233 12.5884 12.4725C12.5929 12.4458 12.5975 12.4191 12.6022 12.3925L12.6649 12.0389L12.6649 12.0388C12.7167 11.7456 12.7686 11.4525 12.8225 11.1598C12.8321 11.1085 12.8241 11.0915 12.7727 11.0971C12.7591 11.0985 12.7453 11.0981 12.7315 11.0977H12.7315C12.7252 11.0976 12.7189 11.0974 12.7126 11.0974C12.6217 11.0974 12.576 11.0974 12.5573 11.0749C12.5383 11.0521 12.547 11.0062 12.5645 10.9139C12.5766 10.8503 12.5826 10.8185 12.6018 10.8025C12.6211 10.7866 12.6535 10.7866 12.7185 10.7866H12.7187C12.8798 10.7866 12.88 10.7866 12.916 10.6281C12.9592 10.4379 13.022 10.2556 13.1858 10.1345C13.3987 9.97712 13.6376 9.97667 13.8828 10.0397C13.9144 10.0478 13.9245 10.0659 13.9106 10.0969C13.9042 10.1112 13.899 10.126 13.8938 10.1408L13.8865 10.1612C13.8798 10.1793 13.8744 10.1986 13.8689 10.2178L13.8689 10.2178C13.8567 10.2614 13.8445 10.305 13.8171 10.3346C13.7894 10.3645 13.7533 10.3512 13.7157 10.3373L13.7157 10.3373C13.6943 10.3294 13.6724 10.3213 13.6513 10.321C13.4587 10.3186 13.3529 10.3933 13.3014 10.5816C13.2732 10.6847 13.2592 10.736 13.2787 10.7614C13.298 10.7866 13.3501 10.7866 13.4535 10.7866L13.4617 10.7864C13.4676 10.7862 13.4735 10.7861 13.4793 10.7867C13.5008 10.789 13.5274 10.7865 13.5535 10.784C13.6019 10.7795 13.6483 10.7751 13.6562 10.8019C13.6749 10.8661 13.6559 10.9356 13.637 11.0045L13.637 11.0045C13.6302 11.029 13.6236 11.0534 13.6186 11.0775ZM11.2785 12.6019C11.1546 12.5756 11.0396 12.5247 10.9332 12.4551L10.933 12.455C10.9058 12.4372 10.8771 12.4185 10.8887 12.381C10.9122 12.3047 10.9381 12.229 10.9657 12.154C10.9764 12.125 10.9985 12.1291 11.0214 12.1438C11.0601 12.1685 11.0988 12.193 11.1389 12.215C11.3195 12.3143 11.5105 12.3633 11.7159 12.3191C11.8275 12.2951 11.8883 12.2258 11.8991 12.1295C11.9085 12.0449 11.8649 11.9779 11.7526 11.9319C11.6661 11.8965 11.5766 11.8681 11.4872 11.8398L11.4285 11.8211C11.333 11.7904 11.2384 11.7579 11.1533 11.7038C10.8434 11.5069 10.856 11.0516 11.1763 10.8506C11.2926 10.7776 11.4153 10.7487 11.6136 10.7498C11.8025 10.7454 11.9884 10.7922 12.1637 10.886C12.2099 10.9107 12.2252 10.937 12.2012 10.9881C12.177 11.0396 12.1599 11.0947 12.144 11.1495C12.1281 11.2043 12.1027 11.2046 12.0568 11.18C11.9027 11.0975 11.7367 11.0592 11.5621 11.0579C11.5016 11.0575 11.4425 11.0637 11.3889 11.097C11.2713 11.17 11.265 11.3147 11.3777 11.3948C11.4463 11.4437 11.5249 11.4695 11.6035 11.4953L11.6447 11.509L11.7032 11.5285L11.7032 11.5285C11.8057 11.5625 11.9082 11.5964 12.0033 11.6496C12.1745 11.7454 12.2746 11.8839 12.2657 12.0867C12.2565 12.297 12.1691 12.4625 11.9751 12.5576C11.75 12.668 11.5143 12.6518 11.2785 12.6019ZM10.6856 11.7087C10.6871 11.7679 10.6619 11.7883 10.6028 11.7872C10.4776 11.7851 10.3524 11.7855 10.2271 11.7859L10.2262 11.7859C10.177 11.786 10.1279 11.7862 10.0787 11.7862V11.7857L9.93663 11.7859C9.81213 11.7863 9.68763 11.7866 9.56317 11.7846C9.50699 11.7836 9.48995 11.7988 9.49416 11.8577C9.51315 12.1169 9.67042 12.2819 9.92893 12.3026C10.1045 12.3167 10.2787 12.3081 10.4446 12.2423C10.5082 12.2169 10.542 12.2317 10.5578 12.2963C10.5605 12.3073 10.5643 12.3182 10.5681 12.3289C10.636 12.5199 10.6369 12.5231 10.4426 12.5759C10.1925 12.6439 9.93819 12.6557 9.68734 12.5884C9.40369 12.5126 9.21207 12.3325 9.13508 12.0438C9.05498 11.7434 9.06866 11.4484 9.20675 11.1661C9.46111 10.646 10.2249 10.6449 10.495 10.9809C10.6075 11.121 10.6648 11.2777 10.6822 11.4513C10.6875 11.5044 10.6867 11.5581 10.6858 11.6118V11.6119C10.6853 11.6442 10.6847 11.6765 10.6856 11.7087ZM8.76058 11.3114H8.76142L8.76129 11.6056V11.606C8.76109 11.9058 8.76088 12.2056 8.76259 12.5053C8.76298 12.569 8.7506 12.6009 8.67809 12.5942C8.60998 12.5879 8.54044 12.5884 8.47227 12.5945C8.40112 12.6008 8.38556 12.5711 8.38569 12.5058C8.38705 11.7099 8.38654 10.914 8.38492 10.1179C8.38479 10.0592 8.40287 10.0329 8.46365 10.0379C8.49668 10.0406 8.53288 10.0368 8.5687 10.033C8.6373 10.0258 8.70448 10.0187 8.74522 10.0581C8.78295 10.0946 8.7748 10.1657 8.7667 10.2363C8.76326 10.2664 8.75982 10.2964 8.75993 10.3236C8.76099 10.567 8.76084 10.8104 8.76069 11.0537L8.76058 11.3114ZM7.95948 12.5227C7.63546 12.5977 7.31034 12.6691 6.97583 12.6009C6.68479 12.5415 6.51864 12.3676 6.506 12.121C6.48948 11.7995 6.62803 11.5891 6.92074 11.4896C7.11846 11.4224 7.32097 11.4296 7.52361 11.4525L7.52788 11.453C7.62788 11.4643 7.63022 11.4646 7.62607 11.3609C7.61855 11.1739 7.52348 11.0789 7.31767 11.0653C7.1355 11.0532 6.956 11.077 6.79152 11.1596C6.71201 11.1995 6.67708 11.1835 6.66023 11.1015C6.65747 11.0882 6.65213 11.0754 6.64679 11.0626L6.64678 11.0625C6.64436 11.0567 6.64194 11.0509 6.63976 11.0451C6.58804 10.9054 6.59472 10.8886 6.73268 10.838C6.97077 10.7507 7.21774 10.7239 7.4673 10.7581C7.81393 10.8056 7.9856 11.0086 7.99771 11.3745C8.00178 11.4967 8.00073 11.619 7.99969 11.7414C7.99922 11.7966 7.99875 11.8519 7.99875 11.9072H8.00102L8.00115 12.4399L8.00118 12.4469C8.0014 12.4795 8.00162 12.513 7.95948 12.5227ZM6.26752 12.1028C6.25275 12.3118 6.16287 12.471 5.97098 12.5603C5.72389 12.6752 5.46947 12.6527 5.21576 12.5834C5.11305 12.5553 5.01805 12.5084 4.92868 12.45C4.89933 12.4308 4.88021 12.4087 4.89213 12.3724C4.9154 12.3018 4.93918 12.2314 4.96439 12.1615C4.97541 12.1309 4.99549 12.1245 5.02459 12.1434C5.06781 12.1714 5.11201 12.1981 5.15686 12.2233C5.31102 12.3099 5.47802 12.3411 5.65306 12.3336C5.7082 12.3312 5.76018 12.3137 5.80651 12.2835C5.93923 12.1972 5.93709 12.0356 5.80081 11.9553C5.71483 11.9047 5.62003 11.877 5.5253 11.8493C5.49372 11.84 5.46215 11.8308 5.43091 11.8207C5.35723 11.7969 5.28471 11.7713 5.21537 11.7369C5.03904 11.6493 4.9338 11.5128 4.93354 11.311C4.93335 11.1067 5.01831 10.9456 5.19697 10.8403C5.32152 10.7669 5.45839 10.7421 5.58916 10.7504C5.79763 10.7445 5.98142 10.7899 6.15554 10.8791C6.20635 10.9052 6.23104 10.9334 6.20324 10.9933C6.1925 11.0164 6.18509 11.0433 6.17777 11.0697C6.16468 11.1171 6.15188 11.1635 6.12087 11.1856C6.08821 11.209 6.0472 11.184 6.0049 11.1582C5.98274 11.1447 5.96024 11.131 5.93839 11.1239C5.81189 11.0826 5.68436 11.0559 5.55112 11.0577C5.49001 11.0586 5.43195 11.0693 5.38056 11.1059C5.27279 11.1825 5.27143 11.3162 5.379 11.3935C5.44761 11.4429 5.52651 11.4687 5.60535 11.4946C5.62161 11.5 5.63787 11.5053 5.65403 11.5108C5.67508 11.518 5.69621 11.525 5.71733 11.532C5.81298 11.5638 5.90862 11.5955 5.99742 11.6447C6.17719 11.7443 6.28282 11.8858 6.26752 12.1028ZM21.9496 10.6254C21.8853 10.1682 21.75 9.73294 21.5457 9.32099C21.3096 8.84475 20.9983 8.42288 20.6065 8.05959C20.3155 7.78987 19.9975 7.56131 19.6462 7.3798C19.1271 7.11164 18.5761 6.95935 17.9915 6.91574C17.6177 6.88787 17.2493 6.91127 16.8832 6.97737C16.5817 7.03187 16.2878 7.11754 16.0067 7.24267C15.9678 7.26004 15.9393 7.26762 15.9077 7.21358C15.6599 6.78983 15.3415 6.42686 14.9456 6.13486C14.3466 5.69309 13.6749 5.45993 12.9299 5.44016C12.6977 5.43394 12.4673 5.45293 12.2389 5.49337C11.8367 5.56458 11.458 5.70177 11.1046 5.90668C10.8154 6.07433 10.5586 6.28416 10.3187 6.51921C10.2934 6.48936 10.269 6.45975 10.245 6.43055L10.2449 6.4305C10.1942 6.36888 10.1449 6.30905 10.0921 6.25247C9.70957 5.84233 9.26151 5.52441 8.74496 5.30427C8.37033 5.14472 7.97905 5.0492 7.57448 5.01382C7.31579 4.99114 7.05664 4.99736 6.79697 5.02529C6.37782 5.07059 5.97766 5.18062 5.59661 5.35676C5.29178 5.49758 5.01079 5.67618 4.75261 5.89431C4.58257 6.03785 4.42082 6.18845 4.2789 6.35785C4.12713 6.53897 3.98968 6.73183 3.87122 6.93764C3.58854 7.42846 3.41448 7.95713 3.36646 8.51866C3.33905 8.84047 3.34099 9.16727 3.39517 9.49084C3.44701 9.80034 3.52089 10.1025 3.64777 10.39C3.66676 10.433 3.6479 10.4535 3.62185 10.4682C3.47077 10.5531 3.33784 10.6613 3.20416 10.77L3.16065 10.8054C2.98179 10.9503 2.83216 11.1206 2.69458 11.3009C2.44768 11.6246 2.26441 11.9828 2.14783 12.3747C2.07506 12.6193 2.01829 12.8686 2.00643 13.1217C1.9947 13.3706 1.99619 13.621 2.03507 13.8708C2.07972 14.1582 2.15587 14.435 2.2672 14.7018C2.41197 15.0488 2.61085 15.3613 2.86035 15.6456C3.00207 15.8072 3.15844 15.9494 3.32538 16.0796C3.53515 16.2436 3.76442 16.378 4.00938 16.4864C4.3299 16.6282 4.66493 16.72 5.01131 16.7473C5.32813 16.7724 5.64871 16.7746 5.9634 16.7028C6.00455 16.6934 6.0317 16.7054 6.0492 16.7505C6.08808 16.8512 6.12956 16.9513 6.17758 17.048C6.32935 17.3533 6.52369 17.628 6.74979 17.8848C6.9013 18.0568 7.07187 18.2043 7.25033 18.3416C7.46872 18.5096 7.7142 18.6368 7.96622 18.7503C8.5444 19.0107 9.15394 19.0881 9.7778 19.0354C10.0851 19.0094 10.3876 18.9319 10.6783 18.817C11.1733 18.621 11.6088 18.3355 11.9798 17.9552C12.271 17.6569 12.5005 17.3142 12.673 16.9346C12.6986 16.8782 12.7227 16.8632 12.7822 16.8902C13.2274 17.0915 13.6927 17.1882 14.1837 17.1698C14.3931 17.162 14.5994 17.1395 14.8004 17.0892C15.6592 16.8737 16.3259 16.3906 16.7868 15.6318C16.8242 15.5702 16.8653 15.5566 16.9257 15.5688C17.1284 15.6094 17.3329 15.6286 17.5395 15.6357C17.7942 15.6443 18.0487 15.6342 18.299 15.597C18.7188 15.5346 19.1251 15.4144 19.5077 15.2285C19.9882 14.9949 20.4169 14.6889 20.7865 14.2987C21.1274 13.9388 21.3992 13.536 21.6055 13.0861C21.8458 12.5619 21.9692 12.0104 21.9963 11.4367C22.0091 11.1652 21.9874 10.8951 21.9496 10.6254ZM7.62796 12.0258L7.62805 11.9655C7.62817 11.9141 7.62829 11.8627 7.62763 11.8113C7.62757 11.8077 7.62771 11.8038 7.62784 11.8C7.6286 11.7784 7.6294 11.7553 7.59685 11.7516L7.5713 11.7487C7.39791 11.7286 7.22394 11.7085 7.05445 11.7721C6.92633 11.8202 6.87267 11.9147 6.88032 12.064C6.88693 12.1949 6.94668 12.2646 7.08432 12.3034C7.23192 12.3449 7.37821 12.3234 7.52444 12.3018C7.54469 12.2989 7.56494 12.2959 7.58519 12.2931C7.62128 12.288 7.62919 12.2645 7.62841 12.2317C7.62728 12.1818 7.62752 12.1319 7.62776 12.082V12.082L7.62796 12.0258ZM19.4142 11.1589C19.309 11.0553 19.1212 11.0269 18.9723 11.0904C18.8493 11.1429 18.7317 11.3226 18.7293 11.4522C18.7284 11.4987 18.7538 11.498 18.78 11.4972L18.7913 11.497C18.8771 11.4975 18.9629 11.4975 19.0487 11.4974H19.049L19.135 11.4973V11.4984L19.2338 11.4981H19.2339C19.3156 11.4977 19.3972 11.4974 19.4787 11.4992C19.5274 11.5004 19.5471 11.4849 19.5396 11.4352C19.5238 11.3311 19.4912 11.2347 19.4142 11.1589ZM14.5194 11.0638C14.3262 11.0671 14.2037 11.1636 14.1395 11.3627C14.1049 11.4698 14.095 11.5804 14.09 11.7091L14.0942 11.7542L14.0942 11.7542C14.0981 11.7975 14.1026 11.8473 14.1095 11.8967C14.115 11.936 14.1253 11.9751 14.1371 12.0131C14.2019 12.2224 14.3241 12.3177 14.5276 12.3188C14.738 12.32 14.8677 12.2274 14.9305 12.0171C14.9965 11.7958 14.9971 11.5708 14.9255 11.3509C14.8598 11.1489 14.7264 11.0603 14.5194 11.0638ZM9.96754 11.0618C9.71111 11.0451 9.54327 11.1832 9.50238 11.4407C9.49415 11.4922 9.51663 11.4982 9.55798 11.4978C9.63946 11.4968 9.72101 11.497 9.80255 11.4972L9.90169 11.4973V11.4984L9.9961 11.4985H9.99611C10.0821 11.4987 10.1681 11.4989 10.254 11.4977C10.2587 11.4976 10.2638 11.4981 10.2689 11.4987C10.2904 11.501 10.3136 11.5035 10.3162 11.4634C10.3286 11.2691 10.1608 11.0744 9.96754 11.0618Z" fill="#333333"/>
</svg>
