<svg width="24" height="24" viewBox="0 0 24 24" fill="none" xmlns="http://www.w3.org/2000/svg">
<circle cx="12" cy="12" r="12" fill="#DFDFDF"/>
<path d="M12.0755 18.216C15.2975 18.216 16.8815 16.56 16.8815 14.364C16.8815 9.882 9.98752 11.16 9.98752 9.27C9.98752 8.55 10.5995 8.082 11.6795 8.082C12.9035 8.082 14.1995 8.496 15.1715 9.396L16.5935 7.488C15.4055 6.39 13.8215 5.814 11.9135 5.814C9.08752 5.814 7.35952 7.47 7.35952 9.468C7.35952 13.986 14.2715 12.528 14.2715 14.616C14.2715 15.318 13.6055 15.948 12.1835 15.948C10.5275 15.948 9.21352 15.192 8.36752 14.31L6.96352 16.308C8.09752 17.442 9.75352 18.216 12.0755 18.216Z" fill="#444444"/>
</svg>
