<svg width="16" height="16" viewBox="0 0 16 16" fill="none" xmlns="http://www.w3.org/2000/svg">
<path d="M10.2505 0C10.6647 0 11.0005 0.335786 11.0005 0.75V1.75C11.0005 2.16421 10.6647 2.5 10.2505 2.5C9.83628 2.5 9.50049 2.16421 9.50049 1.75V0.75C9.50049 0.335786 9.83628 0 10.2505 0Z" fill="#3969EF"/>
<path d="M11.0005 9.75C11.0005 9.33579 10.6647 9 10.2505 9C9.83628 9 9.50049 9.33579 9.50049 9.75V10.75C9.50049 11.1642 9.83628 11.5 10.2505 11.5C10.6647 11.5 11.0005 11.1642 11.0005 10.75V9.75Z" fill="#3969EF"/>
<path d="M16.0005 5.75C16.0005 6.16421 15.6647 6.5 15.2505 6.5H14.2505C13.8363 6.5 13.5005 6.16421 13.5005 5.75C13.5005 5.33579 13.8363 5 14.2505 5H15.2505C15.6647 5 16.0005 5.33579 16.0005 5.75Z" fill="#3969EF"/>
<path d="M6.25049 6.5C6.6647 6.5 7.00049 6.16421 7.00049 5.75C7.00049 5.33579 6.6647 5 6.25049 5H5.25049C4.83627 5 4.50049 5.33579 4.50049 5.75C4.50049 6.16421 4.83627 6.5 5.25049 6.5H6.25049Z" fill="#3969EF"/>
<path d="M14.3161 9.81549C14.0232 10.1084 13.5483 10.1084 13.2554 9.81549L12.5483 9.10838C12.2554 8.81549 12.2554 8.34061 12.5483 8.04772C12.8412 7.75483 13.3161 7.75483 13.609 8.04772L14.3161 8.75483C14.609 9.04772 14.609 9.52259 14.3161 9.81549Z" fill="#3969EF"/>
<path d="M6.89143 3.4522C7.18432 3.7451 7.6592 3.7451 7.95209 3.4522C8.24499 3.15931 8.24499 2.68444 7.95209 2.39154L7.24499 1.68444C6.95209 1.39154 6.47722 1.39154 6.18433 1.68444C5.89143 1.97733 5.89143 2.4522 6.18432 2.7451L6.89143 3.4522Z" fill="#3969EF"/>
<path d="M12.5485 3.45209C12.2556 3.1592 12.2556 2.68432 12.5485 2.39143L13.2556 1.68432C13.5485 1.39143 14.0234 1.39143 14.3163 1.68433C14.6092 1.97722 14.6092 2.45209 14.3163 2.74499L13.6092 3.45209C13.3163 3.74499 12.8414 3.74498 12.5485 3.45209Z" fill="#3969EF"/>
<path d="M10.7811 6.27994C11.0738 5.98684 11.0735 5.51197 10.7804 5.21929C10.4873 4.9266 10.0124 4.92695 9.71971 5.22006L4.20711 10.7407L5.26854 11.8006L10.7811 6.27994Z" fill="#3969EF"/>
<path d="M1.92519 15.1359L3.94977 13.1529L2.90018 12.0813L0.875595 14.0643C0.579677 14.3541 0.574747 14.829 0.864583 15.1249C1.15442 15.4208 1.62927 15.4257 1.92519 15.1359Z" fill="#3969EF"/>
</svg>
