<svg width="24" height="24" fill="none" xmlns="http://www.w3.org/2000/svg">
  <g clip-path="url(#Kargo_svg__a)">
    <path fill="#000" d="M24 12c0 6.627-5.373 12-12 12S0 18.627 0 12 5.373 0 12 0s12 5.373 12 12Z"/>
    <path fill="#fff" fill-opacity=".09" fill-rule="evenodd" d="M24 12c0 6.627-5.373 12-12 12S0 18.627 0 12 5.373 0 12 0s12 5.373 12 12ZM12 23.5c6.351 0 11.5-5.149 11.5-11.5S18.351.5 12 .5.5 5.649.5 12 5.649 23.5 12 23.5Z" clip-rule="evenodd"/>
    <path fill="#fff" d="M16.193 15.375H3.5V9h17v6.375h-4.307Zm-4.38-.823h7.857v-.942c-.822.31-1.515.163-2.049-.572-.344-.614-.352-1.233.075-1.794.516-.676 1.206-.777 1.973-.479v-.94H4.329v2.126c.018-.017.032-.027.043-.04l.136-.164c.131-.156.264-.31.395-.467.16-.19.317-.382.478-.571a.112.112 0 0 1 .073-.03h.968c0 .012.003.022 0 .026l-.126.142-.435.496c-.172.198-.342.399-.516.595-.029.032-.035.05-.01.085.097.134.19.27.284.405a111.14 111.14 0 0 1 .72 1.064c.045.065.087.13.131.197-.007.003-.01.006-.014.006H5.46c-.014 0-.033-.014-.041-.026a72.602 72.602 0 0 1-.4-.59 20.284 20.284 0 0 1-.26-.397c-.017-.028-.03-.039-.053-.012-.119.135-.238.27-.354.406a.126.126 0 0 0-.023.076c-.002.45-.001.9-.001 1.349l.002.051h7.484Zm6.761-3.012c-.06.056-.123.109-.177.17a.716.716 0 0 0-.171.448c-.005.086.02.175.043.26a.706.706 0 0 0 .385.458.62.62 0 0 0 .479.045.76.76 0 0 0 .392-.278.746.746 0 0 0 .115-.689.763.763 0 0 0-.348-.431.6.6 0 0 0-.473-.08c-.082.023-.159.062-.245.097Z"/>
    <path fill="#fff" d="M10.708 10.998v-.316l.045-.003c.508 0 1.016-.004 1.524.001a.957.957 0 0 1 .53.175.98.98 0 0 1 .42.617c.03.133.02.278.006.415-.024.258-.163.457-.35.624-.047.04-.103.07-.154.105l.685 1.077-.042.002h-.884c-.034.001-.052-.009-.07-.04a8.084 8.084 0 0 0-.177-.302c-.1-.165-.203-.328-.304-.492-.005-.008-.01-.016-.013-.025-.027-.085-.09-.098-.168-.09-.064.006-.128 0-.196 0v.946h-.852v-2.694Zm.85.555v.462c.181 0 .357-.008.531.003.156.01.333-.14.322-.325-.008-.142-.166-.287-.282-.284-.173.004-.347 0-.52.001l-.051.003v.14Zm-3.616-.656c.026-.059.057-.111.076-.168.013-.038.03-.051.067-.05h.713l1.308 3.016h-.067l-.776.001c-.044 0-.07-.007-.086-.054a7.587 7.587 0 0 0-.137-.35c-.01-.026-.029-.044-.067-.044-.37.003-.74.002-1.11.001-.034 0-.05.008-.063.044-.049.135-.105.267-.158.4h-.907c.404-.933.806-1.862 1.207-2.796Zm.708 1.678h.09l-.015-.051-.196-.492a8.209 8.209 0 0 0-.09-.217c-.005-.012-.02-.019-.029-.028-.006.01-.013.02-.017.03l-.103.264c-.066.163-.134.325-.204.494h.564Zm7.024-1.165c-.078-.004-.152-.018-.223-.01a.746.746 0 0 0-.354.134.731.731 0 0 0-.264.383.972.972 0 0 0-.018.49.653.653 0 0 0 .261.413c.13.095.273.137.427.154.098.011.198.013.302.018v-.813h.819v.057c0 .453-.002.906.002 1.36 0 .064-.03.08-.077.087-.199.033-.397.072-.6.07-.135 0-.27.016-.405.008a2.23 2.23 0 0 1-.456-.071 1.672 1.672 0 0 1-.494-.226 1.463 1.463 0 0 1-.632-1.09 1.552 1.552 0 0 1 .15-.896 1.63 1.63 0 0 1 .27-.39 1.53 1.53 0 0 1 .565-.375 1.6 1.6 0 0 1 .685-.102c.24.016.476.058.693.17.094.048.186.098.284.15l-.318.522a3.094 3.094 0 0 0-.062.11c-.02.037-.05.039-.081.018a1.22 1.22 0 0 0-.408-.165c-.02-.005-.04-.004-.066-.006Z"/>
  </g>
  <defs>
    <clipPath id="Kargo_svg__a">
      <path fill="#fff" d="M0 0h24v24H0z"/>
    </clipPath>
  </defs>
</svg>
