<svg width="24" height="24" fill="none" xmlns="http://www.w3.org/2000/svg">
  <g clip-path="url(#Beeswax_svg__a)">
    <path fill="#2A534E" d="M24 12c0 6.627-5.373 12-12 12S0 18.627 0 12 5.373 0 12 0s12 5.373 12 12Z"/>
    <path fill="#fff" fill-opacity=".12" fill-rule="evenodd" d="M24 12c0 6.627-5.373 12-12 12S0 18.627 0 12 5.373 0 12 0s12 5.373 12 12ZM12 23.5c6.351 0 11.5-5.149 11.5-11.5S18.351.5 12 .5.5 5.649.5 12 5.649 23.5 12 23.5Z" clip-rule="evenodd"/>
    <path fill="#FCF8F0" d="M16.103 8.84c-.91-1.698-1.586-3.1-1.555-3.182.071-.194 1.217-.215 1.371-.03.051.07.85 1.534 1.76 3.243l1.658 3.11-.184.38c-.113.214-.88 1.678-1.73 3.264L15.888 18.5h-.644c-.471 0-.655-.04-.696-.154-.041-.081.645-1.473 1.555-3.192.88-1.678 1.607-3.1 1.607-3.162 0-.061-.727-1.474-1.607-3.152Zm-9.783.041C7.232 7.162 8.03 5.7 8.092 5.627c.154-.194 1.34-.123 1.381.082.01.082-.695 1.515-1.575 3.172-.89 1.658-1.607 3.06-1.607 3.121 0 .051.716 1.463 1.607 3.121.88 1.658 1.586 3.09 1.575 3.172-.04.205-1.227.277-1.381.082-.061-.071-.696-1.238-1.412-2.589l-1.082-2.036-.576-1.085-.358-.665 1.658-3.12Z"/>
    <path fill="#FCF8F0" d="M9.094 9.178c-.174.327-.317.655-.317.716 0 .082.93.113 3.223.113 2.139 0 3.223-.03 3.223-.102 0-.062-.143-.379-.307-.717l-.307-.614H9.421l-.327.604Zm-1.238 3.264c-.256-.42-.256-.46 0-.88l.204-.327h7.951l.184.399c.174.399.174.42-.02.747l-.195.338-3.96.03-3.96.02-.204-.327Zm.921 1.658c0 .061.143.379.307.716l.307.614h5.218l.307-.614c.164-.337.307-.655.307-.716 0-.072-1.085-.102-3.223-.102-2.139 0-3.223.03-3.223.102Zm2.251 3.223c0-.05.194-.297.43-.532.235-.245.48-.44.542-.44.143 0 .972.84.972.983 0 .133-.85.961-.982.961-.123 0-.962-.839-.962-.972Z"/>
  </g>
  <defs>
    <clipPath id="Beeswax_svg__a">
      <path fill="#fff" d="M0 0h24v24H0z"/>
    </clipPath>
  </defs>
</svg>
