<svg width="24" height="24" fill="none" xmlns="http://www.w3.org/2000/svg">
  <g clip-path="url(#Simplifi-Holdings_svg__a)">
    <path fill="#333C42" d="M24 12c0 6.627-5.373 12-12 12S0 18.627 0 12 5.373 0 12 0s12 5.373 12 12Z"/>
    <path fill="#fff" fill-opacity=".12" fill-rule="evenodd" d="M24 12c0 6.627-5.373 12-12 12S0 18.627 0 12 5.373 0 12 0s12 5.373 12 12ZM12 23.5c6.351 0 11.5-5.149 11.5-11.5S18.351.5 12 .5.5 5.649.5 12 5.649 23.5 12 23.5Z" clip-rule="evenodd"/>
    <path fill="#D6CBB7" d="M6.5 5.5h1v13h-1v-13Z"/>
    <path fill="#BE2931" d="M10 5.5h1v13h-1v-13Z"/>
    <path fill="#D6CA42" d="M13.5 5.5h1v13h-1v-13Z"/>
    <path fill="#4294A9" d="M17 5.5h1v13h-1v-13Z"/>
  </g>
  <defs>
    <clipPath id="Simplifi-Holdings_svg__a">
      <path fill="#fff" d="M0 0h24v24H0z"/>
    </clipPath>
  </defs>
</svg>
