<svg fill="none" viewBox="0 0 128 96" xmlns="http://www.w3.org/2000/svg">
  <path fill="#888" d="m105.629 38.2 1.542-.4a.875.875 0 0 0 .629-.629l.4-1.543A.84.84 0 0 1 109 35c.4 0 .743.286.8.628l.4 1.543a.875.875 0 0 0 .629.629l1.542.4c.4.114.629.457.629.8 0 .4-.286.743-.629.8l-1.542.4a.875.875 0 0 0-.629.628l-.4 1.543a.84.84 0 0 1-.8.629c-.4 0-.743-.286-.8-.629l-.4-1.543a.875.875 0 0 0-.629-.628l-1.542-.4A.842.842 0 0 1 105 39c0-.4.286-.743.629-.8Zm-89.686-6.4 2.314-.6c.429-.086.857-.514.943-.943l.6-2.314c.171-.6.686-.943 1.2-.943.6 0 1.114.428 1.2.943l.6 2.314c.086.429.514.857.943.943l2.314.6c.6.171.943.686.943 1.2 0 .6-.429 1.114-.943 1.2l-2.314.6c-.429.086-.857.514-.943.943l-.6 2.314c-.171.6-.686.943-1.2.943-.6 0-1.114-.429-1.2-.943l-.6-2.314c-.086-.429-.514-.857-.943-.943l-2.314-.6c-.6-.172-.943-.686-.943-1.2 0-.6.429-1.114.943-1.2ZM.629 53.2l1.542-.4a.876.876 0 0 0 .629-.629l.4-1.543A.841.841 0 0 1 4 50c.4 0 .743.286.8.628l.4 1.543a.876.876 0 0 0 .629.629l1.542.4c.4.114.629.457.629.8 0 .4-.286.743-.629.8l-1.542.4a.875.875 0 0 0-.629.628l-.4 1.543A.841.841 0 0 1 4 58c-.4 0-.743-.286-.8-.629l-.4-1.543a.875.875 0 0 0-.629-.628L.63 54.8A.841.841 0 0 1 0 54c0-.4.286-.743.629-.8ZM126.5 52c-.825 0-1.5-.675-1.5-1.5s.675-1.5 1.5-1.5 1.5.675 1.5 1.5-.675 1.5-1.5 1.5ZM23 70c-1.1 0-2-.9-2-2s.9-2 2-2 2 .9 2 2-.9 2-2 2Z" opacity=".2"/>
  <path fill="#fff" fill-rule="evenodd" d="M36.5 25.558v14.538c0 32.192 27 36.808 27 36.808s.553-.095 1.5-.35V73c0-10.493 8.507-19 19-19h4.5c1.25-3.94 2-8.539 2-13.904V25.558l-14 .846-13-9.154L51 25.904l-14.5-.346Z" clip-rule="evenodd"/>
  <path fill="#F2F2F2" d="M87.666 54H84c-10.493 0-19 8.507-19 19v1l-1.5 2V17.77l13 8.634 13.48-.327v14.538c0 4.257-.816 8.899-2.314 13.385Z"/>
  <path fill="#CACACA" fill-rule="evenodd" d="M57.786 18.202c1.495-1.506 3.586-2.303 5.705-2.298 2.118.005 4.205.813 5.692 2.328 2.735 2.786 5.151 4.278 7.618 5.043 2.468.765 5.41.933 9.455.419 2.09-.266 4.251.261 5.935 1.527 1.698 1.275 2.785 3.22 2.804 5.381.068 7.997-.519 14.497-1.785 19.886C92.714 52.602 90.767 54 88.595 54h-1.647c2.047-5.467 3.137-12.84 3.047-23.355-.004-.458-.233-.995-.807-1.427-.587-.44-1.429-.675-2.301-.564-4.46.567-8.18.446-11.567-.604-3.44-1.066-6.542-3.092-9.706-6.316-.474-.483-1.244-.828-2.136-.83-.891-.002-1.665.339-2.144.82-3.115 3.14-6.174 5.166-9.587 6.256-3.385 1.082-7.122 1.243-11.638.674-.872-.11-1.713.126-2.299.567-.572.43-.801.968-.805 1.425-.125 14.698 2.053 23.255 5.93 29.053 4.174 6.24 10.42 9.465 18.41 13.515l.689.35a3.327 3.327 0 0 0 2.932 0l.034-.018v1.05c0 2.416-1.827 4.647-4.12 3.887a8.04 8.04 0 0 1-1.107-.46l-.958-.486c-7.683-3.893-15.074-7.639-20.036-15.059-4.7-7.027-6.902-16.786-6.774-31.875.019-2.159 1.104-4.103 2.8-5.378 1.682-1.266 3.841-1.795 5.93-1.532 4.071.513 7.022.313 9.49-.476 2.46-.786 4.854-2.288 7.56-5.015Z" clip-rule="evenodd"/>
  <path fill="#CCC" d="M114.565 72.858h3.602c.66 0 1.201.54 1.201 1.2 0 .66-.541 1.2-1.201 1.2h-3.602c-.66 0-1.201-.54-1.201-1.2 0-.66.541-1.2 1.201-1.2Zm1.201-10.807a1.203 1.203 0 0 1 .846 2.053l-2.401 2.402a1.203 1.203 0 0 1-1.699 0 1.203 1.203 0 0 1 0-1.699l2.401-2.401c.234-.234.54-.355.847-.355h.006Zm-2.395 19.212a1.203 1.203 0 0 0-.847 2.053l2.401 2.402a1.202 1.202 0 0 0 1.699-1.699l-2.401-2.401a1.196 1.196 0 0 0-.846-.355h-.006Z"/>
  <path fill="#4CBA3C" d="M70 73c0-7.732 6.268-14 14-14h10c7.732 0 14 6.268 14 14s-6.268 14-14 14H84c-7.732 0-14-6.268-14-14Z"/>
  <path fill="#fff" d="M94 83c5.523 0 10-4.477 10-10s-4.477-10-10-10-10 4.477-10 10 4.477 10 10 10Z"/>
</svg>
