<svg width="128" height="96" viewBox="0 0 128 96" fill="none" xmlns="http://www.w3.org/2000/svg">
<path opacity="0.2" d="M105.629 42.2L107.171 41.8C107.457 41.7429 107.743 41.4571 107.8 41.1714L108.2 39.6286C108.314 39.2286 108.657 39 109 39C109.4 39 109.743 39.2857 109.8 39.6286L110.2 41.1714C110.257 41.4571 110.543 41.7429 110.829 41.8L112.371 42.2C112.771 42.3143 113 42.6571 113 43C113 43.4 112.714 43.7429 112.371 43.8L110.829 44.2C110.543 44.2571 110.257 44.5429 110.2 44.8286L109.8 46.3714C109.686 46.7714 109.343 47 109 47C108.6 47 108.257 46.7143 108.2 46.3714L107.8 44.8286C107.743 44.5429 107.457 44.2571 107.171 44.2L105.629 43.8C105.229 43.6857 105 43.3429 105 43C105 42.6 105.286 42.2571 105.629 42.2Z" fill="#888888"/>
<path opacity="0.2" d="M15.9428 35.8L18.2571 35.2C18.6857 35.1143 19.1143 34.6857 19.2 34.2571L19.8 31.9429C19.9714 31.3429 20.4857 31 21 31C21.6 31 22.1143 31.4286 22.2 31.9429L22.8 34.2571C22.8857 34.6857 23.3143 35.1143 23.7429 35.2L26.0572 35.8C26.6572 35.9714 27 36.4857 27 37C27 37.6 26.5715 38.1143 26.0572 38.2L23.7429 38.8C23.3143 38.8857 22.8857 39.3143 22.8 39.7429L22.2 42.0571C22.0286 42.6571 21.5143 43 21 43C20.4 43 19.8857 42.5714 19.8 42.0571L19.2 39.7429C19.1143 39.3143 18.6857 38.8857 18.2571 38.8L15.9428 38.2C15.3428 38.0286 15 37.5143 15 37C15 36.4 15.4285 35.8857 15.9428 35.8Z" fill="#888888"/>
<path opacity="0.1" d="M0.628557 57.2L2.17142 56.8C2.45714 56.7429 2.74287 56.4571 2.80001 56.1714L3.19999 54.6286C3.31427 54.2286 3.65714 54 4 54C4.4 54 4.74287 54.2857 4.80001 54.6286L5.19999 56.1714C5.25713 56.4571 5.54286 56.7429 5.82858 56.8L7.37144 57.2C7.77144 57.3143 8 57.6571 8 58C8 58.4 7.7143 58.7429 7.37144 58.8L5.82858 59.2C5.54286 59.2571 5.25713 59.5429 5.19999 59.8286L4.80001 61.3714C4.68573 61.7714 4.34286 62 4 62C3.6 62 3.25713 61.7143 3.19999 61.3714L2.80001 59.8286C2.74287 59.5429 2.45714 59.2571 2.17142 59.2L0.628557 58.8C0.228557 58.6857 0 58.3429 0 58C0 57.6 0.2857 57.2571 0.628557 57.2Z" fill="#888888"/>
<path opacity="0.1" d="M126.5 56C125.675 56 125 55.325 125 54.5C125 53.675 125.675 53 126.5 53C127.325 53 128 53.675 128 54.5C128 55.325 127.325 56 126.5 56Z" fill="#888888"/>
<path opacity="0.2" d="M26 69C24.9 69 24 68.1 24 67C24 65.9 24.9 65 26 65C27.1 65 28 65.9 28 67C28 68.1 27.1 69 26 69Z" fill="#888888"/>
<path d="M37 36C37 28.268 43.268 22 51 22H77C84.732 22 91 28.268 91 36V62C91 69.732 84.732 76 77 76H51C43.268 76 37 69.732 37 62V36Z" fill="#F2F2F2"/>
<path d="M37 36C37 28.268 43.268 22 51 22H78.9289C83.3835 22 85.6143 27.3857 82.4645 30.5355L45.5355 67.4645C42.3857 70.6143 37 68.3835 37 63.9289V36Z" fill="white"/>
<path fill-rule="evenodd" clip-rule="evenodd" d="M77 78.5C86.1127 78.5 93.5 71.1127 93.5 62V36C93.5 26.8873 86.1127 19.5 77 19.5H51C41.8873 19.5 34.5 26.8873 34.5 36V62C34.5 71.1127 41.8873 78.5 51 78.5H77ZM83.1706 71.706C81.3876 72.8419 79.2707 73.5 77 73.5H51C48.7294 73.5 46.6124 72.8419 44.8295 71.7061L64.0001 52.5355L83.1706 71.706ZM86.7061 68.1705L67.5356 49L86.7061 29.8295C87.8419 31.6124 88.5 33.7294 88.5 36V62C88.5 64.2706 87.8419 66.3876 86.7061 68.1705ZM83.1706 26.2939L64.0001 45.4645L44.8295 26.2939C46.6124 25.1581 48.7294 24.5 51 24.5H77C79.2707 24.5 81.3876 25.1581 83.1706 26.2939ZM41.294 29.8294L60.4645 49L41.2939 68.1706C40.1581 66.3876 39.5 64.2707 39.5 62V36C39.5 33.7293 40.1581 31.6124 41.294 29.8294Z" fill="#CACACA"/>
</svg>
