<svg width="96" height="72" viewBox="0 0 96 72" fill="none" xmlns="http://www.w3.org/2000/svg">
<path opacity="0.2" d="M79.2214 28.65L80.3786 28.35C80.5929 28.3071 80.8072 28.0929 80.85 27.8786L81.15 26.7214C81.2357 26.4214 81.4929 26.25 81.75 26.25C82.05 26.25 82.3072 26.4643 82.35 26.7214L82.65 27.8786C82.6928 28.0929 82.9071 28.3071 83.1214 28.35L84.2786 28.65C84.5786 28.7357 84.75 28.9929 84.75 29.25C84.75 29.55 84.5357 29.8071 84.2786 29.85L83.1214 30.15C82.9071 30.1929 82.6928 30.4071 82.65 30.6214L82.35 31.7786C82.2643 32.0786 82.0071 32.25 81.75 32.25C81.45 32.25 81.1928 32.0357 81.15 31.7786L80.85 30.6214C80.8072 30.4071 80.5929 30.1929 80.3786 30.15L79.2214 29.85C78.9214 29.7643 78.75 29.5071 78.75 29.25C78.75 28.95 78.9643 28.6929 79.2214 28.65Z" fill="#888888"/>
<path opacity="0.2" d="M11.9571 23.85L13.6928 23.4C14.0143 23.3357 14.3357 23.0143 14.4 22.6929L14.85 20.9571C14.9786 20.5071 15.3643 20.25 15.75 20.25C16.2 20.25 16.5857 20.5714 16.65 20.9571L17.1 22.6929C17.1643 23.0143 17.4857 23.3357 17.8072 23.4L19.5429 23.85C19.9929 23.9786 20.25 24.3643 20.25 24.75C20.25 25.2 19.9286 25.5857 19.5429 25.65L17.8072 26.1C17.4857 26.1643 17.1643 26.4857 17.1 26.8071L16.65 28.5429C16.5214 28.9929 16.1357 29.25 15.75 29.25C15.3 29.25 14.9143 28.9286 14.85 28.5429L14.4 26.8071C14.3357 26.4857 14.0143 26.1643 13.6928 26.1L11.9571 25.65C11.5071 25.5214 11.25 25.1357 11.25 24.75C11.25 24.3 11.5714 23.9143 11.9571 23.85Z" fill="#888888"/>
<path opacity="0.2" d="M0.471418 39.9L1.62857 39.6C1.84285 39.5571 2.05715 39.3429 2.10001 39.1286L2.39999 37.9714C2.4857 37.6714 2.74286 37.5 3 37.5C3.3 37.5 3.55715 37.7143 3.60001 37.9714L3.89999 39.1286C3.94285 39.3429 4.15715 39.5571 4.37143 39.6L5.52858 39.9C5.82858 39.9857 6 40.2429 6 40.5C6 40.8 5.78572 41.0571 5.52858 41.1L4.37143 41.4C4.15715 41.4429 3.94285 41.6571 3.89999 41.8714L3.60001 43.0286C3.5143 43.3286 3.25714 43.5 3 43.5C2.7 43.5 2.44285 43.2857 2.39999 43.0286L2.10001 41.8714C2.05715 41.6571 1.84285 41.4429 1.62857 41.4L0.471418 41.1C0.171418 41.0143 0 40.7571 0 40.5C0 40.2 0.214275 39.9429 0.471418 39.9Z" fill="#888888"/>
<path opacity="0.2" d="M94.875 39C94.2562 39 93.75 38.4937 93.75 37.875C93.75 37.2562 94.2562 36.75 94.875 36.75C95.4937 36.75 96 37.2562 96 37.875C96 38.4937 95.4937 39 94.875 39Z" fill="#888888"/>
<path opacity="0.2" d="M17.25 52.5C16.425 52.5 15.75 51.825 15.75 51C15.75 50.175 16.425 49.5 17.25 49.5C18.075 49.5 18.75 50.175 18.75 51C18.75 51.825 18.075 52.5 17.25 52.5Z" fill="#888888"/>
<path d="M65.25 38.25C56.9657 38.25 50.25 44.9657 50.25 53.25V54.5C50.25 56.7091 48.4591 58.5 46.25 58.5H36C30.201 58.5 25.5 53.799 25.5 48V24C25.5 18.201 30.201 13.5 36 13.5H52.5L70.5 31.5V34.25C70.5 36.4591 68.7091 38.25 66.5 38.25H65.25Z" fill="#444444"/>
<path fill-rule="evenodd" clip-rule="evenodd" d="M65.1045 38.2507C65.2005 37.514 65.25 36.7628 65.25 36C65.25 26.4731 57.5269 18.75 48 18.75C38.4731 18.75 30.75 26.4731 30.75 36C30.75 45.5269 38.4731 53.25 48 53.25C48.7628 53.25 49.514 53.2005 50.2507 53.1045C50.295 48.4455 52.4633 44.2944 55.8339 41.573C56.0345 40.2752 56.1661 38.9098 56.221 37.5H62.172C62.1332 37.8711 62.0801 38.238 62.0133 38.6001C63.0102 38.3809 64.0442 38.2608 65.1045 38.2507ZM53.4505 22.8295C58.1756 24.7872 61.619 29.2135 62.172 34.5H56.221C56.0685 30.5809 55.3229 27.005 54.1517 24.2722C53.9357 23.7681 53.702 23.2853 53.4505 22.8295ZM51.3943 46.5461C52.3823 44.2405 53.0673 41.081 53.2185 37.5H42.7815C42.9327 41.081 43.6177 44.2405 44.6057 46.5461C45.1689 47.86 45.8009 48.8275 46.4262 49.4447C47.0452 50.0555 47.5753 50.25 48 50.25C48.4247 50.25 48.9548 50.0555 49.5738 49.4447C50.1991 48.8275 50.8311 47.86 51.3943 46.5461ZM44.6057 25.4539C43.6177 27.7595 42.9327 30.919 42.7815 34.5H53.2185C53.0673 30.919 52.3823 27.7595 51.3943 25.4539C50.8311 24.14 50.1991 23.1725 49.5738 22.5553C48.9548 21.9445 48.4247 21.75 48 21.75C47.5753 21.75 47.0452 21.9445 46.4262 22.5553C45.8009 23.1725 45.1689 24.14 44.6057 25.4539ZM41.8483 24.2722C40.6771 27.005 39.9315 30.5809 39.779 34.5H33.828C34.381 29.2135 37.8244 24.7872 42.5495 22.8295C42.298 23.2853 42.0643 23.7681 41.8483 24.2722ZM41.8483 47.7278C40.6771 44.995 39.9315 41.4191 39.779 37.5H33.828C34.381 42.7865 37.8244 47.2128 42.5495 49.1705C42.298 48.7147 42.0643 48.2319 41.8483 47.7278Z" fill="#CCCCCC"/>
<path opacity="0.2" d="M51.0826 23.1374L52.4998 13.5L70.4998 31.5L63.9072 33.7733C56.997 36.1562 50.0191 30.3691 51.0826 23.1374Z" fill="black"/>
<path d="M52.5 21V13.5L70.5 31.5H63C57.201 31.5 52.5 26.799 52.5 21Z" fill="#888888"/>
<path d="M65.25 65.25C71.8774 65.25 77.25 59.8774 77.25 53.25C77.25 46.6226 71.8774 41.25 65.25 41.25C58.6226 41.25 53.25 46.6226 53.25 53.25C53.25 59.8774 58.6226 65.25 65.25 65.25Z" fill="#557FF3"/>
<path fill-rule="evenodd" clip-rule="evenodd" d="M66.5 46.5C67.0523 46.5 67.5 46.9477 67.5 47.5V53.7277C67.5 54.1438 67.9785 54.3778 68.307 54.1224L70.0717 52.7498C70.513 52.4065 71.1501 52.4918 71.4856 52.9392L72.5353 54.3388C72.8626 54.7752 72.7798 55.3934 72.3492 55.7282L66.3397 60.4008C65.6878 60.8664 64.812 60.8664 64.1601 60.4008L58.1508 55.7282C57.7202 55.3934 57.6373 54.7752 57.9646 54.3388L59.0144 52.9392C59.3499 52.4918 59.987 52.4065 60.4283 52.7498L62.193 54.1224C62.5215 54.3778 63 54.1438 63 53.7277V47.5C63 46.9477 63.4477 46.5 64 46.5H66.5Z" fill="white"/>
<path d="M81.3761 44.25C81.5992 44.25 81.8222 44.34 81.9927 44.5155C82.3338 44.8664 82.3338 45.4378 81.9927 45.7887L80.2434 47.5884C79.9023 47.9394 79.3469 47.9394 79.0058 47.5884C78.6647 47.2375 78.6647 46.6661 79.0058 46.3151L80.7551 44.5155C80.9257 44.34 81.1487 44.25 81.3717 44.25H81.3761Z" fill="#CCCCCC"/>
<path d="M80.5014 52.3487H83.1254C83.6064 52.3487 84 52.7536 84 53.2485C84 53.7434 83.6064 54.1484 83.1254 54.1484H80.5014C80.0204 54.1484 79.6268 53.7434 79.6268 53.2485C79.6268 52.7536 80.0204 52.3487 80.5014 52.3487Z" fill="#CCCCCC"/>
<path d="M79.0147 58.9138C79.1853 58.7383 79.4083 58.6484 79.6314 58.6484H79.6357C79.8588 58.6484 80.0818 58.7383 80.2523 58.9138L82.0016 60.7135C82.3427 61.0645 82.3427 61.6359 82.0016 61.9868C81.6605 62.3377 81.1051 62.3377 80.764 61.9868L79.0147 60.1871C78.6736 59.8362 78.6736 59.2648 79.0147 58.9138Z" fill="#CCCCCC"/>
</svg>
