<svg width="24" height="24" fill="none" xmlns="http://www.w3.org/2000/svg">
  <g clip-path="url(#Neustar_svg__a)">
    <path fill="#05CC79" d="M24 12c0 6.627-5.373 12-12 12S0 18.627 0 12 5.373 0 12 0s12 5.373 12 12Z"/>
    <path fill="#000" fill-opacity=".12" fill-rule="evenodd" d="M24 12c0 6.627-5.373 12-12 12S0 18.627 0 12 5.373 0 12 0s12 5.373 12 12ZM12 23.5c6.351 0 11.5-5.149 11.5-11.5S18.351.5 12 .5.5 5.649.5 12 5.649 23.5 12 23.5Z" clip-rule="evenodd"/>
    <path fill="#fff" d="M13.194 5.5c-1.43 0-2.915.59-3.649 1.878l-.056.092V5.813h-2.69V18h2.953v-5.284c0-.975.019-2.098.414-2.963.414-.902 1.128-1.565 2.2-1.565.809 0 1.335.22 1.655.626.32.405.451.994.451 1.712V18h2.953V9.863c-.019-2.54-1.58-4.363-4.231-4.363Z"/>
  </g>
  <defs>
    <clipPath id="Neustar_svg__a">
      <path fill="#fff" d="M0 0h24v24H0z"/>
    </clipPath>
  </defs>
</svg>
