<svg width="76" height="76" viewBox="0 0 76 76" fill="none" xmlns="http://www.w3.org/2000/svg">
<path fill-rule="evenodd" clip-rule="evenodd" d="M35.375 20.5C27.1598 20.5 20.5 27.1598 20.5 35.375C20.5 43.5902 27.1598 50.25 35.375 50.25C38.852 50.25 42.0504 49.057 44.5832 47.058L52.5126 54.9874C53.196 55.6709 54.304 55.6709 54.9874 54.9874C55.6709 54.304 55.6709 53.196 54.9874 52.5126L47.058 44.5832C49.057 42.0504 50.25 38.852 50.25 35.375C50.25 27.1598 43.5902 20.5 35.375 20.5ZM24 35.375C24 29.0928 29.0928 24 35.375 24C41.6572 24 46.75 29.0928 46.75 35.375C46.75 41.6572 41.6572 46.75 35.375 46.75C29.0928 46.75 24 41.6572 24 35.375Z" fill="white"/>
</svg>
