<svg width="76" height="76" viewBox="0 0 76 76" fill="none" xmlns="http://www.w3.org/2000/svg">
<path fill-rule="evenodd" clip-rule="evenodd" d="M35.9995 16C26.0584 16 17.9995 24.0589 17.9995 34C17.9995 43.9411 26.0584 52 35.9995 52C40.1591 52 43.9892 50.5891 47.0372 48.2197L55.1585 56.341C56.0372 57.2197 57.4618 57.2197 58.3405 56.341C59.2192 55.4623 59.2192 54.0377 58.3405 53.159L50.2192 45.0377C52.5886 41.9897 53.9995 38.1596 53.9995 34C53.9995 24.0589 45.9406 16 35.9995 16ZM22.4995 34C22.4995 26.5442 28.5437 20.5 35.9995 20.5C43.4554 20.5 49.4995 26.5442 49.4995 34C49.4995 41.4558 43.4554 47.5 35.9995 47.5C28.5437 47.5 22.4995 41.4558 22.4995 34Z" fill="white" fill-opacity="0.7"/>
</svg>
