<svg width="76" height="76" viewBox="0 0 76 76" fill="none" xmlns="http://www.w3.org/2000/svg">
<path fill-rule="evenodd" clip-rule="evenodd" d="M40.9995 16C50.9406 16 58.9995 24.0589 58.9995 34C58.9995 43.9411 50.9406 52 40.9995 52C36.8399 52 33.0098 50.5891 29.9618 48.2197L21.8405 56.341C20.9618 57.2197 19.5372 57.2197 18.6585 56.341C17.7798 55.4623 17.7798 54.0377 18.6585 53.159L26.7798 45.0377C24.4104 41.9897 22.9995 38.1596 22.9995 34C22.9995 24.0589 31.0584 16 40.9995 16ZM54.4995 34C54.4995 26.5442 48.4554 20.5 40.9995 20.5C33.5437 20.5 27.4995 26.5442 27.4995 34C27.4995 41.4558 33.5437 47.5 40.9995 47.5C48.4554 47.5 54.4995 41.4558 54.4995 34Z" fill="white" fill-opacity="0.7"/>
</svg>
