<svg width="128" height="96" viewBox="0 0 128 96" fill="none" xmlns="http://www.w3.org/2000/svg">
<g opacity="0.2">
<path d="M105.629 32.5333L107.171 32.1333C107.457 32.0761 107.743 31.7904 107.8 31.5047L108.2 29.9618C108.314 29.5618 108.657 29.3333 109 29.3333C109.4 29.3333 109.743 29.619 109.8 29.9618L110.2 31.5047C110.257 31.7904 110.543 32.0761 110.829 32.1333L112.371 32.5333C112.771 32.6475 113 32.9904 113 33.3333C113 33.7333 112.714 34.0761 112.371 34.1333L110.829 34.5333C110.543 34.5904 110.257 34.8761 110.2 35.1618L109.8 36.7047C109.686 37.1047 109.343 37.3333 109 37.3333C108.6 37.3333 108.257 37.0475 108.2 36.7047L107.8 35.1618C107.743 34.8761 107.457 34.5904 107.171 34.5333L105.629 34.1333C105.229 34.019 105 33.6761 105 33.3333C105 32.9333 105.286 32.5904 105.629 32.5333Z" fill="#888888"/>
<path d="M15.9428 26.1333L18.2571 25.5333C18.6857 25.4475 19.1143 25.019 19.2 24.5904L19.8 22.2761C19.9714 21.6761 20.4857 21.3333 21 21.3333C21.6 21.3333 22.1143 21.7618 22.2 22.2761L22.8 24.5904C22.8857 25.019 23.3143 25.4475 23.7429 25.5333L26.0572 26.1333C26.6572 26.3047 27 26.819 27 27.3333C27 27.9333 26.5714 28.4475 26.0572 28.5333L23.7429 29.1333C23.3143 29.219 22.8857 29.6475 22.8 30.0761L22.2 32.3904C22.0286 32.9904 21.5143 33.3333 21 33.3333C20.4 33.3333 19.8857 32.9047 19.8 32.3904L19.2 30.0761C19.1143 29.6475 18.6857 29.219 18.2571 29.1333L15.9428 28.5333C15.3428 28.3618 15 27.8475 15 27.3333C15 26.7333 15.4285 26.219 15.9428 26.1333Z" fill="#888888"/>
<path d="M0.628557 47.5333L2.17142 47.1333C2.45714 47.0761 2.74287 46.7904 2.80001 46.5047L3.19999 44.9618C3.31427 44.5618 3.65714 44.3333 4 44.3333C4.4 44.3333 4.74287 44.619 4.80001 44.9618L5.19999 46.5047C5.25713 46.7904 5.54286 47.0761 5.82858 47.1333L7.37144 47.5333C7.77144 47.6475 8 47.9904 8 48.3333C8 48.7333 7.7143 49.0761 7.37144 49.1333L5.82858 49.5333C5.54286 49.5904 5.25713 49.8761 5.19999 50.1618L4.80001 51.7047C4.68573 52.1047 4.34286 52.3333 4 52.3333C3.6 52.3333 3.25713 52.0475 3.19999 51.7047L2.80001 50.1618C2.74287 49.8761 2.45714 49.5904 2.17142 49.5333L0.628557 49.1333C0.228557 49.019 0 48.6761 0 48.3333C0 47.9333 0.2857 47.5904 0.628557 47.5333Z" fill="#888888"/>
<path d="M126.5 46.3333C125.675 46.3333 125 45.6583 125 44.8333C125 44.0083 125.675 43.3333 126.5 43.3333C127.325 43.3333 128 44.0083 128 44.8333C128 45.6583 127.325 46.3333 126.5 46.3333Z" fill="#888888"/>
<path d="M23 64.3333C21.9 64.3333 21 63.4333 21 62.3333C21 61.2333 21.9 60.3333 23 60.3333C24.1 60.3333 25 61.2333 25 62.3333C25 63.4333 24.1 64.3333 23 64.3333Z" fill="#888888"/>
</g>
<path d="M77 16H51C40.5066 16 32 24.5066 32 35V61C32 71.4934 40.5066 80 51 80H68C70.2091 80 72 78.2091 72 76H51C42.7157 76 36 69.2843 36 61V35C36 26.7157 42.7157 20 51 20H77C85.2843 20 92 26.7157 92 35V53C94.2091 53 96 51.2091 96 49V35C96 24.5066 87.4934 16 77 16Z" fill="#7295F6"/>
<path fill-rule="evenodd" clip-rule="evenodd" d="M77.3333 16H46.6667C38.5665 16 32 22.5665 32 30.6667V61.3333C32 69.4335 38.5665 76 46.6667 76H72V72H46.6667C40.7756 72 36 67.2244 36 61.3333V30.6667C36 24.7756 40.7756 20 46.6667 20H77.3333C83.2244 20 88 24.7756 88 30.6667V53.2355C88.9772 53.0805 89.9792 53 91 53H92V30.6667C92 22.5665 85.4335 16 77.3333 16Z" fill="#8FABF9"/>
<path fill-rule="evenodd" clip-rule="evenodd" d="M46.6667 20C40.7756 20 36 24.7756 36 30.6667V61.3333C36 67.2244 40.7756 72 46.6667 72H72C72 62.5274 78.932 54.6739 88 53.2355V30.6667C88 24.7756 83.2244 20 77.3333 20H46.6667Z" fill="#CCDAFF"/>
<path d="M48.7668 28.9604H46.7797C45.9608 28.9604 45.2969 29.6243 45.2969 30.4433V32.4304C45.2969 33.2494 45.9608 33.9132 46.7797 33.9132H48.7668C49.5858 33.9132 50.2497 33.2494 50.2497 32.4304V30.4433C50.2497 29.6243 49.5858 28.9604 48.7668 28.9604Z" fill="#8FABF9"/>
<path d="M67.5865 24.9995H66.5899C66.3181 24.9995 66.0977 25.2199 66.0977 25.4918V39.3656C66.0977 39.6375 66.3181 39.8579 66.5899 39.8579H67.5865C67.8584 39.8579 68.0788 39.6375 68.0788 39.3656V25.4918C68.0788 25.2199 67.8584 24.9995 67.5865 24.9995Z" fill="#8FABF9"/>
<path d="M83.4355 40.8484H82.4449C82.1688 40.8484 81.9527 41.0705 81.9527 41.3407V43.8201C81.9527 44.3664 81.5084 44.8106 80.9621 44.8106H74.0282C73.4819 44.8106 73.0376 44.3664 73.0376 43.8201V41.3467C73.0376 41.0705 72.8155 40.8484 72.5453 40.8484H71.5548C71.2786 40.8484 71.0625 41.0705 71.0625 41.3467V44.3183C71.0625 45.6871 72.1731 46.7918 73.5359 46.7918H81.4604C82.8291 46.7918 83.9338 45.6811 83.9338 44.3183V41.3467C83.9338 41.0705 83.7116 40.8544 83.4415 40.8544L83.4355 40.8484Z" fill="#8FABF9"/>
<path d="M50.7415 40.8484H49.7509C49.4748 40.8484 49.2586 41.0705 49.2586 41.3467V43.8201C49.2586 44.3664 48.8144 44.8106 48.2681 44.8106H46.7852C46.5091 44.8106 46.293 45.0328 46.293 45.3029V46.2935C46.293 46.5696 46.5151 46.7918 46.7852 46.7918H48.7664C50.1351 46.7918 51.2398 45.6811 51.2398 44.3183V41.3467C51.2398 41.0705 51.0176 40.8484 50.7415 40.8484Z" fill="#8FABF9"/>
<path d="M60.1549 57.6875C60.1549 57.1412 60.5992 56.6969 61.1455 56.6969H66.5906C66.8667 56.6969 67.0829 56.4748 67.0829 56.1987V55.2081C67.0829 54.9319 66.8607 54.7158 66.5906 54.7158H60.6472C59.2784 54.7158 58.1738 55.8264 58.1738 57.1892V65.1137C58.1738 66.4825 59.2845 67.5871 60.6472 67.5871H65.6C65.8762 67.5871 66.0983 67.365 66.0983 67.0948V66.1043C66.0983 65.8281 65.8762 65.606 65.6 65.606H61.1455C60.5992 65.606 60.1549 65.1617 60.1549 64.6154V57.6815V57.6875Z" fill="#8FABF9"/>
<path d="M41.334 47.7823C41.334 49.9735 43.105 51.7445 45.2962 51.7445H66.5903C66.8664 51.7445 67.0825 51.5224 67.0825 51.2463V50.2557C67.0825 49.9796 66.8604 49.7634 66.5903 49.7634H45.2962C44.2036 49.7634 43.3151 48.8749 43.3151 47.7823V41.3467C43.3151 41.0705 43.093 40.8484 42.8228 40.8484H41.8323C41.5561 40.8484 41.34 41.0705 41.34 41.3467V47.7823H41.334Z" fill="#8FABF9"/>
<path d="M75.013 49.7629C72.8218 49.7629 71.0508 51.5339 71.0508 53.7252V62.1479C71.0508 62.4241 71.2729 62.6402 71.5431 62.6402H72.5336C72.8098 62.6402 73.0259 62.4181 73.0259 62.1479V53.7252C73.0259 52.6326 73.9144 51.7441 75.007 51.7441H82.4392C82.7154 51.7441 82.9315 51.5219 82.9315 51.2458V50.2552C82.9315 49.9791 82.7094 49.7629 82.4392 49.7629H75.007H75.013Z" fill="#8FABF9"/>
<path d="M60.1546 36.8853H62.628C62.9042 36.8853 63.1203 36.6632 63.1203 36.387V35.3965C63.1203 35.1203 62.8982 34.9042 62.628 34.8982H60.1546C57.9634 34.8982 56.1924 36.6692 56.1924 38.8604V42.8227C56.1924 45.0139 57.9634 46.7849 60.1546 46.7849H66.5903C66.8664 46.7849 67.0825 46.5628 67.0825 46.2866V45.2961C67.0825 45.0199 66.8604 44.8038 66.5903 44.7978H60.1486C59.056 44.7978 58.1675 43.9093 58.1675 42.8167V38.8544C58.1675 37.7618 59.056 36.8733 60.1486 36.8733L60.1546 36.8853Z" fill="#8FABF9"/>
<path d="M49.1564 24.9998H46.3888C43.5973 24.9998 41.334 27.263 41.334 30.0546V32.8222C41.334 35.6138 43.5973 37.877 46.3888 37.877H49.1564C51.948 37.877 54.2113 35.6138 54.2113 32.8222V30.0546C54.2113 27.263 51.948 24.9998 49.1564 24.9998ZM49.2585 35.8959H46.2808C44.6419 35.8959 43.3151 34.5692 43.3151 32.9302V29.9526C43.3151 28.3136 44.6419 26.9869 46.2808 26.9869H49.2585C50.8974 26.9869 52.2241 28.3136 52.2241 29.9526V32.9302C52.2241 34.5692 50.8974 35.8959 49.2585 35.8959Z" fill="#8FABF9"/>
<path d="M49.1564 54.7158H46.3888C43.5973 54.7158 41.334 56.9791 41.334 59.7707V62.5382C41.334 65.3298 43.5973 67.5931 46.3888 67.5931H49.1564C51.948 67.5931 54.2113 65.3298 54.2113 62.5382V59.7707C54.2113 56.9791 51.948 54.7158 49.1564 54.7158ZM49.2585 65.612H46.2808C44.6419 65.612 43.3151 64.2852 43.3151 62.6463V59.6686C43.3151 58.0297 44.6419 56.7029 46.2808 56.7029H49.2585C50.8974 56.7029 52.2241 58.0297 52.2241 59.6686V62.6463C52.2241 64.2852 50.8974 65.612 49.2585 65.612Z" fill="#8FABF9"/>
<path d="M78.8732 24.9995H76.1056C73.3141 24.9995 71.0508 27.2628 71.0508 30.0544V32.8219C71.0508 35.6135 73.3141 37.8768 76.1056 37.8768H78.8732C81.6648 37.8768 83.9281 35.6135 83.9281 32.8219V30.0544C83.9281 27.2628 81.6648 24.9995 78.8732 24.9995ZM78.9753 35.8957H75.9976C74.3587 35.8957 73.0319 34.5689 73.0319 32.93V29.9523C73.0319 28.3134 74.3587 26.9866 75.9976 26.9866H78.9753C80.6142 26.9866 81.9409 28.3134 81.9409 29.9523V32.93C81.9409 34.5689 80.6142 35.8957 78.9753 35.8957Z" fill="#8FABF9"/>
<path d="M63.1266 29.951C63.1266 29.4039 62.6831 28.9604 62.1361 28.9604C61.589 28.9604 61.1455 29.4039 61.1455 29.951C61.1455 30.4981 61.589 30.9416 62.1361 30.9416C62.6831 30.9416 63.1266 30.4981 63.1266 29.951Z" fill="#8FABF9"/>
<path d="M77.985 56.6971C77.985 56.15 77.5415 55.7065 76.9945 55.7065C76.4474 55.7065 76.0039 56.15 76.0039 56.6971C76.0039 57.2442 76.4474 57.6877 76.9945 57.6877C77.5415 57.6877 77.985 57.2442 77.985 56.6971Z" fill="#8FABF9"/>
<path d="M59.1647 25.9901C59.1647 25.443 58.7212 24.9995 58.1742 24.9995C57.6271 24.9995 57.1836 25.443 57.1836 25.9901C57.1836 26.5371 57.6271 26.9806 58.1742 26.9806C58.7212 26.9806 59.1647 26.5371 59.1647 25.9901Z" fill="#8FABF9"/>
<path d="M78.4827 28.9604H76.4955C75.6766 28.9604 75.0127 29.6243 75.0127 30.4433V32.4304C75.0127 33.2494 75.6766 33.9132 76.4955 33.9132H78.4827C79.3016 33.9132 79.9655 33.2494 79.9655 32.4304V30.4433C79.9655 29.6243 79.3016 28.9604 78.4827 28.9604Z" fill="#8FABF9"/>
<path d="M48.7608 58.6794H46.7857C45.9635 58.6794 45.2969 59.346 45.2969 60.1683V62.1434C45.2969 62.9657 45.9635 63.6322 46.7857 63.6322H48.7608C49.5831 63.6322 50.2497 62.9657 50.2497 62.1434V60.1683C50.2497 59.346 49.5831 58.6794 48.7608 58.6794Z" fill="#8FABF9"/>
<path d="M91.5 88C100.06 88 107 81.0604 107 72.5C107 63.9396 100.06 57 91.5 57C82.9396 57 76 63.9396 76 72.5C76 81.0604 82.9396 88 91.5 88Z" fill="#4CBA3C"/>
<path d="M94.5382 70.7917V65.0721C94.5382 64.4771 94.0256 64 93.4004 64H89.6058C88.9744 64 88.468 64.483 88.468 65.0721V70.7917C88.468 71.3867 87.9554 71.8638 87.3303 71.8638H85.1423C84.1295 71.8638 83.6169 73.0183 84.3358 73.6957L90.6936 79.6863C91.1374 80.1046 91.8563 80.1046 92.3064 79.6863L98.6642 73.6957C99.3831 73.0183 98.8705 71.8638 97.8577 71.8638H95.6697C95.0383 71.8638 94.532 71.3808 94.532 70.7917H94.5382Z" fill="white"/>
<path d="M114.566 70.8574H118.168C118.828 70.8574 119.369 71.3977 119.369 72.0581C119.369 72.7185 118.828 73.2588 118.168 73.2588H114.566C113.906 73.2588 113.365 72.7185 113.365 72.0581C113.365 71.3977 113.906 70.8574 114.566 70.8574Z" fill="#CCCCCC"/>
<path d="M115.766 60.0513C116.072 60.0513 116.379 60.1713 116.613 60.4055C117.081 60.8737 117.081 61.6362 116.613 62.1044L114.211 64.5058C113.743 64.974 112.981 64.974 112.512 64.5058C112.044 64.0375 112.044 63.2751 112.512 62.8068L114.914 60.4055C115.148 60.1713 115.454 60.0513 115.76 60.0513H115.766Z" fill="#CCCCCC"/>
<path d="M113.372 79.2632C113.065 79.2632 112.759 79.3832 112.525 79.6174C112.057 80.0856 112.057 80.8481 112.525 81.3163L114.926 83.7177C115.395 84.186 116.157 84.186 116.625 83.7177C117.094 83.2494 117.094 82.487 116.625 82.0187L114.224 79.6174C113.99 79.3832 113.684 79.2632 113.378 79.2632H113.372Z" fill="#CCCCCC"/>
</svg>
