<svg width="24" height="24" viewBox="0 0 24 24" fill="none" xmlns="http://www.w3.org/2000/svg">
<circle cx="12" cy="12" r="11" fill="white"/>
<path fill-rule="evenodd" clip-rule="evenodd" d="M24 12C24 18.6274 18.6274 24 12 24C5.37258 24 0 18.6274 0 12C0 5.37258 5.37258 0 12 0C18.6274 0 24 5.37258 24 12ZM17.2361 12.5532C17.1056 12.2054 17.1498 11.8569 17.2305 11.5084C17.3358 11.1363 17.6034 10.8972 17.9349 10.753C18.2093 10.6339 18.2442 10.4877 18.1705 10.2189C18.0724 9.86168 17.9206 9.52838 17.7689 9.19507C17.7103 9.06645 17.6517 8.93782 17.5962 8.80782C17.5003 8.58383 17.3387 8.50718 17.0736 8.56356C15.7642 8.84199 14.9681 7.76127 15.3236 6.73443C15.3771 6.57991 15.3061 6.48544 15.2365 6.39281C15.1946 6.33704 15.1532 6.28195 15.1398 6.21483C14.7893 6.20459 14.4906 6.08276 14.2516 5.83039L14.2357 5.83425C14.2302 5.83455 14.2246 5.83505 14.2189 5.83555C14.1989 5.83731 14.1784 5.83913 14.1606 5.83251C13.6379 5.63595 13.2892 5.71685 12.9449 6.25306C12.4541 7.0173 11.3265 6.90087 10.7339 6.11172C10.4279 5.70404 10.4246 5.70491 9.97205 5.82502L9.94742 5.83155C9.80623 5.86889 9.66813 5.91584 9.53003 5.96278C9.3518 6.02337 9.17358 6.08396 8.98874 6.12388C8.89799 6.34671 8.72633 6.42085 8.48613 6.36891L8.48473 6.37473L8.48473 6.37474C8.48411 6.37759 8.48349 6.38046 8.48246 6.3832C8.43207 6.45329 8.41082 6.52145 8.40735 6.58845C8.41347 6.6319 8.42549 6.67535 8.43753 6.71883L8.43753 6.71884L8.43754 6.71885L8.43754 6.71885L8.43754 6.71886L8.43754 6.71887L8.43754 6.71888L8.43754 6.71888C8.45134 6.76873 8.46515 6.81862 8.4701 6.86863M17.2361 12.5532C17.3748 12.8984 17.5945 13.1714 17.9453 13.3139L17.2361 12.5532ZM17.9453 13.3139C18.1676 13.4037 18.2191 13.5454 18.1512 13.7669L17.9453 13.3139ZM18.1512 13.7669C18.0054 14.2425 17.8467 14.7096 17.5864 15.1398L18.1512 13.7669ZM17.5864 15.1398C17.4261 15.4045 17.2454 15.5049 16.9264 15.4221L17.5864 15.1398ZM16.9264 15.4221C16.4472 15.2975 16.0287 15.4472 15.6723 15.7967L16.9264 15.4221ZM15.6723 15.7967C15.144 16.3141 15.1537 16.904 15.3972 17.5333L15.6723 15.7967ZM15.3972 17.5333C15.0005 17.6407 14.6323 17.8167 14.2642 17.9927L15.3972 17.5333ZM14.2641 17.9927C14.063 18.0888 13.8618 18.185 13.6561 18.2699L14.2641 17.9927ZM13.6561 18.2699C13.6499 18.2788 13.6455 18.2877 13.6426 18.2966L13.6561 18.2699ZM13.6426 18.2966C13.6246 18.2968 13.6061 18.2991 13.5877 18.3026L13.6426 18.2966ZM13.5877 18.3026L13.3313 18.3045L13.5877 18.3026ZM13.3313 18.3045C13.306 18.2861 13.283 18.2562 13.2635 18.2105L13.3313 18.3045ZM13.2635 18.2105C12.7638 16.9627 11.1894 17.0201 10.6678 18.0154L13.2635 18.2105ZM10.6678 18.0154C10.5674 18.2068 10.4189 18.2464 10.2214 18.1937L10.6678 18.0154ZM10.2214 18.1937C9.82713 18.0882 9.44926 17.9397 9.08084 17.7679L10.2214 18.1937ZM9.08084 17.7679C8.52893 17.5104 8.52938 17.5065 8.59721 16.9173L9.08084 17.7679ZM8.59721 16.9173L8.59754 16.9144L8.59721 16.9173ZM8.59754 16.9144C8.66918 16.2906 8.26427 15.6941 7.68443 15.5692L8.59754 16.9144ZM7.68443 15.5692C7.67875 15.5694 7.67306 15.5695 7.66738 15.5695L7.68443 15.5692ZM7.66738 15.5695L7.65604 15.5696L7.66738 15.5695ZM7.65604 15.5696C7.50176 15.3566 7.26098 15.368 7.02908 15.3863L7.65604 15.5696ZM7.02908 15.3863L7.00962 15.3879L7.02908 15.3863ZM7.00962 15.3879C6.48418 15.4297 6.48249 15.4298 6.23279 14.9718L7.00962 15.3879ZM6.23279 14.9718C6.20392 14.919 6.17954 14.8638 6.15525 14.8087L6.23279 14.9718ZM6.15525 14.8087C6.12819 14.7474 6.10123 14.6863 6.06827 14.6291L6.15525 14.8087ZM6.06827 14.6291C5.95014 14.424 5.88032 14.2003 5.81053 13.9767L6.06827 14.6291ZM5.81053 13.9767C5.75085 13.7855 5.6912 13.5944 5.60139 13.4151L5.81053 13.9767ZM5.60139 13.4151L5.60488 13.4147L5.60139 13.4151ZM5.60488 13.4147C5.60782 13.4144 5.61063 13.4141 5.61355 13.4141L5.60488 13.4147ZM5.61355 13.4141C6.40039 13.1562 6.77826 12.6379 6.71744 11.8891L5.61355 13.4141ZM6.71744 11.8891C6.67554 11.3743 6.39884 10.9988 5.9557 10.7723L6.71744 11.8891ZM5.9557 10.7723C5.67495 10.6288 5.62398 10.4562 5.72168 10.1876L5.9557 10.7723ZM5.72168 10.1876C5.73757 10.1441 5.75394 10.1006 5.77032 10.0572L5.72168 10.1876ZM5.77032 10.0572L5.77039 10.057L5.77032 10.0572ZM5.77039 10.057L5.7704 10.057L5.77039 10.057ZM5.7704 10.057L5.77041 10.057L5.7704 10.057ZM5.77041 10.057L5.77042 10.0569L5.77041 10.057ZM5.77042 10.0569L5.77044 10.0569L5.77042 10.0569ZM5.77044 10.0569L5.77045 10.0569L5.77044 10.0569ZM5.77045 10.0569L5.77046 10.0568L5.77045 10.0569ZM5.77046 10.0568L5.77047 10.0568L5.77046 10.0568ZM5.77047 10.0568C5.81255 9.94523 5.85462 9.83365 5.88851 9.71977L5.77047 10.0568ZM5.88851 9.71977C5.91598 9.62779 5.95397 9.5387 5.99196 9.44959L5.88851 9.71977ZM5.99196 9.44959C6.07359 9.25812 6.15524 9.06662 6.13257 8.84643L5.99196 9.44959ZM6.13257 8.84643C6.1262 8.8306 6.11886 8.8167 6.11075 8.80357L6.13257 8.84643ZM6.11075 8.80357C6.40116 8.53324 6.75084 8.54869 7.10902 8.60469L6.11075 8.80357ZM7.10902 8.60469C7.91768 8.73097 8.76514 7.89431 8.53112 7.02986L7.10902 8.60469ZM8.53112 7.02986C8.51674 6.98611 8.49946 6.94261 8.48222 6.89923L8.53112 7.02986ZM18.6773 10.4703C18.7162 10.623 18.772 10.7124 18.9199 10.7711C19.5567 11.0229 19.8737 11.4549 19.8453 12.0604C19.817 12.664 19.5277 13.0996 18.9322 13.2776C18.6884 13.3504 18.6287 13.5425 18.5866 13.732C18.4329 14.4223 18.1301 15.0469 17.7665 15.6439C17.6683 15.8055 17.6437 15.9135 17.7586 16.0842C18.0977 16.5875 18.023 17.2695 17.6057 17.7339C17.2435 18.1375 16.6555 18.2385 16.1079 17.9915C15.7754 17.7445 15.4891 17.8604 15.1656 18.0525C14.7264 18.3126 14.2519 18.5155 13.7372 18.5934C13.4431 18.6557 13.2245 18.7341 13.1529 19.1166C13.0525 19.6536 12.503 19.9959 11.9266 19.9998C11.2759 20.0043 10.809 19.6853 10.6371 19.0396C10.5566 18.7376 10.4072 18.6488 10.1245 18.5916C9.53692 18.4723 8.99434 18.2137 8.48188 17.9073C8.25404 17.771 8.09281 17.7691 7.8696 17.9214C7.31157 18.302 6.61008 18.1633 6.14242 17.6372C5.79023 17.241 5.73635 16.3402 6.16076 16C6.19996 15.8158 6.13817 15.6679 6.04279 15.5045C5.67283 14.8716 5.35462 14.2137 5.24823 13.4755C5.20522 13.378 5.11937 13.3516 5.02862 13.3236L5.00378 13.3159C4.46699 13.1465 4.08931 12.8229 4.01516 12.234C3.93233 11.5767 4.18875 11.0948 4.7879 10.8018L4.84909 10.7577C4.9753 10.6665 5.10165 10.5753 5.22815 10.4842C5.26747 10.3533 5.30196 10.2204 5.33645 10.0875L5.33645 10.0875C5.46166 9.60499 5.58691 9.12234 5.94373 8.73463C6.17004 8.32861 6.05551 7.95897 5.93081 7.55652L5.93078 7.55643C5.91803 7.51528 5.90517 7.47378 5.89256 7.43187C5.72573 6.87635 6.0061 6.3917 6.49191 6.07774C6.98448 5.75953 7.49964 5.81958 8.01982 6.22487C8.08391 6.27472 8.12207 6.25098 8.16024 6.22723C8.17795 6.2162 8.19568 6.20518 8.216 6.20151H8.21619C8.37491 6.05765 8.5373 5.92095 8.76514 5.90569C9.19998 5.57976 9.71186 5.4307 10.2255 5.30152C10.4423 5.24688 10.564 5.18335 10.64 4.94604C10.8395 4.32295 11.3185 3.99334 11.9191 4.0001C12.5466 4.00705 13.0079 4.35172 13.1958 4.99277C13.244 5.15728 13.3369 5.24726 13.4709 5.25672C13.7148 5.27377 13.9262 5.37193 14.1375 5.47004C14.2326 5.51417 14.3276 5.55829 14.4255 5.59501C14.8934 5.68441 15.2989 5.90164 15.6644 6.20093H15.6646C15.7622 6.16657 15.857 6.1252 15.9517 6.08386L15.9518 6.08385C16.1994 5.97578 16.4464 5.86795 16.7428 5.88638C17.6534 5.94296 18.2736 6.92404 17.8542 7.74023C17.6938 8.05245 17.7372 8.26002 17.9073 8.53382C18.2778 9.13008 18.5051 9.79237 18.6773 10.4703ZM13.8141 14.3562C13.8576 14.2217 13.9017 14.0853 14.0412 14.0083C14.4243 13.6777 14.9246 13.6816 15.263 14.0174C15.632 14.4634 15.6844 14.7843 15.4517 15.1767C15.1673 15.6561 14.7405 15.8036 14.2738 15.5835C13.8029 15.3615 13.6206 14.9222 13.7948 14.415C13.8014 14.3956 13.8078 14.376 13.8141 14.3563L13.8141 14.3563L13.8141 14.3563L13.8141 14.3563L13.8141 14.3562L13.8141 14.3562L13.8141 14.3562ZM14.6133 10.1899C15.1875 10.2104 15.5706 9.86571 15.5903 9.31135C15.6081 8.80372 15.1987 8.36097 14.6946 8.34282C14.1738 8.3239 13.7621 8.70003 13.7403 9.21519C13.716 9.78886 14.0572 10.1698 14.6133 10.1899ZM8.25104 14.6705C8.25491 14.1897 8.6994 13.7933 9.22131 13.805C9.69535 13.8155 10.1182 14.265 10.1219 14.7618C10.1257 15.2528 9.6602 15.6944 9.15045 15.684C8.62525 15.6734 8.24622 15.2465 8.25104 14.6705ZM9.20114 8.34237C8.65585 8.34102 8.24419 8.75578 8.24438 9.30666C8.24438 9.79942 8.66184 10.1949 9.17874 10.1916C9.70375 10.1885 10.1353 9.76022 10.1237 9.25414C10.1129 8.76369 9.68791 8.34373 9.20114 8.34237ZM8.15701 11.081C8.69302 11.0763 9.07746 11.4422 9.08441 11.9626C9.09194 12.5428 8.71407 12.9358 8.15122 12.9329C7.64977 12.9304 7.24447 12.5254 7.23501 12.0178C7.22459 11.4687 7.60149 11.0856 8.15701 11.081ZM15.659 11.0839C15.1165 11.0877 14.7415 11.4544 14.7374 11.985C14.7336 12.4948 15.1406 12.9207 15.6272 12.9304C16.1908 12.942 16.6139 12.4664 16.5911 11.9949C16.5637 11.422 16.2397 11.0798 15.659 11.0839ZM10.9921 8.15172C11.0019 7.61571 11.3731 7.25811 11.9181 7.25965C12.4715 7.26139 12.8747 7.65336 12.8714 8.18686C12.8685 8.67634 12.4014 9.10809 11.8857 9.09805C11.3767 9.0882 10.9824 8.67055 10.9921 8.15172ZM12.1161 14.9351C11.6691 14.8561 11.3237 15.021 11.075 15.3972C10.7894 15.76 10.8389 16.1761 11.2022 16.4644C11.2652 16.5533 11.3582 16.597 11.451 16.6406C11.473 16.6509 11.495 16.6612 11.5166 16.6721C11.8647 16.849 12.2391 16.7976 12.5402 16.5346C12.8356 16.2771 12.9283 15.9052 12.7904 15.5373C12.6707 15.2185 12.461 14.9961 12.1161 14.9351Z" fill="#333333"/>
</svg>
