<svg width="128" height="96" viewBox="0 0 128 96" fill="none" xmlns="http://www.w3.org/2000/svg">
<path opacity="0.2" d="M105.629 38.1999L107.171 37.7999C107.457 37.7427 107.743 37.457 107.8 37.1713L108.2 35.6284C108.314 35.2284 108.657 34.9999 109 34.9999C109.4 34.9999 109.743 35.2856 109.8 35.6284L110.2 37.1713C110.257 37.457 110.543 37.7427 110.829 37.7999L112.371 38.1999C112.771 38.3142 113 38.657 113 38.9999C113 39.3999 112.714 39.7427 112.371 39.7999L110.829 40.1999C110.543 40.257 110.257 40.5427 110.2 40.8284L109.8 42.3713C109.686 42.7713 109.343 42.9999 109 42.9999C108.6 42.9999 108.257 42.7142 108.2 42.3713L107.8 40.8284C107.743 40.5427 107.457 40.257 107.171 40.1999L105.629 39.7999C105.229 39.6856 105 39.3427 105 38.9999C105 38.5999 105.286 38.257 105.629 38.1999Z" fill="#888888"/>
<path opacity="0.2" d="M15.9428 31.7999L18.2571 31.1999C18.6857 31.1142 19.1143 30.6856 19.2 30.257L19.8 27.9427C19.9714 27.3427 20.4857 26.9999 21 26.9999C21.6 26.9999 22.1143 27.4284 22.2 27.9427L22.8 30.257C22.8857 30.6856 23.3143 31.1142 23.7429 31.1999L26.0572 31.7999C26.6572 31.9713 27 32.4856 27 32.9999C27 33.5999 26.5714 34.1142 26.0572 34.1999L23.7429 34.7999C23.3143 34.8856 22.8857 35.3142 22.8 35.7427L22.2 38.057C22.0286 38.657 21.5143 38.9999 21 38.9999C20.4 38.9999 19.8857 38.5713 19.8 38.057L19.2 35.7427C19.1143 35.3142 18.6857 34.8856 18.2571 34.7999L15.9428 34.1999C15.3428 34.0285 15 33.5142 15 32.9999C15 32.3999 15.4286 31.8856 15.9428 31.7999Z" fill="#888888"/>
<path opacity="0.2" d="M0.628557 53.1999L2.17142 52.7999C2.45714 52.7427 2.74287 52.457 2.80001 52.1713L3.19999 50.6284C3.31427 50.2284 3.65714 49.9999 4 49.9999C4.4 49.9999 4.74287 50.2856 4.80001 50.6284L5.19999 52.1713C5.25713 52.457 5.54286 52.7427 5.82858 52.7999L7.37144 53.1999C7.77144 53.3142 8 53.657 8 53.9999C8 54.3999 7.7143 54.7427 7.37144 54.7999L5.82858 55.1999C5.54286 55.257 5.25713 55.5427 5.19999 55.8284L4.80001 57.3713C4.68573 57.7713 4.34286 57.9999 4 57.9999C3.6 57.9999 3.25713 57.7142 3.19999 57.3713L2.80001 55.8284C2.74287 55.5427 2.45714 55.257 2.17142 55.1999L0.628557 54.7999C0.228557 54.6856 0 54.3427 0 53.9999C0 53.5999 0.2857 53.257 0.628557 53.1999Z" fill="#888888"/>
<path opacity="0.2" d="M126.5 51.9999C125.675 51.9999 125 51.3249 125 50.4999C125 49.6749 125.675 48.9999 126.5 48.9999C127.325 48.9999 128 49.6749 128 50.4999C128 51.3249 127.325 51.9999 126.5 51.9999Z" fill="#888888"/>
<path opacity="0.2" d="M23 70C21.9 70 21 69.1 21 68C21 66.9 21.9 66 23 66C24.1 66 25 66.9 25 68C25 69.1 24.1 70 23 70Z" fill="#888888"/>
<path d="M67.9156 65C67.3207 66.8941 67 68.9096 67 71V76L56 79V65H67.9156Z" fill="#AAAAAA"/>
<path d="M35 18.6667C35 17.1939 36.1939 16 37.6667 16H93.3333C94.8061 16 96 17.1939 96 18.6667V48.3333C96 49.8061 94.8061 51 93.3333 51H37.6667C36.1939 51 35 49.8061 35 48.3333V18.6667Z" fill="#888888"/>
<path d="M63 80C65.2091 80 67 78.2091 67 76H47C45.8954 76 45 76.8954 45 78C45 79.1046 45.8954 80 47 80H63Z" fill="#888888"/>
<path d="M91.1374 16H33.8626C32.8339 16 32 16.9133 32 18.04V64.96C32 66.0867 32.8339 67 33.8626 67H67.4001C69.2532 57.871 77.3242 51 87 51H93V18.04C93 16.9133 92.1661 16 91.1374 16Z" fill="#CCCCCC"/>
<path d="M88.6364 20H36.3636C35.6105 20 35 20.6876 35 21.5357V61.4643C35 62.3124 35.6105 63 36.3636 63H68.6642C71.7504 55.9364 78.7987 51 87 51H90V21.5357C90 20.6876 89.3895 20 88.6364 20Z" fill="#FFD65C"/>
<path d="M87 87C95.8366 87 103 79.8366 103 71C103 62.1634 95.8366 55 87 55C78.1634 55 71 62.1634 71 71C71 79.8366 78.1634 87 87 87Z" fill="#557FF3"/>
<path d="M108.766 59.0518C109.072 59.0518 109.378 59.1718 109.612 59.406C110.08 59.8742 110.08 60.6367 109.612 61.1049L107.211 63.5063C106.743 63.9745 105.98 63.9745 105.512 63.5063C105.044 63.038 105.044 62.2756 105.512 61.8073L107.913 59.406C108.147 59.1718 108.453 59.0518 108.76 59.0518H108.766Z" fill="#CCCCCC"/>
<path d="M107.565 69.8579H111.167C111.827 69.8579 112.368 70.3982 112.368 71.0586C112.368 71.719 111.827 72.2593 111.167 72.2593H107.565C106.905 72.2593 106.364 71.719 106.364 71.0586C106.364 70.3982 106.905 69.8579 107.565 69.8579Z" fill="#CCCCCC"/>
<path d="M105.524 78.6179C105.758 78.3837 106.064 78.2637 106.371 78.2637H106.377C106.683 78.2637 106.989 78.3837 107.223 78.6179L109.624 81.0192C110.093 81.4875 110.093 82.2499 109.624 82.7182C109.156 83.1865 108.394 83.1865 107.925 82.7182L105.524 80.3168C105.056 79.8486 105.056 79.0861 105.524 78.6179Z" fill="#CCCCCC"/>
<path fill-rule="evenodd" clip-rule="evenodd" d="M90 62.6667C90 62.2985 89.7015 62 89.3333 62H84.6667C84.2985 62 84 62.2985 84 62.6667V67.3333C84 67.7015 83.7015 68 83.3333 68H78.6667C78.2985 68 78 68.2985 78 68.6667V73.3333C78 73.7015 78.2985 74 78.6667 74H83.3333C83.7015 74 84 74.2985 84 74.6667V79.3333C84 79.7015 84.2985 80 84.6667 80H89.3333C89.7015 80 90 79.7015 90 79.3333V74.6667C90 74.2985 90.2985 74 90.6667 74H95.3333C95.7015 74 96 73.7015 96 73.3333V68.6667C96 68.2985 95.7015 68 95.3333 68H90.6667C90.2985 68 90 67.7015 90 67.3333V62.6667Z" fill="white"/>
<path d="M87 87C95.8366 87 103 79.8366 103 71C103 62.1634 95.8366 55 87 55C78.1634 55 71 62.1634 71 71C71 79.8366 78.1634 87 87 87Z" fill="#557FF3"/>
<path fill-rule="evenodd" clip-rule="evenodd" d="M89 62C89.5523 62 90 62.4477 90 63V71.9777C90 72.3938 90.4785 72.6278 90.807 72.3724L93.6967 70.1248C94.138 69.7815 94.7751 69.8668 95.1106 70.3142L96.9103 72.7138C97.2376 73.1502 97.1548 73.7684 96.7242 74.1032L88.453 80.5343C87.5837 81.1552 86.416 81.1552 85.5468 80.5343L77.2758 74.1032C76.8452 73.7684 76.7623 73.1502 77.0896 72.7138L78.8894 70.3142C79.2249 69.8668 79.862 69.7815 80.3033 70.1248L83.193 72.3724C83.5215 72.6278 84 72.3938 84 71.9777V63C84 62.4477 84.4477 62 85 62H89Z" fill="white"/>
<path d="M108.501 59C108.799 59 109.096 59.12 109.324 59.3539C109.778 59.8219 109.778 60.5837 109.324 61.0517L106.991 63.4512C106.536 63.9192 105.796 63.9192 105.341 63.4512C104.886 62.9833 104.886 62.2215 105.341 61.7535L107.673 59.3539C107.901 59.12 108.198 59 108.496 59H108.501Z" fill="#CCCCCC"/>
<path d="M107.335 69.7982H110.834C111.475 69.7982 112 70.3381 112 70.998C112 71.6579 111.475 72.1978 110.834 72.1978H107.335C106.694 72.1978 106.169 71.6579 106.169 70.998C106.169 70.3381 106.694 69.7982 107.335 69.7982Z" fill="#CCCCCC"/>
<path d="M105.353 78.5518C105.58 78.3178 105.878 78.1978 106.175 78.1978H106.181C106.478 78.1978 106.776 78.3178 107.003 78.5518L109.336 80.9513C109.79 81.4193 109.79 82.1811 109.336 82.6491C108.881 83.117 108.14 83.117 107.685 82.6491L105.353 80.2495C104.898 79.7815 104.898 79.0197 105.353 78.5518Z" fill="#CCCCCC"/>
<path d="M87 87C95.8366 87 103 79.8366 103 71C103 62.1634 95.8366 55 87 55C78.1634 55 71 62.1634 71 71C71 79.8366 78.1634 87 87 87Z" fill="#4CBA3C"/>
<path fill-rule="evenodd" clip-rule="evenodd" d="M89.4949 65.4606C86.6431 63.9873 83.1474 65.057 81.5161 67.9716L81.5099 67.978C80.9702 68.9389 80.7065 69.983 80.6759 71.0207C80.6636 71.5716 80.3263 72.0456 79.8173 72.1866L77.7873 72.7439C77.4316 72.84 77.082 72.5773 77.0452 72.193C76.8551 70.1175 77.2599 67.9652 78.3454 66.0307C81.0132 61.2713 86.7719 59.593 91.3777 62.1553C91.5862 62.2706 91.8438 62.2001 91.9603 61.9887L92.7514 60.5731C92.9477 60.2272 93.4444 60.2976 93.5426 60.6884L94.9163 66.2101C94.9776 66.4471 94.8427 66.6969 94.6097 66.7609L89.3416 68.2022C88.9675 68.3047 88.6608 67.8819 88.8571 67.536L89.6666 66.0948C89.7893 65.8706 89.7157 65.5759 89.4949 65.4606ZM84.0244 76.6191C86.9859 78.0924 90.616 77.0227 92.3101 74.1081L92.3165 74.1017C92.8769 73.1408 93.1508 72.0967 93.1826 71.059C93.1954 70.5081 93.5457 70.0341 94.0743 69.8931L96.1823 69.3358C96.5517 69.2397 96.9147 69.5024 96.9529 69.8867C97.1503 71.9622 96.73 74.1145 95.6028 76.049C92.8324 80.8084 86.8521 82.4867 82.0692 79.9244C81.8527 79.8091 81.5852 79.8796 81.4642 80.091L80.6426 81.5066C80.4388 81.8525 79.923 81.7821 79.8211 81.3913L78.3945 75.8696C78.3308 75.6326 78.4709 75.3828 78.7129 75.3188L84.1837 73.8775C84.5721 73.775 84.8906 74.1978 84.6868 74.5437L83.8461 75.9849C83.7187 76.2091 83.7952 76.5038 84.0244 76.6191Z" fill="white"/>
<path d="M108.501 59C108.799 59 109.096 59.12 109.324 59.3539C109.778 59.8219 109.778 60.5837 109.324 61.0517L106.991 63.4512C106.536 63.9192 105.796 63.9192 105.341 63.4512C104.886 62.9833 104.886 62.2215 105.341 61.7535L107.673 59.3539C107.901 59.12 108.198 59 108.496 59H108.501Z" fill="#CCCCCC"/>
<path d="M107.335 69.7982H110.834C111.475 69.7982 112 70.3381 112 70.998C112 71.6579 111.475 72.1978 110.834 72.1978H107.335C106.694 72.1978 106.169 71.6579 106.169 70.998C106.169 70.3381 106.694 69.7982 107.335 69.7982Z" fill="#CCCCCC"/>
<path d="M105.353 78.5518C105.58 78.3178 105.878 78.1978 106.175 78.1978H106.181C106.478 78.1978 106.776 78.3178 107.003 78.5518L109.336 80.9513C109.79 81.4193 109.79 82.1811 109.336 82.6491C108.881 83.117 108.14 83.117 107.685 82.6491L105.353 80.2495C104.898 79.7815 104.898 79.0197 105.353 78.5518Z" fill="#CCCCCC"/>
<path fill-rule="evenodd" clip-rule="evenodd" d="M74 38.0172C74 41.8928 70.8583 45.0345 66.9828 45.0345C66.1333 45.0345 65.319 44.8835 64.5654 44.607L63 46.1724H59.9655V49.56C59.9655 49.784 59.784 49.9655 59.5601 49.9655H56.931V52.5946C56.931 52.8185 56.7495 53 56.5256 53H52V48.4482L60.2962 40.1521C60.0814 39.4789 59.9655 38.7616 59.9655 38.0172C59.9655 34.1417 63.1072 31 66.9828 31C70.8583 31 74 34.1417 74 38.0172ZM68 34.4C66.5641 34.4 65.4 35.5641 65.4 37C65.4 38.4359 66.5641 39.6 68 39.6C69.4359 39.6 70.6 38.4359 70.6 37C70.6 35.5641 69.4359 34.4 68 34.4Z" fill="#E2A412" stroke="#E2A412" stroke-linejoin="round"/>
</svg>
