<?xml version="1.0" encoding="UTF-8" standalone="no"?>
<!DOCTYPE svg PUBLIC "-//W3C//DTD SVG 1.1//EN" "http://www.w3.org/Graphics/SVG/1.1/DTD/svg11.dtd">
<!-- Created with Vectornator (http://vectornator.io/) -->
<svg height="100%" stroke-miterlimit="10" style="fill-rule:nonzero;clip-rule:evenodd;stroke-linecap:round;stroke-linejoin:round;" version="1.1" viewBox="0 0 56 56" width="100%" xml:space="preserve" xmlns="http://www.w3.org/2000/svg" xmlns:vectornator="http://vectornator.io" xmlns:xlink="http://www.w3.org/1999/xlink">
<defs>
<linearGradient gradientTransform="matrix(1 0 0 1 0 0)" gradientUnits="userSpaceOnUse" id="LinearGradient" x1="27.5007" x2="27.5007" y1="6.88614" y2="37.9796">
<stop offset="0" stop-color="#ffffff" stop-opacity="0.9"/>
<stop offset="1" stop-color="#ffffff" stop-opacity="0.4"/>
</linearGradient>
<linearGradient gradientTransform="matrix(1 0 0 1 0 0)" gradientUnits="userSpaceOnUse" id="LinearGradient_2" x1="27.9999" x2="27.9999" y1="36.2223" y2="51.7777">
<stop offset="0" stop-color="#ffffff" stop-opacity="0.6"/>
<stop offset="1" stop-color="#ffffff" stop-opacity="0.8"/>
</linearGradient>
</defs>
<g id="Untitled" vectornator:layerName="Untitled">
<g opacity="1" vectornator:layerName="g">
<path d="M10.5 15.5165C10.5 11.7529 13.5572 8.70508 17.3209 8.71674L37.7203 8.77994C41.4675 8.79155 44.499 11.8325 44.499 15.5797L44.499 32.5002C44.499 36.2556 41.4546 39.3 37.6992 39.3L37.4482 39.3C36.8371 38.0088 35.9821 36.8557 34.9426 35.9001L37.6992 35.9001C39.5769 35.9001 41.0991 34.3779 41.0991 32.5002L41.0991 15.9678L31.9984 23.9979C29.4279 26.2659 25.5711 26.2659 23.0006 23.9979L13.8999 15.9678L13.8999 32.5002C13.8999 34.3779 15.4221 35.9001 17.2998 35.9001L20.0574 35.9001C19.0179 36.8557 18.1629 38.0088 17.5518 39.3L17.2998 39.3C13.5444 39.3 10.5 36.2556 10.5 32.5002L10.5 15.5165ZM17.3103 12.1166C16.586 12.1144 15.9139 12.3388 15.3613 12.7231L25.2501 21.4485C26.5353 22.5825 28.4637 22.5825 29.749 21.4485L39.5974 12.7586C39.0581 12.395 38.4088 12.182 37.7097 12.1798L17.3103 12.1166Z" fill="url(#LinearGradient)" fill-rule="evenodd" opacity="1" stroke="none" vectornator:layerName="path"/>
<path d="M27.9999 52C32.4182 52 35.9999 48.4183 35.9999 44C35.9999 39.5818 32.4182 36.0001 27.9999 36.0001C23.5817 36.0001 20 39.5818 20 44C20 48.4183 23.5817 52 27.9999 52ZM34.8055 44C34.8055 47.2507 32.5263 49.9691 29.4788 50.6444C29.3733 50.4109 29.2609 50.1583 29.1733 49.9532C28.9469 50.0231 28.6257 50.0561 28.3952 50.0643C28.2202 50.0643 28.0782 50.0561 28.0041 49.9532C27.5553 50.336 26.6496 50.8465 26.4684 50.7272C26.1226 50.5048 25.7974 48.7922 26.0567 48.434C26.1144 48.3517 26.2214 48.3105 26.3532 48.2981C26.2296 48.8045 26.5178 50.0561 26.6784 50.1837C26.8348 50.3072 27.9557 49.6403 27.9063 49.4838C27.8075 49.1545 27.8075 48.858 27.8198 48.6728C27.8651 48.611 28.0041 48.5163 28.0988 48.4752C28.0905 48.5204 28.0864 48.5699 28.0905 48.6275C28.0905 48.821 28.1152 49.1545 28.1646 49.2986C28.2305 49.4756 28.3005 49.5909 28.6134 49.5867C28.9304 49.5826 29.4409 49.5126 29.5191 49.3727C29.5973 49.2327 29.4944 48.6645 29.4285 48.4834L29.3915 48.3969C29.3874 48.3887 29.3833 48.3805 29.3791 48.3764L29.4893 48.3764C29.654 48.4134 29.795 48.4834 29.8361 49.2419C29.8361 49.3943 30.9024 49.6856 31.0959 49.6032C31.1124 49.595 31.1206 49.5867 31.1247 49.5785C31.2153 49.1133 31.1618 47.9564 30.7501 47.4665C30.6678 47.3677 29.8238 47.9029 29.3174 48.2817C29.2103 48.1664 29.021 48.1005 28.6628 48.1582C28.6291 48.163 28.5983 48.1692 28.5686 48.1751C28.5475 48.1794 28.5269 48.1835 28.5063 48.187C28.3293 47.6106 28.2264 47.1042 28.2676 46.7748C27.8723 46.5649 27.6088 46.322 27.5594 46.2273C27.473 46.0708 27.6171 45.9967 27.6912 46.0379C27.6953 46.042 27.7035 46.0461 27.7159 46.0503C28.1317 46.2767 28.7986 46.5237 29.7044 46.569C29.8114 46.5731 29.9226 46.5772 30.0337 46.5772C31.4953 46.5649 32.3475 45.9967 32.1993 45.7127C32.1294 45.5806 31.8259 45.6143 31.3719 45.6648C30.8632 45.7214 30.1656 45.7989 29.3956 45.688C28.317 45.5315 28.2099 45.0375 28.3458 44.8275C28.5532 44.5096 28.9422 44.5267 29.4989 44.5511L29.4989 44.5511C29.793 44.5639 30.1339 44.5789 30.5195 44.5476C31.6352 44.457 32.2693 44.1441 32.6192 43.7447C32.8045 43.5348 32.8868 43.3083 32.8168 43.1725C32.751 43.0531 32.5657 43.0078 32.0387 43.2095C31.6723 43.3495 31.1206 43.5307 30.3837 43.6171C30.5113 42.7978 30.1284 39.8295 28.0329 39.3807C28.0247 39.3766 28.0164 39.3725 28.0082 39.3643C27.37 38.5491 26.0732 38.1786 24.8381 38.3433C24.8299 38.3433 24.8258 38.3474 24.8216 38.3515C24.7846 38.368 24.7846 38.4379 24.8258 38.4544C24.9657 38.5038 25.1304 38.5779 25.2539 38.6891C25.0769 38.7838 24.8175 38.9402 24.6734 39.142C24.6652 39.1502 24.6652 39.1584 24.6652 39.1667C24.6652 39.1914 24.6858 39.2119 24.7146 39.2078C25.3157 39.0884 25.9291 39.1461 26.2914 39.4754C26.3161 39.496 26.3038 39.5331 26.2708 39.5413C23.1337 40.3935 23.7553 43.1231 24.5911 46.4702C25.0603 48.3501 25.4107 49.6418 25.6168 50.3766C23.0336 49.4107 21.1944 46.9201 21.1944 44C21.1944 40.2414 24.2414 37.1945 27.9999 37.1945C31.7585 37.1945 34.8055 40.2414 34.8055 44ZM29.7538 41.1634L29.7379 41.1563C29.6296 41.1079 29.4953 41.0479 29.2639 41.044C29.021 41.0399 28.8686 41.1016 28.7698 41.1552C28.7369 41.1716 28.6875 41.1387 28.704 41.1058C28.7863 40.974 28.9674 40.8711 29.2639 40.8711C29.5603 40.8711 29.7003 40.9905 29.795 41.1181C29.8155 41.1428 29.7826 41.1757 29.7538 41.1634ZM29.9761 42.4726C29.9761 42.7237 29.7703 42.9296 29.515 42.9296C29.2597 42.9296 29.0539 42.7237 29.0539 42.4726C29.0539 42.2215 29.2597 42.0156 29.515 42.0156C29.7703 42.0156 29.9761 42.2173 29.9761 42.4726ZM25.9332 42.2544C26.2296 42.2544 26.4684 42.4932 26.4684 42.7896C26.4684 43.086 26.2296 43.3248 25.9332 43.3248C25.6368 43.3248 25.398 43.086 25.398 42.7896C25.3939 42.4932 25.6368 42.2544 25.9332 42.2544ZM25.3733 41.2745C25.0851 41.3939 24.9945 41.5257 24.9369 41.6121C24.9163 41.6451 24.8381 41.641 24.8381 41.6039C24.8381 41.4392 24.9904 41.1881 25.3116 41.0687C25.6739 40.9328 25.9497 41.0563 26.0732 41.1593C26.102 41.1799 26.0773 41.2169 26.0444 41.2087C25.8879 41.1716 25.6615 41.1552 25.3733 41.2745ZM29.7209 42.4396C29.7867 42.4396 29.8403 42.3861 29.8403 42.3202C29.8403 42.2544 29.7867 42.2008 29.7209 42.2008C29.655 42.2008 29.6015 42.2544 29.6015 42.3202C29.6015 42.3861 29.655 42.4396 29.7209 42.4396ZM26.172 42.7484C26.2502 42.7484 26.312 42.6867 26.312 42.6084C26.312 42.5302 26.2502 42.4685 26.172 42.4685C26.0938 42.4685 26.032 42.5302 26.032 42.6084C26.032 42.6867 26.0938 42.7484 26.172 42.7484Z" fill="url(#LinearGradient_2)" fill-rule="evenodd" opacity="1" stroke="none" vectornator:layerName="path"/>
</g>
</g>
</svg>
