<svg width="76" height="76" viewBox="0 0 76 76" fill="none" xmlns="http://www.w3.org/2000/svg">
<path fill-rule="evenodd" clip-rule="evenodd" d="M20.188 20.2812C16.9261 20.2812 14.2817 22.9256 14.2817 26.1875V49.8124C14.2817 53.0743 16.926 55.7186 20.188 55.7186H55.813C59.0749 55.7186 61.7192 53.0743 61.7192 49.8124V26.1875C61.7192 22.9256 59.0749 20.2812 55.813 20.2812H20.188ZM18.2192 26.8408V49.8124C18.2192 50.8997 19.1007 51.7811 20.188 51.7811H55.813C56.9003 51.7811 57.7817 50.8997 57.7817 49.8124V26.8411L40.5441 41.4268C39.076 42.669 36.9254 42.669 35.4573 41.4268L18.2192 26.8408ZM54.7852 24.2187H21.2162L38.0007 38.421L54.7852 24.2187Z" fill="white" fill-opacity="0.7"/>
</svg>
