<svg width="76" height="76" viewBox="0 0 76 76" fill="none" xmlns="http://www.w3.org/2000/svg">
<path fill-rule="evenodd" clip-rule="evenodd" d="M27.5217 22.2661C23.6472 22.2541 20.5 25.3916 20.5 29.2661V46.7498C20.5 50.6158 23.634 53.7498 27.5 53.7498H36.25C37.2165 53.7498 38 52.9663 38 51.9998C38 51.0333 37.2165 50.2498 36.25 50.2498H27.5C25.567 50.2498 24 48.6828 24 46.7498V29.7307L33.3686 37.9972C36.0148 40.332 39.9852 40.332 42.6314 37.9972L52 29.7307V39.7498C52 40.7163 52.7835 41.4998 53.75 41.4998C54.7165 41.4998 55.5 40.7163 55.5 39.7498V29.3312C55.5 25.4737 52.3792 22.3432 48.5217 22.3312L27.5217 22.2661ZM50.4541 26.4271C49.8989 26.0528 49.2305 25.8334 48.5108 25.8312L27.5108 25.7661C26.7651 25.7638 26.0733 25.9949 25.5044 26.3904L35.6843 35.3727C37.0074 36.5401 38.9926 36.5401 40.3157 35.3727L50.4541 26.4271Z" fill="white"/>
<path d="M48.5 39.7499C48.5 38.7834 47.7165 37.9999 46.75 37.9999C45.7835 37.9999 45 38.7834 45 39.7499V44.9999H39.75C38.7835 44.9999 38 45.7834 38 46.7499C38 47.7164 38.7835 48.4999 39.75 48.4999H45V53.7499C45 54.7164 45.7835 55.4999 46.75 55.4999C47.7165 55.4999 48.5 54.7164 48.5 53.7499V48.4999H53.75C54.7165 48.4999 55.5 47.7164 55.5 46.7499C55.5 45.7834 54.7165 44.9999 53.75 44.9999H48.5V39.7499Z" fill="white"/>
</svg>
