<svg width="24" height="24" fill="none" xmlns="http://www.w3.org/2000/svg">
  <g clip-path="url(#The-Nielsen-Company_svg__a)">
    <path fill="#00AEEF" d="M24 12c0 6.627-5.373 12-12 12S0 18.627 0 12 5.373 0 12 0s12 5.373 12 12Z"/>
    <path fill="#fff" fill-opacity=".12" fill-rule="evenodd" d="M24 12c0 6.627-5.373 12-12 12S0 18.627 0 12 5.373 0 12 0s12 5.373 12 12ZM12 23.5c6.351 0 11.5-5.149 11.5-11.5S18.351.5 12 .5.5 5.649.5 12 5.649 23.5 12 23.5Z" clip-rule="evenodd"/>
    <g fill="#fff" clip-path="url(#The-Nielsen-Company_svg__b)">
      <path d="M9.698 8.728c.46-.461.848-.79 1.225-1.03.374-.238.843-.36 1.407-.36.887 0 1.519.305 1.893.91.374.607.564 1.407.564 2.397v6.463c0 .273-.136.448-.41.526a5.94 5.94 0 0 1-1.101.167v.282H18.5v-.232c-.154-.017-.32-.038-.5-.064a3.9 3.9 0 0 1-.499-.102 1.162 1.162 0 0 1-.397-.191c-.11-.087-.165-.189-.165-.308V9.648c0-1.162-.266-2.11-.794-2.845-.528-.736-1.287-1.103-2.277-1.103-.461 0-.904.09-1.33.27-.427.18-.82.406-1.177.68a6.08 6.08 0 0 0-.96.908 9.095 9.095 0 0 0-.702.935m-.643 8.665c.034.171.093.296.18.372a.758.758 0 0 0 .306.167 1.8 1.8 0 0 0 .41.064c.153.009.315.03.486.064v.256H5.5v-.256a3.37 3.37 0 0 0 1.011-.23c.281-.12.423-.316.423-.589v-8.82a.92.92 0 0 0-.04-.308c-.026-.067-.098-.145-.217-.232a35.056 35.056 0 0 0-.539-.293 6.585 6.585 0 0 0-.612-.294v-.154L8.878 5.7h.174l.004 11.458Z"/>
    </g>
  </g>
  <defs>
    <clipPath id="The-Nielsen-Company_svg__a">
      <path fill="#fff" d="M0 0h24v24H0z"/>
    </clipPath>
    <clipPath id="The-Nielsen-Company_svg__b">
      <path fill="#fff" d="M5.5 5.7h13v12.381h-13z"/>
    </clipPath>
  </defs>
</svg>
