<svg width="24" height="24" viewBox="0 0 24 24" fill="none" xmlns="http://www.w3.org/2000/svg">
<path fill-rule="evenodd" clip-rule="evenodd" d="M2 7C2 4.79086 3.79086 3 6 3H10.2639C11.4002 3 12.439 3.64201 12.9472 4.65836L13.118 5H18C20.2091 5 22 6.79086 22 9V10.9365C22 11.64 21.1071 12.0462 20.4822 11.723L20.452 11.7074C20.1833 11.5702 20 11.3017 20 11H4V17C4 18.1046 4.89543 19 6 19H10.5144C10.9009 19 11.2332 19.2747 11.3604 19.6397C11.5771 20.2617 11.1573 21 10.4987 21H6C3.79086 21 2 19.2091 2 17V7ZM6 5C4.89543 5 4 5.89543 4 7V9H20C20 7.89543 19.1046 7 18 7H13.118C12.3605 7 11.668 6.572 11.3292 5.89443L11.1584 5.55279C10.989 5.214 10.6427 5 10.2639 5H6Z" fill="black" fill-opacity="0.84"/>
<path fill-rule="evenodd" clip-rule="evenodd" d="M17.5 22C19.9853 22 22 19.9853 22 17.5C22 15.0147 19.9853 13 17.5 13C15.0147 13 13 15.0147 13 17.5C13 19.9853 15.0147 22 17.5 22ZM20.5 17H18V14.5H17V17H14.5V18H17V20.5H18V18H20.5V17Z" fill="black" fill-opacity="0.84"/>
</svg>
