<svg width="24" height="24" fill="none" xmlns="http://www.w3.org/2000/svg">
  <path fill="#007FD2" d="M24 12c0 6.627-5.373 12-12 12S0 18.627 0 12 5.373 0 12 0s12 5.373 12 12Z"/>
  <path fill="#fff" fill-opacity=".12" fill-rule="evenodd" d="M24 12c0 6.627-5.373 12-12 12S0 18.627 0 12 5.373 0 12 0s12 5.373 12 12ZM12 23.5c6.351 0 11.5-5.149 11.5-11.5S18.351.5 12 .5.5 5.649.5 12 5.649 23.5 12 23.5Z" clip-rule="evenodd"/>
  <path fill="#fff" fill-rule="evenodd" d="M19.75 12.093a.56.56 0 0 0-.446-.553H19.3a.04.04 0 0 1-.005-.002h-.004l-.01-.002a.57.57 0 0 0-.083-.007l-.074-.007c-1.757-.128-3.565-.178-5.262-.212l-.003-.013c-.825-3.137-1.857-6.344-3.247-6.344-1.296.006-2.464 2.113-3.472 6.264a416.763 416.763 0 0 1-2.069-.03c-.13 0-.194.005-.226.01a.73.73 0 0 0-.595.725c0 .365.27.678.62.73l.007.007H6.81c-.179.83-.336 1.652-.467 2.443l-.058.349v.016a.487.487 0 0 0 .483.487.48.48 0 0 0 .407-.227l.014.011.95-3.079h4.575c.35 1.338.712 2.72 1.191 4.016.257.694.856 2.317 1.859 2.325h.011c1.551 0 2.156-2.538 2.557-4.219.086-.362.16-.675.23-.904l.028-.095a.242.242 0 0 0-.23-.314.241.241 0 0 0-.225.158l-.034.094c-.132.37-.254.719-.361 1.028l-.009.024c-.671 1.926-.978 2.806-1.578 2.806h-.015l-.008.001h-.015c-.769 0-1.493-3.166-1.765-4.357l-.01-.046a57.598 57.598 0 0 0-.12-.517h4.97a.549.549 0 0 0 .258-.065h.002a.303.303 0 0 0 .016-.01l.006-.003a.505.505 0 0 0 .072-.05l.002-.002a.567.567 0 0 0 .205-.436ZM10.756 6.49c-.058-.078-.124-.118-.198-.118a.29.29 0 0 0-.152.05c-.558.445-1.323 2.328-1.95 4.81l.555.006c1.096.013 2.227.026 3.345.043a51.453 51.453 0 0 0-.829-2.897c-.373-1.15-.625-1.665-.771-1.894Z" clip-rule="evenodd"/>
</svg>
