<svg width="24" height="24" fill="none" xmlns="http://www.w3.org/2000/svg">
  <g clip-path="url(#33Across_svg__a)">
    <path fill="#fff" d="M24 12c0 6.627-5.373 12-12 12S0 18.627 0 12 5.373 0 12 0s12 5.373 12 12Z"/>
    <path fill="#000" fill-opacity=".12" fill-rule="evenodd" d="M24 12c0 6.627-5.373 12-12 12S0 18.627 0 12 5.373 0 12 0s12 5.373 12 12ZM12 23.5c6.351 0 11.5-5.149 11.5-11.5S18.351.5 12 .5.5 5.649.5 12 5.649 23.5 12 23.5Z" clip-rule="evenodd"/>
    <path fill="#BE1E2D" d="M10.842 11.86c.501-.236.644-.567.644-1.464 0-1.7-.907-1.983-3.068-1.983H7.07c-2.436 0-3.498.2-3.498 2.125v.555h2.292v-.472c0-.284 0-.414.644-.414H8.49c.656 0 .704.165.704.425 0 .32 0 .425-.561.425H6.556v1.736h2.256c.514 0 .514.118.514.425 0 .342 0 .401-.49.401H6.449c-.633 0-.657-.094-.657-.484v-.485H3.5v.886c0 1.239.788 1.877 2.34 1.877h3.318c1.839 0 2.46-.496 2.46-1.96 0-.861-.12-1.334-.776-1.593Zm8.882 0c.501-.236.644-.567.644-1.464 0-1.7-.907-1.983-3.068-1.983h-1.337c-2.435 0-3.498.2-3.498 2.125v.555h2.292v-.472c0-.284 0-.414.645-.414h1.982c.656 0 .704.165.704.425 0 .32 0 .425-.561.425h-2.065v1.736h2.256c.513 0 .513.118.513.425 0 .342 0 .401-.49.401h-2.387c-.633 0-.657-.094-.657-.484v-.485h-2.315v.886c0 1.239.788 1.877 2.34 1.877h3.318c1.838 0 2.46-.496 2.46-1.96.012-.861-.12-1.334-.776-1.593Z"/>
  </g>
  <defs>
    <clipPath id="33Across_svg__a">
      <path fill="#fff" d="M0 0h24v24H0z"/>
    </clipPath>
  </defs>
</svg>
