<svg width="24" height="24" fill="none" xmlns="http://www.w3.org/2000/svg">
  <g clip-path="url(#RhythmOne_svg__a)">
    <path fill="#00CDEF" d="M24 12c0 6.627-5.373 12-12 12S0 18.627 0 12 5.373 0 12 0s12 5.373 12 12Z"/>
    <path fill="#000" fill-opacity=".12" fill-rule="evenodd" d="M24 12c0 6.627-5.373 12-12 12S0 18.627 0 12 5.373 0 12 0s12 5.373 12 12ZM12 23.5c6.351 0 11.5-5.149 11.5-11.5S18.351.5 12 .5.5 5.649.5 12 5.649 23.5 12 23.5Z" clip-rule="evenodd"/>
    <path fill="#fff" d="M11.439 5.4V4a8.022 8.022 0 0 0-7.427 7.39h1.394A6.63 6.63 0 0 1 11.44 5.4ZM9.348 8.453V7.88h1.465v7.914H9.345v-5.221H8.116v-1.22h.473c.422 0 .759-.477.759-.9Zm5.969 3.617c-.25.419-.603.766-1.027 1.008l1.808 2.715h-1.771l-1.536-2.304h-1.112v-1.463h1.103c.772 0 1.451-.627 1.451-1.341s-.683-1.34-1.451-1.34h-1.103V7.88h1.114c1.58 0 2.918 1.284 2.918 2.805a2.813 2.813 0 0 1-.394 1.384Zm4.669-.68H18.59a6.63 6.63 0 0 0-6.099-5.994V4a8.023 8.023 0 0 1 7.495 7.39Z"/>
    <path fill="#fff" d="M12.491 18.59v1.396A8.023 8.023 0 0 0 20 12.446h-1.396a6.628 6.628 0 0 1-6.113 6.144ZM4 12.446h1.396a6.628 6.628 0 0 0 6.043 6.144v1.397A8.022 8.022 0 0 1 4 12.447Z"/>
  </g>
  <defs>
    <clipPath id="RhythmOne_svg__a">
      <path fill="#fff" d="M0 0h24v24H0z"/>
    </clipPath>
  </defs>
</svg>
