<svg viewBox="0 0 96 64" fill="none" xmlns="http://www.w3.org/2000/svg">
  <g opacity=".2" fill="#888">
    <path d="M79.221 24.65l1.158-.3c.214-.043.428-.257.471-.471l.3-1.158c.086-.3.343-.471.6-.471.3 0 .557.214.6.471l.3 1.158c.043.214.257.428.471.471l1.158.3c.3.086.471.343.471.6 0 .3-.214.557-.471.6l-1.158.3c-.214.043-.428.257-.471.471l-.3 1.158c-.086.3-.343.471-.6.471-.3 0-.557-.214-.6-.471l-.3-1.158c-.043-.214-.257-.428-.471-.471l-1.158-.3c-.3-.086-.471-.343-.471-.6 0-.3.214-.557.471-.6z"/>
    <path d="M11.957 19.85l1.736-.45c.321-.064.643-.386.707-.707l.45-1.736c.129-.45.514-.707.9-.707.45 0 .836.321.9.707l.45 1.736c.064.321.386.643.707.707l1.736.45c.45.129.707.514.707.9 0 .45-.321.836-.707.9l-1.736.45c-.321.064-.643.386-.707.707l-.45 1.736c-.129.45-.514.707-.9.707-.45 0-.836-.321-.9-.707l-.45-1.736c-.064-.321-.386-.643-.707-.707l-1.736-.45c-.45-.129-.707-.514-.707-.9 0-.45.321-.836.707-.9z"/>
    <path d="M.471 35.9l1.158-.3c.214-.043.428-.257.471-.471l.3-1.158c.086-.3.343-.471.6-.471.3 0 .557.214.6.471l.3 1.158c.043.214.257.428.471.471l1.158.3c.3.086.471.343.471.6 0 .3-.214.557-.471.6l-1.158.3c-.214.043-.428.257-.471.471l-.3 1.158c-.086.3-.343.471-.6.471-.3 0-.557-.214-.6-.471l-.3-1.158c-.043-.214-.257-.428-.471-.471L.47 37.1c-.3-.086-.471-.343-.471-.6 0-.3.214-.557.471-.6z"/>
    <path d="M94.875 35c-.619 0-1.125-.506-1.125-1.125s.506-1.125 1.125-1.125S96 33.256 96 33.875 95.494 35 94.875 35z"/>
    <path d="M17.25 48.5c-.825 0-1.5-.675-1.5-1.5s.675-1.5 1.5-1.5 1.5.675 1.5 1.5-.675 1.5-1.5 1.5z"/>
  </g>
  <path fill-rule="evenodd" clip-rule="evenodd" d="M55 45.198c-.645 1.642-1 3.43-1 5.302v2.673L42 55.25v-10.5L55 45v.198z" fill="#ABABAB"/>
  <path d="M26 10c0-1.105.895-2 2-2h42c1.105 0 2 .895 2 2v24c0 1.105-.895 2-2 2H28c-1.105 0-2-.895-2-2V10z" fill="#888"/>
  <path d="M33 54.5c0-.828.672-1.5 1.5-1.5H54v.75c0 1.243-1.007 2.25-2.25 2.25H34.5c-.828 0-1.5-.672-1.5-1.5z" fill="#888"/>
  <path fill-rule="evenodd" clip-rule="evenodd" d="M68.595 8h-43.19C24.629 8 24 8.68 24 9.52v34.96c0 .84.629 1.52 1.405 1.52h29.307c1.893-5.805 7.35-10 13.788-10H70V9.52C70 8.68 69.371 8 68.595 8z" fill="#CCC"/>
  <path fill-rule="evenodd" clip-rule="evenodd" d="M66.959 11H27.04c-.575 0-1.041.512-1.041 1.143v29.714c0 .631.466 1.143 1.041 1.143h29.047c2.46-4.062 6.858-6.82 11.912-6.992V12.143c0-.631-.466-1.143-1.041-1.143z" fill="#FFD65C"/>
  <path d="M52.65 29.712c-1.842 3.17-5.79 4.332-9.01 2.73-.25-.125-.333-.446-.195-.69l.914-1.567c.222-.376-.124-.836-.547-.724l-5.949 1.567c-.263.07-.416.341-.346.6l1.551 6.004c.11.425.672.502.894.126l.893-1.54c.132-.23.423-.307.658-.181 5.201 2.786 11.705.961 14.718-4.215 1.225-2.104 1.683-4.444 1.468-6.701-.042-.418-.436-.704-.838-.6l-2.293.607c-.575.153-.955.669-.97 1.268-.034 1.128-.332 2.264-.941 3.308l-.007.008z" fill="#F9BE1A"/>
  <path d="M40.911 23.038c1.774-3.17 5.576-4.332 8.677-2.73.24.125.32.446.187.69l-.88 1.567c-.214.376.12.836.526.724l5.73-1.567c.253-.07.4-.341.333-.6l-1.494-6.004c-.107-.425-.647-.502-.86-.126l-.86 1.54c-.127.23-.408.306-.634.181-5.01-2.786-11.272-.961-14.173 4.215-1.18 2.104-1.62 4.444-1.414 6.701.04.418.42.704.807.6l2.208-.607c.553-.153.92-.669.934-1.268.033-1.128.32-2.264.907-3.308l.006-.008z" fill="#F9BE1A"/>
  <path d="M69 63c6.627 0 12-5.373 12-12s-5.373-12-12-12-12 5.373-12 12 5.373 12 12 12z" fill="#DE5833"/>
  <path d="M85.924 50.643h2.701c.496 0 .901.405.901.9 0 .496-.405.901-.9.901h-2.702c-.495 0-.9-.405-.9-.9 0-.496.405-.9.9-.9z" fill="#CCC"/>
  <path d="M86.824 42.539c.23 0 .46.09.635.265.351.351.351.923 0 1.274l-1.8 1.801c-.352.352-.924.352-1.275 0-.351-.35-.351-.923 0-1.274l1.801-1.8c.176-.176.405-.266.635-.266h.004z" fill="#CCC"/>
  <path d="M85.028 56.947c-.23 0-.46.09-.635.266-.35.351-.35.923 0 1.274l1.801 1.801c.352.352.923.352 1.275 0 .35-.35.35-.923 0-1.274l-1.801-1.8c-.176-.176-.406-.267-.635-.267h-.005z" fill="#CCC"/>
  <path fill-rule="evenodd" clip-rule="evenodd" d="M62.5 49c-.276 0-.5.224-.5.5v3c0 .276.224.5.5.5h13c.276 0 .5-.224.5-.5v-3c0-.276-.224-.5-.5-.5h-13z" fill="#fff"/>
</svg>
