<svg width="24" height="24" viewBox="0 0 24 24" fill="none" xmlns="http://www.w3.org/2000/svg">
<circle cx="12" cy="12" r="11" fill="white"/>
<path fill-rule="evenodd" clip-rule="evenodd" d="M24 12C24 18.6274 18.6274 24 12 24C5.37258 24 0 18.6274 0 12C0 5.37258 5.37258 0 12 0C18.6274 0 24 5.37258 24 12ZM3.77822 12.6749C3.81646 13.478 4.31355 13.7361 5.06881 13.7361C5.60419 13.7361 6.15869 13.5449 6.15869 13.0382C6.15869 12.5438 5.50162 12.378 4.72158 12.1811C4.55135 12.1381 4.37526 12.0936 4.19887 12.044C3.22367 11.7667 2.20077 11.3269 2.20077 10.0746C2.20077 8.58318 3.70169 8 4.98277 8C6.34034 8 7.70741 8.65966 7.71697 10.1988H5.9388C5.96748 9.57745 5.38431 9.37669 4.83937 9.37669C4.45695 9.37669 3.97894 9.51053 3.97894 9.95982C3.97894 10.3742 4.5906 10.5214 5.33653 10.7009L5.33654 10.7009L5.33656 10.7009L5.33669 10.7009C5.53716 10.7492 5.74733 10.7998 5.95792 10.8585C6.94259 11.1357 7.93686 11.5946 7.93686 12.8279C7.93686 14.5583 6.46457 15.1128 4.96365 15.1128C3.39581 15.1128 2.00956 14.4245 2 12.6749H3.77822ZM10.3556 11.3174H11.5506C12.1051 11.3174 12.5067 11.0879 12.5067 10.4665C12.5067 9.826 12.0955 9.56787 11.5506 9.56787H10.3556V11.3174ZM8.57744 8.14343H11.8183C13.0898 8.14343 14.2849 8.72661 14.2849 10.3423C14.2849 12.0344 13.3193 12.694 11.8183 12.694H10.3556V14.9694H8.57744V8.14343ZM18.3002 8H16.8088L14.2371 15.1128H15.7285L18.3002 8ZM20.5086 8H22L19.4283 15.1128H17.937L20.5086 8Z" fill="#333333"/>
</svg>
