<svg width="24" height="24" fill="none" xmlns="http://www.w3.org/2000/svg">
  <g clip-path="url(#YieldMo_svg__a)">
    <path fill="#fff" d="M24 12c0 6.627-5.373 12-12 12S0 18.627 0 12 5.373 0 12 0s12 5.373 12 12Z"/>
    <path fill="#000" fill-opacity=".12" fill-rule="evenodd" d="M23.979 12c0 6.616-5.363 11.98-11.98 11.98C5.385 23.98.022 18.615.022 12 .02 5.384 5.384.021 12 .021s11.979 5.363 11.979 11.98Zm-11.98 11.5c6.352 0 11.5-5.149 11.5-11.5S18.352.5 12 .5C5.65.5.5 5.65.5 12S5.65 23.5 12 23.5Z" clip-rule="evenodd"/>
    <path fill="#F99F2B" d="M10.81 3.56c4.702-.518 8.629 2.343 9.538 6.954.31 1.568.14 3.11-.446 4.603h-8.486v-.91h.47c2.31 0 4.618-.009 6.927.01.36.003.475-.125.553-.455 1.011-4.272-1.86-8.59-6.164-9.248-4.93-.753-9.148 3.198-8.75 8.197.127 1.595.895 3.317 2.002 4.45.277-.656.484-1.332.832-1.925.538-.92.464-1.728-.04-2.65-.63-1.152-1.11-2.387-1.686-3.658.38 0 .707-.02 1.03.013.088.01.187.17.236.28.472 1.071.934 2.147 1.4 3.22.025.059.058.114.12.235.322-.758.62-1.456.915-2.156.167-.396.353-.787.49-1.194.109-.32.283-.454.618-.406.179.025.364.004.601.004-.416.993-.808 1.933-1.204 2.872-.82 1.946-1.637 3.894-2.473 5.833-.116.268.014.366.18.488a7.636 7.636 0 0 0 3.578 1.45c.092.012.184.03.275.048.012.002.023.014.052.032v.853c-3.584-.137-7.577-3.16-7.863-8.01-.262-4.448 2.944-8.284 7.295-8.93Z"/>
    <path fill="#F9A12E" d="M17.439 12.702c0-.701.007-1.363-.003-2.024-.01-.717-.302-1.042-.931-1.062-.7-.022-1.164.35-1.191 1.024-.033.821-.015 1.645-.018 2.468v.455h-.851c-.007-.137-.02-.278-.02-.42-.003-.796.005-1.592-.003-2.388-.008-.78-.303-1.128-.941-1.142-.74-.015-1.195.398-1.214 1.148-.02.782-.006 1.565-.007 2.348v.454h-.851V8.957h.83l.042.502c.395-.479.873-.668 1.44-.643.571.026.984.308 1.291.82.42-.565.957-.83 1.633-.822.875.013 1.571.542 1.627 1.416.069 1.098.016 2.205.016 3.331h-.85v-.86Z"/>
  </g>
  <defs>
    <clipPath id="YieldMo_svg__a">
      <path fill="#fff" d="M0 0h24v24H0z"/>
    </clipPath>
  </defs>
</svg>
