<svg width="24" height="24" fill="none" xmlns="http://www.w3.org/2000/svg">
  <g clip-path="url(#Xaxis_svg__a)">
    <path fill="#4EB8F3" d="M24 12c0 6.627-5.373 12-12 12S0 18.627 0 12 5.373 0 12 0s12 5.373 12 12Z"/>
    <path fill="#000" fill-opacity=".12" fill-rule="evenodd" d="M24 12c0 6.627-5.373 12-12 12S0 18.627 0 12 5.373 0 12 0s12 5.373 12 12ZM12 23.5c6.351 0 11.5-5.149 11.5-11.5S18.351.5 12 .5.5 5.649.5 12 5.649 23.5 12 23.5Z" clip-rule="evenodd"/>
    <path fill="#fff" d="M8.056 16.428a.493.493 0 1 1-.986 0 .493.493 0 0 1 .986 0Zm2.95-1.147a.493.493 0 1 1-.985 0 .493.493 0 0 1 .985 0Zm4.927-.541a.493.493 0 1 1-.986 0 .493.493 0 0 1 .986 0Zm1.927 2.172a.493.493 0 1 1-.986.001.493.493 0 0 1 .985 0Zm-3.65-5.279a.493.493 0 1 1-.986 0 .493.493 0 0 1 .986 0Zm0-2.918a.493.493 0 1 1-.986 0 .493.493 0 0 1 .986 0Zm2.944-1.145a.493.493 0 1 1-.986 0 .493.493 0 0 1 .986 0ZM7.35 7.086a.493.493 0 1 1-.986 0 .493.493 0 0 1 .986 0Zm1.927 2.173a.493.493 0 1 1-.986 0 .493.493 0 0 1 .986 0Zm1.796 3.106a.493.493 0 1 1-.986 0 .493.493 0 0 1 .986 0Zm1.643-2.438a.493.493 0 1 1-.985.001.493.493 0 0 1 .985 0Zm2.056 8.427a.13.13 0 1 1-.259 0 .13.13 0 0 1 .26 0Zm4.201-.294a.13.13 0 1 1-.259-.001.13.13 0 0 1 .26 0Zm-2.438-1.082a.13.13 0 0 1-.26 0 .13.13 0 0 1 .13-.13.13.13 0 0 1 .13.13Zm-.455-1.186a.13.13 0 1 1-.259 0 .13.13 0 0 1 .26 0Zm.847-1.105a.13.13 0 1 1-.26 0 .13.13 0 0 1 .26 0Zm-2.224.24a.13.13 0 1 1-.26 0 .13.13 0 0 1 .26 0Zm-.478-.255a.13.13 0 1 1-.259 0 .13.13 0 0 1 .26 0Zm.593-.784a.13.13 0 1 1-.26 0 .13.13 0 0 1 .26 0Zm-1.117-.013a.13.13 0 1 1-.259 0 .13.13 0 0 1 .259 0Zm.003-.482a.13.13 0 0 1-.259 0 .13.13 0 0 1 .13-.13.13.13 0 0 1 .13.13Zm-.178.899a.13.13 0 1 1-.26 0 .13.13 0 0 1 .26 0Zm.386 1.274a.13.13 0 1 1-.26 0 .13.13 0 0 1 .26 0Zm-.476.186a.13.13 0 1 1-.26 0 .13.13 0 0 1 .26 0Zm.149 1.591a.13.13 0 1 1-.259 0 .13.13 0 0 1 .26 0Zm-4.138-.839a.13.13 0 1 1-.26 0 .13.13 0 0 1 .26 0Zm-.091-1.065a.13.13 0 1 1-.26 0 .13.13 0 0 1 .26 0Zm-1.862-.353a.13.13 0 1 1-.26 0 .13.13 0 0 1 .26 0ZM6.15 16.954a.13.13 0 0 1-.26 0 .13.13 0 0 1 .26 0Zm.096.711a.13.13 0 1 1-.259 0 .13.13 0 0 1 .259 0Zm1.218.535a.13.13 0 1 1-.259 0 .13.13 0 0 1 .259 0Zm2.257.235a.13.13 0 1 1-.26 0 .13.13 0 0 1 .26 0Zm1.122-4.451a.13.13 0 1 1-.26 0 .13.13 0 0 1 .26 0Zm-1.345-1.308a.13.13 0 1 1-.26 0 .13.13 0 0 1 .26 0Zm2.084-.603a.13.13 0 1 1-.26 0 .13.13 0 0 1 .26 0Zm1.398-.237a.13.13 0 1 1-.26 0 .13.13 0 0 1 .26 0Zm1.708.328a.13.13 0 1 1-.26 0 .13.13 0 0 1 .26 0Zm.298-.84a.13.13 0 0 1-.259 0 .13.13 0 0 1 .26 0Zm-1.345-1.308a.13.13 0 1 1-.26 0 .13.13 0 0 1 .26 0Zm-1.085-.813a.13.13 0 0 1-.259 0 .13.13 0 0 1 .26 0Zm-1.776 1.404a.13.13 0 1 1-.26 0 .13.13 0 0 1 .26 0Zm.003-.482a.13.13 0 1 1-.259 0 .13.13 0 0 1 .259 0Zm.175-.417a.13.13 0 1 1-.26 0 .13.13 0 0 1 .26 0Zm-1.292.404a.13.13 0 1 1-.259 0 .13.13 0 0 1 .26 0Zm.594-.784a.13.13 0 1 1-.26 0 .13.13 0 0 1 .26 0Zm-.478-.255a.13.13 0 1 1-.26 0 .13.13 0 0 1 .26 0Zm-2.225.24a.13.13 0 1 1-.26 0 .13.13 0 0 1 .26 0Zm.846-1.105a.13.13 0 1 1-.259 0 .13.13 0 0 1 .26 0Zm2.169.226a.13.13 0 1 1-.259 0 .13.13 0 0 1 .259 0Zm.47-.186a.13.13 0 1 1-.26 0 .13.13 0 0 1 .26 0Zm-.15-1.591a.13.13 0 1 1-.26 0 .13.13 0 0 1 .26 0Zm4.145.839a.13.13 0 1 1-.259 0 .13.13 0 0 1 .26 0Zm.092 1.065a.13.13 0 1 1-.26 0 .13.13 0 0 1 .26 0Zm1.861.353a.13.13 0 1 1-.259 0 .13.13 0 0 1 .26 0Zm1.344-1.868a.13.13 0 1 1-.259 0 .13.13 0 0 1 .26 0Zm-.096-.71a.13.13 0 1 1-.259 0 .13.13 0 0 1 .259 0ZM17.02 5.8a.13.13 0 1 1-.26 0 .13.13 0 0 1 .26 0Zm-2.257-.235a.13.13 0 1 1-.26 0 .13.13 0 0 1 .26 0Zm-5.051.081a.13.13 0 1 1-.26 0 .13.13 0 0 1 .26 0ZM7.95 7.023a.13.13 0 1 1-.26 0 .13.13 0 0 1 .26 0ZM5.51 5.941a.13.13 0 1 1-.259 0 .13.13 0 0 1 .26 0Zm.898 9.73a.233.233 0 1 1 .467 0 .233.233 0 0 1-.467 0Zm.996-1.181a.233.233 0 1 1 .466 0 .233.233 0 0 1-.466 0Zm.924.79a.233.233 0 1 1 .466.001.233.233 0 0 1-.466 0Zm-1.633 2.096a.233.233 0 1 1 .467 0 .233.233 0 0 1-.467 0Zm4.094-2.886a.233.233 0 1 1 .466 0 .233.233 0 0 1-.466 0Zm1.001.813a.233.233 0 1 1 .465 0 .233.233 0 0 1-.466 0Zm.546-.567a.233.233 0 1 1 .466 0 .233.233 0 0 1-.466 0Zm2.439 1.182a.233.233 0 1 1 .466 0 .233.233 0 0 1-.466 0Zm.599 1.085a.233.233 0 1 1 .465 0 .233.233 0 0 1-.465 0Zm-.658 1.807a.233.233 0 1 1 .467 0 .233.233 0 0 1-.467 0Zm-6.239-5.952a.233.233 0 1 1 .466 0 .233.233 0 0 1-.466 0Zm1.414.899a.233.233 0 1 1 .466 0 .233.233 0 0 1-.466 0Zm-.293-.942a.233.233 0 1 1 .466 0 .233.233 0 0 1-.466 0Zm1.52-.085a.233.233 0 1 1 .466 0 .233.233 0 0 1-.466 0Zm1.319-.411a.233.233 0 1 1 .466 0 .233.233 0 0 1-.466 0Zm2.821.779a.233.233 0 1 1 .466 0 .233.233 0 0 1-.466 0Zm.022-1.947a.233.233 0 1 1 .465 0 .233.233 0 0 1-.465 0Zm-1.123.034a.233.233 0 1 1 .465 0 .233.233 0 0 1-.465 0ZM8.5 10.902a.233.233 0 1 1 .467 0 .233.233 0 0 1-.467 0Zm-.756-1.029a.233.233 0 1 1 .467 0 .233.233 0 0 1-.467 0Zm-.722-1.818a.233.233 0 1 1 .467 0 .233.233 0 0 1-.467 0Zm1.962.026a.233.233 0 1 1 .466 0 .233.233 0 0 1-.466 0Zm-.599-1.085a.233.233 0 1 1 .466 0 .233.233 0 0 1-.466 0Zm.657-1.806a.233.233 0 1 1 .466 0 .233.233 0 0 1-.466 0Zm2.928 3.506a.233.233 0 1 1 .465 0 .233.233 0 0 1-.466 0Zm-.547.567a.233.233 0 1 1 .466 0 .233.233 0 0 1-.466 0Zm1.547.247a.233.233 0 1 1 .466 0 .233.233 0 0 1-.467 0Zm.897.732a.233.233 0 1 1 .466 0 .233.233 0 0 1-.466 0Zm1.567-1.523a.233.233 0 1 1 .467 0 .233.233 0 0 1-.466 0Zm.921.791a.233.233 0 1 1 .466 0 .233.233 0 0 1-.466 0Zm.995-1.182a.233.233 0 1 1 .466 0 .233.233 0 0 1-.466 0Zm-.286-1.704a.233.233 0 1 1 .466 0 .233.233 0 0 1-.466 0Zm-1.05 7.502a.233.233 0 1 1 .466 0 .233.233 0 0 1-.466 0Zm.722 1.818a.233.233 0 1 1 .466 0 .233.233 0 0 1-.466 0Zm-4.096-4.676a.233.233 0 1 1 .467 0 .233.233 0 0 1-.467 0Zm1.336 1.239a.233.233 0 1 1 .466 0 .233.233 0 0 1-.466 0Zm-4.193-1.014a.233.233 0 1 1 .466 0 .233.233 0 0 1-.466 0Zm.244 6.113a.415.415 0 1 1-.83.002.415.415 0 0 1 .83-.002Zm4.597-1.365a.415.415 0 1 1-.83.002.415.415 0 0 1 .83-.002Zm2.071 1.807a.415.415 0 1 1-.83.001.415.415 0 0 1 .83-.001Zm-3.378-4.528a.415.415 0 1 1-.83 0 .415.415 0 0 1 .83 0Zm1.413-.21a.414.414 0 1 1-.828.001.414.414 0 0 1 .829-.002Zm-.799-.676a.415.415 0 1 1-.83.001.415.415 0 0 1 .83 0Zm1.689-2.869a.415.415 0 1 1-.83 0 .415.415 0 0 1 .83 0Zm-5.19-2.008a.415.415 0 1 1-.829.001.415.415 0 0 1 .83-.001ZM8.359 5.951a.415.415 0 1 1-.83.001.415.415 0 0 1 .83 0Zm6.679.434a.415.415 0 1 1-.829.002.415.415 0 0 1 .83-.002Zm-2.549 4.8a.415.415 0 1 1-.83.001.415.415 0 0 1 .83-.001Zm-.812-.722a.415.415 0 1 1-.83.002.415.415 0 0 1 .83-.002Zm-.554.901a.415.415 0 1 1-.83.002.415.415 0 0 1 .83-.002Zm-.8-.674a.415.415 0 1 1-.829 0 .415.415 0 0 1 .83 0Zm1.354 2.804a.415.415 0 1 1-.83.002.415.415 0 0 1 .83-.002Zm-2.242.74a.415.415 0 1 1-.83.001.415.415 0 0 1 .83-.001Zm3.688 1.838a.31.31 0 1 1-.622 0 .31.31 0 0 1 .622 0Zm.56-.924a.31.31 0 1 1-.622 0 .31.31 0 0 1 .622 0Zm1.924-1.303a.31.31 0 1 1-.621 0 .31.31 0 0 1 .621 0Zm-5.817-.42a.31.31 0 1 1-.62 0 .31.31 0 0 1 .62 0Zm2.322.904a.31.31 0 1 1-.621 0 .31.31 0 0 1 .621 0Zm.273-1.11a.31.31 0 1 1-.621 0 .31.31 0 0 1 .621 0Zm-.052-1.041a.31.31 0 1 1-.621 0 .31.31 0 0 1 .621 0Zm2.956-.342a.31.31 0 1 1-.622 0 .31.31 0 0 1 .622 0Zm-.233-1.26a.31.31 0 1 1-.622 0 .31.31 0 0 1 .622 0Zm-3.892-1.724a.31.31 0 1 1-.622 0 .31.31 0 0 1 .622 0Zm.56-.924a.31.31 0 1 1-.622 0 .31.31 0 0 1 .622 0Zm4.079-.038a.31.31 0 1 1-.621 0 .31.31 0 0 1 .621 0Zm-2.452 2.429a.31.31 0 1 1-.62 0 .31.31 0 0 1 .62 0Zm-4.111-.163a.31.31 0 1 1-.622 0 .31.31 0 0 1 .621 0Zm.318 2.008a.31.31 0 1 1-.621 0 .31.31 0 0 1 .621 0Zm-.514 3.946a.31.31 0 1 1-.622-.001.31.31 0 0 1 .622 0Zm-.326 2.528a.173.173 0 1 1-.348 0c0-.096.078-.173.174-.173.096 0 .174.077.174.173Zm-.601-1.015a.173.173 0 0 1-.174.174.173.173 0 0 1-.173-.174.173.173 0 0 1 .347 0Zm-1.552.899a.173.173 0 1 1-.348 0c0-.097.078-.174.174-.174.096 0 .174.077.174.174Zm2.606-1.448a.173.173 0 1 1-.347 0c0-.097.077-.173.173-.173.097 0 .174.076.174.173Zm1.789-.273a.173.173 0 0 1-.174.174.173.173 0 0 1-.173-.174.173.173 0 1 1 .347 0Zm.075-.681a.173.173 0 0 1-.174.173.173.173 0 0 1-.173-.174c0-.096.077-.173.173-.173.097 0 .174.077.174.173Zm-.985.1a.173.173 0 1 1-.347 0c0-.097.078-.174.174-.174.096 0 .174.077.174.174Zm1.626-.4a.173.173 0 1 1-.347 0 .173.173 0 1 1 .347 0Zm-.106-.644a.173.173 0 1 1-.348 0 .173.173 0 0 1 .347 0Zm-1.085-.766a.173.173 0 1 1-.347 0 .173.173 0 0 1 .347 0Zm-.667.32a.173.173 0 1 1-.347 0 .173.173 0 1 1 .347 0Zm-.876-1.221a.173.173 0 1 1-.347 0 .173.173 0 1 1 .347 0Zm-.698-.056a.173.173 0 1 1-.348 0c0-.096.078-.173.173-.173.097 0 .175.077.175.173Zm1.761-1.484a.173.173 0 1 1-.348 0 .174.174 0 0 1 .348 0Zm-.456-.782a.173.173 0 0 1-.174.174.173.173 0 0 1-.174-.174c0-.096.078-.173.174-.173.096 0 .174.077.174.173Zm.621-1.165a.173.173 0 1 1-.346 0 .173.173 0 1 1 .347 0Zm1.423 1.567a.173.173 0 1 1-.347 0 .173.173 0 1 1 .347 0Zm-.081-.431a.173.173 0 1 1-.347 0c0-.096.078-.173.173-.173.097 0 .174.077.174.173Zm1.266-.383a.173.173 0 1 1-.347 0c0-.097.077-.174.173-.174.097 0 .174.077.174.174Zm1.206-.038a.173.173 0 0 1-.174.174.173.173 0 0 1-.173-.174.173.173 0 0 1 .347 0Zm1.646-.246a.173.173 0 0 1-.173.174.173.173 0 0 1-.174-.174.173.173 0 0 1 .347 0Zm.699.055a.173.173 0 1 1-.348 0c0-.097.077-.173.174-.173.096 0 .174.077.174.173Zm-1.305 2.267a.173.173 0 0 1-.174.174.173.173 0 0 1-.173-.174.173.173 0 1 1 .347 0Zm-1.964.028a.173.173 0 0 1-.175.174.173.173 0 0 1-.173-.174c0-.096.078-.173.173-.173.097 0 .175.077.175.173Zm-.65 1.01a.173.173 0 1 1-.347 0 .173.173 0 0 1 .347 0Zm-1.816-.583a.173.173 0 1 1-.347 0 .173.173 0 1 1 .347 0Zm.174-3.878a.173.173 0 1 1-.347 0 .173.173 0 0 1 .347 0Zm-.775-.818a.173.173 0 1 1-.347 0 .173.173 0 0 1 .347 0Zm2.781 6.911a.173.173 0 1 1-.348 0 .173.173 0 1 1 .347 0Zm1.03-.873a.173.173 0 1 1-.347 0 .173.173 0 0 1 .347 0Zm.597-.632a.173.173 0 1 1-.347 0 .173.173 0 1 1 .347 0Zm.174 1.449a.173.173 0 1 1-.347 0 .173.173 0 0 1 .347 0Zm2.005-.191a.173.173 0 1 1-.348 0 .173.173 0 0 1 .347 0Zm.652.094a.173.173 0 1 1-.347 0 .173.173 0 1 1 .347 0Zm1.265 1.711a.173.173 0 1 1-.346 0 .173.173 0 0 1 .346 0Zm-2.105-.725a.173.173 0 0 1-.173.174.173.173 0 0 1-.174-.174.173.173 0 0 1 .347 0Zm-1.941.78a.173.173 0 1 1-.347 0 .173.173 0 1 1 .347 0Zm-.117.772a.173.173 0 0 1-.174.174.173.173 0 0 1-.174-.174c0-.096.078-.173.174-.173.096 0 .174.077.174.173Zm1.214.062a.173.173 0 1 1-.347 0c0-.096.077-.172.173-.172.096 0 .174.076.174.173Zm.432 1.135a.173.173 0 1 1-.348 0c0-.096.078-.173.174-.173.096 0 .174.077.174.173Zm1.293.163a.173.173 0 1 1-.348 0 .174.174 0 0 1 .348 0ZM14.087 9.59a.173.173 0 0 1-.174.173.173.173 0 0 1-.173-.174.173.173 0 0 1 .347 0Zm.667-.32a.173.173 0 1 1-.347 0 .173.173 0 1 1 .347 0Zm-1.858-1.09a.173.173 0 1 1-.347 0 .173.173 0 1 1 .347 0Zm.107.644a.173.173 0 0 1-.174.174.173.173 0 0 1-.174-.174c0-.097.078-.174.174-.174.096 0 .174.077.174.174Zm.534-.944a.173.173 0 0 1-.174.174.173.173 0 0 1-.173-.174c0-.097.077-.173.173-.173.096 0 .174.077.174.173Zm.984-.1a.173.173 0 1 1-.347 0 .173.173 0 1 1 .347 0Zm-.909-.582a.173.173 0 0 1-.174.174.173.173 0 0 1-.174-.174c0-.096.078-.173.174-.173.096 0 .174.077.174.173Zm1.789-.272a.173.173 0 1 1-.347 0 .173.173 0 1 1 .347 0Zm1.054-.55a.173.173 0 1 1-.347 0 .173.173 0 1 1 .347 0Zm1.552-.898a.173.173 0 0 1-.174.174.173.173 0 0 1-.173-.174.173.173 0 1 1 .347 0Zm-2.153-.117a.173.173 0 1 1-.347 0 .173.173 0 1 1 .347 0Zm-5.615.769a.173.173 0 1 1-.348 0c0-.096.078-.173.174-.173.096 0 .174.077.174.174Zm-.119.774a.173.173 0 1 1-.346 0 .173.173 0 0 1 .347 0ZM7.3 4.773a.173.173 0 0 1-.174.174.173.173 0 0 1-.174-.174c0-.096.078-.173.174-.173.096 0 .174.077.174.173Zm1.293.161a.173.173 0 1 1-.348 0c0-.097.078-.174.174-.174.096 0 .174.077.174.174ZM6.075 6.958a.173.173 0 1 1-.348 0c0-.096.078-.173.173-.173.097 0 .175.077.175.173Zm2.105.725a.173.173 0 0 1-.174.174.173.173 0 0 1-.174-.174c0-.096.078-.173.174-.173.096 0 .174.077.174.173Zm-.84.987a.173.173 0 1 1-.347 0 .173.173 0 1 1 .347 0Zm.653.094a.173.173 0 1 1-.347 0c0-.097.077-.174.173-.174.097 0 .174.077.174.174Zm3.806-.247a.173.173 0 0 1-.174.174.173.173 0 0 1-.174-.174c0-.096.078-.173.174-.173.096 0 .174.077.174.173ZM9.024 6.069a.173.173 0 1 1-.347 0 .173.173 0 1 1 .347 0Zm6.97 9.309a.053.053 0 0 1-.052.052.052.052 0 1 1 .052-.052Zm-1.632-.948a.053.053 0 0 1-.052.051.052.052 0 0 1-.052-.052.052.052 0 0 1 .104 0Zm-.288.655a.053.053 0 0 1-.052.052.052.052 0 0 1-.052-.052.052.052 0 0 1 .104 0Zm-.934-.558a.053.053 0 0 1-.051.052.052.052 0 0 1-.052-.052.052.052 0 0 1 .104 0Zm-.651-.407a.052.052 0 0 1-.052.052.052.052 0 0 1-.052-.052.052.052 0 0 1 .104 0Zm-.164.264a.052.052 0 0 1-.052.052.052.052 0 1 1 .052-.052Zm-.046 1.356a.052.052 0 0 1-.052.052.052.052 0 1 1 .052-.052Zm.528.868a.053.053 0 0 1-.052.052.052.052 0 0 1-.052-.052c0-.028.024-.052.052-.052.028 0 .052.024.052.052Zm-.404.822a.052.052 0 0 1-.052.051.052.052 0 0 1-.052-.052.05.05 0 0 1 .052-.05c.028 0 .052.022.052.05Zm-1.08-1.03a.052.052 0 0 1-.052.051.052.052 0 0 1-.052-.052.052.052 0 0 1 .104 0Zm-.631.914a.052.052 0 0 1-.052.052.052.052 0 0 1 0-.103c.028 0 .052.022.052.05Zm-.95-1.698a.052.052 0 0 1-.052.052.052.052 0 1 1 .052-.052Zm-.348-.426a.053.053 0 0 1-.051.052.052.052 0 0 1-.052-.052.05.05 0 0 1 .052-.051.05.05 0 0 1 .051.051Zm2.289-.256a.053.053 0 0 1-.052.053.052.052 0 0 1-.052-.053.052.052 0 0 1 .104 0Zm-3.416.964a.053.053 0 0 1-.052.052.052.052 0 0 1-.051-.052.051.051 0 1 1 .103 0Zm.356-1.369a.052.052 0 0 1-.052.051.052.052 0 1 1 .052-.052Zm-.057-.654a.053.053 0 0 1-.052.052.052.052 0 1 1 .052-.052Zm-.503.033a.053.053 0 0 1-.051.052.052.052 0 0 1-.052-.052.051.051 0 0 1 .103 0Zm.314-.795a.052.052 0 0 1-.051.052.052.052 0 1 1 .052-.052Zm1.1-.116a.053.053 0 0 1-.051.052.052.052 0 1 1 .052-.052Zm-.59-.606a.053.053 0 0 1-.052.052.052.052 0 0 1 0-.104c.028 0 .052.024.052.052Zm1.385-.59a.053.053 0 0 1-.052.052.052.052 0 1 1 .052-.052Zm.02 1.098a.052.052 0 0 1-.052.052.052.052 0 0 1-.051-.052.052.052 0 1 1 .103 0Zm.718.027a.052.052 0 0 1-.053.052.052.052 0 0 1-.052-.052.052.052 0 0 1 .104 0Zm.709.13a.053.053 0 0 1-.052.052.052.052 0 0 1-.051-.052.052.052 0 1 1 .103 0Zm.207-.249a.053.053 0 0 1-.052.052.052.052 0 0 1-.052-.052.052.052 0 0 1 .104 0Zm-.243-.349a.053.053 0 0 1-.052.052.052.052 0 0 1-.052-.052c0-.028.024-.052.052-.052.028 0 .052.024.052.052Zm-.408-.116a.053.053 0 0 1-.052.052.052.052 0 0 1-.052-.052.052.052 0 0 1 .104 0Zm-.087-.387a.053.053 0 0 1-.052.052.052.052 0 0 1 0-.104c.028 0 .052.023.052.052Zm.603-.193a.053.053 0 0 1-.051.052.052.052 0 0 1-.052-.052.052.052 0 0 1 .103 0Zm.303-.055a.052.052 0 0 1-.052.052.052.052 0 1 1 0-.103c.028 0 .052.023.052.051Zm.51-.165a.052.052 0 0 1-.052.052.052.052 0 1 1 .052-.052Zm.809 1.607a.053.053 0 0 1-.052.052.052.052 0 0 1-.052-.052.052.052 0 0 1 .104 0Z"/>
    <path fill="#fff" d="M13.814 13.06a.053.053 0 0 1-.052.051.052.052 0 0 1 0-.104c.028 0 .052.024.052.052Zm.693-.227a.053.053 0 0 1-.052.052.052.052 0 0 1-.051-.052.052.052 0 0 1 .103 0Zm.373.367a.052.052 0 0 1-.051.053.052.052 0 1 1 .052-.052Zm.562-1.592a.053.053 0 0 1-.052.052.052.052 0 0 1-.052-.052.052.052 0 0 1 .104 0Zm-.592-.605a.052.052 0 0 1-.051.052.052.052 0 0 1-.051-.052.051.051 0 1 1 .103 0Zm-.813.098a.052.052 0 0 1-.052.052.052.052 0 0 1-.052-.052.052.052 0 1 1 .104 0Zm-.717-.028a.052.052 0 0 1-.053.052.052.052 0 1 1 0-.103c.029 0 .053.023.053.051Zm-.228-.236a.052.052 0 0 1-.052.052.052.052 0 0 1-.051-.052c0-.028.023-.052.051-.052.029 0 .052.024.052.052Zm-1.166-.291a.052.052 0 0 1-.052.052.052.052 0 1 1 .052-.052Zm-1.01.304a.052.052 0 0 1-.052.052.052.052 0 1 1 .052-.052Zm-.401.09a.052.052 0 0 1-.052.052.052.052 0 0 1-.052-.052.052.052 0 0 1 .104 0Zm-.694.227a.053.053 0 0 1-.052.052.052.052 0 0 1-.051-.052.051.051 0 1 1 .103 0Zm-.373-.368a.052.052 0 0 1-.052.051.052.052 0 1 1 .052-.052Zm.519-1.229a.052.052 0 0 1-.052.052.052.052 0 0 1-.052-.052.052.052 0 0 1 .104 0Zm1.221-.097a.053.053 0 0 1-.053.052.052.052 0 1 1 .052-.052Zm-.933-.559a.052.052 0 0 1-.052.052.052.052 0 1 1 .052-.052Zm-1.92-.292a.053.053 0 0 1-.052.052.052.052 0 1 1 0-.104c.028 0 .052.023.052.052Zm-.333.495a.052.052 0 0 1-.052.052.052.052 0 1 1 .052-.052Zm3.52-1.726a.053.053 0 0 1-.052.052.052.052 0 0 1-.052-.052.052.052 0 0 1 .104 0Zm.528.868a.052.052 0 0 1-.052.052.052.052 0 1 1 .052-.052Zm.955-.659a.052.052 0 0 1-.052.052.052.052 0 1 1 .052-.052Zm.632-.914a.053.053 0 0 1-.052.052.052.052 0 0 1-.052-.052c0-.028.024-.052.052-.052.028 0 .052.024.052.052Zm-1.711-.116a.052.052 0 0 1-.052.052.052.052 0 0 1-.052-.052.052.052 0 1 1 .104 0Zm1.214 2.51a.053.053 0 0 1-.051.052.052.052 0 1 1 .052-.052Zm1.446-.697a.053.053 0 0 1-.052.052.052.052 0 0 1-.051-.052.052.052 0 1 1 .103 0Zm.348.427a.053.053 0 0 1-.052.052.052.052 0 0 1-.051-.052.051.051 0 1 1 .103 0Zm.772.661a.053.053 0 0 1-.052.052.052.052 0 1 1 0-.103c.028 0 .052.023.052.051Zm.559.621a.053.053 0 0 1-.052.052.052.052 0 0 1-.051-.052.051.051 0 1 1 .103 0Zm-.503.028a.053.053 0 0 1-.052.052.052.052 0 1 1 .052-.052Zm.189.766a.052.052 0 0 1-.052.052.052.052 0 0 1-.051-.052.051.051 0 1 1 .103 0Zm.11-2.784a.053.053 0 0 1-.052.052.052.052 0 0 1-.051-.052.051.051 0 1 1 .103 0Zm.265 6.78a.052.052 0 0 1-.051.052.052.052 0 1 1 .052-.052Zm2.152 4.027a.078.078 0 1 1-.156 0 .078.078 0 0 1 .156 0Zm-1.065-.624a.078.078 0 1 1-.156 0 .078.078 0 0 1 .156 0Zm-2.242 1.137a.077.077 0 1 1-.155 0 .078.078 0 1 1 .155 0Zm2.652-3.628a.078.078 0 1 1-.155 0 .078.078 0 0 1 .155 0Zm-2.534.774a.078.078 0 1 1-.156 0 .078.078 0 0 1 .156 0Zm-.203.69a.078.078 0 1 1-.155 0 .078.078 0 0 1 .155 0Zm-1.33 1.041a.078.078 0 1 1-.156 0 .078.078 0 0 1 .156 0Zm.067-1.525a.078.078 0 0 1-.078.078.078.078 0 1 1 .078-.078Zm-.368-.507a.078.078 0 1 1-.155 0 .078.078 0 0 1 .155 0Zm-.095.626a.078.078 0 1 1-.155 0 .078.078 0 0 1 .156 0Zm1.564-1.548a.078.078 0 1 1-.156 0 .078.078 0 0 1 .155 0Zm-.231-.999a.078.078 0 1 1-.156 0 .078.078 0 0 1 .156 0Zm1.173-.423a.078.078 0 1 1-.155 0 .078.078 0 0 1 .155 0Zm.091-.463a.078.078 0 1 1-.155 0 .078.078 0 0 1 .155 0Zm.93.416a.078.078 0 1 1-.155 0 .078.078 0 0 1 .155 0Zm-2.197-1.381a.078.078 0 1 1-.155 0 .078.078 0 0 1 .155 0Zm-.361-.45a.078.078 0 1 1-.156 0 .078.078 0 0 1 .156 0Zm.268-.411a.078.078 0 1 1-.156 0 .078.078 0 0 1 .156 0Zm.473.81a.078.078 0 1 1-.156 0 .078.078 0 0 1 .156 0Zm-1.209 1.224a.078.078 0 1 1-.155 0 .078.078 0 0 1 .155 0Zm.046.491a.078.078 0 1 1-.155 0 .078.078 0 0 1 .155 0Zm-.815-.058a.078.078 0 1 1-.156 0 .078.078 0 0 1 .156 0Zm-.292.209a.078.078 0 1 1-.155 0 .078.078 0 0 1 .155 0Zm.224.49a.078.078 0 1 1-.156 0 .078.078 0 0 1 .156 0Zm-.201.336a.078.078 0 1 1-.155 0 .078.078 0 0 1 .155 0Zm-.582-.216a.078.078 0 1 1-.155 0 .078.078 0 0 1 .155 0Zm-.737-.195a.078.078 0 1 1-.156 0 .078.078 0 0 1 .156 0Zm-.128-.572a.078.078 0 1 1-.156 0 .078.078 0 0 1 .155 0Zm.533-.444a.078.078 0 1 1-.156 0 .078.078 0 0 1 .156 0Zm.332-.978a.078.078 0 1 1-.155 0 .078.078 0 0 1 .155 0Zm.365.193a.078.078 0 1 1-.156 0 .078.078 0 0 1 .156 0Zm.592-.802a.078.078 0 1 1-.156 0 .078.078 0 0 1 .156 0Zm-.662-.226a.078.078 0 1 1-.156 0 .078.078 0 0 1 .156 0Zm1.04-.992a.078.078 0 1 1-.155 0 .078.078 0 0 1 .155 0Zm.759-.114a.078.078 0 1 1-.155 0 .078.078 0 0 1 .155 0Zm.942.65a.078.078 0 1 1-.156 0 .078.078 0 0 1 .156 0Zm-.544-1.322a.078.078 0 1 1-.155 0 .078.078 0 0 1 .155 0Zm-.106-.418a.078.078 0 1 1-.156 0 .078.078 0 0 1 .156 0Zm-.298.172a.078.078 0 1 1-.156 0 .078.078 0 0 1 .156 0Zm-.597.5a.078.078 0 1 1-.156 0 .078.078 0 0 1 .156 0Zm-.8-.598a.078.078 0 1 1-.155 0 .078.078 0 0 1 .155 0Zm-.614.784a.078.078 0 1 1-.156 0 .078.078 0 0 1 .156 0Zm-.738-.868a.078.078 0 1 1-.155 0 .078.078 0 0 1 .155 0Zm-.292.209a.078.078 0 1 1-.155 0 .078.078 0 0 1 .155 0Zm.068-.699a.078.078 0 0 1-.155 0 .078.078 0 0 1 .155 0Zm.201-.336a.078.078 0 1 1-.156 0 .078.078 0 0 1 .156 0Zm.582.216a.078.078 0 1 1-.156 0 .078.078 0 0 1 .156 0Zm.737.195a.078.078 0 1 1-.155 0 .078.078 0 0 1 .155 0Zm.218-.955a.078.078 0 1 1-.156 0 .078.078 0 0 1 .156 0Zm1.45.458a.078.078 0 1 1-.156 0 .078.078 0 0 1 .156 0Zm.747.234a.078.078 0 1 1-.155 0 .078.078 0 0 1 .155 0Zm.815.702a.078.078 0 1 1-.155 0 .078.078 0 0 1 .155 0Zm.131-.519a.078.078 0 1 1-.155 0 .078.078 0 1 1 .155 0Zm.146-.556a.078.078 0 1 1-.155 0 .078.078 0 0 1 .155 0Zm.527-.153a.078.078 0 1 1-.155 0 .078.078 0 0 1 .155 0Zm.513.421a.078.078 0 1 1-.155 0 .078.078 0 0 1 .155 0Zm-.125.718a.078.078 0 0 1-.156 0 .078.078 0 0 1 .156 0Zm.31-2.193a.078.078 0 1 1-.156 0 .078.078 0 0 1 .156 0Zm1.367-1.29a.078.078 0 1 1-.156 0 .078.078 0 0 1 .156 0Zm-2.509.606a.078.078 0 1 1-.156 0 .078.078 0 0 1 .156 0Zm-.564.434a.078.078 0 1 1-.156 0 .078.078 0 0 1 .155 0Zm-.233-1.084a.078.078 0 1 1-.156 0 .078.078 0 0 1 .156 0Zm.971-1.325a.078.078 0 1 1-.156 0 .078.078 0 0 1 .155 0Zm-1.728-.119a.078.078 0 1 1-.155 0 .078.078 0 0 1 .155 0Zm-1.038 1.397a.078.078 0 1 1-.156 0 .078.078 0 0 1 .156 0Zm.578 1.136a.078.078 0 1 1-.155 0 .078.078 0 0 1 .155 0Zm-.426.218a.078.078 0 1 1-.156 0 .078.078 0 0 1 .156 0Zm-1.199-.335a.078.078 0 1 1-.156 0 .078.078 0 0 1 .156 0Zm-1.807.037a.078.078 0 1 1-.156 0 .078.078 0 0 1 .156 0Zm-.395-1.406a.078.078 0 1 1-.156 0 .078.078 0 0 1 .156 0Zm-.068 1.525a.078.078 0 1 1-.155 0 .078.078 0 0 1 .155 0Zm.368.507a.078.078 0 1 1-.155 0 .078.078 0 0 1 .155 0Zm-1.63-.991a.078.078 0 1 1-.156 0 .078.078 0 0 1 .156 0Zm-.204.69a.078.078 0 1 1-.155 0 .078.078 0 0 1 .155 0Zm.118-2.854a.078.078 0 1 1-.156 0 .078.078 0 0 1 .156 0Zm-3.09.508a.078.078 0 1 1-.156 0 .078.078 0 0 1 .156 0Zm.849.63a.078.078 0 1 1-.155 0 .078.078 0 0 1 .155 0Zm-.411 2.49a.078.078 0 1 1-.156 0 .078.078 0 0 1 .156 0Zm2.9.449a.078.078 0 1 1-.156 0 .078.078 0 0 1 .156 0Zm.231.998a.078.078 0 1 1-.156 0 .078.078 0 0 1 .156 0Zm.785.187a.078.078 0 1 1-.155.001.078.078 0 0 1 .155 0Zm.047.492a.078.078 0 1 1-.156 0 .078.078 0 0 1 .155 0Zm-2.005-.255a.078.078 0 1 1-.156 0 .078.078 0 0 1 .156 0Zm-1.021.047a.078.078 0 1 1-.156 0 .078.078 0 0 1 .156 0Zm.929.416a.078.078 0 1 1-.155 0 .078.078 0 0 1 .155 0Zm1.267.965a.078.078 0 1 1-.156 0 .078.078 0 0 1 .156 0Zm-.38.051a.078.078 0 1 1-.155 0 .078.078 0 0 1 .156 0Zm.474.809a.078.078 0 1 1-.156 0 .078.078 0 0 1 .156 0Zm-.68.195a.078.078 0 1 1-.156 0 .078.078 0 0 1 .156 0Zm.941.65a.078.078 0 1 1-.155 0 .078.078 0 0 1 .155 0Zm.759-.114a.078.078 0 1 1-.156 0 .078.078 0 0 1 .156 0Zm-.156.532a.078.078 0 1 1-.156 0 .078.078 0 0 1 .156 0Zm-.597.5a.078.078 0 1 1-.155 0 .078.078 0 0 1 .155 0Zm-.404-.247a.078.078 0 1 1-.156 0 .078.078 0 0 1 .156 0Zm.107.419a.078.078 0 1 1-.155 0 .078.078 0 0 1 .155 0Zm-1.479-.015a.078.078 0 1 1-.156 0 .078.078 0 0 1 .156 0Zm-1.193.09a.078.078 0 1 1-.155 0 .078.078 0 0 1 .155 0Zm-.125.718a.078.078 0 1 1-.156 0 .078.078 0 0 1 .156 0Zm1.04.267a.078.078 0 1 1-.156 0 .078.078 0 0 1 .156 0Zm.146-.555a.078.078 0 1 1-.156 0 .078.078 0 0 1 .156 0Zm.947.183a.078.078 0 1 1-.156 0 .078.078 0 0 1 .155 0Zm.747.235a.078.078 0 1 1-.156 0 .078.078 0 0 1 .156 0Zm-2.367.29a.078.078 0 1 1-.155 0 .078.078 0 0 1 .155 0Zm-.698 1.054a.078.078 0 1 1-.155 0 .078.078 0 0 1 .155 0Zm-1.367 1.29a.078.078 0 1 1-.155 0 .078.078 0 0 1 .155 0Zm2.51-.605a.078.078 0 1 1-.156 0 .078.078 0 0 1 .156 0Zm.565-.434a.078.078 0 1 1-.156 0 .078.078 0 0 1 .155 0Zm1.448-.004a.078.078 0 1 1-.156 0 .078.078 0 0 1 .156 0Zm.427-.219a.078.078 0 1 1-.156 0 .078.078 0 0 1 .156 0Zm.932-.915a.078.078 0 1 1-.155 0 .078.078 0 0 1 .155 0Zm.266 1.25a.078.078 0 1 1-.155-.001.078.078 0 0 1 .155 0Zm-1.047 1.018a.078.078 0 1 1-.156 0 .078.078 0 0 1 .156 0Zm-1.795-.045a.078.078 0 1 1-.155 0 .078.078 0 0 1 .155 0Zm-.971 1.323a.078.078 0 1 1-.155 0 .078.078 0 0 1 .156 0Zm1.728.12a.078.078 0 1 1-.155 0 .078.078 0 0 1 .155 0Z"/>
  </g>
  <defs>
    <clipPath id="Xaxis_svg__a">
      <path fill="#fff" d="M0 0h24v24H0z"/>
    </clipPath>
  </defs>
</svg>
