<svg width="128" height="97" viewBox="0 0 128 97" fill="none" xmlns="http://www.w3.org/2000/svg">
<path opacity="0.2" d="M105.629 38.8665L107.171 38.4665C107.457 38.4094 107.743 38.1236 107.8 37.8379L108.2 36.2951C108.314 35.8951 108.657 35.6665 109 35.6665C109.4 35.6665 109.743 35.9522 109.8 36.2951L110.2 37.8379C110.257 38.1236 110.543 38.4094 110.829 38.4665L112.371 38.8665C112.771 38.9808 113 39.3236 113 39.6665C113 40.0665 112.714 40.4094 112.371 40.4665L110.829 40.8665C110.543 40.9236 110.257 41.2094 110.2 41.4951L109.8 43.0379C109.686 43.4379 109.343 43.6665 109 43.6665C108.6 43.6665 108.257 43.3808 108.2 43.0379L107.8 41.4951C107.743 41.2094 107.457 40.9236 107.171 40.8665L105.629 40.4665C105.229 40.3522 105 40.0094 105 39.6665C105 39.2665 105.286 38.9236 105.629 38.8665Z" fill="#888888"/>
<path opacity="0.2" d="M15.9428 32.4665L18.2571 31.8665C18.6857 31.7808 19.1143 31.3522 19.2 30.9236L19.8 28.6094C19.9714 28.0094 20.4857 27.6665 21 27.6665C21.6 27.6665 22.1143 28.0951 22.2 28.6094L22.8 30.9236C22.8857 31.3522 23.3143 31.7808 23.7429 31.8665L26.0572 32.4665C26.6572 32.6379 27 33.1522 27 33.6665C27 34.2665 26.5714 34.7808 26.0572 34.8665L23.7429 35.4665C23.3143 35.5522 22.8857 35.9808 22.8 36.4094L22.2 38.7236C22.0286 39.3236 21.5143 39.6665 21 39.6665C20.4 39.6665 19.8857 39.2379 19.8 38.7236L19.2 36.4094C19.1143 35.9808 18.6857 35.5522 18.2571 35.4665L15.9428 34.8665C15.3428 34.6951 15 34.1808 15 33.6665C15 33.0665 15.4286 32.5522 15.9428 32.4665Z" fill="#888888"/>
<path opacity="0.2" d="M0.628558 53.8665L2.17142 53.4665C2.45714 53.4094 2.74287 53.1236 2.80001 52.8379L3.19999 51.2951C3.31427 50.8951 3.65714 50.6665 4 50.6665C4.4 50.6665 4.74287 50.9522 4.80001 51.2951L5.19999 52.8379C5.25713 53.1236 5.54286 53.4094 5.82858 53.4665L7.37144 53.8665C7.77144 53.9808 8 54.3236 8 54.6665C8 55.0665 7.7143 55.4094 7.37144 55.4665L5.82858 55.8665C5.54286 55.9236 5.25713 56.2094 5.19999 56.4951L4.80001 58.0379C4.68573 58.4379 4.34286 58.6665 4 58.6665C3.6 58.6665 3.25713 58.3808 3.19999 58.0379L2.80001 56.4951C2.74287 56.2094 2.45714 55.9236 2.17142 55.8665L0.628558 55.4665C0.228558 55.3522 4.76837e-07 55.0094 4.76837e-07 54.6665C4.76837e-07 54.2665 0.285701 53.9236 0.628558 53.8665Z" fill="#888888"/>
<path opacity="0.2" d="M126.5 52.6665C125.675 52.6665 125 51.9915 125 51.1665C125 50.3415 125.675 49.6665 126.5 49.6665C127.325 49.6665 128 50.3415 128 51.1665C128 51.9915 127.325 52.6665 126.5 52.6665Z" fill="#888888"/>
<path opacity="0.2" d="M23 70.6665C21.9 70.6665 21 69.7665 21 68.6665C21 67.5665 21.9 66.6665 23 66.6665C24.1 66.6665 25 67.5665 25 68.6665C25 69.7665 24.1 70.6665 23 70.6665Z" fill="#888888"/>
<path d="M79.6082 56.7804C74.4095 65.6597 63.2694 68.9187 54.1814 64.4303C53.4778 64.079 53.2433 63.1813 53.6342 62.4983L56.214 58.1074C56.8394 57.0536 55.8622 55.7657 54.67 56.0779L37.8817 60.4688C37.139 60.6639 36.7091 61.425 36.9045 62.147L41.2823 78.9689C41.595 80.1593 43.1781 80.3739 43.8035 79.3201L46.3247 75.0073C46.696 74.3633 47.5169 74.1487 48.1814 74.4999C62.859 82.3059 81.2108 77.193 89.7125 62.6934C93.1718 56.7999 94.4617 50.2429 93.8558 43.9201C93.7386 42.7492 92.6246 41.9491 91.491 42.2418L85.0219 43.9396C83.3998 44.369 82.3249 45.813 82.2858 47.4913C82.1881 50.6527 81.3476 53.8337 79.6278 56.7609L79.6082 56.7804Z" fill="#DE5833"/>
<path d="M47.3124 37.4324C52.1212 29.2361 62.4257 26.2278 70.8321 30.371C71.4829 30.6952 71.6999 31.5239 71.3383 32.1544L68.952 36.2075C68.3735 37.1802 69.2774 38.3691 70.3802 38.0809L85.9094 34.0278C86.5964 33.8476 86.9941 33.1451 86.8133 32.4786L82.7638 16.9508C82.4745 15.8519 81.0102 15.6538 80.4317 16.6265L78.0996 20.6075C77.7561 21.202 76.9968 21.4002 76.3822 21.0759C62.8054 13.8704 45.8299 18.59 37.9659 31.9742C34.766 37.4144 33.5729 43.467 34.1333 49.3035C34.2418 50.3843 35.2722 51.1228 36.3208 50.8526L42.3047 49.2854C43.8052 48.8891 44.7994 47.5561 44.8356 46.0069C44.926 43.0887 45.7034 40.1525 47.2943 37.4504L47.3124 37.4324Z" fill="#3969EF"/>
</svg>
