<svg width="24" height="24" viewBox="0 0 24 24" fill="none" xmlns="http://www.w3.org/2000/svg">
<path d="M12,24c6.627,0 12,-5.373 12,-12c0,-6.627 -5.373,-12 -12,-12c-6.627,0 -12,5.373 -12,12c0,6.627 5.373,12 12,12Z" style="fill:#333;"/>
<path d="M5.172,10.477l0,0.206l-2.202,0.264c-0.191,0.023 -0.336,0.185 -0.336,0.378l0,0.993l-0.492,0.059c-0.075,0.01 -0.142,-0.049 -0.142,-0.125l0,-2.125c0,-0.076 0.067,-0.136 0.142,-0.126l2.919,0.35c0.063,0.007 0.111,0.062 0.111,0.126Zm0.747,0.372c0.075,-0.009 0.142,0.05 0.142,0.126l-0,2.125c-0,0.076 -0.067,0.135 -0.142,0.126l-2.919,-0.351c-0.064,-0.007 -0.112,-0.061 -0.112,-0.126l0,-1.424c0,-0.064 0.048,-0.118 0.112,-0.126l2.919,-0.35Zm7.882,0.709c-0.037,-0.544 -0.536,-0.8 -0.996,-0.511l-0.014,0.01c-0.108,0.068 -0.173,0.109 -0.299,-0.002c-0.167,-0.148 -0.385,-0.163 -0.596,-0.072l-0.009,0.004c-0.094,0.041 -0.164,0.072 -0.285,0.004c-0.133,-0.075 -0.289,-0.035 -0.268,0.197c0.011,0.123 0.008,0.247 0.006,0.371c-0.002,0.056 -0.003,0.112 -0.003,0.167l0.001,0.172c-0,0.143 0,0.286 -0.001,0.429c-0.001,0.113 0,0.205 0.159,0.209c0.171,0.004 0.185,-0.087 0.184,-0.218l-0.001,-0.06c-0.003,-0.223 -0.005,-0.446 0.01,-0.668c0.015,-0.218 0.141,-0.351 0.371,-0.346c0.238,0.005 0.33,0.151 0.329,0.374c-0,0.085 0,0.17 0.001,0.256c0.001,0.157 0.002,0.314 -0.002,0.472c-0.004,0.128 0.03,0.19 0.174,0.19c0.143,-0 0.182,-0.06 0.179,-0.19c-0.005,-0.232 -0.006,-0.464 0.004,-0.696c0.01,-0.237 0.107,-0.417 0.379,-0.405c0.254,0.01 0.335,0.183 0.335,0.41c0,0.065 0.001,0.13 0.001,0.195l-0.002,0.501c-0.005,0.133 0.033,0.188 0.176,0.186c0.141,-0.002 0.183,-0.056 0.179,-0.188c-0.004,-0.109 -0.003,-0.218 -0.003,-0.327l0,-0c0.001,-0.155 0.002,-0.31 -0.009,-0.464Zm-5.646,0.561c0.196,0.174 0.455,0.176 0.644,-0.044c0.129,-0.15 0.247,-0.123 0.341,-0.03c0.093,0.091 0.016,0.165 -0.052,0.23c-0.016,0.016 -0.032,0.031 -0.045,0.046c-0.146,0.169 -0.344,0.235 -0.466,0.238c-0.489,0.007 -0.789,-0.214 -0.898,-0.588c-0.102,-0.348 0.038,-0.72 0.34,-0.908c0.319,-0.198 0.739,-0.169 0.995,0.088c0.014,0.013 0.03,0.027 0.047,0.041c0.077,0.065 0.17,0.144 0.065,0.253c-0.096,0.099 -0.21,0.112 -0.338,-0.034c-0.194,-0.222 -0.477,-0.202 -0.667,0c-0.188,0.199 -0.173,0.525 0.034,0.708Zm8.623,-0.042c-0.192,0.226 -0.471,0.216 -0.668,0.02c-0.189,-0.188 -0.194,-0.491 -0.01,-0.685c0.195,-0.206 0.459,-0.224 0.668,0.001c0.131,0.143 0.245,0.13 0.341,0.024c0.092,-0.1 0.005,-0.178 -0.066,-0.243c-0.014,-0.012 -0.027,-0.024 -0.038,-0.035c-0.252,-0.256 -0.682,-0.294 -0.996,-0.102c-0.306,0.186 -0.451,0.557 -0.356,0.907c0.098,0.364 0.414,0.599 0.8,0.597c0.222,-0.001 0.42,-0.071 0.567,-0.237c0.013,-0.015 0.029,-0.03 0.046,-0.045c0.069,-0.064 0.148,-0.138 0.054,-0.233c-0.098,-0.099 -0.214,-0.12 -0.342,0.031Zm-1.92,-0.493c0.021,0.005 0.043,0.01 0.063,0.015c0.376,0.103 0.508,0.252 0.464,0.524c-0.041,0.26 -0.286,0.434 -0.64,0.437c-0.155,-0.009 -0.335,-0.035 -0.477,-0.157c-0.014,-0.013 -0.032,-0.025 -0.051,-0.037c-0.072,-0.049 -0.154,-0.104 -0.071,-0.199c0.068,-0.078 0.191,-0.185 0.323,-0.041c0.099,0.107 0.232,0.145 0.376,0.121c0.098,-0.015 0.19,-0.057 0.199,-0.17c0.009,-0.108 -0.083,-0.134 -0.163,-0.157l-0.003,-0.001c-0.055,-0.016 -0.111,-0.03 -0.167,-0.043c-0.088,-0.021 -0.175,-0.043 -0.26,-0.073c-0.168,-0.059 -0.289,-0.167 -0.299,-0.366c-0.009,-0.205 0.089,-0.35 0.262,-0.432c0.278,-0.132 0.556,-0.107 0.809,0.067c0.009,0.006 0.021,0.013 0.033,0.02c0.06,0.033 0.14,0.078 0.064,0.163c-0.061,0.068 -0.148,0.161 -0.271,0.083c-0.013,-0.009 -0.026,-0.018 -0.04,-0.027c-0.039,-0.028 -0.078,-0.055 -0.122,-0.066c-0.146,-0.037 -0.329,-0.066 -0.375,0.113c-0.035,0.134 0.077,0.16 0.181,0.184c0.026,0.006 0.052,0.012 0.075,0.019c0.029,0.01 0.06,0.017 0.09,0.023Zm5.146,-0.612c-0.068,-0 -0.135,0.023 -0.202,0.045c-0.123,0.043 -0.241,0.083 -0.344,-0.037c-0.169,-0.027 -0.222,0.023 -0.219,0.165c0.007,0.399 0.005,0.798 0.001,1.198c-0.002,0.123 0.02,0.196 0.169,0.194c0.134,-0.002 0.191,-0.045 0.186,-0.183c-0.005,-0.155 -0.003,-0.31 -0.001,-0.465l0.001,-0.134c0.003,-0.278 0.095,-0.477 0.421,-0.455c0.129,0.009 0.19,-0.03 0.193,-0.173c0.003,-0.155 -0.083,-0.155 -0.182,-0.155l-0.023,0Zm-2.614,0.785c-0.002,-0.471 0.35,-0.83 0.809,-0.824c0.446,0.006 0.791,0.357 0.795,0.808c0.005,0.467 -0.348,0.823 -0.811,0.819c-0.453,-0.004 -0.79,-0.346 -0.793,-0.803Zm0.331,-0.034c-0.015,0.261 0.201,0.508 0.451,0.518c0.252,0.011 0.482,-0.216 0.49,-0.481c0.007,-0.255 -0.221,-0.502 -0.469,-0.506c-0.231,-0.003 -0.458,0.222 -0.472,0.469Zm-7.439,0.52c-0.249,0.006 -0.48,-0.231 -0.48,-0.492c-0.001,-0.245 0.212,-0.48 0.447,-0.495c0.245,-0.016 0.483,0.215 0.492,0.477c0.01,0.266 -0.205,0.503 -0.459,0.51Zm-0.003,-1.311c-0.456,-0.005 -0.816,0.36 -0.812,0.826c0.004,0.465 0.365,0.813 0.83,0.802c0.447,-0.011 0.783,-0.364 0.78,-0.82c-0.003,-0.446 -0.356,-0.802 -0.798,-0.808Zm11.343,0.618c-0.083,-0.229 -0.238,-0.308 -0.439,-0.307c-0.203,0.001 -0.342,0.102 -0.436,0.307l0.875,0Zm0.323,-0.103c0.119,0.337 0.056,0.429 -0.294,0.429c-0.215,0 -0.43,0 -0.649,0c-0.089,0 -0.178,0 -0.269,0c0.166,0.405 0.508,0.505 0.805,0.235c0.126,-0.115 0.22,-0.123 0.316,-0.02c0.102,0.11 0.014,0.18 -0.06,0.238c-0.015,0.012 -0.03,0.024 -0.042,0.036c-0.254,0.235 -0.7,0.263 -1.007,0.075c-0.297,-0.181 -0.44,-0.564 -0.341,-0.914c0.096,-0.335 0.392,-0.57 0.744,-0.592c0.35,-0.021 0.685,0.194 0.797,0.513Z" style="fill:#fff;"/>
</svg>
