<svg width="24" height="24" fill="none" xmlns="http://www.w3.org/2000/svg">
  <g clip-path="url(#Bugsnag_svg__a)">
    <path fill="#4949E4" d="M24 12c0 6.627-5.373 12-12 12S0 18.627 0 12 5.373 0 12 0s12 5.373 12 12Z"/>
    <path fill="#fff" fill-opacity=".12" fill-rule="evenodd" d="M24 12c0 6.627-5.373 12-12 12S0 18.627 0 12 5.373 0 12 0s12 5.373 12 12ZM12 23.5c6.351 0 11.5-5.149 11.5-11.5S18.351.5 12 .5.5 5.649.5 12 5.649 23.5 12 23.5Z" clip-rule="evenodd"/>
    <path fill="#fff" d="M12.949 8.593c-1.521-.168-3.047.27-4.208 1.212V4.24A.244.244 0 0 0 8.488 4a.314.314 0 0 0-.132.034l-1.435.827a.236.236 0 0 0-.121.207v8.604c0 2.813 2.301 5.203 5.262 5.323 3.036.12 5.601-2.116 5.733-4.997.121-2.726-1.992-5.078-4.846-5.405Zm-.644 8.57c-1.967 0-3.564-1.515-3.564-3.38 0-1.867 1.597-3.382 3.564-3.382s3.563 1.515 3.563 3.381c-.005 1.866-1.596 3.376-3.563 3.381Z"/>
  </g>
  <defs>
    <clipPath id="Bugsnag_svg__a">
      <path fill="#fff" d="M0 0h24v24H0z"/>
    </clipPath>
  </defs>
</svg>
