<svg width="24" height="24" viewBox="0 0 24 24" fill="none" xmlns="http://www.w3.org/2000/svg">
<circle cx="12" cy="12" r="11" fill="white"/>
<path fill-rule="evenodd" clip-rule="evenodd" d="M24 12C24 18.6274 18.6274 24 12 24C5.37258 24 0 18.6274 0 12C0 5.37258 5.37258 0 12 0C18.6274 0 24 5.37258 24 12ZM7.9639 9.00001C7.73243 9.00173 7.54614 9.19073 7.54783 9.4222C7.54955 9.6537 7.73858 9.83995 7.97009 9.83823C8.20035 9.83693 8.38629 9.64975 8.38608 9.41945V9.41605C8.38437 9.18455 8.19533 8.99829 7.9639 9.00001ZM9.72428 13.4608C9.72428 13.8693 9.86868 13.9511 10.1025 13.9511C10.1953 13.9533 10.2882 13.9473 10.38 13.9332L10.4336 13.9247V14.4249L10.3992 14.4335C10.3038 14.4566 10.2058 14.4672 10.1076 14.4652C9.94089 14.4652 9.69505 14.448 9.5001 14.2991C9.28761 14.1382 9.17965 13.8559 9.17965 13.4608V10.4272H9.72428V11.1785H10.4326V11.6922H9.72428V13.4608ZM12.3494 11.5863C11.843 11.5863 11.4066 11.9641 11.3523 12.4386H13.2272C13.2039 11.9645 12.8191 11.5863 12.3494 11.5863ZM10.7713 12.7893C10.7713 11.7767 11.418 11.0702 12.3463 11.0702C12.7672 11.0702 13.1285 11.2328 13.3912 11.5423C13.6395 11.8342 13.777 12.2385 13.777 12.6807C13.777 12.6852 13.777 12.7852 13.7712 12.8756L13.7681 12.919H11.3183C11.3592 13.5478 11.7542 13.9364 12.3584 13.9364C12.7885 13.9364 13.0151 13.785 13.2613 13.5238L13.2957 13.4894L13.6436 13.848L13.6151 13.88C13.2829 14.2533 12.8958 14.4201 12.3594 14.4201C11.4101 14.4201 10.7723 13.7744 10.7713 12.8134V12.7893ZM6.04084 11.5791C6.23373 11.304 6.55658 11.1458 6.93479 11.1458C6.99978 11.1459 7.06462 11.1502 7.12902 11.1585L7.16894 11.164V11.7448L7.11118 11.7303C7.01542 11.7096 6.91757 11.6999 6.81958 11.7015C6.36235 11.7015 6.04256 12.0384 6.04256 12.5211L6.04084 14.4256H5.49621V11.1809H6.04084V11.5791ZM7.69739 14.4259H8.24205V11.1809H7.69739V14.4259ZM16.5881 13.6156C16.1573 14.0571 15.45 14.0659 15.0085 13.635C15.0019 13.6286 14.9954 13.6221 14.989 13.6156C14.7848 13.3983 14.672 13.0977 14.672 12.7694C14.672 12.441 14.7848 12.1402 14.989 11.9229C15.1965 11.7038 15.486 11.5812 15.7877 11.5846C16.09 11.5808 16.3802 11.7035 16.5881 11.9229C16.7924 12.1402 16.9052 12.441 16.9052 12.7694C16.9052 13.0977 16.7924 13.3983 16.5881 13.6156ZM14.6149 11.5502C14.2963 11.8744 14.1205 12.3125 14.1267 12.7669C14.1202 13.2223 14.2963 13.6613 14.6156 13.9859C14.9266 14.2957 15.3487 14.4683 15.7877 14.4652C16.2274 14.4681 16.65 14.2947 16.9609 13.9838C17.2795 13.6596 17.4555 13.2215 17.4494 12.7669C17.4555 12.3124 17.2795 11.8743 16.9609 11.5502C16.31 10.9098 15.2658 10.9098 14.6149 11.5502ZM4.52458 11.9366C4.30381 11.7063 4.01052 11.5845 3.67288 11.5845C3.36835 11.5806 3.07579 11.7031 2.86488 11.9229C2.65858 12.1402 2.54477 12.4407 2.54477 12.769C2.54477 13.0974 2.65858 13.3976 2.86488 13.6149C3.07609 13.834 3.36859 13.9559 3.67288 13.9515C4.01052 13.9515 4.30449 13.8298 4.52317 13.5997L4.55755 13.5619L4.89072 13.9566L4.8615 13.9869C4.55896 14.2998 4.14774 14.4651 3.67288 14.4651C3.23047 14.4685 2.80502 14.2953 2.49079 13.9838C2.17117 13.6605 1.99451 13.2226 2.00015 12.768C1.99413 12.3131 2.17086 11.8747 2.49079 11.5512C2.80505 11.2398 3.23051 11.0666 3.67288 11.0698C4.14736 11.0698 4.55896 11.2352 4.86287 11.5484L4.8921 11.5787L4.55896 11.9741L4.52458 11.9366ZM21.5778 13.6269C21.8093 13.6252 21.9983 13.8115 22 14.043L22 14.0457C22.0006 14.2762 21.8145 14.4638 21.584 14.4651C21.3525 14.4669 21.1635 14.2806 21.1618 14.0491C21.1601 13.8176 21.3463 13.6286 21.5778 13.6269ZM18.7739 13.3298V10.0713C18.7737 9.60298 18.394 9.22328 17.9256 9.22315H9.16178V9.60136H17.8785C18.1647 9.60136 18.3967 9.83334 18.3967 10.1195V13.3779C18.3967 13.8465 18.7764 14.2263 19.2449 14.2265H20.3992V13.8483H19.292C19.0058 13.8481 18.7739 13.6161 18.7739 13.3298Z" fill="#333333"/>
</svg>
