<svg width="24" height="24" fill="none" xmlns="http://www.w3.org/2000/svg">
  <g clip-path="url(#Linkedin_svg__a)">
    <path fill="#0A66C2" d="M24 12c0 6.627-5.373 12-12 12S0 18.627 0 12 5.373 0 12 0s12 5.373 12 12Z"/>
    <path fill="#fff" fill-opacity=".12" fill-rule="evenodd" d="M24 12c0 6.627-5.373 12-12 12S0 18.627 0 12 5.373 0 12 0s12 5.373 12 12ZM12 23.5c6.351 0 11.5-5.149 11.5-11.5S18.351.5 12 .5.5 5.649.5 12 5.649 23.5 12 23.5Z" clip-rule="evenodd"/>
    <path fill="#fff" d="M18.335 17.839h-2.666v-4.177c0-.996-.02-2.278-1.389-2.278-1.39 0-1.602 1.084-1.602 2.205v4.25h-2.665V9.25h2.56v1.17h.035c.358-.674 1.228-1.387 2.527-1.387 2.701 0 3.2 1.778 3.2 4.091v4.715ZM7.002 8.075a1.546 1.546 0 0 1-1.547-1.549 1.548 1.548 0 1 1 1.547 1.549Zm1.337 9.764H5.666V9.25h2.673v8.589Z"/>
  </g>
  <defs>
    <clipPath id="Linkedin_svg__a">
      <path fill="#fff" d="M0 0h24v24H0z"/>
    </clipPath>
  </defs>
</svg>
