<svg width="24" height="24" viewBox="0 0 24 24" fill="none" xmlns="http://www.w3.org/2000/svg">
<g id="Device-Double-24">
<g id="Union">
<path d="M13.1582 2.84238C13.637 3.32128 13.1728 4 12.4956 4H4.875C4.39175 4 4 4.39175 4 4.875V16.125C4 16.6082 4.39175 17 4.875 17H8C8.55228 17 9 17.4477 9 18C9 18.5523 8.55228 19 8 19H4.875C3.28718 19 2 17.7128 2 16.125V4.875C2 3.28718 3.28718 2 4.875 2H11.125C11.9191 2 12.6379 2.32192 13.1582 2.84238Z" fill="black" fill-opacity="0.84"/>
<path d="M7.5 5C7.22386 5 7 5.22386 7 5.5C7 5.77614 7.22386 6 7.5 6H8.5C8.77614 6 9 5.77614 9 5.5C9 5.22386 8.77614 5 8.5 5H7.5Z" fill="black" fill-opacity="0.84"/>
<path d="M15 8.5C15 8.22386 15.2239 8 15.5 8H16.5C16.7761 8 17 8.22386 17 8.5C17 8.77614 16.7761 9 16.5 9H15.5C15.2239 9 15 8.77614 15 8.5Z" fill="black" fill-opacity="0.84"/>
<path fill-rule="evenodd" clip-rule="evenodd" d="M12.875 5C11.2872 5 10 6.28718 10 7.875V19.125C10 20.7128 11.2872 22 12.875 22H19.125C20.7128 22 22 20.7128 22 19.125V7.875C22 6.28718 20.7128 5 19.125 5H12.875ZM12 7.875C12 7.39175 12.3918 7 12.875 7H19.125C19.6082 7 20 7.39175 20 7.875V19.125C20 19.6082 19.6082 20 19.125 20H12.875C12.3918 20 12 19.6082 12 19.125V7.875Z" fill="black" fill-opacity="0.84"/>
</g>
</g>
</svg>
