<svg width="24" height="24" fill="none" xmlns="http://www.w3.org/2000/svg">
  <path fill="#133044" d="M24 12c0 6.627-5.373 12-12 12S0 18.627 0 12 5.373 0 12 0s12 5.373 12 12Z"/>
  <path fill="#fff" fill-opacity=".12" fill-rule="evenodd" d="M24 12c0 6.627-5.373 12-12 12S0 18.627 0 12 5.373 0 12 0s12 5.373 12 12ZM12 23.5c6.351 0 11.5-5.149 11.5-11.5S18.351.5 12 .5.5 5.649.5 12 5.649 23.5 12 23.5Z" clip-rule="evenodd"/>
  <path fill="#fff" d="M8.604 16.17c.27.245.608.4.902.602-.292-.207-.635-.355-.902-.603ZM6.775 5.852c2.156-1.821 5.135-2.344 7.828-1.371-.52 1.379-1.237 2.243-1.919 2.145a5.354 5.354 0 0 0-4.227 1.202c-2.27 1.919-2.522 5.342-.565 7.645.219.256.464.466.706.687 1.611 1.327 3.854 1.66 5.768.769.139-.066.253-.156.387-.227.275-.158.548-.318.799-.531 2.27-1.919 2.52-5.342.564-7.645a6.296 6.296 0 0 0-.393-.418c-.507-.48-.289-1.589.45-2.861a8.22 8.22 0 0 1 2.377 2.275c2.09 3.01 1.894 7.01-.417 9.72-.003 0-.003.003-.006.003 0 0 .003 0 .003-.003a8.074 8.074 0 0 1-.905.902c-3.344 2.827-8.395 2.366-11.281-1.027-2.887-3.396-2.516-8.439.83-11.265Z"/>
</svg>
