<svg width="24" height="24" viewBox="0 0 24 24" fill="none" xmlns="http://www.w3.org/2000/svg">
<circle cx="12" cy="12" r="11" fill="#444444"/>
<path fill-rule="evenodd" clip-rule="evenodd" d="M24 12C24 18.6274 18.6274 24 12 24C5.37258 24 0 18.6274 0 12C0 5.37258 5.37258 0 12 0C18.6274 0 24 5.37258 24 12ZM20.9481 10.1124L21.9225 10.1124L21.9344 10.1124C21.9653 10.1123 21.9816 10.1123 21.9903 10.1204C22 10.1296 22 10.1491 22 10.1907V10.191C21.9998 10.3444 21.9998 10.4979 21.9998 10.6514L21.9999 10.8042L21.9999 10.8141C22 10.822 22.0001 10.8299 21.9997 10.8377C21.998 10.8792 21.9942 10.8827 21.9489 10.8839C21.935 10.8842 21.9212 10.8841 21.9074 10.8841L21.8901 10.884H20.9494L20.9325 10.884C20.9157 10.8839 20.8989 10.8838 20.8822 10.8844C20.8526 10.8857 20.8468 10.8909 20.8456 10.918C20.8448 10.935 20.8449 10.952 20.845 10.969L20.8451 10.9852L20.845 11.9512L20.845 11.9696C20.8452 12.0074 20.8453 12.0258 20.8361 12.0348C20.8272 12.0434 20.8099 12.0433 20.7759 12.0431L20.7558 12.043C20.557 12.0431 20.3583 12.0431 20.1594 12.043C20.1398 12.043 20.1203 12.0428 20.1008 12.0419C20.0846 12.041 20.0751 12.0314 20.0743 12.0155C20.0732 11.9932 20.073 11.9708 20.073 11.9484L20.073 11.4613L20.073 11.3365L20.0729 10.9657C20.0729 10.9461 20.0723 10.9265 20.0712 10.907C20.0705 10.894 20.0622 10.8866 20.0498 10.886C20.0247 10.8846 19.9995 10.8841 19.9743 10.8841L19.2689 10.884L19.0336 10.884L19.0155 10.8841C19.002 10.8841 18.9884 10.8842 18.9748 10.8839C18.9201 10.8827 18.9185 10.8821 18.9183 10.8266C18.918 10.6707 18.9181 10.5148 18.9181 10.3588L18.9182 10.1715L18.9182 10.1676C18.9181 10.1605 18.9181 10.1534 18.9187 10.1463C18.9206 10.1206 18.9276 10.114 18.9563 10.1129C18.9728 10.1122 18.9895 10.1123 19.0061 10.1124L19.0234 10.1124L19.297 10.1125H19.2974C19.5253 10.1125 19.7532 10.1125 19.981 10.1124L20.0034 10.1125C20.0392 10.1127 20.0567 10.1128 20.0652 10.1041C20.0734 10.0957 20.0733 10.0792 20.073 10.0468L20.0729 10.024C20.0731 9.75301 20.0731 9.48198 20.073 9.21098L20.073 9.0749L20.0729 9.06518C20.0728 9.00058 20.0728 8.99969 20.1454 8.99976C20.279 8.99993 20.4126 8.99991 20.5463 8.99989L20.7754 8.9999C20.7893 8.9999 20.8034 8.9999 20.8173 9.00109C20.833 9.00228 20.8432 9.01075 20.8437 9.02728C20.8446 9.05242 20.8449 9.07763 20.845 9.10278L20.8451 10.0099C20.8451 10.0351 20.8454 10.0603 20.8463 10.0855C20.8468 10.1019 20.8566 10.1108 20.8726 10.1113C20.8977 10.1122 20.9229 10.1124 20.9481 10.1124ZM4.69846 12.0144C4.57688 11.9443 4.44788 11.8904 4.31565 11.8438C4.09099 11.7649 3.85995 11.7095 3.62779 11.658C3.50215 11.6302 3.37735 11.5989 3.25598 11.5555C3.18728 11.5309 3.12109 11.5011 3.06206 11.4572C3.00148 11.4121 2.96079 11.3541 2.94223 11.2802C2.90238 11.1214 2.95322 10.9844 3.08846 10.8918C3.18076 10.8286 3.28476 10.7957 3.39443 10.7849C3.60222 10.7643 3.80791 10.7792 4.01108 10.8303C4.2113 10.8806 4.39528 10.9669 4.57036 11.0742L4.6488 11.1221C4.67054 11.1066 4.68378 11.0871 4.69669 11.0681L4.70504 11.056C4.75855 10.9809 4.8119 10.9056 4.86525 10.8304L5.0017 10.6381L5.01821 10.6153C5.03873 10.5871 5.04922 10.5727 5.04716 10.5604C5.04502 10.5476 5.02917 10.537 4.99676 10.5154L4.97614 10.5016C4.66372 10.2899 4.31572 10.1748 3.94329 10.1314C3.7287 10.1065 3.51349 10.1003 3.298 10.1277C3.07886 10.1555 2.87101 10.2172 2.68107 10.3315C2.46838 10.4595 2.3085 10.6343 2.21675 10.8676C2.15323 11.0293 2.12816 11.1974 2.14273 11.37C2.16311 11.6126 2.2774 11.805 2.46789 11.954C2.59024 12.0497 2.72723 12.1195 2.87016 12.1779C3.08307 12.2648 3.30423 12.3252 3.52694 12.3804L3.5299 12.3812L3.5299 12.3812C3.70274 12.4238 3.87547 12.4665 4.04259 12.529C4.11347 12.5555 4.18294 12.5848 4.2473 12.6253C4.29023 12.6524 4.32903 12.6842 4.36181 12.723C4.42666 12.8001 4.46468 12.9326 4.37084 13.0561C4.33806 13.0992 4.29737 13.1326 4.2515 13.1605C4.1662 13.2123 4.07194 13.2383 3.9748 13.2532C3.7619 13.2862 3.5504 13.2713 3.34044 13.2285C3.05946 13.1712 2.80384 13.0548 2.56748 12.8942L2.55091 12.8829L2.55085 12.8829C2.53556 12.8725 2.52028 12.8621 2.50522 12.8514C2.48785 12.8391 2.47392 12.8453 2.46152 12.8589C2.4501 12.8712 2.43918 12.884 2.42846 12.897L2.06226 13.3355L2.02318 13.3826L2 13.4107C2.00673 13.4364 2.02405 13.4483 2.04076 13.4599C2.04474 13.4626 2.04869 13.4654 2.05245 13.4682C2.22901 13.6038 2.42202 13.7107 2.62911 13.7917C2.90476 13.8994 3.19057 13.9595 3.48604 13.9808C3.71673 13.9975 3.94497 13.9884 4.17138 13.9434C4.37658 13.9028 4.5691 13.8297 4.74132 13.7083C4.94812 13.5622 5.08686 13.3678 5.15542 13.124C5.18897 13.0046 5.20144 12.8824 5.19779 12.7583C5.19261 12.5819 5.13722 12.4239 5.02719 12.2851C4.93699 12.1712 4.82305 12.0862 4.69846 12.0144ZM11.3512 11.483C11.3512 11.3988 11.3468 11.3152 11.3323 11.232C11.287 10.9712 11.1791 10.7421 10.9931 10.5514C10.8393 10.3937 10.6551 10.2855 10.4483 10.2139C10.313 10.1671 10.1737 10.1394 10.0309 10.1242C9.76601 10.0959 9.50506 10.1149 9.24867 10.1852C9.0301 10.245 8.83085 10.3445 8.65787 10.4932C8.62712 10.5196 8.62565 10.5194 8.59491 10.4933C8.53069 10.4388 8.46255 10.3899 8.38985 10.3474C8.12751 10.1941 7.841 10.1278 7.54056 10.1135C7.33501 10.1038 7.13226 10.1283 6.93169 10.1701C6.59896 10.2392 6.27919 10.349 5.96859 10.4857L5.95473 10.4918C5.9266 10.504 5.91317 10.5098 5.9068 10.5201C5.90099 10.5294 5.90105 10.5424 5.90116 10.5673L5.90115 10.5909L5.90112 10.6301L5.90115 10.6498V12.2381V13.8432L5.90109 13.8615V13.8615C5.901 13.8807 5.90091 13.8998 5.90171 13.9189C5.9029 13.9464 5.9106 13.9547 5.93602 13.956C5.95297 13.9568 5.96996 13.9567 5.98696 13.9566L6.00318 13.9565L6.14389 13.9566H6.14432C6.28496 13.9567 6.42561 13.9568 6.56625 13.9565L6.59752 13.9566C6.6347 13.957 6.65357 13.9572 6.66304 13.9479C6.6728 13.9382 6.67258 13.9185 6.67215 13.8784L6.67193 13.8467C6.6721 13.1336 6.67209 12.4205 6.67208 11.7074V11.7074V11.7073L6.67207 11.1743L6.67236 11.1502C6.67266 11.133 6.67296 11.1158 6.67186 11.0987C6.66969 11.0662 6.68286 11.0478 6.71339 11.0351C6.87391 10.9683 7.03779 10.9133 7.2093 10.8815C7.33697 10.8579 7.46436 10.848 7.59343 10.8674C7.79436 10.8979 7.9574 10.9898 8.07386 11.1592C8.12674 11.2362 8.16357 11.3205 8.18935 11.4098C8.22513 11.5343 8.24117 11.6615 8.24103 11.7912C8.24058 12.3404 8.24067 12.8896 8.24076 13.4388L8.24082 13.8502L8.24082 13.8556C8.24082 13.879 8.24081 13.9024 8.24159 13.9259C8.24229 13.9462 8.25483 13.9554 8.27423 13.956C8.29103 13.9565 8.30784 13.9565 8.32465 13.9565L8.5447 13.9565H8.54562C8.67364 13.9565 8.80166 13.9565 8.92974 13.9567L8.93727 13.9567C8.97501 13.9567 8.99387 13.9568 9.00323 13.9474C9.01259 13.938 9.01247 13.9191 9.01221 13.8814L9.01217 13.8741V13.8237V11.8235L9.01196 11.7939C9.01172 11.7702 9.01147 11.7463 9.01266 11.7227C9.02057 11.5647 9.04866 11.4109 9.11694 11.2672C9.21268 11.0658 9.36675 10.9336 9.58651 10.882C9.74787 10.844 9.90916 10.8489 10.0693 10.8857C10.3186 10.943 10.4759 11.0974 10.5434 11.3444C10.574 11.4564 10.5805 11.5704 10.5804 11.6857C10.5801 12.2644 10.5802 12.8431 10.5803 13.4218V13.4218V13.4219V13.4219V13.4219V13.422L10.5804 13.8539C10.5804 13.8791 10.5804 13.9043 10.5818 13.9294C10.5827 13.9454 10.5937 13.9544 10.6092 13.9555C10.6263 13.9566 10.6435 13.9566 10.6606 13.9565L10.668 13.9565L11.2647 13.9566L11.277 13.9566C11.3147 13.9567 11.3334 13.9568 11.3425 13.9475C11.3515 13.9384 11.3514 13.9205 11.3513 13.885L11.3512 13.8698V11.483ZM18.1125 10.1129C18.0145 10.1115 17.9168 10.1178 17.8191 10.1263C17.6371 10.142 17.4587 10.1738 17.2847 10.2291C16.7918 10.3858 16.4405 10.7 16.235 11.1757C16.1411 11.3932 16.0871 11.6213 16.0572 11.8555C16.0324 12.0501 16.0246 12.2459 16.0259 12.4421C16.0266 12.56 16.0265 12.678 16.0263 12.7959L16.0261 12.9545V13.8619C16.0261 13.8843 16.0261 13.9067 16.027 13.929C16.0278 13.9494 16.0405 13.9582 16.0598 13.9587C16.0794 13.9591 16.0991 13.9592 16.1186 13.9592L16.2164 13.9592H16.2164H16.2165C16.3799 13.9593 16.5433 13.9593 16.7067 13.9592L16.7288 13.9592C16.7621 13.9595 16.7792 13.9596 16.788 13.9511C16.7972 13.9421 16.7971 13.9235 16.797 13.8853L16.7969 13.8684L16.797 13.594V13.5939V13.5939C16.7971 13.2289 16.7972 12.8639 16.7967 12.499C16.7966 12.373 16.799 12.2471 16.8089 12.1213C16.8222 11.9557 16.8538 11.7941 16.9129 11.6388C17.0486 11.2821 17.2991 11.0497 17.6673 10.9454C17.7972 10.9086 17.9298 10.8897 18.0645 10.8848C18.0717 10.8845 18.079 10.8844 18.0863 10.8844C18.0958 10.8843 18.1054 10.8842 18.1149 10.8836C18.1438 10.882 18.1507 10.876 18.1521 10.8499C18.1529 10.8347 18.1528 10.8194 18.1528 10.8042L18.1527 10.7911V10.2031L18.1528 10.191C18.1528 10.1782 18.1529 10.1654 18.1523 10.1526C18.1508 10.1189 18.1461 10.1134 18.1125 10.1129ZM21.9769 13.1905C21.9892 13.1919 21.9967 13.2001 21.9979 13.2124C21.9992 13.2263 21.9998 13.2403 21.9998 13.2543L21.9999 13.8927L21.9999 13.8978C21.9999 13.9045 22 13.9112 21.9996 13.9178C21.9979 13.9526 21.9932 13.958 21.9614 13.9594C21.9538 13.9598 21.9461 13.9599 21.9385 13.96C21.9316 13.96 21.9247 13.96 21.9178 13.9599L21.9026 13.9598H21.6086V13.9596L21.5106 13.9597C21.4313 13.9598 21.352 13.9599 21.2727 13.9594C21.2346 13.9592 21.2297 13.9542 21.2296 13.9147C21.2292 13.7485 21.2293 13.5822 21.2293 13.4159L21.2294 13.2344L21.2297 13.226C21.2314 13.1972 21.2373 13.1905 21.2631 13.1888C21.2719 13.1882 21.2807 13.1883 21.2896 13.1883H21.2896L21.2967 13.1884L21.4563 13.1883L21.9351 13.1884C21.949 13.1884 21.963 13.1888 21.9769 13.1905ZM14.49 13.0919L14.4901 13.106C14.4902 13.1209 14.4902 13.1358 14.4895 13.1506C14.4883 13.18 14.4827 13.1863 14.4562 13.1877C14.4391 13.1885 14.4219 13.1884 14.4047 13.1884L14.389 13.1883H13.8685V13.1875L13.6965 13.1876H13.6965C13.5747 13.1878 13.453 13.1879 13.3312 13.1875C13.0638 13.1866 12.8259 12.9634 12.8177 12.6983C12.8126 12.5332 12.8861 12.4069 13.0363 12.331C13.0992 12.2992 13.1665 12.2798 13.2376 12.2791C13.3607 12.2779 13.4835 12.2794 13.6065 12.2908C13.757 12.3045 13.9067 12.3233 14.0555 12.3481C14.1879 12.3701 14.3196 12.3955 14.4497 12.4283C14.4885 12.4381 14.4885 12.439 14.4899 12.4789L14.4899 12.479C14.4903 12.4907 14.4902 12.5025 14.4901 12.5142V12.5143L14.49 12.5294V13.0919ZM15.2512 11.4686C15.2395 11.3342 15.2175 11.2019 15.1779 11.0733C15.0579 10.6832 14.8132 10.4048 14.433 10.25C14.2154 10.1613 13.9869 10.123 13.7535 10.1143C13.6081 10.1088 13.4627 10.1121 13.3172 10.1246C13.1185 10.1416 12.9232 10.174 12.732 10.2297C12.6526 10.2528 12.5743 10.2799 12.4961 10.307L12.4961 10.3071L12.4613 10.3191C12.4242 10.332 12.422 10.3389 12.4336 10.3745C12.4447 10.4086 12.4564 10.4425 12.468 10.4764L12.4767 10.5018L12.5109 10.6013C12.5549 10.7295 12.5989 10.8578 12.6433 10.9858C12.6575 11.0267 12.6656 11.0307 12.704 11.0176C12.7334 11.0076 12.7627 10.9971 12.792 10.9866C12.8311 10.9725 12.8703 10.9585 12.9098 10.9455C13.1796 10.8565 13.455 10.8231 13.7373 10.8679C13.9027 10.8942 14.0568 10.9501 14.1913 11.0524C14.3792 11.1953 14.4733 11.388 14.489 11.6212C14.4911 11.6523 14.4807 11.6607 14.4483 11.6546C14.2751 11.6222 14.1015 11.593 13.9268 11.5689C13.6963 11.5371 13.4651 11.5188 13.2322 11.5225C13.1646 11.5235 13.098 11.5321 13.0324 11.5462C12.3979 11.6823 11.9759 12.2779 12.0772 12.9299C12.1284 13.2603 12.2946 13.5265 12.5645 13.7248C12.7788 13.8823 13.0214 13.9585 13.2867 13.9589C13.7542 13.9596 14.2218 13.9595 14.6894 13.9593L15.177 13.9592L15.1891 13.9592C15.2019 13.9593 15.2146 13.9594 15.2273 13.9586C15.2532 13.9571 15.2599 13.9498 15.2612 13.9213C15.262 13.9043 15.2619 13.8873 15.2618 13.8704L15.2617 13.8542V12.7368V11.8126C15.2617 11.6979 15.2612 11.5833 15.2512 11.4686Z" fill="#DFDFDF"/>
</svg>
