<svg width="18" height="18" viewBox="0 0 18 18" fill="none" xmlns="http://www.w3.org/2000/svg">
<g clip-path="url(#clip0_1447_42220)">
<path d="M18 9C18 13.9706 13.9706 18 9 18C4.02944 18 0 13.9706 0 9C0 4.02944 4.02944 0 9 0C13.9706 0 18 4.02944 18 9Z" fill="white"/>
<path d="M16 9C16 12.866 12.866 16 9 16C5.13401 16 2 12.866 2 9C2 5.13401 5.13401 2 9 2C12.866 2 16 5.13401 16 9Z" fill="#FFCC33"/>
<path d="M9.00021 4.3333C8.34186 4.3333 7.82887 4.90419 7.899 5.55879L8.42019 10.4232C8.45195 10.7196 8.70209 10.9444 9.00021 10.9444C9.29832 10.9444 9.54846 10.7196 9.58022 10.4232L10.1014 5.55879C10.1715 4.90419 9.65856 4.3333 9.00021 4.3333Z" fill="#222222"/>
<path d="M9.00024 13.8611C9.53718 13.8611 9.97246 13.4258 9.97246 12.8889C9.97246 12.3519 9.53718 11.9166 9.00024 11.9166C8.46329 11.9166 8.02801 12.3519 8.02801 12.8889C8.02801 13.4258 8.46329 13.8611 9.00024 13.8611Z" fill="#222222"/>
</g>
<defs>
<clipPath id="clip0_1447_42220">
<rect width="18" height="18" fill="white"/>
</clipPath>
</defs>
</svg>
