<svg width="18" height="18" viewBox="0 0 18 18" fill="none" xmlns="http://www.w3.org/2000/svg">
<g clip-path="url(#clip0_1522_3397)">
<circle cx="9" cy="9" r="9" fill="white"/>
<path d="M16 9C16 12.866 12.866 16 9 16C5.13401 16 2 12.866 2 9C2 5.13401 5.13401 2 9 2C12.866 2 16 5.13401 16 9Z" fill="#FFCC33"/>
<path d="M9.00021 4.33325C8.34186 4.33325 7.82887 4.90414 7.899 5.55874L8.42019 10.4232C8.45195 10.7196 8.70209 10.9444 9.00021 10.9444C9.29832 10.9444 9.54846 10.7196 9.58022 10.4232L10.1014 5.55874C10.1715 4.90414 9.65856 4.33325 9.00021 4.33325Z" fill="#222222"/>
<path d="M9.00024 13.861C9.53718 13.861 9.97246 13.4258 9.97246 12.8888C9.97246 12.3519 9.53718 11.9166 9.00024 11.9166C8.46329 11.9166 8.02801 12.3519 8.02801 12.8888C8.02801 13.4258 8.46329 13.861 9.00024 13.861Z" fill="#222222"/>
</g>
<defs>
<clipPath id="clip0_1522_3397">
<rect width="18" height="18" fill="white"/>
</clipPath>
</defs>
</svg>
