<?xml version="1.0" encoding="UTF-8"?>
<svg id="Layer_1" xmlns="http://www.w3.org/2000/svg" version="1.1" viewBox="0 0 3300 2200">
  <!-- Generator: Adobe Illustrator 29.0.1, SVG Export Plug-In . SVG Version: 2.1.0 Build 192)  -->
  <defs>
    <style>
      .st0 {
        stroke: #00aeef;
      }

      .st0, .st1, .st2, .st3, .st4, .st5, .st6, .st7 {
        fill: none;
      }

      .st0, .st2, .st6, .st7 {
        stroke-width: .5px;
      }

      .st1, .st2, .st3, .st4, .st5, .st6 {
        stroke: #000;
      }

      .st1, .st4 {
        stroke-width: .5px;
      }

      .st3, .st5 {
        stroke-width: .5px;
      }

      .st8 {
        fill: #fff;
      }

      .st9 {
        font-family: Helvetica-Bold, Helvetica;
        font-weight: 700;
      }

      .st9, .st10 {
        font-size: 13px;
        isolation: isolate;
      }

      .st4, .st5, .st6 {
        fill-rule: evenodd;
      }

      .st10 {
        font-family: Helvetica, Helvetica;
      }

      .st11 {
        fill: #27aae1;
      }

      .st7 {
        stroke: #27aae1;
      }
    </style>
  </defs>
  <g id="Notes">
    <rect id="artboard" class="st8" width="3300" height="2200"/>
    <line class="st2" x1="263" y1="292" x2="3036" y2="292"/>
    <text class="st9" transform="translate(263 322)"><tspan x="0" y="0">Weight/Scale Variations</tspan></text>
    <text class="st10" transform="translate(534.1 322)"><tspan x="0" y="0">Ultralight</tspan></text>
    <text class="st10" transform="translate(843.8 322)"><tspan x="0" y="0">Thin</tspan></text>
    <text class="st10" transform="translate(1139 322)"><tspan x="0" y="0">Light</tspan></text>
    <text class="st10" transform="translate(1427.1 322)"><tspan x="0" y="0">Regular</tspan></text>
    <text class="st10" transform="translate(1723.4 322)"><tspan x="0" y="0">Medium</tspan></text>
    <text class="st10" transform="translate(2016.2 322)"><tspan x="0" y="0">Semibold</tspan></text>
    <text class="st10" transform="translate(2327 322)"><tspan x="0" y="0">Bold</tspan></text>
    <text class="st10" transform="translate(2618.3 322)"><tspan x="0" y="0">Heavy</tspan></text>
    <text class="st10" transform="translate(2917.5 322)"><tspan x="0" y="0">Black</tspan></text>
    <line class="st2" x1="263" y1="1903" x2="3036" y2="1903"/>
    <path d="M272.2,1933.8c4.4,0,7.9-3.5,7.9-7.9s-3.5-7.9-7.9-7.9-7.9,3.5-7.9,7.9,3.5,7.9,7.9,7.9ZM272.2,1932.3c-3.5,0-6.4-2.9-6.4-6.4s2.9-6.4,6.4-6.4,6.4,2.9,6.4,6.4-2.9,6.4-6.4,6.4ZM268.7,1925.9c0,.4.3.7.8.7h2.1v2.1c0,.4.3.7.7.7s.7-.3.7-.7v-2.1h2.1c.4,0,.7-.3.7-.7s-.3-.7-.7-.7h-2.1v-2.1c0-.4-.3-.8-.7-.8s-.7.3-.7.8v2.1h-2.1c-.4,0-.8.3-.8.7Z"/>
    <path d="M293.2,1935.9c5.5,0,10-4.5,10-10s-4.5-10-10-10-10,4.5-10,10,4.5,10,10,10ZM293.2,1934.3c-4.6,0-8.3-3.7-8.3-8.3s3.7-8.3,8.3-8.3,8.3,3.7,8.3,8.3-3.7,8.3-8.3,8.3ZM288.7,1925.9c0,.5.3.8.8.8h2.9v2.9c0,.5.3.8.8.8s.8-.3.8-.8v-2.9h2.9c.5,0,.8-.3.8-.8s-.3-.8-.8-.8h-2.9v-2.9c0-.5-.3-.8-.8-.8s-.8.3-.8.8v2.9h-2.9c-.5,0-.8.3-.8.8Z"/>
    <path d="M319.9,1938.7c7,0,12.7-5.7,12.7-12.7s-5.7-12.7-12.7-12.7-12.7,5.7-12.7,12.7,5.7,12.7,12.7,12.7ZM319.9,1936.8c-6,0-10.9-4.9-10.9-10.9s4.9-10.9,10.9-10.9,10.9,4.9,10.9,10.9-4.9,10.9-10.9,10.9ZM314.1,1925.9c0,.5.4.9.9.9h3.9v4c0,.5.4.9.9.9s.9-.4.9-.9v-4h4c.5,0,.9-.4.9-.9s-.4-.9-.9-.9h-4v-3.9c0-.5-.4-.9-.9-.9s-.9.4-.9.9v3.9h-3.9c-.5,0-.9.4-.9.9Z"/>
    <text class="st9" transform="translate(263 1953)"><tspan x="0" y="0">Design Variations</tspan></text>
    <text class="st10" transform="translate(263 1971)"><tspan x="0" y="0">Symbols are supported in up to nine weights and three scales.</tspan></text>
    <text class="st10" transform="translate(263 1989)"><tspan x="0" y="0">For optimal layout with text and other symbols, vertically align</tspan></text>
    <text class="st10" transform="translate(263 2007)"><tspan x="0" y="0">symbols with the adjacent text.</tspan></text>
    <line class="st0" x1="776" y1="1919" x2="776" y2="1933"/>
    <path d="M779.3,1933.2c.5,0,.8-.2,1-.7l1.3-3.4h5.8l1.3,3.4c.2.5.4.7.9.7s.8-.3.8-.8,0-.3-.1-.5l-4.6-12.2c-.2-.6-.6-.9-1.3-.9s-1,.3-1.2.9l-4.6,12.2c0,.2-.1.4-.1.5,0,.5.3.8.8.8ZM782,1927.5l2.4-6.6h0l2.4,6.6h-4.8Z"/>
    <line class="st0" x1="792.8" y1="1919" x2="792.8" y2="1933"/>
    <text class="st9" transform="translate(776 1953)"><tspan x="0" y="0">Margins</tspan></text>
    <text class="st10" transform="translate(776 1971)"><tspan x="0" y="0">Leading and trailing margins on the left and right side of each symbol</tspan></text>
    <text class="st10" transform="translate(776 1989)"><tspan x="0" y="0">can be adjusted by modifying the x-location of the margin guidelines.</tspan></text>
    <text class="st10" transform="translate(776 2007)"><tspan x="0" y="0">Modifications are automatically applied proportionally to all</tspan></text>
    <text class="st10" transform="translate(776 2025)"><tspan x="0" y="0">scales and weights.</tspan></text>
    <path d="M1291.8,1934.9l1.7,1.7c.9.9,1.8.8,2.8-.2l10.7-11.8-1-1-10.6,11.7c-.4.4-.7.5-1.2,0l-1.2-1.2c-.5-.5-.4-.8,0-1.2l11.5-10.8-1-1-11.6,10.9c-1,.9-1.1,1.9-.2,2.8h0ZM1298.3,1916.7c-.4.4-.4,1-.2,1.4.2.4.7.6,1.3.4,1.5-.3,3-.4,4.4.5l-.6,1.5c-.3.8-.2,1.4.4,2l2.3,2.3c.5.5.9.5,1.5.4l1.1-.2.7.7v.6c0,.5,0,.9.5,1.4l.8.7c.5.5,1.1.5,1.6,0l2.9-2.9c.5-.5.4-1.1,0-1.5l-.8-.8c-.5-.5-.8-.6-1.3-.6h-.6s-.6-.6-.6-.6l.2-1.1c.1-.6,0-1-.6-1.6l-2.2-2.2c-3.3-3.3-7.8-3.2-10.7-.4h0ZM1299.8,1917c2.4-1.8,5.7-1.5,7.9.8l2.4,2.4c.2.2.3.4.2.8l-.3,1.5,1.5,1.5h1c.3,0,.3,0,.5.1l.6.6-2.4,2.4-.6-.6c-.2-.2-.2-.3-.2-.5v-1c0,0-1.4-1.5-1.4-1.5l-1.5.3c-.3,0-.5,0-.7-.2l-2-2c-.3-.2-.3-.4-.1-.8l.9-2.1c-1.6-1.5-3.6-2.1-5.6-1.5-.2,0-.2,0,0-.2h0Z"/>
    <text class="st9" transform="translate(1289 1953)"><tspan x="0" y="0">Exporting</tspan></text>
    <text class="st10" transform="translate(1289 1971)"><tspan x="0" y="0">Symbols should be outlined when exporting to ensure the</tspan></text>
    <text class="st10" transform="translate(1289 1989)"><tspan x="0" y="0">design is preserved when submitting to Xcode.</tspan></text>
    <text id="template-version" class="st10" transform="translate(2952.4 1933)"><tspan x="0" y="0">Template v.6.0</tspan></text>
    <text class="st10" transform="translate(2865.5 1951)"><tspan x="0" y="0">Requires Xcode 16 or greater</tspan></text>
    <text id="descriptive-name" class="st10" transform="translate(2911 1969)"><tspan x="0" y="0">Generated from circle</tspan></text>
    <text class="st10" transform="translate(2901.6 1987)"><tspan x="0" y="0">Typeset at 100.0 points</tspan></text>
    <text class="st10" transform="translate(263 726)"><tspan x="0" y="0">Small</tspan></text>
    <text class="st10" transform="translate(263 1156)"><tspan x="0" y="0">Medium</tspan></text>
    <text class="st10" transform="translate(263 1586)"><tspan x="0" y="0">Large</tspan></text>
  </g>
  <g id="Guides">
    <g id="H-reference">
      <path class="st11" d="M340,696h2.6l25.7-67.1h.7v-3.3h-1.9l-27.1,70.5ZM350.7,671.5h35.3l-.8-2.2h-33.8l-.8,2.2ZM394.1,696h2.6l-27.1-70.5h-1.2v3.3l25.7,67.1Z"/>
    </g>
    <line id="Baseline-S" class="st7" x1="263" y1="696" x2="3036" y2="696"/>
    <line id="Capline-S" class="st7" x1="263" y1="625.5" x2="3036" y2="625.5"/>
    <g id="H-reference1" data-name="H-reference">
      <path class="st11" d="M340,1126h2.6l25.7-67.1h.7v-3.3h-1.9l-27.1,70.5ZM350.7,1101.5h35.3l-.8-2.2h-33.8l-.8,2.2ZM394.1,1126h2.6l-27.1-70.5h-1.2v3.3l25.7,67.1Z"/>
    </g>
    <line id="Baseline-M" class="st7" x1="263" y1="1126" x2="3036" y2="1126"/>
    <line id="Capline-M" class="st7" x1="263" y1="1055.5" x2="3036" y2="1055.5"/>
    <g id="H-reference2" data-name="H-reference">
      <path class="st11" d="M340,1556h2.6l25.7-67.1h.7v-3.3h-1.9l-27.1,70.5ZM350.7,1531.5h35.3l-.8-2.2h-33.8l-.8,2.2ZM394.1,1556h2.6l-27.1-70.5h-1.2v3.3l25.7,67.1Z"/>
    </g>
    <line id="Baseline-L" class="st7" x1="263" y1="1556" x2="3036" y2="1556"/>
    <line id="Capline-L" class="st7" x1="263" y1="1485.5" x2="3036" y2="1485.5"/>
    <line id="right-margin-Black-S" class="st0" x1="2982.2" y1="600.8" x2="2982.2" y2="720.1"/>
    <line id="left-margin-Black-S" class="st0" x1="2884.6" y1="600.8" x2="2884.6" y2="720.1"/>
    <line id="right-margin-Regular-S" class="st0" x1="1496.1" y1="600.8" x2="1496.1" y2="720.1"/>
    <line id="left-margin-Regular-S" class="st0" x1="1403.6" y1="600.8" x2="1403.6" y2="720.1"/>
    <line id="right-margin-Ultralight-S" class="st0" x1="603.8" y1="600.8" x2="603.8" y2="720.1"/>
    <line id="left-margin-Ultralight-S" class="st0" x1="515.6" y1="600.8" x2="515.6" y2="720.1"/>
  </g>
  <g id="Symbols">
    <g id="Black-S">
      <path class="st5" d="M2933.4,618.8c-22.1,0-40.5,17.2-41.9,39.3,0,.4-.1.8,0,1.2-.8,22.3,15.9,41.3,38.1,43.4,1.6.1,2.8-1.6,2.6-3.2-.2-2-1.5-3.7-3.1-5-1.8-1.5-3.6-3.9-5.3-7.6-2.8-6.2-4.7-14.9-4.9-24.7h17c.7,0,1.3-.6,1.4-1.3,0-1.2.3-2.3.5-3.5.2-.9-.4-1.8-1.3-1.8h-17.5c.5-8.2,2.3-15.4,4.7-20.8,3.1-6.8,6.7-9.4,9.5-9.4s6.4,2.6,9.5,9.4c1.2,2.6,2.2,5.6,3,8.9.2.9,1.2,1.3,2.1.9,1-.5,2.1-1,3.2-1.3.7-.2,1.1-.9,1-1.6-.8-3.3-1.9-6.5-3.3-9.6-.6-1.4-1.4-2.8-2.2-4.1,7,2.9,12.9,7.9,16.9,14.4.6,1,1.5,1.8,2.6,2.4.9.5,1.8,1,2.6,1.7,1.2.9,3.9-.4,3.3-1.8-6.5-15.6-21.8-25.8-38.7-25.8ZM2920.1,693.6c-12.9-5.3-21.6-17.6-22.1-31.5h14.4c.2,10.5,2.2,20.2,5.5,27.4.7,1.4,1.4,2.8,2.2,4.1h0ZM2898.4,655.5h14.2c.5-9,2.4-17.2,5.3-23.5.7-1.4,1.4-2.8,2.2-4.1-11.6,4.7-19.9,15.2-21.7,27.6h0Z"/>
      <path class="st3" d="M2957,648.9c-7.2,0-13.1,5.9-13.1,13.1v3.9h6.6v-3.9c0-3.6,2.9-6.6,6.6-6.6s6.6,2.9,6.6,6.6v14.4h-20.5c-2.5,0-4.5,2-4.5,4.5h0v17.3c0,2.5,2,4.5,4.5,4.5h27.8c2.5,0,4.5-2,4.5-4.5v-17.3c0-2.5-2-4.5-4.5-4.5h-.8v-14.4c0-7.2-5.9-13.1-13.1-13.1Z"/>
    </g>
    <g id="Regular-S">
      <path class="st6" d="M1449.8,621.3c-20.8,0-38,16.1-39.3,36.9,0,.4-.1.7,0,1.1-.8,20.9,15,38.8,35.8,40.7,1.5.1,2.6-1.5,2.5-3-.2-1.9-1.4-3.5-2.9-4.7-1.7-1.4-3.4-3.7-5-7.1-2.7-5.8-4.4-14-4.6-23.2h16c.7,0,1.2-.6,1.3-1.2,0-1.1.2-2.2.5-3.3.2-.8-.4-1.7-1.2-1.7h-16.4c.5-7.7,2.1-14.5,4.4-19.5,2.9-6.4,6.3-8.8,9-8.8s6,2.5,9,8.8c1.1,2.4,2.1,5.2,2.8,8.4.2.8,1.2,1.3,1.9.9,1-.5,2-.9,3-1.2.6-.2,1-.8.9-1.5-.7-3.1-1.8-6.1-3.1-9-.6-1.3-1.3-2.6-2.1-3.8,6.6,2.7,12.2,7.4,15.9,13.5.6,1,1.5,1.7,2.5,2.3.9.5,1.7,1,2.4,1.6,1.1.9,3.6-.4,3.1-1.7-6.1-14.7-20.5-24.2-36.4-24.2ZM1437.3,691.6c-12.1-4.9-20.2-16.5-20.7-29.6h13.5c.1,9.9,2,19,5.1,25.8.6,1.3,1.3,2.6,2.1,3.8h0ZM1416.9,655.8h13.3c.5-8.4,2.3-16.1,5-22.1.6-1.3,1.3-2.6,2.1-3.8-10.9,4.4-18.6,14.3-20.4,25.9h0Z"/>
      <path class="st2" d="M1472,649.7c-6.8,0-12.3,5.5-12.3,12.3v3.7h6.2v-3.7c0-3.4,2.8-6.2,6.2-6.2s6.2,2.8,6.2,6.2v13.6h-19.2c-2.3,0-4.2,1.9-4.2,4.2h0v16.2c0,2.3,1.9,4.2,4.2,4.2h26.1c2.3,0,4.2-1.9,4.2-4.2v-16.2c0-2.3-1.9-4.2-4.2-4.2h-.7v-13.6c0-6.8-5.5-12.3-12.3-12.3Z"/>
    </g>
    <g id="Ultralight-S">
      <path class="st4" d="M559.7,623.5c-19.6,0-35.9,15.2-37.2,34.8,0,.3-.1.7,0,1-.7,19.8,14.1,36.7,33.8,38.5,1.4.1,2.5-1.4,2.3-2.8-.2-1.8-1.4-3.3-2.7-4.5-1.6-1.3-3.2-3.5-4.7-6.7-2.5-5.5-4.2-13.2-4.3-21.9h15.1c.6,0,1.2-.5,1.2-1.2,0-1,.2-2.1.5-3.1.2-.8-.4-1.6-1.2-1.6h-15.5c.5-7.3,2-13.7,4.2-18.4,2.7-6,6-8.4,8.5-8.4s5.7,2.3,8.5,8.4c1,2.3,1.9,4.9,2.7,7.9.2.8,1.1,1.2,1.8.8.9-.5,1.9-.9,2.9-1.2.6-.2,1-.8.8-1.4-.7-2.9-1.7-5.8-2.9-8.5-.6-1.3-1.2-2.5-1.9-3.6,6.2,2.5,11.5,7,15,12.7.6.9,1.4,1.6,2.3,2.1.8.4,1.6.9,2.3,1.5,1.1.8,3.4-.4,2.9-1.6-5.8-13.8-19.4-22.9-34.4-22.9ZM547.9,689.8c-11.5-4.7-19.1-15.6-19.6-28h12.8c.1,9.4,1.9,17.9,4.9,24.3.6,1.3,1.2,2.5,1.9,3.6h0ZM528.6,656.1h12.6c.5-8,2.2-15.2,4.7-20.8.6-1.3,1.2-2.5,1.9-3.6-10.3,4.2-17.6,13.5-19.3,24.5h0Z"/>
      <path class="st1" d="M580.7,650.2c-6.4,0-11.6,5.2-11.6,11.6v3.5h5.8v-3.5c0-3.2,2.6-5.8,5.8-5.8s5.8,2.6,5.8,5.8v12.8h-18.2c-2.2,0-4,1.8-4,4h0v15.3c0,2.2,1.8,4,4,4h24.7c2.2,0,4-1.8,4-4v-15.3c0-2.2-1.8-4-4-4h-.7v-12.8c0-6.4-5.2-11.6-11.6-11.6Z"/>
    </g>
  </g>
</svg>