<svg width="24" height="24" fill="none" xmlns="http://www.w3.org/2000/svg">
  <g clip-path="url(#Pinterest_svg__a)">
    <path fill="#E60023" d="M12 24c6.627 0 12-5.373 12-12S18.627 0 12 0 0 5.373 0 12s5.373 12 12 12Z"/>
    <path fill="#fff" fill-opacity=".12" fill-rule="evenodd" d="M24 12c0 6.627-5.373 12-12 12S0 18.627 0 12 5.373 0 12 0s12 5.373 12 12Zm-.5 0c0 6.351-5.149 11.5-11.5 11.5S.5 18.351.5 12 5.649.5 12 .5 23.5 5.649 23.5 12Z" clip-rule="evenodd"/>
    <path fill="#fff" fill-rule="evenodd" d="m8.607 22.991.213-.34c.443-.707.952-1.518 1.17-2.387l.734-2.835c.377.745 1.498 1.373 2.687 1.373 3.537 0 6.089-3.306 6.089-7.416 0-3.943-3.17-6.886-7.239-6.886C7.187 4.5 4.5 7.953 4.5 11.71c0 1.756.918 3.923 2.387 4.62.223.108.348.059.397-.157l.113-.465c.074-.302.164-.67.215-.889a.359.359 0 0 0-.077-.343c-.483-.598-.87-1.697-.87-2.717 0-2.629 1.962-5.17 5.306-5.17 2.89 0 4.91 1.992 4.91 4.846 0 3.218-1.605 5.454-3.692 5.454-1.15 0-2.02-.971-1.74-2.158.12-.506.279-1.026.433-1.532.279-.915.543-1.784.543-2.44 0-.913-.483-1.678-1.488-1.678-1.18 0-2.126 1.236-2.126 2.894 0 1.05.348 1.765.348 1.765s-1.16 4.993-1.373 5.925c-.228 1.012-.11 2.105-.005 3.036.27.107.546.204.826.29Z" clip-rule="evenodd"/>
  </g>
  <defs>
    <clipPath id="Pinterest_svg__a">
      <path fill="#fff" d="M0 0h24v24H0z"/>
    </clipPath>
  </defs>
</svg>
