<svg width="24" height="24" viewBox="0 0 24 24" fill="none" xmlns="http://www.w3.org/2000/svg">
<path d="M10 10C10 9.44772 9.55228 9 9 9C8.44772 9 8 9.44772 8 10V17C8 17.5523 8.44772 18 9 18C9.55228 18 10 17.5523 10 17V10Z" fill="black"/>
<path d="M16 10C16 9.44772 15.5523 9 15 9C14.4477 9 14 9.44772 14 10V17C14 17.5523 14.4477 18 15 18C15.5523 18 16 17.5523 16 17V10Z" fill="black"/>
<path fill-rule="evenodd" clip-rule="evenodd" d="M8 5V4C8 2.89543 8.89543 2 10 2H14C15.1046 2 16 2.89543 16 4V5H20C20.5523 5 21 5.44772 21 6C21 6.55228 20.5523 7 20 7V18C20 20.2091 18.2091 22 16 22H8C5.79086 22 4 20.2091 4 18V7C3.44772 7 3 6.55228 3 6C3 5.44772 3.44772 5 4 5H8ZM6 7V18C6 19.1046 6.89543 20 8 20H16C17.1046 20 18 19.1046 18 18V7H6ZM14 5V4H10V5H14Z" fill="black"/>
</svg>
