<svg width="24" height="24" fill="none" xmlns="http://www.w3.org/2000/svg">
  <g clip-path="url(#Bidtellect_svg__a)">
    <path fill="#44A2D2" d="M24 12c0 6.627-5.373 12-12 12S0 18.627 0 12 5.373 0 12 0s12 5.373 12 12Z"/>
    <path fill="#fff" fill-opacity=".12" fill-rule="evenodd" d="M24 12c0 6.627-5.373 12-12 12S0 18.627 0 12 5.373 0 12 0s12 5.373 12 12ZM12 23.5c6.351 0 11.5-5.149 11.5-11.5S18.351.5 12 .5.5 5.649.5 12 5.649 23.5 12 23.5Z" clip-rule="evenodd"/>
    <path fill="#fff" d="M7.034 14.059c.063-.071.122-.146.189-.212l2.117-2.12c.1-.099.213-.188.297-.299.14-.188.32-.223.543-.221 1.407.008 2.814.002 4.221.004 1.526.001 2.805 1.216 2.916 2.737a2.949 2.949 0 0 1-2.319 3.101 4.125 4.125 0 0 1-.806.077 662.46 662.46 0 0 1-4.458.002.446.446 0 0 0-.356.139 153.89 153.89 0 0 1-1.844 1.82c-.155.152-.324.29-.49.413-.005-1.055-.005-2.088-.005-3.121 0-.774-.003-1.547-.005-2.32Zm.543-1.765c-.172.175-.343.349-.525.514a752.211 752.211 0 0 1-.014-4.862c0-.495-.026-.991.102-1.477 0 0 0-.003.009-.01a4.1 4.1 0 0 0 .088-.265l.015-.023c.049-.101.089-.189.129-.276 0 0-.001-.004.008-.007.043-.05.077-.096.114-.14.003.003.01.009.008.022.017.316.113.641-.204.817v.685l.032.004.082-.226.054.015v5.008c0 .044-.012.095.004.133.015.034.06.056.094.084a.425.425 0 0 0 .004.004Z"/>
    <path fill="#fff" d="M14.63 4.704c.52.23.965.555 1.294 1.024.6.858.701 1.78.348 2.766-.012.006-.017.001-.016-.012.002-.124.017-.237-.002-.345-.02-.117 0-.187.14-.197-.032-.097-.06-.18-.072-.22l.075-.315a28.62 28.62 0 0 0-.052-.019l-.084.178c-.03-.184-.08-.367.044-.538.027-.036.04-.13.026-.139-.131-.078-.105-.2-.106-.317v-.227l-.054.03-.422-.308.129-.217c-.065-.062-.125-.165-.201-.178-.069-.013-.155.073-.194.095l-.308-.3c-.03-.027-.012-.077-.02-.123-.006-.047-.027-.11-.062-.13-.113-.066-.232-.138-.357-.162-.125-.023-.14-.081-.143-.183-.001-.041-.034-.112-.064-.118a3.777 3.777 0 0 0-.486-.078c-.143-.012-.288-.002-.431-.006-.026 0-.05-.02-.076-.03-.065-.023-.13-.064-.194-.064a686.653 686.653 0 0 0-3.235-.002c-.05 0-.1.011-.15.017l-.275.027c-.118.123-.313.098-.505.074-.095-.012-.19-.02-.207.1-.027.19-.095.214-.306.18-.232-.04-.23-.05-.24.183-.002.026-.01.053-.018.095-.067-.006-.127-.02-.186-.014-.044.005-.1.023-.124.055-.057.074-.093.163-.146.24-.054.08-.104.177-.182.221-.066.037-.169.01-.256.01 0 0-.006-.006-.006-.02.026-.058.05-.103.076-.149 0 0-.002-.003.009-.006.074-.086.138-.17.202-.253 0 0 0-.003.013-.005.102-.083.192-.165.282-.246 0 0-.002-.002.008-.002.015-.011.021-.022.027-.032h.01a.635.635 0 0 0 .091-.068s-.002-.001.007-.002c.016-.01.023-.02.03-.03h.009c.061-.033.11-.067.16-.101h.01c.073-.034.132-.068.192-.102h.01c.063-.022.111-.044.16-.067h.012a3.93 3.93 0 0 1 1.245-.172c1.02.003 2.04.008 3.06-.002.516-.004 1.023.025 1.511.204Z"/>
    <path fill="#fff" d="M16.262 8.502c-.185.563-.549.99-1.018 1.334-.53.387-1.132.548-1.779.55a545.05 545.05 0 0 1-3.793 0 .367.367 0 0 0-.296.123c-.146.157-.303.304-.467.458-.011.004-.015 0-.013-.011a5.27 5.27 0 0 1 .071-.187l.013-.001c.072-.062.145-.115.19-.185.08-.129.132-.275.218-.399.026-.038.122-.028.192-.042l-.028.159c.139-.028.255-.066.372-.071.45-.018.9-.036 1.35-.035.738.003 1.476.02 2.214.033.151.003.303.037.453.026.184-.015.368-.053.547-.101.056-.016.098-.096.138-.153.029-.04.043-.09.063-.136l.098.104c.085-.034.19-.067.287-.118.039-.02.068-.076.082-.122.011-.037-.007-.083-.014-.139l.177.02c.25-.132.266-.404.394-.609l.181.07.04-.036c-.032-.054-.067-.106-.095-.162a.373.373 0 0 1-.045-.135c-.001-.02.052-.065.065-.06.174.066.151-.088.187-.173l.209-.009.007.007Zm-1.636-3.809c-.484-.168-.991-.197-1.506-.193-1.02.01-2.041.005-3.061.002a3.906 3.906 0 0 0-1.243.173c-.014.111.055-.018.154-.046.194-.017.278-.075.472-.092.127-.012.262-.032.39-.031 1.317.002 2.463.02 3.78.03.22.002.383.005.601.05.046.01.367.06.413.107ZM7.127 6.47c-.115.485-.089.981-.089 1.476 0 1.618.003 3.236.006 4.869-.014-.034-.042-.084-.042-.134-.002-1.885.044-3.732.046-5.616 0-.146.014-.218.034-.362.006-.043.006-.192.045-.234Zm-.103 7.598c.012.764.014 1.537.015 2.31 0 1.034 0 2.067-.002 3.116-.014-.032-.036-.079-.036-.126v-5.191c0-.033.008-.066.023-.109Zm1.096-2.316c-.174.178-.348.356-.532.538-.01.004-.014.002-.013-.011-.01-.096-.024-.178-.03-.261-.013-.142.108-.27.24-.266.11.004.22-.003.33-.004a.549.549 0 0 1 .005.004Z"/>
    <path fill="#fff" d="M8.9 10.972a3.829 3.829 0 0 1-.229.232c-.011.003-.014 0-.013-.011a2.835 2.835 0 0 0-.022-.21c-.028-.186.036-.27.288-.311l-.152.29.122.005a.3.3 0 0 0 .005.005Zm-.542.544a6.992 6.992 0 0 1-.228.232c-.01.004-.013.001-.013-.012-.005-.073-.008-.134-.018-.194-.03-.197.023-.27.285-.33l-.155.292.124.007.005.005Z"/>
    <path fill="#fff" d="M8.661 11.209a10.1 10.1 0 0 1-.292.302c-.01.005-.014.002-.014-.012a3.72 3.72 0 0 1 .07-.188l.012-.001c.081-.036.15-.071.22-.106l.004.005ZM7.569 5.587c-.012.047-.037.092-.066.148a1.493 1.493 0 0 1-.115.155c.033-.117.115-.141.18-.303Zm.506-.51a2.803 2.803 0 0 1-.268.247c.143-.038.162-.139.268-.247Zm-.295.248c-.051.087-.115.17-.19.259.053-.085.116-.174.19-.26Zm-.412.569a1.685 1.685 0 0 1-.117.272c.029-.085.066-.179.117-.272Zm-.144.302a1.37 1.37 0 0 1-.076.264 1.37 1.37 0 0 1 .076-.264ZM8.619 4.74a1.119 1.119 0 0 1-.178.104c.047-.035.106-.07.178-.105Zm-.203.102a.744.744 0 0 1-.145.104.745.745 0 0 1 .145-.104Zm.372-.17a.686.686 0 0 1-.144.07.686.686 0 0 1 .144-.07Zm-.576.304a.24.24 0 0 1-.079.07.24.24 0 0 1 .079-.07Zm.04-.03c.002.007-.005.017-.02.03-.003-.008.004-.018.02-.03Zm-.138.101c.003.007-.003.018-.018.03-.003-.008.004-.018.018-.03Z"/>
    <path fill="#fff" d="M8.425 11.312a5.395 5.395 0 0 0-.071.186c-.04.01-.077.008-.125.006l.155-.293c-.262.06-.315.134-.285.331.01.06.013.121.017.193a2.18 2.18 0 0 1-.331.017c-.132-.004-.253.124-.24.266.006.083.02.165.028.259-.033-.015-.08-.037-.094-.07-.016-.04-.004-.09-.004-.135V7.065l-.054-.015-.082.226a35.51 35.51 0 0 0-.032-.004v-.685c.317-.176.22-.501.204-.817.088-.014.19.014.257-.023.078-.044.128-.141.182-.22.053-.078.09-.167.146-.24.024-.033.08-.051.124-.056.059-.006.12.008.186.014.008-.042.016-.069.018-.095.01-.234.008-.222.24-.184.211.035.279.01.306-.18.017-.119.112-.11.207-.099.192.024.387.05.505-.074l.276-.027c.05-.006.1-.017.149-.017 1.078-.002 2.157-.002 3.235.002.065 0 .13.041.194.065.025.009.05.029.075.03.144.003.289-.007.432.005.163.014.326.042.486.078.03.006.063.077.064.118.004.102.018.16.143.183.125.024.244.096.357.161.035.02.056.084.063.131.007.046-.011.096.02.123l.307.3c.04-.022.125-.108.194-.095.076.013.136.116.2.178-.046.08-.088.15-.128.217l.422.308.054-.03v.227c0 .116-.026.24.106.317.015.009 0 .103-.026.139-.125.171-.075.354-.044.538l.084-.178.052.02-.075.313.071.22c-.14.01-.159.081-.139.198.019.108.004.221.002.345-.068.016-.136.02-.21.022-.036.085-.013.24-.187.173-.013-.005-.066.04-.065.06a.373.373 0 0 0 .045.135c.028.056.063.108.095.162l-.04.036-.18-.07c-.129.205-.145.477-.395.61a4.927 4.927 0 0 0-.177-.02c.007.055.025.101.014.138-.014.046-.043.101-.082.122-.096.05-.202.084-.287.118l-.098-.104c-.02.046-.034.096-.063.136-.04.057-.082.137-.138.153a2.977 2.977 0 0 1-.547.1c-.15.012-.302-.022-.453-.025-.738-.014-1.476-.03-2.214-.033-.45-.001-.9.017-1.35.035-.117.005-.233.043-.372.071l.028-.159c-.07.014-.166.004-.192.042-.086.124-.138.27-.219.399-.044.07-.117.123-.191.18a.108.108 0 0 1-.023-.009l.012.015c-.023.059-.046.117-.07.187a.395.395 0 0 1-.125.005l.152-.289c-.252.042-.316.125-.288.312.01.065.016.131.022.209-.07.046-.14.08-.223.112a.105.105 0 0 1-.023-.008l.013.014Zm6.784-2.058.206.124.056-.043-.097-.253c-.055.048-.11.097-.165.172ZM8.623 5.127l-.07-.038-.015.058c.027 0 .053.002.085-.02Zm5.993.095.098.01-.002-.047a.172.172 0 0 0-.096.037Zm.53.518.07.033.008-.042c-.025-.005-.05-.009-.079.009Z"/>
    <path fill="#fff" d="M15.209 9.24c.054-.061.11-.11.165-.158l.097.253-.056.043c-.069-.042-.137-.083-.206-.137ZM8.62 5.138a.22.22 0 0 1-.083.009l.015-.058a.215.215 0 0 1 .068.05Zm5.995.072a.306.306 0 0 1 .095-.025l.003.047a.307.307 0 0 1-.098-.021Zm.531.519a.182.182 0 0 1 .077.002 6.346 6.346 0 0 1-.007.042.205.205 0 0 1-.07-.044Zm-6.721 5.583-.013-.015c.003.001.006.003.011.01l.002.005Zm.542-.542a.94.94 0 0 1-.012-.016c.003.002.006.004.01.01l.002.005Z"/>
  </g>
  <defs>
    <clipPath id="Bidtellect_svg__a">
      <path fill="#fff" d="M0 0h24v24H0z"/>
    </clipPath>
  </defs>
</svg>
