<svg width="24" height="24" viewBox="0 0 24 24" fill="none" xmlns="http://www.w3.org/2000/svg">
<path d="M12.0001 2C12.5524 2 13.0001 2.44772 13.0001 3V13.5857L16.2929 10.2929C16.6834 9.90237 17.3166 9.90237 17.7071 10.2929C18.0976 10.6834 18.0976 11.3166 17.7071 11.7071L12.7071 16.7071C12.3166 17.0976 11.6834 17.0976 11.2929 16.7071L6.29289 11.7071C5.90237 11.3166 5.90237 10.6834 6.29289 10.2929C6.68342 9.90237 7.31658 9.90237 7.70711 10.2929L11.0001 13.5859V3C11.0001 2.44772 11.4478 2 12.0001 2Z" fill="black" fill-opacity="0.84"/>
<path d="M5 19.0476C4.44772 19.0476 4 19.4953 4 20.0476C4 20.5999 4.44772 21.0476 5 21.0476H19C19.5523 21.0476 20 20.5999 20 20.0476C20 19.4953 19.5523 19.0476 19 19.0476H5Z" fill="black" fill-opacity="0.84"/>
</svg>
