<svg width="76" height="76" viewBox="0 0 76 76" fill="none" xmlns="http://www.w3.org/2000/svg">
    <path d="m 34.71879,32.0938 c 0,-5.0742 4.1133,-9.18755 9.1875,-9.18755 5.0741,0 9.1875,4.11335 9.1875,9.18755 0,5.0741 -4.1134,9.1875 -9.1875,9.1875 -1.113,0 -2.1763,-0.1972 -3.1592,-0.5571 -0.593,-0.2172 -1.2579,-0.0747 -1.7098,0.3662 l -1.541,1.5034 h -3.5978 c -0.9061,0 -1.6407,0.7345 -1.6407,1.6406 V 48.5 h -3.1172 c -0.9061,0 -1.6406,0.7345 -1.6406,1.6406 v 2.9532 H 22.90626 V 48.5551 L 34.78889,36.6724 c 0.4391,-0.4391 0.5927,-1.0884 0.3968,-1.6777 -0.3025,-0.9098 -0.4669,-1.8845 -0.4669,-2.9009 z m 9.1875,-12.4688 c -6.8863,0 -12.4688,5.58245 -12.4688,12.4688 0,1.0113 0.1208,1.9963 0.3491,2.9405 L 20.10553,46.7154 c -0.30767,0.3077 -0.48052,0.725 -0.48052,1.1601 v 6.8589 c 0,0.4351 0.17285,0.8524 0.48052,1.1601 0.30768,0.3077 0.72498,0.4805 1.1601,0.4805 h 6.35076 c 1.7479,0 3.1649,-1.4169 3.1649,-3.1648 v -1.4289 h 1.593 c 1.7478,0 3.1648,-1.417 3.1648,-3.1649 V 45.875 h 2.625 c 0.4281,0 0.8392,-0.1673 1.1457,-0.4663 l 1.315,-1.2829 c 1.047,0.2849 2.1475,0.4367 3.2815,0.4367 6.8863,0 12.4687,-5.5824 12.4687,-12.4687 0,-6.88635 -5.5824,-12.4688 -12.4687,-12.4688 z m 0.6562,10.5 c 0,-0.7249 0.5876,-1.3125 1.3125,-1.3125 0.7249,0 1.3125,0.5876 1.3125,1.3125 0,0.7249 -0.5876,1.3125 -1.3125,1.3125 -0.7249,0 -1.3125,-0.5876 -1.3125,-1.3125 z m 1.3125,-4.59375 c -2.537,0 -4.5937,2.05665 -4.5937,4.59375 0,2.5371 2.0567,4.5938 4.5937,4.5938 2.5371,0 4.5938,-2.0567 4.5938,-4.5938 0,-2.5371 -2.0567,-4.59375 -4.5938,-4.59375 z" fill="white"/>
</svg>
