<svg width="24" height="24" fill="none" xmlns="http://www.w3.org/2000/svg">
  <g clip-path="url(#eyeota_svg__a)">
    <path fill="#001F51" d="M24 12c0 6.627-5.373 12-12 12S0 18.627 0 12 5.373 0 12 0s12 5.373 12 12Z"/>
    <path fill="#fff" fill-opacity=".12" fill-rule="evenodd" d="M24 12c0 6.627-5.373 12-12 12S0 18.627 0 12 5.373 0 12 0s12 5.373 12 12ZM12 23.5c6.351 0 11.5-5.149 11.5-11.5S18.351.5 12 .5.5 5.649.5 12 5.649 23.5 12 23.5Z" clip-rule="evenodd"/>
    <path fill="#00B8AD" fill-rule="evenodd" d="M17.961 16.644c.022.148-.097.482-.26.759-.177.28-.353.411-.397.276-.063-.144.043-.508.245-.809.187-.29.376-.39.412-.226Zm.349-.674c.006.172.096.058.207-.248.092-.284.166-.573.22-.867.007-.208-.091-.141-.218.177-.141.312-.235.747-.21.936v.002Zm-.434-1.18c-.153-.307-.108-.869.105-1.234.194-.37.445-.382.562-.072.092.294.039.805-.118 1.16-.176.352-.419.426-.55.144l.001.002Zm-1.362-1.13c.253.361.213.959-.086 1.352-.315.403-.798.46-1.08.107-.304-.36-.271-1.003.073-1.413.33-.403.823-.42 1.093-.047Zm.823-5.186c.231.347.313.816.176 1.066-.151.266-.486.21-.741-.138-.271-.359-.342-.87-.162-1.122.16-.24.485-.142.725.194h.002ZM17.7 7.5c-.177-.28-.348-.402-.397-.277-.064.144.047.518.245.81.198.292.38.4.416.235.021-.149-.097-.483-.264-.77V7.5Zm.819 1.692c-.111-.305-.204-.431-.207-.248-.027.188.064.613.208.936.124.31.224.387.218.176a6.851 6.851 0 0 0-.22-.867v.003Zm-.092 1.076c.154.353.207.866.114 1.16-.118.31-.369.287-.561-.073-.213-.364-.26-.935-.104-1.234.13-.294.374-.218.55.146v.001Zm-3.008.928c.33.411.822.428 1.094.055.253-.36.214-.96-.086-1.36-.316-.404-.795-.454-1.08-.109-.302.367-.273 1.002.072 1.414Zm-.434.523c-.352-.411-.936-.428-1.3-.02a1.145 1.145 0 0 0 0 1.508c.365.404.947.388 1.301-.024a1.176 1.176 0 0 0 0-1.464Zm1.904 1.418c-.26-.375-.26-.997 0-1.362.242-.36.62-.339.846.03.206.365.206.94 0 1.292-.227.378-.606.399-.847.039h.001Zm2.082-1.212c-.064-.318-.176-.341-.257-.05-.102.317-.103.847 0 1.153.078.302.193.268.257-.039.039-.353.039-.71 0-1.064Zm-1.452 3.438c-.151-.267-.486-.21-.744.146-.272.359-.34.861-.163 1.122.16.241.484.143.728-.202.228-.338.31-.806.18-1.066Z" clip-rule="evenodd"/>
    <path fill="#fff" fill-rule="evenodd" d="M14.01 4.903c.26.235.34.549.17.705-.176.165-.545.102-.823-.151-.277-.254-.336-.572-.144-.72.18-.14.53-.065.795.169l.002-.003ZM11.688 6.97c-.333-.31-.364-.765-.084-1.02.279-.235.76-.187 1.082.107.322.294.375.747.11 1.002-.275.264-.772.23-1.108-.09Zm-.71.669c-.382-.36-.982-.38-1.34-.042-.374.346-.367.932.024 1.306.391.375 1.005.391 1.368.03.363-.36.333-.927-.051-1.293Zm-3.53 3.44a1.09 1.09 0 0 1 .005-1.549 1.126 1.126 0 0 1 1.564 0 1.084 1.084 0 0 1 .008 1.548 1.117 1.117 0 0 1-1.577 0v.001Zm-.585.588a1.084 1.084 0 0 0-1.548.009 1.123 1.123 0 0 0 0 1.56 1.085 1.085 0 0 0 1.548.007 1.117 1.117 0 0 0 0-1.576Zm2.162 2.162a1.085 1.085 0 0 1-.008 1.548 1.124 1.124 0 0 1-1.561 0 1.086 1.086 0 0 1-.007-1.549 1.117 1.117 0 0 1 1.576 0Zm2.004 2.145c-.363-.361-.978-.349-1.367.03-.39.378-.4.96-.026 1.306.366.337.964.316 1.342-.042.384-.367.412-.945.051-1.293v-.001Zm1.767 1.875c-.273-.273-.773-.233-1.104.08-.33.313-.37.77-.082 1.02.271.241.753.19 1.075-.103.326-.304.374-.747.11-1v.003Zm1.39 1.449c.163.159.083.47-.176.708-.26.238-.615.308-.795.17-.191-.15-.13-.475.145-.72.274-.247.646-.323.827-.158Zm.924.885c-.096-.077-.362.02-.588.223-.24.205-.334.422-.225.485.092.059.348-.059.566-.24.221-.196.334-.402.247-.468Zm.827-.823c.072.093.294-.032.498-.261.204-.23.321-.51.265-.614-.071-.114-.309-.008-.52.235-.223.248-.334.543-.243.638v.002Zm-.922-.888c-.19-.203-.118-.629.171-.94.29-.31.656-.384.83-.168.154.21.065.608-.2.912-.266.303-.627.388-.801.195v.001Zm-1.46-1.38c.285.297.785.238 1.125-.124.34-.362.389-.904.122-1.212-.283-.32-.8-.284-1.147.088-.36.377-.402.94-.1 1.248Zm-1.88-1.763c-.4-.406-.388-1.09.035-1.522.423-.433 1.067-.44 1.451-.025.374.4.349 1.068-.05 1.491-.398.424-1.045.449-1.436.056ZM9.61 13.242a1.09 1.09 0 0 0 1.549-.005 1.127 1.127 0 0 0 0-1.564 1.085 1.085 0 0 0-1.55-.008 1.117 1.117 0 0 0 0 1.578Zm3.507-3.6c.397.425.42 1.087.048 1.492-.386.412-1.037.402-1.451-.027-.415-.429-.434-1.117-.034-1.522.39-.396 1.032-.365 1.437.059v-.002Zm.538-.575c.353.378.868.412 1.15.094.269-.307.21-.85-.117-1.211-.343-.365-.841-.423-1.131-.13-.298.313-.257.876.098 1.248Zm2.168-2.424c.265.303.352.705.193.904-.168.222-.544.149-.822-.162-.294-.317-.367-.742-.177-.946.181-.186.536-.094.806.204Zm.62-.823c-.209-.238-.425-.353-.504-.27-.084.102.02.39.242.638.223.248.456.36.52.235.059-.105-.059-.372-.258-.606v.003Zm-1.58-1.564c-.217-.184-.473-.298-.566-.241-.109.063-.014.28.217.48.235.208.5.305.597.227.079-.072-.034-.278-.248-.466Z" clip-rule="evenodd"/>
  </g>
  <defs>
    <clipPath id="eyeota_svg__a">
      <path fill="#fff" d="M0 0h24v24H0z"/>
    </clipPath>
  </defs>
</svg>
