<svg width="24" height="24" fill="none" xmlns="http://www.w3.org/2000/svg">
  <g clip-path="url(#OpenX_svg__a)">
    <path fill="#000" d="M24 12c0 6.627-5.373 12-12 12S0 18.627 0 12 5.373 0 12 0s12 5.373 12 12Z"/>
    <path fill="#fff" fill-opacity=".12" fill-rule="evenodd" d="M24 12c0 6.627-5.373 12-12 12S0 18.627 0 12 5.373 0 12 0s12 5.373 12 12ZM12 23.5c6.351 0 11.5-5.149 11.5-11.5S18.351.5 12 .5.5 5.649.5 12 5.649 23.5 12 23.5Z" clip-rule="evenodd"/>
    <path fill="#fff" d="M9.967 6.792c.36 0 .645-.286.645-.646a.641.641 0 0 0-.645-.646.641.641 0 0 0-.644.646c0 .35.285.646.644.646ZM5.59 8.58a.957.957 0 0 0 .73 1.768.957.957 0 0 0-.73-1.768Z"/>
    <path fill="#fff" fill-rule="evenodd" d="M9.883 7.331a1.65 1.65 0 0 0-1.639-.222 1.636 1.636 0 0 0-.888 2.139c.074.18.18.338.307.476l.002-.003-.001.016a3.253 3.253 0 0 1-.012-.013 2.357 2.357 0 0 0-.476 2.53 2.368 2.368 0 0 0 3.088 1.292 2.72 2.72 0 0 0 .655-.403c-.06-.06-.05-.057.01 0a2.388 2.388 0 0 0 .804-1.852v-.002l.01-.024v.015c.318 0 .635-.053.942-.18a2.43 2.43 0 0 0 1.425-1.664l.002.002a2.506 2.506 0 0 0-.127-1.493 2.41 2.41 0 0 0-4.092-.614l.01.008-.007.003a1.984 1.984 0 0 0-.013-.01Z" clip-rule="evenodd"/>
    <path fill="#fff" d="M17.316 11.068c-.592-.614-1.46-.92-2.58-.92h-.042c.211.338.348.73.37 1.153.01.096.01.18 0 .265.496.074.898.307 1.215.699.381.487.571 1.164.571 2.053 0 .89-.19 1.578-.57 2.054-.381.477-.9.72-1.555.72-.655 0-1.173-.243-1.564-.72-.392-.476-.582-1.164-.582-2.054 0-.148.01-.285.021-.412a2.38 2.38 0 0 1-1.575-.593 6.204 6.204 0 0 0-.074 1.016c0 1.418.401 2.498 1.194 3.25.593.614 1.46.921 2.58.921 1.121 0 1.988-.307 2.58-.921.793-.752 1.195-1.832 1.195-3.25.01-1.45-.391-2.54-1.184-3.26Z"/>
  </g>
  <defs>
    <clipPath id="OpenX_svg__a">
      <path fill="#fff" d="M0 0h24v24H0z"/>
    </clipPath>
  </defs>
</svg>
