<svg width="24" height="24" viewBox="0 0 24 24" fill="none" xmlns="http://www.w3.org/2000/svg">
<circle cx="12" cy="12" r="11" fill="white"/>
<path fill-rule="evenodd" clip-rule="evenodd" d="M24 12C24 18.6274 18.6274 24 12 24C5.37258 24 0 18.6274 0 12C0 5.37258 5.37258 0 12 0C18.6274 0 24 5.37258 24 12ZM4.18183 8.50852C4.32224 8.50852 4.43609 8.39467 4.43609 8.25426C4.43609 8.11385 4.32224 8 4.18183 8C4.04141 8 3.92757 8.11385 3.92757 8.25426C3.92757 8.39467 4.04141 8.50852 4.18183 8.50852ZM6.8261 10.3999C6.90631 10.5598 6.95173 10.7402 6.95173 10.9313C6.95173 11.0035 6.94493 11.0742 6.93256 11.1429C7.52539 11.2661 7.75491 11.8525 7.75491 12.4608C7.75491 13.1126 7.46458 13.7699 6.69226 13.7699C5.9199 13.7699 5.62962 13.1126 5.62962 12.4608C5.62962 12.3429 5.63843 12.226 5.6566 12.113C5.0519 12.0583 4.57802 11.5502 4.57802 10.9313C4.57802 10.2758 5.10941 9.74442 5.76487 9.74442C6.02575 9.74442 6.26682 9.82878 6.46274 9.97143C6.48338 9.88379 6.49525 9.79272 6.49525 9.69877C6.49525 9.04327 5.96386 8.51192 5.30839 8.51192C4.94275 8.51192 4.61586 8.67735 4.39817 8.93736C4.61705 9.08996 4.76061 9.34322 4.76061 9.6303C4.76061 10.0967 4.38251 10.4748 3.91612 10.4748C3.651 10.4748 3.41468 10.3524 3.25984 10.1612C3.05844 10.374 2.93469 10.6609 2.93469 10.9769C2.93469 11.6324 3.46608 12.1638 4.12154 12.1638C4.38338 12.1638 4.62531 12.0788 4.82156 11.9352C4.78723 12.1023 4.76961 12.2784 4.76961 12.4608C4.76961 13.5891 5.48172 14.493 6.69226 14.493C7.90281 14.493 8.61487 13.5891 8.61487 12.4608C8.61487 11.3431 7.95498 10.4643 6.8261 10.3999ZM20.8904 10.4889L19.6361 12.3567L21 14.3999H19.9757L19.1212 13.0469L18.2503 14.3999H17.33H17.2807H16.5521V12.8004C16.5521 12.3348 16.4152 12.1047 16.0537 12.1047C15.6319 12.1047 15.4512 12.3403 15.4512 12.9154V14.3999H14.6733V11.5679H15.4128V11.9623H15.4293C15.6265 11.6446 15.9661 11.4913 16.2947 11.4913C17.1218 11.4913 17.33 11.9569 17.33 12.658V14.3262L18.6501 12.3513L17.3903 10.4889H18.3872L19.154 11.7378L19.9483 10.4889H20.8904ZM10.2364 13.8904C9.73243 13.8904 9.55714 13.4522 9.55714 12.9921C9.55714 12.532 9.72148 12.0774 10.2309 12.0774C10.7293 12.0774 10.9101 12.5429 10.9101 12.9921C10.9101 13.4522 10.7458 13.8904 10.2364 13.8904ZM10.4007 11.4912C10.0501 11.4912 9.74339 11.6282 9.55714 11.9295H9.54619V11.5679H8.80673V15.3968H9.58453V14.0493H9.59549C9.78173 14.3286 10.1049 14.4765 10.4445 14.4765C11.2716 14.4765 11.6879 13.7699 11.6879 13.014C11.6879 12.2088 11.2881 11.4912 10.4007 11.4912ZM12.4823 12.6799C12.4932 12.4608 12.6356 12.0774 13.1286 12.0774C13.5065 12.0774 13.6764 12.2855 13.7476 12.6799H12.4823ZM13.1505 11.4913C12.2906 11.4913 11.7044 12.1376 11.7044 12.9866C11.7044 13.863 12.2577 14.4765 13.1505 14.4765C13.7914 14.4765 14.257 14.1917 14.4761 13.5234H13.7914C13.7421 13.6987 13.4902 13.8904 13.1779 13.8904C12.7452 13.8904 12.5042 13.6659 12.4823 13.1729H14.5254C14.5802 12.302 14.1146 11.4913 13.1505 11.4913ZM2 10.0197C2 9.79357 2.18328 9.61025 2.40942 9.61025C2.63556 9.61025 2.81884 9.79357 2.81884 10.0197C2.81884 10.2458 2.63556 10.4291 2.40942 10.4291C2.18328 10.4291 2 10.2458 2 10.0197Z" fill="#333333"/>
</svg>
