<svg width="24" height="24" viewBox="0 0 24 24" fill="none" xmlns="http://www.w3.org/2000/svg">
<circle cx="12" cy="12" r="11" fill="#444444"/>
<path fill-rule="evenodd" clip-rule="evenodd" d="M24 12C24 18.6274 18.6274 24 12 24C5.37258 24 0 18.6274 0 12C0 5.37258 5.37258 0 12 0C18.6274 0 24 5.37258 24 12ZM3.29627 12.3151C2.8988 12.2659 2.89627 12.2486 2.89278 11.8372C2.89246 11.8 2.89384 11.7625 2.89522 11.7251L2.89523 11.7251C2.89802 11.6493 2.90082 11.5736 2.88951 11.5001C2.84513 11.2115 2.94949 11.0861 3.2457 11.1408C3.40006 11.1694 3.4392 11.092 3.43142 10.9501C3.43076 10.938 3.43036 10.9262 3.42996 10.9147L3.42996 10.9146C3.42652 10.8146 3.42402 10.7418 3.26355 10.7409C2.89635 10.7386 2.89627 10.7251 2.89396 10.3445L2.89396 10.344L2.89345 10.2798C2.89304 10.2356 2.89262 10.1914 2.893 10.1472C2.89351 10.0844 2.87295 10.0492 2.80369 10.03C2.49317 9.94403 2.35965 10.0399 2.36117 10.3565C2.36126 10.3785 2.3606 10.4005 2.35993 10.4225C2.3586 10.4663 2.35727 10.5101 2.36196 10.5532C2.37767 10.6971 2.3231 10.772 2.1742 10.7463C2.0029 10.7167 1.99918 10.8151 2.00008 10.9418C2.00098 11.0669 2.00233 11.1706 2.17375 11.1431C2.35176 11.1145 2.37356 11.2192 2.36139 11.3615C2.3554 11.4323 2.35689 11.5037 2.35838 11.5752C2.35904 11.607 2.3597 11.6389 2.3597 11.6707L2.35238 11.671C2.3548 11.7262 2.35605 11.7816 2.35729 11.837C2.36005 11.9597 2.36281 12.0823 2.37829 12.2033C2.42221 12.546 2.5871 12.6947 2.93192 12.7184C2.98503 12.7221 3.03851 12.7208 3.09198 12.7194H3.09199C3.15116 12.718 3.2103 12.7165 3.2689 12.7218C3.42106 12.7355 3.44044 12.6493 3.43002 12.5324C3.42834 12.5135 3.42894 12.4942 3.42953 12.4753C3.43184 12.4009 3.43397 12.3321 3.29627 12.3151ZM19.6049 10.7481C19.371 10.7767 19.2754 10.6891 19.3143 10.4549C19.3184 10.4301 19.3175 10.4046 19.3165 10.379C19.3157 10.3575 19.3149 10.3359 19.3171 10.3147C19.3371 10.1221 19.3077 10.0126 19.0581 10.0208C18.8372 10.028 18.7542 10.0838 18.7884 10.3013C18.7942 10.3385 18.7929 10.3768 18.7915 10.4151V10.4151V10.4151V10.4151V10.4151V10.4152V10.4152C18.7905 10.4428 18.7896 10.4704 18.7913 10.4977C18.8009 10.6511 18.7946 10.7843 18.578 10.747C18.43 10.7214 18.4312 10.8145 18.4323 10.905V10.905V10.9051V10.9051V10.9052V10.9052V10.9053C18.4325 10.918 18.4327 10.9307 18.4324 10.9429L18.4318 10.9643C18.4289 11.0628 18.4258 11.1663 18.5795 11.1409C18.7944 11.1054 18.8004 11.2338 18.7915 11.388C18.787 11.4654 18.7882 11.5431 18.7893 11.6207V11.6208C18.7898 11.6556 18.7903 11.6903 18.7903 11.725H18.7917C18.7917 11.7689 18.791 11.8128 18.7902 11.8567V11.8568C18.7887 11.9534 18.7871 12.05 18.7931 12.1462C18.8159 12.5087 18.9931 12.6861 19.3567 12.7142C19.4101 12.7183 19.4638 12.7178 19.5175 12.7174C19.5764 12.7168 19.6352 12.7163 19.6934 12.7218C19.8359 12.7354 19.8741 12.6676 19.8603 12.5416C19.858 12.5202 19.8585 12.4983 19.859 12.4767C19.8609 12.3958 19.8627 12.3212 19.712 12.31C19.3562 12.2836 19.3104 12.2147 19.3122 11.8529C19.3124 11.8135 19.3143 11.7739 19.3163 11.7343C19.3203 11.6516 19.3244 11.569 19.3126 11.4887C19.2718 11.2103 19.366 11.0846 19.6566 11.1413C19.8164 11.1726 19.8517 11.0999 19.866 10.9442C19.8873 10.7128 19.7506 10.7299 19.6204 10.7462L19.6049 10.7481ZM8.52835 10.9982C8.60055 10.7727 8.84095 10.6615 9.05838 10.7473C9.14469 10.7814 9.12114 10.833 9.10075 10.8777C9.09618 10.8877 9.09177 10.8974 9.08879 10.9064C8.90476 11.4655 8.71644 12.0232 8.52796 12.5809C8.47029 12.7516 8.35027 12.7373 8.23168 12.7231C8.18467 12.7175 8.13788 12.7119 8.09529 12.7179C7.97495 12.7348 7.87032 12.7245 7.82521 12.5587C7.75477 12.3 7.67021 12.0452 7.58565 11.7903L7.58564 11.7903L7.5856 11.7902C7.55092 11.6857 7.51624 11.5812 7.48254 11.4764L7.42532 11.4866C7.39338 11.5906 7.36041 11.6944 7.32744 11.7982L7.32743 11.7982L7.32742 11.7983L7.32741 11.7983L7.3274 11.7983L7.32739 11.7984L7.32738 11.7984L7.32737 11.7984L7.32736 11.7985C7.24724 12.0507 7.16711 12.303 7.10174 12.559C7.05871 12.7277 6.95611 12.7361 6.83447 12.7164C6.79314 12.7097 6.74813 12.715 6.703 12.7204L6.70299 12.7204C6.58939 12.7339 6.47501 12.7475 6.41662 12.5694C6.23624 12.0194 6.04387 11.4732 5.84654 10.9289C5.78662 10.7637 5.8475 10.7559 5.99133 10.7415C6.23922 10.7168 6.38018 10.7751 6.44049 11.0445C6.49211 11.275 6.56658 11.5004 6.6481 11.7472L6.64811 11.7472L6.64813 11.7473L6.64818 11.7474L6.6482 11.7475C6.6853 11.8598 6.72386 11.9765 6.76239 12.1001C6.80201 11.975 6.84072 11.8556 6.8782 11.74L6.87823 11.7399C6.96679 11.4666 7.04844 11.2147 7.11891 10.9597C7.16295 10.8004 7.22242 10.7187 7.4006 10.7416C7.4376 10.7464 7.47531 10.7467 7.51231 10.747C7.64719 10.7479 7.77276 10.7488 7.82093 10.9684C7.87411 11.2106 7.95538 11.4467 8.04573 11.7091L8.04574 11.7091C8.08722 11.8296 8.13061 11.9556 8.17408 12.0904L8.29502 11.7185L8.29505 11.7185L8.29521 11.718L8.29529 11.7177C8.37855 11.462 8.454 11.2303 8.52835 10.9982ZM10.3218 12.2908C10.4579 12.2943 10.594 12.2978 10.7293 12.2892C10.904 12.2782 10.9499 12.3398 10.9539 12.5107C10.9583 12.6987 10.8759 12.7307 10.7197 12.7231C10.6171 12.7181 10.5141 12.7192 10.4111 12.7203H10.4111H10.4111H10.4111H10.4111H10.4111H10.411H10.411H10.411C10.3454 12.721 10.2798 12.7217 10.2143 12.7208C9.23323 12.708 9.10878 12.0139 9.2463 11.3673C9.32063 11.0174 9.56639 10.8143 9.91036 10.7719C10.102 10.7482 10.2964 10.7481 10.491 10.7481H10.491C10.5966 10.748 10.7022 10.748 10.8074 10.7442C10.9574 10.7388 10.9523 10.8304 10.9473 10.9199C10.9467 10.9314 10.9461 10.9429 10.9458 10.9541C10.9453 10.9694 10.946 10.9853 10.9467 11.0013V11.0014V11.0014V11.0014V11.0014V11.0015V11.0015V11.0015V11.0015C10.9503 11.0842 10.9539 11.1678 10.8079 11.1615C10.679 11.1558 10.5498 11.1572 10.4207 11.1585C10.3438 11.1593 10.2669 11.1601 10.1901 11.1595C10.0743 11.1585 9.96431 11.1801 9.8737 11.2526C9.8135 11.3006 9.77999 11.3788 9.78962 11.4518C9.80109 11.5386 9.86606 11.5314 9.92436 11.5249C9.94104 11.5231 9.95717 11.5213 9.97135 11.5218C10.0499 11.5245 10.1289 11.5224 10.2078 11.5202H10.2079C10.326 11.517 10.444 11.5137 10.5603 11.5269C10.5974 11.5311 10.641 11.5244 10.6855 11.5175C10.8178 11.4971 10.9572 11.4755 10.9538 11.7393C10.9504 11.9909 10.8158 11.968 10.6899 11.9466C10.6493 11.9397 10.6096 11.933 10.5756 11.9356C10.3927 11.9498 10.2085 11.9469 10.022 11.9439H10.022H10.0219H10.0219C9.94362 11.9426 9.86492 11.9414 9.78573 11.9414C9.7868 12.1792 9.89358 12.2864 10.112 12.2869C10.1819 12.2871 10.2519 12.2889 10.3218 12.2908ZM11.7748 10.7483C11.9598 10.7486 12.1448 10.7489 12.3288 10.7625C12.6074 10.7831 12.8493 11.2954 12.6804 11.5139C12.6177 11.5952 12.5171 11.583 12.4168 11.5709C12.3712 11.5654 12.3258 11.5599 12.2839 11.5631C12.1872 11.5705 12.191 11.5083 12.1945 11.4494C12.1956 11.4324 12.1966 11.4156 12.1951 11.4009C12.1933 11.3822 12.1926 11.3631 12.1919 11.3439V11.3439V11.3439C12.1884 11.2513 12.1851 11.16 12.0534 11.1359C11.9014 11.1081 11.7813 11.0974 11.79 11.3239C11.7972 11.5134 11.7955 11.7032 11.7937 11.893V11.893C11.7919 12.0975 11.79 12.3019 11.7993 12.5058C11.8091 12.7188 11.7067 12.7302 11.5462 12.7229C11.5263 12.722 11.5064 12.7219 11.4869 12.7217C11.3581 12.7207 11.2452 12.7198 11.2611 12.5058C11.2747 12.3242 11.2715 12.1413 11.2684 11.9584V11.9584C11.267 11.8782 11.2656 11.7981 11.2656 11.718L11.2656 11.5077V11.506C11.2655 11.314 11.2655 11.1219 11.2658 10.9298L11.2655 10.9045C11.2643 10.8194 11.2632 10.739 11.4008 10.7437C11.5253 10.748 11.6501 10.7482 11.7748 10.7483ZM16.6293 12.2146C16.4424 12.2181 16.3084 12.0556 16.3154 11.8338C16.3228 11.5966 16.5422 11.3381 16.7302 11.3449C16.897 11.351 16.9903 11.4806 16.989 11.7047C16.9873 12.0019 16.84 12.2108 16.6293 12.2146ZM16.6771 10.1367C16.0199 10.1447 15.425 10.5802 15.2081 11.2124C14.9923 11.8407 15.1928 12.6065 15.679 13.0107C16.0941 13.3561 17.1977 13.4843 17.6166 13.2431C17.7299 13.1778 17.712 13.0988 17.6913 13.0075L17.6848 12.9784C17.6599 12.8609 17.6024 12.823 17.4883 12.8571L17.4858 12.8578C17.397 12.8843 17.3073 12.9111 17.216 12.9255C16.8019 12.9909 16.3892 13.012 16.0266 12.7515C15.624 12.4623 15.523 12.042 15.5768 11.5788C15.6294 11.1239 15.8919 10.7961 16.3 10.6153C17.0605 10.2786 17.7843 10.7253 17.7748 11.551L17.7759 11.5719C17.784 11.7202 17.7942 11.9068 17.6824 12.0775C17.6314 12.1554 17.5698 12.2181 17.4801 12.1969C17.378 12.1727 17.3927 12.0924 17.4065 12.0169C17.4083 12.007 17.4101 11.9971 17.4116 11.9874C17.4242 11.9064 17.4364 11.8254 17.4486 11.7443L17.4486 11.7442L17.4486 11.7441L17.4487 11.744L17.4487 11.7439L17.4487 11.7438L17.4487 11.7438L17.4487 11.7437L17.4487 11.7437L17.4487 11.7436C17.4713 11.5933 17.494 11.443 17.5192 11.2932C17.567 11.0093 17.4486 10.8963 17.189 11.0196C17.0753 11.0736 17.0152 11.0628 16.9192 11.0112C16.7539 10.9222 16.586 10.9438 16.4036 10.9969C15.9566 11.127 15.7204 11.9081 15.9704 12.3042C16.1612 12.6065 16.5092 12.7273 16.7871 12.5361C16.944 12.4282 17.037 12.4161 17.1843 12.5504C17.3182 12.6725 17.5013 12.6481 17.6618 12.564C18.0309 12.3706 18.1864 12.0352 18.2179 11.6461C18.2915 10.7346 17.6607 10.1249 16.6771 10.1367ZM13.4348 11.8282C13.4555 12.1886 13.6211 12.2945 14.1101 12.2875C14.3615 12.284 14.3377 12.1571 14.3139 12.0306C14.3023 11.9689 14.2908 11.9073 14.3111 11.8602C14.3204 11.8386 14.3179 11.8119 14.3153 11.7852C14.3142 11.773 14.313 11.7609 14.313 11.7492L14.3129 11.5556L14.3128 11.3298C14.3126 11.2381 14.2939 11.1812 14.177 11.1658C13.6559 11.0974 13.4052 11.3156 13.4348 11.8282ZM14.3064 10.2153C14.3081 10.0357 14.3868 10.0075 14.525 10.0328C14.5572 10.0386 14.5948 10.0346 14.6325 10.0305H14.6325C14.7374 10.0191 14.8434 10.0075 14.8385 10.2091C14.8318 10.4847 14.8333 10.7605 14.8348 11.0362V11.0363C14.8354 11.1537 14.836 11.2711 14.836 11.3885H14.8348C14.8348 11.4957 14.8343 11.6029 14.8338 11.7101L14.8338 11.7107C14.8325 11.9777 14.8311 12.2448 14.838 12.5117C14.8419 12.6655 14.8026 12.7334 14.6374 12.7232C14.5055 12.7151 14.3732 12.7176 14.2409 12.7201H14.2408C14.0272 12.7242 13.8135 12.7283 13.6013 12.6876C13.1193 12.5952 12.8501 12.2077 12.878 11.6462C12.904 11.1218 13.2084 10.7908 13.6984 10.7542C13.7264 10.7521 13.7545 10.7504 13.7825 10.7491L13.7842 10.749C14.292 10.7244 14.3017 10.724 14.3064 10.2153ZM21.4625 12.1565C21.4759 12.2541 21.4457 12.3182 21.3278 12.31C21.2639 12.3056 21.1996 12.3067 21.1352 12.3078C21.1067 12.3082 21.0781 12.3087 21.0496 12.3087L21.049 12.3202C21.0121 12.3176 20.9752 12.3153 20.9383 12.3129C20.8551 12.3076 20.7718 12.3023 20.6887 12.2948C20.5906 12.286 20.535 12.2285 20.5383 12.1302C20.5413 12.0432 20.5694 11.967 20.6697 11.942C20.8805 11.8895 21.0951 11.9005 21.3075 11.9113L21.3628 11.9141C21.4807 11.9199 21.4727 11.9996 21.4649 12.0769C21.462 12.105 21.4592 12.1327 21.4625 12.1565ZM21.9944 11.4551C21.9874 11.02 21.7616 10.7787 21.323 10.7552C21.1069 10.7436 20.8901 10.7444 20.6734 10.7451C20.5716 10.7455 20.4699 10.7459 20.3682 10.7449C20.3544 10.7448 20.3407 10.7444 20.3271 10.7439C20.2133 10.7402 20.1139 10.7369 20.1193 10.9311C20.1245 11.1155 20.175 11.1712 20.3568 11.1592C20.5108 11.1491 20.6655 11.152 20.8203 11.1549H20.8203L20.8204 11.1549C20.8999 11.1564 20.9795 11.1578 21.059 11.1575C21.1643 11.1572 21.2626 11.1765 21.354 11.2318C21.4402 11.284 21.4545 11.3674 21.4385 11.4512C21.4246 11.5245 21.3684 11.5184 21.3169 11.5128C21.3024 11.5112 21.2883 11.5097 21.2756 11.51C21.1976 11.5118 21.1195 11.5111 21.0413 11.5103C20.8291 11.5084 20.6169 11.5065 20.4081 11.5545C20.126 11.6194 19.9977 11.8112 20.0005 12.1417C20.0031 12.4488 20.1368 12.6234 20.4152 12.689C20.5823 12.7284 20.7509 12.7242 20.9089 12.7202C20.9962 12.7179 21.0803 12.7158 21.159 12.7212C21.2331 12.7212 21.3033 12.7204 21.3708 12.7196H21.3708C21.5189 12.7179 21.654 12.7163 21.7887 12.7238C21.9424 12.7323 22.0053 12.6892 21.9997 12.5226C21.9928 12.3187 21.994 12.1146 21.9951 11.9105C21.9959 11.7587 21.9968 11.6069 21.9944 11.4551ZM4.21975 11.7294C4.21953 12.0874 4.41984 12.3263 4.71431 12.3192C5.02578 12.3117 5.20689 12.0959 5.20835 11.7307C5.20993 11.3569 5.03491 11.1501 4.71836 11.1515C4.40199 11.1529 4.21998 11.3639 4.21975 11.7294ZM3.68133 11.7504C3.67654 11.1141 4.07142 10.7104 4.70175 10.7071C5.33934 10.7037 5.75055 11.0963 5.76063 11.7182C5.77065 12.3341 5.35916 12.7393 4.72078 12.7422C4.09034 12.7451 3.68589 12.3593 3.68133 11.7504Z" fill="#DFDFDF"/>
</svg>
