<svg viewBox="0 0 96 64" fill="none" xmlns="http://www.w3.org/2000/svg">
  <g opacity=".2" fill="#888">
    <path d="M79.221 24.4l1.158-.3c.214-.043.428-.257.471-.471l.3-1.158c.086-.3.343-.47.6-.47.3 0 .557.213.6.47l.3 1.158c.043.214.257.428.471.471l1.158.3c.3.086.471.343.471.6 0 .3-.214.557-.471.6l-1.158.3c-.214.043-.428.257-.471.472l-.3 1.157c-.086.3-.343.471-.6.471-.3 0-.557-.214-.6-.471l-.3-1.157c-.043-.215-.257-.429-.471-.472l-1.158-.3c-.3-.086-.471-.343-.471-.6 0-.3.214-.557.471-.6z"/>
    <path d="M11.957 19.6l1.736-.45c.321-.064.643-.386.707-.707l.45-1.736c.129-.45.514-.707.9-.707.45 0 .836.322.9.707l.45 1.736c.064.321.386.643.707.707l1.736.45c.45.129.707.514.707.9 0 .45-.321.836-.707.9l-1.736.45c-.321.064-.643.386-.707.707l-.45 1.736c-.129.45-.514.707-.9.707-.45 0-.836-.321-.9-.707l-.45-1.736c-.064-.321-.386-.643-.707-.707l-1.736-.45c-.45-.128-.707-.514-.707-.9 0-.45.321-.836.707-.9z"/>
    <path d="M.471 35.65l1.158-.3c.214-.043.428-.257.471-.471l.3-1.157c.086-.3.343-.472.6-.472.3 0 .557.214.6.471l.3 1.158c.043.214.257.428.471.471l1.158.3c.3.086.471.343.471.6 0 .3-.214.557-.471.6l-1.158.3c-.214.043-.428.257-.471.471l-.3 1.158c-.086.3-.343.471-.6.471-.3 0-.557-.214-.6-.471l-.3-1.158c-.043-.214-.257-.428-.471-.47l-1.158-.3c-.3-.087-.471-.344-.471-.6 0-.3.214-.558.471-.6z"/>
    <path d="M94.875 34.75c-.619 0-1.125-.506-1.125-1.125s.506-1.125 1.125-1.125S96 33.006 96 33.625s-.506 1.125-1.125 1.125z"/>
    <path d="M17.25 48.25c-.825 0-1.5-.675-1.5-1.5s.675-1.5 1.5-1.5 1.5.675 1.5 1.5-.675 1.5-1.5 1.5z"/>
  </g>
  <path fill-rule="evenodd" clip-rule="evenodd" d="M40 8h21c1.657 0 3 1.343 3 3v21.803c0 2.104-1.102 4.054-2.905 5.14L61 38l-.1.149c-3.505 2.161-6.021 5.774-6.71 10l-3.035 4.523c-.558.83-1.492 1.328-2.492 1.328H40c-1.657 0-3-1.343-3-3V11c0-1.657 1.343-3 3-3z" fill="#666"/>
  <path fill-rule="evenodd" clip-rule="evenodd" d="M35 8h23c1.657 0 3 1.343 3 3v27.088c-4.196 2.54-7 7.149-7 12.412v3.381C53.623 55.108 52.482 56 51.132 56H35c-1.657 0-3-1.343-3-3V11c0-1.657 1.343-3 3-3z" fill="#888"/>
  <path fill-rule="evenodd" clip-rule="evenodd" d="M40.25 11.138V10h-4.967c-.71 0-1.283.586-1.283 1.303v40.394c0 .717.572 1.303 1.283 1.303H54v-2.5c0-4.374 1.937-8.296 5-10.955V11.303c0-.717-.572-1.303-1.283-1.303H52.75v1.138c0 .621-.504 1.125-1.125 1.125h-10.25c-.621 0-1.125-.504-1.125-1.125z" fill="#FFD65C"/>
  <path d="M50.97 29.86c-1.455 2.348-4.575 3.21-7.12 2.023-.196-.093-.262-.33-.153-.51l.723-1.162c.175-.278-.099-.619-.432-.536l-4.701 1.16c-.208.052-.328.253-.274.444l1.226 4.448c.088.315.53.372.706.093l.706-1.14c.104-.17.334-.227.52-.134 4.11 2.064 9.248.712 11.629-3.122.968-1.558 1.33-3.292 1.16-4.964-.033-.31-.345-.521-.663-.444l-1.81.449c-.455.113-.756.495-.767.94-.027.835-.263 1.676-.744 2.45l-.006.005z" fill="#F9BE1A"/>
  <path d="M41.778 24.14c1.364-2.348 4.289-3.21 6.674-2.023.185.093.247.33.144.51l-.677 1.162c-.164.278.092.619.405.536l4.407-1.16c.195-.052.308-.253.257-.444l-1.15-4.448c-.082-.315-.497-.372-.661-.093l-.662 1.14c-.098.17-.313.227-.488.134-3.852-2.064-8.67-.712-10.901 3.122-.909 1.558-1.247 3.292-1.088 4.964.03.31.323.521.62.444l1.699-.449c.426-.113.708-.495.718-.94.026-.835.246-1.676.698-2.45l.005-.005z" fill="#F9BE1A"/>
  <path d="M69 63c6.627 0 12-5.373 12-12s-5.373-12-12-12-12 5.373-12 12 5.373 12 12 12z" fill="#DE5833"/>
  <path d="M85.924 50.643h2.701c.496 0 .901.405.901.9 0 .496-.405.901-.9.901h-2.702c-.495 0-.9-.405-.9-.9 0-.496.405-.9.9-.9z" fill="#CCC"/>
  <path d="M86.824 42.539c.23 0 .46.09.635.265.351.351.351.923 0 1.274l-1.8 1.801c-.352.352-.924.352-1.275 0-.351-.35-.351-.923 0-1.274l1.801-1.8c.176-.176.405-.266.635-.266h.004z" fill="#CCC"/>
  <path d="M85.028 56.947c-.23 0-.46.09-.635.266-.35.351-.35.923 0 1.274l1.801 1.801c.352.352.923.352 1.275 0 .35-.35.35-.923 0-1.274l-1.801-1.8c-.176-.176-.406-.267-.635-.267h-.005z" fill="#CCC"/>
  <path fill-rule="evenodd" clip-rule="evenodd" d="M62.5 49c-.276 0-.5.224-.5.5v3c0 .276.224.5.5.5h13c.276 0 .5-.224.5-.5v-3c0-.276-.224-.5-.5-.5h-13z" fill="#fff"/>
</svg>
