<svg fill="none" viewBox="0 0 24 24" xmlns="http://www.w3.org/2000/svg">
  <path fill="#000" fill-rule="evenodd" d="M6.076 2.617A1 1 0 0 1 7 2h12a1 1 0 0 1 1 1v12a1 1 0 0 1-1.707.707l-3.42-3.42c-4.292 2.735-6.572 6.771-7.521 8.458l-.011.02c-.123.218-.237.42-.328.567a2.408 2.408 0 0 1-.177.252 1.178 1.178 0 0 1-.186.185c-.06.048-.294.23-.65.23h-.5c-.54 0-.881-.338-1.049-.598a2.337 2.337 0 0 1-.294-.773C4.047 20.12 4 19.408 4 18.5c0-2.322 1.022-4.745 2.264-6.84 1.042-1.758 2.287-3.367 3.372-4.61L6.293 3.707a1 1 0 0 1-.217-1.09ZM9.414 4l2.306 2.306a1 1 0 0 1 .027 1.386c-1.144 1.236-2.6 3.024-3.762 4.987C6.808 14.664 6 16.712 6 18.499c0 .207.003.394.008.564 1.237-2.134 3.874-6.22 8.517-8.904a1 1 0 0 1 1.207.159L18 12.586V4z" clip-rule="evenodd"/>
</svg>
