<svg viewBox="0 0 24 24" fill="none" xmlns="http://www.w3.org/2000/svg">
  <path fill-rule="evenodd" clip-rule="evenodd" d="M6 3C3.79 3 2 4.79 2 7v10c0 2.21 1.79 4 4 4h6c.552 0 1-.448 1-1s-.448-1-1-1H6c-1.105 0-2-.895-2-2v-5h16v2c0 .552.448 1 1 1s1-.448 1-1v-4c0-2.21-1.79-4-4-4h-5c0-1.657-1.343-3-3-3H6zm14 7H4V7c0-1.105.895-2 2-2h4c.552 0 1 .448 1 1 0 1.105.895 2 2 2h5c1.105 0 2 .895 2 2z" fill="#000"/>
  <path d="M19 15c0-.552-.448-1-1-1s-1 .448-1 1v2h-2c-.552 0-1 .448-1 1s.448 1 1 1h2v2c0 .552.448 1 1 1s1-.448 1-1v-2h2c.552 0 1-.448 1-1s-.448-1-1-1h-2v-2z" fill="#000"/>
</svg>
