<svg width="24" height="24" viewBox="0 0 24 24" fill="none" xmlns="http://www.w3.org/2000/svg">
<circle cx="12" cy="12" r="11" fill="white"/>
<path fill-rule="evenodd" clip-rule="evenodd" d="M24 12C24 18.6274 18.6274 24 12 24C5.37258 24 0 18.6274 0 12C0 5.37258 5.37258 0 12 0C18.6274 0 24 5.37258 24 12ZM3.74049 13.5771C4.09294 13.5877 4.41612 13.3817 4.55532 13.0577C4.61069 12.9068 4.63818 12.7471 4.63639 12.5864V12.5726C4.6379 12.4332 4.61853 12.2941 4.57868 12.1604C4.45528 11.8051 4.11795 11.5691 3.74186 11.575C3.21682 11.5764 2.83084 11.9735 2.83084 12.5726C2.83084 13.1717 3.19635 13.5771 3.74049 13.5771ZM5.47183 14.2353H4.81914C4.82203 14.1344 4.8142 14.0336 4.79578 13.9343C4.50681 14.1546 4.15573 14.2783 3.7927 14.2875H3.48078C2.6687 14.2298 2.06273 13.5249 2.00639 12.6922C1.99787 12.6008 1.99787 12.5089 2.00639 12.4174C2.05709 11.6532 2.62542 11.0235 3.38048 10.8949C3.52572 10.8699 3.67288 10.8585 3.82018 10.8605C4.06807 10.8631 4.31307 10.912 4.54295 11.0048V9.2597L5.47183 9V14.2353ZM11.3735 14.1927C11.21 14.2324 11.0412 14.2467 10.8733 14.2353C10.1629 14.1542 9.98842 13.6279 9.96507 13.0797V12.721V11.5998H9.40169V10.866H9.96507V9.9701L10.8857 9.65819V10.866H11.4353V11.5998H10.8857V12.699V12.901C10.8967 13.1607 10.9668 13.2995 11.1001 13.3407C11.2081 13.3766 11.3247 13.3766 11.4326 13.3407V14.1817L11.3735 14.1927ZM14.0791 12.5987C14.0736 13.1758 13.7149 13.5606 13.1942 13.5606C12.6596 13.5606 12.3024 13.1607 12.3024 12.5726C12.3024 11.9845 12.6873 11.5846 13.1942 11.5901C13.7012 11.5956 14.0791 11.9804 14.0791 12.5726V12.5987ZM14.9365 14.2353V10.8646L14.3415 11.0515C13.9598 10.9159 13.5566 10.8512 13.1516 10.8605C13.1112 10.8605 13.0716 10.8635 13.0339 10.8664C12.9998 10.869 12.9673 10.8715 12.9372 10.8715C12.1004 10.9416 11.4697 11.6959 11.4697 12.5767C11.4697 13.4575 12.0935 14.2133 12.9372 14.282C13.3464 14.3239 13.7542 14.1894 14.0585 13.9123V14.2353H14.9365ZM7.42031 13.5606C7.94109 13.5606 8.29959 13.1758 8.30509 12.5987V12.5726C8.30509 11.9804 7.92721 11.5956 7.42031 11.5901C6.91328 11.5846 6.52853 11.9845 6.52853 12.5726C6.52853 13.1607 6.88566 13.5606 7.42031 13.5606ZM9.16265 10.8619V14.2353H8.28461V13.9123C7.98039 14.1894 7.57256 14.3239 7.16336 14.282C6.31953 14.2133 5.6957 13.4575 5.6957 12.5767C5.6957 11.6959 6.32654 10.9416 7.16336 10.8715C7.19342 10.8715 7.22598 10.869 7.26011 10.8664L7.26014 10.8664C7.29776 10.8635 7.33731 10.8605 7.37758 10.8605C7.78266 10.8512 8.18582 10.9159 8.56768 11.0515L9.16265 10.8619ZM16.8863 13.3009L17.6022 14.2353H18.6039L17.4167 12.5864L18.6081 10.8619H17.627L16.8863 11.8609L16.1402 10.8619H15.1591L16.3559 12.5864L15.166 14.2353H16.1718L16.8863 13.3009ZM19.7637 12.3679V12.8296C19.7981 13.2116 20.0124 13.4136 20.4109 13.4136C20.8093 13.4136 21.0238 13.2116 21.0526 12.8296C21.0526 12.7594 21.0552 12.6863 21.0579 12.6112L21.0579 12.6111C21.0607 12.5318 21.0636 12.4504 21.0636 12.3679V10.8674H21.9994V12.6537C22.0016 12.7614 21.998 12.8693 21.9882 12.9766C21.9307 13.7434 21.3233 14.2353 20.4192 14.2353C19.4421 14.2353 18.8292 13.698 18.8292 12.7966V10.8729H19.7651L19.7637 12.3679Z" fill="#333333"/>
</svg>
