<svg width="24" height="24" fill="none" xmlns="http://www.w3.org/2000/svg">
  <g clip-path="url(#LiveIntent_svg__a)">
    <path fill="#FFA119" d="M24 12c0 6.627-5.373 12-12 12S0 18.627 0 12 5.373 0 12 0s12 5.373 12 12Z"/>
    <path fill="#000" fill-opacity=".12" fill-rule="evenodd" d="M24 12c0 6.627-5.373 12-12 12S0 18.627 0 12 5.373 0 12 0s12 5.373 12 12ZM12 23.5c6.351 0 11.5-5.149 11.5-11.5S18.351.5 12 .5.5 5.649.5 12 5.649 23.5 12 23.5Z" clip-rule="evenodd"/>
    <path fill="#FFCA70" d="M11.996 7.537a6.493 6.493 0 0 0 2.7 5.274A9.78 9.78 0 0 0 9.318 18.5h-.786A3.033 3.033 0 0 1 5.5 15.467V8.533A3.033 3.033 0 0 1 8.532 5.5h3.79a6.494 6.494 0 0 0-.325 2.037Z"/>
    <path fill="#fff" d="M14.478 5.5h.988A3.034 3.034 0 0 1 18.5 8.533v3.51A4.507 4.507 0 0 1 14.478 5.5Zm4.022 8.537v1.43a3.034 3.034 0 0 1-3.034 3.033h-3.992a7.759 7.759 0 0 1 7.026-4.463Z"/>
  </g>
  <defs>
    <clipPath id="LiveIntent_svg__a">
      <path fill="#fff" d="M0 0h24v24H0z"/>
    </clipPath>
  </defs>
</svg>
