<svg width="128" height="96" viewBox="0 0 128 96" fill="none" xmlns="http://www.w3.org/2000/svg">
<g opacity="0.2">
<path d="M105.629 38.2L107.171 37.8C107.457 37.7429 107.743 37.4571 107.8 37.1714L108.2 35.6286C108.314 35.2286 108.657 35 109 35C109.4 35 109.743 35.2857 109.8 35.6286L110.2 37.1714C110.257 37.4571 110.543 37.7429 110.829 37.8L112.371 38.2C112.771 38.3143 113 38.6571 113 39C113 39.4 112.714 39.7429 112.371 39.8L110.829 40.2C110.543 40.2571 110.257 40.5429 110.2 40.8286L109.8 42.3714C109.686 42.7714 109.343 43 109 43C108.6 43 108.257 42.7143 108.2 42.3714L107.8 40.8286C107.743 40.5429 107.457 40.2571 107.171 40.2L105.629 39.8C105.229 39.6857 105 39.3429 105 39C105 38.6 105.286 38.2571 105.629 38.2Z" fill="#888888"/>
<path d="M15.9428 31.8L18.2571 31.2C18.6857 31.1143 19.1143 30.6857 19.2 30.2571L19.8 27.9429C19.9714 27.3429 20.4857 27 21 27C21.6 27 22.1143 27.4286 22.2 27.9429L22.8 30.2571C22.8857 30.6857 23.3143 31.1143 23.7429 31.2L26.0572 31.8C26.6572 31.9714 27 32.4857 27 33C27 33.6 26.5714 34.1143 26.0572 34.2L23.7429 34.8C23.3143 34.8857 22.8857 35.3143 22.8 35.7429L22.2 38.0571C22.0286 38.6571 21.5143 39 21 39C20.4 39 19.8857 38.5714 19.8 38.0571L19.2 35.7429C19.1143 35.3143 18.6857 34.8857 18.2571 34.8L15.9428 34.2C15.3428 34.0286 15 33.5143 15 33C15 32.4 15.4285 31.8857 15.9428 31.8Z" fill="#888888"/>
<path d="M0.628557 53.2L2.17142 52.8C2.45714 52.7429 2.74287 52.4571 2.80001 52.1714L3.19999 50.6286C3.31427 50.2286 3.65714 50 4 50C4.4 50 4.74287 50.2857 4.80001 50.6286L5.19999 52.1714C5.25713 52.4571 5.54286 52.7429 5.82858 52.8L7.37144 53.2C7.77144 53.3143 8 53.6571 8 54C8 54.4 7.7143 54.7429 7.37144 54.8L5.82858 55.2C5.54286 55.2571 5.25713 55.5429 5.19999 55.8286L4.80001 57.3714C4.68573 57.7714 4.34286 58 4 58C3.6 58 3.25713 57.7143 3.19999 57.3714L2.80001 55.8286C2.74287 55.5429 2.45714 55.2571 2.17142 55.2L0.628557 54.8C0.228557 54.6857 0 54.3429 0 54C0 53.6 0.2857 53.2571 0.628557 53.2Z" fill="#888888"/>
<path d="M126.5 52C125.675 52 125 51.325 125 50.5C125 49.675 125.675 49 126.5 49C127.325 49 128 49.675 128 50.5C128 51.325 127.325 52 126.5 52Z" fill="#888888"/>
<path d="M23 70C21.9 70 21 69.1 21 68C21 66.9 21.9 66 23 66C24.1 66 25 66.9 25 68C25 69.1 24.1 70 23 70Z" fill="#888888"/>
</g>
<path d="M74 65H56V79L74 76.2001V65Z" fill="#ABABAB"/>
<path d="M35 18.6667C35 17.1939 36.1939 16 37.6667 16H93.3333C94.8061 16 96 17.1939 96 18.6667V37.3333C96 38.8061 94.8061 40 93.3333 40H37.6667C36.1939 40 35 38.8061 35 37.3333V18.6667Z" fill="#888888"/>
<path d="M91.1374 16H33.8626C32.8339 16 32 16.9133 32 18.04V64.96C32 66.0867 32.8339 67 33.8626 67H74V48C74 43.5817 77.5817 40 82 40H93V18.04C93 16.9133 92.1661 16 91.1374 16Z" fill="#CCCCCC"/>
<path d="M88.6364 20H36.3636C35.6105 20 35 20.6876 35 21.5357V61.4643C35 62.3124 35.6105 63 36.3636 63H74V48C74 43.5817 77.5817 40 82 40H90V21.5357C90 20.6876 89.3895 20 88.6364 20Z" fill="#FFD65C"/>
<path d="M54.5483 36.0513C56.9137 31.8251 61.9825 30.274 66.1175 32.4103C66.4377 32.5775 66.5444 33.0047 66.3665 33.3298L65.1927 35.4197C64.9082 35.9213 65.3528 36.5343 65.8952 36.3857L73.534 34.2958C73.8719 34.2029 74.0675 33.8407 73.9786 33.497L71.9866 25.4905C71.8444 24.9239 71.1241 24.8217 70.8395 25.3233L69.6924 27.376C69.5234 27.6825 69.1499 27.7847 68.8476 27.6175C62.1692 23.9022 53.8191 26.3357 49.9508 33.2369C48.3768 36.042 47.7899 39.1629 48.0656 42.1723C48.1189 42.7296 48.6258 43.1104 49.1416 42.9711L52.085 42.163C52.8231 41.9587 53.3122 41.2714 53.33 40.4726C53.3744 38.9679 53.7568 37.4539 54.5394 36.0606L54.5483 36.0513Z" fill="#F9BE1A"/>
<path d="M58.1856 48.5897C62.4797 50.726 67.7435 49.1749 70.1999 44.9487L70.2091 44.9394C71.0217 43.5461 71.4188 42.0321 71.465 40.5274C71.4835 39.7286 71.9914 39.0413 72.7579 38.837L75.8145 38.0289C76.3501 37.8896 76.8765 38.2704 76.9319 38.8277C77.0261 39.8183 77.0233 40.821 76.9188 41.8206C75.1365 43.2878 74 45.5112 74 48V49.2324C69.6729 54.9932 61.7684 56.8206 55.3506 53.3825C55.0366 53.2153 54.6488 53.3175 54.4733 53.624L53.2821 55.6767C52.9866 56.1783 52.2385 56.0761 52.0908 55.5095L50.0222 47.503C49.9299 47.1593 50.1331 46.7971 50.484 46.7042L58.4165 44.6143C58.9798 44.4657 59.4415 45.0787 59.146 45.5803L57.9271 47.6702C57.7424 47.9953 57.8532 48.4225 58.1856 48.5897Z" fill="#F9BE1A"/>
<path d="M45 78C45 76.8954 45.8954 76 47 76H74V77C74 78.6569 72.6569 80 71 80H47C45.8954 80 45 79.1046 45 78Z" fill="#888888"/>
<path d="M103 44H95C92.7909 44 91 45.7909 91 48V71V84C91 86.2091 92.7909 88 95 88H101.053H103C105.209 88 107 86.2091 107 84V48C107 45.7909 105.209 44 103 44Z" fill="#666666"/>
<path d="M100 44H82C79.7909 44 78 45.7909 78 48V84C78 86.2091 79.7909 88 82 88H100C102.209 88 104 86.2091 104 84V76.1538V48C104 45.7909 102.209 44 100 44Z" fill="#888888"/>
<path fill-rule="evenodd" clip-rule="evenodd" d="M85 47V47.5C85 48.3284 85.6716 49 86.5 49H95.5C96.3284 49 97 48.3284 97 47.5V47H99.9737C100.542 47 101 47.5182 101 48.1515V83.8485C101 84.4818 100.542 85 99.9737 85H82.0263C81.4579 85 81 84.4818 81 83.8485V48.1515C81 47.5182 81.4579 47 82.0263 47H85Z" fill="#FFD65C"/>
<path d="M94.2296 62.7023C93.2288 64.3458 91.0843 64.949 89.3349 64.1182C89.1994 64.0532 89.1543 63.887 89.2295 63.7606L89.7262 62.9479C89.8465 62.7528 89.6584 62.5144 89.4289 62.5722L86.1972 63.385C86.0542 63.4211 85.9714 63.562 86.0091 63.6956L86.8518 66.8093C86.912 67.0296 87.2167 67.0693 87.3371 66.8743L87.8225 66.076C87.8939 65.9568 88.052 65.9171 88.1799 65.9821C91.0053 67.4269 94.5381 66.4806 96.1747 63.7967C96.8406 62.7059 97.0889 61.4922 96.9723 60.3219C96.9497 60.1051 96.7352 59.957 96.517 60.0112L95.2717 60.3255C94.9595 60.405 94.7525 60.6722 94.745 60.9829C94.7262 61.5681 94.5644 62.1568 94.2333 62.6987L94.2296 62.7023Z" fill="#F9BE1A"/>
<path d="M88.0223 58.2977C89.114 56.6542 91.4535 56.051 93.3619 56.8818C93.5097 56.9468 93.5589 57.113 93.4769 57.2394L92.9351 58.0521C92.8038 58.2472 93.009 58.4856 93.2593 58.4278L96.7849 57.615C96.9409 57.5789 97.0312 57.438 96.9901 57.3044L96.0708 54.1907C96.0051 53.9704 95.6726 53.9307 95.5413 54.1257L95.0119 54.924C94.9339 55.0432 94.7615 55.0829 94.622 55.0179C91.5396 53.5731 87.6857 54.5194 85.9004 57.2033C85.1739 58.2941 84.903 59.5078 85.0303 60.6781C85.0549 60.8949 85.2888 61.043 85.5269 60.9888L86.8854 60.6745C87.226 60.595 87.4518 60.3278 87.46 60.0171C87.4805 59.4319 87.657 58.8432 88.0182 58.3013L88.0223 58.2977Z" fill="#F9BE1A"/>
</svg>
