<svg width="24" height="24" viewBox="0 0 24 24" fill="none" xmlns="http://www.w3.org/2000/svg">
<path fill-rule="evenodd" clip-rule="evenodd" d="M14.7929 3.79295C16.288 2.29786 18.712 2.29786 20.2071 3.79295C21.7022 5.28805 21.7022 7.71207 20.2071 9.20717L18.7233 10.6909C18.7131 10.7016 18.7026 10.7121 18.692 10.7223L10.3494 19.0649C9.791 19.6233 9.07981 20.0039 8.30544 20.1588L4.19613 20.9806C3.86827 21.0462 3.52933 20.9436 3.29291 20.7072C3.05649 20.4707 2.95386 20.1318 3.01944 19.8039L3.8413 15.6946C3.99617 14.9203 4.37679 14.2091 4.93519 13.6507L13.2797 5.30616C13.2887 5.29683 13.2978 5.28766 13.3072 5.27867L14.7929 3.79295ZM13.6191 7.79521L6.34941 15.0649C6.07021 15.3441 5.8799 15.6997 5.80246 16.0869L5.27477 18.7253L7.91321 18.1976C8.30039 18.1202 8.65599 17.9299 8.93519 17.6507L16.2048 10.381C15.0952 9.80939 14.1907 8.90483 13.6191 7.79521ZM17.7299 8.85596L17.688 8.84197C16.4935 8.44383 15.5563 7.50657 15.1581 6.31215L15.1441 6.27015L16.2071 5.20717C16.9212 4.49312 18.0789 4.49312 18.7929 5.20716C19.507 5.92121 19.507 7.07891 18.7929 7.79295L17.7299 8.85596Z" fill="black" fill-opacity="0.84"/>
<path d="M21 15.5001C21.5523 15.5001 22 15.9478 22 16.5001V17.0001C22 19.2092 20.2091 21.0001 18 21.0001H13C12.4477 21.0001 12 20.5523 12 20.0001C12 19.4478 12.4477 19.0001 13 19.0001H18C19.1046 19.0001 20 18.1046 20 17.0001V16.5001C20 15.9478 20.4477 15.5001 21 15.5001Z" fill="black" fill-opacity="0.84"/>
</svg>
