<svg width="24" height="24" fill="none" xmlns="http://www.w3.org/2000/svg">
  <g clip-path="url(#Cloudflare_svg__a)">
    <path fill="#fff" d="M24 12c0 6.627-5.373 12-12 12S0 18.627 0 12 5.373 0 12 0s12 5.373 12 12Z"/>
    <path fill="#000" fill-opacity=".12" fill-rule="evenodd" d="M24 12c0 6.627-5.373 12-12 12S0 18.627 0 12 5.373 0 12 0s12 5.373 12 12ZM12 23.5c6.351 0 11.5-5.149 11.5-11.5S18.351.5 12 .5.5 5.649.5 12 5.649 23.5 12 23.5Z" clip-rule="evenodd"/>
    <path fill="#F78100" d="m15.106 14.574.083-.3c.104-.358.065-.689-.108-.932a.944.944 0 0 0-.752-.37l-6.126-.079a.124.124 0 0 1-.097-.05.126.126 0 0 1-.012-.112.167.167 0 0 1 .142-.108l6.18-.079c.733-.033 1.527-.629 1.806-1.354l.352-.919a.208.208 0 0 0 .013-.079.199.199 0 0 0-.004-.043 4.026 4.026 0 0 0-7.742-.418A1.812 1.812 0 0 0 6 11.631a2.575 2.575 0 0 0-2.473 2.946.12.12 0 0 0 .127.106h11.312a.15.15 0 0 0 .14-.11Z"/>
    <path fill="#FCAD32" d="M17.147 10.34h-.167a.128.128 0 0 0-.026.006.095.095 0 0 0-.062.065l-.241.835c-.104.358-.064.689.11.93a.943.943 0 0 0 .75.372l1.306.078a.12.12 0 0 1 .094.05.127.127 0 0 1 .013.112.167.167 0 0 1-.142.109l-1.356.078c-.737.034-1.531.628-1.81 1.354l-.097.257a.073.073 0 0 0 .065.098h4.672a.124.124 0 0 0 .12-.09 3.354 3.354 0 0 0-3.229-4.254Z"/>
  </g>
  <defs>
    <clipPath id="Cloudflare_svg__a">
      <path fill="#fff" d="M0 0h24v24H0z"/>
    </clipPath>
  </defs>
</svg>
