<svg width="24" height="24" fill="none" xmlns="http://www.w3.org/2000/svg">
  <g clip-path="url(#Inmar_svg__a)">
    <path fill="#2E3584" d="M24 12c0 6.627-5.373 12-12 12S0 18.627 0 12 5.373 0 12 0s12 5.373 12 12Z"/>
    <path fill="#fff" fill-opacity=".12" fill-rule="evenodd" d="M24 12c0 6.627-5.373 12-12 12S0 18.627 0 12 5.373 0 12 0s12 5.373 12 12ZM12 23.5c6.351 0 11.5-5.149 11.5-11.5S18.351.5 12 .5.5 5.649.5 12 5.649 23.5 12 23.5Z" clip-rule="evenodd"/>
    <path fill="#fff" d="M16.61 12.42h3.388l-.201 1.428h-.205c-2.107 0-4.214.021-6.32-.009-1.18-.016-2.192.367-3.105 1.075-.456.354-.907.715-1.366 1.065a3.133 3.133 0 0 1-1.97.665c-.419-.002-.837.002-1.255-.004a.22.22 0 0 1-.158-.074 7.75 7.75 0 0 1-1.151-2.44c-.004-.014 0-.03 0-.063h.16c.746 0 1.494-.009 2.24.002a2.539 2.539 0 0 0 1.64-.536c.312-.24.617-.488.933-.722a2.007 2.007 0 0 1 1.243-.39c2.037.005 4.074.002 6.126.002ZM4.863 8.348c.184-.308.361-.608.545-.903.025-.039.082-.082.123-.082.573.003 1.146-.004 1.718.025.54.026 1.024.244 1.455.563.483.359.951.738 1.428 1.106.608.47 1.264.852 2.028 1 .296.059.603.084.904.085 2.188.007 4.375.004 6.562.004h.168l.206 1.43h-.208c-3.099 0-6.198-.005-9.297.004a2.14 2.14 0 0 1-1.355-.46c-.284-.218-.563-.443-.848-.661a2.543 2.543 0 0 0-1.613-.527c-.747.006-1.495.001-2.242.001h-.182a7.71 7.71 0 0 1 .608-1.585Z"/>
    <path fill="#fff" d="M13.652 16.116c-.665 0-1.206.274-1.698.672-.504.408-.891.921-1.296 1.42-.317.39-.653.763-.978 1.147-.16.19-.323.216-.567.118a8.298 8.298 0 0 1-2.812-1.845c-.039-.038-.075-.078-.14-.146h.317c.514.007 1.024-.01 1.524-.156.669-.196 1.22-.593 1.76-1.013.487-.378.972-.762 1.483-1.105.554-.372 1.18-.523 1.853-.52 2.078.008 4.156.003 6.233.003h.185c-.015.051-.021.094-.038.13-.187.396-.376.79-.56 1.185-.043.091-.103.113-.2.113-1.683-.003-3.367-.003-5.066-.003Zm3.017-6.814c-1.15 0-2.288-.024-3.423.007-.934.027-1.738-.272-2.465-.824-.464-.352-.914-.722-1.377-1.076-.553-.422-1.157-.74-1.855-.839-.24-.034-.486-.042-.73-.051-.207-.008-.416-.002-.647-.002.033-.044.052-.075.077-.1a8.045 8.045 0 0 1 3.05-1.96c.098-.036.165-.016.225.05.359.4.717.798 1.072 1.201.384.438.743.899 1.15 1.313.429.436.95.738 1.57.83.141.022.287.023.431.023 1.654.001 3.308.002 4.963-.001.1 0 .164.021.21.119.18.392.37.78.554 1.17.019.04.027.084.044.14h-2.849Z"/>
    <path fill="#fff" d="M14.81 19.488a8.044 8.044 0 0 1-4.385.36c0-.015-.004-.028 0-.034.489-.597.973-1.197 1.468-1.788.278-.334.591-.633.974-.849a1.57 1.57 0 0 1 .782-.215h4.497c.024 0 .048.002.113.005a8.058 8.058 0 0 1-3.449 2.52ZM12.812 4.041c2.08.235 3.803 1.134 5.19 2.68.083.092.16.189.253.3-.052.005-.088.011-.124.011-1.484 0-2.968-.002-4.452.002-.507.002-.915-.223-1.27-.549a8.319 8.319 0 0 1-.744-.794c-.42-.502-.822-1.02-1.239-1.54a8.038 8.038 0 0 1 2.386-.11Zm-5.439 9.061c-.165.04-.32.104-.474.106-.935.01-1.87.005-2.83.005-.025-.235-.071-.47-.069-.705.005-.532.036-1.063.053-1.594.004-.105.043-.142.154-.141.841.005 1.682.003 2.524.002.358 0 .69.089.979.305.4.301.794.61 1.2.924-.455.338-.903.673-1.354 1.006-.051.038-.114.059-.183.092Z"/>
  </g>
  <defs>
    <clipPath id="Inmar_svg__a">
      <path fill="#fff" d="M0 0h24v24H0z"/>
    </clipPath>
  </defs>
</svg>
