<svg width="128" height="96" viewBox="0 0 128 96" fill="none" xmlns="http://www.w3.org/2000/svg">
<path opacity="0.2" d="M105.629 38.2L107.171 37.8C107.457 37.7429 107.743 37.4571 107.8 37.1714L108.2 35.6286C108.314 35.2286 108.657 35 109 35C109.4 35 109.743 35.2857 109.8 35.6286L110.2 37.1714C110.257 37.4571 110.543 37.7429 110.829 37.8L112.371 38.2C112.771 38.3143 113 38.6571 113 39C113 39.4 112.714 39.7429 112.371 39.8L110.829 40.2C110.543 40.2571 110.257 40.5429 110.2 40.8286L109.8 42.3714C109.686 42.7714 109.343 43 109 43C108.6 43 108.257 42.7143 108.2 42.3714L107.8 40.8286C107.743 40.5429 107.457 40.2571 107.171 40.2L105.629 39.8C105.229 39.6857 105 39.3429 105 39C105 38.6 105.286 38.2571 105.629 38.2Z" fill="#888888"/>
<path opacity="0.2" d="M15.9428 31.8L18.2571 31.2C18.6857 31.1143 19.1143 30.6857 19.2 30.2571L19.8 27.9429C19.9714 27.3429 20.4857 27 21 27C21.6 27 22.1143 27.4286 22.2 27.9429L22.8 30.2571C22.8857 30.6857 23.3143 31.1143 23.7429 31.2L26.0572 31.8C26.6572 31.9714 27 32.4857 27 33C27 33.6 26.5714 34.1143 26.0572 34.2L23.7429 34.8C23.3143 34.8857 22.8857 35.3143 22.8 35.7429L22.2 38.0571C22.0286 38.6571 21.5143 39 21 39C20.4 39 19.8857 38.5714 19.8 38.0571L19.2 35.7429C19.1143 35.3143 18.6857 34.8857 18.2571 34.8L15.9428 34.2C15.3428 34.0286 15 33.5143 15 33C15 32.4 15.4286 31.8857 15.9428 31.8Z" fill="#888888"/>
<path opacity="0.2" d="M0.628557 53.2L2.17142 52.8C2.45714 52.7429 2.74287 52.4571 2.80001 52.1714L3.19999 50.6286C3.31427 50.2286 3.65714 50 4 50C4.4 50 4.74287 50.2857 4.80001 50.6286L5.19999 52.1714C5.25713 52.4571 5.54286 52.7429 5.82858 52.8L7.37144 53.2C7.77144 53.3143 8 53.6571 8 54C8 54.4 7.7143 54.7429 7.37144 54.8L5.82858 55.2C5.54286 55.2571 5.25713 55.5429 5.19999 55.8286L4.80001 57.3714C4.68573 57.7714 4.34286 58 4 58C3.6 58 3.25713 57.7143 3.19999 57.3714L2.80001 55.8286C2.74287 55.5429 2.45714 55.2571 2.17142 55.2L0.628557 54.8C0.228557 54.6857 0 54.3429 0 54C0 53.6 0.2857 53.2571 0.628557 53.2Z" fill="#888888"/>
<path opacity="0.2" d="M126.5 52C125.675 52 125 51.325 125 50.5C125 49.675 125.675 49 126.5 49C127.325 49 128 49.675 128 50.5C128 51.325 127.325 52 126.5 52Z" fill="#888888"/>
<path opacity="0.2" d="M23 70C21.9 70 21 69.1 21 68C21 66.9 21.9 66 23 66C24.1 66 25 66.9 25 68C25 69.1 24.1 70 23 70Z" fill="#888888"/>
<path d="M70 76.1259C70 78.0475 68.6342 79.7249 66.7193 79.8861C65.8229 79.9615 64.9159 80 64 80C46.3269 80 32 65.6731 32 48C32 30.3269 46.3269 16 64 16C77.0944 16 88.3519 23.865 93.306 35.1287C94.3584 37.5212 92.4457 40 89.832 40H78C73.5817 40 70 43.5817 70 48V76.1259Z" fill="#557FF3"/>
<path d="M70 76.1254C70 78.0471 68.6342 79.7245 66.7193 79.8856C65.8229 79.9611 64.9159 79.9995 64 79.9995C55.8512 79.9995 48.4138 76.9537 42.7642 71.9383C43.5042 71.979 44.2496 71.9997 44.9999 71.9997C54.4594 71.9997 63.152 68.7161 70 63.2265V76.1254Z" fill="#7295F6" fill-opacity="0.6" style="mix-blend-mode:multiply"/>
<path d="M84.1997 40C84.7244 37.415 84.9999 34.7395 84.9999 31.9997C84.9999 28.9072 84.649 25.8967 83.9847 23.0059C87.9931 26.2151 91.2127 30.3686 93.3064 35.1291C94.3587 37.5217 92.4458 40 89.8321 40H84.1997Z" fill="#7295F6" fill-opacity="0.6" style="mix-blend-mode:multiply"/>
<path d="M78 44H86C88.2091 44 90 45.7909 90 48V71V84C90 86.2091 88.2091 88 86 88H79.9474H78C75.7909 88 74 86.2091 74 84V48C74 45.7909 75.7909 44 78 44Z" fill="#444444"/>
<path d="M80.6668 44H99.3335C101.543 44 103.333 45.7909 103.333 48V84C103.333 86.2091 101.543 88 99.3335 88H80.6668C78.4577 88 76.6668 86.2091 76.6668 84V76.1538V48C76.6668 45.7909 78.4577 44 80.6668 44Z" fill="#666666"/>
<path fill-rule="evenodd" clip-rule="evenodd" d="M99.5718 85.3327H80.4279C79.8216 85.3327 79.3332 84.8054 79.3332 84.161V47.8377C79.3332 47.1933 79.8216 46.666 80.4279 46.666H99.5718C100.178 46.666 100.667 47.1933 100.667 47.8377V84.161C100.667 84.8054 100.178 85.3327 99.5718 85.3327ZM87.3331 47.9995C86.5967 47.9995 85.9998 48.5965 85.9998 49.3328C85.9998 50.0692 86.5967 50.6662 87.3331 50.6662H92.6664C93.4028 50.6662 93.9998 50.0692 93.9998 49.3328C93.9998 48.5965 93.4028 47.9995 92.6664 47.9995H87.3331Z" fill="#FFCC33"/>
<path fill-rule="evenodd" clip-rule="evenodd" d="M98 65C98 69.4198 94.4198 73 90 73C85.5802 73 82 69.4198 82 65C82 60.5802 85.5802 57 90 57C94.4198 57 98 60.5802 98 65ZM96 65C96 67.2379 94.7748 69.1897 92.9586 70.2211C93.0322 69.7556 92.9724 68.7203 92.5967 68.2732C92.5189 68.1799 91.7221 68.6852 91.2439 69.0429C91.1429 68.934 90.964 68.8718 90.6258 68.9263C90.5941 68.9308 90.565 68.9367 90.5369 68.9423C90.517 68.9463 90.4975 68.9502 90.4781 68.9535C90.311 68.4092 90.2138 67.9311 90.2527 67.6201C89.8795 67.4219 89.6307 67.1925 89.5841 67.1031C89.5024 66.9554 89.6385 66.8854 89.7084 66.9243C89.7123 66.9282 89.7201 66.9321 89.7318 66.936C90.1244 67.1498 90.7541 67.383 91.6093 67.4258C91.7104 67.4297 91.8153 67.4335 91.9203 67.4335C93.3003 67.4219 94.105 66.8854 93.965 66.6172C93.899 66.4925 93.6125 66.5244 93.1838 66.572H93.1838C92.7035 66.6254 92.0448 66.6986 91.3178 66.5939C90.2993 66.4462 90.1982 65.9797 90.3265 65.7815C90.5224 65.4813 90.8897 65.4974 91.4153 65.5204C91.693 65.5326 92.0149 65.5467 92.379 65.5171C93.4325 65.4316 94.0311 65.1362 94.3615 64.7591C94.5364 64.5608 94.6142 64.347 94.5481 64.2188C94.4859 64.106 94.311 64.0633 93.8134 64.2538C93.4674 64.3859 92.9465 64.557 92.2507 64.6386C92.3712 63.865 92.0097 61.0623 90.0311 60.6386C90.0233 60.6347 90.0155 60.6308 90.0078 60.623C89.4579 59.9206 88.39 59.5679 87.3211 59.6298C88.1275 59.2268 89.0373 59 90 59C93.3137 59 96 61.6863 96 65ZM91.7337 69.9496C91.7337 70.0738 92.4851 70.296 92.8074 70.304C92.3144 70.5655 91.7806 70.7603 91.218 70.8763C91.18 70.7892 91.143 70.7033 91.1079 70.6211C90.8941 70.6872 90.5909 70.7183 90.3732 70.7261C90.208 70.7261 90.0739 70.7183 90.0039 70.6211C89.869 70.7361 89.6905 70.8634 89.5042 70.9798C89.2049 71.1668 88.8856 71.3259 88.6955 71.3613C88.6321 71.373 88.5831 71.3711 88.554 71.3519C88.4408 71.2792 88.3301 71.0376 88.2438 70.7389L88.2437 70.7389C88.0809 70.1751 88.0051 69.4077 88.1652 69.1867C88.2196 69.109 88.3207 69.0701 88.4451 69.0584C88.3285 69.5366 88.6006 70.7183 88.7522 70.8388C88.8999 70.9554 89.9582 70.3257 89.9116 70.1779C89.8183 69.867 89.8183 69.5871 89.8299 69.4122C89.8727 69.3538 90.0039 69.2644 90.0933 69.2256C90.0855 69.2683 90.0816 69.315 90.0855 69.3694C90.0855 69.5521 90.1088 69.867 90.1555 70.003C90.2177 70.1702 90.2838 70.279 90.5792 70.2751C90.8785 70.2712 91.3605 70.2052 91.4344 70.073C91.5083 69.9408 91.4111 69.4044 91.3489 69.2333L91.3139 69.1517C91.31 69.1439 91.3061 69.1362 91.3022 69.1323H91.4062C91.5617 69.1673 91.6949 69.2333 91.7337 69.9496ZM84 65C84 67.4627 85.4837 69.5789 87.606 70.5034C87.4127 69.7974 87.1366 68.756 86.7813 67.3325C85.9922 64.1721 85.4052 61.5949 88.3673 60.7902C88.3984 60.7824 88.4101 60.7474 88.3868 60.728C88.0447 60.417 87.4655 60.3626 86.898 60.4753C86.8707 60.4792 86.8513 60.4598 86.8513 60.4365C86.8513 60.4287 86.8513 60.4209 86.8591 60.4131C86.9951 60.2227 87.24 60.0749 87.4072 59.9855C87.302 59.8909 87.1652 59.8247 87.0424 59.7784C85.2257 60.8096 84 62.7617 84 65ZM97 65C97 68.866 93.866 72 90 72C86.134 72 83 68.866 83 65C83 61.134 86.134 58 90 58C93.866 58 97 61.134 97 65ZM91.656 62.3218L91.6409 62.3151C91.5387 62.2694 91.4119 62.2128 91.1934 62.2091C90.964 62.2052 90.8202 62.2635 90.7269 62.314C90.6958 62.3296 90.6492 62.2985 90.6647 62.2674C90.7425 62.143 90.9135 62.0458 91.1934 62.0458C91.4733 62.0458 91.6054 62.1585 91.6948 62.279C91.7143 62.3023 91.6832 62.3334 91.656 62.3218ZM91.8659 63.5579C91.8659 63.7951 91.6715 63.9894 91.4305 63.9894C91.1895 63.9894 90.9951 63.7951 90.9951 63.5579C90.9951 63.3208 91.1895 63.1264 91.4305 63.1264C91.6715 63.1264 91.8659 63.3169 91.8659 63.5579ZM88.0486 63.3519C88.3285 63.3519 88.5539 63.5774 88.5539 63.8573C88.5539 64.1371 88.3285 64.3626 88.0486 64.3626C87.7687 64.3626 87.5432 64.1371 87.5432 63.8573C87.5394 63.5774 87.7687 63.3519 88.0486 63.3519ZM87.5199 62.4267C87.2478 62.5395 87.1623 62.6639 87.1079 62.7455C87.0884 62.7766 87.0146 62.7727 87.0146 62.7377C87.0146 62.5822 87.1584 62.3451 87.4616 62.2324C87.8037 62.1041 88.0641 62.2207 88.1808 62.3179C88.208 62.3373 88.1846 62.3723 88.1535 62.3645C88.0058 62.3296 87.792 62.314 87.5199 62.4267ZM91.7376 63.4141C91.7376 63.4763 91.6871 63.5268 91.6249 63.5268C91.5627 63.5268 91.5122 63.4763 91.5122 63.4141C91.5122 63.3519 91.5627 63.3014 91.6249 63.3014C91.6871 63.3014 91.7376 63.3519 91.7376 63.4141ZM88.4062 63.6862C88.4062 63.76 88.3479 63.8184 88.2741 63.8184C88.2002 63.8184 88.1419 63.76 88.1419 63.6862C88.1419 63.6123 88.2002 63.554 88.2741 63.554C88.3479 63.554 88.4062 63.6123 88.4062 63.6862Z" fill="#E2A412"/>
<path d="M108.605 52.7188C108.911 52.7188 109.217 52.8388 109.451 53.0729C109.919 53.5412 109.919 54.3036 109.451 54.7719L107.05 57.1733C106.581 57.6415 105.819 57.6415 105.351 57.1733C104.882 56.705 104.882 55.9426 105.351 55.4743L107.752 53.0729C107.986 52.8388 108.292 52.7188 108.599 52.7188H108.605Z" fill="#CCCCCC"/>
<path d="M107.404 63.5244H111.006C111.666 63.5244 112.207 64.0647 112.207 64.7251C112.207 65.3855 111.666 65.9258 111.006 65.9258H107.404C106.743 65.9258 106.203 65.3855 106.203 64.7251C106.203 64.0647 106.743 63.5244 107.404 63.5244Z" fill="#CCCCCC"/>
<path d="M105.363 72.2844C105.597 72.0502 105.903 71.9302 106.209 71.9302H106.215C106.522 71.9302 106.828 72.0502 107.062 72.2844L109.463 74.6857C109.931 75.154 109.931 75.9164 109.463 76.3847C108.995 76.853 108.233 76.853 107.764 76.3847L105.363 73.9833C104.895 73.5151 104.895 72.7526 105.363 72.2844Z" fill="#CCCCCC"/>
<path fill-rule="evenodd" clip-rule="evenodd" d="M73.5951 41.3208C74.1972 40.9229 74.8563 40.6043 75.5575 40.3797C74.7076 39.6235 73.8311 38.8965 72.9298 38.2002C72.9757 37.974 72.9998 37.7398 72.9998 37.5C72.9998 36.1021 72.1802 34.8956 70.9954 34.3348C70.9852 33.5673 70.9573 32.8041 70.9122 32.0456C71.6043 32.0153 72.3003 32 72.9998 32C80.3853 32 87.373 33.7035 93.5913 36.7391C93.6299 36.2324 93.5495 35.7018 93.3259 35.1745C93.1825 34.847 93.0337 34.5223 92.8797 34.2006C86.804 31.5005 80.0771 30 72.9998 30C72.2467 30 71.4977 30.017 70.7529 30.0506C70.2639 25.1752 69.0602 20.5106 67.2482 16.1629C66.5086 16.0883 65.7615 16.0389 65.0079 16.0156C66.9564 20.4232 68.2471 25.1866 68.7558 30.1813C66.1416 30.4056 63.5861 30.8351 61.1053 31.4537C57.5394 30.035 53.7676 29.0229 49.8472 28.4747C49.6295 27.7631 49.1911 27.1479 48.6119 26.7089C50.4833 23.2415 52.7778 20.036 55.4262 17.1616C54.1437 17.5173 52.8936 17.951 51.6813 18.4571C49.8058 20.8069 48.1419 23.3331 46.7186 26.0068C46.6462 26.0023 46.5733 26 46.4998 26C45.1032 26 43.8976 26.8181 43.3361 28.0012C43.2241 28.0004 43.112 28 42.9998 28C41.6132 28 40.24 28.0576 38.8826 28.1706C38.3289 28.8709 37.8039 29.595 37.3093 30.341C39.1747 30.1159 41.0737 30 42.9998 30L43.0352 30.0001C43.1456 30.7713 43.5073 31.4614 44.0348 31.9847C42.9209 34.9925 42.0939 38.1394 41.5868 41.3923C38.0165 44.3777 34.8777 47.8621 32.2777 51.7382L32.208 51.6705C32.3324 52.7597 32.5114 53.8322 32.7424 54.8853C35.7406 57.5095 39.0616 59.774 42.638 61.6116C43.8267 66.087 45.6328 70.3108 47.9596 74.1864C47.5621 74.4502 47.1603 74.7082 46.7544 74.9602C47.383 75.3631 48.0265 75.7446 48.6841 76.1037C48.7978 76.0297 48.9112 75.9553 49.0243 75.8804C49.1617 76.0894 49.3007 76.2973 49.4412 76.5041C50.6142 77.1044 51.8292 77.6345 53.0805 78.0887C52.2296 77.0102 51.4249 75.8935 50.6695 74.7417C53.2209 72.8979 55.5877 70.8144 57.7369 68.5243C58.2546 68.8267 58.857 69 59.4998 69C60.917 69 62.1374 68.1578 62.6879 66.9465C63.454 66.9821 64.2248 67 64.9998 67C66.6878 67 68.3559 66.9147 70 66.7481V64.7372C68.357 64.9109 66.6888 65 64.9998 65C64.3156 65 63.6349 64.9854 62.9578 64.9565C62.8512 64.2723 62.5463 63.6538 62.1039 63.1615C66.6589 56.6868 69.6856 49.0593 70.6597 40.8033C71.1555 40.6292 71.6003 40.3466 71.9655 39.9841C72.5188 40.4177 73.0621 40.8634 73.5951 41.3208ZM46.4998 33C48.0866 33 49.4268 31.9441 49.8559 30.4965C52.6011 30.8977 55.2692 31.5363 57.8388 32.3906C52.8034 34.0274 48.1259 36.4574 43.9536 39.5332C44.4165 37.2698 45.042 35.0657 45.8175 32.9336C46.0382 32.9772 46.2663 33 46.4998 33ZM41.215 44.377C38.3906 46.9713 35.8846 49.9066 33.7621 53.1178C36.2868 55.3651 39.0554 57.3443 42.0232 59.0106C41.3523 55.7789 40.9998 52.4306 40.9998 49C40.9998 47.441 41.0726 45.8989 41.215 44.377ZM60.9639 33.5553C54.4693 35.2708 48.5254 38.3416 43.453 42.4469C43.1542 44.5884 42.9998 46.7762 42.9998 49C42.9998 52.8714 43.4679 56.6335 44.3505 60.2328C48.069 62.0543 52.0634 63.3992 56.2541 64.1878C56.7732 62.905 58.0308 62 59.4998 62C59.8089 62 60.1086 62.0401 60.3941 62.1153C64.7436 55.9679 67.6538 48.7299 68.634 40.8921C67.1198 40.5068 65.9998 39.1342 65.9998 37.5C65.9998 37.0232 66.0951 36.5687 66.2678 36.1545C64.5637 35.1817 62.7929 34.3124 60.9639 33.5553ZM45.0484 62.7676C48.5261 64.3199 52.218 65.4788 56.0673 66.1878C56.1287 66.4955 56.2303 66.7887 56.3666 67.0616C54.3116 69.2633 52.0476 71.2674 49.6061 73.0422C47.6981 69.8435 46.1593 66.399 45.0484 62.7676ZM67.5568 34.5884C66.4693 33.9574 65.3553 33.367 64.2169 32.8193C65.7581 32.5279 67.3259 32.3119 68.9163 32.175C68.9529 32.7925 68.9776 33.4132 68.9901 34.0369C68.4656 34.1134 67.9788 34.3063 67.5568 34.5884Z" fill="#ADC2FC"/>
</svg>
