<svg width="24" height="24" fill="none" xmlns="http://www.w3.org/2000/svg">
  <g clip-path="url(#GumGum_svg__a)">
    <path fill="#3CC4CC" d="M24 12c0 6.627-5.373 12-12 12S0 18.627 0 12 5.373 0 12 0s12 5.373 12 12Z"/>
    <path fill="#000" fill-opacity=".12" fill-rule="evenodd" d="M24 12c0 6.627-5.373 12-12 12S0 18.627 0 12 5.373 0 12 0s12 5.373 12 12ZM12 23.5c6.351 0 11.5-5.149 11.5-11.5S18.351.5 12 .5.5 5.649.5 12 5.649 23.5 12 23.5Z" clip-rule="evenodd"/>
    <path fill="#fff" d="M16.252 4.913h-4.28A2.756 2.756 0 0 0 9.22 7.665v4.964c0 .018 0 .033-.003.044a.574.574 0 0 1-.115.011l-1.99-.003A2.114 2.114 0 0 0 5 14.793v1.923c0 1.165.947 2.112 2.112 2.112h1.923a2.114 2.114 0 0 0 2.112-2.112V14.78a.23.23 0 0 1 .015-.07.544.544 0 0 1 .115-.011h4.971A2.756 2.756 0 0 0 19 11.948V7.665a2.75 2.75 0 0 0-2.748-2.752Zm.82 2.752v4.28c0 .45-.369.82-.82.82H11.28c-.045 0-.09 0-.134.004.004-.04.004-.081.004-.122V7.665c0-.451.37-.821.821-.821h4.28a.817.817 0 0 1 .82.82Zm-7.84 6.942c-.008.086-.008.152-.008.197v1.908a.19.19 0 0 1-.185.185H7.116a.19.19 0 0 1-.185-.185V14.79a.19.19 0 0 1 .185-.185H8.99c.06.007.152.007.24.004Z"/>
  </g>
  <defs>
    <clipPath id="GumGum_svg__a">
      <path fill="#fff" d="M0 0h24v24H0z"/>
    </clipPath>
  </defs>
</svg>
