<svg fill="none" viewBox="0 0 76 76" xmlns="http://www.w3.org/2000/svg">
  <path fill="#fff" d="M38.68 27.926c-.178-.708-1.183-.708-1.36 0l-.66 2.639a5.84 5.84 0 0 1-4.245 4.246l-2.64.66c-.707.177-.707 1.182 0 1.359l2.64.66a5.84 5.84 0 0 1 4.246 4.246l.66 2.64c.176.707 1.181.707 1.358 0l.66-2.64a5.84 5.84 0 0 1 4.246-4.246l2.64-.66c.707-.177.707-1.182 0-1.359l-2.64-.66a5.84 5.84 0 0 1-4.246-4.246z"/>
  <path fill="#fff" fill-rule="evenodd" d="M24.952 54.729c5.602-.962 15.418-2.822 19.407-4.653 6.168-2.237 10.516-7.629 10.516-13.926 0-8.3-7.555-15.029-16.875-15.029s-16.875 6.729-16.875 15.03c0 4.164 1.902 7.932 4.974 10.654.673.597.8 1.632.21 2.311l-2.728 3.147c-.932 1.074-.03 2.707 1.371 2.466m18.234-7.21.106-.048.109-.04c5.252-1.903 8.661-6.364 8.661-11.28 0-6.45-5.98-12.217-14.062-12.217S23.938 29.7 23.938 36.15c0 3.272 1.487 6.3 4.026 8.55 1.686 1.494 2.189 4.277.47 6.259l-.298.344a192 192 0 0 0 6.513-1.32c3.672-.818 6.848-1.688 8.537-2.463" clip-rule="evenodd"/>
</svg>
