<svg fill="none" viewBox="0 0 64 64" xmlns="http://www.w3.org/2000/svg">
  <path fill="#EB3131" d="M31.395 30.744 8.216 55.347l.004.014A6.259 6.259 0 0 0 14.267 60a6.237 6.237 0 0 0 3.176-.862l.074-.044L43.61 44.038 31.395 30.744Z"/>
  <path fill="#F6B60B" d="m54.845 26.555-.022-.015-11.265-6.53-12.69 11.293 12.734 12.733 11.206-6.465a6.264 6.264 0 0 0 .037-11.015Z"/>
  <path fill="#5778C5" d="M8.213 8.652A6.136 6.136 0 0 0 8 10.262v43.475c0 .558.072 1.098.213 1.61l23.98-23.973L8.212 8.652Z"/>
  <path fill="#3BAD49" d="m31.566 32 11.997-11.994L17.501 4.895A6.276 6.276 0 0 0 14.265 4a6.265 6.265 0 0 0-6.05 4.645l-.001.007L31.566 32Z"/>
</svg>
