<svg width="24" height="24" fill="none" xmlns="http://www.w3.org/2000/svg">
  <g clip-path="url(#Intent-IQ_svg__a)">
    <path fill="#0077C0" d="M24 12c0 6.627-5.373 12-12 12S0 18.627 0 12 5.373 0 12 0s12 5.373 12 12Z"/>
    <path fill="#fff" fill-opacity=".12" fill-rule="evenodd" d="M24 12c0 6.627-5.373 12-12 12S0 18.627 0 12 5.373 0 12 0s12 5.373 12 12ZM12 23.5c6.351 0 11.5-5.149 11.5-11.5S18.351.5 12 .5.5 5.649.5 12 5.649 23.5 12 23.5Z" clip-rule="evenodd"/>
    <path fill="#fff" fill-rule="evenodd" d="M14.514 7.185a4.788 4.788 0 0 1 4.778 4.778c0 .992-.3 1.916-.808 2.677l.739.739c.37.346.37.946 0 1.316a.92.92 0 0 1-1.316 0l-.738-.739a4.8 4.8 0 0 1-2.655.808 4.797 4.797 0 0 1-4.801-4.801c0-2.632 2.147-4.778 4.801-4.778Zm0 1.892a2.886 2.886 0 0 1 2.886 2.886c0 .461-.093.9-.3 1.292l-.3-.3c-.347-.369-.947-.369-1.316 0-.37.347-.37.947 0 1.316l.3.3c-.393.185-.831.3-1.27.3a2.896 2.896 0 0 1-2.908-2.908 2.892 2.892 0 0 1 2.908-2.886Z" clip-rule="evenodd"/>
    <path fill="#fff" d="M7.169 10v6.256c0 .37.138.508.53.508h.855c.369 0 .507-.139.507-.508v-6.255c0-.393-.138-.531-.507-.531H7.7c-.393 0-.531.138-.531.53Zm-2.593 0v6.256c0 .37.139.508.531.508h.854c.37 0 .508-.139.508-.508v-6.255c0-.393-.139-.531-.508-.531h-.854c-.392 0-.53.138-.53.53Zm4.591-1.963a1.037 1.037 0 1 1-2.074 0 1.037 1.037 0 0 1 2.074 0Zm-2.593 0a1.037 1.037 0 1 1-2.074 0 1.037 1.037 0 0 1 2.074 0Z"/>
  </g>
  <defs>
    <clipPath id="Intent-IQ_svg__a">
      <path fill="#fff" d="M0 0h24v24H0z"/>
    </clipPath>
  </defs>
</svg>
