<svg fill="none" viewBox="0 0 128 96" xmlns="http://www.w3.org/2000/svg">
  <path fill="#888" d="m105.629 38.2 1.542-.4a.875.875 0 0 0 .629-.629l.4-1.543A.84.84 0 0 1 109 35c.4 0 .743.286.8.628l.4 1.543a.875.875 0 0 0 .629.629l1.542.4c.4.114.629.457.629.8 0 .4-.286.743-.629.8l-1.542.4a.875.875 0 0 0-.629.628l-.4 1.543a.84.84 0 0 1-.8.629c-.4 0-.743-.286-.8-.629l-.4-1.543a.875.875 0 0 0-.629-.628l-1.542-.4A.842.842 0 0 1 105 39c0-.4.286-.743.629-.8Zm-89.686-6.4 2.314-.6c.429-.086.857-.514.943-.943l.6-2.314c.171-.6.686-.943 1.2-.943.6 0 1.114.428 1.2.943l.6 2.314c.086.429.514.857.943.943l2.314.6c.6.171.943.686.943 1.2 0 .6-.429 1.114-.943 1.2l-2.314.6c-.429.086-.857.514-.943.943l-.6 2.314c-.171.6-.686.943-1.2.943-.6 0-1.114-.429-1.2-.943l-.6-2.314c-.086-.429-.514-.857-.943-.943l-2.314-.6c-.6-.172-.943-.686-.943-1.2 0-.6.429-1.114.943-1.2ZM.629 53.2l1.542-.4a.876.876 0 0 0 .629-.629l.4-1.543A.841.841 0 0 1 4 50c.4 0 .743.286.8.628l.4 1.543a.876.876 0 0 0 .629.629l1.542.4c.4.114.629.457.629.8 0 .4-.286.743-.629.8l-1.542.4a.875.875 0 0 0-.629.628l-.4 1.543A.841.841 0 0 1 4 58c-.4 0-.743-.286-.8-.629l-.4-1.543a.875.875 0 0 0-.629-.628L.63 54.8A.841.841 0 0 1 0 54c0-.4.286-.743.629-.8ZM126.5 52c-.825 0-1.5-.675-1.5-1.5s.675-1.5 1.5-1.5 1.5.675 1.5 1.5-.675 1.5-1.5 1.5ZM23 70c-1.1 0-2-.9-2-2s.9-2 2-2 2 .9 2 2-.9 2-2 2Z" opacity=".2"/>
  <path fill="#C7B9EE" d="M43 48c0-11.598 9.402-21 21-21s21 9.402 21 21-9.402 21-21 21-21-9.402-21-21Z"/>
  <path fill="#A591DC" fill-rule="evenodd" d="M49.872 32.463a21.557 21.557 0 0 0-4.008 12.554c0 11.96 9.696 21.656 21.656 21.656 3.4 0 6.616-.783 9.48-2.18A20.91 20.91 0 0 1 64 69c-11.598 0-21-9.402-21-21 0-6.157 2.65-11.696 6.872-15.537Z" clip-rule="evenodd"/>
  <path fill="#876ECB" d="M58.094 52.266c0-6.343 5.142-11.485 11.484-11.485 6.343 0 11.484 5.142 11.484 11.485 0 6.342-5.141 11.484-11.484 11.484s-11.484-5.142-11.484-11.484Z"/>
  <path fill="#3E228C" d="M64.656 52.922a6.234 6.234 0 1 1 12.469 0 6.234 6.234 0 0 1-12.469 0Z"/>
  <path fill="#ECE6FF" d="M70.682 43.973a3.61 3.61 0 1 1 7.219 0 3.61 3.61 0 0 1-7.22 0Z"/>
  <path fill="#DE5833" d="M32 48c0 17.672 14.328 32 32 32s32-14.328 32-32-14.328-32-32-32-32 14.328-32 32Zm33.76 26.198a26.141 26.141 0 0 1-14.697-3.36c-1.87-1.067-2.225-3.615-.701-5.139l31.333-31.333c1.524-1.524 4.073-1.17 5.14.7a26.08 26.08 0 0 1 3.36 14.698C89.34 62.796 78.8 73.34 65.76 74.198Zm-24.598-13.26a26.08 26.08 0 0 1-3.36-14.698C38.659 33.2 49.2 22.659 62.24 21.802c5.36-.35 10.404.918 14.697 3.36 1.87 1.067 2.225 3.615.701 5.139L46.305 61.634c-1.524 1.524-4.076 1.174-5.143-.697Z"/>
</svg>
