<svg width="24" height="24" viewBox="0 0 24 24" fill="none" xmlns="http://www.w3.org/2000/svg">
<circle cx="12" cy="12" r="11" fill="#444444"/>
<path fill-rule="evenodd" clip-rule="evenodd" d="M0 12C0 5.37258 5.37258 0 12 0C15.1826 0 18.2348 1.26428 20.4853 3.51472C22.7357 5.76515 24 8.8174 24 12C24 18.6274 18.6274 24 12 24C5.37258 24 0 18.6274 0 12ZM4.73639 11.9913C4.73639 16.0684 8.04149 19.3735 12.1186 19.3735C16.3778 19.3735 19.2636 16.3836 19.2636 12.1735C19.2637 11.7602 19.2249 11.3478 19.148 10.9417H12.1186V13.4805H16.3113C16.1378 14.5648 15.0419 16.6612 12.1186 16.6612C10.89 16.6543 9.71465 16.1591 8.85164 15.2847C7.98862 14.4103 7.50884 13.2285 7.51807 12C7.51807 7.8506 12.4077 5.94506 15.0361 8.48096L17.0602 6.5494C15.726 5.28786 13.9547 4.59243 12.1186 4.60916C8.04149 4.60916 4.73639 7.91427 4.73639 11.9913Z" fill="#DFDFDF"/>
</svg>
