<svg width="24" height="24" viewBox="0 0 24 24" fill="none" xmlns="http://www.w3.org/2000/svg">
<path d="M11.2929 2.29289C11.6834 1.90237 12.3166 1.90237 12.7071 2.29289L17.7071 7.29289C18.0976 7.68342 18.0976 8.31658 17.7071 8.70711C17.3166 9.09763 16.6834 9.09763 16.2929 8.70711L13 5.41421V16C13 16.5523 12.5523 17 12 17C11.4477 17 11 16.5523 11 16V5.41421L7.70711 8.70711C7.31658 9.09763 6.68342 9.09763 6.29289 8.70711C5.90237 8.31658 5.90237 7.68342 6.29289 7.29289L11.2929 2.29289Z" fill="#3969EF"/>
<path d="M5 14C5 13.4477 4.55228 13 4 13C3.44772 13 3 13.4477 3 14V18C3 20.2091 4.79086 22 7 22H17C19.2091 22 21 20.2091 21 18V14C21 13.4477 20.5523 13 20 13C19.4477 13 19 13.4477 19 14V18C19 19.1046 18.1046 20 17 20H7C5.89543 20 5 19.1046 5 18V14Z" fill="#3969EF"/>
</svg>
