<svg width="24" height="24" viewBox="0 0 24 24" fill="none" xmlns="http://www.w3.org/2000/svg">
<circle cx="12" cy="12" r="11" fill="white"/>
<path fill-rule="evenodd" clip-rule="evenodd" d="M24 12C24 18.6274 18.6274 24 12 24C5.37258 24 0 18.6274 0 12C0 5.37258 5.37258 0 12 0C18.6274 0 24 5.37258 24 12ZM13.2467 12.192C14.811 13.4728 16.6284 14.1256 18.6402 14.2624C18.9234 14.2817 19.0452 14.2387 19.0391 13.9024C19.0158 12.6152 19.0236 11.3273 19.035 10.0398C19.0372 9.78205 18.983 9.66751 18.6979 9.6633C18.4237 9.65922 18.145 9.60345 17.8778 9.53353C15.884 9.01229 14.4957 7.34613 14.3428 5.28917C14.3264 5.06813 14.259 4.99508 14.0323 5.00025C13.5573 5.0112 13.0821 5.00922 12.6069 5.00724H12.6068C12.4209 5.00647 12.2349 5.00569 12.0489 5.00569L11.4225 5.00566L10.1697 5.00569C9.72385 5.00569 9.71243 5.00665 9.7448 5.45593C9.94231 8.2043 11.1211 10.4517 13.2467 12.192ZM13.902 16.3019C12.7893 12.6953 9.43608 9.8478 5.28884 9.68865C5.03665 9.679 5.0021 9.76401 5.0055 9.97798C5.01304 10.4623 5.0117 10.9466 5.01035 11.431C5.00983 11.6194 5.00931 11.8078 5.00931 11.9962C5.00931 12.178 5.01001 12.3599 5.0107 12.5418C5.01245 12.9979 5.01419 13.454 5.00496 13.9099C5.0002 14.1524 5.03298 14.2585 5.3272 14.2826C6.93623 14.4143 8.17282 15.1872 9.03495 16.5486C9.46505 17.2281 9.67018 17.9846 9.72486 18.7826C9.73397 18.915 9.74744 18.996 9.9138 18.9953C11.3172 18.9903 12.7205 18.9912 14.1242 18.9945C14.27 18.9947 14.3306 18.9539 14.3213 18.7953C14.2709 17.9487 14.153 17.1152 13.902 16.3019ZM18.7381 15.468L18.7606 15.4689C18.9621 15.477 19.0364 15.5554 19.0342 15.7664C19.024 16.7514 19.0243 17.7366 19.034 18.7217C19.0359 18.9318 18.9784 18.9998 18.7616 18.9975C17.7651 18.9865 16.7683 18.9902 15.7715 18.9952C15.607 18.996 15.5184 18.9701 15.5182 18.7728C15.5166 17.3031 15.1567 15.9118 14.5776 14.5704C14.5563 14.5412 14.5427 14.5101 14.5818 14.4875C14.5862 14.485 14.599 14.4972 14.6118 14.5093C14.6177 14.5149 14.6236 14.5205 14.6286 14.5247V14.5245C15.6382 14.9348 16.667 15.2792 17.7557 15.4045C18.0815 15.442 18.4103 15.455 18.7381 15.468H18.7381ZM5.22636 8.4777C5.49229 8.47865 5.75903 8.49674 6.02401 8.52286C7.20892 8.63929 8.34064 8.95678 9.44012 9.46102C9.44578 9.43321 9.45152 9.41221 9.45597 9.39595C9.46285 9.37077 9.46662 9.35698 9.46216 9.34689C8.86678 8.03249 8.5527 6.65321 8.51502 5.21203C8.5104 5.03438 8.43368 5.00296 8.28092 5.0035C7.26006 5.00759 6.2392 5.00908 5.21834 5.00255C5.04341 5.00133 5.006 5.07152 5.00682 5.22903C5.01185 6.23833 5.01226 7.24763 5.00655 8.25666C5.0056 8.42247 5.06096 8.47702 5.22636 8.4777ZM5.00354 15.8352C4.9913 15.5642 5.06244 15.4803 5.34605 15.5004C6.77988 15.6023 8.14012 16.7857 8.41952 18.1984C8.57662 18.9927 8.57662 18.9927 7.76565 18.9927M5.00354 15.8352C5.01837 16.1601 5.01517 16.4859 5.01196 16.8117L5.00354 15.8352ZM5.01196 16.8117C5.01061 16.9491 5.00925 17.0864 5.00925 17.2237L5.01196 16.8117ZM5.00925 17.2237C5.00925 17.3651 5.01109 17.5066 5.01293 17.6481L5.00925 17.2237ZM5.01293 17.6481L5.01293 17.6482L5.01293 17.6481ZM5.01293 17.6482C5.01725 17.9816 5.02158 18.3149 5.00191 18.6469L5.01293 17.6482ZM5.00191 18.6469C4.98395 18.9498 5.09155 19.0062 5.37013 18.9995L5.00191 18.6469ZM5.37013 18.9995C5.94333 18.9857 6.51696 18.9882 7.09061 18.9907L5.37013 18.9995ZM18.7022 8.46713C18.9227 8.48808 19.0399 8.45774 19.0357 8.1861C19.0208 7.22441 19.0212 6.26231 19.0356 5.30076C19.0395 5.04122 18.9387 4.99416 18.7106 5.0011C18.3724 5.01147 18.0337 5.00934 17.6951 5.00721H17.6951C17.5585 5.00635 17.4219 5.00549 17.2854 5.00545H16.138C15.8023 5.00545 15.635 5.00545 15.5679 5.08743C15.5013 5.16882 15.5335 5.33103 15.5977 5.65428L15.5977 5.65429C15.8938 7.14783 17.1955 8.32417 18.7022 8.46713Z" fill="#333333"/>
</svg>
