<svg width="24" height="24" viewBox="0 0 24 24" fill="none" xmlns="http://www.w3.org/2000/svg">
<path fill-rule="evenodd" clip-rule="evenodd" d="M2 7C2 4.79086 3.79086 3 6 3H10C11.6569 3 13 4.34315 13 6H18C20.2091 6 22 7.79086 22 10V17C22 19.2091 20.2091 21 18 21H6C3.79086 21 2 19.2091 2 17V7ZM6 5C4.89543 5 4 5.89543 4 7V10H20C20 8.89543 19.1046 8 18 8H13C11.8954 8 11 7.10457 11 6C11 5.44772 10.5523 5 10 5H6ZM20 12H4V17C4 18.1046 4.89543 19 6 19H18C19.1046 19 20 18.1046 20 17V12Z" fill="black" fill-opacity="0.84"/>
</svg>
