<svg width="24" height="24" fill="none" xmlns="http://www.w3.org/2000/svg">
  <g clip-path="url(#Snap_svg__a)">
    <circle cx="12" cy="12" r="12" fill="#FFFC00"/>
    <circle cx="12" cy="12" r="11.5" stroke="#000" stroke-opacity=".12"/>
    <path fill="#000" fill-opacity=".12" fill-rule="evenodd" d="M24 12c0 6.627-5.373 12-12 12S0 18.627 0 12 5.373 0 12 0s12 5.373 12 12ZM12 23.5c6.351 0 11.5-5.149 11.5-11.5S18.351.5 12 .5.5 5.649.5 12 5.649 23.5 12 23.5Z" clip-rule="evenodd"/>
    <path fill="#fff" d="M18.436 15.437c-2.323-1.124-2.693-2.86-2.71-2.989-.02-.156-.042-.279.13-.437.166-.153.902-.61 1.106-.752.338-.236.486-.472.377-.761-.077-.2-.263-.276-.46-.276a.86.86 0 0 0-.184.02c-.371.081-.732.267-.94.317a.331.331 0 0 1-.077.01c-.11 0-.153-.049-.142-.183.026-.405.081-1.197.017-1.936-.088-1.017-.416-1.521-.805-1.967C14.56 6.267 13.686 5.34 12 5.34c-1.686 0-2.559.928-2.746 1.142-.39.445-.718.95-.805 1.966-.064.74-.006 1.53.017 1.937.008.127-.031.183-.142.183a.33.33 0 0 1-.077-.01c-.208-.05-.568-.237-.94-.317a.853.853 0 0 0-.183-.02c-.198 0-.384.076-.46.275-.11.29.038.526.377.762.204.142.94.598 1.106.751.172.159.15.282.13.437-.017.131-.387 1.867-2.71 2.99-.136.066-.367.205.04.43.642.355 1.068.317 1.4.53.28.181.115.572.32.713.25.174.994-.012 1.954.305.805.265 1.294 1.014 2.72 1.014 1.428 0 1.931-.752 2.722-1.014.958-.317 1.703-.131 1.954-.305.205-.14.039-.532.32-.713.332-.213.758-.175 1.399-.53.407-.222.176-.362.04-.428Z"/>
    <path fill="#000" d="M19.446 15.305c-.104-.283-.302-.435-.529-.56a1.301 1.301 0 0 0-.115-.061l-.204-.104c-.705-.374-1.256-.845-1.637-1.404a3.186 3.186 0 0 1-.281-.498c-.033-.093-.031-.146-.008-.195a.316.316 0 0 1 .09-.094l.33-.216c.152-.097.271-.175.349-.23.289-.202.491-.417.618-.657a1.309 1.309 0 0 0 .064-1.088c-.191-.504-.668-.817-1.245-.817a1.715 1.715 0 0 0-.457.06c.006-.345-.002-.709-.032-1.067-.11-1.26-.55-1.92-1.01-2.447a4.024 4.024 0 0 0-1.027-.826C13.654 4.702 12.862 4.5 12 4.5c-.863 0-1.65.202-2.349.6a4.01 4.01 0 0 0-1.029.829c-.46.526-.9 1.188-1.01 2.446-.03.359-.038.725-.033 1.068a1.715 1.715 0 0 0-.456-.06c-.578 0-1.055.312-1.246.817a1.311 1.311 0 0 0 .063 1.088c.127.24.33.456.619.658.077.054.197.131.348.23.081.053.2.13.317.208a.33.33 0 0 1 .102.102c.025.05.026.104-.01.204-.078.17-.17.334-.277.488-.373.546-.908 1.009-1.59 1.38-.361.191-.737.32-.896.75-.12.326-.04.696.263 1.008.112.116.24.214.383.29.296.163.611.289.938.375a.621.621 0 0 1 .19.085c.11.097.094.243.242.457.074.11.168.206.277.282.31.214.658.227 1.027.241.333.013.71.027 1.141.17.179.059.365.173.58.306.516.318 1.223.752 2.405.752 1.183 0 1.894-.437 2.415-.755.213-.131.397-.244.571-.302.431-.142.809-.157 1.142-.17.368-.014.716-.027 1.026-.24.13-.091.237-.209.316-.346.106-.18.103-.306.203-.394a.588.588 0 0 1 .178-.082 4.17 4.17 0 0 0 .95-.378c.151-.081.288-.188.403-.315l.003-.005c.286-.305.357-.664.24-.982Zm-1.05.565c-.642.354-1.068.316-1.4.53-.281.181-.115.572-.32.713-.25.174-.994-.012-1.954.305-.792.261-1.297 1.014-2.72 1.014-1.425 0-1.918-.751-2.723-1.016-.958-.317-1.703-.131-1.955-.305-.204-.141-.038-.532-.32-.713-.331-.214-.757-.176-1.398-.528-.408-.225-.177-.365-.04-.43 2.322-1.125 2.692-2.861 2.709-2.99.02-.156.042-.279-.13-.437-.166-.153-.902-.61-1.106-.752-.338-.236-.487-.472-.377-.761.076-.2.263-.276.46-.276.062 0 .123.007.184.02.37.08.731.267.94.317.024.006.05.01.076.01.111 0 .15-.056.142-.183-.023-.406-.08-1.197-.017-1.936.088-1.017.416-1.521.805-1.967.187-.214 1.066-1.143 2.746-1.143s2.562.925 2.749 1.139c.39.445.718.95.805 1.966.064.74.009 1.531-.017 1.937-.01.133.031.183.142.183a.325.325 0 0 0 .077-.01c.208-.05.569-.237.94-.317a.854.854 0 0 1 .184-.02c.197 0 .383.076.46.275.11.29-.039.526-.377.762-.204.142-.94.598-1.106.751-.173.159-.15.282-.13.437.017.131.387 1.867 2.71 2.99.137.068.368.208-.04.435Z"/>
  </g>
  <defs>
    <clipPath id="Snap_svg__a">
      <path fill="#fff" d="M0 0h24v24H0z"/>
    </clipPath>
  </defs>
</svg>
