<svg fill="none" viewBox="0 0 48 48" xmlns="http://www.w3.org/2000/svg">
  <path fill="#666" d="M11 4a4 4 0 0 1 4-4h21a4 4 0 0 1 4 4v40a4 4 0 0 1-4 4H15a4 4 0 0 1-4-4V4Z"/>
  <path fill="#888" d="M8 4a4 4 0 0 1 4-4h21a4 4 0 0 1 4 4v40a4 4 0 0 1-4 4H12a4 4 0 0 1-4-4V4Z"/>
  <path fill="#FAFAFA" d="M11 4a1 1 0 0 1 1-1h21a1 1 0 0 1 1 1v40a1 1 0 0 1-1 1H12a1 1 0 0 1-1-1V4Z"/>
  <path fill="#DDD" fill-rule="evenodd" d="M23 36.5a1.5 1.5 0 0 1 1.5-1.5h5a1.5 1.5 0 0 1 0 3h-5a1.5 1.5 0 0 1-1.5-1.5Zm0 4a1.5 1.5 0 0 1 1.5-1.5h3a1.5 1.5 0 0 1 0 3h-3a1.5 1.5 0 0 1-1.5-1.5ZM16 35a2 2 0 0 0-2 2v3a2 2 0 0 0 2 2h3a2 2 0 0 0 2-2v-3a2 2 0 0 0-2-2h-3Z" clip-rule="evenodd"/>
  <path fill="#666" d="M18 5.5A1.5 1.5 0 0 1 19.5 4h6a1.5 1.5 0 0 1 0 3h-6A1.5 1.5 0 0 1 18 5.5Z"/>
  <path fill="#4CBA3C" fill-rule="evenodd" d="M21.345 12.457c.29-.291.71-.458 1.15-.457.442.001.86.17 1.148.463.864.88 1.673 1.396 2.539 1.665.858.266 1.834.308 3.08.15.434-.056.875.056 1.207.306.333.25.526.614.53.998.037 4.365-.605 7.05-1.862 8.929-1.348 2.015-3.363 3.036-5.674 4.208l-.052.026-.003.002-.147.074a1.707 1.707 0 0 1-1.522 0l-.146-.074-.003-.002-.053-.026c-2.311-1.172-4.326-2.193-5.674-4.208-1.257-1.88-1.899-4.564-1.861-8.929.003-.384.195-.747.528-.997.332-.25.772-.362 1.206-.308 1.258.159 2.238.106 3.096-.168.86-.275 1.66-.792 2.513-1.652Zm5.862 6.75a1 1 0 0 0-1.414-1.414L21.5 22.086l-1.793-1.793a1 1 0 0 0-1.414 1.414l2.5 2.5a1 1 0 0 0 1.414 0l5-5Z" clip-rule="evenodd"/>
  <path fill="#CCC" d="M2.702 11a.902.902 0 0 0-.635 1.54l1.8 1.8a.902.902 0 0 0 1.275-1.273l-1.801-1.801A.897.897 0 0 0 2.706 11h-.004Zm.9 8.105H.901c-.496 0-.901.405-.901.9s.405.9.9.9h2.702c.495 0 .9-.405.9-.9s-.405-.9-.9-.9Zm1.531 6.57a.897.897 0 0 0-.635-.266h-.005c-.23 0-.459.09-.635.266l-1.8 1.8a.902.902 0 0 0 1.274 1.275l1.8-1.801a.902.902 0 0 0 0-1.274Z"/>
</svg>
