<svg width="24" height="24" fill="none" xmlns="http://www.w3.org/2000/svg">
  <g clip-path="url(#Adjust_svg__a)">
    <path fill="#00BED5" d="M24 12c0 6.627-5.373 12-12 12S0 18.627 0 12 5.373 0 12 0s12 5.373 12 12Z"/>
    <path fill="#000" fill-opacity=".12" fill-rule="evenodd" d="M24 12c0 6.627-5.373 12-12 12S0 18.627 0 12 5.373 0 12 0s12 5.373 12 12ZM12 23.5c6.351 0 11.5-5.149 11.5-11.5S18.351.5 12 .5.5 5.649.5 12 5.649 23.5 12 23.5Z" clip-rule="evenodd"/>
    <path fill="#fff" d="m17.03 15.017-.835-.614c-1.672-1.228-3.206-2.264-4.557-3.077l-.302-.202 1.97-4.49 3.724 8.383ZM18.208 18l1.292-1.303L14.31 5h-1.946l-2.336 5.418-.26-.13C8.374 9.59 7.3 9.25 6.485 9.25c-1.047 0-1.521.577-1.711.92-.575 1.04-.246 2.488 1.002 4.427.46.712.953 1.375 1.304 1.826h1.872l.765-1.755-.803-1.842-.945 2.09-.316-.418c-.212-.286-.407-.57-.582-.84-1.02-1.584-1.182-2.394-.95-2.687.22-.276 1.502.09 2.908.787.773.347 1.565.795 2.343 1.329.559.348 1.159.74 1.774 1.158A87.073 87.073 0 0 1 18.208 18Z"/>
  </g>
  <defs>
    <clipPath id="Adjust_svg__a">
      <path fill="#fff" d="M0 0h24v24H0z"/>
    </clipPath>
  </defs>
</svg>
