<svg width="32" height="32" viewBox="0 0 32 32" fill="none" xmlns="http://www.w3.org/2000/svg">
<path fill-rule="evenodd" clip-rule="evenodd" d="M32 10.2069C32 15.844 27.4302 20.4138 21.7931 20.4138C20.5575 20.4138 19.3731 20.1942 18.2769 19.792L16 22.0689H11.5862V26.9964C11.5862 27.3221 11.3222 27.5861 10.9965 27.5861H7.1724V31.4103C7.1724 31.736 6.90838 32 6.58269 32H-1.14441e-05V25.3793L12.0671 13.3121C11.7548 12.333 11.5862 11.2896 11.5862 10.2069C11.5862 4.56978 16.156 0 21.7931 0C27.4302 0 32 4.56978 32 10.2069ZM23.2727 4.94546C21.1841 4.94546 19.4909 6.63863 19.4909 8.72727C19.4909 10.8159 21.1841 12.5091 23.2727 12.5091C25.3614 12.5091 27.0545 10.8159 27.0545 8.72727C27.0545 6.63863 25.3614 4.94546 23.2727 4.94546Z" fill="#FFCC33"/>
</svg>
