<svg width="96" height="96" viewBox="0 0 96 96" fill="none" xmlns="http://www.w3.org/2000/svg">
<path d="M71 51C59.9543 51 51 59.9543 51 71V72C51 76.4183 47.4183 80 43 80H36C31.5817 80 28 76.4183 28 72V24C28 19.5817 31.5817 16 36 16H68C72.4183 16 76 19.5817 76 24V48C76 49.6569 74.6569 51 73 51H71Z" fill="#C18010"/>
<path d="M71 51C59.9543 51 51 59.9543 51 71V72C51 74.7614 48.7614 77 46 77H34C28.4772 77 24 72.5228 24 67V29C24 23.4771 28.4772 19 34 19H68C70.7614 19 73 21.2386 73 24V51H71Z" fill="#FFF0C2"/>
<path d="M69 51.0988C58.8934 52.1022 51 60.6293 51 71V76C51 78.2091 49.2091 80 47 80H35C26.7157 80 20 73.2843 20 65V31C20 22.7157 26.7157 16 35 16H61C65.4183 16 69 19.5817 69 24V51.0988Z" fill="#E2A412"/>
<path d="M35 80L28 80C23.5817 80 20 76.4183 20 72L20 24C20 19.5817 23.5817 16 28 16L35 16L35 80Z" fill="#C18010"/>
<path d="M62 15.9998H48V17.9998V45.0352C48 46.6767 49.8683 47.6192 51.1886 46.6437L53.8114 44.7056C54.5179 44.1836 55.4821 44.1836 56.1886 44.7056L58.8114 46.6437C60.1317 47.6192 62 46.6767 62 45.0352V17.9998V15.9998Z" fill="#3969EF"/>
<path d="M71 87C79.8366 87 87 79.8366 87 71C87 62.1634 79.8366 55 71 55C62.1634 55 55 62.1634 55 71C55 79.8366 62.1634 87 71 87Z" fill="#557FF3"/>
<path fill-rule="evenodd" clip-rule="evenodd" d="M80 73C80 73.5523 79.5523 74 79 74L70.0223 74C69.6062 74 69.3722 74.4785 69.6276 74.807L71.8752 77.6967C72.2185 78.138 72.1332 78.7751 71.6858 79.1106L69.2862 80.9103C68.8498 81.2376 68.2316 81.1548 67.8968 80.7242L61.4657 72.453C60.8448 71.5837 60.8448 70.416 61.4657 69.5468L67.8968 61.2758C68.2316 60.8452 68.8498 60.7623 69.2862 61.0896L71.6858 62.8894C72.1332 63.2249 72.2185 63.862 71.8752 64.3033L69.6276 67.193C69.3722 67.5215 69.6062 68 70.0223 68L79 68C79.5523 68 80 68.4477 80 69L80 73Z" fill="white"/>
<path d="M92.5015 59C92.7989 59 93.0962 59.12 93.3236 59.3539C93.7785 59.8219 93.7785 60.5837 93.3236 61.0517L90.9913 63.4512C90.5364 63.9192 89.7959 63.9192 89.3411 63.4512C88.8863 62.9833 88.8863 62.2215 89.3411 61.7535L91.6735 59.3539C91.9009 59.12 92.1983 59 92.4957 59H92.5015Z" fill="#CCCCCC"/>
<path d="M91.3352 69.7982H94.8338C95.4752 69.7982 96 70.3381 96 70.998C96 71.6579 95.4752 72.1978 94.8338 72.1978H91.3352C90.6938 72.1978 90.169 71.6579 90.169 70.998C90.169 70.3381 90.6938 69.7982 91.3352 69.7982Z" fill="#CCCCCC"/>
<path d="M89.353 78.5518C89.5804 78.3178 89.8778 78.1978 90.1751 78.1978H90.181C90.4783 78.1978 90.7757 78.3178 91.0031 78.5518L93.3355 80.9513C93.7903 81.4193 93.7903 82.1811 93.3355 82.6491C92.8807 83.117 92.1402 83.117 91.6854 82.6491L89.353 80.2495C88.8982 79.7815 88.8982 79.0197 89.353 78.5518Z" fill="#CCCCCC"/>
</svg>
