<svg width="24" height="24" viewBox="0 0 24 24" fill="none" xmlns="http://www.w3.org/2000/svg">
<circle cx="12" cy="12" r="11" fill="white"/>
<path fill-rule="evenodd" clip-rule="evenodd" d="M24 12C24 18.6274 18.6274 24 12 24C5.37258 24 0 18.6274 0 12C0 5.37258 5.37258 0 12 0C18.6274 0 24 5.37258 24 12ZM10.0973 12.7383V19H12.6676V12.7383H14.6801L15 10.25H12.6676V8.53555C12.6676 7.81641 12.8672 7.32422 13.9008 7.32422H15.2188V5.09844C14.9918 5.06836 14.2098 5 13.2992 5C11.3988 5 10.0973 6.15938 10.0973 8.28945V10.25H8V12.7383H10.0973Z" fill="#333333"/>
</svg>
