<svg width="96" height="96" viewBox="0 0 96 96" fill="none" xmlns="http://www.w3.org/2000/svg">
<path fill-rule="evenodd" clip-rule="evenodd" d="M69.2251 34.0619C69.2251 44.0688 61.1128 52.1811 51.1059 52.1811C49.2005 52.1811 47.3638 51.887 45.6387 51.3417L42.6126 54.3678H36.2865V59.5632C36.2865 60.123 35.8327 60.5768 35.2729 60.5768H29.9604V68.1543C29.9604 68.7141 29.5066 69.1679 28.9468 69.1679H16V56.2813L33.5848 38.6965C33.1945 37.2172 32.9866 35.6638 32.9866 34.0619C32.9866 24.0549 41.0989 15.9426 51.1059 15.9426C61.1128 15.9426 69.2251 24.0549 69.2251 34.0619ZM56.202 34.6281C59.3292 34.6281 61.8642 32.093 61.8642 28.9658C61.8642 25.8386 59.3292 23.3035 56.202 23.3035C53.0748 23.3035 50.5397 25.8386 50.5397 28.9658C50.5397 32.093 53.0748 34.6281 56.202 34.6281Z" fill="#E2A412"/>
<path fill-rule="evenodd" clip-rule="evenodd" d="M72.2251 34.0619C72.2251 44.0688 64.1128 52.1811 54.1059 52.1811C52.2005 52.1811 50.3638 51.887 48.6387 51.3417L45.6126 54.3678H39.2865V59.5632C39.2865 60.123 38.8327 60.5768 38.2729 60.5768H32.9604V68.1543C32.9604 68.7141 32.5066 69.1679 31.9468 69.1679H19V56.2813L36.5848 38.6965C36.1945 37.2172 35.9866 35.6638 35.9866 34.0619C35.9866 24.0549 44.0989 15.9426 54.1059 15.9426C64.1128 15.9426 72.2251 24.0549 72.2251 34.0619ZM59.202 34.6281C62.3292 34.6281 64.8642 32.093 64.8642 28.9658C64.8642 25.8386 62.3292 23.3035 59.202 23.3035C56.0748 23.3035 53.5397 25.8386 53.5397 28.9658C53.5397 32.093 56.0748 34.6281 59.202 34.6281Z" fill="#F9BE1A"/>
<path fill-rule="evenodd" clip-rule="evenodd" d="M68.1768 51.1977C74.4215 46.7738 77.1402 38.536 74.2863 31.055C70.9038 22.1881 60.9736 17.7421 52.1066 21.1247C43.2397 24.5072 38.7937 34.4374 42.1763 43.3044C42.7178 44.7237 43.427 46.0298 44.2727 47.2086L34.6353 68.7342L38.9912 80.1527H41.7249C42.1103 80.1527 42.4624 79.9341 42.6333 79.5887L48.4572 67.8214L51.4695 66.6723C51.7868 65.234 52.2589 63.8538 52.8674 62.5501L51.9638 60.1815L54.9736 59.0333C56.0913 57.5388 57.4131 56.2059 58.8978 55.0759L59.2277 54.339C59.4956 54.3233 59.7638 54.3013 60.0322 54.2729C62.4363 52.6933 65.2013 51.6181 68.1768 51.1977ZM66.0413 29.0277C67.0983 31.7986 65.7089 34.9018 62.938 35.9588C60.1671 37.0159 57.0639 35.6265 56.0069 32.8556C54.9498 30.0847 56.3392 26.9815 59.1101 25.9244C61.881 24.8674 64.9842 26.2568 66.0413 29.0277Z" fill="#E2A412"/>
<path fill-rule="evenodd" clip-rule="evenodd" d="M51 71V73.2385C51 75.3123 49.7197 77.1709 47.7821 77.9101L41.9033 80.1527L37.5474 68.7341L47.1848 47.2085C46.3391 46.0297 45.6298 44.7236 45.0884 43.3043C41.7058 34.4373 46.1518 24.5071 55.0187 21.1246C63.8856 17.742 73.8158 22.188 77.1984 31.055C79.8039 37.8851 77.7645 45.346 72.6375 49.9593C71.8426 50.6745 70.7824 50.9804 69.7165 51.0656C59.4174 51.8898 51 60.3755 51 71ZM68.9535 29.0276C70.0105 31.7985 68.6212 34.9017 65.8503 35.9588C63.0794 37.0158 59.9762 35.6264 58.9191 32.8555C57.8621 30.0846 59.2514 26.9814 62.0223 25.9244C64.7933 24.8673 67.8964 26.2567 68.9535 29.0276Z" fill="#FFCC33"/>
<path fill-rule="evenodd" clip-rule="evenodd" d="M61.0369 26.4205C61.9027 27.3414 63.2725 28 65 28C68.0618 28 70 25.931 70 24C70 22.1902 68.2974 20.2591 65.5629 20.0239C64.0495 18.7873 62.3326 17.7906 60.4699 17.0918C61.832 16.3897 63.3959 16 65 16C69.6702 16 74 19.3036 74 24C74 28.6964 69.6702 32 65 32C62.6447 32 60.376 31.1597 58.7056 29.7243C59.0183 28.3861 59.8393 27.1867 61.0369 26.4205Z" fill="#999999"/>
<path fill-rule="evenodd" clip-rule="evenodd" d="M69 31.1612C67.7689 31.7033 66.3997 32 65 32C62.6447 32 60.376 31.1597 58.7056 29.7243C59.0183 28.3861 59.8393 27.1867 61.0369 26.4205C61.9027 27.3414 63.2725 28 65 28C66.7522 28 68.1364 27.3224 69 26.3808V31.1612Z" fill="url(#paint0_linear_1327_3566)"/>
<path d="M71 87C79.8366 87 87 79.8366 87 71C87 62.1634 79.8366 55 71 55C62.1634 55 55 62.1634 55 71C55 79.8366 62.1634 87 71 87Z" fill="#557FF3"/>
<path d="M92.5015 59C92.7989 59 93.0962 59.12 93.3236 59.3539C93.7785 59.8219 93.7785 60.5837 93.3236 61.0517L90.9913 63.4512C90.5364 63.9192 89.7959 63.9192 89.3411 63.4512C88.8863 62.9833 88.8863 62.2215 89.3411 61.7535L91.6735 59.3539C91.9009 59.12 92.1983 59 92.4957 59H92.5015Z" fill="#CCCCCC"/>
<path d="M91.3352 69.7982H94.8338C95.4752 69.7982 96 70.3381 96 70.998C96 71.6579 95.4752 72.1978 94.8338 72.1978H91.3352C90.6938 72.1978 90.169 71.6579 90.169 70.998C90.169 70.3381 90.6938 69.7982 91.3352 69.7982Z" fill="#CCCCCC"/>
<path d="M89.353 78.5518C89.5804 78.3178 89.8778 78.1978 90.1751 78.1978H90.181C90.4783 78.1978 90.7757 78.3178 91.0031 78.5518L93.3355 80.9513C93.7903 81.4193 93.7903 82.1811 93.3355 82.6491C92.8807 83.117 92.1402 83.117 91.6854 82.6491L89.353 80.2495C88.8982 79.7815 88.8982 79.0197 89.353 78.5518Z" fill="#CCCCCC"/>
<path fill-rule="evenodd" clip-rule="evenodd" d="M74 62.6667C74 62.2985 73.7015 62 73.3333 62H68.6667C68.2985 62 68 62.2985 68 62.6667V67.3333C68 67.7015 67.7015 68 67.3333 68H62.6667C62.2985 68 62 68.2985 62 68.6667V73.3333C62 73.7015 62.2985 74 62.6667 74H67.3333C67.7015 74 68 74.2985 68 74.6667V79.3333C68 79.7015 68.2985 80 68.6667 80H73.3333C73.7015 80 74 79.7015 74 79.3333V74.6667C74 74.2985 74.2985 74 74.6667 74H79.3333C79.7015 74 80 73.7015 80 73.3333V68.6667C80 68.2985 79.7015 68 79.3333 68H74.6667C74.2985 68 74 67.7015 74 67.3333V62.6667Z" fill="white"/>
<defs>
<linearGradient id="paint0_linear_1327_3566" x1="62" y1="29" x2="68" y2="29" gradientUnits="userSpaceOnUse">
<stop stop-color="#5F5F5F"/>
<stop offset="1" stop-color="#999999" stop-opacity="0"/>
</linearGradient>
</defs>
</svg>
