<?xml version="1.0" encoding="UTF-8"?>
<svg width="57px" height="57px" viewBox="0 0 57 57" version="1.1" xmlns="http://www.w3.org/2000/svg" xmlns:xlink="http://www.w3.org/1999/xlink">
    <title>ddg-logo-borderless</title>
    <defs>
        <path d="M28.5,57 C44.2401,57 57,44.2401 57,28.5 C57,12.7599 44.2401,0 28.5,0 C12.7599,0 0,12.7599 0,28.5 C0,44.2401 12.7599,57 28.5,57 Z" id="path-1"></path>
        <linearGradient x1="-0.454458924%" y1="49.4619664%" x2="99.452211%" y2="49.4619664%" id="linearGradient-3">
            <stop stop-color="#6176B9" offset="0.56%"></stop>
            <stop stop-color="#394A9F" offset="69.1%"></stop>
        </linearGradient>
        <linearGradient x1="0.512608326%" y1="52.7920335%" x2="100.576972%" y2="52.7920335%" id="linearGradient-4">
            <stop stop-color="#6176B9" offset="0.56%"></stop>
            <stop stop-color="#394A9F" offset="69.1%"></stop>
        </linearGradient>
    </defs>
    <g id="Page-1" stroke="none" stroke-width="1" fill="none" fill-rule="evenodd">
        <g id="ddg-logo-borderless">
            <path d="M28.5,57 C44.2401,57 57,44.2401 57,28.5 C57,12.7599 44.2401,0 28.5,0 C12.7599,0 0,12.7599 0,28.5 C0,44.2401 12.7599,57 28.5,57 Z" id="Path" fill="#DC593A" fill-rule="nonzero"></path>
            <g id="Clipped">
                <mask id="mask-2" fill="white">
                    <use xlink:href="#path-1"></use>
                </mask>
                <g id="Path"></g>
                <g id="Group" mask="url(#mask-2)" fill-rule="nonzero">
                    <g transform="translate(12.000000, 6.000000)" id="Path">
                        <path d="M28.2123,64.9992 C27.2084,60.37 21.3522,49.9404 19.177,45.4786 C16.9461,41.0725 14.771,34.826 15.7749,30.8103 C15.9422,30.0853 13.8786,24.508 14.4363,24.1175 C19.1213,21.05 20.3483,24.4522 22.2446,23.0579 C23.1927,22.3328 24.5313,23.6156 24.8659,22.4444 C26.0929,18.2056 23.1927,10.8436 19.9579,7.6645 C18.8982,6.6048 17.2808,5.9355 15.496,5.6009 C14.771,4.6528 13.6555,3.70462 12.0939,2.86803 C10.3091,1.91989 6.4608,0.69288 4.453,0.35824 C3.0587,0.13515 2.724,0.52556 2.1663,0.63711 C2.724,0.69288 5.3453,1.97566 5.8473,2.03143 C5.3453,2.36607 3.8395,2.03143 2.8913,2.42185 C2.3894,2.64494 2.0547,3.48153 2.0547,3.87194 C4.7876,3.59308 9.0821,3.87194 11.5919,4.9874 C9.5841,5.2105 6.5166,5.4894 5.2338,6.1586 C1.4412,8.1665 -0.2877,12.8514 0.7162,18.4845 C1.7201,24.1175 6.1262,44.5862 7.5763,51.4463 C8.9706,58.3064 4.5645,62.7125 1.7201,63.9395 L4.7318,64.1626 L3.7279,66.3935 C7.3532,66.7839 11.3688,65.6127 11.3688,65.6127 C10.588,67.8436 5.1223,68.6244 5.1223,68.6244 C5.1223,68.6244 7.7436,69.4052 11.9823,67.8436 C16.2211,66.2262 18.8424,65.2222 18.8424,65.2222 L20.8502,70.4649 L24.6986,66.6723 L26.316,70.688 C26.2044,70.6322 29.2162,69.6283 28.2123,64.9992 L28.2123,64.9992 Z" fill="#D5D7D8"></path>
                        <path d="M29.3835,64.1068 C28.3796,59.4776 22.5234,49.0481 20.3482,44.5862 C18.1173,40.1802 15.9422,33.9336 16.9461,29.9179 C17.1134,29.1929 17.1134,26.1812 17.7269,25.7907 C22.4118,22.7232 22.0772,25.6792 23.9735,24.3406 C24.9216,23.6156 25.7025,22.779 26.0371,21.6078 C27.2641,17.369 24.3639,10.007 21.1291,6.8279 C20.0694,5.7682 18.452,5.099 16.6672,4.7643 C15.9422,3.81618 14.8267,2.86804 13.2651,2.03145 C10.2533,0.41403 6.5165,-0.19947 3.0586,0.41403 C3.6163,0.46981 4.8991,1.58527 5.4011,1.69681 C4.6203,2.19877 2.5567,2.143 2.6124,3.31423 C5.3453,3.03536 8.357,3.48155 10.8668,4.597 C8.859,4.8201 6.9627,5.3221 5.6799,5.9913 C1.8316,7.9992 0.8277,12.0148 1.8316,17.6479 C2.8355,23.281 7.2416,43.8054 8.6917,50.6097 C10.086,57.4698 5.6799,61.8759 2.8913,63.1029 L5.903,63.326 L4.8991,65.5569 C8.5244,65.9473 12.54,64.7761 12.54,64.7761 C11.7592,67.007 6.2934,67.7878 6.2934,67.7878 C6.2934,67.7878 8.9148,68.5686 13.1535,67.007 C17.3923,65.3896 20.0136,64.3857 20.0136,64.3857 L22.0214,69.6283 L25.8698,65.78 L27.4872,69.7956 C27.3756,69.6841 30.3874,68.6802 29.3835,64.1068 L29.3835,64.1068 Z" fill="#FFFFFF"></path>
                        <path d="M6.2935,17.9268 C6.2935,16.7556 7.2416,15.8074 8.4128,15.8074 C9.5841,15.8074 10.5322,16.7556 10.5322,17.9268 C10.5322,19.098 9.5841,20.0462 8.4128,20.0462 C7.2416,20.0462 6.2935,19.098 6.2935,17.9268 Z" fill="#2D4F8E"></path>
                        <path d="M8.8035,17.2018 C8.8035,16.923 9.0266,16.6441 9.3612,16.6441 C9.6401,16.6441 9.9189,16.8672 9.9189,17.2018 C9.9189,17.4807 9.6958,17.7596 9.3612,17.7596 C9.0266,17.7596 8.8035,17.4807 8.8035,17.2018 Z" fill="#FFFFFF"></path>
                        <path d="M20.6831,16.6441 C20.6831,15.6402 21.5197,14.8593 22.5236,14.8593 C23.5275,14.8593 24.3641,15.6959 24.3641,16.6441 C24.3641,17.648 23.5275,18.4846 22.5236,18.4846 C21.5197,18.4846 20.6831,17.648 20.6831,16.6441 Z" fill="#2D4F8E"></path>
                        <path d="M22.8582,16.0304 C22.8582,15.7516 23.0812,15.5843 23.3043,15.5843 C23.5832,15.5843 23.7505,15.8074 23.7505,16.0304 C23.7505,16.3093 23.5274,16.4766 23.3043,16.4766 C23.0812,16.5324 22.8582,16.3093 22.8582,16.0304 Z" fill="#FFFFFF"></path>
                        <path d="M9.0265,11.7917 C9.0265,11.7917 7.4091,11.0666 5.9032,12.0705 C4.3415,13.0187 4.3973,14.0226 4.3973,14.0226 C4.3973,14.0226 3.5607,12.1821 5.7916,11.2897 C7.911,10.3973 9.0265,11.7917 9.0265,11.7917 Z" fill="url(#linearGradient-3)"></path>
                        <path d="M23.5832,11.6245 C23.5832,11.6245 22.412,10.9552 21.5754,10.9552 C19.7349,10.9552 19.2329,11.7918 19.2329,11.7918 C19.2329,11.7918 19.5118,9.8955 21.8542,10.2302 C23.137,10.509 23.5832,11.6245 23.5832,11.6245 L23.5832,11.6245 Z" fill="url(#linearGradient-4)"></path>
                        <path d="M14.8827,26.0697 C15.1058,24.7869 18.3964,22.3887 20.7389,22.2213 C23.0813,22.054 23.8064,22.1098 25.7585,21.6636 C27.7105,21.2174 32.7301,19.9347 34.1244,19.3211 C35.5187,18.6519 41.4307,19.6558 37.2477,21.9425 C35.463,22.9464 30.6107,24.7869 27.097,25.8466 C23.6391,26.9063 21.5197,24.8427 20.3485,26.5716 C19.4561,27.9102 20.1812,29.8065 24.3084,30.1969 C29.8857,30.6988 35.2956,27.6871 35.8534,29.3045 C36.4669,30.9219 31.0569,32.9298 27.7663,32.9855 C24.4757,33.0413 17.8387,30.8104 16.8348,30.1411 C15.9424,29.3603 14.6039,27.7429 14.8827,26.0697 L14.8827,26.0697 Z" fill="#FDD20A"></path>
                        <path d="M17.3926,42.5226 C17.3926,42.5226 9.5286,38.3396 9.417,40.0128 C9.3055,41.7418 9.417,48.6576 10.3094,49.2154 C11.2018,49.7173 17.783,45.8132 17.783,45.8132 L17.3926,42.5226 Z" fill="#65BC46"></path>
                        <path d="M20.4042,42.2436 C20.4042,42.2436 25.7585,38.1722 26.9855,38.451 C28.1567,38.7299 28.4356,47.0959 27.3759,47.4863 C26.3162,47.8767 20.1812,45.3669 20.1812,45.3669 L20.4042,42.2436 Z" fill="#65BC46"></path>
                        <path d="M15.4961,42.9686 C15.4961,45.7014 15.1056,46.8727 16.2769,47.1515 C17.4481,47.4304 19.679,47.1515 20.4599,46.6496 C21.2407,46.1476 20.5714,42.5781 20.3483,41.9089 C20.0694,41.2954 15.4961,41.7973 15.4961,42.9686 L15.4961,42.9686 Z" fill="#43A244"></path>
                        <path d="M15.9983,42.3551 C15.9983,45.0879 15.6078,46.3149 16.7791,46.538 C17.9503,46.8169 20.1812,46.538 20.9621,46.0361 C21.7429,45.5341 21.0736,41.9647 20.8505,41.2954 C20.5716,40.6819 15.9983,41.1838 15.9983,42.3551 L15.9983,42.3551 Z" fill="#65BC46"></path>
                    </g>
                </g>
            </g>
        </g>
    </g>
</svg>
