<svg fill="none" viewBox="0 0 16 16" xmlns="http://www.w3.org/2000/svg">
  <g fill-rule="evenodd" clip-path="url(#Info-Color-16_svg__a)" clip-rule="evenodd">
    <path fill="#557FF3" d="M8 16A8 8 0 1 0 8 0a8 8 0 0 0 0 16Z"/>
    <path fill="#fff" d="M7.287 4.797c0-.554.453-1.152 1.196-1.152.438 0 .948.262.948.904 0 .51-.35 1.137-1.181 1.137-.452 0-.963-.218-.963-.889Zm-.2 2.044 1.826-.295s-.443 2.56-.58 3.45c-.137.892.047 1.27.886 1.149-.04.575-.213 1.21-1.224 1.21-.886 0-1.447-.511-1.447-1.448 0-.943.163-1.846.32-2.723.082-.454.163-.901.218-1.343Z"/>
  </g>
  <defs>
    <clipPath id="Info-Color-16_svg__a">
      <path fill="#fff" d="M0 0h16v16H0z"/>
    </clipPath>
  </defs>
</svg>