<svg width="24" height="24" fill="none" xmlns="http://www.w3.org/2000/svg">
  <g clip-path="url(#Microsoft_svg__a)">
    <path fill="#fff" d="M24 12c0 6.627-5.373 12-12 12S0 18.627 0 12 5.373 0 12 0s12 5.373 12 12Z"/>
    <path fill="#000" fill-opacity=".12" fill-rule="evenodd" d="M24 12c0 6.627-5.373 12-12 12S0 18.627 0 12 5.373 0 12 0s12 5.373 12 12ZM12 23.5c6.351 0 11.5-5.149 11.5-11.5S18.351.5 12 .5.5 5.649.5 12 5.649 23.5 12 23.5Z" clip-rule="evenodd"/>
    <path fill="#F35325" d="M5 5h6.5v6.5H5V5Z"/>
    <path fill="#81BC06" d="M12.5 5H19v6.5h-6.5V5Z"/>
    <path fill="#05A6F0" d="M5 12.5h6.5V19H5v-6.5Z"/>
    <path fill="#FFBA08" d="M12.5 12.5H19V19h-6.5v-6.5Z"/>
  </g>
  <defs>
    <clipPath id="Microsoft_svg__a">
      <path fill="#fff" d="M0 0h24v24H0z"/>
    </clipPath>
  </defs>
</svg>
