<svg fill="none" viewBox="0 0 16 16" xmlns="http://www.w3.org/2000/svg">
  <g clip-path="url(#Platform-Apple-16_svg__a)">
    <path fill="#000" fill-opacity=".84" d="M11.717 3.965a.01.01 0 0 1 .01-.015c.364.054.746.177 1.18.401.245.127.474.297.693.511.204.2.43.644.206.822a5.48 5.48 0 0 0-.6.562c-.229.245-.405.544-.582.93-.176.385-.246.824-.246 1.333 0 .596.105 1.088.317 1.509.212.42.458.736.74 1a3.3 3.3 0 0 0 .74.543c.231.115.312.332.222.573l-.133.357c-.176.474-.44.965-.828 1.527-.335.49-.706.93-1.094 1.35a1.828 1.828 0 0 1-1.392.614c-.37 0-.67-.052-.9-.157-.229-.106-.475-.21-.722-.316-.247-.105-.582-.158-1.005-.158-.423 0-.74.053-1.023.158a7.9 7.9 0 0 0-.775.333c-.247.123-.53.158-.864.158-.512 0-.952-.193-1.323-.596a14.91 14.91 0 0 1-1.163-1.421 9.567 9.567 0 0 1-1.181-2.404A9.055 9.055 0 0 1 1.5 8.702c0-1.035.194-1.895.582-2.614a4.036 4.036 0 0 1 1.516-1.597 3.672 3.672 0 0 1 1.922-.544c.352 0 .687.053.987.176.3.123.6.228.881.35.282.124.512.176.74.176.23 0 .46-.07.741-.193.282-.123.6-.245.952-.368a3.38 3.38 0 0 1 1.129-.176c.155 0 .396.017.756.068a.01.01 0 0 0 .01-.015M9.354 3.36a.08.08 0 0 1-.02.014c-.401.207-.785.31-1.152.31-.035 0-.07 0-.106-.002-.063-.004-.103-.06-.123-.12-.018-.053 0-.106 0-.176 0-.403.088-.807.264-1.193a3.96 3.96 0 0 1 .617-.965c.282-.35.652-.631 1.093-.86.324-.167.638-.278.936-.332.18-.032.351.097.351.28 0 .403-.07.807-.23 1.193a4.03 4.03 0 0 1-.616 1.035 3.28 3.28 0 0 1-.994.801.082.082 0 0 0-.02.015"/>
  </g>
  <defs>
    <clipPath id="Platform-Apple-16_svg__a">
      <path fill="#fff" d="M0 0h16v16H0z"/>
    </clipPath>
  </defs>
</svg>
