<svg width="96" height="72" viewBox="0 0 96 72" fill="none" xmlns="http://www.w3.org/2000/svg">
<path opacity="0.2" d="M79.2214 28.65L80.3786 28.35C80.5929 28.3071 80.8072 28.0929 80.85 27.8786L81.15 26.7214C81.2357 26.4214 81.4929 26.25 81.75 26.25C82.05 26.25 82.3072 26.4643 82.35 26.7214L82.65 27.8786C82.6928 28.0929 82.9071 28.3071 83.1214 28.35L84.2786 28.65C84.5786 28.7357 84.75 28.9929 84.75 29.25C84.75 29.55 84.5357 29.8071 84.2786 29.85L83.1214 30.15C82.9071 30.1929 82.6928 30.4071 82.65 30.6214L82.35 31.7786C82.2643 32.0786 82.0071 32.25 81.75 32.25C81.45 32.25 81.1928 32.0357 81.15 31.7786L80.85 30.6214C80.8072 30.4071 80.5929 30.1929 80.3786 30.15L79.2214 29.85C78.9214 29.7643 78.75 29.5071 78.75 29.25C78.75 28.95 78.9643 28.6929 79.2214 28.65Z" fill="#888888"/>
<path opacity="0.2" d="M11.9571 23.85L13.6928 23.4C14.0143 23.3357 14.3357 23.0143 14.4 22.6929L14.85 20.9571C14.9786 20.5071 15.3643 20.25 15.75 20.25C16.2 20.25 16.5857 20.5714 16.65 20.9571L17.1 22.6929C17.1643 23.0143 17.4857 23.3357 17.8072 23.4L19.5429 23.85C19.9929 23.9786 20.25 24.3643 20.25 24.75C20.25 25.2 19.9286 25.5857 19.5429 25.65L17.8072 26.1C17.4857 26.1643 17.1643 26.4857 17.1 26.8071L16.65 28.5429C16.5214 28.9929 16.1357 29.25 15.75 29.25C15.3 29.25 14.9143 28.9286 14.85 28.5429L14.4 26.8071C14.3357 26.4857 14.0143 26.1643 13.6928 26.1L11.9571 25.65C11.5071 25.5214 11.25 25.1357 11.25 24.75C11.25 24.3 11.5714 23.9143 11.9571 23.85Z" fill="#888888"/>
<path opacity="0.2" d="M0.471418 39.9L1.62857 39.6C1.84285 39.5571 2.05715 39.3429 2.10001 39.1286L2.39999 37.9714C2.4857 37.6714 2.74286 37.5 3 37.5C3.3 37.5 3.55715 37.7143 3.60001 37.9714L3.89999 39.1286C3.94285 39.3429 4.15715 39.5571 4.37143 39.6L5.52858 39.9C5.82858 39.9857 6 40.2429 6 40.5C6 40.8 5.78572 41.0571 5.52858 41.1L4.37143 41.4C4.15715 41.4429 3.94285 41.6571 3.89999 41.8714L3.60001 43.0286C3.5143 43.3286 3.25714 43.5 3 43.5C2.7 43.5 2.44285 43.2857 2.39999 43.0286L2.10001 41.8714C2.05715 41.6571 1.84285 41.4429 1.62857 41.4L0.471418 41.1C0.171418 41.0143 0 40.7571 0 40.5C0 40.2 0.214275 39.9429 0.471418 39.9Z" fill="#888888"/>
<path opacity="0.2" d="M94.875 39C94.2562 39 93.75 38.4937 93.75 37.875C93.75 37.2562 94.2562 36.75 94.875 36.75C95.4937 36.75 96 37.2562 96 37.875C96 38.4937 95.4937 39 94.875 39Z" fill="#888888"/>
<path opacity="0.2" d="M17.25 52.5C16.425 52.5 15.75 51.825 15.75 51C15.75 50.175 16.425 49.5 17.25 49.5C18.075 49.5 18.75 50.175 18.75 51C18.75 51.825 18.075 52.5 17.25 52.5Z" fill="#888888"/>
<path d="M40 12H61C62.6569 12 64 13.3431 64 15V35.2238C64 36.8041 62.76 38.0817 61.2301 38.4777C54.7706 40.1498 50 46.0178 50 53V57C49.5907 57.2037 49.1344 58 48.6634 58H40C38.3431 58 37 56.6569 37 55V15C37 13.3431 38.3431 12 40 12Z" fill="#666666"/>
<path d="M35 12H58C59.6569 12 61 13.3431 61 15V38.5392C54.6576 40.2897 50 46.1009 50 53V57C50 58.6569 48.6569 60 47 60H35C33.3431 60 32 58.6569 32 57V15C32 13.3431 33.3431 12 35 12Z" fill="#888888"/>
<path d="M40.25 15.1382V14H35.2829C34.5724 14 34 14.5864 34 15.303V55.697C34 56.4136 34.5724 57 35.2829 57H50V53C50 46.849 53.7023 41.5628 59 39.2481V15.303C59 14.5864 58.4276 14 57.7171 14H52.75V15.1381C52.75 15.7595 52.2463 16.2631 51.625 16.2631H41.375C40.7537 16.2631 40.25 15.7595 40.25 15.1382Z" fill="#FFD65C"/>
<path d="M50.9703 33.8604C49.5146 36.2083 46.3954 37.07 43.8508 35.8832C43.6537 35.7903 43.5881 35.5529 43.6975 35.3723L44.4199 34.2113C44.595 33.9326 44.3214 33.5921 43.9876 33.6746L39.2868 34.8357C39.0788 34.8873 38.9585 35.0885 39.0132 35.2794L40.239 39.7275C40.3265 40.0423 40.7698 40.099 40.9449 39.8204L41.6508 38.68C41.7548 38.5097 41.9847 38.4529 42.1707 38.5458C46.2805 40.6099 51.419 39.2579 53.7995 35.4239C54.7681 33.8655 55.1293 32.1317 54.9596 30.4598C54.9268 30.1502 54.6149 29.9386 54.2975 30.016L52.4861 30.465C52.0319 30.5785 51.731 30.9604 51.72 31.4041C51.6927 32.2401 51.4573 33.0812 50.9758 33.8552L50.9703 33.8604Z" fill="#F9BE1A"/>
<path d="M41.7779 28.1396C43.1425 25.7917 46.0668 24.93 48.4524 26.1168C48.6371 26.2097 48.6987 26.4471 48.5961 26.6277L47.9189 27.7887C47.7547 28.0674 48.0112 28.4079 48.3242 28.3254L52.7311 27.1643C52.9261 27.1127 53.0389 26.9115 52.9876 26.7206L51.8385 22.2725C51.7564 21.9577 51.3408 21.901 51.1766 22.1796L50.5148 23.32C50.4174 23.4903 50.2019 23.5471 50.0274 23.4542C46.1746 21.3901 41.3572 22.7421 39.1255 26.5761C38.2174 28.1345 37.8788 29.8683 38.0378 31.5402C38.0686 31.8498 38.361 32.0614 38.6586 31.984L40.3567 31.535C40.7826 31.4215 41.0647 31.0396 41.075 30.5959C41.1006 29.7599 41.3213 28.9188 41.7727 28.1448L41.7779 28.1396Z" fill="#F9BE1A"/>
<path d="M65.25 65.25C71.8774 65.25 77.25 59.8774 77.25 53.25C77.25 46.6226 71.8774 41.25 65.25 41.25C58.6226 41.25 53.25 46.6226 53.25 53.25C53.25 59.8774 58.6226 65.25 65.25 65.25Z" fill="#4CBA3C"/>
<path fill-rule="evenodd" clip-rule="evenodd" d="M66.75 60.75C67.1642 60.75 67.5 60.4142 67.5 60V53.2667C67.5 52.9547 67.8589 52.7791 68.1052 52.9707L70.2725 54.6564C70.6035 54.9139 71.0813 54.8499 71.333 54.5144L72.6828 52.7147C72.9282 52.3874 72.8661 51.9237 72.5431 51.6726L66.3397 46.8492C65.6878 46.3836 64.812 46.3836 64.1601 46.8492L57.9569 51.6726C57.6339 51.9237 57.5718 52.3873 57.8172 52.7146L59.167 54.5144C59.4187 54.8499 59.8965 54.9139 60.2275 54.6564L62.3948 52.9707C62.6411 52.7791 63 52.9547 63 53.2667V60C63 60.4142 63.3358 60.75 63.75 60.75H66.75Z" fill="white"/>
<path d="M81.5739 44.2891C81.8035 44.2891 82.0331 44.3791 82.2087 44.5547C82.5599 44.9059 82.5599 45.4777 82.2087 45.8289L80.4077 47.6299C80.0565 47.9811 79.4847 47.9811 79.1335 47.6299C78.7823 47.2788 78.7823 46.7069 79.1335 46.3557L80.9345 44.5547C81.1101 44.3791 81.3398 44.2891 81.5694 44.2891H81.5739Z" fill="#CCCCCC"/>
<path d="M80.6733 52.3937H83.3749C83.8701 52.3937 84.2754 52.7989 84.2754 53.2942C84.2754 53.7895 83.8701 54.1947 83.3749 54.1947H80.6733C80.1781 54.1947 79.7728 53.7895 79.7728 53.2942C79.7728 52.7989 80.1781 52.3937 80.6733 52.3937Z" fill="#CCCCCC"/>
<path d="M79.1427 58.9636C79.3183 58.788 79.5479 58.698 79.7775 58.698H79.782C80.0117 58.698 80.2413 58.788 80.4169 58.9636L82.2179 60.7647C82.5691 61.1159 82.5691 61.6877 82.2179 62.0389C81.8667 62.3901 81.2949 62.3901 80.9437 62.0389L79.1427 60.2379C78.7915 59.8867 78.7915 59.3148 79.1427 58.9636Z" fill="#CCCCCC"/>
</svg>
