<svg width="24" height="24" fill="none" xmlns="http://www.w3.org/2000/svg">
  <g clip-path="url(#New-Relic_svg__a)">
    <path fill="#0D1C28" d="M24 12c0 6.627-5.373 12-12 12S0 18.627 0 12 5.373 0 12 0s12 5.373 12 12Z"/>
    <path fill="#fff" fill-opacity=".12" fill-rule="evenodd" d="M24 12c0 6.627-5.373 12-12 12S0 18.627 0 12 5.373 0 12 0s12 5.373 12 12ZM12 23.5c6.351 0 11.5-5.149 11.5-11.5S18.351.5 12 .5.5 5.649.5 12 5.649 23.5 12 23.5Z" clip-rule="evenodd"/>
    <path fill="#0097A0" d="M4.117 10.265c.751-3.45 4.888-5.479 9.242-4.533 4.354.946 7.273 4.511 6.524 7.96-.75 3.449-4.888 5.48-9.24 4.532-4.354-.947-7.275-4.507-6.526-7.96ZM12 15.158a3.18 3.18 0 1 0 0-6.36 3.18 3.18 0 0 0 0 6.36Z"/>
    <path fill="#5BC6CC" d="M11.296 7.526a4.566 4.566 0 1 1-.001 9.132 4.566 4.566 0 0 1 .002-9.132Zm.704 7.23a2.778 2.778 0 1 0 .002-5.556A2.778 2.778 0 0 0 12 14.756Z"/>
  </g>
  <defs>
    <clipPath id="New-Relic_svg__a">
      <path fill="#fff" d="M0 0h24v24H0z"/>
    </clipPath>
  </defs>
</svg>
