<svg width="96" height="72" viewBox="0 0 96 72" fill="none" xmlns="http://www.w3.org/2000/svg">
<path opacity="0.2" d="M79.2214 28.65L80.3786 28.35C80.5929 28.3071 80.8072 28.0929 80.85 27.8786L81.15 26.7214C81.2357 26.4214 81.4929 26.25 81.75 26.25C82.05 26.25 82.3072 26.4643 82.35 26.7214L82.65 27.8786C82.6928 28.0929 82.9071 28.3071 83.1214 28.35L84.2786 28.65C84.5786 28.7357 84.75 28.9929 84.75 29.25C84.75 29.55 84.5357 29.8071 84.2786 29.85L83.1214 30.15C82.9071 30.1929 82.6928 30.4071 82.65 30.6214L82.35 31.7786C82.2643 32.0786 82.0071 32.25 81.75 32.25C81.45 32.25 81.1928 32.0357 81.15 31.7786L80.85 30.6214C80.8072 30.4071 80.5929 30.1929 80.3786 30.15L79.2214 29.85C78.9214 29.7643 78.75 29.5071 78.75 29.25C78.75 28.95 78.9643 28.6929 79.2214 28.65Z" fill="#888888"/>
<path opacity="0.2" d="M11.9571 23.85L13.6928 23.4C14.0143 23.3357 14.3357 23.0143 14.4 22.6929L14.85 20.9571C14.9786 20.5071 15.3643 20.25 15.75 20.25C16.2 20.25 16.5857 20.5714 16.65 20.9571L17.1 22.6929C17.1643 23.0143 17.4857 23.3357 17.8072 23.4L19.5429 23.85C19.9929 23.9786 20.25 24.3643 20.25 24.75C20.25 25.2 19.9286 25.5857 19.5429 25.65L17.8072 26.1C17.4857 26.1643 17.1643 26.4857 17.1 26.8071L16.65 28.5429C16.5214 28.9929 16.1357 29.25 15.75 29.25C15.3 29.25 14.9143 28.9286 14.85 28.5429L14.4 26.8071C14.3357 26.4857 14.0143 26.1643 13.6928 26.1L11.9571 25.65C11.5071 25.5214 11.25 25.1357 11.25 24.75C11.25 24.3 11.5714 23.9143 11.9571 23.85Z" fill="#888888"/>
<path opacity="0.2" d="M0.471418 39.9L1.62857 39.6C1.84285 39.5571 2.05715 39.3429 2.10001 39.1286L2.39999 37.9714C2.4857 37.6714 2.74286 37.5 3 37.5C3.3 37.5 3.55715 37.7143 3.60001 37.9714L3.89999 39.1286C3.94285 39.3429 4.15715 39.5571 4.37143 39.6L5.52858 39.9C5.82858 39.9857 6 40.2429 6 40.5C6 40.8 5.78572 41.0571 5.52858 41.1L4.37143 41.4C4.15715 41.4429 3.94285 41.6571 3.89999 41.8714L3.60001 43.0286C3.5143 43.3286 3.25714 43.5 3 43.5C2.7 43.5 2.44285 43.2857 2.39999 43.0286L2.10001 41.8714C2.05715 41.6571 1.84285 41.4429 1.62857 41.4L0.471418 41.1C0.171418 41.0143 0 40.7571 0 40.5C0 40.2 0.214275 39.9429 0.471418 39.9Z" fill="#888888"/>
<path opacity="0.2" d="M94.875 39C94.2562 39 93.75 38.4937 93.75 37.875C93.75 37.2562 94.2562 36.75 94.875 36.75C95.4937 36.75 96 37.2562 96 37.875C96 38.4937 95.4937 39 94.875 39Z" fill="#888888"/>
<path opacity="0.2" d="M17.25 52.5C16.425 52.5 15.75 51.825 15.75 51C15.75 50.175 16.425 49.5 17.25 49.5C18.075 49.5 18.75 50.175 18.75 51C18.75 51.825 18.075 52.5 17.25 52.5Z" fill="#888888"/>
<path d="M55 49L42 48.75V59.25L55 57V49Z" fill="#ABABAB"/>
<path d="M26.25 14C26.25 12.8954 27.1454 12 28.25 12H70C71.1046 12 72 12.8954 72 14V28C72 29.1046 71.1046 30 70 30H28.25C27.1454 30 26.25 29.1046 26.25 28V14Z" fill="#888888"/>
<path d="M34 58.5C34 57.6716 34.6716 57 35.5 57H55V57.75C55 58.9926 53.9926 60 52.75 60H35.5C34.6716 60 34 59.3284 34 58.5Z" fill="#888888"/>
<path d="M68.5954 12H25.4046C24.6289 12 24 12.6805 24 13.52V48.48C24 49.3195 24.6289 50 25.4046 50H55V36C55 32.6863 57.6863 30 61 30H70V13.52C70 12.6805 69.3711 12 68.5954 12Z" fill="#CCCCCC"/>
<path d="M66.9587 15H27.0413C26.4662 15 26 15.5117 26 16.1429V45.8571C26 46.4883 26.4662 47 27.0413 47H55V36C55 32.6863 57.6863 30 61 30H68V16.1429C68 15.5117 67.5338 15 66.9587 15Z" fill="#FFD65C"/>
<path d="M40.25 26.5C39.8358 26.5 39.5 26.1642 39.5 25.75V24.25C39.5 23.8358 39.8358 23.5 40.25 23.5H41.75C42.1642 23.5 42.5 23.8358 42.5 24.25V25.75C42.5 26.1642 42.1642 26.5 41.75 26.5H40.25Z" fill="#F9BE1A"/>
<path fill-rule="evenodd" clip-rule="evenodd" d="M39.3125 29.875C37.5521 29.875 36.125 28.4479 36.125 26.6875V23.3125C36.125 21.5521 37.5521 20.125 39.3125 20.125H42.6875C44.4479 20.125 45.875 21.5521 45.875 23.3125V26.6875C45.875 28.4479 44.4479 29.875 42.6875 29.875H39.3125ZM38 26.6875C38 27.4124 38.5876 28 39.3125 28H42.6875C43.4124 28 44 27.4124 44 26.6875V23.3125C44 22.5876 43.4124 22 42.6875 22H39.3125C38.5876 22 38 22.5876 38 23.3125V26.6875Z" fill="#F9BE1A"/>
<path d="M40.25 38.5C39.8358 38.5 39.5 38.1642 39.5 37.75V36.25C39.5 35.8358 39.8358 35.5 40.25 35.5H41.75C42.1642 35.5 42.5 35.8358 42.5 36.25V37.75C42.5 38.1642 42.1642 38.5 41.75 38.5H40.25Z" fill="#F9BE1A"/>
<path fill-rule="evenodd" clip-rule="evenodd" d="M39.3125 41.875C37.5521 41.875 36.125 40.4479 36.125 38.6875V35.3125C36.125 33.5521 37.5521 32.125 39.3125 32.125H42.6875C44.4479 32.125 45.875 33.5521 45.875 35.3125V38.6875C45.875 40.4479 44.4479 41.875 42.6875 41.875H39.3125ZM38 38.6875C38 39.4124 38.5876 40 39.3125 40H42.6875C43.4124 40 44 39.4124 44 38.6875V35.3125C44 34.5876 43.4124 34 42.6875 34H39.3125C38.5876 34 38 34.5876 38 35.3125V38.6875Z" fill="#F9BE1A"/>
<path d="M51.5 37.75C51.5 38.1642 51.8358 38.5 52.25 38.5H53.75C54.1642 38.5 54.5 38.1642 54.5 37.75V36.25C54.5 35.8358 54.1642 35.5 53.75 35.5H52.25C51.8358 35.5 51.5 35.8358 51.5 36.25V37.75Z" fill="#F9BE1A"/>
<path d="M48.125 38.6875C48.125 40.4479 49.5521 41.875 51.3125 41.875H54.6875C54.7929 41.875 54.8972 41.8699 55 41.8599V39.9626C54.8998 39.987 54.7952 40 54.6875 40H51.3125C50.5876 40 50 39.4124 50 38.6875V35.3125C50 34.5876 50.5876 34 51.3125 34H54.6875C54.9053 34 55.1108 34.0531 55.2916 34.147C55.4878 33.5423 55.7773 32.9796 56.1433 32.4761C55.7069 32.2517 55.212 32.125 54.6875 32.125H51.3125C49.5521 32.125 48.125 33.5521 48.125 35.3125V38.6875Z" fill="#F9BE1A"/>
<path d="M56.9375 29.875C57.4553 29.875 57.875 29.4553 57.875 28.9375V25.9375C57.875 25.4197 57.4553 25 56.9375 25C56.4197 25 56 25.4197 56 25.9375V28H55.4375C54.9197 28 54.5 28.4197 54.5 28.9375C54.5 29.4553 54.9197 29.875 55.4375 29.875H56.9375Z" fill="#F9BE1A"/>
<path d="M49.0625 25C49.5803 25 50 24.5803 50 24.0625V22.1875H50.5625C51.0803 22.1875 51.5 21.7678 51.5 21.25C51.5 20.7322 51.0803 20.3125 50.5625 20.3125H49.0625C48.5447 20.3125 48.125 20.7322 48.125 21.25V24.0625C48.125 24.5803 48.5447 25 49.0625 25Z" fill="#F9BE1A"/>
<path d="M53.9375 22.1875C53.4197 22.1875 53 21.7678 53 21.25C53 20.7322 53.4197 20.3125 53.9375 20.3125H56.9375C57.4553 20.3125 57.875 20.7322 57.875 21.25V22.5625C57.875 23.0803 57.4553 23.5 56.9375 23.5C56.4197 23.5 56 23.0803 56 22.5625V22.1875H53.9375Z" fill="#F9BE1A"/>
<path d="M49.25 29.6875C49.2184 29.6875 49.1871 29.6859 49.1562 29.6829C49.1254 29.6859 49.0941 29.6875 49.0625 29.6875C48.5447 29.6875 48.125 29.2678 48.125 28.75V27.4375C48.125 26.9197 48.5447 26.5 49.0625 26.5C49.5803 26.5 50 26.9197 50 27.4375V27.8125H52.0625C52.5803 27.8125 53 28.2322 53 28.75C53 29.2678 52.5803 29.6875 52.0625 29.6875H49.25Z" fill="#F9BE1A"/>
<path d="M51.5 25.5625C51.5 26.0803 51.9197 26.5 52.4375 26.5H53.5625C54.0803 26.5 54.5 26.0803 54.5 25.5625V24.4375C54.5 23.9197 54.0803 23.5 53.5625 23.5H52.4375C51.9197 23.5 51.5 23.9197 51.5 24.4375V25.5625Z" fill="#F9BE1A"/>
<path d="M61 33H67C68.6569 33 70 34.3431 70 36V53.25V63C70 64.6569 68.6569 66 67 66H62.4605H61C59.3431 66 58 64.6569 58 63V36C58 34.3431 59.3431 33 61 33Z" fill="#444444"/>
<path d="M63 33H77C78.6569 33 80 34.3431 80 36V63C80 64.6569 78.6569 66 77 66H63C61.3431 66 60 64.6569 60 63V57.1154V36C60 34.3431 61.3431 33 63 33Z" fill="#666666"/>
<path fill-rule="evenodd" clip-rule="evenodd" d="M77.1789 64H62.8211C62.3663 64 62 63.6045 62 63.1212V35.8788C62 35.3955 62.3663 35 62.8211 35H77.1789C77.6337 35 78 35.3955 78 35.8788V63.1212C78 63.6045 77.6337 64 77.1789 64ZM68 36C67.4477 36 67 36.4477 67 37C67 37.5523 67.4477 38 68 38H72C72.5523 38 73 37.5523 73 37C73 36.4477 72.5523 36 72 36H68Z" fill="#ADC2FC"/>
<path d="M87.7038 39.5391C87.9334 39.5391 88.163 39.6291 88.3386 39.8047C88.6898 40.1559 88.6898 40.7277 88.3386 41.0789L86.5376 42.8799C86.1864 43.2311 85.6146 43.2311 85.2634 42.8799C84.9122 42.5288 84.9122 41.9569 85.2634 41.6057L87.0644 39.8047C87.24 39.6291 87.4696 39.5391 87.6993 39.5391H87.7038Z" fill="#CCCCCC"/>
<path d="M86.8033 47.6436H89.5049C90.0001 47.6436 90.4054 48.0488 90.4054 48.5441C90.4054 49.0393 90.0001 49.4446 89.5049 49.4446H86.8033C86.3081 49.4446 85.9028 49.0393 85.9028 48.5441C85.9028 48.0488 86.3081 47.6436 86.8033 47.6436Z" fill="#CCCCCC"/>
<path d="M85.2727 54.2136C85.4483 54.038 85.6779 53.948 85.9075 53.948H85.912C86.1417 53.948 86.3713 54.038 86.5469 54.2136L88.3479 56.0147C88.6991 56.3659 88.6991 56.9377 88.3479 57.2889C87.9967 57.6401 87.4249 57.6401 87.0737 57.2889L85.2727 55.4879C84.9215 55.1367 84.9215 54.5648 85.2727 54.2136Z" fill="#CCCCCC"/>
<path fill-rule="evenodd" clip-rule="evenodd" d="M64 46.8541V52C64 53.1046 64.8954 54 66 54H74C75.1046 54 76 53.1046 76 52V46.8541C76 45.8301 75.1525 45 74.1285 45C73.4433 45 72.8064 44.6129 72.5 44C72.1936 43.3871 71.5672 43 70.882 43H69.118C68.4328 43 67.8064 43.3871 67.5 44C67.1936 44.6129 66.5567 45 65.8715 45C64.8475 45 64 45.8301 64 46.8541ZM70 52C71.6569 52 73 50.6569 73 49C73 47.3431 71.6569 46 70 46C68.3431 46 67 47.3431 67 49C67 50.6569 68.3431 52 70 52Z" fill="#8FABF9"/>
</svg>
