<svg width="24" height="24" viewBox="0 0 24 24" fill="none" xmlns="http://www.w3.org/2000/svg">
<circle cx="12" cy="12" r="11" fill="#444444"/>
<path fill-rule="evenodd" clip-rule="evenodd" d="M24 12C24 18.6274 18.6274 24 12 24C5.37258 24 0 18.6274 0 12C0 5.37258 5.37258 0 12 0C18.6274 0 24 5.37258 24 12ZM11.6326 11.1832C11.4753 10.9378 11.1897 10.9394 11.0325 11.1854L10.8007 11.548L10.4015 12.1725C10.1658 12.5415 9.93015 12.9105 9.69463 13.2796C9.69166 13.2842 9.68799 13.2889 9.68426 13.2937L9.68424 13.2937C9.67237 13.3088 9.65998 13.3246 9.66842 13.3414C9.67888 13.3624 9.70003 13.3595 9.7203 13.3568C9.7274 13.3559 9.73438 13.3549 9.74077 13.355C9.77914 13.3556 9.81759 13.355 9.85603 13.3543C9.92445 13.3532 9.99283 13.3521 10.0607 13.3578C10.1498 13.3653 10.198 13.3312 10.244 13.2572C10.4294 12.9595 10.6162 12.6628 10.803 12.366L10.8034 12.3655L10.8034 12.3655L10.8034 12.3654L10.8038 12.3649C10.9651 12.1087 11.1264 11.8525 11.2867 11.5957C11.3286 11.5287 11.3461 11.5369 11.3829 11.5972C11.4856 11.7657 11.5896 11.9334 11.6937 12.1011L11.6939 12.1015C11.7645 12.2153 11.8351 12.3292 11.9053 12.4432C11.9087 12.4486 11.913 12.454 11.9174 12.4596C11.9305 12.476 11.9443 12.4932 11.9344 12.5122C11.924 12.5322 11.9023 12.5294 11.8816 12.5267C11.8745 12.5258 11.8676 12.5249 11.8612 12.5249C11.7004 12.5253 11.5395 12.5254 11.3787 12.5255C11.2018 12.5256 11.0248 12.5258 10.8479 12.5263C10.8426 12.5263 10.8368 12.5254 10.8309 12.5245C10.813 12.5218 10.794 12.5189 10.7851 12.5401C10.7786 12.5556 10.7893 12.5683 10.7997 12.5806L10.7997 12.5806L10.7997 12.5807C10.8034 12.5851 10.8071 12.5895 10.8099 12.5939C10.8309 12.6269 10.8523 12.6597 10.8737 12.6924C10.9138 12.7538 10.9539 12.8153 10.9913 12.8783C11.0189 12.9251 11.0512 12.9408 11.1052 12.9404C11.2862 12.9391 11.4673 12.9391 11.6484 12.9391H11.6488C11.8172 12.9391 11.9857 12.9391 12.1541 12.9381C12.2139 12.9377 12.253 12.9547 12.2827 13.009C12.321 13.0789 12.3626 13.147 12.4041 13.2151C12.4212 13.243 12.4382 13.2709 12.455 13.2989L12.4592 13.306C12.4741 13.3314 12.4888 13.3563 12.5264 13.3561C12.6406 13.3555 12.7549 13.3556 12.8754 13.3557L13.0203 13.3558L12.9942 13.3126C12.9787 13.2869 12.9665 13.2667 12.9538 13.2468L12.8032 13.0115C12.4132 12.402 12.0232 11.7924 11.6326 11.1832ZM5.03947 12.9325H5.03946C4.9704 12.9321 4.90134 12.9317 4.83228 12.9317C4.76728 12.9318 4.70226 12.9322 4.63723 12.9327M5.03947 12.9325C5.19268 12.9334 5.34587 12.9343 5.49893 12.9308ZM5.49893 12.9308C5.9113 12.9212 6.23812 12.585 6.23251 12.1824ZM6.23251 12.1824C6.2267 11.762 5.8979 11.437 5.47794 11.4368ZM5.47794 11.4368H4.84233ZM4.84233 11.4368H4.2067ZM4.2067 11.4368C3.78706 11.4366 3.45556 11.7557 3.44737 12.1679ZM3.44737 12.1679C3.43905 12.585 3.7596 12.9201 4.1834 12.9309ZM4.1834 12.9309C4.33443 12.9348 4.48559 12.9338 4.63674 12.9327ZM5.52797 11.0243C5.28183 11.0235 5.0357 11.0236 4.78957 11.0238C4.57933 11.0239 4.36909 11.024 4.15884 11.0235C4.06939 11.0233 3.98081 11.0317 3.89453 11.0525C3.32182 11.1907 2.93757 11.7396 3.0084 12.3156C3.08167 12.9113 3.56784 13.3435 4.16498 13.3437H4.84047V13.3442C4.91306 13.3442 4.98565 13.3444 5.05824 13.3445L5.05931 13.3445H5.05932H5.05933H5.05934H5.05935H5.05954C5.23537 13.345 5.41118 13.3455 5.58692 13.3432C5.72759 13.3415 5.86153 13.3032 5.98992 13.2465C6.49372 13.0236 6.76317 12.4843 6.64996 11.926C6.54639 11.4155 6.06319 11.0261 5.52797 11.0243ZM20.9115 12.9389C20.7539 12.9383 20.5963 12.9386 20.4387 12.9388C20.0746 12.9395 19.7105 12.9401 19.3467 12.9302C19.0514 12.9222 18.8467 12.7512 18.7204 12.4882C18.6783 12.4006 18.6829 12.3975 18.7784 12.3975L19.1785 12.3975H19.1801C19.6242 12.3975 20.0682 12.3975 20.5123 12.3968C20.5199 12.3968 20.5279 12.3978 20.5361 12.3988C20.5609 12.4019 20.5868 12.4052 20.6033 12.3801C20.6633 12.2892 20.722 12.1976 20.7834 12.1016L20.8581 11.9852H20.7441L20.3305 11.9851C19.8133 11.9849 19.2961 11.9847 18.779 11.9864C18.7059 11.9866 18.6835 11.9737 18.7153 11.8988C18.8298 11.6292 19.1046 11.4411 19.399 11.4401C19.6413 11.4393 19.8836 11.4393 20.126 11.4394H20.1268H20.1268C20.2992 11.4394 20.4715 11.4394 20.6439 11.4391C20.6497 11.4391 20.6556 11.4395 20.6616 11.4398H20.6616C20.6901 11.4413 20.7187 11.4428 20.7392 11.4102C20.7942 11.3224 20.8504 11.2354 20.9106 11.1421L20.911 11.1415L20.9111 11.1413L20.9842 11.028H20.8773L20.5105 11.028C20.1437 11.0281 19.7769 11.0282 19.4101 11.0276C19.3299 11.0274 19.2502 11.0306 19.1712 11.0448C18.5781 11.1507 18.128 11.7025 18.2267 12.3519C18.3173 12.9487 18.7684 13.337 19.3728 13.3529C19.6645 13.3606 19.9566 13.359 20.2486 13.3575L20.249 13.3574C20.3985 13.3567 20.5481 13.3559 20.6976 13.3563C20.7379 13.3564 20.7627 13.3436 20.7838 13.3088C20.8179 13.2527 20.8536 13.1977 20.8892 13.1426L20.8892 13.1425L20.8893 13.1424L20.8894 13.1422L20.8895 13.1421L20.8895 13.1421C20.9132 13.1054 20.937 13.0687 20.9603 13.0317C20.9644 13.025 20.9699 13.0184 20.9754 13.0116C20.9917 12.9917 21.0086 12.9709 20.9951 12.9483C20.9848 12.9312 20.9605 12.934 20.9369 12.9368C20.9301 12.9376 20.9232 12.9384 20.9169 12.9387C20.915 12.9388 20.9132 12.9389 20.9115 12.9389ZM8.86235 11.0283C9.28099 11.029 9.62279 11.3625 9.64035 11.7848C9.65732 12.1935 9.34442 12.5552 8.9376 12.5948C8.88296 12.6001 8.82802 12.6024 8.7656 12.6049L8.76556 12.6049C8.73486 12.6062 8.70234 12.6075 8.66715 12.6093L9.55546 13.3556C9.50859 13.3556 9.4643 13.3545 9.42185 13.3533L9.42175 13.3533C9.33276 13.351 9.25185 13.3488 9.17227 13.3581C8.97806 13.3808 8.83422 13.3142 8.69111 13.1814C8.4479 12.9559 8.19657 12.7391 7.94525 12.5223L7.94524 12.5223L7.94509 12.5221C7.84224 12.4334 7.7394 12.3447 7.63711 12.2554C7.62416 12.2441 7.61165 12.2323 7.59564 12.2172L7.56826 12.1915C7.58354 12.1908 7.59716 12.19 7.6097 12.1892L7.60984 12.1892H7.60985L7.60988 12.1892C7.63415 12.1878 7.65435 12.1866 7.67461 12.1866C7.79546 12.1865 7.91632 12.1866 8.03718 12.1868H8.03721C8.29578 12.1872 8.55434 12.1876 8.8129 12.1852C9.07708 12.1828 9.24534 11.9593 9.1786 11.7082C9.13966 11.5616 8.99417 11.4417 8.83911 11.4408C8.60191 11.4395 8.36469 11.4396 8.12748 11.4396C7.8874 11.4396 7.64732 11.4397 7.40726 11.4383C7.34259 11.438 7.34388 11.4716 7.34531 11.5087L7.34531 11.5088C7.34553 11.5143 7.34574 11.5199 7.34574 11.5255V13.242C7.34574 13.3556 7.34567 13.3556 7.23095 13.3556C7.20452 13.3556 7.17809 13.3553 7.15166 13.355C7.09207 13.3544 7.03249 13.3537 6.97304 13.3567C6.91601 13.3596 6.89502 13.3431 6.8968 13.2831C6.89967 13.186 6.89912 13.0887 6.89856 12.9914L6.89856 12.9911C6.89834 12.9521 6.89812 12.9131 6.89812 12.8741L6.89833 12.4548C6.89867 12.0105 6.899 11.5663 6.89594 11.1221C6.89541 11.0409 6.91878 11.0258 6.99469 11.0262C7.3856 11.0282 7.7765 11.0281 8.16741 11.028C8.39905 11.028 8.6307 11.0279 8.86235 11.0283ZM13.8161 12.9203C13.8887 12.9378 13.9631 12.938 14.037 12.9381C14.3629 12.9383 14.6888 12.9383 15.0147 12.9382H15.0151L15.5041 12.9381C15.5189 12.9381 15.5336 12.9391 15.5526 12.9405L15.5528 12.9405C15.5632 12.9412 15.5748 12.942 15.5884 12.9428L15.5182 13.0525L15.5182 13.0526C15.46 13.1435 15.4051 13.2293 15.3506 13.3153C15.3332 13.3427 15.3119 13.3565 15.2782 13.3559C15.1048 13.3531 14.9313 13.3557 14.7577 13.3583H14.7577H14.7576C14.439 13.3632 14.1204 13.368 13.8031 13.339C13.2687 13.2901 12.8327 12.8335 12.7904 12.3096C12.7438 11.7324 13.0839 11.2269 13.6198 11.0737C13.7262 11.0433 13.8337 11.028 13.9438 11.028H15.4555H15.5541L15.4861 11.1342C15.4222 11.234 15.3615 11.3289 15.2996 11.4231C15.2847 11.4459 15.2609 11.4431 15.2382 11.4405C15.2309 11.4397 15.2238 11.4388 15.2171 11.4388C15.0093 11.4394 14.8014 11.4394 14.5936 11.4395H14.5924C14.3916 11.4395 14.1908 11.4396 13.99 11.4401C13.6097 11.441 13.2791 11.72 13.2359 12.0747C13.1868 12.4793 13.4248 12.8263 13.8161 12.9203ZM16.3318 12.9381C16.2778 12.9382 16.2538 12.9383 16.2434 12.9264C16.2351 12.9169 16.2357 12.8996 16.2366 12.8685C16.237 12.856 16.2374 12.8413 16.2374 12.8239C16.2366 12.2579 16.2359 11.6919 16.2386 11.1258C16.2389 11.0526 16.2278 11.0171 16.143 11.0259C16.058 11.0348 15.971 11.0328 15.8855 11.0264C15.8102 11.0209 15.7857 11.0396 15.7862 11.1219C15.7891 11.6167 15.7887 12.1114 15.7884 12.6062L15.7881 13.0955C15.7882 13.2606 15.878 13.3546 16.0464 13.355C16.5185 13.3562 16.9904 13.356 17.4624 13.3558L17.9934 13.3556L18.0017 13.3557C18.0283 13.356 18.0541 13.3563 18.0721 13.3278C18.1305 13.2352 18.1895 13.143 18.2533 13.0435L18.3206 12.9383H18.2269L17.7059 12.9384C17.2543 12.9384 16.8027 12.9385 16.351 12.9381C16.3442 12.9381 16.3378 12.9381 16.3318 12.9381Z" fill="#DFDFDF"/>
</svg>
