<svg width="24" height="24" fill="none" xmlns="http://www.w3.org/2000/svg">
  <g clip-path="url(#Rubicon_svg__a)">
    <path fill="#CF0A2C" fill-rule="evenodd" d="M12 24c6.627 0 12-5.373 12-12S18.627 0 12 0 0 5.373 0 12s5.373 12 12 12Z" clip-rule="evenodd"/>
    <path fill="#fff" fill-opacity=".12" fill-rule="evenodd" d="M24 12c0 6.627-5.373 12-12 12S0 18.627 0 12 5.373 0 12 0s12 5.373 12 12ZM12 23.5c6.351 0 11.5-5.149 11.5-11.5S18.351.5 12 .5.5 5.649.5 12 5.649 23.5 12 23.5Z" clip-rule="evenodd"/>
    <path fill="#fff" d="M12 14.202a2.092 2.092 0 0 0 2.088-2.086A2.093 2.093 0 0 0 12 10.027a2.092 2.092 0 0 0-2.087 2.088A2.09 2.09 0 0 0 12 14.201Zm0-3.07c.56 0 1 .454 1 .998.014.545-.44.998-1 .998a.997.997 0 1 1 0-1.996Zm-3.325.983a2.092 2.092 0 0 0-2.087-2.087A2.092 2.092 0 0 0 4.5 12.115c0 1.15.939 2.087 2.088 2.087a2.092 2.092 0 0 0 2.087-2.087Zm-2.087 1.74a1.74 1.74 0 1 1 .002-3.48 1.74 1.74 0 0 1-.002 3.48ZM19.5 12.116a2.091 2.091 0 0 1-2.087 2.086 2.092 2.092 0 0 1-2.087-2.086c0-1.15.939-2.088 2.087-2.088 1.15 0 2.087.939 2.087 2.088Z"/>
  </g>
  <defs>
    <clipPath id="Rubicon_svg__a">
      <path fill="#fff" d="M0 0h24v24H0z"/>
    </clipPath>
  </defs>
</svg>
