<svg width="24" height="24" viewBox="0 0 24 24" fill="none" xmlns="http://www.w3.org/2000/svg">
<g id="Convert-24">
<g id="Union">
<path d="M6.7955 4.7955C7.23484 4.35616 7.23484 3.64384 6.7955 3.2045C6.35616 2.76517 5.64384 2.76517 5.2045 3.2045L2.2045 6.2045C1.76517 6.64384 1.76517 7.35616 2.2045 7.7955L5.2045 10.7955C5.64384 11.2348 6.35616 11.2348 6.7955 10.7955C7.23484 10.3562 7.23484 9.64384 6.7955 9.2045L5.59099 8H18C19.1046 8 20 8.89543 20 10V11C20 11.5523 20.4477 12 21 12C21.5523 12 22 11.5523 22 11V10C22 7.79086 20.2091 6 18 6H5.59099L6.7955 4.7955Z" fill="black" fill-opacity="0.84"/>
<path d="M17.2045 14.7955C16.7652 14.3562 16.7652 13.6438 17.2045 13.2045C17.6438 12.7652 18.3562 12.7652 18.7955 13.2045L21.7955 16.2045C22.2348 16.6438 22.2348 17.3562 21.7955 17.7955L18.7955 20.7955C18.3562 21.2348 17.6438 21.2348 17.2045 20.7955C16.7652 20.3562 16.7652 19.6438 17.2045 19.2045L18.409 18H6C3.79086 18 2 16.2091 2 14L2 13C2 12.4477 2.44772 12 3 12C3.55228 12 4 12.4477 4 13L4 14C4 15.1046 4.89543 16 6 16H18.409L17.2045 14.7955Z" fill="black" fill-opacity="0.84"/>
</g>
</g>
</svg>
