<svg fill="none" viewBox="0 0 16 16" xmlns="http://www.w3.org/2000/svg">
  <g fill="#000" clip-path="url(#Tab-Close-16_svg__a)">
    <path fill-rule="evenodd" d="M5.75 0A3.25 3.25 0 0 0 2.5 3.25v7a3.25 3.25 0 0 0 3.25 3.25h7A3.25 3.25 0 0 0 16 10.25v-7A3.25 3.25 0 0 0 12.75 0h-7ZM4 3.25c0-.966.784-1.75 1.75-1.75h7c.966 0 1.75.784 1.75 1.75v7A1.75 1.75 0 0 1 12.75 12h-7A1.75 1.75 0 0 1 4 10.25v-7Z" clip-rule="evenodd"/>
    <path d="M.822 3.59C1.284 3.07 2 3.513 2 4.207c0 .203-.087.394-.2.563-.19.28-.3.616-.3.979v7c0 .966.784 1.75 1.75 1.75h7c.363 0 .7-.11.98-.3.168-.114.359-.2.562-.2.694 0 1.137.716.619 1.178A3.238 3.238 0 0 1 10.25 16h-7A3.25 3.25 0 0 1 0 12.75v-7c0-.83.31-1.587.822-2.16Z"/>
    <path d="M7.28 3.72a.75.75 0 0 0-1.06 1.06l1.97 1.97-1.97 1.97a.75.75 0 0 0 1.06 1.06l1.97-1.97 1.97 1.97a.75.75 0 1 0 1.06-1.06l-1.97-1.97 1.97-1.97a.75.75 0 0 0-1.06-1.06L9.25 5.69 7.28 3.72Z"/>
  </g>
  <defs>
    <clipPath id="Tab-Close-16_svg__a">
      <path fill="#fff" d="M0 0h16v16H0z"/>
    </clipPath>
  </defs>
</svg>
