<svg width="50" height="50" viewBox="0 0 50 50" fill="none" xmlns="http://www.w3.org/2000/svg">
<path fill-rule="evenodd" clip-rule="evenodd" d="M36.0547 17.7406C36.0547 22.9525 31.8296 27.1777 26.6176 27.1777C25.6253 27.1777 24.6687 27.0245 23.7702 26.7405L22.1941 28.3166H18.8992V31.0225C18.8992 31.314 18.6629 31.5504 18.3713 31.5504H15.6044V35.497C15.6044 35.7886 15.368 36.0249 15.0765 36.0249H8.33334V29.3132L17.4921 20.1544C17.2888 19.3839 17.1805 18.5749 17.1805 17.7406C17.1805 12.5286 21.4057 8.30345 26.6176 8.30345C31.8296 8.30345 36.0547 12.5286 36.0547 17.7406ZM29.2719 18.0354C30.9006 18.0354 32.221 16.7151 32.221 15.0864C32.221 13.4576 30.9006 12.1373 29.2719 12.1373C27.6431 12.1373 26.3228 13.4576 26.3228 15.0864C26.3228 16.7151 27.6431 18.0354 29.2719 18.0354Z" fill="#E2A412"/>
<path fill-rule="evenodd" clip-rule="evenodd" d="M37.6172 17.7406C37.6172 22.9525 33.3921 27.1777 28.1801 27.1777C27.1878 27.1777 26.2312 27.0245 25.3327 26.7405L23.7566 28.3166H20.4617V31.0225C20.4617 31.314 20.2254 31.5504 19.9338 31.5504H17.1669V35.497C17.1669 35.7886 16.9305 36.0249 16.639 36.0249H9.89584V29.3132L19.0546 20.1544C18.8513 19.3839 18.743 18.5749 18.743 17.7406C18.743 12.5286 22.9682 8.30345 28.1801 8.30345C33.3921 8.30345 37.6172 12.5286 37.6172 17.7406ZM30.8344 18.0354C32.4631 18.0354 33.7835 16.7151 33.7835 15.0864C33.7835 13.4576 32.4631 12.1373 30.8344 12.1373C29.2056 12.1373 27.8853 13.4576 27.8853 15.0864C27.8853 16.7151 29.2056 18.0354 30.8344 18.0354Z" fill="#F9BE1A"/>
<path fill-rule="evenodd" clip-rule="evenodd" d="M35.5087 26.6655C38.7612 24.3614 40.1772 20.0708 38.6908 16.1745C36.929 11.5563 31.7571 9.24069 27.1389 11.0024C22.5207 12.7642 20.2051 17.9362 21.9668 22.5544C22.2488 23.2936 22.6182 23.9738 23.0587 24.5878L18.0392 35.7991L20.3079 41.7462H21.7317C21.9324 41.7462 22.1158 41.6324 22.2048 41.4525L25.2381 35.3237L26.807 34.7252C26.9723 33.976 27.2182 33.2572 27.5351 32.5782L27.0645 31.3445L28.6321 30.7465C29.2142 29.9681 29.9027 29.2739 30.6759 28.6854L30.8477 28.3015C30.9873 28.2934 31.127 28.2819 31.2668 28.2671C32.5189 27.4445 33.959 26.8845 35.5087 26.6655ZM34.3965 15.1186C34.947 16.5618 34.2234 18.178 32.7802 18.7286C31.337 19.2791 29.7208 18.5555 29.1702 17.1123C28.6197 15.6691 29.3433 14.0529 30.7865 13.5023C32.2297 12.9518 33.8459 13.6754 34.3965 15.1186Z" fill="#E2A412"/>
<path fill-rule="evenodd" clip-rule="evenodd" d="M26.5625 36.9792C26.5625 38.7613 25.4623 40.3585 23.7972 40.9937L21.8246 41.7462L19.5559 35.799L24.5754 24.5878C24.1349 23.9738 23.7655 23.2936 23.4835 22.5543C21.7218 17.9361 24.0374 12.7641 28.6556 11.0024C33.2738 9.24064 38.4457 11.5563 40.2075 16.1745C41.4648 19.4704 40.6454 23.0484 38.3943 25.4675C37.6658 26.2503 36.5844 26.5249 35.5277 26.6885C30.5264 27.4628 26.5625 31.7174 26.5625 36.9792ZM35.9133 15.1185C36.4638 16.5617 35.7402 18.178 34.297 18.7285C32.8538 19.2791 31.2376 18.5554 30.687 17.1122C30.1365 15.6691 30.8601 14.0528 32.3033 13.5023C33.7465 12.9517 35.3627 13.6754 35.9133 15.1185Z" fill="#FFCC33"/>
<path fill-rule="evenodd" clip-rule="evenodd" d="M31.79 13.7607C32.241 14.2403 32.9544 14.5833 33.8542 14.5833C35.4488 14.5833 36.4583 13.5057 36.4583 12.5C36.4583 11.5574 35.5715 10.5516 34.1473 10.4291C33.3591 9.78506 32.4649 9.26594 31.4947 8.90196C32.2042 8.53632 33.0187 8.33334 33.8542 8.33334C36.2866 8.33334 38.5417 10.054 38.5417 12.5C38.5417 14.9461 36.2866 16.6667 33.8542 16.6667C32.6274 16.6667 31.4458 16.229 30.5758 15.4814C30.7387 14.7844 31.1663 14.1598 31.79 13.7607Z" fill="#999999"/>
<path fill-rule="evenodd" clip-rule="evenodd" d="M35.9375 16.2298C35.2963 16.5121 34.5832 16.6667 33.8542 16.6667C32.6274 16.6667 31.4458 16.229 30.5758 15.4814C30.7387 14.7844 31.1663 14.1598 31.79 13.7607C32.241 14.2403 32.9544 14.5833 33.8542 14.5833C34.7668 14.5833 35.4877 14.2304 35.9375 13.74V16.2298Z" fill="url(#paint0_linear_352_1701)"/>
<path d="M48.1779 30.7292C48.3328 30.7292 48.4876 30.7917 48.6061 30.9135C48.843 31.1572 48.843 31.554 48.6061 31.7977L47.3913 33.0475C47.1544 33.2912 46.7687 33.2912 46.5318 33.0475C46.295 32.8038 46.295 32.407 46.5318 32.1633L47.7466 30.9135C47.8651 30.7917 48.02 30.7292 48.1748 30.7292H48.1779Z" fill="#CCCCCC"/>
<path d="M47.5705 36.3532H49.3926C49.7267 36.3532 50 36.6344 50 36.9781C50 37.3218 49.7267 37.603 49.3926 37.603H47.5705C47.2364 37.603 46.9631 37.3218 46.9631 36.9781C46.9631 36.6344 47.2364 36.3532 47.5705 36.3532Z" fill="#CCCCCC"/>
<path d="M46.538 40.9124C46.6565 40.7905 46.8114 40.728 46.9662 40.728H46.9693C47.1242 40.728 47.279 40.7905 47.3975 40.9124L48.6123 42.1622C48.8491 42.4059 48.8491 42.8027 48.6123 43.0464C48.3754 43.2901 47.9897 43.2901 47.7528 43.0464L46.538 41.7966C46.3011 41.5529 46.3011 41.1561 46.538 40.9124Z" fill="#CCCCCC"/>
<rect x="28.6458" y="28.6458" width="16.6667" height="16.6667" rx="8.33333" fill="#DE5833"/>
<path d="M38.9658 36.7002C38.9149 36.7326 38.7517 36.7139 38.5367 36.6894C36.6305 36.3542 36.4448 37.4419 37.3633 39.0977C36.5315 39.3456 37.5124 41.7438 38.3123 43.5445C37.4375 43.8543 35.8272 43.7876 35.0822 43.5127C35.081 43.5089 35.0797 43.5045 35.0785 43.5007C34.9149 43.4403 34.7121 43.4409 34.6172 43.3116C34.361 41.5496 30.7863 33.1412 35.1537 32.5906C35.1811 32.5827 34.5896 32.3988 33.793 32.598C32.7973 32.7971 34.7603 29.8868 36.8227 32.4383C39.0638 32.9283 39.2242 36.5356 38.9661 36.6999L38.9658 36.7002Z" fill="white"/>
<path d="M39.7344 42.2339C39.7122 42.3769 39.6629 42.4722 39.5752 42.4856C39.4089 42.511 38.6649 42.3407 38.242 42.1799C38.1939 42.401 37.0604 42.6104 36.881 42.3133C36.4697 42.6689 35.6816 43.1846 35.5169 43.0766C35.2013 42.8701 34.9045 41.2793 35.142 40.9431C35.5028 40.6152 36.2612 40.972 36.7933 41.1605C36.9737 40.8554 37.8472 40.7398 38.0285 40.9902C38.5063 40.627 39.3037 40.1147 39.3814 40.2081C39.769 40.6753 39.818 41.7868 39.7341 42.2342L39.7344 42.2339Z" fill="#4CBA3C"/>
<path fill-rule="evenodd" clip-rule="evenodd" d="M35.6924 37.4319C35.855 36.2781 38.0346 36.6391 39.0092 36.5095C39.7196 36.4272 40.2467 36.2524 40.5978 36.1161C41.4039 35.785 41.5412 36.1135 41.147 36.6293C40.0341 37.9486 37.559 36.9883 37.1158 37.6706C36.9863 37.8727 37.0865 38.3484 38.1045 38.4984C39.4802 38.7005 40.6103 38.2546 40.7498 38.5241C40.4361 39.9642 35.2133 39.4739 35.6918 37.4323L35.6924 37.4319Z" fill="#FFCC33"/>
<path d="M38.4746 34.1039C38.3304 33.7915 37.5892 33.7937 37.4475 34.0918C37.4346 34.1533 37.4862 34.1371 37.5845 34.1061C37.7569 34.0519 38.0727 33.9525 38.4365 34.1471C38.4652 34.1595 38.493 34.1296 38.4746 34.1039Z" fill="#14307E"/>
<path d="M34.8526 34.1788C34.715 34.1689 34.4916 34.1528 34.307 34.2554C34.0361 34.3708 33.9487 34.495 33.8963 34.5802C33.8769 34.6116 33.802 34.6084 33.802 34.5713C33.8204 34.0743 34.663 33.8347 34.9695 34.1436C35.0067 34.1899 34.9521 34.186 34.8526 34.1788Z" fill="#14307E"/>
<path d="M38.2106 35.8449C37.6435 35.842 37.6435 34.9679 38.2106 34.965C38.7777 34.9679 38.7777 35.842 38.2106 35.8449Z" fill="#14307E"/>
<path d="M35.337 35.7093C35.3258 36.3836 34.3374 36.3836 34.3261 35.7093C34.3293 35.0382 35.3339 35.0385 35.337 35.7093Z" fill="#14307E"/>
<path fill-rule="evenodd" clip-rule="evenodd" d="M36.979 30.7062C33.5146 30.7062 30.7061 33.5147 30.7061 36.9791C30.7061 40.4436 33.5146 43.252 36.979 43.252C40.4435 43.252 43.252 40.4436 43.252 36.9791C43.252 33.5147 40.4435 30.7062 36.979 30.7062ZM29.7104 36.9791C29.7104 32.9648 32.9647 29.7105 36.979 29.7105C40.9934 29.7105 44.2477 32.9648 44.2477 36.9791C44.2477 40.9935 40.9934 44.2478 36.979 44.2478C32.9647 44.2478 29.7104 40.9935 29.7104 36.9791Z" fill="white"/>
<defs>
<linearGradient id="paint0_linear_352_1701" x1="32.2917" y1="15.1042" x2="35.4167" y2="15.1042" gradientUnits="userSpaceOnUse">
<stop stop-color="#5F5F5F"/>
<stop offset="1" stop-color="#999999" stop-opacity="0"/>
</linearGradient>
</defs>
</svg>
