<svg width="96" height="96" viewBox="0 0 96 96" fill="none" xmlns="http://www.w3.org/2000/svg">
<path fill-rule="evenodd" clip-rule="evenodd" d="M69.2251 34.0619C69.2251 44.0688 61.1128 52.1811 51.1059 52.1811C49.2005 52.1811 47.3638 51.887 45.6387 51.3417L42.6126 54.3678H36.2865V59.5632C36.2865 60.123 35.8327 60.5768 35.2729 60.5768H29.9604V68.1543C29.9604 68.7141 29.5066 69.1679 28.9468 69.1679H16V56.2813L33.5848 38.6965C33.1945 37.2172 32.9866 35.6638 32.9866 34.0619C32.9866 24.0549 41.0989 15.9426 51.1059 15.9426C61.1128 15.9426 69.2251 24.0549 69.2251 34.0619ZM56.202 34.6281C59.3292 34.6281 61.8642 32.093 61.8642 28.9658C61.8642 25.8386 59.3292 23.3035 56.202 23.3035C53.0748 23.3035 50.5397 25.8386 50.5397 28.9658C50.5397 32.093 53.0748 34.6281 56.202 34.6281Z" fill="#E2A412"/>
<path fill-rule="evenodd" clip-rule="evenodd" d="M72.2251 34.0619C72.2251 44.0688 64.1128 52.1811 54.1059 52.1811C52.2005 52.1811 50.3638 51.887 48.6387 51.3417L45.6126 54.3678H39.2865V59.5632C39.2865 60.123 38.8327 60.5768 38.2729 60.5768H32.9604V68.1543C32.9604 68.7141 32.5066 69.1679 31.9468 69.1679H19V56.2813L36.5848 38.6965C36.1945 37.2172 35.9866 35.6638 35.9866 34.0619C35.9866 24.0549 44.0989 15.9426 54.1059 15.9426C64.1128 15.9426 72.2251 24.0549 72.2251 34.0619ZM59.202 34.6281C62.3292 34.6281 64.8642 32.093 64.8642 28.9658C64.8642 25.8386 62.3292 23.3035 59.202 23.3035C56.0748 23.3035 53.5397 25.8386 53.5397 28.9658C53.5397 32.093 56.0748 34.6281 59.202 34.6281Z" fill="#F9BE1A"/>
<path fill-rule="evenodd" clip-rule="evenodd" d="M68.1768 51.1977C74.4215 46.7738 77.1402 38.536 74.2863 31.055C70.9038 22.1881 60.9736 17.7421 52.1066 21.1247C43.2397 24.5072 38.7937 34.4374 42.1763 43.3043C42.7178 44.7237 43.427 46.0297 44.2727 47.2085L34.6353 68.7342L38.9912 80.1527H41.7249C42.1103 80.1527 42.4624 79.9341 42.6333 79.5887L48.4572 67.8214L51.4695 66.6723C51.7868 65.234 52.2589 63.8538 52.8674 62.5501L51.9638 60.1814L54.9736 59.0333C56.0913 57.5388 57.4131 56.2059 58.8978 55.0758L59.2277 54.3389C59.4956 54.3233 59.7638 54.3013 60.0322 54.2729C62.4363 52.6933 65.2013 51.6181 68.1768 51.1977ZM66.0413 29.0276C67.0983 31.7986 65.7089 34.9017 62.938 35.9588C60.1671 37.0158 57.0639 35.6265 56.0069 32.8556C54.9498 30.0846 56.3392 26.9815 59.1101 25.9244C61.881 24.8674 64.9842 26.2567 66.0413 29.0276Z" fill="#E2A412"/>
<path fill-rule="evenodd" clip-rule="evenodd" d="M51 71V73.2385C51 75.3124 49.7197 77.171 47.7821 77.9101L41.9033 80.1528L37.5474 68.7342L47.1848 47.2086C46.3391 46.0298 45.6298 44.7237 45.0884 43.3043C41.7058 34.4374 46.1518 24.5072 55.0187 21.1246C63.8856 17.7421 73.8158 22.1881 77.1984 31.055C79.8039 37.8851 77.7645 45.3461 72.6375 49.9594C71.8426 50.6746 70.7824 50.9804 69.7165 51.0657C59.4174 51.8899 51 60.3755 51 71ZM68.9535 29.0277C70.0105 31.7986 68.6212 34.9018 65.8503 35.9588C63.0794 37.0159 59.9762 35.6265 58.9191 32.8556C57.8621 30.0847 59.2514 26.9815 62.0223 25.9244C64.7933 24.8674 67.8964 26.2567 68.9535 29.0277Z" fill="#FFCC33"/>
<path fill-rule="evenodd" clip-rule="evenodd" d="M61.0369 26.4205C61.9027 27.3414 63.2725 28 65 28C68.0618 28 70 25.931 70 24C70 22.1902 68.2974 20.2591 65.5629 20.0239C64.0495 18.7873 62.3326 17.7906 60.4699 17.0918C61.832 16.3897 63.3959 16 65 16C69.6702 16 74 19.3036 74 24C74 28.6964 69.6702 32 65 32C62.6447 32 60.376 31.1597 58.7056 29.7243C59.0183 28.3861 59.8393 27.1867 61.0369 26.4205Z" fill="#999999"/>
<path fill-rule="evenodd" clip-rule="evenodd" d="M69 31.1612C67.7689 31.7033 66.3997 32 65 32C62.6447 32 60.376 31.1597 58.7056 29.7243C59.0183 28.3861 59.8393 27.1867 61.0369 26.4205C61.9027 27.3414 63.2725 28 65 28C66.7522 28 68.1364 27.3224 69 26.3808V31.1612Z" fill="url(#paint0_linear_6544_906)"/>
<path d="M92.5015 59C92.7989 59 93.0962 59.12 93.3236 59.3539C93.7785 59.8219 93.7785 60.5837 93.3236 61.0517L90.9913 63.4512C90.5364 63.9192 89.7959 63.9192 89.3411 63.4512C88.8863 62.9833 88.8863 62.2215 89.3411 61.7535L91.6735 59.3539C91.9009 59.12 92.1983 59 92.4957 59H92.5015Z" fill="#CCCCCC"/>
<path d="M91.3352 69.7982H94.8338C95.4752 69.7982 96 70.3381 96 70.998C96 71.6579 95.4752 72.1978 94.8338 72.1978H91.3352C90.6938 72.1978 90.169 71.6579 90.169 70.998C90.169 70.3381 90.6938 69.7982 91.3352 69.7982Z" fill="#CCCCCC"/>
<path d="M89.353 78.5518C89.5804 78.3178 89.8778 78.1978 90.1751 78.1978H90.181C90.4783 78.1978 90.7757 78.3178 91.0031 78.5518L93.3355 80.9513C93.7903 81.4193 93.7903 82.1811 93.3355 82.6491C92.8807 83.117 92.1402 83.117 91.6854 82.6491L89.353 80.2495C88.8982 79.7815 88.8982 79.0197 89.353 78.5518Z" fill="#CCCCCC"/>
<rect x="55" y="55" width="32" height="32" rx="16" fill="#DE5833"/>
<path d="M74.8144 70.4644C74.7167 70.5266 74.4033 70.4906 73.9905 70.4436C70.3305 69.8 69.974 71.8884 71.7374 75.0676C70.1406 75.5435 72.0239 80.148 73.5596 83.6055C71.8801 84.2003 68.7882 84.0722 67.3578 83.5445C67.3555 83.5372 67.3531 83.5286 67.3507 83.5213C67.0367 83.4054 66.6472 83.4066 66.465 83.1583C65.9731 79.7752 59.1098 63.6312 67.4951 62.5739C67.5477 62.5587 66.412 62.2057 64.8826 62.5881C62.9708 62.9704 66.7398 57.3826 70.6996 62.2816C75.0025 63.2224 75.3105 70.1484 74.815 70.4638L74.8144 70.4644Z" fill="white"/>
<path d="M76.2901 81.0891C76.2475 81.3637 76.1529 81.5467 75.9845 81.5723C75.6651 81.6211 74.2366 81.2941 73.4247 80.9854C73.3324 81.41 71.1561 81.8121 70.8115 81.2417C70.0218 81.9244 68.5088 82.9146 68.1924 82.7071C67.5866 82.3106 67.0168 79.2564 67.4728 78.6109C68.1654 77.9812 69.6215 78.6664 70.6432 79.0282C70.9895 78.4425 72.6667 78.2204 73.0148 78.7012C73.9322 78.0038 75.4632 77.0203 75.6124 77.1997C76.3566 78.0965 76.4507 80.2307 76.2895 81.0897L76.2901 81.0891Z" fill="#4CBA3C"/>
<path fill-rule="evenodd" clip-rule="evenodd" d="M68.5294 71.8694C68.8415 69.6541 73.0264 70.3472 74.8977 70.0983C76.2615 69.9402 77.2736 69.6047 77.9477 69.3429C79.4954 68.7072 79.7591 69.3381 79.0023 70.3283C76.8655 72.8614 72.1132 71.0177 71.2623 72.3276C71.0137 72.7156 71.206 73.629 73.1606 73.9169C75.8019 74.3049 77.9716 73.449 78.2395 73.9663C77.6373 76.7313 67.6096 75.79 68.5282 71.87L68.5294 71.8694Z" fill="#FFCC33"/>
<path d="M73.8713 65.4794C73.5944 64.8797 72.1713 64.884 71.8993 65.4563C71.8745 65.5744 71.9735 65.5432 72.1624 65.4838C72.4932 65.3797 73.0997 65.1888 73.7982 65.5624C73.8533 65.5862 73.9066 65.5289 73.8713 65.4794Z" fill="#14307E"/>
<path d="M66.9171 65.6234C66.6529 65.6043 66.2239 65.5734 65.8694 65.7704C65.3493 65.9918 65.1815 66.2304 65.0809 66.3939C65.0437 66.4543 64.8999 66.4482 64.8999 66.3768C64.9353 65.4226 66.5531 64.9626 67.1415 65.5556C67.2129 65.6447 67.108 65.6371 66.9171 65.6234Z" fill="#14307E"/>
<path d="M73.3644 68.8222C72.2757 68.8167 72.2757 67.1383 73.3644 67.1328C74.4532 67.1383 74.4532 68.8167 73.3644 68.8222Z" fill="#14307E"/>
<path d="M67.8471 68.5619C67.8255 69.8565 65.9278 69.8565 65.9062 68.5619C65.9122 67.2733 67.8411 67.2739 67.8471 68.5619Z" fill="#14307E"/>
<path fill-rule="evenodd" clip-rule="evenodd" d="M70.9997 58.9559C64.348 58.9559 58.9557 64.3482 58.9557 71C58.9557 77.6517 64.348 83.044 70.9997 83.044C77.6515 83.044 83.0438 77.6517 83.0438 71C83.0438 64.3482 77.6515 58.9559 70.9997 58.9559ZM57.0439 71C57.0439 63.2924 63.2922 57.0442 70.9997 57.0442C78.7073 57.0442 84.9555 63.2924 84.9555 71C84.9555 78.7075 78.7073 84.9558 70.9997 84.9558C63.2922 84.9558 57.0439 78.7075 57.0439 71Z" fill="white"/>
<defs>
<linearGradient id="paint0_linear_6544_906" x1="62" y1="29" x2="68" y2="29" gradientUnits="userSpaceOnUse">
<stop stop-color="#5F5F5F"/>
<stop offset="1" stop-color="#999999" stop-opacity="0"/>
</linearGradient>
</defs>
</svg>
