<svg fill="none" viewBox="0 0 128 96" xmlns="http://www.w3.org/2000/svg">
  <path fill="#888" d="m105.629 38.2 1.542-.4a.875.875 0 0 0 .629-.629l.4-1.543A.84.84 0 0 1 109 35c.4 0 .743.286.8.628l.4 1.543a.875.875 0 0 0 .629.629l1.542.4c.4.114.629.457.629.8 0 .4-.286.743-.629.8l-1.542.4a.875.875 0 0 0-.629.628l-.4 1.543a.84.84 0 0 1-.8.629c-.4 0-.743-.286-.8-.629l-.4-1.543a.875.875 0 0 0-.629-.628l-1.542-.4A.842.842 0 0 1 105 39c0-.4.286-.743.629-.8m-89.686-6.4 2.314-.6c.429-.086.857-.514.943-.943l.6-2.314c.171-.6.686-.943 1.2-.943.6 0 1.114.428 1.2.943l.6 2.314c.086.429.514.857.943.943l2.314.6c.6.171.943.686.943 1.2 0 .6-.429 1.114-.943 1.2l-2.314.6c-.429.086-.857.514-.943.943l-.6 2.314c-.171.6-.686.943-1.2.943-.6 0-1.114-.429-1.2-.943l-.6-2.314c-.086-.429-.514-.857-.943-.943l-2.314-.6c-.6-.172-.943-.686-.943-1.2 0-.6.429-1.114.943-1.2ZM.629 53.2l1.542-.4a.875.875 0 0 0 .629-.629l.4-1.542A.841.841 0 0 1 4 50c.4 0 .743.286.8.629l.4 1.542a.875.875 0 0 0 .629.629l1.542.4c.4.114.629.457.629.8 0 .4-.286.743-.629.8l-1.542.4a.875.875 0 0 0-.629.629l-.4 1.542A.841.841 0 0 1 4 58c-.4 0-.743-.286-.8-.629l-.4-1.542a.875.875 0 0 0-.629-.629L.63 54.8A.841.841 0 0 1 0 54c0-.4.286-.743.629-.8ZM126.5 52c-.825 0-1.5-.675-1.5-1.5s.675-1.5 1.5-1.5 1.5.675 1.5 1.5-.675 1.5-1.5 1.5M23 70c-1.1 0-2-.9-2-2s.9-2 2-2 2 .9 2 2-.9 2-2 2" opacity=".2"/>
  <path fill="#C18010" d="M61.07 22.067c.254-.519.569-.972.93-1.36V19h3.687c2.065-.115 4.186.907 5.243 3.067l4.922 10.048a5.49 5.49 0 0 0 4.135 3.017l11.074 1.622c4.49.657 6.289 6.169 3.052 9.349l-2.944 2.891c-1.309 1.286-3.071 1.956-4.905 2.022-.422.016-.843.041-1.264.083-8.772.87-15.876 7.409-17.6 15.901-.762 3.757-.88 1.938-3.97 3.575L60.74 72l-7.136 3.78c-.96.509-1.96.702-2.916.64H47v-1.763a5.398 5.398 0 0 1-1.378-4.65l1.897-11.144a5.49 5.49 0 0 0-1.566-4.837l-8.066-7.923c-3.237-3.18-1.438-8.692 3.052-9.349l11.074-1.621a5.49 5.49 0 0 0 4.135-3.018l4.921-10.049Z"/>
  <path fill="#FC3" d="M66.93 22.067c-2.008-4.1-7.852-4.1-9.86 0l-4.922 10.048a5.49 5.49 0 0 1-4.135 3.017l-11.074 1.622c-4.49.657-6.29 6.169-3.052 9.349l8.066 7.922a5.49 5.49 0 0 1 1.566 4.838l-1.897 11.145c-.765 4.49 3.957 7.905 7.982 5.772l9.826-5.205a5.49 5.49 0 0 1 4.378-.333c1.535.536 3.162-.345 3.375-1.957l.04-.285c1.352-8.984 8.68-16.011 17.806-16.904l5.084-4.993c3.237-3.18 1.438-8.692-3.052-9.349l-11.074-1.621a5.49 5.49 0 0 1-4.135-3.018L66.93 22.066Z"/>
  <path fill="#FC3" d="M66.93 22.067c-2.008-4.1-7.852-4.1-9.86 0l-4.922 10.048a5.49 5.49 0 0 1-4.135 3.017l-11.074 1.622c-4.49.657-6.29 6.169-3.052 9.349l8.066 7.922a5.49 5.49 0 0 1 1.566 4.838l-1.897 11.145c-.765 4.49 3.957 7.905 7.982 5.772l9.826-5.205a5.49 5.49 0 0 1 4.349-.343c1.551.532 3.196-.351 3.41-1.977.023-.177.049-.353.078-.53 1.458-8.852 8.729-15.745 17.762-16.63l5.084-4.992c3.237-3.18 1.438-8.692-3.052-9.349l-11.074-1.621a5.49 5.49 0 0 1-4.135-3.018L66.93 22.066Z"/>
  <path fill="#F9BE1A" fill-rule="evenodd" d="M66.93 22.067c-2.008-4.1-7.852-4.1-9.86 0l-4.922 10.048a5.49 5.49 0 0 1-4.135 3.017l-11.074 1.622c-4.49.657-6.29 6.169-3.052 9.349l8.066 7.922a5.49 5.49 0 0 1 1.566 4.838l-1.897 11.145c-.765 4.49 3.957 7.905 7.982 5.772l9.826-5.205a5.49 5.49 0 0 1 5.14 0L67 71.862V71c0-10.38 7.909-18.914 18.029-19.904l5.084-4.993c3.237-3.18 1.438-8.692-3.052-9.349l-11.074-1.621a5.49 5.49 0 0 1-4.135-3.018L66.93 22.066Zm1.33 11.808-4.922-10.05c-.545-1.112-2.131-1.112-2.676 0l-4.922 10.05a9.49 9.49 0 0 1-7.148 5.215l-11.074 1.622c-1.218.178-1.706 1.674-.828 2.537l8.066 7.923a9.49 9.49 0 0 1 2.706 8.363l-.01.055c5.193-6.537 20.363-13.3 34.084-10.67l5.774-5.67c.878-.864.39-2.36-.829-2.538L75.408 39.09a9.49 9.49 0 0 1-7.148-5.215" clip-rule="evenodd"/>
  <path fill="#557FF3" d="M87 87c8.837 0 16-7.163 16-16s-7.163-16-16-16-16 7.163-16 16 7.163 16 16 16"/>
  <path fill="#CCC" d="M108.501 59c.298 0 .595.12.823.354.454.468.454 1.23 0 1.698l-2.333 2.4a1.145 1.145 0 0 1-1.65 0 1.226 1.226 0 0 1 0-1.698l2.332-2.4c.228-.234.525-.354.823-.354h.005Zm-1.166 10.798h3.499c.641 0 1.166.54 1.166 1.2 0 .66-.525 1.2-1.166 1.2h-3.499c-.641 0-1.166-.54-1.166-1.2 0-.66.525-1.2 1.166-1.2m-1.982 8.754c.227-.234.525-.354.822-.354h.006c.297 0 .595.12.822.354l2.333 2.4c.454.467.454 1.23 0 1.697a1.146 1.146 0 0 1-1.651 0l-2.332-2.4a1.226 1.226 0 0 1 0-1.697Z"/>
  <path fill="#fff" fill-rule="evenodd" d="M90 62.667a.667.667 0 0 0-.667-.667h-4.666a.667.667 0 0 0-.667.667v4.666a.667.667 0 0 1-.667.667h-4.666a.667.667 0 0 0-.667.667v4.666c0 .368.299.667.667.667h4.666c.368 0 .667.299.667.667v4.666c0 .368.299.667.667.667h4.666a.667.667 0 0 0 .667-.667v-4.666c0-.368.299-.667.667-.667h4.666a.667.667 0 0 0 .667-.667v-4.666a.667.667 0 0 0-.667-.667h-4.666a.667.667 0 0 1-.667-.667z" clip-rule="evenodd"/>
</svg>
