<svg viewBox="0 0 24 24" fill="none" xmlns="http://www.w3.org/2000/svg">
  <path fill-rule="evenodd" clip-rule="evenodd" d="M9.713 3.379c.935-1.897 3.64-1.897 4.574 0l1.494 3.031c.08.163.235.275.414.301l3.345.487c2.09.304 2.925 2.873 1.413 4.348l-2.422 2.365c-.13.126-.188.308-.158.486l.572 3.337c.356 2.084-1.831 3.672-3.702 2.687l-2.987-1.572c-.16-.085-.352-.085-.512 0L8.757 20.42c-1.87.985-4.058-.603-3.702-2.687l.572-3.337c.03-.178-.029-.36-.158-.486l-2.423-2.365C1.535 10.071 2.37 7.502 4.46 7.198l3.345-.487c.179-.026.334-.138.414-.3l1.494-3.032zm2.78.884c-.201-.41-.785-.41-.986 0l-1.494 3.031c-.372.753-1.09 1.276-1.92 1.397l-3.345.486c-.45.066-.63.62-.305.938l2.423 2.365c.6.585.874 1.429.732 2.255l-.571 3.337c-.077.45.395.792.798.58l2.987-1.573c.744-.392 1.632-.392 2.376 0l2.987 1.572c.403.213.875-.13.798-.58l-.571-3.336c-.142-.826.132-1.67.732-2.255l2.422-2.365c.327-.318.146-.872-.305-.938l-3.344-.486c-.83-.121-1.549-.644-1.92-1.397l-1.494-3.031z" fill="#000"/>
</svg>
