<svg viewBox="0 0 16 16" fill="none" xmlns="http://www.w3.org/2000/svg">
  <path fill-rule="evenodd" clip-rule="evenodd" d="M7.75 1C6.784 1 6 1.784 6 2.75V4H2.75C1.784 4 1 4.784 1 5.75v7.5c0 .966.784 1.75 1.75 1.75h5.5c.966 0 1.75-.784 1.75-1.75V12h3.25c.966 0 1.75-.784 1.75-1.75V5.139c0-.438-.164-.86-.46-1.183l-2.19-2.389C12.02 1.206 11.55 1 11.06 1H7.75zM10 10.5h3.25c.138 0 .25-.112.25-.25V6h-1c-.828 0-1.5-.672-1.5-1.5v-2H7.75c-.138 0-.25.112-.25.25v1.72c.035.032.07.067.103.103l1.942 2.136c.293.323.455.742.455 1.178V10.5zM13.458 5l-.024-.03L12 3.405V4.5c0 .276.224.5.5.5h.958zM2.5 5.75c0-.138.112-.25.25-.25H6v2C6 8.328 6.672 9 7.5 9h1v4.25c0 .138-.112.25-.25.25h-5.5c-.138 0-.25-.112-.25-.25v-7.5zM7 7.5V6.14l1.435 1.578c.042.046.065.106.065.169V8h-1c-.276 0-.5-.224-.5-.5z" fill="#000"/>
</svg>
