<svg viewBox="0 0 24 24" fill="none" xmlns="http://www.w3.org/2000/svg">
  <path fill-rule="evenodd" clip-rule="evenodd" d="M18 19h-1.126c-.444 1.725-2.01 3-3.874 3H6c-2.21 0-4-1.79-4-4v-8c0-2.21 1.79-4 4-4h1c0-2.21 1.79-4 4-4h3.582c1.086 0 2.126.442 2.88 1.223l3.417 3.545C21.6 7.513 22 8.508 22 9.544V15c0 2.21-1.79 4-4 4zm-3-1c0 1.105-.895 2-2 2H6c-1.105 0-2-.895-2-2v-8c0-1.105.895-2 2-2h3v2c0 2.21 1.79 4 4 4h2v4zm-.828-6L11 8.828V10c0 1.105.895 2 2 2h1.172zM9.343 6H9c0-1.105.895-2 2-2h3v2c0 2.21 1.79 4 4 4h2v5c0 1.105-.895 2-2 2h-1v-3.343c0-1.061-.421-2.078-1.172-2.829l-3.656-3.656C11.422 6.422 10.404 6 9.343 6zM16 4.59l.022.022L19.29 8H18c-1.105 0-2-.895-2-2V4.59z" fill="#000"/>
</svg>
