<?xml version="1.0" encoding="UTF-8"?>
<svg id="Layer_1" xmlns="http://www.w3.org/2000/svg" version="1.1" viewBox="0 0 3300 2200">
  <!-- Generator: Adobe Illustrator 29.0.1, SVG Export Plug-In . SVG Version: 2.1.0 Build 192)  -->
  <defs>
    <style>
      .st0 {
        stroke: #00aeef;
      }

      .st0, .st1, .st2, .st3, .st4, .st5 {
        fill: none;
      }

      .st0, .st1, .st4, .st5 {
        stroke-width: .5px;
      }

      .st1, .st2, .st3, .st4 {
        stroke: #000;
      }

      .st6 {
        fill: #fff;
      }

      .st7 {
        font-family: Helvetica-Bold, Helvetica;
        font-weight: 700;
      }

      .st7, .st8 {
        font-size: 13px;
        isolation: isolate;
      }

      .st2 {
        stroke-width: .5px;
      }

      .st2, .st3, .st4 {
        fill-rule: evenodd;
      }

      .st3 {
        stroke-width: .5px;
      }

      .st8 {
        font-family: Helvetica, Helvetica;
      }

      .st9 {
        fill: #27aae1;
      }

      .st5 {
        stroke: #27aae1;
      }
    </style>
  </defs>
  <g id="Notes">
    <rect id="artboard" class="st6" width="3300" height="2200"/>
    <line class="st1" x1="263" y1="292" x2="3036" y2="292"/>
    <text class="st7" transform="translate(263 322)"><tspan x="0" y="0">Weight/Scale Variations</tspan></text>
    <text class="st8" transform="translate(534.1 322)"><tspan x="0" y="0">Ultralight</tspan></text>
    <text class="st8" transform="translate(843.8 322)"><tspan x="0" y="0">Thin</tspan></text>
    <text class="st8" transform="translate(1139 322)"><tspan x="0" y="0">Light</tspan></text>
    <text class="st8" transform="translate(1427.1 322)"><tspan x="0" y="0">Regular</tspan></text>
    <text class="st8" transform="translate(1723.4 322)"><tspan x="0" y="0">Medium</tspan></text>
    <text class="st8" transform="translate(2016.2 322)"><tspan x="0" y="0">Semibold</tspan></text>
    <text class="st8" transform="translate(2327 322)"><tspan x="0" y="0">Bold</tspan></text>
    <text class="st8" transform="translate(2618.3 322)"><tspan x="0" y="0">Heavy</tspan></text>
    <text class="st8" transform="translate(2917.5 322)"><tspan x="0" y="0">Black</tspan></text>
    <line class="st1" x1="263" y1="1903" x2="3036" y2="1903"/>
    <path d="M272.2,1933.8c4.4,0,7.9-3.5,7.9-7.9s-3.5-7.9-7.9-7.9-7.9,3.5-7.9,7.9,3.5,7.9,7.9,7.9ZM272.2,1932.3c-3.5,0-6.4-2.9-6.4-6.4s2.9-6.4,6.4-6.4,6.4,2.9,6.4,6.4-2.9,6.4-6.4,6.4ZM268.7,1925.9c0,.4.3.7.8.7h2.1v2.1c0,.4.3.7.7.7s.7-.3.7-.7v-2.1h2.1c.4,0,.7-.3.7-.7s-.3-.7-.7-.7h-2.1v-2.1c0-.4-.3-.8-.7-.8s-.7.3-.7.8v2.1h-2.1c-.4,0-.8.3-.8.7Z"/>
    <path d="M293.2,1935.9c5.5,0,10-4.5,10-10s-4.5-10-10-10-10,4.5-10,10,4.5,10,10,10ZM293.2,1934.3c-4.6,0-8.3-3.7-8.3-8.3s3.7-8.3,8.3-8.3,8.3,3.7,8.3,8.3-3.7,8.3-8.3,8.3ZM288.7,1925.9c0,.5.3.8.8.8h2.9v2.9c0,.5.3.8.8.8s.8-.3.8-.8v-2.9h2.9c.5,0,.8-.3.8-.8s-.3-.8-.8-.8h-2.9v-2.9c0-.5-.3-.8-.8-.8s-.8.3-.8.8v2.9h-2.9c-.5,0-.8.3-.8.8Z"/>
    <path d="M319.9,1938.7c7,0,12.7-5.7,12.7-12.7s-5.7-12.7-12.7-12.7-12.7,5.7-12.7,12.7,5.7,12.7,12.7,12.7ZM319.9,1936.8c-6,0-10.9-4.9-10.9-10.9s4.9-10.9,10.9-10.9,10.9,4.9,10.9,10.9-4.9,10.9-10.9,10.9ZM314.1,1925.9c0,.5.4.9.9.9h3.9v4c0,.5.4.9.9.9s.9-.4.9-.9v-4h4c.5,0,.9-.4.9-.9s-.4-.9-.9-.9h-4v-3.9c0-.5-.4-.9-.9-.9s-.9.4-.9.9v3.9h-3.9c-.5,0-.9.4-.9.9Z"/>
    <text class="st7" transform="translate(263 1953)"><tspan x="0" y="0">Design Variations</tspan></text>
    <text class="st8" transform="translate(263 1971)"><tspan x="0" y="0">Symbols are supported in up to nine weights and three scales.</tspan></text>
    <text class="st8" transform="translate(263 1989)"><tspan x="0" y="0">For optimal layout with text and other symbols, vertically align</tspan></text>
    <text class="st8" transform="translate(263 2007)"><tspan x="0" y="0">symbols with the adjacent text.</tspan></text>
    <line class="st0" x1="776" y1="1919" x2="776" y2="1933"/>
    <path d="M779.3,1933.2c.5,0,.8-.2,1-.7l1.3-3.4h5.8l1.3,3.4c.2.5.4.7.9.7s.8-.3.8-.8,0-.3-.1-.5l-4.6-12.2c-.2-.6-.6-.9-1.3-.9s-1,.3-1.2.9l-4.6,12.2c0,.2-.1.4-.1.5,0,.5.3.8.8.8ZM782,1927.5l2.4-6.6h0l2.4,6.6h-4.8Z"/>
    <line class="st0" x1="792.8" y1="1919" x2="792.8" y2="1933"/>
    <text class="st7" transform="translate(776 1953)"><tspan x="0" y="0">Margins</tspan></text>
    <text class="st8" transform="translate(776 1971)"><tspan x="0" y="0">Leading and trailing margins on the left and right side of each symbol</tspan></text>
    <text class="st8" transform="translate(776 1989)"><tspan x="0" y="0">can be adjusted by modifying the x-location of the margin guidelines.</tspan></text>
    <text class="st8" transform="translate(776 2007)"><tspan x="0" y="0">Modifications are automatically applied proportionally to all</tspan></text>
    <text class="st8" transform="translate(776 2025)"><tspan x="0" y="0">scales and weights.</tspan></text>
    <path d="M1291.8,1934.9l1.7,1.7c.9.9,1.8.8,2.8-.2l10.7-11.8-1-1-10.6,11.7c-.4.4-.7.5-1.2,0l-1.2-1.2c-.5-.5-.4-.8,0-1.2l11.5-10.8-1-1-11.6,10.9c-1,.9-1.1,1.9-.2,2.8h0ZM1298.3,1916.7c-.4.4-.4,1-.2,1.4.2.4.7.6,1.3.4,1.5-.3,3-.4,4.4.5l-.6,1.5c-.3.8-.2,1.4.4,2l2.3,2.3c.5.5.9.5,1.5.4l1.1-.2.7.7v.6c0,.5,0,.9.5,1.4l.8.7c.5.5,1.1.5,1.6,0l2.9-2.9c.5-.5.4-1.1,0-1.5l-.8-.8c-.5-.5-.8-.6-1.3-.6h-.6s-.6-.6-.6-.6l.2-1.1c.1-.6,0-1-.6-1.6l-2.2-2.2c-3.3-3.3-7.8-3.2-10.7-.4h0ZM1299.8,1917c2.4-1.8,5.7-1.5,7.9.8l2.4,2.4c.2.2.3.4.2.8l-.3,1.5,1.5,1.5h1c.3,0,.3,0,.5.1l.6.6-2.4,2.4-.6-.6c-.2-.2-.2-.3-.2-.5v-1c0,0-1.4-1.5-1.4-1.5l-1.5.3c-.3,0-.5,0-.7-.2l-2-2c-.3-.2-.3-.4-.1-.8l.9-2.1c-1.6-1.5-3.6-2.1-5.6-1.5-.2,0-.2,0,0-.2h0Z"/>
    <text class="st7" transform="translate(1289 1953)"><tspan x="0" y="0">Exporting</tspan></text>
    <text class="st8" transform="translate(1289 1971)"><tspan x="0" y="0">Symbols should be outlined when exporting to ensure the</tspan></text>
    <text class="st8" transform="translate(1289 1989)"><tspan x="0" y="0">design is preserved when submitting to Xcode.</tspan></text>
    <text id="template-version" class="st8" transform="translate(2952.4 1933)"><tspan x="0" y="0">Template v.6.0</tspan></text>
    <text class="st8" transform="translate(2865.5 1951)"><tspan x="0" y="0">Requires Xcode 16 or greater</tspan></text>
    <text id="descriptive-name" class="st8" transform="translate(2911 1969)"><tspan x="0" y="0">Generated from circle</tspan></text>
    <text class="st8" transform="translate(2901.6 1987)"><tspan x="0" y="0">Typeset at 100.0 points</tspan></text>
    <text class="st8" transform="translate(263 726)"><tspan x="0" y="0">Small</tspan></text>
    <text class="st8" transform="translate(263 1156)"><tspan x="0" y="0">Medium</tspan></text>
    <text class="st8" transform="translate(263 1586)"><tspan x="0" y="0">Large</tspan></text>
  </g>
  <g id="Notes1" data-name="Notes">
    <rect id="artboard1" data-name="artboard" class="st6" x="118.4" width="3300" height="2200"/>
    <line class="st1" x1="381.4" y1="292" x2="3154.4" y2="292"/>
    <text class="st7" transform="translate(381.4 322)"><tspan x="0" y="0">Weight/Scale Variations</tspan></text>
    <text class="st8" transform="translate(652.4 322)"><tspan x="0" y="0">Ultralight</tspan></text>
    <text class="st8" transform="translate(962.2 322)"><tspan x="0" y="0">Thin</tspan></text>
    <text class="st8" transform="translate(1257.4 322)"><tspan x="0" y="0">Light</tspan></text>
    <text class="st8" transform="translate(1545.5 322)"><tspan x="0" y="0">Regular</tspan></text>
    <text class="st8" transform="translate(1841.8 322)"><tspan x="0" y="0">Medium</tspan></text>
    <text class="st8" transform="translate(2134.6 322)"><tspan x="0" y="0">Semibold</tspan></text>
    <text class="st8" transform="translate(2445.4 322)"><tspan x="0" y="0">Bold</tspan></text>
    <text class="st8" transform="translate(2736.7 322)"><tspan x="0" y="0">Heavy</tspan></text>
    <text class="st8" transform="translate(3035.9 322)"><tspan x="0" y="0">Black</tspan></text>
    <line class="st1" x1="381.4" y1="1903" x2="3154.4" y2="1903"/>
    <path d="M390.6,1933.8c4.4,0,7.9-3.5,7.9-7.9s-3.5-7.9-7.9-7.9-7.9,3.5-7.9,7.9,3.5,7.9,7.9,7.9ZM390.6,1932.3c-3.5,0-6.4-2.9-6.4-6.4s2.9-6.4,6.4-6.4,6.4,2.9,6.4,6.4-2.9,6.4-6.4,6.4ZM387,1925.9c0,.4.3.7.8.7h2.1v2.1c0,.4.3.7.7.7s.7-.3.7-.7v-2.1h2.1c.4,0,.7-.3.7-.7s-.3-.7-.7-.7h-2.1v-2.1c0-.4-.3-.8-.7-.8s-.7.3-.7.8v2.1h-2.1c-.4,0-.8.3-.8.7Z"/>
    <path d="M411.6,1935.9c5.5,0,10-4.5,10-10s-4.5-10-10-10-10,4.5-10,10,4.5,10,10,10ZM411.6,1934.3c-4.6,0-8.3-3.7-8.3-8.3s3.7-8.3,8.3-8.3,8.3,3.7,8.3,8.3-3.7,8.3-8.3,8.3ZM407.1,1925.9c0,.5.3.8.8.8h2.9v2.9c0,.5.3.8.8.8s.8-.3.8-.8v-2.9h2.9c.5,0,.8-.3.8-.8s-.3-.8-.8-.8h-2.9v-2.9c0-.5-.3-.8-.8-.8s-.8.3-.8.8v2.9h-2.9c-.5,0-.8.3-.8.8Z"/>
    <path d="M438.3,1938.7c7,0,12.7-5.7,12.7-12.7s-5.7-12.7-12.7-12.7-12.7,5.7-12.7,12.7,5.7,12.7,12.7,12.7ZM438.3,1936.8c-6,0-10.9-4.9-10.9-10.9s4.9-10.9,10.9-10.9,10.9,4.9,10.9,10.9-4.9,10.9-10.9,10.9ZM432.5,1925.9c0,.5.4.9.9.9h3.9v4c0,.5.4.9.9.9s.9-.4.9-.9v-4h4c.5,0,.9-.4.9-.9s-.4-.9-.9-.9h-4v-3.9c0-.5-.4-.9-.9-.9s-.9.4-.9.9v3.9h-3.9c-.5,0-.9.4-.9.9Z"/>
    <text class="st7" transform="translate(381.4 1953)"><tspan x="0" y="0">Design Variations</tspan></text>
    <text class="st8" transform="translate(381.4 1971)"><tspan x="0" y="0">Symbols are supported in up to nine weights and three scales.</tspan></text>
    <text class="st8" transform="translate(381.4 1989)"><tspan x="0" y="0">For optimal layout with text and other symbols, vertically align</tspan></text>
    <text class="st8" transform="translate(381.4 2007)"><tspan x="0" y="0">symbols with the adjacent text.</tspan></text>
    <line class="st0" x1="894.4" y1="1919" x2="894.4" y2="1933"/>
    <path d="M897.7,1933.2c.5,0,.8-.2,1-.7l1.3-3.4h5.8l1.3,3.4c.2.5.4.7.9.7s.8-.3.8-.8,0-.3-.1-.5l-4.6-12.2c-.2-.6-.6-.9-1.3-.9s-1,.3-1.2.9l-4.6,12.2c0,.2-.1.4-.1.5,0,.5.3.8.8.8ZM900.4,1927.5l2.4-6.6h0l2.4,6.6h-4.8Z"/>
    <line class="st0" x1="911.2" y1="1919" x2="911.2" y2="1933"/>
    <text class="st7" transform="translate(894.4 1953)"><tspan x="0" y="0">Margins</tspan></text>
    <text class="st8" transform="translate(894.4 1971)"><tspan x="0" y="0">Leading and trailing margins on the left and right side of each symbol</tspan></text>
    <text class="st8" transform="translate(894.4 1989)"><tspan x="0" y="0">can be adjusted by modifying the x-location of the margin guidelines.</tspan></text>
    <text class="st8" transform="translate(894.4 2007)"><tspan x="0" y="0">Modifications are automatically applied proportionally to all</tspan></text>
    <text class="st8" transform="translate(894.4 2025)"><tspan x="0" y="0">scales and weights.</tspan></text>
    <path d="M1410.2,1934.9l1.7,1.7c.9.9,1.8.8,2.8-.2l10.7-11.8-1-1-10.6,11.7c-.4.4-.7.5-1.2,0l-1.2-1.2c-.5-.5-.4-.8,0-1.2l11.5-10.8-1-1-11.6,10.9c-1,.9-1.1,1.9-.2,2.8h0ZM1416.6,1916.7c-.4.4-.4,1-.2,1.4.2.4.7.6,1.3.4,1.5-.3,3-.4,4.4.5l-.6,1.5c-.3.8-.2,1.4.4,2l2.3,2.3c.5.5.9.5,1.5.4l1.1-.2.7.7v.6c0,.5,0,.9.5,1.4l.8.7c.5.5,1.1.5,1.6,0l2.9-2.9c.5-.5.4-1.1,0-1.5l-.8-.8c-.5-.5-.8-.6-1.3-.6h-.6s-.6-.6-.6-.6l.2-1.1c.1-.6,0-1-.6-1.6l-2.2-2.2c-3.3-3.3-7.8-3.2-10.7-.4h0ZM1418.1,1917c2.4-1.8,5.7-1.5,7.9.8l2.4,2.4c.2.2.3.4.2.8l-.3,1.5,1.5,1.5h1c.3,0,.3,0,.5.1l.6.6-2.4,2.4-.6-.6c-.2-.2-.2-.3-.2-.5v-1c0,0-1.4-1.5-1.4-1.5l-1.5.3c-.3,0-.5,0-.7-.2l-2-2c-.3-.2-.3-.4-.1-.8l.9-2.1c-1.6-1.5-3.6-2.1-5.6-1.5-.2,0-.2,0,0-.2h0Z"/>
    <text class="st7" transform="translate(1407.4 1953)"><tspan x="0" y="0">Exporting</tspan></text>
    <text class="st8" transform="translate(1407.4 1971)"><tspan x="0" y="0">Symbols should be outlined when exporting to ensure the</tspan></text>
    <text class="st8" transform="translate(1407.4 1989)"><tspan x="0" y="0">design is preserved when submitting to Xcode.</tspan></text>
    <text id="template-version1" data-name="template-version" class="st8" transform="translate(3070.8 1933)"><tspan x="0" y="0">Template v.6.0</tspan></text>
    <text class="st8" transform="translate(2983.8 1951)"><tspan x="0" y="0">Requires Xcode 16 or greater</tspan></text>
    <text id="descriptive-name1" data-name="descriptive-name" class="st8" transform="translate(3029.4 1969)"><tspan x="0" y="0">Generated from circle</tspan></text>
    <text class="st8" transform="translate(3020 1987)"><tspan x="0" y="0">Typeset at 100.0 points</tspan></text>
    <text class="st8" transform="translate(381.4 726)"><tspan x="0" y="0">Small</tspan></text>
    <text class="st8" transform="translate(381.4 1156)"><tspan x="0" y="0">Medium</tspan></text>
    <text class="st8" transform="translate(381.4 1586)"><tspan x="0" y="0">Large</tspan></text>
  </g>
  <g id="Guides">
    <g id="H-reference">
      <path class="st9" d="M340,696h2.6l25.7-67.1h.7v-3.3h-1.9l-27.1,70.5ZM350.7,671.5h35.3l-.8-2.2h-33.8l-.8,2.2ZM394.1,696h2.6l-27.1-70.5h-1.2v3.3l25.7,67.1Z"/>
    </g>
    <line id="Baseline-S" class="st5" x1="263" y1="696" x2="3036" y2="696"/>
    <line id="Capline-S" class="st5" x1="263" y1="625.5" x2="3036" y2="625.5"/>
    <g id="H-reference1" data-name="H-reference">
      <path class="st9" d="M340,1126h2.6l25.7-67.1h.7v-3.3h-1.9l-27.1,70.5ZM350.7,1101.5h35.3l-.8-2.2h-33.8l-.8,2.2ZM394.1,1126h2.6l-27.1-70.5h-1.2v3.3l25.7,67.1Z"/>
    </g>
    <line id="Baseline-M" class="st5" x1="263" y1="1126" x2="3036" y2="1126"/>
    <line id="Capline-M" class="st5" x1="263" y1="1055.5" x2="3036" y2="1055.5"/>
    <g id="H-reference2" data-name="H-reference">
      <path class="st9" d="M340,1556h2.6l25.7-67.1h.7v-3.3h-1.9l-27.1,70.5ZM350.7,1531.5h35.3l-.8-2.2h-33.8l-.8,2.2ZM394.1,1556h2.6l-27.1-70.5h-1.2v3.3l25.7,67.1Z"/>
    </g>
    <line id="Baseline-L" class="st5" x1="263" y1="1556" x2="3036" y2="1556"/>
    <line id="Capline-L" class="st5" x1="263" y1="1485.5" x2="3036" y2="1485.5"/>
    <line id="right-margin-Black-S" class="st0" x1="2982.2" y1="600.8" x2="2982.2" y2="720.1"/>
    <line id="left-margin-Black-S" class="st0" x1="2884.6" y1="600.8" x2="2884.6" y2="720.1"/>
    <line id="right-margin-Regular-S" class="st0" x1="1496.1" y1="600.8" x2="1496.1" y2="720.1"/>
    <line id="left-margin-Regular-S" class="st0" x1="1403.6" y1="600.8" x2="1403.6" y2="720.1"/>
    <line id="right-margin-Ultralight-S" class="st0" x1="603.8" y1="600.8" x2="603.8" y2="720.1"/>
    <line id="left-margin-Ultralight-S" class="st0" x1="515.6" y1="600.8" x2="515.6" y2="720.1"/>
  </g>
  <g id="Symbols">
    <g id="Black-S">
      <path class="st3" d="M2891.5,658c1.5-23.1,21.5-40.7,44.6-39.2,21,1.4,37.8,18.1,39.2,39.2,0,.2,0,.5,0,.8,0,1-1.9,1.3-2.5.4-1.1-1.8-2.5-3.5-4.2-4.8-.3-.3-.6-.7-.7-1.1-2.5-11.5-10.5-21-21.3-25.4.8,1.3,1.5,2.7,2.2,4.1,2.1,4.5,3.6,10,4.6,16.1.2,1.4-.7,2.6-2.1,3h-.2c-1.8.7-4-.4-4.3-2.3-.8-5.4-2.2-10.2-4-14-3.1-6.8-6.7-9.4-9.5-9.4s-6.4,2.6-9.5,9.4c-2.5,5.4-4.2,12.6-4.7,20.8h18.8c2.3,0,3.6,2.9,2.6,4.9-.4,1-1.4,1.6-2.4,1.6h-19c.2,9.8,2,18.5,4.9,24.7,1.9,4.1,3.9,6.7,5.9,8.1,1.8,1.3,3.9,3.1,4.2,5.2.2,1.5,0,2.7-1.2,2.7s-.7,0-1,0c-23.1-.9-41.2-20.4-40.3-43.5,0-.4,0-.8,0-1.2ZM2898,662.1c.5,13.9,9.2,26.3,22.1,31.5-.8-1.3-1.5-2.7-2.2-4.1-3.3-7.2-5.3-16.9-5.5-27.4h-14.4ZM2912.6,655.5h-14.2c1.9-12.4,10.1-22.9,21.7-27.6-.8,1.3-1.5,2.7-2.2,4.1-2.9,6.3-4.8,14.5-5.3,23.5M2943.9,676.5v-8.2c0-7.2,6-12.8,13.1-12.8s13.1,5.6,13.1,12.8v8.2c2.9,0,5.2,2.3,5.2,5.2v15.7c0,2.9-2.3,5.2-5.2,5.2h-26.2c-2.9,0-5.2-2.3-5.2-5.2v-15.7c0-2.9,2.3-5.2,5.2-5.2M2951.8,668.3c0-2.6,2.2-4.9,5.2-4.9s5.2,2.3,5.2,4.9v8.2h-10.5v-8.2Z"/>
    </g>
    <g id="Regular-S">
      <path class="st4" d="M1410.5,658.2c1.4-21.7,20.2-38.2,41.9-36.8,19.7,1.3,35.5,17,36.8,36.8,0,.2,0,.5,0,.7,0,1-1.8,1.2-2.3.4-1-1.7-2.4-3.3-3.9-4.5-.3-.3-.6-.6-.6-1-2.3-10.8-9.8-19.7-20-23.8.7,1.2,1.4,2.5,2,3.8,1.9,4.2,3.4,9.4,4.3,15.1.2,1.3-.7,2.5-1.9,2.9h-.2c-1.7.6-3.7-.4-4-2.2-.8-5.1-2.1-9.6-3.7-13.2-2.9-6.4-6.3-8.8-9-8.8s-6,2.5-9,8.8c-2.3,5-3.9,11.8-4.4,19.5h17.6c2.1,0,3.3,2.7,2.4,4.6-.4.9-1.3,1.5-2.3,1.5h-17.9c.1,9.2,1.9,17.4,4.6,23.2,1.8,3.8,3.7,6.3,5.5,7.6,1.7,1.2,3.7,2.9,3.9,4.9.2,1.4,0,2.5-1.1,2.5s-.6,0-.9,0c-21.7-.8-38.7-19.1-37.9-40.8,0-.4,0-.7,0-1.1ZM1416.6,662c.5,13.1,8.6,24.7,20.7,29.6-.8-1.2-1.4-2.5-2-3.8-3.1-6.8-5-15.8-5.1-25.7h-13.5ZM1430.3,655.8h-13.3c1.7-11.6,9.5-21.5,20.4-25.9-.8,1.2-1.4,2.5-2,3.8-2.7,5.9-4.5,13.6-5,22M1459.7,675.5v-7.7c0-6.8,5.6-12,12.3-12s12.3,5.2,12.3,12v7.7c2.7,0,4.9,2.2,4.9,4.9v14.8c0,2.7-2.2,4.9-4.9,4.9h-24.6c-2.7,0-4.9-2.2-4.9-4.9v-14.8c0-2.7,2.2-4.9,4.9-4.9M1467.1,667.8c0-2.4,2.1-4.6,4.9-4.6s4.9,2.2,4.9,4.6v7.7h-9.9v-7.7Z"/>
    </g>
    <g id="Ultralight-S">
      <path class="st2" d="M522.6,658.3c1.3-20.5,19.1-36.1,39.6-34.7,18.7,1.2,33.5,16.1,34.7,34.7,0,.2,0,.4,0,.7,0,.9-1.7,1.2-2.2.4-1-1.6-2.2-3.1-3.7-4.3-.3-.2-.5-.6-.6-1-2.2-10.2-9.3-18.6-18.9-22.5.7,1.1,1.3,2.4,1.9,3.6,1.8,4,3.2,8.9,4,14.2.2,1.2-.7,2.3-1.8,2.7h-.2c-1.6.6-3.5-.4-3.8-2.1-.7-4.8-2-9-3.5-12.5-2.8-6-6-8.4-8.5-8.4s-5.7,2.3-8.5,8.4c-2.2,4.8-3.7,11.2-4.2,18.4h16.6c2,0,3.2,2.6,2.3,4.4-.4.8-1.2,1.4-2.2,1.4h-16.9c.1,8.7,1.8,16.4,4.3,21.9,1.7,3.6,3.5,5.9,5.2,7.2,1.6,1.1,3.5,2.7,3.7,4.6.2,1.3,0,2.4-1.1,2.4s-.6,0-.9,0c-20.5-.8-36.5-18.1-35.8-38.6,0-.3,0-.7,0-1ZM528.3,661.9c.5,12.4,8.1,23.3,19.6,28-.7-1.2-1.4-2.4-1.9-3.6-2.9-6.4-4.7-15-4.9-24.3h-12.8ZM541.2,656.1h-12.6c1.6-11,9-20.3,19.2-24.5-.7,1.1-1.4,2.4-1.9,3.6-2.6,5.6-4.2,12.8-4.7,20.8M569,674.7v-7.3c0-6.4,5.3-11.3,11.6-11.3s11.6,5,11.6,11.3v7.3c2.6,0,4.7,2.1,4.7,4.7v14c0,2.6-2.1,4.7-4.7,4.7h-23.3c-2.6,0-4.7-2.1-4.7-4.7v-14c0-2.6,2.1-4.7,4.7-4.7M576,667.4c0-2.3,2-4.4,4.7-4.4s4.7,2.1,4.7,4.4v7.3h-9.3v-7.3Z"/>
    </g>
  </g>
</svg>