<svg width="24" height="24" viewBox="0 0 24 24" fill="none" xmlns="http://www.w3.org/2000/svg">
<path d="M12 23C18.0751 23 23 18.0751 23 12C23 5.92487 18.0751 1 12 1C5.92487 1 1 5.92487 1 12C1 18.0751 5.92487 23 12 23Z" fill="#444444"/>
<path fill-rule="evenodd" clip-rule="evenodd" d="M24 12C24 18.6274 18.6274 24 12 24C5.37258 24 0 18.6274 0 12C0 5.37258 5.37258 0 12 0C18.6274 0 24 5.37258 24 12ZM19 11.7063H12.2937V5H19V11.7063ZM11.7063 11.7063H5V5H11.7063V11.7063ZM19 19H12.2937V12.2937H19V19ZM11.7063 19H5V12.2937H11.7063V19Z" fill="#DFDFDF"/>
</svg>
