<svg width="24" height="24" viewBox="0 0 24 24" fill="none" xmlns="http://www.w3.org/2000/svg">
<circle cx="12" cy="12" r="12" fill="#333333"/>
<path d="M12.5425 18.216C14.7025 18.216 16.4125 17.334 17.6365 15.966V11.358H11.9125V13.59H15.0805V15.03C14.5945 15.48 13.6045 15.948 12.5425 15.948C10.3465 15.948 8.76246 14.274 8.76246 12.006C8.76246 9.738 10.3465 8.064 12.5425 8.064C13.8025 8.064 14.8285 8.784 15.3865 9.63L17.4925 8.478C16.5925 7.056 15.0265 5.796 12.5425 5.796C9.01446 5.796 6.13446 8.208 6.13446 12.006C6.13446 15.786 9.01446 18.216 12.5425 18.216Z" fill="white"/>
</svg>
