<svg fill="none" viewBox="0 0 32 32" xmlns="http://www.w3.org/2000/svg">
  <g fill-rule="evenodd" clip-path="url(#Settings-Color-32_svg__a)" clip-rule="evenodd">
    <path fill="#888" d="M18.155 1h-2.31a2.25 2.25 0 0 0-2.207 1.809l-.355 1.778c-.597.194-1.173.434-1.724.715l-1.51-1.007a2.246 2.246 0 0 0-1.433-.37H6.75a.25.25 0 0 0-.25.25v1a.25.25 0 0 0 .018.094l-.942.941a2.25 2.25 0 0 0-.28 2.84l1.006 1.51c-.281.55-.52 1.126-.715 1.723l-1.778.355A2.25 2.25 0 0 0 2 14.845v2.31a2.25 2.25 0 0 0 1.809 2.207l1.778.355c.194.597.434 1.173.715 1.724l-1.007 1.51a2.25 2.25 0 0 0 .281 2.839l.95.95a.249.249 0 0 0-.026.11v1c0 .138.112.25.25.25h2a.25.25 0 0 0 .092-.018 2.244 2.244 0 0 0 1.207-.377l1.51-1.007c.551.281 1.127.521 1.724.715l.355 1.778A2.25 2.25 0 0 0 15.845 31h2.31a2.25 2.25 0 0 0 2.207-1.809l.355-1.778a11.919 11.919 0 0 0 1.724-.715l.559.373v.779c0 .138.112.25.25.25h2a.249.249 0 0 0 .104-.023 2.246 2.246 0 0 0 1.436-.653l1.634-1.634a2.25 2.25 0 0 0 .28-2.84L27.7 21.442c.28-.551.52-1.127.714-1.724l1.778-.355A2.25 2.25 0 0 0 32 17.155v-2.31a2.25 2.25 0 0 0-1.809-2.207l-1.778-.355a11.925 11.925 0 0 0-.715-1.724l1.007-1.51a2.25 2.25 0 0 0-.281-2.839L26.79 4.576a2.249 2.249 0 0 0-1.778-.651H23.25a.25.25 0 0 0-.25.25v.754l-.559.373a11.925 11.925 0 0 0-1.724-.715l-.355-1.778A2.25 2.25 0 0 0 18.155 1M17 23a7 7 0 1 0 0-14 7 7 0 0 0 0 14"/>
    <path fill="#CCC" d="M16.155 1h-2.31a2.25 2.25 0 0 0-2.207 1.809l-.355 1.778c-.597.194-1.173.434-1.724.715L8.05 4.295a2.25 2.25 0 0 0-2.839.281L3.576 6.21a2.25 2.25 0 0 0-.28 2.84l1.006 1.51c-.281.55-.52 1.126-.715 1.723l-1.778.355A2.25 2.25 0 0 0 0 14.845v2.31a2.25 2.25 0 0 0 1.809 2.207l1.778.355c.194.597.434 1.173.715 1.724l-1.007 1.51a2.25 2.25 0 0 0 .281 2.839l1.634 1.634a2.25 2.25 0 0 0 2.84.28l1.509-1.006c.551.281 1.127.521 1.724.715l.355 1.778A2.25 2.25 0 0 0 13.845 31h2.31a2.25 2.25 0 0 0 2.207-1.809l.355-1.778a11.919 11.919 0 0 0 1.724-.715l1.51 1.007a2.25 2.25 0 0 0 2.839-.281l1.634-1.634a2.25 2.25 0 0 0 .28-2.84L25.7 21.442c.28-.551.52-1.127.714-1.724l1.778-.355A2.25 2.25 0 0 0 30 17.155v-2.31a2.25 2.25 0 0 0-1.809-2.207l-1.778-.355a11.925 11.925 0 0 0-.715-1.724l1.007-1.51a2.25 2.25 0 0 0-.281-2.839L24.79 4.576a2.25 2.25 0 0 0-2.84-.28l-1.509 1.006a11.925 11.925 0 0 0-1.724-.715l-.355-1.778A2.25 2.25 0 0 0 16.155 1M15 23a7 7 0 1 0 0-14 7 7 0 0 0 0 14"/>
  </g>
  <defs>
    <clipPath id="Settings-Color-32_svg__a">
      <path fill="#fff" d="M0 0h32v32H0z"/>
    </clipPath>
  </defs>
</svg>
