<svg width="24" height="24" fill="none" xmlns="http://www.w3.org/2000/svg">
  <g clip-path="url(#Sharethrough_svg__a)">
    <path fill="#0D1C28" d="M24 12c0 6.627-5.373 12-12 12S0 18.627 0 12 5.373 0 12 0s12 5.373 12 12Z"/>
    <path fill="#fff" fill-opacity=".12" fill-rule="evenodd" d="M24 12c0 6.627-5.373 12-12 12S0 18.627 0 12 5.373 0 12 0s12 5.373 12 12ZM12 23.5c6.351 0 11.5-5.149 11.5-11.5S18.351.5 12 .5.5 5.649.5 12 5.649 23.5 12 23.5Z" clip-rule="evenodd"/>
    <path fill="#3DE0C8" d="M11.997 5.5c-3.65 0-6.367 2.946-6.367 6.386v.418c0 .684.551 1.236 1.235 1.236s1.236-.552 1.236-1.236v-.418c0-2.452 2.09-3.915 3.915-3.915h6.367V5.5h-6.386Z"/>
    <path fill="#3DE0C8" d="M13.973 11.981a1.975 1.975 0 0 0-1.976-1.977 1.975 1.975 0 0 0-1.977 1.977c0 1.083.875 1.977 1.977 1.977a1.987 1.987 0 0 0 1.976-1.977Z"/>
    <path fill="#3DE0C8" d="M15.893 11.696c0-.684.551-1.236 1.235-1.236.685 0 1.236.552 1.236 1.236v.418c0 3.421-2.718 6.386-6.367 6.386H5.63v-2.47h6.348c1.824 0 3.915-1.464 3.915-3.916v-.418Z"/>
  </g>
  <defs>
    <clipPath id="Sharethrough_svg__a">
      <path fill="#fff" d="M0 0h24v24H0z"/>
    </clipPath>
  </defs>
</svg>
