<svg width="32" height="32" viewBox="0 0 32 32" fill="none" xmlns="http://www.w3.org/2000/svg">
<path d="M7 9.25C6.44772 9.25 6 9.69772 6 10.25V11C6 11.5523 6.44772 12 7 12H7.75C8.30228 12 8.75 11.5523 8.75 11V10.25C8.75 9.69772 8.30228 9.25 7.75 9.25H7Z" fill="black" fill-opacity="0.84"/>
<path d="M6 15.25C6 14.6977 6.44772 14.25 7 14.25H7.75C8.30228 14.25 8.75 14.6977 8.75 15.25V16C8.75 16.5523 8.30228 17 7.75 17H7C6.44772 17 6 16.5523 6 16V15.25Z" fill="black" fill-opacity="0.84"/>
<path d="M7 19.25C6.44772 19.25 6 19.6977 6 20.25V21C6 21.5523 6.44772 22 7 22H7.75C8.30228 22 8.75 21.5523 8.75 21V20.25C8.75 19.6977 8.30228 19.25 7.75 19.25H7Z" fill="black" fill-opacity="0.84"/>
<path d="M10.25 10.25C10.25 9.69772 10.6977 9.25 11.25 9.25H12C12.5523 9.25 13 9.69772 13 10.25V11C13 11.5523 12.5523 12 12 12H11.25C10.6977 12 10.25 11.5523 10.25 11V10.25Z" fill="black" fill-opacity="0.84"/>
<path d="M11.25 14.25C10.6977 14.25 10.25 14.6977 10.25 15.25V16C10.25 16.5523 10.6977 17 11.25 17H12C12.5523 17 13 16.5523 13 16V15.25C13 14.6977 12.5523 14.25 12 14.25H11.25Z" fill="black" fill-opacity="0.84"/>
<path d="M10.25 20.25C10.25 19.6977 10.6977 19.25 11.25 19.25H20.75C21.3023 19.25 21.75 19.6977 21.75 20.25V21C21.75 21.5523 21.3023 22 20.75 22H11.25C10.6977 22 10.25 21.5523 10.25 21V20.25Z" fill="black" fill-opacity="0.84"/>
<path d="M15.625 9.25C15.0727 9.25 14.625 9.69772 14.625 10.25V11C14.625 11.5523 15.0727 12 15.625 12H16.375C16.9273 12 17.375 11.5523 17.375 11V10.25C17.375 9.69772 16.9273 9.25 16.375 9.25H15.625Z" fill="black" fill-opacity="0.84"/>
<path d="M14.625 15.25C14.625 14.6977 15.0727 14.25 15.625 14.25H16.375C16.9273 14.25 17.375 14.6977 17.375 15.25V16C17.375 16.5523 16.9273 17 16.375 17H15.625C15.0727 17 14.625 16.5523 14.625 16V15.25Z" fill="black" fill-opacity="0.84"/>
<path d="M19 10.25C19 9.69772 19.4477 9.25 20 9.25H20.75C21.3023 9.25 21.75 9.69772 21.75 10.25V11C21.75 11.5523 21.3023 12 20.75 12H20C19.4477 12 19 11.5523 19 11V10.25Z" fill="black" fill-opacity="0.84"/>
<path d="M20 14.25C19.4477 14.25 19 14.6977 19 15.25V16C19 16.5523 19.4477 17 20 17H20.75C21.3023 17 21.75 16.5523 21.75 16V15.25C21.75 14.6977 21.3023 14.25 20.75 14.25H20Z" fill="black" fill-opacity="0.84"/>
<path d="M24.25 9.25C23.6977 9.25 23.25 9.69772 23.25 10.25V11C23.25 11.5523 23.6977 12 24.25 12H25C25.5523 12 26 11.5523 26 11V10.25C26 9.69772 25.5523 9.25 25 9.25H24.25Z" fill="black" fill-opacity="0.84"/>
<path d="M23.25 15.25C23.25 14.6977 23.6977 14.25 24.25 14.25H25C25.5523 14.25 26 14.6977 26 15.25V16C26 16.5523 25.5523 17 25 17H24.25C23.6977 17 23.25 16.5523 23.25 16V15.25Z" fill="black" fill-opacity="0.84"/>
<path d="M24.25 19.25C23.6977 19.25 23.25 19.6977 23.25 20.25V21C23.25 21.5523 23.6977 22 24.25 22H25C25.5523 22 26 21.5523 26 21V20.25C26 19.6977 25.5523 19.25 25 19.25H24.25Z" fill="black" fill-opacity="0.84"/>
<path fill-rule="evenodd" clip-rule="evenodd" d="M7.25 3C3.79822 3 1 5.79822 1 9.25V22.75C1 26.2018 3.79822 29 7.25 29H24.75C28.2018 29 31 26.2018 31 22.75V9.25C31 5.79822 28.2018 3 24.75 3H7.25ZM3.5 9.25C3.5 7.17893 5.17893 5.5 7.25 5.5H24.75C26.8211 5.5 28.5 7.17893 28.5 9.25V22.75C28.5 24.8211 26.8211 26.5 24.75 26.5H7.25C5.17893 26.5 3.5 24.8211 3.5 22.75V9.25Z" fill="black" fill-opacity="0.84"/>
</svg>
