<svg viewBox="0 0 24 24" fill="none" xmlns="http://www.w3.org/2000/svg">
  <path fill-rule="evenodd" clip-rule="evenodd" d="M17.947 6c-.38-2.277-2.36-4.013-4.745-4.013h-2.404C8.413 1.987 6.433 3.723 6.053 6H4c-.552 0-1 .448-1 1s.448 1 1 1v9.25C4 19.873 6.127 22 8.75 22h6.5c2.623 0 4.75-2.127 4.75-4.75V8c.552 0 1-.448 1-1s-.448-1-1-1h-2.053zM8.129 6h7.742c-.343-1.15-1.408-1.987-2.67-1.987h-2.403c-1.26 0-2.326.838-2.67 1.987zm9.032 2H18v9.25c0 1.519-1.231 2.75-2.75 2.75h-6.5C7.231 20 6 18.769 6 17.25V8h.84c.052.008.105.013.16.013.055 0 .108-.005.16-.013h9.68c.052.008.105.013.16.013.055 0 .108-.005.16-.013z" fill="#000"/>
</svg>
