<svg fill="none" viewBox="0 0 24 24" xmlns="http://www.w3.org/2000/svg">
  <path fill="url(#Video-Player-Color-24_svg__a)" d="M2.667 7.58A3.733 3.733 0 0 1 6.4 3.847h11.2a3.733 3.733 0 0 1 3.733 3.733v8.712a3.733 3.733 0 0 1-3.733 3.733H6.4a3.733 3.733 0 0 1-3.734-3.733V7.58Z"/>
  <path fill="url(#Video-Player-Color-24_svg__b)" d="M21.333 12.87v3.73a3.733 3.733 0 0 1-3.733 3.733H6.4A3.733 3.733 0 0 1 2.666 16.6v-3.73h.623v.31a2.489 2.489 0 0 0 2.489 2.49h12.444a2.489 2.489 0 0 0 2.489-2.49v-.31h.622Z"/>
  <path fill="url(#Video-Player-Color-24_svg__c)" fill-rule="evenodd" d="M2 7.083A4.083 4.083 0 0 1 6.083 3h11.834A4.083 4.083 0 0 1 22 7.083v9.834A4.083 4.083 0 0 1 17.917 21H6.083A4.083 4.083 0 0 1 2 16.917zM6.083 4.5A2.583 2.583 0 0 0 3.5 7.083v9.834A2.583 2.583 0 0 0 6.083 19.5h11.834a2.583 2.583 0 0 0 2.583-2.583V7.083A2.583 2.583 0 0 0 17.917 4.5z" clip-rule="evenodd"/>
  <path fill="#551605" d="M15.334 10.69a.577.577 0 0 0 0-1.046l-5.056-2.57c-.425-.217-.945.07-.945.522v5.14c0 .453.52.74.945.524l5.056-2.57ZM14.333 15c.368 0 .667.299.667.667V17a.667.667 0 0 1-1.333 0v-1.333c0-.368.298-.667.666-.667M12 15.5H5.75a.75.75 0 0 0 0 1.5H12zm4 1.5h2.25a.75.75 0 0 0 0-1.5H16z"/>
  <defs>
    <linearGradient id="Video-Player-Color-24_svg__a" x1="12" x2="12" y1="3.847" y2="20.025" gradientUnits="userSpaceOnUse">
      <stop stop-color="#F2A18A"/>
      <stop offset=".831" stop-color="#E46F4F"/>
    </linearGradient>
    <linearGradient id="Video-Player-Color-24_svg__b" x1="19.576" x2="5.152" y1="16.291" y2="13.167" gradientUnits="userSpaceOnUse">
      <stop stop-color="#FAD4B6"/>
      <stop offset=".914" stop-color="#E7785A"/>
    </linearGradient>
    <linearGradient id="Video-Player-Color-24_svg__c" x1="12" x2="12" y1="3.75" y2="20.25" gradientUnits="userSpaceOnUse">
      <stop offset=".472" stop-color="#9A3216"/>
      <stop offset="1" stop-color="#4F2115"/>
      <stop offset="1" stop-color="#330B01"/>
    </linearGradient>
  </defs>
</svg>
