<svg width="128" height="96" viewBox="0 0 128 96" fill="none" xmlns="http://www.w3.org/2000/svg">
<path opacity="0.2" d="M105.629 38.2L107.171 37.8C107.457 37.7429 107.743 37.4571 107.8 37.1714L108.2 35.6286C108.314 35.2286 108.657 35 109 35C109.4 35 109.743 35.2857 109.8 35.6286L110.2 37.1714C110.257 37.4571 110.543 37.7429 110.829 37.8L112.371 38.2C112.771 38.3143 113 38.6571 113 39C113 39.4 112.714 39.7429 112.371 39.8L110.829 40.2C110.543 40.2571 110.257 40.5429 110.2 40.8286L109.8 42.3714C109.686 42.7714 109.343 43 109 43C108.6 43 108.257 42.7143 108.2 42.3714L107.8 40.8286C107.743 40.5429 107.457 40.2571 107.171 40.2L105.629 39.8C105.229 39.6857 105 39.3429 105 39C105 38.6 105.286 38.2571 105.629 38.2Z" fill="black" fill-opacity="0.36"/>
<path opacity="0.2" d="M15.9428 31.8L18.2571 31.2C18.6857 31.1143 19.1143 30.6857 19.2 30.2571L19.8 27.9429C19.9714 27.3429 20.4857 27 21 27C21.6 27 22.1143 27.4286 22.2 27.9429L22.8 30.2571C22.8857 30.6857 23.3143 31.1143 23.7429 31.2L26.0572 31.8C26.6572 31.9714 27 32.4857 27 33C27 33.6 26.5714 34.1143 26.0572 34.2L23.7429 34.8C23.3143 34.8857 22.8857 35.3143 22.8 35.7429L22.2 38.0571C22.0286 38.6571 21.5143 39 21 39C20.4 39 19.8857 38.5714 19.8 38.0571L19.2 35.7429C19.1143 35.3143 18.6857 34.8857 18.2571 34.8L15.9428 34.2C15.3428 34.0286 15 33.5143 15 33C15 32.4 15.4286 31.8857 15.9428 31.8Z" fill="black" fill-opacity="0.36"/>
<path opacity="0.2" d="M0.628557 53.2L2.17142 52.8C2.45714 52.7429 2.74287 52.4571 2.80001 52.1714L3.19999 50.6286C3.31427 50.2286 3.65714 50 4 50C4.4 50 4.74287 50.2857 4.80001 50.6286L5.19999 52.1714C5.25713 52.4571 5.54286 52.7429 5.82858 52.8L7.37144 53.2C7.77144 53.3143 8 53.6571 8 54C8 54.4 7.7143 54.7429 7.37144 54.8L5.82858 55.2C5.54286 55.2571 5.25713 55.5429 5.19999 55.8286L4.80001 57.3714C4.68573 57.7714 4.34286 58 4 58C3.6 58 3.25713 57.7143 3.19999 57.3714L2.80001 55.8286C2.74287 55.5429 2.45714 55.2571 2.17142 55.2L0.628557 54.8C0.228557 54.6857 0 54.3429 0 54C0 53.6 0.2857 53.2571 0.628557 53.2Z" fill="black" fill-opacity="0.36"/>
<path opacity="0.2" d="M126.5 52C125.675 52 125 51.325 125 50.5C125 49.675 125.675 49 126.5 49C127.325 49 128 49.675 128 50.5C128 51.325 127.325 52 126.5 52Z" fill="black" fill-opacity="0.36"/>
<path opacity="0.2" d="M23 70C21.9 70 21 69.1 21 68C21 66.9 21.9 66 23 66C24.1 66 25 66.9 25 68C25 69.1 24.1 70 23 70Z" fill="black" fill-opacity="0.36"/>
<path d="M86 50C74.9543 50 66 58.9543 66 70V70.1C66 72.806 66 74.1589 65.4901 75.1997C65.002 76.1962 64.1962 77.002 63.1997 77.4901C62.1589 78 60.806 78 58.1 78H55.1689C47.918 78 44.2926 78 41.5037 76.6338C38.8335 75.3256 36.6743 73.1665 35.3662 70.4963C34 67.7074 34 64.082 34 56.8311V39.1689C34 31.918 34 28.2926 35.3662 25.5037C36.6743 22.8335 38.8335 20.6743 41.5037 19.3662C44.2926 18 47.918 18 55.1689 18H72.8311C80.082 18 83.7074 18 86.4963 19.3662C89.1665 20.6743 91.3256 22.8335 92.6338 25.5037C94 28.2926 94 31.918 94 39.1689V42.1C94 44.806 94 46.1589 93.4901 47.1997C93.002 48.1962 92.1962 49.002 91.1997 49.4901C90.1589 50 88.806 50 86.1 50H86Z" fill="#DE5833"/>
<path d="M66 72.7377V70C66 68.4721 66.1713 66.9842 66.4958 65.5545C64.9585 62.0428 63.7153 57.7995 64.4415 54.9066C64.5977 54.2866 62.6761 31.9472 61.3178 31.2278C60.9679 31.0414 60.5994 30.8296 60.2184 30.6107C58.9555 29.885 57.5566 29.0811 56.2512 28.8629C55.3892 28.725 54.2588 28.7903 53.3752 28.9093C53.2182 28.9305 53.2117 29.2128 53.3618 29.2636C53.9419 29.4602 54.6463 29.8014 55.0614 30.3174C55.14 30.415 55.0345 30.5686 54.9093 30.5732C54.518 30.5877 53.8081 30.7518 52.8714 31.5473C52.7631 31.6393 52.8531 31.8102 52.9925 31.7826C55.0054 31.3844 57.0611 31.5806 58.2726 32.6817C58.3512 32.7532 58.3101 32.8814 58.2076 32.9093C47.6943 35.7663 49.7755 44.9117 52.5743 56.1347C55.2113 66.7093 56.4621 70.88 56.6129 71.3751C56.623 71.4084 56.6415 71.4339 56.672 71.4507C57.9749 72.1657 62.6131 72.7118 66 72.7377Z" fill="#DDDDDD"/>
<path d="M89.981 50C90.0387 49.2925 90.068 48.577 90.068 47.8546C90.068 33.4576 78.397 21.7866 64.0001 21.7866C49.6032 21.7866 37.9321 33.4576 37.9321 47.8546C37.9321 62.2515 49.6032 73.9225 64.0001 73.9225C64.673 73.9225 65.3399 73.897 66 73.847V70C66 68.1439 66.2528 66.347 66.7259 64.6416C65.0564 60.216 64.0584 56.1513 65.9412 55.8585C66.0458 55.8423 66.112 55.7188 66.062 55.6256C60.9964 46.185 67.134 46.8717 70.2335 47.2185C70.9983 47.304 71.5781 47.3689 71.759 47.2559C72.6767 46.6823 72.1063 34.09 64.1405 32.3794C64.1083 32.3724 64.0787 32.3544 64.0582 32.3286C61.8829 29.5884 57.5479 28.3421 53.3967 28.9006C53.2319 28.9228 53.2467 29.2042 53.4109 29.2307C54.1049 29.3427 54.7218 29.5163 55.0842 29.6297C55.2054 29.6677 55.2124 29.8353 55.0979 29.8905C54.5439 30.1572 53.4218 30.7658 52.8476 31.5572C52.773 31.6601 52.8773 31.7812 52.9974 31.7397C55.9256 30.7295 58.2414 31.2102 59.4776 32.6767C59.5428 32.7541 59.4946 32.8718 59.3961 32.8949C48.622 35.4174 50.5878 43.447 52.9947 53.2778L52.9963 53.2846C53.0622 53.5535 53.1283 53.8238 53.1946 54.0954C55.1117 61.9538 57.1312 68.4431 57.9219 70.9001C47.7064 68.213 40.1723 58.9137 40.1723 47.8546C40.1723 34.6949 50.8404 24.0268 64.0001 24.0268C77.1598 24.0268 87.8278 34.6949 87.8278 47.8546C87.8278 48.5777 87.7956 49.2933 87.7326 50H89.981Z" fill="white"/>
<path d="M67.7376 61.8341C67.3742 61.7276 66.8821 61.7065 66.2039 61.8245C64.9999 62.0338 64.3353 62.3241 64.0387 62.8246C62.1384 62.1041 58.9414 60.9922 58.169 62.066C57.3247 63.2399 58.38 68.7929 59.5013 69.5139C60.0868 69.8903 62.8871 68.0904 64.3494 66.8491C64.5854 67.1815 64.9652 67.3718 65.7461 67.3537C65.881 67.3506 66.0255 67.3442 66.1761 67.3346C66.4337 65.4 66.9679 63.5528 67.7376 61.8341Z" fill="#3CA82B"/>
<path d="M67.7399 61.829C67.3745 61.7269 66.8892 61.7077 66.2355 61.8135C64.6189 62.0751 64.2691 62.4116 64.3124 63.3689C64.3104 64.0143 64.3948 65.1414 64.5662 65.6208C64.7805 66.2201 65.0186 66.6069 66.0764 66.5887C66.1453 66.5875 66.217 66.5854 66.2909 66.5825C66.5773 64.9186 67.0694 63.3251 67.7399 61.829Z" fill="#4CBA3C"/>
<path d="M63.7267 62.7107C62.0629 61.9703 59.0319 61.2346 58.6581 61.8262C57.8725 63.0695 58.9794 68.1132 59.5809 68.5856C60.1013 68.9944 64.0884 66.6185 63.9292 66.0847C63.3848 64.2597 63.7267 62.7107 63.7267 62.7107Z" fill="#4CBA3C"/>
<path d="M65.5927 46.7829C61.5134 46.7341 60.371 48.7435 60.1258 49.8099C59.8084 51.2057 60.4244 52.8198 61.8008 53.9265C62.8858 54.7989 65.9451 56.5538 70.8431 56.5138C70.9761 56.5127 71.1076 56.5102 71.2375 56.5064C72.2567 55.392 73.4005 54.3933 74.6467 53.5325C73.0232 53.7024 70.9549 53.8576 68.701 53.5323C65.0821 53.0092 64.7263 51.348 65.1866 50.6432C65.8833 49.5761 67.182 49.6337 69.0411 49.7161C70.0294 49.7599 71.1761 49.8108 72.4748 49.7034C76.2169 49.3941 78.3356 48.3521 79.5142 47.0072C80.1313 46.3032 80.4157 45.5383 80.1743 45.0954C79.9546 44.6923 79.328 44.5421 77.5621 45.2158C76.3135 45.6917 74.4397 46.3023 71.9153 46.589C70.3548 46.7663 68.0655 46.7742 66.1044 46.781C65.931 46.7816 65.7602 46.7822 65.5927 46.7829Z" fill="#FFCC33"/>
<g opacity="0.8">
<path d="M66.3635 38.1493C66.6367 37.702 67.2426 37.3567 68.234 37.3567C69.2255 37.3567 69.6919 37.7512 70.0148 38.1911C70.0805 38.2806 69.981 38.386 69.8791 38.3419C69.8546 38.3313 69.8298 38.3205 69.8045 38.3095C69.4419 38.1511 68.9967 37.9567 68.234 37.9458C67.4183 37.9342 66.9039 38.1385 66.58 38.3146C66.4708 38.3739 66.2988 38.2554 66.3635 38.1493Z" fill="#14307E"/>
<path d="M55.2015 38.7217C56.1642 38.3194 56.9208 38.3714 57.4557 38.4979C57.5683 38.5245 57.6466 38.4034 57.5565 38.3307C57.1414 37.9958 56.2122 37.5801 55.0003 38.032C53.9193 38.4351 53.4098 39.2726 53.4067 39.8233C53.406 39.953 53.673 39.964 53.7421 39.8542C53.9286 39.5574 54.2388 39.124 55.2015 38.7217Z" fill="#14307E"/>
<path fill-rule="evenodd" clip-rule="evenodd" d="M69.0762 44.2693C68.225 44.2693 67.5347 43.5809 67.5347 42.7335C67.5347 41.8862 68.225 41.1977 69.0762 41.1977C69.9273 41.1977 70.6176 41.8862 70.6176 42.7335C70.6176 43.5809 69.9273 44.2693 69.0762 44.2693ZM70.1618 42.2248C70.1618 42.0054 69.9821 41.8276 69.7627 41.8276C69.5433 41.8276 69.3655 42.0054 69.3636 42.2248C69.3636 42.4442 69.5433 42.6219 69.7627 42.6219C69.984 42.6219 70.1618 42.4442 70.1618 42.2248Z" fill="#14307E"/>
<path fill-rule="evenodd" clip-rule="evenodd" d="M58.8632 43.7964C58.8632 44.7856 58.0594 45.5875 57.0664 45.5875C56.0754 45.5875 55.2697 44.7856 55.2697 43.7964C55.2697 42.8072 56.0754 42.0053 57.0664 42.0053C58.0575 42.0053 58.8632 42.8072 58.8632 43.7964ZM58.3336 43.2025C58.3336 42.9472 58.1256 42.7391 57.8684 42.7391C57.613 42.7391 57.405 42.9453 57.4031 43.2025C57.4031 43.4579 57.6112 43.6659 57.8684 43.6659C58.1256 43.6659 58.3336 43.4579 58.3336 43.2025Z" fill="#14307E"/>
</g>
<path d="M86 86C94.8366 86 102 78.8366 102 70C102 61.1634 94.8366 54 86 54C77.1634 54 70 61.1634 70 70C70 78.8366 77.1634 86 86 86Z" fill="#4CBA3C"/>
<path fill-rule="evenodd" clip-rule="evenodd" d="M88 61C88.5523 61 89 61.4477 89 62V70.9777C89 71.3938 89.4785 71.6278 89.807 71.3724L92.6967 69.1248C93.138 68.7815 93.7751 68.8668 94.1106 69.3142L95.9103 71.7138C96.2376 72.1502 96.1548 72.7684 95.7242 73.1032L87.453 79.5343C86.5837 80.1552 85.416 80.1552 84.5468 79.5343L76.2758 73.1032C75.8452 72.7684 75.7623 72.1502 76.0896 71.7138L77.8894 69.3142C78.2249 68.8668 78.862 68.7815 79.3033 69.1248L82.193 71.3724C82.5215 71.6278 83 71.3938 83 70.9777V62C83 61.4477 83.4477 61 84 61H88Z" fill="white"/>
<path d="M107.501 58C107.799 58 108.096 58.12 108.324 58.3539C108.778 58.8219 108.778 59.5837 108.324 60.0517L105.991 62.4512C105.536 62.9192 104.796 62.9192 104.341 62.4512C103.886 61.9833 103.886 61.2215 104.341 60.7535L106.673 58.3539C106.901 58.12 107.198 58 107.496 58H107.501Z" fill="#CCCCCC"/>
<path d="M106.335 68.7982H109.834C110.475 68.7982 111 69.3381 111 69.998C111 70.6579 110.475 71.1978 109.834 71.1978H106.335C105.694 71.1978 105.169 70.6579 105.169 69.998C105.169 69.3381 105.694 68.7982 106.335 68.7982Z" fill="#CCCCCC"/>
<path d="M104.353 77.5518C104.58 77.3178 104.878 77.1978 105.175 77.1978H105.181C105.478 77.1978 105.776 77.3178 106.003 77.5518L108.336 79.9513C108.79 80.4193 108.79 81.1811 108.336 81.6491C107.881 82.117 107.14 82.117 106.685 81.6491L104.353 79.2495C103.898 78.7815 103.898 78.0197 104.353 77.5518Z" fill="#CCCCCC"/>
</svg>
