<svg width="24" height="24" fill="none" xmlns="http://www.w3.org/2000/svg">
  <g clip-path="url(#Twitter_svg__a)">
    <path fill="#1DA1F2" d="M24 12c0 6.627-5.373 12-12 12S0 18.627 0 12 5.373 0 12 0s12 5.373 12 12Z"/>
    <path fill="#fff" fill-opacity=".12" fill-rule="evenodd" d="M24 12c0 6.627-5.373 12-12 12S0 18.627 0 12 5.373 0 12 0s12 5.373 12 12ZM12 23.5c6.351 0 11.5-5.149 11.5-11.5S18.351.5 12 .5.5 5.649.5 12 5.649 23.5 12 23.5Z" clip-rule="evenodd"/>
    <path fill="#fff" d="M19.102 6.529a6.064 6.064 0 0 1-1.954.743 3.07 3.07 0 0 0-2.25-.972 3.077 3.077 0 0 0-3.078 3.078c0 .239.029.477.076.706a8.75 8.75 0 0 1-6.348-3.222 3.067 3.067 0 0 0-.419 1.554c0 1.067.543 2.01 1.373 2.564a3.101 3.101 0 0 1-1.392-.391v.038a3.08 3.08 0 0 0 2.469 3.021 3.255 3.255 0 0 1-.81.105c-.2 0-.391-.019-.582-.047a3.084 3.084 0 0 0 2.878 2.135 6.166 6.166 0 0 1-3.822 1.315c-.257 0-.495-.01-.743-.038A8.7 8.7 0 0 0 9.228 18.5c5.661 0 8.759-4.69 8.759-8.76 0-.133 0-.266-.01-.4a6.62 6.62 0 0 0 1.544-1.591 6.173 6.173 0 0 1-1.773.476 3.07 3.07 0 0 0 1.354-1.696"/>
  </g>
  <defs>
    <clipPath id="Twitter_svg__a">
      <path fill="#fff" d="M0 0h24v24H0z"/>
    </clipPath>
  </defs>
</svg>
