<svg width="150" height="116" viewBox="0 0 150 116" fill="none" xmlns="http://www.w3.org/2000/svg">
<path opacity="0.5" d="M107.401 35.3311L104.113 34.6585C97.499 33.2602 91.8933 29.1312 88.9803 23.5244C82.7811 11.4102 67.9908 4.85964 53.9958 7.96084L45.3818 9.87976C30.4011 13.2414 21.0777 26.5289 24.005 40.4938L24.8736 44.7425C26.3739 52.081 23.2052 59.4101 16.6648 63.6722C7.81434 69.3806 5.45003 80.4811 11.2144 89.1639C17.0173 97.8996 28.9122 101.647 39.0144 97.8219L71.2153 85.7196C73.7808 84.7347 76.5485 84.2495 79.3731 84.287L102.749 84.4326C119.29 84.5447 131.661 71.3773 129.118 56.4944C127.354 46.1256 118.675 37.6708 107.401 35.3311Z" fill="#DDDDDD"/>
<mask id="mask0_425_14561" style="mask-type:alpha" maskUnits="userSpaceOnUse" x="46" y="48" width="66" height="60">
<path fill-rule="evenodd" clip-rule="evenodd" d="M88.2978 48.9921C90.0127 48.2458 92.0079 49.0311 92.7541 50.746L111.056 92.8025C112.228 95.4958 109.65 98.302 106.867 97.362L99.8103 94.9784C98.1604 94.4211 96.3569 95.2059 95.6402 96.793L92.575 103.581C91.3661 106.258 87.5556 106.232 86.3835 103.539L77.1354 82.2868L72.5646 105.009C71.9854 107.889 68.2655 108.716 66.5207 106.353L62.096 100.361C61.0615 98.9603 59.1332 98.5725 57.6375 99.4643L51.2402 103.279C48.7175 104.783 45.6068 102.582 46.186 99.7027L55.2312 54.7373C55.6 52.9038 57.3854 51.7164 59.2189 52.0853L74.2442 55.1077L88.2978 48.9921Z" fill="#557FF3"/>
</mask>
<g mask="url(#mask0_425_14561)">
<path fill-rule="evenodd" clip-rule="evenodd" d="M90.7818 47.9109C91.1248 47.7617 91.5238 47.9187 91.6731 48.2617L113.494 98.4055C113.728 98.9442 113.213 99.5054 112.656 99.3174L97.4845 94.1926C97.1545 94.0811 96.7938 94.2381 96.6505 94.5555L90.0601 109.15C89.8183 109.686 89.0562 109.681 88.8218 109.142L77.1353 82.2866L71.3595 111C71.2436 111.575 70.4996 111.741 70.1507 111.268L60.6376 98.3862C60.4307 98.1061 60.0451 98.0285 59.7459 98.2069L45.9917 106.409C45.4872 106.709 44.865 106.269 44.9809 105.693L55.7654 52.0812C55.8391 51.7145 56.1962 51.4771 56.5629 51.5508L74.2441 55.1075L90.7818 47.9109Z" fill="#557FF3"/>
<path d="M63.0358 17.2124C66.6288 13.1814 72.6947 12.5362 77.0553 15.7212L77.2241 15.8445C79.4419 17.4644 82.2066 18.1501 84.9243 17.7542L85.1312 17.724C90.4747 16.9456 95.5362 20.3505 96.8293 25.5932L96.8794 25.7962C97.537 28.4627 99.2142 30.765 101.551 32.2087L101.728 32.3186C106.322 35.157 108.011 41.0188 105.631 45.8661L105.539 46.0538C104.329 48.5192 104.134 51.3609 104.996 53.9687L105.061 54.1672C106.756 59.2943 104.282 64.8702 99.3431 67.054L99.1519 67.1385C96.6401 68.2493 94.664 70.3007 93.648 72.8523L93.5706 73.0466C91.573 78.0633 86.0936 80.7443 80.9067 79.2428L80.7059 79.1846C78.0677 78.4209 75.2353 78.7222 72.8169 80.0238L72.6327 80.1229C67.8778 82.6819 61.957 81.2135 58.9488 76.7292L58.8323 76.5556C57.3023 74.2748 54.9388 72.685 52.2496 72.1275L52.0448 72.085C46.7574 70.9889 43.1656 66.0583 43.7437 60.6895L43.7661 60.4816C44.0601 57.7509 43.2715 55.0138 41.5698 52.8581L41.4402 52.694C38.0944 48.4557 38.5123 42.3698 42.4061 38.6286L42.5568 38.4838C44.5373 36.5809 45.6926 33.9773 45.7746 31.2321L45.7809 31.0231C45.9422 25.6257 50.1742 21.2323 55.5619 20.8693L55.7705 20.8552C58.5107 20.6706 61.0693 19.4187 62.8967 17.3685L63.0358 17.2124Z" fill="#3969EF"/>
</g>
<path d="M63.1132 14.1728C66.7062 10.1418 72.7721 9.49662 77.1326 12.6816L77.3015 12.8049C79.5193 14.4249 82.284 15.1105 85.0017 14.7146L85.2086 14.6845C90.5521 13.9061 95.6136 17.3109 96.9067 22.5537L96.9567 22.7566C97.6144 25.4232 99.2915 27.7255 101.628 29.1692L101.806 29.2791C106.4 32.1174 108.088 37.9792 105.709 42.8266L105.617 43.0142C104.407 45.4797 104.211 48.3214 105.073 50.9291L105.139 51.1276C106.833 56.2547 104.359 61.8306 99.4205 64.0144L99.2293 64.099C96.7175 65.2097 94.7414 67.2612 93.7254 69.8128L93.648 70.007C91.6504 75.0238 86.171 77.7048 80.9841 76.2032L80.7833 76.1451C78.1451 75.3814 75.3127 75.6827 72.8943 76.9842L72.7101 77.0833C67.9552 79.6424 62.0344 78.174 59.0261 73.6897L58.9097 73.5161C57.3796 71.2353 55.0162 69.6454 52.327 69.0879L52.1222 69.0455C46.8348 67.9494 43.243 63.0187 43.8211 57.6499L43.8434 57.442C44.1375 54.7114 43.3489 51.9743 41.6471 49.8186L41.5176 49.6545C38.1717 45.4161 38.5897 39.3303 42.4835 35.5891L42.6342 35.4442C44.6147 33.5414 45.77 30.9378 45.852 28.1926L45.8583 27.9836C46.0196 22.5862 50.2516 18.1927 55.6393 17.8297L55.8479 17.8157C58.5881 17.631 61.1467 16.3792 62.9741 14.3289L63.1132 14.1728Z" fill="#7295F6"/>
<circle cx="73.4581" cy="44.7823" r="24.8516" transform="rotate(-6.07163 73.4581 44.7823)" fill="#3969EF"/>
<path d="M70.292 31.1525C70.8278 29.6606 72.8489 29.4456 73.6866 30.7914L77.144 36.3457C77.4755 36.8784 78.0491 37.2125 78.676 37.2383L85.1744 37.5057C86.7339 37.5698 87.5525 39.3853 86.568 40.5966L82.3868 45.7407C81.9986 46.2183 81.8663 46.8546 82.032 47.4474L83.8233 53.8541C84.2476 55.3719 82.7428 56.715 81.2828 56.1215L75.307 53.6924C74.7188 53.4533 74.05 53.5245 73.5252 53.8819L68.1941 57.5138C66.8916 58.4011 65.1379 57.4046 65.2335 55.8315L65.637 49.1913C65.6743 48.5769 65.4112 47.9827 64.9312 47.5974L59.7614 43.4479C58.5442 42.4709 58.9625 40.5238 60.4737 40.1331L66.7704 38.5047C67.3779 38.3476 67.8683 37.9003 68.0804 37.3098L70.292 31.1525Z" stroke="white" stroke-width="2.70909"/>
</svg>
