<svg width="76" height="76" viewBox="0 0 76 76" fill="none" xmlns="http://www.w3.org/2000/svg">
<path d="M32.6081 61.466C26.603 59.5455 21.6257 54.8543 19.0498 47.7087C15.2185 37.521 23.1115 29.4149 23.1115 29.4149C23.1115 29.4149 22.8839 31.4938 23.8556 33.7877C24.8273 36.0789 26.7151 37.7333 26.7151 37.7333C26.7151 37.7333 24.8856 32.9333 29.3465 24.9333C34.3799 15.9211 45.4762 14 45.4762 14C45.4762 14 42.6727 18.321 43.928 22.7456C44.9025 26.0544 46.5016 27.6544 48.2757 32.1333C50.0497 36.721 49.7638 39.2271 49.7638 39.2271C49.7638 39.2271 50.2797 36.4021 51.5373 34.4815C54.2831 30.2666 58.0005 29.2544 58.0005 29.2544C58.0005 29.2544 56.0565 33.0938 56.5147 38.2666C56.8567 42.0543 57.4286 46.4271 55.3131 51.3332C53.6528 55.2271 48.8499 60.5604 42.1007 61.9999C45.9903 60.3999 48.5639 56.666 48.278 52.6143C48.1058 50.2682 46.62 48.0266 45.0186 46.481C44.0464 52.3994 40.5571 53.0932 40.5571 53.0932C40.5571 53.0932 42.5588 49.2015 42.8448 44.881C43.0169 43.1748 42.9025 41.3599 42.3307 39.5477C40.5011 33.4143 37.3556 31.7599 37.3556 31.7599C37.3556 31.7599 38.3856 35.3327 34.6098 41.0933C31.9779 45.0932 27.517 48.0266 27.6885 53.9993C27.8052 57.1993 29.8069 59.9204 32.6081 61.466Z" fill="white" fill-opacity="0.7"/>
</svg>
