<svg width="56" height="56" viewBox="0 0 56 56" fill="none" xmlns="http://www.w3.org/2000/svg">
<g filter="url(#filter0_b_165_10711)">
<path fill-rule="evenodd" clip-rule="evenodd" d="M9.0493 37.7088C11.6252 44.8544 16.6026 49.5456 22.6076 51.4661C19.8064 49.9205 17.8047 47.1995 17.688 43.9995C17.5636 39.6687 19.8747 36.9359 22.1582 34.2358C23.024 33.2121 23.8858 32.193 24.6093 31.0933C28.3851 25.3328 27.3551 21.76 27.3551 21.76C27.3551 21.76 30.4879 23.4077 32.3191 29.5107C34.3783 28.0002 36.8987 27.0816 39.6297 27.0052C39.4508 25.8238 39.0694 24.1872 38.2752 22.1333C37.4381 20.0199 36.6399 18.5475 35.928 17.2341C35.1311 15.764 34.4422 14.4931 33.9275 12.7456C32.6722 8.32106 35.4757 4 35.4757 4C35.4757 4 24.3794 5.92106 19.346 14.9333C14.8851 22.9333 16.7146 27.7333 16.7146 27.7333C16.7146 27.7333 14.8268 26.0789 13.8551 23.7877C12.8834 21.4939 13.111 19.4149 13.111 19.4149C13.111 19.4149 5.21805 27.5211 9.0493 37.7088ZM40.3613 27.0049C42.6186 27.0665 44.7323 27.7035 46.5608 28.7746C46.545 28.6041 46.5294 28.4348 46.5142 28.2667C46.0561 23.0939 48 19.2544 48 19.2544C48 19.2544 44.2826 20.2667 41.5368 24.4816C41.029 25.2571 40.6421 26.18 40.3613 27.0049ZM33.934 51.5009C33.799 51.4296 33.6655 51.356 33.5334 51.2801C33.0797 51.5528 32.6009 51.7941 32.1003 52C32.7287 51.866 33.3403 51.6982 33.934 51.5009Z" fill="white"/>
<path d="M42.4339 37.7932C42.527 37.7932 42.6027 37.7175 42.6027 37.6243C42.6027 37.5311 42.527 37.4555 42.4339 37.4555C42.3407 37.4555 42.265 37.5311 42.265 37.6243C42.265 37.7175 42.3407 37.7932 42.4339 37.7932Z" fill="white" fill-opacity="0.75"/>
<path d="M37.4148 38.2299C37.5254 38.2299 37.6127 38.1425 37.6127 38.0319C37.6127 37.9213 37.5254 37.8339 37.4148 37.8339C37.3041 37.8339 37.2168 37.9213 37.2168 38.0319C37.2168 38.1425 37.3041 38.2299 37.4148 38.2299Z" fill="white" fill-opacity="0.75"/>
<path fill-rule="evenodd" clip-rule="evenodd" d="M40 51C46.0751 51 51 46.0751 51 40C51 33.9249 46.0751 29 40 29C33.9249 29 29 33.9249 29 40C29 46.0751 33.9249 51 40 51ZM42.0915 49.3971C46.4016 48.4421 49.625 44.5975 49.625 40C49.625 34.6843 45.3157 30.375 40 30.375C34.6843 30.375 30.375 34.6843 30.375 40C30.375 44.1299 32.9761 47.6523 36.6295 49.0183C36.3381 47.9792 35.8424 46.1523 35.1789 43.4936C33.9969 38.7598 33.1176 34.8994 37.5545 33.6941C37.6011 33.6824 37.6185 33.63 37.5836 33.6009C37.0712 33.1351 36.2036 33.0536 35.3535 33.2224C35.3128 33.2283 35.2837 33.1991 35.2837 33.1642C35.2837 33.1526 35.2837 33.1409 35.2953 33.1293C35.4991 32.844 35.8659 32.6227 36.1163 32.4888C35.9416 32.3316 35.7087 32.2268 35.5107 32.1569C35.4525 32.1336 35.4525 32.0346 35.5049 32.0113C35.5107 32.0055 35.5166 31.9997 35.5282 31.9997C37.275 31.7668 39.1091 32.2908 40.0116 33.4437C40.0233 33.4553 40.0349 33.4612 40.0466 33.467C43.0103 34.1017 43.5518 38.2998 43.3713 39.4585C44.4136 39.3362 45.1938 39.08 45.712 38.882C46.4573 38.5967 46.7193 38.6608 46.8125 38.8296C46.9115 39.0218 46.795 39.342 46.533 39.639C46.0381 40.2038 45.1414 40.6463 43.5635 40.7744C43.018 40.8187 42.5359 40.7976 42.12 40.7793C41.3326 40.7448 40.7825 40.7207 40.4891 41.1703C40.297 41.4673 40.4483 42.166 41.9739 42.3873C43.0629 42.5442 44.0495 42.4345 44.7689 42.3545C45.411 42.2831 45.8402 42.2354 45.9391 42.4222C46.1487 42.824 44.9434 43.6275 42.8764 43.6449C42.7192 43.6449 42.562 43.6391 42.4106 43.6333C41.1296 43.5693 40.1863 43.2199 39.5982 42.8996C39.5808 42.8938 39.5691 42.888 39.5633 42.8822C39.4585 42.824 39.2547 42.9288 39.377 43.15C39.4468 43.2839 39.8195 43.6275 40.3785 43.9244C40.3202 44.3902 40.4658 45.1064 40.7162 45.9216C40.7453 45.9167 40.7743 45.9109 40.8043 45.9049C40.8462 45.8964 40.8899 45.8876 40.9374 45.8808C41.444 45.7993 41.7119 45.8925 41.8632 46.0555C42.5794 45.5198 43.7731 44.7629 43.8895 44.9026C44.4718 45.5955 44.5475 47.2317 44.4194 47.8896C44.4136 47.9013 44.4019 47.9129 44.3786 47.9246C44.105 48.041 42.5969 47.6291 42.5969 47.4136C42.5387 46.3408 42.3393 46.2418 42.1063 46.1894H41.9506C41.9564 46.1953 41.9622 46.2069 41.968 46.2185L42.0205 46.3408C42.1136 46.597 42.2592 47.4005 42.1486 47.5985C42.0379 47.7965 41.3159 47.8955 40.8676 47.9013C40.4251 47.9071 40.3261 47.7441 40.2329 47.4937C40.163 47.2899 40.1281 46.8183 40.1281 46.5446C40.1223 46.4631 40.1281 46.3932 40.1397 46.3292C40.0058 46.3874 39.8093 46.5213 39.7453 46.6087C39.7278 46.8707 39.7278 47.2899 39.8675 47.7557C39.9374 47.977 38.3522 48.9203 38.1309 48.7456C37.9039 48.5651 37.4963 46.795 37.6709 46.0788C37.4846 46.0963 37.3332 46.1545 37.2517 46.271C36.8849 46.7775 37.3449 49.1997 37.834 49.5142C38.0902 49.683 39.3712 48.961 40.0058 48.4195C40.1106 48.5651 40.3115 48.5767 40.559 48.5767C40.885 48.5651 41.3392 48.5185 41.6595 48.4195C41.7833 48.7097 41.9424 49.0669 42.0915 49.3971ZM42.4579 35.9781L42.4804 35.9882C42.5212 36.0057 42.5678 35.9591 42.5387 35.9241C42.4047 35.7436 42.2068 35.5748 41.7875 35.5748C41.3683 35.5748 41.1121 35.7203 40.9957 35.9067C40.9724 35.9532 41.0423 35.9998 41.0888 35.9765C41.2286 35.9008 41.444 35.8135 41.7875 35.8193C42.1149 35.8249 42.3047 35.9097 42.4579 35.9781ZM42.1427 38.4861C42.5037 38.4861 42.7949 38.195 42.7949 37.8398C42.7949 37.4788 42.5037 37.1935 42.1427 37.1935C41.7817 37.1935 41.4906 37.4846 41.4906 37.8398C41.4906 38.195 41.7817 38.4861 42.1427 38.4861ZM37.834 38.2881C37.834 37.8689 37.4963 37.5312 37.077 37.5312C36.6578 37.5312 36.3143 37.8689 36.3201 38.2881C36.3201 38.7074 36.6578 39.0451 37.077 39.0451C37.4963 39.0451 37.834 38.7074 37.834 38.2881ZM35.668 36.6229C35.7495 36.5006 35.8776 36.3143 36.2852 36.1454C36.6927 35.9765 37.013 35.9998 37.2342 36.0522C37.2808 36.0639 37.3158 36.0115 37.275 35.9824C37.1003 35.8368 36.7102 35.6621 36.1978 35.8543C35.7437 36.0231 35.5282 36.3783 35.5282 36.6112C35.5282 36.6636 35.6388 36.6694 35.668 36.6229Z" fill="white" fill-opacity="0.75"/>
</g>
<defs>
<filter id="filter0_b_165_10711" x="-32" y="-32" width="120" height="120" filterUnits="userSpaceOnUse" color-interpolation-filters="sRGB">
<feFlood flood-opacity="0" result="BackgroundImageFix"/>
<feGaussianBlur in="BackgroundImageFix" stdDeviation="16"/>
<feComposite in2="SourceAlpha" operator="in" result="effect1_backgroundBlur_165_10711"/>
<feBlend mode="normal" in="SourceGraphic" in2="effect1_backgroundBlur_165_10711" result="shape"/>
</filter>
</defs>
</svg>
