<?xml version="1.0" encoding="UTF-8" standalone="no"?>
<!DOCTYPE svg PUBLIC "-//W3C//DTD SVG 1.1//EN" "http://www.w3.org/Graphics/SVG/1.1/DTD/svg11.dtd">
<!-- Created with Vectornator (http://vectornator.io/) -->
<svg height="100%" stroke-miterlimit="10" style="fill-rule:nonzero;clip-rule:evenodd;stroke-linecap:round;stroke-linejoin:round;" version="1.1" viewBox="0 0 56 56" width="100%" xml:space="preserve" xmlns="http://www.w3.org/2000/svg" xmlns:vectornator="http://vectornator.io" xmlns:xlink="http://www.w3.org/1999/xlink">
<defs>
<linearGradient gradientTransform="matrix(1 0 0 1 0 0)" gradientUnits="userSpaceOnUse" id="LinearGradient" x1="27.5152" x2="27.5152" y1="5.26514" y2="39.8091">
<stop offset="0" stop-color="#ffffff" stop-opacity="0.9"/>
<stop offset="1" stop-color="#ffffff" stop-opacity="0.4"/>
</linearGradient>
<linearGradient gradientTransform="matrix(1 0 0 1 0 0)" gradientUnits="userSpaceOnUse" id="LinearGradient_2" x1="28.0001" x2="28.0001" y1="36.0001" y2="52">
<stop offset="0" stop-color="#ffffff" stop-opacity="0.8"/>
<stop offset="1" stop-color="#ffffff" stop-opacity="0.6"/>
</linearGradient>
</defs>
<g id="Untitled" vectornator:layerName="Untitled">
<g opacity="1" vectornator:layerName="g">
<path d="M31.324 29.7997C31.2145 30.9951 30.9938 32.1753 30.666 33.3253C31.1458 33.4447 31.6131 33.5956 32.0656 33.7757C32.4119 33.065 32.7212 32.1595 32.9345 31.0075C34.3143 32.2935 35.2039 34.0194 35.4509 35.8893L35.4518 35.9086C36.4671 36.8441 37.3059 37.9682 37.9126 39.2254C39.159 37.9605 40.1754 36.4826 40.9114 34.8576C42.1253 31.5432 42.4463 27.9678 41.8424 24.4902C41.6263 22.0487 42.0242 19.592 43 17.3437C40.8917 18.1023 39.1127 19.5701 37.9672 21.4957C37.284 22.7061 36.8157 24.0257 36.5832 25.3961C36.6085 23.4638 36.2135 21.5491 35.4257 19.7846C34.7437 17.9741 34.0983 16.7259 33.5288 15.6243C32.9426 14.4904 32.4367 13.5118 32.0538 12.2355C31.5707 9.83657 32.0206 7.34373 33.312 5.26514C30.7331 5.77634 28.2863 6.81036 26.1224 8.30346C23.9585 9.79655 22.1233 11.7171 20.7301 13.9466C17.2575 20.2123 18.6919 24.0121 18.6919 24.0121C17.7663 23.1574 17.0144 22.1321 16.4775 20.9924C16.0233 19.8939 15.8254 18.7063 15.8987 17.5198C14.1455 19.4507 12.9299 21.8079 12.3735 24.3559C11.8171 26.9039 11.9394 29.5533 12.7281 32.0393C13.5129 34.5554 14.8749 36.8532 16.7055 38.7494C17.0636 39.1203 17.4377 39.4738 17.8265 39.8091C18.2401 38.8062 18.7977 37.8778 19.4735 37.0497L19.4719 37.0217C19.3622 33.5835 21.1531 31.408 22.9224 29.2588C23.5876 28.4507 24.2497 27.6464 24.8066 26.7801C25.6531 25.7585 26.2854 24.5771 26.6658 23.3061C27.0462 22.0351 27.1671 20.7006 27.021 19.3819C29.0463 20.8769 30.438 23.0766 30.9214 25.547C31.3242 26.9262 31.4608 28.3694 31.324 29.7997Z" fill="url(#LinearGradient)" fill-rule="evenodd" opacity="1" stroke="none" vectornator:layerName="path"/>
<path d="M28.0001 52C32.4183 52 36 48.4183 36 44C36 39.5818 32.4183 36.0001 28.0001 36.0001C23.5818 36.0001 20.0001 39.5818 20.0001 44C20.0001 48.4183 23.5818 52 28.0001 52ZM34.8056 44C34.8056 47.2507 32.5264 49.9691 29.4789 50.6444C29.3734 50.4109 29.261 50.1583 29.1734 49.9532C28.947 50.0231 28.6259 50.0561 28.3953 50.0643C28.2203 50.0643 28.0783 50.0561 28.0042 49.9532C27.5554 50.336 26.6497 50.8465 26.4686 50.7272C26.1227 50.5048 25.7975 48.7922 26.0569 48.434C26.1145 48.3517 26.2215 48.3105 26.3533 48.2981C26.2298 48.8045 26.518 50.0561 26.6785 50.1837C26.835 50.3072 27.9558 49.6403 27.9064 49.4838C27.8076 49.1545 27.8076 48.858 27.82 48.6728C27.8652 48.611 28.0042 48.5163 28.0989 48.4752C28.0906 48.5204 28.0865 48.5699 28.0906 48.6275C28.0906 48.821 28.1153 49.1545 28.1648 49.2986C28.2306 49.4756 28.3006 49.5909 28.6135 49.5867C28.9305 49.5826 29.441 49.5126 29.5192 49.3727C29.5975 49.2327 29.4945 48.6645 29.4287 48.4834L29.3916 48.3969C29.3875 48.3887 29.3834 48.3805 29.3793 48.3764L29.4894 48.3764C29.6541 48.4134 29.7951 48.4834 29.8363 49.2419C29.8363 49.3943 30.9025 49.6856 31.096 49.6032C31.1125 49.595 31.1207 49.5867 31.1249 49.5785C31.2154 49.1133 31.1619 47.9564 30.7502 47.4665C30.6679 47.3677 29.8239 47.9029 29.3175 48.2817C29.2105 48.1664 29.0211 48.1005 28.6629 48.1582C28.6293 48.163 28.5984 48.1692 28.5687 48.1751C28.5476 48.1794 28.527 48.1835 28.5065 48.187C28.3294 47.6106 28.2265 47.1042 28.2677 46.7748C27.8724 46.5649 27.609 46.322 27.5596 46.2273C27.4731 46.0708 27.6172 45.9967 27.6913 46.0379C27.6954 46.042 27.7036 46.0461 27.716 46.0503C28.1318 46.2767 28.7988 46.5237 29.7045 46.569C29.8115 46.5731 29.9227 46.5772 30.0339 46.5772C31.4954 46.5649 32.3476 45.9967 32.1994 45.7127C32.1295 45.5806 31.826 45.6143 31.372 45.6648C30.8634 45.7214 30.1657 45.7989 29.3957 45.688C28.3171 45.5315 28.21 45.0375 28.3459 44.8275C28.5533 44.5096 28.9423 44.5267 29.499 44.5511C29.7931 44.5639 30.134 44.5789 30.5197 44.5476C31.6354 44.457 32.2694 44.1441 32.6193 43.7447C32.8046 43.5348 32.8869 43.3083 32.8169 43.1725C32.7511 43.0531 32.5658 43.0078 32.0388 43.2095C31.6724 43.3495 31.1207 43.5307 30.3838 43.6171C30.5114 42.7978 30.1286 39.8295 28.033 39.3807C28.0248 39.3766 28.0165 39.3725 28.0083 39.3643C27.3702 38.5491 26.0733 38.1786 24.8382 38.3433C24.83 38.3433 24.8259 38.3474 24.8218 38.3515C24.7847 38.368 24.7847 38.4379 24.8259 38.4544C24.9659 38.5038 25.1305 38.5779 25.254 38.6891C25.077 38.7838 24.8176 38.9402 24.6735 39.142C24.6653 39.1502 24.6653 39.1584 24.6653 39.1667C24.6653 39.1914 24.6859 39.2119 24.7147 39.2078C25.3158 39.0884 25.9292 39.1461 26.2915 39.4754C26.3162 39.496 26.3039 39.5331 26.2709 39.5413C23.1338 40.3935 23.7555 43.1231 24.5912 46.4702C25.0604 48.3501 25.4109 49.6418 25.6169 50.3766C23.0337 49.4107 21.1946 46.9201 21.1946 44C21.1946 40.2414 24.2415 37.1945 28.0001 37.1945C31.7587 37.1945 34.8056 40.2414 34.8056 44ZM29.7539 41.1634L29.738 41.1563C29.6297 41.1079 29.4954 41.0479 29.264 41.044C29.0211 41.0399 28.8688 41.1016 28.7699 41.1552C28.737 41.1716 28.6876 41.1387 28.7041 41.1058C28.7864 40.974 28.9676 40.8711 29.264 40.8711C29.5604 40.8711 29.7004 40.9905 29.7951 41.1181C29.8157 41.1428 29.7827 41.1757 29.7539 41.1634ZM29.9762 42.4726C29.9762 42.7237 29.7704 42.9296 29.5151 42.9296C29.2599 42.9296 29.054 42.7237 29.054 42.4726C29.054 42.2215 29.2599 42.0156 29.5151 42.0156C29.7704 42.0156 29.9762 42.2173 29.9762 42.4726ZM25.9333 42.2544C26.2298 42.2544 26.4686 42.4932 26.4686 42.7896C26.4686 43.086 26.2298 43.3248 25.9333 43.3248C25.6369 43.3248 25.3981 43.086 25.3981 42.7896C25.394 42.4932 25.6369 42.2544 25.9333 42.2544ZM25.3734 41.2745C25.0852 41.3939 24.9947 41.5257 24.937 41.6121C24.9164 41.6451 24.8382 41.641 24.8382 41.6039C24.8382 41.4392 24.9906 41.1881 25.3117 41.0687C25.674 40.9328 25.9498 41.0563 26.0733 41.1593C26.1021 41.1799 26.0774 41.2169 26.0445 41.2087C25.8881 41.1716 25.6616 41.1552 25.3734 41.2745ZM29.721 42.4396C29.7869 42.4396 29.8404 42.3861 29.8404 42.3202C29.8404 42.2544 29.7869 42.2008 29.721 42.2008C29.6551 42.2008 29.6016 42.2544 29.6016 42.3202C29.6016 42.3861 29.6551 42.4396 29.721 42.4396ZM26.1721 42.7484C26.2504 42.7484 26.3121 42.6867 26.3121 42.6084C26.3121 42.5302 26.2504 42.4685 26.1721 42.4685C26.0939 42.4685 26.0322 42.5302 26.0322 42.6084C26.0322 42.6867 26.0939 42.7484 26.1721 42.7484Z" fill="url(#LinearGradient_2)" fill-rule="evenodd" opacity="1" stroke="none" vectornator:layerName="path"/>
</g>
</g>
</svg>
