<svg fill="none" viewBox="0 0 16 16" xmlns="http://www.w3.org/2000/svg">
  <g clip-path="url(#Fire_svg__a)">
    <path fill="#000" fill-rule="evenodd" d="M6.552.027a.75.75 0 0 1 .677.146C8.17.953 8.9 1.855 9.423 2.919a.75.75 0 0 1-1.346.662 6.522 6.522 0 0 0-1.073-1.562c-.41.77-.923 1.459-1.443 2.123l-.345.437c-.64.81-1.276 1.616-1.835 2.583-1.03 1.78-1.077 3.5-.464 4.799.433.918 1.227 1.691 2.362 2.15a4.4 4.4 0 0 1-.255-2.044c.162-1.344.99-2.599 2.548-3.683L8 8.086l.428.298c1.553 1.08 2.367 2.284 2.56 3.597.112.751.011 1.486-.21 2.187.54-.235.96-.573 1.286-.978.573-.712.9-1.696.976-2.853.125-1.922-.458-4.17-1.521-6.017a9.475 9.475 0 0 1-1.214 1.678.75.75 0 1 1-1.119-1c.78-.873 1.257-1.715 1.468-2.454a.75.75 0 0 1 1.317-.25c1.726 2.258 2.743 5.421 2.566 8.14-.089 1.367-.484 2.677-1.304 3.696-.833 1.036-2.055 1.71-3.66 1.866a.75.75 0 0 1-.735-1.1c.528-.988.788-1.877.667-2.696-.103-.696-.5-1.461-1.504-2.265-1.001.808-1.403 1.603-1.488 2.311-.099.82.205 1.694.841 2.56a.75.75 0 0 1-.696 1.188c-2.423-.299-4.237-1.57-5.097-3.393-.859-1.818-.71-4.059.521-6.19.618-1.07 1.33-1.969 1.97-2.777l.327-.416c.731-.935 1.322-1.763 1.665-2.72a.75.75 0 0 1 .508-.471Z" clip-rule="evenodd"/>
  </g>
  <defs>
    <clipPath id="Fire_svg__a">
      <path fill="#fff" d="M0 0h16v16H0z"/>
    </clipPath>
  </defs>
</svg>
