<svg width="76" height="76" viewBox="0 0 76 76" fill="none" xmlns="http://www.w3.org/2000/svg">
<path d="M34.2139 55.1107C29.8352 53.7103 26.2059 50.2897 24.3276 45.0793C21.534 37.6508 27.2893 31.7401 27.2893 31.7401C27.2893 31.7401 27.1233 33.2559 27.8318 34.9286C28.5404 36.5992 29.9169 37.8056 29.9169 37.8056C29.9169 37.8056 28.5829 34.3056 31.8357 28.4722C35.5059 21.9008 43.5969 20.5 43.5969 20.5C43.5969 20.5 41.5527 23.6508 42.468 26.877C43.1786 29.2897 44.3446 30.4563 45.6382 33.7222C46.9318 37.0674 46.7233 38.8948 46.7233 38.8948C46.7233 38.8948 47.0995 36.8349 48.0165 35.4345C50.0186 32.3611 52.7292 31.623 52.7292 31.623C52.7292 31.623 51.3118 34.4226 51.6458 38.1944C51.8952 40.9563 52.3122 44.1448 50.7697 47.7222C49.5591 50.5615 46.0569 54.4504 41.1356 55.5C43.9718 54.3333 45.8484 51.6107 45.6399 48.6563C45.5144 46.9456 44.4309 45.3111 43.2633 44.1841C42.5544 48.4996 40.0101 49.0056 40.0101 49.0056C40.0101 49.0056 41.4697 46.1678 41.6782 43.0174C41.8037 41.7734 41.7203 40.45 41.3033 39.1286C39.9692 34.6563 37.6756 33.45 37.6756 33.45C37.6756 33.45 38.4267 36.0552 35.6735 40.2556C33.7544 43.1722 30.5016 45.3111 30.6267 49.6663C30.7118 51.9996 32.1714 53.9837 34.2139 55.1107Z" fill="white"/>
</svg>
