<svg width="24" height="24" fill="none" xmlns="http://www.w3.org/2000/svg">
  <g clip-path="url(#Medianet-Advertising_svg__a)">
    <path fill="#EFEFEF" d="M24 12c0 6.627-5.373 12-12 12S0 18.627 0 12 5.373 0 12 0s12 5.373 12 12Z"/>
    <path fill="#000" fill-opacity=".12" fill-rule="evenodd" d="M24 12c0 6.627-5.373 12-12 12S0 18.627 0 12 5.373 0 12 0s12 5.373 12 12ZM12 23.5c6.351 0 11.5-5.149 11.5-11.5S18.351.5 12 .5.5 5.649.5 12 5.649 23.5 12 23.5Z" clip-rule="evenodd"/>
    <path fill="#111" fill-rule="evenodd" d="M3.502 7.724 3.5 8.856l1.891.003.004.126c.007.26.009.572.008.935l-.008 4.471c0 .275-.003.55-.01.825a15.21 15.21 0 0 1-.108 1.367l2.956.006a15.32 15.32 0 0 1-.102-1.377 28.405 28.405 0 0 1-.009-.816l.006-2.933c.204-.495.466-.877.781-1.145a1.606 1.606 0 0 1 1.058-.405c.175 0 .328.032.464.096a.792.792 0 0 1 .326.269c.061.08.108.17.145.268.035.098.061.216.076.354.013.138.02.31.02.51l-.005 2.991c0 .279-.003.557-.01.835a14.529 14.529 0 0 1-.109 1.357l2.985.006c-.054-.459-.089-.92-.102-1.382-.007-.265-.01-.53-.008-.796l.005-2.962a3.13 3.13 0 0 1 .45-.835c.18-.231.382-.408.605-.53.213-.122.454-.186.699-.185.272-.002.49.049.657.15.167.1.286.262.363.486.076.222.11.515.11.875l-.005 2.991c0 .325-.003.61-.01.855a15.4 15.4 0 0 1-.108 1.337l2.985.006a15.454 15.454 0 0 1-.103-1.365 28.22 28.22 0 0 1-.008-.813l.006-3.6c.003-1.1-.257-1.927-.775-2.487-.519-.56-1.293-.84-2.32-.844-.413 0-.793.041-1.138.129-.345.086-.67.223-.976.409a4.752 4.752 0 0 0-.901.72 2.939 2.939 0 0 0-.177-.308 1.67 1.67 0 0 0-.41-.42 2.526 2.526 0 0 0-.815-.393 3.729 3.729 0 0 0-1.022-.133 3.738 3.738 0 0 0-1.522.288c-.444.19-.846.484-1.207.882l.001-.279v-.053l.001-.61-2.842-.005-1.79-.003Z" clip-rule="evenodd"/>
  </g>
  <defs>
    <clipPath id="Medianet-Advertising_svg__a">
      <path fill="#fff" d="M0 0h24v24H0z"/>
    </clipPath>
  </defs>
</svg>
