<svg width="76" height="76" viewBox="0 0 76 76" fill="none" xmlns="http://www.w3.org/2000/svg">
<path d="M31.0608 27.4998C31.0608 23.6673 34.1676 20.5605 38 20.5605C41.8324 20.5605 44.9392 23.6673 44.9392 27.4998V32.7499C44.9898 34.2064 44.9983 34.4507 44.9646 35.5265C44.9508 35.9656 44.6109 36.322 44.1783 36.399C40.8672 36.9878 38.1418 39.2696 36.9288 42.3175C36.7631 42.7338 36.3312 43.002 35.904 42.8668C33.096 41.9782 31.0608 39.3517 31.0608 36.2498V27.4998Z" fill="white"/>
<path d="M36.4784 47.9686C36.3036 47.1807 35.7115 46.5317 34.9394 46.2968C30.6333 44.9867 27.5 40.9842 27.5 36.2499C27.5 35.2834 26.7165 34.4999 25.75 34.4999C24.7835 34.4999 24 35.2834 24 36.2499C24 43.3892 29.344 49.2804 36.25 50.1416V51.9999H29.25C28.2835 51.9999 27.5 52.7834 27.5 53.7499C27.5 54.7164 28.2835 55.4999 29.25 55.4999H39.75C41.5 55.4999 42.2422 54.9613 40.7604 54.03C38.6178 52.6834 37.0434 50.5159 36.4784 47.9686Z" fill="white"/>
<path d="M51.1099 37.7966C51.4486 38.0166 51.918 37.8268 51.9514 37.4243C51.9836 37.0371 52 36.6454 52 36.2499C52 35.2834 51.2165 34.4999 50.25 34.4999C49.2835 34.4999 48.5 35.2834 48.5 36.2499C48.5 36.4617 48.6376 36.6498 48.8391 36.7149C49.6482 36.9766 50.4104 37.3424 51.1099 37.7966Z" fill="white"/>
<path fill-rule="evenodd" clip-rule="evenodd" d="M45.875 38.875C42.009 38.875 38.875 42.009 38.875 45.875C38.875 49.741 42.009 52.875 45.875 52.875C47.3337 52.875 48.6881 52.4288 49.8094 51.6655L52.8219 54.6781C53.3345 55.1906 54.1655 55.1906 54.6781 54.6781C55.1906 54.1655 55.1906 53.3345 54.6781 52.8219L51.6655 49.8094C52.4288 48.6881 52.875 47.3337 52.875 45.875C52.875 42.009 49.741 38.875 45.875 38.875ZM41.5 45.875C41.5 43.4588 43.4588 41.5 45.875 41.5C48.2912 41.5 50.25 43.4588 50.25 45.875C50.25 48.2912 48.2912 50.25 45.875 50.25C43.4588 50.25 41.5 48.2912 41.5 45.875Z" fill="white"/>
</svg>
