<svg width="76" height="76" viewBox="0 0 76 76" fill="none" xmlns="http://www.w3.org/2000/svg">
<path fill-rule="evenodd" clip-rule="evenodd" d="M38 14C33.0294 14 29 18.0294 29 23V34.9999C29 39.9705 33.0294 43.9999 38 43.9999C42.9705 43.9999 47 39.9705 47 34.9999V23C47 18.0294 42.9705 14 38 14ZM33.5 23C33.5 20.5147 35.5147 18.5 38 18.5C40.4853 18.5 42.5 20.5147 42.5 23V34.9999C42.5 37.4852 40.4853 39.4999 38 39.4999C35.5147 39.4999 33.5 37.4852 33.5 34.9999V23Z" fill="white" fill-opacity="0.7"/>
<path d="M25.25 57.4998C24.0074 57.4998 23 58.5071 23 59.7498C23 60.9924 24.0074 61.9997 25.25 61.9997H50.75C51.9926 61.9997 53 60.9924 53 59.7498C53 58.5071 51.9926 57.4998 50.75 57.4998H40.25V52.8606C49.1292 51.7533 56 44.179 56 34.9998V34.2499C56 33.0072 54.9926 31.9999 53.75 31.9999C52.5074 31.9999 51.5 33.0072 51.5 34.2499V34.9998C51.5 42.4557 45.4558 48.4998 38 48.4998C30.5442 48.4998 24.5 42.4557 24.5 34.9998V34.2499C24.5 33.0072 23.4926 31.9999 22.25 31.9999C21.0074 31.9999 20 33.0072 20 34.2499V34.9998C20 44.179 26.8708 51.7533 35.75 52.8606V57.4998H25.25Z" fill="white" fill-opacity="0.7"/>
</svg>
