<?xml version="1.0" encoding="UTF-8" standalone="no"?>
<!DOCTYPE svg PUBLIC "-//W3C//DTD SVG 1.1//EN" "http://www.w3.org/Graphics/SVG/1.1/DTD/svg11.dtd">
<!-- Created with Vectornator (http://vectornator.io/) -->
<svg height="100%" stroke-miterlimit="10" style="fill-rule:nonzero;clip-rule:evenodd;stroke-linecap:round;stroke-linejoin:round;" version="1.1" viewBox="0 0 56 56" width="100%" xml:space="preserve" xmlns="http://www.w3.org/2000/svg" xmlns:vectornator="http://vectornator.io" xmlns:xlink="http://www.w3.org/1999/xlink">
<defs>
<linearGradient gradientTransform="matrix(1 0 0 1 0 0)" gradientUnits="userSpaceOnUse" id="LinearGradient" x1="28" x2="28" y1="7" y2="38.0423">
<stop offset="0" stop-color="#ffffff" stop-opacity="0.9"/>
<stop offset="1" stop-color="#ffffff" stop-opacity="0.4"/>
</linearGradient>
<linearGradient gradientTransform="matrix(1 0 0 1 0 0)" gradientUnits="userSpaceOnUse" id="LinearGradient_2" x1="27.9999" x2="27.9999" y1="36.2222" y2="51.7778">
<stop offset="0" stop-color="#ffffff" stop-opacity="0.6"/>
<stop offset="1" stop-color="#ffffff" stop-opacity="0.8"/>
</linearGradient>
</defs>
<g id="Untitled" vectornator:layerName="Untitled">
<g opacity="1" vectornator:layerName="g">
<path d="M28 7C23.6201 7 20.0695 10.5568 20.0695 14.9443L20.0695 24.9617C20.0695 29.3492 23.6201 32.906 28 32.906C32.3799 32.906 35.9305 29.3492 35.9305 24.9617L35.9305 14.9443C35.9305 10.5568 32.3799 7 28 7ZM21.5413 35.0948C20.4393 35.8954 19.4917 36.8956 18.7515 38.0423C14.666 35.1384 12 30.362 12 24.9618C12 23.8553 12.8954 22.9583 14 22.9583C15.1046 22.9583 16 23.8553 16 24.9618C16 29.2188 18.209 32.9589 21.5413 35.0948ZM37.2485 38.0423C36.5083 36.8956 35.5607 35.8954 34.4587 35.0948C37.791 32.9589 40 29.2188 40 24.9618C40 23.8553 40.8954 22.9583 42 22.9583C43.1046 22.9583 44 23.8553 44 24.9618C44 30.362 41.334 35.1384 37.2485 38.0423Z" fill="url(#LinearGradient)" fill-rule="evenodd" opacity="1" stroke="none" vectornator:layerName="path"/>
<path d="M28 52C32.4183 52 36 48.4183 36 44C36 39.5817 32.4183 36 28 36C23.5817 36 20 39.5817 20 44C20 48.4183 23.5817 52 28 52ZM34.8056 44C34.8056 47.2508 32.5264 49.9692 29.4788 50.6444C29.3734 50.4109 29.2609 50.1584 29.1734 49.9532C28.9469 50.0232 28.6258 50.0561 28.3952 50.0644C28.2203 50.0644 28.0782 50.0561 28.0041 49.9532C27.5554 50.3361 26.6496 50.8466 26.4685 50.7272C26.1226 50.5049 25.7974 48.7922 26.0568 48.434C26.1144 48.3517 26.2215 48.3105 26.3532 48.2982C26.2297 48.8045 26.5179 50.0561 26.6784 50.1837C26.8349 50.3073 27.9558 49.6403 27.9063 49.4838C27.8075 49.1545 27.8075 48.8581 27.8199 48.6728C27.8652 48.611 28.0041 48.5164 28.0988 48.4752C28.0906 48.5205 28.0865 48.5699 28.0906 48.6275C28.0906 48.821 28.1153 49.1545 28.1647 49.2986C28.2306 49.4756 28.3005 49.5909 28.6134 49.5868C28.9304 49.5827 29.441 49.5127 29.5192 49.3727C29.5974 49.2327 29.4945 48.6646 29.4286 48.4834L29.3915 48.3969C29.3874 48.3887 29.3833 48.3805 29.3792 48.3764L29.4893 48.3764C29.654 48.4134 29.795 48.4834 29.8362 49.242C29.8362 49.3943 30.9025 49.6856 31.096 49.6032C31.1125 49.595 31.1207 49.5868 31.1248 49.5785C31.2154 49.1133 31.1619 47.9564 30.7502 47.4665C30.6678 47.3677 29.8238 47.9029 29.3174 48.2817C29.2104 48.1664 29.021 48.1005 28.6628 48.1582C28.6292 48.163 28.5984 48.1692 28.5687 48.1752C28.5475 48.1794 28.527 48.1836 28.5064 48.187C28.3294 47.6106 28.2264 47.1042 28.2676 46.7749C27.8724 46.5649 27.6089 46.322 27.5595 46.2273C27.473 46.0708 27.6171 45.9967 27.6912 46.0379C27.6953 46.042 27.7036 46.0461 27.7159 46.0503C28.1317 46.2767 28.7987 46.5237 29.7044 46.569C29.8115 46.5731 29.9226 46.5772 30.0338 46.5772C31.4953 46.5649 32.3476 45.9967 32.1994 45.7127C32.1295 45.5806 31.826 45.6144 31.3719 45.6648C30.8633 45.7214 30.1657 45.7989 29.3957 45.688C28.317 45.5315 28.21 45.0375 28.3458 44.8275C28.5533 44.5096 28.9423 44.5267 29.499 44.551C29.7931 44.5639 30.134 44.5789 30.5196 44.5476C31.6353 44.457 32.2693 44.1441 32.6193 43.7447C32.8046 43.5348 32.8869 43.3083 32.8169 43.1725C32.751 43.0531 32.5658 43.0078 32.0388 43.2095C31.6724 43.3495 31.1207 43.5306 30.3838 43.6171C30.5114 42.7978 30.1285 39.8295 28.0329 39.3807C28.0247 39.3766 28.0165 39.3725 28.0082 39.3642C27.3701 38.5491 26.0732 38.1785 24.8381 38.3432C24.8299 38.3432 24.8258 38.3473 24.8217 38.3514C24.7846 38.3679 24.7846 38.4379 24.8258 38.4544C24.9658 38.5038 25.1304 38.5779 25.254 38.689C25.0769 38.7837 24.8175 38.9402 24.6735 39.1419C24.6652 39.1501 24.6652 39.1584 24.6652 39.1666C24.6652 39.1913 24.6858 39.2119 24.7146 39.2078C25.3157 39.0884 25.9291 39.146 26.2914 39.4754C26.3161 39.496 26.3038 39.533 26.2709 39.5413C23.1337 40.3935 23.7554 43.1231 24.5911 46.4702C25.0603 48.3501 25.4108 49.6418 25.6168 50.3766C23.0336 49.4107 21.1944 46.9202 21.1944 44C21.1944 40.2414 24.2414 37.1944 28 37.1944C31.7586 37.1944 34.8056 40.2414 34.8056 44ZM29.7538 41.1634L29.7379 41.1563C29.6296 41.1079 29.4954 41.0479 29.2639 41.044C29.021 41.0399 28.8687 41.1016 28.7699 41.1551C28.7369 41.1716 28.6875 41.1387 28.704 41.1057C28.7864 40.974 28.9675 40.8711 29.2639 40.8711C29.5604 40.8711 29.7003 40.9904 29.795 41.1181C29.8156 41.1428 29.7827 41.1757 29.7538 41.1634ZM29.9762 42.4726C29.9762 42.7237 29.7703 42.9296 29.5151 42.9296C29.2598 42.9296 29.054 42.7237 29.054 42.4726C29.054 42.2214 29.2598 42.0156 29.5151 42.0156C29.7703 42.0156 29.9762 42.2173 29.9762 42.4726ZM25.9333 42.2544C26.2297 42.2544 26.4685 42.4932 26.4685 42.7896C26.4685 43.086 26.2297 43.3248 25.9333 43.3248C25.6368 43.3248 25.398 43.086 25.398 42.7896C25.3939 42.4932 25.6368 42.2544 25.9333 42.2544ZM25.3733 41.2745C25.0852 41.3939 24.9946 41.5257 24.9369 41.6121C24.9164 41.6451 24.8381 41.6409 24.8381 41.6039C24.8381 41.4392 24.9905 41.1881 25.3116 41.0687C25.6739 40.9328 25.9497 41.0563 26.0732 41.1592C26.1021 41.1798 26.0774 41.2169 26.0444 41.2087C25.888 41.1716 25.6615 41.1551 25.3733 41.2745ZM29.7209 42.4396C29.7868 42.4396 29.8403 42.3861 29.8403 42.3202C29.8403 42.2543 29.7868 42.2008 29.7209 42.2008C29.6551 42.2008 29.6015 42.2543 29.6015 42.3202C29.6015 42.3861 29.6551 42.4396 29.7209 42.4396ZM26.1721 42.7484C26.2503 42.7484 26.312 42.6866 26.312 42.6084C26.312 42.5302 26.2503 42.4684 26.1721 42.4684C26.0938 42.4684 26.0321 42.5302 26.0321 42.6084C26.0321 42.6866 26.0938 42.7484 26.1721 42.7484Z" fill="url(#LinearGradient_2)" fill-rule="evenodd" opacity="1" stroke="none" vectornator:layerName="path"/>
</g>
</g>
</svg>
