<svg width="24" height="24" viewBox="0 0 24 24" fill="none" xmlns="http://www.w3.org/2000/svg">
<circle cx="12" cy="12" r="11" fill="white"/>
<path fill-rule="evenodd" clip-rule="evenodd" d="M24 12C24 18.6274 18.6274 24 12 24C5.37258 24 0 18.6274 0 12C0 5.37258 5.37258 0 12 0C18.6274 0 24 5.37258 24 12ZM11.1667 12.4299C10.7083 12.4299 10.3368 12.0584 10.3368 11.6C10.3368 11.1417 10.7083 10.7701 11.1667 10.7701C11.625 10.7701 11.9965 11.1417 11.9965 11.6C11.9965 12.0584 11.625 12.4299 11.1667 12.4299ZM11.1667 10C10.2826 10 9.56665 10.716 9.56665 11.6C9.56665 12.4841 10.2833 13.2 11.1667 13.2C12.0507 13.2 12.7667 12.4833 12.7667 11.6C12.7667 10.716 12.05 10 11.1667 10ZM20.3333 12.4063V11.9139H21.8229V11.2355H20.3333V10.7653H21.9778V10.0341H19.4868V13.1375H22V12.4063H20.3333ZM7.42776 11.2355L6.68747 10.0341H5.77913V13.1368H6.62569V11.3639L7.29648 12.3924L7.30902 12.4112L7.3354 12.4466C7.35551 12.4743 7.38468 12.4896 7.42218 12.4896C7.45968 12.4896 7.48954 12.475 7.50972 12.4466L7.53958 12.4007L8.2208 11.3549V13.1368H9.07635V10.0341H8.16801L7.42776 11.2355ZM18.8368 11.9139H17.3472V12.4063H19.0139V13.1375H16.5007V10.0341H18.9917V10.7653H17.3472V11.2355H18.8368V11.9139ZM4.05943 11.9264L3.71664 11.0507L3.36868 11.9264H4.05943ZM2 13.1368L3.31176 10.0341H4.1347L5.44578 13.1368H4.53052L4.30623 12.5869H3.11802L2.89787 13.1368H2ZM15.1771 12.1625C15.1771 12.2542 15.1416 12.3243 15.0708 12.3729C15 12.4215 14.8979 12.4459 14.7653 12.4459H14.1V11.8743H14.7562C14.9007 11.8743 15.0069 11.9 15.075 11.95C15.143 12 15.1771 12.0681 15.1771 12.1535V12.1625ZM14.1 10.725H14.6583C14.7882 10.725 14.8854 10.7479 14.9507 10.7938C15.0159 10.8396 15.0486 10.9056 15.0486 10.991V11C15.0486 11.0917 15.0138 11.1598 14.9444 11.2042C14.875 11.2486 14.7736 11.2709 14.641 11.2709L14.1 11.2702V10.725ZM15.4194 11.5153C15.5576 11.4563 15.6715 11.3709 15.7611 11.2604C15.8507 11.1493 15.8958 11.0042 15.8958 10.8237V10.8146C15.8958 10.7076 15.8778 10.6132 15.8423 10.5306C15.8069 10.4479 15.7583 10.375 15.6965 10.3132C15.6048 10.2216 15.4902 10.1521 15.3514 10.1049C15.2125 10.0576 15.0458 10.0341 14.8513 10.0341H13.2625V13.1368H14.8625C15.2347 13.1368 15.5236 13.0618 15.7291 12.9111C15.9347 12.7605 16.0375 12.5507 16.0375 12.2819V12.273C16.0375 12.0632 15.9819 11.9 15.8708 11.7834C15.7597 11.6667 15.609 11.5771 15.4194 11.5153Z" fill="#333333"/>
</svg>
