<svg width="128" height="96" viewBox="0 0 128 96" fill="none" xmlns="http://www.w3.org/2000/svg">
<g opacity="0.2">
<path d="M105.629 32.5335L107.171 32.1335C107.457 32.0764 107.743 31.7906 107.8 31.5049L108.2 29.9621C108.314 29.5621 108.657 29.3335 109 29.3335C109.4 29.3335 109.743 29.6192 109.8 29.9621L110.2 31.5049C110.257 31.7906 110.543 32.0764 110.829 32.1335L112.371 32.5335C112.771 32.6478 113 32.9906 113 33.3335C113 33.7335 112.714 34.0764 112.371 34.1335L110.829 34.5335C110.543 34.5906 110.257 34.8764 110.2 35.1621L109.8 36.7049C109.686 37.1049 109.343 37.3335 109 37.3335C108.6 37.3335 108.257 37.0478 108.2 36.7049L107.8 35.1621C107.743 34.8764 107.457 34.5906 107.171 34.5335L105.629 34.1335C105.229 34.0192 105 33.6764 105 33.3335C105 32.9335 105.286 32.5906 105.629 32.5335Z" fill="#888888"/>
<path d="M15.9428 26.1335L18.2571 25.5335C18.6857 25.4478 19.1143 25.0192 19.2 24.5906L19.8 22.2764C19.9714 21.6764 20.4857 21.3335 21 21.3335C21.6 21.3335 22.1143 21.7621 22.2 22.2764L22.8 24.5906C22.8857 25.0192 23.3143 25.4478 23.7429 25.5335L26.0572 26.1335C26.6572 26.3049 27 26.8192 27 27.3335C27 27.9335 26.5714 28.4478 26.0572 28.5335L23.7429 29.1335C23.3143 29.2192 22.8857 29.6478 22.8 30.0764L22.2 32.3906C22.0286 32.9906 21.5143 33.3335 21 33.3335C20.4 33.3335 19.8857 32.9049 19.8 32.3906L19.2 30.0764C19.1143 29.6478 18.6857 29.2192 18.2571 29.1335L15.9428 28.5335C15.3428 28.3621 15 27.8478 15 27.3335C15 26.7335 15.4285 26.2192 15.9428 26.1335Z" fill="#888888"/>
<path d="M0.628557 47.5335L2.17142 47.1335C2.45714 47.0764 2.74287 46.7906 2.80001 46.5049L3.19999 44.9621C3.31427 44.5621 3.65714 44.3335 4 44.3335C4.4 44.3335 4.74287 44.6192 4.80001 44.9621L5.19999 46.5049C5.25713 46.7906 5.54286 47.0764 5.82858 47.1335L7.37144 47.5335C7.77144 47.6478 8 47.9906 8 48.3335C8 48.7335 7.7143 49.0764 7.37144 49.1335L5.82858 49.5335C5.54286 49.5906 5.25713 49.8764 5.19999 50.1621L4.80001 51.7049C4.68573 52.1049 4.34286 52.3335 4 52.3335C3.6 52.3335 3.25713 52.0478 3.19999 51.7049L2.80001 50.1621C2.74287 49.8764 2.45714 49.5906 2.17142 49.5335L0.628557 49.1335C0.228557 49.0192 0 48.6764 0 48.3335C0 47.9335 0.2857 47.5906 0.628557 47.5335Z" fill="#888888"/>
<path d="M126.5 46.3335C125.675 46.3335 125 45.6585 125 44.8335C125 44.0085 125.675 43.3335 126.5 43.3335C127.325 43.3335 128 44.0085 128 44.8335C128 45.6585 127.325 46.3335 126.5 46.3335Z" fill="#888888"/>
<path d="M23 64.3335C21.9 64.3335 21 63.4335 21 62.3335C21 61.2335 21.9 60.3335 23 60.3335C24.1 60.3335 25 61.2335 25 62.3335C25 63.4335 24.1 64.3335 23 64.3335Z" fill="#888888"/>
</g>
<path d="M51 16H81C83.2091 16 85 17.7909 85 20V50.5279C85 52.548 84.1588 54.4403 82.7348 55.7866C82.5497 55.9616 82.3606 56.1336 82.1705 56.305C77.0227 59.0808 73.2772 64.1228 72.27 70.095L68.1875 76.2188C67.4456 77.3316 66.1967 78 64.8593 78H51C48.7909 78 47 76.2091 47 74V20C47 17.7909 48.7909 16 51 16Z" fill="#666666"/>
<path d="M47 16H77C79.2091 16 81 17.7909 81 20V56.9903C75.6785 60.362 72.1167 66.2612 72.0028 73H72V76C72 78.2091 70.2091 80 68 80H47C44.7909 80 43 78.2091 43 76V20C43 17.7909 44.7909 16 47 16Z" fill="#888888"/>
<path d="M54 20.5V19H47.6421C46.7326 19 46 19.7773 46 20.7273V74.2727C46 75.2227 46.7326 76 47.6421 76H72V73.3333C72 67.825 74.3036 62.8547 78 59.3333V20.7273C78 19.7773 77.2674 19 76.3579 19H70V20.5C70 21.3284 69.3284 22 68.5 22H55.5C54.6716 22 54 21.3284 54 20.5Z" fill="#FFD65C"/>
<path d="M72 39C72 33.4772 67.5228 29 62 29C56.4772 29 52 33.4772 52 39C52 44.5228 56.4772 49 62 49C67.5228 49 72 44.5228 72 39Z" fill="#F9BE1A"/>
<path d="M52 60.5C52 58.567 53.567 57 55.5 57H68.5C70.433 57 72 58.567 72 60.5C72 62.433 70.433 64 68.5 64H55.5C53.567 64 52 62.433 52 60.5Z" fill="white"/>
<path d="M91.5 89C100.06 89 107 82.0604 107 73.5C107 64.9396 100.06 58 91.5 58C82.9396 58 76 64.9396 76 73.5C76 82.0604 82.9396 89 91.5 89Z" fill="#7295F6"/>
<path d="M115.765 61.0515C116.071 61.0515 116.378 61.1716 116.612 61.4057C117.08 61.874 117.08 62.6364 116.612 63.1047L114.21 65.506C113.742 65.9743 112.98 65.9743 112.511 65.506C112.043 65.0378 112.043 64.2753 112.511 63.8071L114.913 61.4057C115.147 61.1716 115.453 61.0515 115.759 61.0515H115.765Z" fill="#CCCCCC"/>
<path d="M114.564 71.8575H118.166C118.827 71.8575 119.367 72.3978 119.367 73.0582C119.367 73.7186 118.827 74.2589 118.166 74.2589H114.564C113.904 74.2589 113.364 73.7186 113.364 73.0582C113.364 72.3978 113.904 71.8575 114.564 71.8575Z" fill="#CCCCCC"/>
<path d="M112.524 80.6176C112.758 80.3835 113.064 80.2634 113.37 80.2634H113.376C113.682 80.2634 113.988 80.3835 114.223 80.6176L116.624 83.019C117.092 83.4872 117.092 84.2497 116.624 84.7179C116.156 85.1862 115.393 85.1862 114.925 84.7179L112.524 82.3166C112.055 81.8483 112.055 81.0859 112.524 80.6176Z" fill="#CCCCCC"/>
<path fill-rule="evenodd" clip-rule="evenodd" d="M94.3333 65.6667C94.3333 65.2985 94.0349 65 93.6667 65H89.3333C88.9651 65 88.6667 65.2985 88.6667 65.6667V70C88.6667 70.3682 88.3682 70.6667 88 70.6667H83.6667C83.2985 70.6667 83 70.9651 83 71.3333V75.6667C83 76.0349 83.2985 76.3333 83.6667 76.3333H88C88.3682 76.3333 88.6667 76.6318 88.6667 77V81.3333C88.6667 81.7015 88.9651 82 89.3333 82H93.6667C94.0349 82 94.3333 81.7015 94.3333 81.3333V77C94.3333 76.6318 94.6318 76.3333 95 76.3333H99.3333C99.7015 76.3333 100 76.0349 100 75.6667V71.3333C100 70.9651 99.7015 70.6667 99.3333 70.6667L95 70.6667C94.6318 70.6667 94.3333 70.3682 94.3333 70V65.6667Z" fill="white"/>
</svg>
