<svg width="24" height="24" viewBox="0 0 24 24" fill="none" xmlns="http://www.w3.org/2000/svg">
<path fill-rule="evenodd" clip-rule="evenodd" d="M12 22C17.5228 22 22 17.5228 22 12C22 6.47715 17.5228 2 12 2C6.47715 2 2 6.47715 2 12C2 17.5228 6.47715 22 12 22Z" fill="#21C000"/>
<path fill-rule="evenodd" clip-rule="evenodd" d="M16.6002 8.27982C16.9979 8.61128 17.0517 9.20244 16.7202 9.6002L11.7202 15.6002C11.5516 15.8025 11.3056 15.9246 11.0425 15.9366C10.7794 15.9485 10.5233 15.8492 10.3371 15.6629L7.33709 12.6629C6.97097 12.2968 6.97097 11.7032 7.33709 11.3371C7.7032 10.971 8.2968 10.971 8.66291 11.3371L10.937 13.6112L15.2798 8.39985C15.6113 8.00209 16.2024 7.94835 16.6002 8.27982Z" fill="white"/>
</svg>
