<svg width="24" height="24" viewBox="0 0 24 24" fill="none" xmlns="http://www.w3.org/2000/svg">
<circle cx="12" cy="12" r="11" fill="white"/>
<path fill-rule="evenodd" clip-rule="evenodd" d="M24 12C24 18.6274 18.6274 24 12 24C5.37258 24 0 18.6274 0 12C0 5.37258 5.37258 0 12 0C18.6274 0 24 5.37258 24 12ZM9.26068 7.13805V5H13.5519V7.10463V12.7179H11.447V7.13805H9.26068ZM10.3941 8.36325C9.03043 9.10897 8.1054 10.5573 8.1054 12.2217C8.1054 13.9028 9.04915 15.3623 10.4356 16.1019V18.3861C7.8579 17.5233 6 15.0898 6 12.2217C6 10.7761 6.47264 9.44201 7.27126 8.36306H10.3941V8.36325ZM14.6053 6.07221V8.36285C15.9696 9.10895 16.8954 10.557 16.8954 12.2221C16.8954 14.6485 14.9271 16.6164 12.4999 16.6164C12.1378 16.6164 11.7861 16.5723 11.4496 16.49V18.6368C11.7918 18.692 12.1422 18.7216 12.4999 18.7216C16.0893 18.7216 19 15.8115 19 12.2221C18.9998 9.36885 17.1616 6.94703 14.6053 6.07221Z" fill="#333333"/>
</svg>
