<svg width="32" height="32" viewBox="0 0 32 32" fill="none" xmlns="http://www.w3.org/2000/svg">
<path d="M9 7C9.55228 7 10 7.44772 10 8V9C10 9.55229 9.55228 10 9 10H8C7.44771 10 7 9.55229 7 9V8C7 7.44772 7.44771 7 8 7H9Z" fill="black" fill-opacity="0.84"/>
<path fill-rule="evenodd" clip-rule="evenodd" d="M15 6C15 3.79086 13.2091 2 11 2H6C3.79086 2 2 3.79086 2 6L2 11C2 13.2091 3.79086 15 6 15H11C13.2091 15 15 13.2091 15 11V6ZM12.5 11V6C12.5 5.17157 11.8284 4.5 11 4.5L6 4.5C5.17157 4.5 4.5 5.17157 4.5 6L4.5 11C4.5 11.8284 5.17157 12.5 6 12.5H11C11.8284 12.5 12.5 11.8284 12.5 11Z" fill="black" fill-opacity="0.84"/>
<path d="M24 7C24.5523 7 25 7.44772 25 8V9C25 9.55229 24.5523 10 24 10H23C22.4477 10 22 9.55229 22 9V8C22 7.44772 22.4477 7 23 7H24Z" fill="black" fill-opacity="0.84"/>
<path fill-rule="evenodd" clip-rule="evenodd" d="M30 6C30 3.79086 28.2091 2 26 2H21C18.7909 2 17 3.79086 17 6V11C17 13.2091 18.7909 15 21 15H26C28.2091 15 30 13.2091 30 11V6ZM27.5 11V6C27.5 5.17157 26.8284 4.5 26 4.5L21 4.5C20.1716 4.5 19.5 5.17157 19.5 6V11C19.5 11.8284 20.1716 12.5 21 12.5H26C26.8284 12.5 27.5 11.8284 27.5 11Z" fill="black" fill-opacity="0.84"/>
<path d="M9 22C9.55228 22 10 22.4477 10 23V24C10 24.5523 9.55228 25 9 25H8C7.44771 25 7 24.5523 7 24V23C7 22.4477 7.44771 22 8 22H9Z" fill="black" fill-opacity="0.84"/>
<path fill-rule="evenodd" clip-rule="evenodd" d="M11 17C13.2091 17 15 18.7909 15 21V26C15 28.2091 13.2091 30 11 30H6C3.79086 30 2 28.2091 2 26L2 21C2 18.7909 3.79086 17 6 17H11ZM11 19.5C11.8284 19.5 12.5 20.1716 12.5 21V26C12.5 26.8284 11.8284 27.5 11 27.5H6C5.17157 27.5 4.5 26.8284 4.5 26L4.5 21C4.5 20.1716 5.17157 19.5 6 19.5H11Z" fill="black" fill-opacity="0.84"/>
<path d="M24 22C24.5523 22 25 22.4477 25 23V24C25 24.5523 24.5523 25 24 25H23C22.4477 25 22 24.5523 22 24V23C22 22.4477 22.4477 22 23 22H24Z" fill="black" fill-opacity="0.84"/>
<path d="M20 18C20.5523 18 21 18.4477 21 19V20C21 20.5523 20.5523 21 20 21H19C18.4477 21 18 20.5523 18 20V19C18 18.4477 18.4477 18 19 18H20Z" fill="black" fill-opacity="0.84"/>
<path d="M20 26C20.5523 26 21 26.4477 21 27V28C21 28.5523 20.5523 29 20 29H19C18.4477 29 18 28.5523 18 28V27C18 26.4477 18.4477 26 19 26H20Z" fill="black" fill-opacity="0.84"/>
<path d="M28 18C28.5523 18 29 18.4477 29 19V20C29 20.5523 28.5523 21 28 21H27C26.4477 21 26 20.5523 26 20V19C26 18.4477 26.4477 18 27 18H28Z" fill="black" fill-opacity="0.84"/>
<path d="M28 26C28.5523 26 29 26.4477 29 27V28C29 28.5523 28.5523 29 28 29H27C26.4477 29 26 28.5523 26 28V27C26 26.4477 26.4477 26 27 26H28Z" fill="black" fill-opacity="0.84"/>
</svg>
