<svg width="12" height="12" viewBox="0 0 12 12" fill="none" xmlns="http://www.w3.org/2000/svg">
<g clip-path="url(#clip0_9153_12928)">
<path d="M5.81451 8.6983C5.56692 8.45778 5.56119 8.0621 5.8017 7.81451L6.95722 6.625H3.625C3.27982 6.625 3 6.34518 3 6C3 5.65482 3.27982 5.375 3.625 5.375H6.8358L5.8017 4.31049C5.56119 4.0629 5.56692 3.66721 5.81451 3.4267C6.0621 3.18618 6.45778 3.19192 6.6983 3.43951L8.8233 5.62701C9.0589 5.86954 9.0589 6.25546 8.8233 6.49799L6.6983 8.68549C6.45778 8.93308 6.0621 8.93881 5.81451 8.6983Z" fill="#7295F6"/>
<path fill-rule="evenodd" clip-rule="evenodd" d="M6 0C2.68629 0 0 2.68629 0 6C0 9.31371 2.68629 12 6 12C9.31371 12 12 9.31371 12 6C12 2.68629 9.31371 0 6 0ZM1.25 6C1.25 3.37665 3.37665 1.25 6 1.25C8.62335 1.25 10.75 3.37665 10.75 6C10.75 8.62335 8.62335 10.75 6 10.75C3.37665 10.75 1.25 8.62335 1.25 6Z" fill="#7295F6"/>
</g>
<defs>
<clipPath id="clip0_9153_12928">
<rect width="12" height="12" fill="white"/>
</clipPath>
</defs>
</svg>
