<svg width="24" height="24" viewBox="0 0 24 24" fill="none" xmlns="http://www.w3.org/2000/svg">
<circle cx="12" cy="12" r="11" fill="white"/>
<path fill-rule="evenodd" clip-rule="evenodd" d="M24 12C24 18.6274 18.6274 24 12 24C5.37258 24 0 18.6274 0 12C0 5.37258 5.37258 0 12 0C18.6274 0 24 5.37258 24 12ZM16.5508 10.5751C16.5482 10.3749 16.5469 10.1747 16.5513 9.97454C16.5528 9.90996 16.5354 9.89379 16.4707 9.89399C15.9317 9.89501 15.3926 9.89524 14.8535 9.89547H14.8526H14.8526H14.8526H14.8525C14.2968 9.89571 13.7411 9.89594 13.1853 9.89704C13.125 9.89714 13.1137 9.88078 13.1138 9.82349C13.1155 8.4858 13.1157 7.14811 13.1133 5.81033C13.1132 5.74535 13.132 5.73579 13.191 5.73579C14.3169 5.73729 15.4428 5.73724 16.5688 5.73719L17.183 5.73717C17.2338 5.73717 17.259 5.73717 17.2715 5.74978C17.2838 5.76219 17.2838 5.78681 17.2838 5.83566L17.2839 6.39397V6.39527C17.2839 7.29445 17.284 8.19368 17.2821 9.09283C17.282 9.15642 17.2986 9.17033 17.3597 9.16904C17.5551 9.1648 17.7508 9.16411 17.946 9.16934C18.0117 9.17111 18.0213 9.14992 18.0212 9.09076C18.0194 7.75307 18.0194 6.41538 18.0212 5.07769C18.0212 5.01903 18.012 4.9998 17.9468 5C17.216 5.00213 16.4851 5.00199 15.7542 5.00185H15.7537L15.2054 5.00178L14.6939 5.00181C13.9436 5.00188 13.1932 5.00196 12.4429 5.00059C12.3912 5.00049 12.3768 5.01114 12.3771 5.06517C12.379 5.47406 12.3788 5.88296 12.3787 6.29185L12.3786 6.62656L12.3786 7.19112C12.3786 8.31477 12.3786 9.43837 12.3782 10.562L12.3782 10.5702C12.3779 10.608 12.3777 10.635 12.437 10.6349C13.7888 10.6328 15.1407 10.6331 16.4925 10.6343C16.5392 10.6344 16.5514 10.6212 16.5508 10.5751ZM13.0421 11.3649C12.8514 11.3688 12.6606 11.3695 12.4699 11.3647C12.3993 11.363 12.3765 11.3778 12.3766 11.4546C12.3779 12.6493 12.3783 13.844 12.3786 15.0388C12.3789 16.0837 12.3793 17.1286 12.3802 18.1736C12.3802 18.2414 12.3647 18.2579 12.2963 18.2579C9.80458 18.2558 7.31297 18.2559 4.82127 18.2578C4.75462 18.2578 4.73648 18.2444 4.73658 18.1748C4.73865 15.6902 4.73855 13.2055 4.73678 10.721C4.73678 10.6528 4.74861 10.6313 4.82304 10.6314C5.99865 10.6334 7.17432 10.6334 8.35 10.6334L9.38704 10.6334L9.47847 10.6334H9.4789H9.47981C10.1767 10.6336 10.8734 10.6338 11.5702 10.6361C11.6268 10.6363 11.6466 10.6243 11.6453 10.5638C11.6413 10.3684 11.6403 10.1728 11.6457 9.97737C11.6476 9.90717 11.6266 9.89386 11.5599 9.89396C9.0682 9.89573 6.57659 9.89573 4.08489 9.89396C4.01873 9.89386 3.9999 9.90668 4 9.97658C4.00207 12.9557 4.00207 15.9349 4.0003 18.914C4.0003 18.9774 4.01489 18.9937 4.07937 18.9936C5.35789 18.9919 6.63649 18.9919 7.91498 18.992H7.91917L8.55858 18.992L9.25846 18.992C10.5183 18.9919 11.7781 18.9918 13.038 18.9937C13.1047 18.9938 13.1165 18.9742 13.1164 18.9125C13.115 17.3772 13.115 15.8419 13.1151 14.3066L13.1151 13.4299L13.115 12.9929C13.1148 12.4745 13.1147 11.956 13.1165 11.4376C13.1167 11.378 13.0999 11.3639 13.0421 11.3649ZM16.9582 12.8331H16.9582C17.2906 12.8333 17.6229 12.8334 17.9552 12.8317C18.008 12.8314 18.0213 12.8442 18.0211 12.8974C18.0193 13.7588 18.0192 14.6203 18.0212 15.4817C18.0213 15.5349 18.0083 15.547 17.9558 15.5469C17.0943 15.545 16.2327 15.5451 15.3714 15.5467C15.3183 15.5468 15.3012 15.5365 15.3013 15.4791C15.3034 14.6199 15.3033 13.7608 15.3016 12.9017C15.3015 12.8469 15.3146 12.8313 15.3708 12.8316C15.6989 12.8335 16.0269 12.8333 16.3549 12.8331H16.3552L16.6559 12.833L16.9582 12.8331ZM20.9596 11.743L20.9596 11.4136C20.9595 10.9301 20.9594 10.4466 20.9608 9.96307C20.9609 9.91614 20.9531 9.89977 20.9009 9.89987C19.7143 9.90155 18.5276 9.90145 17.341 9.90007C17.2943 9.90007 17.2833 9.91299 17.2834 9.95844C17.2849 10.653 17.285 11.3475 17.2831 12.0421C17.2829 12.0951 17.3015 12.1017 17.3473 12.1011C17.5497 12.0988 17.7523 12.0976 17.9546 12.1017C18.013 12.1029 18.0221 12.0836 18.0219 12.0312C18.0209 11.8135 18.0209 11.5958 18.0208 11.3781V11.3766V11.3752C18.0207 11.1513 18.0206 10.9273 18.0196 10.7034C18.0194 10.6532 18.028 10.6364 18.0834 10.6365C18.7756 10.6387 19.4678 10.6386 20.16 10.6366C20.2137 10.6365 20.2252 10.6506 20.2251 10.7027C20.2231 11.3902 20.2229 12.0778 20.2253 12.7652C20.2255 12.823 20.2077 12.8331 20.155 12.8328C19.948 12.8319 19.741 12.8318 19.5341 12.8317H19.5335C19.2957 12.8317 19.0578 12.8316 18.82 12.8302C18.7636 12.8299 18.7505 12.8457 18.7515 12.8999C18.7547 13.1024 18.7547 13.3049 18.7514 13.5074C18.7506 13.5581 18.7652 13.5685 18.8137 13.5683C19.5083 13.5667 20.2029 13.5664 20.8975 13.5687C20.9535 13.5689 20.9609 13.5513 20.9608 13.5018C20.9594 13.0328 20.9594 12.5638 20.9595 12.0948L20.9596 11.743Z" fill="#333333"/>
</svg>
