<svg width="16" height="16" viewBox="0 0 16 16" fill="none" xmlns="http://www.w3.org/2000/svg">
<path d="M6.5 5.75C6.5 5.33579 6.16421 5 5.75 5C5.33579 5 5 5.33579 5 5.75V12.25C5 12.6642 5.33579 13 5.75 13C6.16421 13 6.5 12.6642 6.5 12.25V5.75Z" fill="black"/>
<path d="M11 5.75C11 5.33579 10.6642 5 10.25 5C9.83579 5 9.5 5.33579 9.5 5.75V12.25C9.5 12.6642 9.83579 13 10.25 13C10.6642 13 11 12.6642 11 12.25V5.75Z" fill="black"/>
<path fill-rule="evenodd" clip-rule="evenodd" d="M14 3.5H14.25C14.6642 3.5 15 3.16421 15 2.75C15 2.33579 14.6642 2 14.25 2H11C11 0.89543 10.1046 0 9 0H7C5.89543 0 5 0.89543 5 2H1.75C1.33579 2 1 2.33579 1 2.75C1 3.16421 1.33579 3.5 1.75 3.5H2V12.75C2 14.5449 3.45507 16 5.25 16H10.75C12.5449 16 14 14.5449 14 12.75V3.5ZM6.5 2H9.5C9.5 1.72386 9.27614 1.5 9 1.5H7C6.72386 1.5 6.5 1.72386 6.5 2ZM3.5 3.5V12.75C3.5 13.7165 4.2835 14.5 5.25 14.5H10.75C11.7165 14.5 12.5 13.7165 12.5 12.75V3.5H3.5Z" fill="black"/>
</svg>
