<svg width="24" height="24" fill="none" xmlns="http://www.w3.org/2000/svg">
  <g clip-path="url(#Amazon_svg__a)">
    <path fill="#000" d="M24 12c0 6.627-5.373 12-12 12S0 18.627 0 12 5.373 0 12 0s12 5.373 12 12Z"/>
    <path fill="#fff" fill-opacity=".12" fill-rule="evenodd" d="M24 12c0 6.627-5.373 12-12 12S0 18.627 0 12 5.373 0 12 0s12 5.373 12 12ZM12 23.5c6.351 0 11.5-5.149 11.5-11.5S18.351.5 12 .5.5 5.649.5 12 5.649 23.5 12 23.5Z" clip-rule="evenodd"/>
    <path fill="#fff" fill-rule="evenodd" d="M7.283 13.075c0-3.51 4.173-3.998 5.852-4.057h-.018c0-.143.002-.282.004-.417.016-1.147.028-1.973-1.228-1.973 0 0-1.311 0-1.872 1.713l-2.517-.235c0-1.704 1.615-3.606 4.647-3.606 3.031 0 3.878 1.971 3.878 2.841v5.066c0 .967 1.113 1.842 1.113 1.842l-1.96 1.934a15.5 15.5 0 0 1-1.564-1.616c-1.56 2.445-6.335 2.293-6.335-1.492Zm2.945-.465c0 1.754 2.907 2.168 2.907-.595v-1.404c-1.164.037-2.907.368-2.907 1.998Z" clip-rule="evenodd"/>
    <path fill="#F90" d="M17.842 17.666c-.263.345-2.416 2.303-6.023 2.303-3.607 0-6.4-2.46-7.227-3.496-.235-.262.037-.386.188-.285 2.53 1.538 6.483 4.07 12.882 1.045.235-.11.437.088.18.433Z"/>
    <path fill="#F90" d="M19.221 17.74c-.16.408-.41.775-.731 1.073-.189.152-.327.092-.226-.134.102-.225.668-1.607.437-1.902-.23-.294-1.274-.147-1.656-.11-.382.037-.46.069-.483 0-.101-.194.732-.544 1.28-.613.547-.069 1.412-.027 1.586.198.175.226 0 .921-.225 1.488h.018Z"/>
  </g>
  <defs>
    <clipPath id="Amazon_svg__a">
      <path fill="#fff" d="M0 0h24v24H0z"/>
    </clipPath>
  </defs>
</svg>
