<svg width="24" height="24" fill="none" xmlns="http://www.w3.org/2000/svg">
  <g clip-path="url(#Smaato_svg__a)">
    <path fill="#fff" d="M24 12c0 6.627-5.373 12-12 12S0 18.627 0 12 5.373 0 12 0s12 5.373 12 12Z"/>
    <path fill="#000" fill-opacity=".12" fill-rule="evenodd" d="M24 12c0 6.627-5.373 12-12 12S0 18.627 0 12 5.373 0 12 0s12 5.373 12 12ZM12 23.5c6.351 0 11.5-5.149 11.5-11.5S18.351.5 12 .5.5 5.649.5 12 5.649 23.5 12 23.5Z" clip-rule="evenodd"/>
    <path fill="#4CBBEB" d="M6.943 14.041c0 1.674 1.334 2.993 2.945 2.993 1.646 0 2.945-1.356 2.945-2.993 0-1.674-1.335-2.993-2.945-2.993-1.647-.037-2.945 1.32-2.945 2.993Zm-1.443 0c0-2.468 1.96-4.459 4.388-4.459s4.387 1.991 4.387 4.459c0 2.468-1.96 4.459-4.387 4.459-2.429 0-4.388-1.98-4.388-4.459Zm6.407-7-.373 1.295a5.926 5.926 0 0 1 3.811 3.482l1.239-.416c-.83-2.137-2.549-3.738-4.677-4.36Zm.313-1.185c2.5.733 4.556 2.651 5.482 5.119L19 10.559A9.823 9.823 0 0 0 12.629 4.5l-.409 1.356Z"/>
  </g>
  <defs>
    <clipPath id="Smaato_svg__a">
      <path fill="#fff" d="M0 0h24v24H0z"/>
    </clipPath>
  </defs>
</svg>
