<svg width="24" height="24" viewBox="0 0 24 24" fill="none" xmlns="http://www.w3.org/2000/svg">
<circle cx="12" cy="12" r="11" fill="#444444"/>
<path fill-rule="evenodd" clip-rule="evenodd" d="M24 12C24 18.6274 18.6274 24 12 24C5.37258 24 0 18.6274 0 12C0 5.37258 5.37258 0 12 0C18.6274 0 24 5.37258 24 12ZM13.114 10.0116C13.311 10.0179 13.5084 10.0152 13.7055 10.012C13.8475 10.0097 13.9159 10.0754 13.9159 10.2164L13.9157 11.5154C13.9156 12.1443 13.9156 12.7732 13.9152 13.4021C13.9151 13.5395 13.8545 13.6157 13.7062 13.6032C13.6459 13.5981 13.5843 13.5963 13.5244 13.6033C13.3361 13.6251 13.2727 13.5463 13.2746 13.3572C13.2804 12.7758 13.2794 12.1944 13.2785 11.613V11.6127C13.2782 11.3978 13.2778 11.1829 13.2778 10.968V10.7547L13.2311 10.7494C13.2059 10.8519 13.1804 10.9542 13.1548 11.0566L13.1548 11.0569L13.1548 11.0569L13.1548 11.057L13.1547 11.057L13.1547 11.057L13.1547 11.0571L13.1547 11.0571L13.1547 11.0571C13.0976 11.2862 13.0405 11.5153 12.9864 11.7451C12.9596 11.8591 12.9325 11.973 12.9054 12.087L12.9053 12.0874L12.9052 12.0877L12.9051 12.0881C12.8028 12.5183 12.7005 12.9486 12.6117 13.3817C12.5626 13.6214 12.4175 13.6119 12.271 13.6023C12.2222 13.5991 12.1731 13.5959 12.1275 13.6019C11.9515 13.6251 11.8962 13.5262 11.8609 13.3694C11.7078 12.6894 11.5484 12.0109 11.389 11.3324L11.2698 10.8248C11.2598 10.7822 11.241 10.7416 11.2 10.7019V12.0914C11.2 12.2143 11.1996 12.3373 11.1991 12.4602C11.198 12.7621 11.1968 13.0639 11.2025 13.3656C11.2059 13.5437 11.1372 13.6183 10.9616 13.6033C10.8938 13.5976 10.825 13.5985 10.7569 13.6023C10.6133 13.6102 10.5514 13.5485 10.5517 13.4015C10.5543 12.3396 10.5542 11.2777 10.5512 10.2158C10.5508 10.067 10.6209 10.0101 10.759 10.013C10.7666 10.0132 10.7742 10.013 10.7818 10.0127L10.7853 10.0125C11.5619 9.97486 11.5681 9.97456 11.7563 10.7324C11.8696 11.1886 11.9756 11.6466 12.0852 12.1202L12.0853 12.1205C12.1341 12.3314 12.1836 12.5454 12.2348 12.7638C12.3187 12.5917 12.3526 12.4318 12.385 12.2793L12.385 12.2793L12.3851 12.2792C12.3954 12.2306 12.4055 12.1827 12.4171 12.1354C12.5736 11.4962 12.7231 10.855 12.8662 10.2126C12.8988 10.0661 12.9672 10.007 13.114 10.0116ZM17.8504 10.8533C17.8424 10.9964 17.8801 11.0709 18.0383 11.0464C18.2368 11.0156 18.3014 11.1056 18.3034 11.3032C18.3054 11.5054 18.2162 11.5613 18.0415 11.5383C17.8891 11.5182 17.8441 11.5818 17.8494 11.7297C17.8563 11.9281 17.8548 12.1267 17.8534 12.3253V12.3254L17.8534 12.3262C17.8528 12.408 17.8522 12.4899 17.8521 12.5718C17.8521 12.6541 17.8514 12.7365 17.8507 12.8189L17.8507 12.8196V12.8197C17.849 13.0102 17.8474 13.2007 17.8544 13.3909C17.8624 13.6085 17.7336 13.6059 17.6005 13.6033C17.5824 13.6029 17.5641 13.6025 17.5462 13.6027C17.5336 13.6029 17.5211 13.6031 17.5086 13.6034L17.5084 13.6034C17.3684 13.6067 17.2386 13.6098 17.2429 13.3861C17.2482 13.1032 17.2474 12.8202 17.2466 12.5372V12.5369C17.2458 12.2814 17.2451 12.0258 17.2489 11.7703C17.2514 11.6049 17.2244 11.5089 17.0294 11.537C16.839 11.5645 16.8057 11.4496 16.8064 11.2864C16.8072 11.1159 16.8595 11.0194 17.043 11.0474C17.2274 11.0756 17.2598 10.9833 17.2486 10.8252C17.2383 10.6802 17.2419 10.534 17.2455 10.3882V10.3881L17.247 10.3247C17.2512 10.1316 17.3753 10.1362 17.4959 10.1406H17.4959C17.5187 10.1414 17.5414 10.1423 17.5631 10.1418L17.5903 10.141C17.7192 10.1369 17.8526 10.1328 17.8523 10.33C17.8523 10.3852 17.853 10.4405 17.8537 10.4958L17.8537 10.496V10.496V10.496V10.496V10.4961C17.8554 10.6153 17.857 10.7346 17.8504 10.8533ZM7.29529 11.3796C7.29507 11.0538 7.28536 11.0446 6.96765 11.046C6.68952 11.0473 6.66775 11.0676 6.66688 11.3404C6.66643 11.4815 6.66661 11.6226 6.66679 11.7637C6.66702 11.9486 6.66725 12.1336 6.66606 12.3185C6.66552 12.4091 6.66242 12.501 6.64684 12.5899C6.58937 12.9175 6.35837 13.0848 6.00682 13.0599C5.7234 13.0399 5.6284 12.9101 5.6264 12.5297C5.62426 12.1203 5.62243 11.7108 5.62753 11.3013C5.62977 11.1217 5.5656 11.0271 5.37408 11.046C5.31947 11.0514 5.26387 11.0494 5.20864 11.0473L5.19223 11.0467C5.06197 11.0421 4.99334 11.0983 4.99416 11.234C4.99516 11.4106 4.99477 11.5872 4.99439 11.7638M7.29529 11.3796L7.29546 11.573ZM7.29546 11.573C7.29599 12.153 7.29651 12.7331 7.29438 13.3132ZM7.29438 13.3132C7.29433 13.3302 7.29507 13.3477 7.29582 13.3653ZM7.29582 13.3653C7.30015 13.4668 7.30462 13.5716 7.15625 13.6044ZM7.15625 13.6044C6.89497 13.662 6.72431 13.6022 6.63833 13.3921ZM6.63833 13.3921C6.32695 13.7219 5.94306 13.6689 5.57976 13.6176ZM5.57976 13.6176C5.24351 13.5702 5.01821 13.2749 5.00541 12.8943ZM5.00541 12.8943C4.99273 12.5178 4.99356 12.1409 4.99439 11.764ZM21.3449 12.8376C21.4615 12.6575 21.5933 12.6247 21.7776 12.6356C21.9847 12.6478 22.0272 12.7 21.9729 12.9047C21.8593 13.3337 21.4639 13.6387 21.0181 13.6415C20.9887 13.6417 20.9592 13.6416 20.9298 13.6416L20.8816 13.6416C20.1289 13.6424 19.6684 13.2371 19.5825 12.4978C19.4976 11.7684 19.8926 11.1738 20.5646 11.0192C21.1718 10.8795 21.7394 11.1431 21.9406 11.6643C21.9454 11.6768 21.9507 11.6897 21.9561 11.7027L21.9561 11.7027L21.9561 11.7027C21.9965 11.8004 22.0408 11.9076 21.9304 11.995C21.8397 12.0669 21.4921 12.0099 21.4244 11.9248C21.4067 11.9026 21.39 11.8795 21.3732 11.8565C21.3409 11.8121 21.3086 11.7677 21.2701 11.7296C21.0265 11.4885 20.6829 11.4918 20.438 11.7327C20.1701 11.9961 20.1546 12.6103 20.4088 12.8892C20.6825 13.1896 21.1229 13.1804 21.3449 12.8376ZM18.9574 11.0429L18.9423 11.0432C18.7684 11.0464 18.6275 11.0489 18.6311 11.2961C18.641 11.9859 18.6408 12.6761 18.6318 13.3659C18.6286 13.6028 18.7629 13.6033 18.9116 13.6038C18.9301 13.6038 18.9488 13.6039 18.9675 13.6044C19.1375 13.6091 19.2665 13.5937 19.2589 13.3682C19.2509 13.1291 19.2527 12.8897 19.2545 12.6502C19.2552 12.5484 19.256 12.4466 19.256 12.3447H19.2572C19.2572 12.2411 19.2566 12.1374 19.2559 12.0337C19.2544 11.7886 19.2528 11.5434 19.2599 11.2985C19.2665 11.0708 19.1438 11.0393 18.9574 11.0429ZM18.6234 10.3391C18.6123 10.1585 18.7578 10.0029 18.9406 10.0002C19.1195 9.99764 19.2554 10.1293 19.26 10.3097C19.265 10.5046 19.1309 10.6518 18.9479 10.6522C18.7774 10.6526 18.6342 10.5144 18.6234 10.3391ZM3.9538 11.4436C3.90161 11.6603 3.733 11.788 3.51125 11.8064C3.37037 11.8181 3.2286 11.8186 3.08677 11.8192H3.08676H3.08676C2.99426 11.8195 2.90174 11.8198 2.80943 11.8233C2.70035 11.8273 2.68728 11.7696 2.68933 11.6823C2.69196 11.5708 2.69143 11.4591 2.6909 11.3475V11.3475V11.3475V11.3474C2.69068 11.3004 2.69045 11.2534 2.69047 11.2064C2.69048 11.2015 2.69032 11.1966 2.69016 11.1917C2.68983 11.1814 2.68949 11.1711 2.69079 11.161C2.69917 11.0947 2.69199 11.0246 2.68486 10.9551C2.67173 10.8269 2.65874 10.7001 2.74343 10.6001C2.83848 10.488 3.6952 10.6105 3.81275 10.7243C4.02394 10.9287 4.01474 11.1905 3.9538 11.4436ZM3.48875 10.0082C3.30458 10.0039 3.12025 10.0051 2.93592 10.0064C2.71848 10.0079 2.50105 10.0094 2.2839 10.0018C2.0575 9.99386 1.99588 10.0874 2.00021 10.2981C2.00761 10.6545 2.00617 11.0109 2.00474 11.3674C2.00416 11.5112 2.00358 11.6549 2.00358 11.7986L2.00358 12.3443L2.00353 13.1628L2.00353 13.1635C2.00347 13.3932 2.00343 13.5073 2.06045 13.5629C2.11671 13.6177 2.22854 13.6155 2.45073 13.6112L2.46894 13.6108C2.64069 13.6075 2.69479 13.5357 2.69111 13.376C2.68851 13.2641 2.68969 13.152 2.69086 13.04C2.69239 12.8942 2.69392 12.7485 2.68714 12.6031C2.67995 12.4484 2.71952 12.3926 2.88444 12.3975L2.97545 12.4004C3.25525 12.4094 3.53652 12.4184 3.81394 12.3638C4.127 12.3021 4.3779 12.1378 4.53557 11.861C5.03049 10.9922 4.48689 10.0313 3.48875 10.0082ZM8.89644 13.0969C9.11988 13.0989 9.29144 13.004 9.39523 12.8027C9.47298 12.6521 9.4998 12.4881 9.5085 12.2781C9.50387 12.2559 9.49942 12.2301 9.49458 12.202L9.49457 12.202C9.48238 12.1313 9.46764 12.0458 9.44091 11.9643C9.35452 11.7012 9.15577 11.555 8.90468 11.5541C8.63848 11.5532 8.44852 11.6992 8.35702 11.9787C8.26616 12.2564 8.2775 12.5297 8.40361 12.7948C8.50176 13.0012 8.67341 13.095 8.89644 13.0969ZM8.32205 11.2274C8.89476 10.8915 9.3154 10.9029 9.72342 11.2493C10.3144 11.751 10.2932 12.9274 9.70552 13.4347C9.41495 13.6854 8.65155 13.7496 8.36281 13.422C8.26953 13.5836 7.9337 13.6775 7.77133 13.5881C7.70101 13.5494 7.69004 13.4854 7.69008 13.4138L7.69016 13.1222C7.69042 12.1503 7.69069 11.1784 7.68945 10.2064C7.68926 10.0754 7.7466 10.0076 7.87831 10.0061C7.90937 10.0057 7.94044 10.0059 7.9715 10.0061C8.01628 10.0064 8.06106 10.0067 8.1058 10.0053C8.25924 10.0003 8.32505 10.0731 8.32323 10.226C8.32047 10.4556 8.32101 10.6852 8.32157 10.9231V10.9232V10.9236C8.32181 11.0232 8.32205 11.1243 8.32205 11.2274ZM15.9669 12.5769C16.0396 13.0747 15.3545 13.2819 15.067 13.1074C14.9561 13.04 14.9101 12.9437 14.9107 12.8265C14.9111 12.7161 14.9562 12.621 15.0686 12.5729C15.3244 12.4635 15.5988 12.4193 15.8684 12.3758L15.8801 12.3739C15.9895 12.3562 15.9771 12.4232 15.9653 12.4874C15.9587 12.523 15.9523 12.5578 15.9669 12.5769ZM16.5759 12.5778C16.576 12.4995 16.5763 12.4211 16.5766 12.3427C16.5773 12.1556 16.578 11.9685 16.5754 11.7815C16.5697 11.386 16.3613 11.1275 15.9723 11.0391C15.6575 10.9675 15.3389 10.9625 15.0266 11.0466C14.7433 11.1228 14.5137 11.277 14.4208 11.5745L14.4193 11.5791C14.3868 11.6833 14.3382 11.8384 14.4923 11.8531C14.5293 11.8566 14.5691 11.8661 14.6101 11.8757L14.6101 11.8758C14.7449 11.9077 14.8911 11.9423 14.9809 11.7767C15.1439 11.4758 15.5162 11.3578 15.8184 11.5312C15.9218 11.5906 15.9673 11.688 15.9607 11.7977C15.9553 11.8877 15.8837 11.8974 15.8166 11.9065C15.7993 11.9089 15.7823 11.9112 15.7668 11.9148C15.6559 11.9408 15.5441 11.9639 15.4323 11.9869C15.2178 12.0311 15.0033 12.0753 14.7955 12.1407C14.4382 12.2531 14.2448 12.5565 14.2602 12.8985C14.2757 13.2458 14.4887 13.548 14.8192 13.6147C15.1477 13.6811 15.482 13.6783 15.7877 13.4925C15.7977 13.4865 15.8093 13.4778 15.8217 13.4686C15.8701 13.4325 15.9309 13.3872 15.9535 13.4514C16.0158 13.6278 16.1333 13.6152 16.2491 13.6028C16.2931 13.5981 16.3368 13.5934 16.3771 13.5991C16.5181 13.6189 16.5811 13.5434 16.5776 13.3968C16.573 13.2019 16.574 13.0068 16.5751 12.8117V12.8115C16.5755 12.7336 16.5759 12.6557 16.5759 12.5778Z" fill="#DFDFDF"/>
</svg>
