<svg width="24" height="24" fill="none" xmlns="http://www.w3.org/2000/svg">
  <g clip-path="url(#Sonobi_svg__a)">
    <path fill="#0677BB" d="M24 12c0 6.627-5.373 12-12 12S0 18.627 0 12 5.373 0 12 0s12 5.373 12 12Z"/>
    <path fill="#fff" fill-opacity=".12" fill-rule="evenodd" d="M24 12c0 6.627-5.373 12-12 12S0 18.627 0 12 5.373 0 12 0s12 5.373 12 12ZM12 23.5c6.351 0 11.5-5.149 11.5-11.5S18.351.5 12 .5.5 5.649.5 12 5.649 23.5 12 23.5Z" clip-rule="evenodd"/>
    <path fill="#fff" d="M17.098 13.82c-.575-.319-.828-.823-.839-1.444-.016-.947-.003-1.894-.003-2.841 0-.008.003-.016.007-.035h.707v1.532c.404-.229.823-.315 1.263-.227.45.09.778.359 1.002.75.344.6.22 1.462-.274 1.977-.452.47-1.24.594-1.863.287Zm-.066-1.786c-.006.019-.014.038-.019.057-.1.36-.027.68.256.93a.836.836 0 0 0 .944.15c.34-.149.52-.422.532-.792a.882.882 0 0 0-.672-.875c-.432-.101-.835.1-1.04.53Zm-4.265.815a1.627 1.627 0 0 1 1.504-2.179c.855-.025 1.563.622 1.655 1.51.083.794-.522 1.572-1.33 1.71-.796.138-1.51-.266-1.829-1.041Zm.834-1.227a.958.958 0 0 0-.254.865c.1.525.631.87 1.162.753a.97.97 0 0 0 .738-1.17.977.977 0 0 0-1.646-.448Zm-5.284-.604c.762.611.822 1.701.182 2.388-.48.514-1.261.66-1.898.353-.63-.304-1.011-.997-.91-1.662.112-.746.65-1.304 1.368-1.407.46-.066.88.04 1.258.328Zm-.961.312a.965.965 0 0 0-1.02.924c-.025.523.394.985.9 1.008.555.025 1.004-.364 1.043-.902.039-.527-.363-.987-.923-1.03Zm4.696.018c.201.278.308.58.31.915.002.545 0 1.09 0 1.644h-.64v-.14c0-.474.014-.948-.003-1.42-.022-.634-.538-1.017-1.097-.893-.354.08-.66.476-.662.868v1.586h-.657v-.124c.002-.498.006-.995.007-1.493a1.503 1.503 0 0 1 1.034-1.449 1.538 1.538 0 0 1 1.708.506Zm-8.276 1.036c-.097-.058-.189-.109-.276-.165-.47-.305-.427-.96-.035-1.27.374-.296 1.093-.35 1.496-.093.121.077.217.196.341.312l-.509.35c-.205-.27-.428-.36-.689-.278-.125.04-.22.114-.245.255-.023.135.045.23.15.29.13.077.271.137.41.201.2.093.408.17.6.278.57.321.501 1.184-.04 1.465-.487.252-.992.255-1.491.036-.225-.099-.376-.284-.488-.52l.555-.303c.054.088.095.177.156.248.18.208.6.269.84.13.218-.128.248-.396.05-.55-.094-.073-.207-.123-.317-.172-.164-.075-.333-.14-.508-.214Zm15.959 1.336v-2.882h.704v3.077h-.704v-.196Zm.762-3.648c.016.183-.03.333-.19.419a.42.42 0 0 1-.468-.028c-.157-.114-.181-.28-.145-.454.036-.177.196-.287.396-.286.213.001.354.12.407.349Z"/>
  </g>
  <defs>
    <clipPath id="Sonobi_svg__a">
      <path fill="#fff" d="M0 0h24v24H0z"/>
    </clipPath>
  </defs>
</svg>
