<svg width="24" height="24" viewBox="0 0 24 24" fill="none" xmlns="http://www.w3.org/2000/svg">
<circle cx="12" cy="12" r="12" fill="#333333"/>
<path d="M13.7362 18C16.0402 18 17.2282 16.56 17.2282 14.742C17.2282 13.248 16.2202 12.006 14.9242 11.808C16.0582 11.574 16.9942 10.548 16.9942 9.054C16.9942 7.452 15.8242 5.994 13.5382 5.994H7.22023V18H13.7362ZM12.9802 10.764H9.77623V8.244H12.9802C13.8442 8.244 14.3842 8.766 14.3842 9.504C14.3842 10.278 13.8442 10.764 12.9802 10.764ZM13.0882 15.75H9.77623V13.014H13.0882C14.0782 13.014 14.6182 13.626 14.6182 14.382C14.6182 15.246 14.0422 15.75 13.0882 15.75Z" fill="white"/>
</svg>
