<svg width="24" height="24" fill="none" xmlns="http://www.w3.org/2000/svg">
  <g clip-path="url(#Google_svg__a)">
    <path fill="#fff" d="M24 12c0 6.627-5.373 12-12 12S0 18.627 0 12 5.373 0 12 0s12 5.373 12 12Z"/>
    <path fill="#000" fill-opacity=".12" fill-rule="evenodd" d="M24 12c0 6.627-5.373 12-12 12S0 18.627 0 12 5.373 0 12 0s12 5.373 12 12ZM12 23.5c6.351 0 11.5-5.149 11.5-11.5S18.351.5 12 .5.5 5.649.5 12 5.649 23.5 12 23.5Z" clip-rule="evenodd"/>
    <g clip-path="url(#Google_svg__b)">
      <path fill="#4285F4" d="M19.991 12.15c0-.656-.054-1.134-.172-1.63h-7.66v2.958h4.496c-.09.736-.58 1.843-1.668 2.587l-.015.1 2.422 1.832.168.017c1.541-1.39 2.43-3.437 2.43-5.864"/>
      <path fill="#34A853" d="M12.16 19.945c2.202 0 4.052-.709 5.402-1.931l-2.574-1.949c-.69.47-1.614.797-2.829.797a4.901 4.901 0 0 1-4.64-3.313l-.097.008-2.518 1.905-.033.09c1.342 2.604 4.098 4.393 7.288 4.393Z"/>
      <path fill="#FBBC05" d="M7.518 13.55a4.807 4.807 0 0 1-.272-1.577c0-.55.1-1.081.263-1.577l-.004-.106-2.55-1.935-.084.039a7.832 7.832 0 0 0-.87 3.579c0 1.284.317 2.498.87 3.578l2.647-2.002"/>
      <path fill="#EB4335" d="M12.16 7.083c1.531 0 2.565.646 3.154 1.187l2.302-2.197C16.202 4.788 14.362 4 12.16 4 8.97 4 6.213 5.79 4.871 8.394l2.638 2.002a4.922 4.922 0 0 1 4.65-3.313"/>
    </g>
  </g>
  <defs>
    <clipPath id="Google_svg__a">
      <path fill="#fff" d="M0 0h24v24H0z"/>
    </clipPath>
    <clipPath id="Google_svg__b">
      <path fill="#fff" d="M4 4h16v16H4z"/>
    </clipPath>
  </defs>
</svg>
