<svg width="24" height="24" viewBox="0 0 24 24" fill="none" xmlns="http://www.w3.org/2000/svg">
<path d="M7.00662 13.4264C7.79455 13.4264 8.43329 12.7877 8.43329 11.9998C8.43329 11.2119 7.79455 10.5732 7.00662 10.5732C6.2187 10.5732 5.57996 11.2119 5.57996 11.9998C5.57996 12.7877 6.2187 13.4264 7.00662 13.4264Z" fill="black" fill-opacity="0.84"/>
<path d="M12 13.4264C12.7879 13.4264 13.4266 12.7877 13.4266 11.9998C13.4266 11.2119 12.7879 10.5732 12 10.5732C11.212 10.5732 10.5733 11.2119 10.5733 11.9998C10.5733 12.7877 11.212 13.4264 12 13.4264Z" fill="black" fill-opacity="0.84"/>
<path d="M18.42 11.9998C18.42 12.7877 17.7812 13.4264 16.9933 13.4264C16.2054 13.4264 15.5667 12.7877 15.5667 11.9998C15.5667 11.2119 16.2054 10.5732 16.9933 10.5732C17.7812 10.5732 18.42 11.2119 18.42 11.9998Z" fill="black" fill-opacity="0.84"/>
<path fill-rule="evenodd" clip-rule="evenodd" d="M12 2C6.47715 2 2 6.47715 2 12C2 17.5228 6.47715 22 12 22C17.5228 22 22 17.5228 22 12C22 6.47715 17.5228 2 12 2ZM4 12C4 7.58172 7.58172 4 12 4C16.4183 4 20 7.58172 20 12C20 16.4183 16.4183 20 12 20C7.58172 20 4 16.4183 4 12Z" fill="black" fill-opacity="0.84"/>
</svg>
