<svg fill="none" viewBox="0 0 32 32" xmlns="http://www.w3.org/2000/svg">
  <g fill-rule="evenodd" clip-path="url(#AI-Chat-Color-32_svg__a)" clip-rule="evenodd">
    <path fill="#876ECB" d="M5.285 31.998c.177.028.367.023.566-.02 5.157-1.137 13.575-3.142 17.542-4.917C28.472 24.825 32 19.894 32 14.17 32 6.507 25.678.266 17.778.008V0h-3.556v.304C7.55 1.654 2.54 7.349 2.54 14.17c0 4.524 2.205 8.554 5.637 11.148l-3.732 4.25c-.081.093-.149.19-.203.29H3.048v2.14h2.237Z"/>
    <path fill="#C7B9EE" d="M4.405 24.269c.634.599.742 1.6.167 2.255l-2.666 3.034c-.946 1.078.004 2.72 1.404 2.41 5.155-1.135 13.567-3.138 17.536-4.912 5.083-2.234 8.614-7.165 8.614-12.89C29.46 6.342 22.865 0 14.73 0 6.595 0 0 6.342 0 14.166c0 3.955 1.686 7.533 4.405 10.103"/>
    <path fill="#fff" d="M10.16 14.5c0 1.38-1.138 2.5-2.54 2.5-1.403 0-2.54-1.12-2.54-2.5S6.217 12 7.62 12c1.402 0 2.54 1.12 2.54 2.5m7.11 0c0 1.38-1.136 2.5-2.54 2.5-1.402 0-2.539-1.12-2.539-2.5s1.137-2.5 2.54-2.5 2.54 1.12 2.54 2.5Zm4.572 2.5c1.403 0 2.54-1.12 2.54-2.5s-1.137-2.5-2.54-2.5-2.54 1.12-2.54 2.5 1.137 2.5 2.54 2.5"/>
  </g>
  <defs>
    <clipPath id="AI-Chat-Color-32_svg__a">
      <path fill="#fff" d="M0 0h32v32H0z"/>
    </clipPath>
  </defs>
</svg>
