<svg width="24" height="24" fill="none" xmlns="http://www.w3.org/2000/svg">
  <g clip-path="url(#ID5_svg__a)">
    <path fill="#fff" d="M24 12c0 6.627-5.373 12-12 12S0 18.627 0 12 5.373 0 12 0s12 5.373 12 12Z"/>
    <path fill="#000" fill-opacity=".12" fill-rule="evenodd" d="M12 23.5c6.351 0 11.5-5.149 11.5-11.5S18.351.5 12 .5.5 5.649.5 12 5.649 23.5 12 23.5Zm0 .5c6.627 0 12-5.373 12-12S18.627 0 12 0 0 5.373 0 12s5.373 12 12 12Z" clip-rule="evenodd"/>
    <path fill="#F39700" d="M12.03 12.327a.318.318 0 1 0 0-.636.318.318 0 0 0 0 .636Z"/>
    <path fill="#DFECF5" d="M13.683 10.776a.476.476 0 1 0 0-.952.476.476 0 0 0 0 .952Zm.762 1.711a.476.476 0 1 0 0-.952.476.476 0 0 0 0 .952Zm-.762 1.718a.477.477 0 1 0 .001-.954.477.477 0 0 0-.001.954Zm-1.653.698a.477.477 0 1 0-.183-.034c.058.024.12.037.183.037v-.003Zm-1.692-.673a.475.475 0 1 0-.337-.137c.09.09.21.14.337.14v-.003Zm-.714-1.743a.476.476 0 1 0 0-.952.476.476 0 0 0 0 .952Zm.709-1.711a.476.476 0 1 0 0-.953.476.476 0 0 0 0 .953Zm1.697-.673a.476.476 0 1 0-.001-.951.476.476 0 0 0 0 .95Z"/>
    <path fill="#A3BDE0" d="M15.396 9.308a.655.655 0 1 0 .002-1.31.655.655 0 0 0-.002 1.31Zm1.473 3.355a.655.655 0 1 0 0-1.31.655.655 0 0 0 0 1.31Zm-1.473 3.449a.656.656 0 1 0 0-1.313.656.656 0 0 0 0 1.313Zm-6.793-.018a.655.655 0 1 0 0-1.31.655.655 0 0 0 0 1.31Zm3.427 1.376a.655.655 0 1 0 0-1.31.655.655 0 0 0 0 1.31Zm-4.815-4.807a.655.655 0 1 0 0-1.31.655.655 0 0 0 0 1.31Zm1.398-3.355a.655.655 0 1 0 0-1.31.655.655 0 0 0 0 1.31Zm3.417-1.389a.655.655 0 1 0 0-1.31.655.655 0 0 0 0 1.31Z"/>
    <path fill="#2A2E6E" d="M17.116 7.72a.818.818 0 1 0 0-1.637.818.818 0 0 0 0 1.637Zm2.066 5.111a.819.819 0 1 0 0-1.637.819.819 0 0 0 0 1.637ZM17.1 17.985a.82.82 0 1 0 .001-1.64.82.82 0 0 0-.001 1.64Zm-10.216-.029a.818.818 0 1 0 0-1.635.818.818 0 0 0 0 1.635Zm5.146 2.091a.819.819 0 1 0-.002-1.638.819.819 0 0 0 .002 1.638Zm-7.212-7.216a.818.818 0 1 0 0-1.636.818.818 0 0 0 0 1.636ZM6.884 7.72a.818.818 0 1 0 0-1.637.818.818 0 0 0 0 1.637Zm5.132-2.083a.818.818 0 1 0 0-1.637.818.818 0 0 0 0 1.637Z"/>
  </g>
  <defs>
    <clipPath id="ID5_svg__a">
      <path fill="#fff" d="M0 0h24v24H0z"/>
    </clipPath>
  </defs>
</svg>
