<svg width="24" height="24" fill="none" xmlns="http://www.w3.org/2000/svg">
  <g clip-path="url(#SpotX_svg__a)">
    <path fill="#fff" d="M24 12c0 6.627-5.373 12-12 12S0 18.627 0 12 5.373 0 12 0s12 5.373 12 12Z"/>
    <path fill="#000" fill-opacity=".12" fill-rule="evenodd" d="M24 12c0 6.627-5.373 12-12 12S0 18.627 0 12 5.373 0 12 0s12 5.373 12 12ZM12 23.5c6.351 0 11.5-5.149 11.5-11.5S18.351.5 12 .5.5 5.649.5 12 5.649 23.5 12 23.5Z" clip-rule="evenodd"/>
    <path fill="#000" d="M13.779 12.005h-3.533L5.52 18.5h3.363l3.103-4.088 1.803-2.395-.01-.012Z"/>
    <path fill="#000" d="M8.883 5.5h-3.36l5.976 8.25L13.784 12l-4.9-6.5Zm3.672 9.482L15.19 18.5h3.298l-4.192-5.833-1.742 2.315ZM18.49 5.5h-3.3l-2.646 3.533 1.74 2.317L18.49 5.5Z"/>
  </g>
  <defs>
    <clipPath id="SpotX_svg__a">
      <path fill="#fff" d="M0 0h24v24H0z"/>
    </clipPath>
  </defs>
</svg>
