<?xml version="1.0" encoding="UTF-8"?>
<!--Generator: CustomSymbols by @serious_bret-->
<!DOCTYPE svg
PUBLIC "-//W3C//DTD SVG 1.1//EN"
       "http://www.w3.org/Graphics/SVG/1.1/DTD/svg11.dtd">
<svg version="1.1" xmlns="http://www.w3.org/2000/svg" xmlns:xlink="http://www.w3.org/1999/xlink" width="3300" height="2200">
 <g id="Notes">
  <rect height="2200" id="artboard" style="fill:white;opacity:1" width="3300" x="0" y="0"/>
  <line id="" style="fill:none;stroke:black;opacity:1;stroke-width:0.5;" x1="263" x2="3036" y1="292" y2="292"/>
  <text id="reftext1" style="stroke:none;fill:black;font-family:-apple-system,&quot;SF Pro Display&quot;,&quot;SF Pro Text&quot;,Helvetica,sans-serif;font-weight:bold;" transform="matrix(1 0 0 1 263 322)">Weight/Scale Variations</text>
  <text id="reftext2" style="stroke:none;fill:black;font-family:-apple-system,&quot;SF Pro Display&quot;,&quot;SF Pro Text&quot;,Helvetica,sans-serif;text-anchor:middle;" transform="matrix(1 0 0 1 559.711 322)">Ultralight</text>
  <text style="stroke:none;fill:black;font-family:-apple-system,&quot;SF Pro Display&quot;,&quot;SF Pro Text&quot;,Helvetica,sans-serif;text-anchor:middle;" transform="matrix(1 0 0 1 856.422 322)">Thin</text>
  <text style="stroke:none;fill:black;font-family:-apple-system,&quot;SF Pro Display&quot;,&quot;SF Pro Text&quot;,Helvetica,sans-serif;text-anchor:middle;" transform="matrix(1 0 0 1 1153.13 322)">Light</text>
  <text style="stroke:none;fill:black;font-family:-apple-system,&quot;SF Pro Display&quot;,&quot;SF Pro Text&quot;,Helvetica,sans-serif;text-anchor:middle;" transform="matrix(1 0 0 1 1449.84 322)">Regular</text>
  <text style="stroke:none;fill:black;font-family:-apple-system,&quot;SF Pro Display&quot;,&quot;SF Pro Text&quot;,Helvetica,sans-serif;text-anchor:middle;" transform="matrix(1 0 0 1 1746.56 322)">Medium</text>
  <text style="stroke:none;fill:black;font-family:-apple-system,&quot;SF Pro Display&quot;,&quot;SF Pro Text&quot;,Helvetica,sans-serif;text-anchor:middle;" transform="matrix(1 0 0 1 2043.27 322)">Semibold</text>
  <text style="stroke:none;fill:black;font-family:-apple-system,&quot;SF Pro Display&quot;,&quot;SF Pro Text&quot;,Helvetica,sans-serif;text-anchor:middle;" transform="matrix(1 0 0 1 2339.98 322)">Bold</text>
  <text style="stroke:none;fill:black;font-family:-apple-system,&quot;SF Pro Display&quot;,&quot;SF Pro Text&quot;,Helvetica,sans-serif;text-anchor:middle;" transform="matrix(1 0 0 1 2636.69 322)">Heavy</text>
  <text style="stroke:none;fill:black;font-family:-apple-system,&quot;SF Pro Display&quot;,&quot;SF Pro Text&quot;,Helvetica,sans-serif;text-anchor:middle;" transform="matrix(1 0 0 1 2933.4 322)">Black</text>
  <line id="" style="fill:none;stroke:black;opacity:1;stroke-width:0.5;" x1="263" x2="3036" y1="1903" y2="1903"/>
  <g id="" transform="matrix(1 0 0 1 263 1933)">
   <path d="M9.24805 0.830078C13.5547 0.830078 17.1387-2.74414 17.1387-7.05078C17.1387-11.3574 13.5449-14.9316 9.23828-14.9316C4.94141-14.9316 1.36719-11.3574 1.36719-7.05078C1.36719-2.74414 4.95117 0.830078 9.24805 0.830078ZM9.24805-0.654297C5.70312-0.654297 2.87109-3.49609 2.87109-7.05078C2.87109-10.6055 5.69336-13.4473 9.23828-13.4473C12.793-13.4473 15.6348-10.6055 15.6445-7.05078C15.6543-3.49609 12.8027-0.654297 9.24805-0.654297ZM6.39648-6.31836L8.50586-6.31836L8.50586-4.19922C8.50586-3.75977 8.79883-3.45703 9.22852-3.45703C9.67773-3.45703 9.9707-3.75977 9.9707-4.19922L9.9707-6.31836L12.0996-6.31836C12.5391-6.31836 12.8418-6.61133 12.8418-7.04102C12.8418-7.48047 12.5391-7.7832 12.0996-7.7832L9.9707-7.7832L9.9707-9.89258C9.9707-10.3418 9.67773-10.6445 9.22852-10.6445C8.79883-10.6445 8.50586-10.3418 8.50586-9.89258L8.50586-7.7832L6.39648-7.7832C5.94727-7.7832 5.64453-7.48047 5.64453-7.04102C5.64453-6.61133 5.94727-6.31836 6.39648-6.31836Z"/>
  </g>
  <g id="" transform="matrix(1 0 0 1 281.506 1933)">
   <path d="M11.709 2.91016C17.1582 2.91016 21.6699-1.61133 21.6699-7.05078C21.6699-12.5 17.1484-17.0117 11.6992-17.0117C6.25977-17.0117 1.74805-12.5 1.74805-7.05078C1.74805-1.61133 6.26953 2.91016 11.709 2.91016ZM11.709 1.25C7.09961 1.25 3.41797-2.44141 3.41797-7.05078C3.41797-11.6602 7.08984-15.3516 11.6992-15.3516C16.3086-15.3516 20-11.6602 20.0098-7.05078C20.0195-2.44141 16.3184 1.25 11.709 1.25ZM7.98828-6.23047L10.8789-6.23047L10.8789-3.32031C10.8789-2.83203 11.2109-2.5 11.6895-2.5C12.1777-2.5 12.5195-2.83203 12.5195-3.32031L12.5195-6.23047L15.4297-6.23047C15.918-6.23047 16.25-6.5625 16.25-7.04102C16.25-7.5293 15.918-7.87109 15.4297-7.87109L12.5195-7.87109L12.5195-10.7617C12.5195-11.2695 12.1777-11.6016 11.6895-11.6016C11.2109-11.6016 10.8789-11.2598 10.8789-10.7617L10.8789-7.87109L7.98828-7.87109C7.48047-7.87109 7.14844-7.5293 7.14844-7.04102C7.14844-6.5625 7.49023-6.23047 7.98828-6.23047Z"/>
  </g>
  <g id="" transform="matrix(1 0 0 1 304.924 1933)">
   <path d="M14.9707 5.66406C21.9336 5.66406 27.6953-0.0976562 27.6953-7.05078C27.6953-14.0137 21.9238-19.7754 14.9609-19.7754C8.00781-19.7754 2.25586-14.0137 2.25586-7.05078C2.25586-0.0976562 8.01758 5.66406 14.9707 5.66406ZM14.9707 3.84766C8.93555 3.84766 4.08203-1.01562 4.08203-7.05078C4.08203-13.0957 8.92578-17.9492 14.9609-17.9492C21.0059-17.9492 25.8594-13.0957 25.8691-7.05078C25.8789-1.01562 21.0156 3.84766 14.9707 3.84766ZM10.0586-6.14258L14.0625-6.14258L14.0625-2.12891C14.0625-1.5918 14.4336-1.2207 14.9512-1.2207C15.4883-1.2207 15.8594-1.5918 15.8594-2.12891L15.8594-6.14258L19.8828-6.14258C20.4102-6.14258 20.791-6.51367 20.791-7.03125C20.791-7.56836 20.4199-7.94922 19.8828-7.94922L15.8594-7.94922L15.8594-11.9531C15.8594-12.5098 15.4883-12.8809 14.9512-12.8809C14.4336-12.8809 14.0625-12.5 14.0625-11.9531L14.0625-7.94922L10.0586-7.94922C9.50195-7.94922 9.13086-7.56836 9.13086-7.03125C9.13086-6.51367 9.51172-6.14258 10.0586-6.14258Z"/>
  </g>
  <text style="stroke:none;fill:black;font-family:-apple-system,&quot;SF Pro Display&quot;,&quot;SF Pro Text&quot;,Helvetica,sans-serif;font-weight:bold;" transform="matrix(1 0 0 1 263 1953)">Design Variations</text>
  <text style="stroke:none;fill:black;font-family:-apple-system,&quot;SF Pro Display&quot;,&quot;SF Pro Text&quot;,Helvetica,sans-serif;" transform="matrix(1 0 0 1 263 1971)">Symbols are supported in up to nine weights and three scales.</text>
  <text style="stroke:none;fill:black;font-family:-apple-system,&quot;SF Pro Display&quot;,&quot;SF Pro Text&quot;,Helvetica,sans-serif;" transform="matrix(1 0 0 1 263 1989)">For optimal layout with text and other symbols, vertically align</text>
  <text style="stroke:none;fill:black;font-family:-apple-system,&quot;SF Pro Display&quot;,&quot;SF Pro Text&quot;,Helvetica,sans-serif;" transform="matrix(1 0 0 1 263 2007)">symbols with the adjacent text.</text>
  <line id="" style="fill:none;stroke:#00AEEF;stroke-width:0.5;opacity:1.0;" x1="776" x2="776" y1="1919" y2="1933"/>
  <g id="" transform="matrix(1 0 0 1 776 1933)">
   <path d="M3.31055 0.126953C3.82812 0.126953 4.08203-0.0683594 4.26758-0.605469L5.52734-4.0625L11.2891-4.0625L12.5488-0.605469C12.7344-0.0683594 12.9883 0.126953 13.4961 0.126953C14.0137 0.126953 14.3457-0.185547 14.3457-0.673828C14.3457-0.839844 14.3164-0.986328 14.2383-1.20117L9.6582-13.3887C9.43359-13.9941 9.0332-14.2871 8.4082-14.2871C7.80273-14.2871 7.39258-13.9941 7.17773-13.3984L2.59766-1.19141C2.51953-0.976562 2.49023-0.830078 2.49023-0.664062C2.49023-0.175781 2.80273 0.126953 3.31055 0.126953ZM6.00586-5.53711L8.37891-12.1094L8.42773-12.1094L10.8008-5.53711Z"/>
  </g>
  <line id="" style="fill:none;stroke:#00AEEF;stroke-width:0.5;opacity:1.0;" x1="792.836" x2="792.836" y1="1919" y2="1933"/>
  <text style="stroke:none;fill:black;font-family:-apple-system,&quot;SF Pro Display&quot;,&quot;SF Pro Text&quot;,Helvetica,sans-serif;font-weight:bold;" transform="matrix(1 0 0 1 776 1953)">Margins</text>
  <text style="stroke:none;fill:black;font-family:-apple-system,&quot;SF Pro Display&quot;,&quot;SF Pro Text&quot;,Helvetica,sans-serif;" transform="matrix(1 0 0 1 776 1971)">Leading and trailing margins on the left and right side of each symbol</text>
  <text style="stroke:none;fill:black;font-family:-apple-system,&quot;SF Pro Display&quot;,&quot;SF Pro Text&quot;,Helvetica,sans-serif;" transform="matrix(1 0 0 1 776 1989)">can be adjusted by modifying the x-location of the margin guidelines.</text>
  <text style="stroke:none;fill:black;font-family:-apple-system,&quot;SF Pro Display&quot;,&quot;SF Pro Text&quot;,Helvetica,sans-serif;" transform="matrix(1 0 0 1 776 2007)">Modifications are automatically applied proportionally to all</text>
  <text style="stroke:none;fill:black;font-family:-apple-system,&quot;SF Pro Display&quot;,&quot;SF Pro Text&quot;,Helvetica,sans-serif;" transform="matrix(1 0 0 1 776 2025)">scales and weights.</text>
  <g id="" transform="matrix(1 0 0 1 1289 1933)">
   <path d="M2.8418 1.86523L4.54102 3.57422C5.40039 4.44336 6.38672 4.38477 7.31445 3.35938L17.4902-7.85156C17.7539-7.76367 18.0273-7.7832 18.3398-7.8418L19.4043-8.03711L20.0684-7.36328L20.0293-6.80664C19.9902-6.30859 20.1172-5.92773 20.6055-5.44922L21.3672-4.70703C21.8457-4.22852 22.4609-4.19922 22.9297-4.66797L25.8398-7.58789C26.3086-8.05664 26.2891-8.65234 25.8105-9.13086L25.0391-9.89258C24.5605-10.3711 24.1895-10.5273 23.7109-10.4883L23.1348-10.4395L22.4902-11.0742L22.7344-12.1973C22.8613-12.7637 22.7051-13.2031 22.1191-13.7891L19.9219-15.9766C16.582-19.2969 12.1484-19.2188 9.25781-16.3281C8.83789-15.918 8.80859-15.3418 9.04297-14.9512C9.27734-14.5898 9.73633-14.3555 10.3809-14.5215C11.8457-14.8633 13.3691-14.9219 14.7949-13.9844L14.209-12.5293C14.0137-12.0508 13.9844-11.6504 14.1113-11.2891L3.04688-0.898438C2.06055 0.0195312 1.98242 0.996094 2.8418 1.86523ZM10.752-15.957C13.1836-17.7344 16.4746-17.4316 18.7012-15.2051L21.1328-12.793C21.3672-12.5586 21.4062-12.373 21.3379-12.0312L21.0156-10.5469L22.5195-9.0625L23.5059-9.12109C23.7598-9.13086 23.8379-9.11133 24.0332-8.91602L24.6094-8.33984L22.168-5.89844L21.5918-6.47461C21.3965-6.66992 21.3672-6.74805 21.377-7.01172L21.4453-7.98828L19.9512-9.47266L18.4277-9.21875C18.1055-9.15039 17.959-9.17969 17.7148-9.41406L15.7129-11.416C15.459-11.6504 15.4297-11.8164 15.5859-12.1875L16.4648-14.2773C14.9023-15.7324 12.8711-16.3574 10.8398-15.7617C10.6836-15.7227 10.625-15.8496 10.752-15.957ZM5.27344 2.30469L4.10156 1.14258C3.63281 0.683594 3.74023 0.341797 4.14062-0.0195312L14.9512-10.1953L16.416-8.71094L6.42578 2.27539C6.07422 2.67578 5.74219 2.77344 5.27344 2.30469Z"/>
  </g>
  <text style="stroke:none;fill:black;font-family:-apple-system,&quot;SF Pro Display&quot;,&quot;SF Pro Text&quot;,Helvetica,sans-serif;font-weight:bold;" transform="matrix(1 0 0 1 1289 1953)">Exporting</text>
  <text style="stroke:none;fill:black;font-family:-apple-system,&quot;SF Pro Display&quot;,&quot;SF Pro Text&quot;,Helvetica,sans-serif;" transform="matrix(1 0 0 1 1289 1971)">Symbols should be outlined when exporting to ensure the</text>
  <text style="stroke:none;fill:black;font-family:-apple-system,&quot;SF Pro Display&quot;,&quot;SF Pro Text&quot;,Helvetica,sans-serif;" transform="matrix(1 0 0 1 1289 1989)">design is preserved when submitting to Xcode.</text>
  <text id="template-version" style="stroke:none;fill:black;font-family:-apple-system,&quot;SF Pro Display&quot;,&quot;SF Pro Text&quot;,Helvetica,sans-serif;text-anchor:end;" transform="matrix(1 0 0 1 3036 1933)">Template v.2.0</text>
  <text style="stroke:none;fill:black;font-family:-apple-system,&quot;SF Pro Display&quot;,&quot;SF Pro Text&quot;,Helvetica,sans-serif;text-anchor:end;" transform="matrix(1 0 0 1 3036 1951)">Requires Xcode 12 or greater</text>
  <text style="stroke:none;fill:black;font-family:-apple-system,&quot;SF Pro Display&quot;,&quot;SF Pro Text&quot;,Helvetica,sans-serif;" transform="matrix(1 0 0 1 263 726)">Small</text>
  <text style="stroke:none;fill:black;font-family:-apple-system,&quot;SF Pro Display&quot;,&quot;SF Pro Text&quot;,Helvetica,sans-serif;" transform="matrix(1 0 0 1 263 1156)">Medium</text>
  <text style="stroke:none;fill:black;font-family:-apple-system,&quot;SF Pro Display&quot;,&quot;SF Pro Text&quot;,Helvetica,sans-serif;" transform="matrix(1 0 0 1 263 1586)">Large</text>
 </g>
 <g id="Guides">
  <g id="H-reference" style="fill:#27AAE1;stroke:none;" transform="matrix(1 0 0 1 339 696)">
   <path d="M0.976562 0L3.66211 0L12.9883-24.4629L45.752-24.4629L55.127 0L57.7637 0L30.6152-70.459L28.125-70.459ZM29.3457-67.1387L29.4434-67.1387L44.873-26.709L13.8672-26.709Z"/>
  </g>
  <line id="Baseline-S" style="fill:none;stroke:#27AAE1;opacity:1;stroke-width:0.5;" x1="263" x2="3036" y1="696" y2="696"/>
  <line id="Capline-S" style="fill:none;stroke:#27AAE1;opacity:1;stroke-width:0.5;" x1="263" x2="3036" y1="625.541" y2="625.541"/>
  <g id="H-reference" style="fill:#27AAE1;stroke:none;" transform="matrix(1 0 0 1 339 1126)">
   <path d="M0.976562 0L3.66211 0L12.9883-24.4629L45.752-24.4629L55.127 0L57.7637 0L30.6152-70.459L28.125-70.459ZM29.3457-67.1387L29.4434-67.1387L44.873-26.709L13.8672-26.709Z"/>
  </g>
  <line id="Baseline-M" style="fill:none;stroke:#27AAE1;opacity:1;stroke-width:0.5;" x1="263" x2="3036" y1="1126" y2="1126"/>
  <line id="Capline-M" style="fill:none;stroke:#27AAE1;opacity:1;stroke-width:0.5;" x1="263" x2="3036" y1="1055.54" y2="1055.54"/>
  <g id="H-reference" style="fill:#27AAE1;stroke:none;" transform="matrix(1 0 0 1 339 1556)">
   <path d="M0.976562 0L3.66211 0L12.9883-24.4629L45.752-24.4629L55.127 0L57.7637 0L30.6152-70.459L28.125-70.459ZM29.3457-67.1387L29.4434-67.1387L44.873-26.709L13.8672-26.709Z"/>
  </g>
  <line id="Baseline-L" style="fill:none;stroke:#27AAE1;opacity:1;stroke-width:0.5;" x1="263" x2="3036" y1="1556" y2="1556"/>
  <line id="Capline-L" style="fill:none;stroke:#27AAE1;opacity:1;stroke-width:0.5;" x1="263" x2="3036" y1="1485.54" y2="1485.54"/>
  <line id="left-margin" x1="1352.0497986629898" x2="1352.0497986629898" y1="1030.79" y2="1150.12" style="fill:none;stroke:#00AEEF;stroke-width:0.5;opacity:1.0;"/>
  <line id="right-margin" x1="1550.21020133701" x2="1550.21020133701" y1="1030.79" y2="1150.12" style="fill:none;stroke:#00AEEF;stroke-width:0.5;opacity:1.0;"/>
 </g>
 <g id="Symbols">
  <g id="Black-L" transform="matrix(1.0,0.0,0.0,1.0,2802.9135466755224,1444.260465988005)">  <path stroke-width="1px" stroke-dasharray="none" fill-rule="evenodd" fill-opacity="1" clip-rule="evenodd" fill="#000000" stroke-opacity="1" stroke="none" stroke-linecap="butt" stroke-linejoin="miter" stroke-miterlimit="4" d="M80.76,0C38.505,0,4.251,34.255,4.251,76.51C4.251,118.765,38.505,153.019,80.76,153.019L182.773,153.019C225.028,153.019,259.282,118.765,259.282,76.51C259.282,34.255,225.028,0,182.773,0L80.76,0ZM124.965,40.805C124.965,37.049,128.01,34.004,131.766,34.004C135.522,34.004,138.566,37.049,138.566,40.805L138.566,69.709L167.471,69.709C171.227,69.709,174.272,72.754,174.272,76.51C174.272,80.266,171.227,83.31,167.471,83.31L138.566,83.31L138.566,112.214C138.566,115.97,135.522,119.015,131.766,119.015C128.01,119.015,124.965,115.97,124.965,112.214L124.965,83.31L96.062,83.31C92.306,83.31,89.261,80.266,89.261,76.51C89.261,72.754,92.306,69.709,96.062,69.709L124.965,69.709L124.965,40.805ZM124.965,40.805"/>
</g>
  <g id="Heavy-L" transform="matrix(1.0,0.0,0.0,1.0,2506.2035466755224,1444.260465988005)">  <path stroke="none" fill-rule="evenodd" stroke-linecap="butt" stroke-width="1px" stroke-linejoin="miter" fill="#000000" stroke-miterlimit="4" stroke-opacity="1" stroke-dasharray="none" fill-opacity="1" clip-rule="evenodd" d="M80.76,0C38.505,0,4.251,34.255,4.251,76.51C4.251,118.765,38.505,153.019,80.76,153.019L182.773,153.019C225.028,153.019,259.282,118.765,259.282,76.51C259.282,34.255,225.028,0,182.773,0L80.76,0ZM124.965,40.805C124.965,37.049,128.01,34.004,131.766,34.004C135.522,34.004,138.566,37.049,138.566,40.805L138.566,69.709L167.471,69.709C171.227,69.709,174.272,72.754,174.272,76.51C174.272,80.266,171.227,83.31,167.471,83.31L138.566,83.31L138.566,112.214C138.566,115.97,135.522,119.015,131.766,119.015C128.01,119.015,124.965,115.97,124.965,112.214L124.965,83.31L96.062,83.31C92.306,83.31,89.261,80.266,89.261,76.51C89.261,72.754,92.306,69.709,96.062,69.709L124.965,69.709L124.965,40.805ZM124.965,40.805"/>
</g>
  <g id="Bold-L" transform="matrix(1.0,0.0,0.0,1.0,2209.4935466755223,1444.260465988005)">  <path stroke-dasharray="none" clip-rule="evenodd" fill-rule="evenodd" stroke-width="1px" stroke="none" fill-opacity="1" stroke-miterlimit="4" stroke-opacity="1" stroke-linejoin="miter" fill="#000000" stroke-linecap="butt" d="M80.76,0C38.505,0,4.251,34.255,4.251,76.51C4.251,118.765,38.505,153.019,80.76,153.019L182.773,153.019C225.028,153.019,259.282,118.765,259.282,76.51C259.282,34.255,225.028,0,182.773,0L80.76,0ZM124.965,40.805C124.965,37.049,128.01,34.004,131.766,34.004C135.522,34.004,138.566,37.049,138.566,40.805L138.566,69.709L167.471,69.709C171.227,69.709,174.272,72.754,174.272,76.51C174.272,80.266,171.227,83.31,167.471,83.31L138.566,83.31L138.566,112.214C138.566,115.97,135.522,119.015,131.766,119.015C128.01,119.015,124.965,115.97,124.965,112.214L124.965,83.31L96.062,83.31C92.306,83.31,89.261,80.266,89.261,76.51C89.261,72.754,92.306,69.709,96.062,69.709L124.965,69.709L124.965,40.805ZM124.965,40.805"/>
</g>
  <g id="Semibold-L" transform="matrix(1.0,0.0,0.0,1.0,1912.7835466755225,1444.260465988005)">  <path clip-rule="evenodd" stroke-miterlimit="4" stroke-opacity="1" stroke-linecap="butt" stroke="none" fill-rule="evenodd" fill="#000000" fill-opacity="1" stroke-width="1px" stroke-linejoin="miter" stroke-dasharray="none" d="M80.76,0C38.505,0,4.251,34.255,4.251,76.51C4.251,118.765,38.505,153.019,80.76,153.019L182.773,153.019C225.028,153.019,259.282,118.765,259.282,76.51C259.282,34.255,225.028,0,182.773,0L80.76,0ZM124.965,40.805C124.965,37.049,128.01,34.004,131.766,34.004C135.522,34.004,138.566,37.049,138.566,40.805L138.566,69.709L167.471,69.709C171.227,69.709,174.272,72.754,174.272,76.51C174.272,80.266,171.227,83.31,167.471,83.31L138.566,83.31L138.566,112.214C138.566,115.97,135.522,119.015,131.766,119.015C128.01,119.015,124.965,115.97,124.965,112.214L124.965,83.31L96.062,83.31C92.306,83.31,89.261,80.266,89.261,76.51C89.261,72.754,92.306,69.709,96.062,69.709L124.965,69.709L124.965,40.805ZM124.965,40.805"/>
</g>
  <g id="Medium-L" transform="matrix(1.0,0.0,0.0,1.0,1616.0735466755225,1444.260465988005)">  <path stroke-width="1px" clip-rule="evenodd" fill-opacity="1" stroke-linejoin="miter" fill="#000000" stroke-dasharray="none" stroke-miterlimit="4" stroke="none" stroke-opacity="1" fill-rule="evenodd" stroke-linecap="butt" d="M80.76,0C38.505,0,4.251,34.255,4.251,76.51C4.251,118.765,38.505,153.019,80.76,153.019L182.773,153.019C225.028,153.019,259.282,118.765,259.282,76.51C259.282,34.255,225.028,0,182.773,0L80.76,0ZM124.965,40.805C124.965,37.049,128.01,34.004,131.766,34.004C135.522,34.004,138.566,37.049,138.566,40.805L138.566,69.709L167.471,69.709C171.227,69.709,174.272,72.754,174.272,76.51C174.272,80.266,171.227,83.31,167.471,83.31L138.566,83.31L138.566,112.214C138.566,115.97,135.522,119.015,131.766,119.015C128.01,119.015,124.965,115.97,124.965,112.214L124.965,83.31L96.062,83.31C92.306,83.31,89.261,80.266,89.261,76.51C89.261,72.754,92.306,69.709,96.062,69.709L124.965,69.709L124.965,40.805ZM124.965,40.805"/>
</g>
  <g id="Regular-L" transform="matrix(1.0,0.0,0.0,1.0,1319.3635466755225,1444.260465988005)">  <path clip-rule="evenodd" stroke="none" stroke-miterlimit="4" stroke-linecap="butt" stroke-opacity="1" fill-rule="evenodd" fill="#000000" stroke-dasharray="none" stroke-linejoin="miter" fill-opacity="1" stroke-width="1px" d="M80.76,0C38.505,0,4.251,34.255,4.251,76.51C4.251,118.765,38.505,153.019,80.76,153.019L182.773,153.019C225.028,153.019,259.282,118.765,259.282,76.51C259.282,34.255,225.028,0,182.773,0L80.76,0ZM124.965,40.805C124.965,37.049,128.01,34.004,131.766,34.004C135.522,34.004,138.566,37.049,138.566,40.805L138.566,69.709L167.471,69.709C171.227,69.709,174.272,72.754,174.272,76.51C174.272,80.266,171.227,83.31,167.471,83.31L138.566,83.31L138.566,112.214C138.566,115.97,135.522,119.015,131.766,119.015C128.01,119.015,124.965,115.97,124.965,112.214L124.965,83.31L96.062,83.31C92.306,83.31,89.261,80.266,89.261,76.51C89.261,72.754,92.306,69.709,96.062,69.709L124.965,69.709L124.965,40.805ZM124.965,40.805"/>
</g>
  <g id="Light-L" transform="matrix(1.0,0.0,0.0,1.0,1022.6535466755226,1444.260465988005)">  <path stroke-width="1px" clip-rule="evenodd" fill="#000000" fill-rule="evenodd" stroke-miterlimit="4" stroke="none" stroke-linecap="butt" fill-opacity="1" stroke-opacity="1" stroke-linejoin="miter" stroke-dasharray="none" d="M80.76,0C38.505,0,4.251,34.255,4.251,76.51C4.251,118.765,38.505,153.019,80.76,153.019L182.773,153.019C225.028,153.019,259.282,118.765,259.282,76.51C259.282,34.255,225.028,0,182.773,0L80.76,0ZM124.965,40.805C124.965,37.049,128.01,34.004,131.766,34.004C135.522,34.004,138.566,37.049,138.566,40.805L138.566,69.709L167.471,69.709C171.227,69.709,174.272,72.754,174.272,76.51C174.272,80.266,171.227,83.31,167.471,83.31L138.566,83.31L138.566,112.214C138.566,115.97,135.522,119.015,131.766,119.015C128.01,119.015,124.965,115.97,124.965,112.214L124.965,83.31L96.062,83.31C92.306,83.31,89.261,80.266,89.261,76.51C89.261,72.754,92.306,69.709,96.062,69.709L124.965,69.709L124.965,40.805ZM124.965,40.805"/>
</g>
  <g id="Thin-L" transform="matrix(1.0,0.0,0.0,1.0,725.9435466755226,1444.260465988005)">  <path stroke-opacity="1" clip-rule="evenodd" stroke="none" stroke-width="1px" stroke-miterlimit="4" fill-rule="evenodd" fill="#000000" stroke-linecap="butt" fill-opacity="1" stroke-dasharray="none" stroke-linejoin="miter" d="M80.76,0C38.505,0,4.251,34.255,4.251,76.51C4.251,118.765,38.505,153.019,80.76,153.019L182.773,153.019C225.028,153.019,259.282,118.765,259.282,76.51C259.282,34.255,225.028,0,182.773,0L80.76,0ZM124.965,40.805C124.965,37.049,128.01,34.004,131.766,34.004C135.522,34.004,138.566,37.049,138.566,40.805L138.566,69.709L167.471,69.709C171.227,69.709,174.272,72.754,174.272,76.51C174.272,80.266,171.227,83.31,167.471,83.31L138.566,83.31L138.566,112.214C138.566,115.97,135.522,119.015,131.766,119.015C128.01,119.015,124.965,115.97,124.965,112.214L124.965,83.31L96.062,83.31C92.306,83.31,89.261,80.266,89.261,76.51C89.261,72.754,92.306,69.709,96.062,69.709L124.965,69.709L124.965,40.805ZM124.965,40.805"/>
</g>
  <g id="Ultralight-L" transform="matrix(1.0,0.0,0.0,1.0,429.2335466755226,1444.260465988005)">  <path stroke-linejoin="miter" stroke-linecap="butt" stroke-dasharray="none" fill-opacity="1" stroke-miterlimit="4" fill-rule="evenodd" clip-rule="evenodd" stroke-width="1px" stroke-opacity="1" fill="#000000" stroke="none" d="M80.76,0C38.505,0,4.251,34.255,4.251,76.51C4.251,118.765,38.505,153.019,80.76,153.019L182.773,153.019C225.028,153.019,259.282,118.765,259.282,76.51C259.282,34.255,225.028,0,182.773,0L80.76,0ZM124.965,40.805C124.965,37.049,128.01,34.004,131.766,34.004C135.522,34.004,138.566,37.049,138.566,40.805L138.566,69.709L167.471,69.709C171.227,69.709,174.272,72.754,174.272,76.51C174.272,80.266,171.227,83.31,167.471,83.31L138.566,83.31L138.566,112.214C138.566,115.97,135.522,119.015,131.766,119.015C128.01,119.015,124.965,115.97,124.965,112.214L124.965,83.31L96.062,83.31C92.306,83.31,89.261,80.266,89.261,76.51C89.261,72.754,92.306,69.709,96.062,69.709L124.965,69.709L124.965,40.805ZM124.965,40.805"/>
</g>
  <g id="Black-M" transform="matrix(1.0,0.0,0.0,1.0,2832.5354625391647,1031.460288102378)">  <path stroke-width="1px" stroke-dasharray="none" fill-rule="evenodd" fill-opacity="1" clip-rule="evenodd" fill="#000000" stroke-opacity="1" stroke="none" stroke-linecap="butt" stroke-linejoin="miter" stroke-miterlimit="4" d="M62.605,0C29.849,0,3.295,26.554,3.295,59.31C3.295,92.066,29.849,118.619,62.605,118.619L141.684,118.619C174.44,118.619,200.994,92.066,200.994,59.31C200.994,26.554,174.44,0,141.684,0L62.605,0ZM96.872,31.632C96.872,28.72,99.232,26.36,102.144,26.36C105.056,26.36,107.416,28.72,107.416,31.632L107.416,54.038L129.822,54.038C132.734,54.038,135.094,56.398,135.094,59.31C135.094,62.221,132.734,64.582,129.822,64.582L107.416,64.582L107.416,86.988C107.416,89.899,105.056,92.26,102.144,92.26C99.232,92.26,96.872,89.899,96.872,86.988L96.872,64.582L74.467,64.582C71.555,64.582,69.195,62.221,69.195,59.31C69.195,56.398,71.555,54.038,74.467,54.038L96.872,54.038L96.872,31.632ZM96.872,31.632"/>
</g>
  <g id="Heavy-M" transform="matrix(1.0,0.0,0.0,1.0,2535.8254625391646,1031.460288102378)">  <path stroke="none" fill-rule="evenodd" stroke-linecap="butt" stroke-width="1px" stroke-linejoin="miter" fill="#000000" stroke-miterlimit="4" stroke-opacity="1" stroke-dasharray="none" fill-opacity="1" clip-rule="evenodd" d="M62.605,0C29.849,0,3.295,26.554,3.295,59.31C3.295,92.066,29.849,118.619,62.605,118.619L141.684,118.619C174.44,118.619,200.994,92.066,200.994,59.31C200.994,26.554,174.44,0,141.684,0L62.605,0ZM96.872,31.632C96.872,28.72,99.232,26.36,102.144,26.36C105.056,26.36,107.416,28.72,107.416,31.632L107.416,54.038L129.822,54.038C132.734,54.038,135.094,56.398,135.094,59.31C135.094,62.221,132.734,64.582,129.822,64.582L107.416,64.582L107.416,86.988C107.416,89.899,105.056,92.26,102.144,92.26C99.232,92.26,96.872,89.899,96.872,86.988L96.872,64.582L74.467,64.582C71.555,64.582,69.195,62.221,69.195,59.31C69.195,56.398,71.555,54.038,74.467,54.038L96.872,54.038L96.872,31.632ZM96.872,31.632"/>
</g>
  <g id="Bold-M" transform="matrix(1.0,0.0,0.0,1.0,2239.1154625391646,1031.460288102378)">  <path stroke-dasharray="none" clip-rule="evenodd" fill-rule="evenodd" stroke-width="1px" stroke="none" fill-opacity="1" stroke-miterlimit="4" stroke-opacity="1" stroke-linejoin="miter" fill="#000000" stroke-linecap="butt" d="M62.605,0C29.849,0,3.295,26.554,3.295,59.31C3.295,92.066,29.849,118.619,62.605,118.619L141.684,118.619C174.44,118.619,200.994,92.066,200.994,59.31C200.994,26.554,174.44,0,141.684,0L62.605,0ZM96.872,31.632C96.872,28.72,99.232,26.36,102.144,26.36C105.056,26.36,107.416,28.72,107.416,31.632L107.416,54.038L129.822,54.038C132.734,54.038,135.094,56.398,135.094,59.31C135.094,62.221,132.734,64.582,129.822,64.582L107.416,64.582L107.416,86.988C107.416,89.899,105.056,92.26,102.144,92.26C99.232,92.26,96.872,89.899,96.872,86.988L96.872,64.582L74.467,64.582C71.555,64.582,69.195,62.221,69.195,59.31C69.195,56.398,71.555,54.038,74.467,54.038L96.872,54.038L96.872,31.632ZM96.872,31.632"/>
</g>
  <g id="Semibold-M" transform="matrix(1.0,0.0,0.0,1.0,1942.4054625391648,1031.460288102378)">  <path clip-rule="evenodd" stroke-miterlimit="4" stroke-opacity="1" stroke-linecap="butt" stroke="none" fill-rule="evenodd" fill="#000000" fill-opacity="1" stroke-width="1px" stroke-linejoin="miter" stroke-dasharray="none" d="M62.605,0C29.849,0,3.295,26.554,3.295,59.31C3.295,92.066,29.849,118.619,62.605,118.619L141.684,118.619C174.44,118.619,200.994,92.066,200.994,59.31C200.994,26.554,174.44,0,141.684,0L62.605,0ZM96.872,31.632C96.872,28.72,99.232,26.36,102.144,26.36C105.056,26.36,107.416,28.72,107.416,31.632L107.416,54.038L129.822,54.038C132.734,54.038,135.094,56.398,135.094,59.31C135.094,62.221,132.734,64.582,129.822,64.582L107.416,64.582L107.416,86.988C107.416,89.899,105.056,92.26,102.144,92.26C99.232,92.26,96.872,89.899,96.872,86.988L96.872,64.582L74.467,64.582C71.555,64.582,69.195,62.221,69.195,59.31C69.195,56.398,71.555,54.038,74.467,54.038L96.872,54.038L96.872,31.632ZM96.872,31.632"/>
</g>
  <g id="Medium-M" transform="matrix(1.0,0.0,0.0,1.0,1645.6954625391647,1031.460288102378)">  <path stroke-width="1px" clip-rule="evenodd" fill-opacity="1" stroke-linejoin="miter" fill="#000000" stroke-dasharray="none" stroke-miterlimit="4" stroke="none" stroke-opacity="1" fill-rule="evenodd" stroke-linecap="butt" d="M62.605,0C29.849,0,3.295,26.554,3.295,59.31C3.295,92.066,29.849,118.619,62.605,118.619L141.684,118.619C174.44,118.619,200.994,92.066,200.994,59.31C200.994,26.554,174.44,0,141.684,0L62.605,0ZM96.872,31.632C96.872,28.72,99.232,26.36,102.144,26.36C105.056,26.36,107.416,28.72,107.416,31.632L107.416,54.038L129.822,54.038C132.734,54.038,135.094,56.398,135.094,59.31C135.094,62.221,132.734,64.582,129.822,64.582L107.416,64.582L107.416,86.988C107.416,89.899,105.056,92.26,102.144,92.26C99.232,92.26,96.872,89.899,96.872,86.988L96.872,64.582L74.467,64.582C71.555,64.582,69.195,62.221,69.195,59.31C69.195,56.398,71.555,54.038,74.467,54.038L96.872,54.038L96.872,31.632ZM96.872,31.632"/>
</g>
  <g id="Regular-M" transform="matrix(1.0,0.0,0.0,1.0,1348.9854625391647,1031.460288102378)">  <path clip-rule="evenodd" stroke="none" stroke-miterlimit="4" stroke-linecap="butt" stroke-opacity="1" fill-rule="evenodd" fill="#000000" stroke-dasharray="none" stroke-linejoin="miter" fill-opacity="1" stroke-width="1px" d="M62.605,0C29.849,0,3.295,26.554,3.295,59.31C3.295,92.066,29.849,118.619,62.605,118.619L141.684,118.619C174.44,118.619,200.994,92.066,200.994,59.31C200.994,26.554,174.44,0,141.684,0L62.605,0ZM96.872,31.632C96.872,28.72,99.232,26.36,102.144,26.36C105.056,26.36,107.416,28.72,107.416,31.632L107.416,54.038L129.822,54.038C132.734,54.038,135.094,56.398,135.094,59.31C135.094,62.221,132.734,64.582,129.822,64.582L107.416,64.582L107.416,86.988C107.416,89.899,105.056,92.26,102.144,92.26C99.232,92.26,96.872,89.899,96.872,86.988L96.872,64.582L74.467,64.582C71.555,64.582,69.195,62.221,69.195,59.31C69.195,56.398,71.555,54.038,74.467,54.038L96.872,54.038L96.872,31.632ZM96.872,31.632"/>
</g>
  <g id="Light-M" transform="matrix(1.0,0.0,0.0,1.0,1052.275462539165,1031.460288102378)">  <path stroke-width="1px" clip-rule="evenodd" fill="#000000" fill-rule="evenodd" stroke-miterlimit="4" stroke="none" stroke-linecap="butt" fill-opacity="1" stroke-opacity="1" stroke-linejoin="miter" stroke-dasharray="none" d="M62.605,0C29.849,0,3.295,26.554,3.295,59.31C3.295,92.066,29.849,118.619,62.605,118.619L141.684,118.619C174.44,118.619,200.994,92.066,200.994,59.31C200.994,26.554,174.44,0,141.684,0L62.605,0ZM96.872,31.632C96.872,28.72,99.232,26.36,102.144,26.36C105.056,26.36,107.416,28.72,107.416,31.632L107.416,54.038L129.822,54.038C132.734,54.038,135.094,56.398,135.094,59.31C135.094,62.221,132.734,64.582,129.822,64.582L107.416,64.582L107.416,86.988C107.416,89.899,105.056,92.26,102.144,92.26C99.232,92.26,96.872,89.899,96.872,86.988L96.872,64.582L74.467,64.582C71.555,64.582,69.195,62.221,69.195,59.31C69.195,56.398,71.555,54.038,74.467,54.038L96.872,54.038L96.872,31.632ZM96.872,31.632"/>
</g>
  <g id="Thin-M" transform="matrix(1.0,0.0,0.0,1.0,755.5654625391649,1031.460288102378)">  <path stroke-opacity="1" clip-rule="evenodd" stroke="none" stroke-width="1px" stroke-miterlimit="4" fill-rule="evenodd" fill="#000000" stroke-linecap="butt" fill-opacity="1" stroke-dasharray="none" stroke-linejoin="miter" d="M62.605,0C29.849,0,3.295,26.554,3.295,59.31C3.295,92.066,29.849,118.619,62.605,118.619L141.684,118.619C174.44,118.619,200.994,92.066,200.994,59.31C200.994,26.554,174.44,0,141.684,0L62.605,0ZM96.872,31.632C96.872,28.72,99.232,26.36,102.144,26.36C105.056,26.36,107.416,28.72,107.416,31.632L107.416,54.038L129.822,54.038C132.734,54.038,135.094,56.398,135.094,59.31C135.094,62.221,132.734,64.582,129.822,64.582L107.416,64.582L107.416,86.988C107.416,89.899,105.056,92.26,102.144,92.26C99.232,92.26,96.872,89.899,96.872,86.988L96.872,64.582L74.467,64.582C71.555,64.582,69.195,62.221,69.195,59.31C69.195,56.398,71.555,54.038,74.467,54.038L96.872,54.038L96.872,31.632ZM96.872,31.632"/>
</g>
  <g id="Ultralight-M" transform="matrix(1.0,0.0,0.0,1.0,458.8554625391648,1031.460288102378)">  <path stroke-linejoin="miter" stroke-linecap="butt" stroke-dasharray="none" fill-opacity="1" stroke-miterlimit="4" fill-rule="evenodd" clip-rule="evenodd" stroke-width="1px" stroke-opacity="1" fill="#000000" stroke="none" d="M62.605,0C29.849,0,3.295,26.554,3.295,59.31C3.295,92.066,29.849,118.619,62.605,118.619L141.684,118.619C174.44,118.619,200.994,92.066,200.994,59.31C200.994,26.554,174.44,0,141.684,0L62.605,0ZM96.872,31.632C96.872,28.72,99.232,26.36,102.144,26.36C105.056,26.36,107.416,28.72,107.416,31.632L107.416,54.038L129.822,54.038C132.734,54.038,135.094,56.398,135.094,59.31C135.094,62.221,132.734,64.582,129.822,64.582L107.416,64.582L107.416,86.988C107.416,89.899,105.056,92.26,102.144,92.26C99.232,92.26,96.872,89.899,96.872,86.988L96.872,64.582L74.467,64.582C71.555,64.582,69.195,62.221,69.195,59.31C69.195,56.398,71.555,54.038,74.467,54.038L96.872,54.038L96.872,31.632ZM96.872,31.632"/>
</g>
  <g id="Black-S" transform="matrix(1.0,0.0,0.0,1.0,2854.7008271681657,614.3304998224432)">  <path stroke-width="1px" stroke-dasharray="none" fill-rule="evenodd" fill-opacity="1" clip-rule="evenodd" fill="#000000" stroke-opacity="1" stroke="none" stroke-linecap="butt" stroke-linejoin="miter" stroke-miterlimit="4" d="M49.019,0C23.372,0,2.58,20.792,2.58,46.44C2.58,72.088,23.372,92.879,49.019,92.879L110.939,92.879C136.587,92.879,157.378,72.088,157.378,46.44C157.378,20.792,136.587,0,110.939,0L49.019,0ZM75.851,24.768C75.851,22.488,77.699,20.64,79.979,20.64C82.259,20.64,84.107,22.488,84.107,24.768L84.107,42.312L101.651,42.312C103.931,42.312,105.779,44.16,105.779,46.44C105.779,48.719,103.931,50.567,101.651,50.567L84.107,50.567L84.107,68.111C84.107,70.391,82.259,72.239,79.979,72.239C77.699,72.239,75.851,70.391,75.851,68.111L75.851,50.567L58.307,50.567C56.028,50.567,54.179,48.719,54.179,46.44C54.179,44.16,56.028,42.312,58.307,42.312L75.851,42.312L75.851,24.768ZM75.851,24.768"/>
</g>
  <g id="Heavy-S" transform="matrix(1.0,0.0,0.0,1.0,2557.9908271681657,614.3304998224432)">  <path stroke="none" fill-rule="evenodd" stroke-linecap="butt" stroke-width="1px" stroke-linejoin="miter" fill="#000000" stroke-miterlimit="4" stroke-opacity="1" stroke-dasharray="none" fill-opacity="1" clip-rule="evenodd" d="M49.019,0C23.372,0,2.58,20.792,2.58,46.44C2.58,72.088,23.372,92.879,49.019,92.879L110.939,92.879C136.587,92.879,157.378,72.088,157.378,46.44C157.378,20.792,136.587,0,110.939,0L49.019,0ZM75.851,24.768C75.851,22.488,77.699,20.64,79.979,20.64C82.259,20.64,84.107,22.488,84.107,24.768L84.107,42.312L101.651,42.312C103.931,42.312,105.779,44.16,105.779,46.44C105.779,48.719,103.931,50.567,101.651,50.567L84.107,50.567L84.107,68.111C84.107,70.391,82.259,72.239,79.979,72.239C77.699,72.239,75.851,70.391,75.851,68.111L75.851,50.567L58.307,50.567C56.028,50.567,54.179,48.719,54.179,46.44C54.179,44.16,56.028,42.312,58.307,42.312L75.851,42.312L75.851,24.768ZM75.851,24.768"/>
</g>
  <g id="Bold-S" transform="matrix(1.0,0.0,0.0,1.0,2261.2808271681656,614.3304998224432)">  <path stroke-dasharray="none" clip-rule="evenodd" fill-rule="evenodd" stroke-width="1px" stroke="none" fill-opacity="1" stroke-miterlimit="4" stroke-opacity="1" stroke-linejoin="miter" fill="#000000" stroke-linecap="butt" d="M49.019,0C23.372,0,2.58,20.792,2.58,46.44C2.58,72.088,23.372,92.879,49.019,92.879L110.939,92.879C136.587,92.879,157.378,72.088,157.378,46.44C157.378,20.792,136.587,0,110.939,0L49.019,0ZM75.851,24.768C75.851,22.488,77.699,20.64,79.979,20.64C82.259,20.64,84.107,22.488,84.107,24.768L84.107,42.312L101.651,42.312C103.931,42.312,105.779,44.16,105.779,46.44C105.779,48.719,103.931,50.567,101.651,50.567L84.107,50.567L84.107,68.111C84.107,70.391,82.259,72.239,79.979,72.239C77.699,72.239,75.851,70.391,75.851,68.111L75.851,50.567L58.307,50.567C56.028,50.567,54.179,48.719,54.179,46.44C54.179,44.16,56.028,42.312,58.307,42.312L75.851,42.312L75.851,24.768ZM75.851,24.768"/>
</g>
  <g id="Semibold-S" transform="matrix(1.0,0.0,0.0,1.0,1964.570827168166,614.3304998224432)">  <path clip-rule="evenodd" stroke-miterlimit="4" stroke-opacity="1" stroke-linecap="butt" stroke="none" fill-rule="evenodd" fill="#000000" fill-opacity="1" stroke-width="1px" stroke-linejoin="miter" stroke-dasharray="none" d="M49.019,0C23.372,0,2.58,20.792,2.58,46.44C2.58,72.088,23.372,92.879,49.019,92.879L110.939,92.879C136.587,92.879,157.378,72.088,157.378,46.44C157.378,20.792,136.587,0,110.939,0L49.019,0ZM75.851,24.768C75.851,22.488,77.699,20.64,79.979,20.64C82.259,20.64,84.107,22.488,84.107,24.768L84.107,42.312L101.651,42.312C103.931,42.312,105.779,44.16,105.779,46.44C105.779,48.719,103.931,50.567,101.651,50.567L84.107,50.567L84.107,68.111C84.107,70.391,82.259,72.239,79.979,72.239C77.699,72.239,75.851,70.391,75.851,68.111L75.851,50.567L58.307,50.567C56.028,50.567,54.179,48.719,54.179,46.44C54.179,44.16,56.028,42.312,58.307,42.312L75.851,42.312L75.851,24.768ZM75.851,24.768"/>
</g>
  <g id="Medium-S" transform="matrix(1.0,0.0,0.0,1.0,1667.860827168166,614.3304998224432)">  <path stroke-width="1px" clip-rule="evenodd" fill-opacity="1" stroke-linejoin="miter" fill="#000000" stroke-dasharray="none" stroke-miterlimit="4" stroke="none" stroke-opacity="1" fill-rule="evenodd" stroke-linecap="butt" d="M49.019,0C23.372,0,2.58,20.792,2.58,46.44C2.58,72.088,23.372,92.879,49.019,92.879L110.939,92.879C136.587,92.879,157.378,72.088,157.378,46.44C157.378,20.792,136.587,0,110.939,0L49.019,0ZM75.851,24.768C75.851,22.488,77.699,20.64,79.979,20.64C82.259,20.64,84.107,22.488,84.107,24.768L84.107,42.312L101.651,42.312C103.931,42.312,105.779,44.16,105.779,46.44C105.779,48.719,103.931,50.567,101.651,50.567L84.107,50.567L84.107,68.111C84.107,70.391,82.259,72.239,79.979,72.239C77.699,72.239,75.851,70.391,75.851,68.111L75.851,50.567L58.307,50.567C56.028,50.567,54.179,48.719,54.179,46.44C54.179,44.16,56.028,42.312,58.307,42.312L75.851,42.312L75.851,24.768ZM75.851,24.768"/>
</g>
  <g id="Regular-S" transform="matrix(1.0,0.0,0.0,1.0,1371.150827168166,614.3304998224432)">  <path clip-rule="evenodd" stroke="none" stroke-miterlimit="4" stroke-linecap="butt" stroke-opacity="1" fill-rule="evenodd" fill="#000000" stroke-dasharray="none" stroke-linejoin="miter" fill-opacity="1" stroke-width="1px" d="M49.019,0C23.372,0,2.58,20.792,2.58,46.44C2.58,72.088,23.372,92.879,49.019,92.879L110.939,92.879C136.587,92.879,157.378,72.088,157.378,46.44C157.378,20.792,136.587,0,110.939,0L49.019,0ZM75.851,24.768C75.851,22.488,77.699,20.64,79.979,20.64C82.259,20.64,84.107,22.488,84.107,24.768L84.107,42.312L101.651,42.312C103.931,42.312,105.779,44.16,105.779,46.44C105.779,48.719,103.931,50.567,101.651,50.567L84.107,50.567L84.107,68.111C84.107,70.391,82.259,72.239,79.979,72.239C77.699,72.239,75.851,70.391,75.851,68.111L75.851,50.567L58.307,50.567C56.028,50.567,54.179,48.719,54.179,46.44C54.179,44.16,56.028,42.312,58.307,42.312L75.851,42.312L75.851,24.768ZM75.851,24.768"/>
</g>
  <g id="Light-S" transform="matrix(1.0,0.0,0.0,1.0,1074.4408271681662,614.3304998224432)">  <path stroke-width="1px" clip-rule="evenodd" fill="#000000" fill-rule="evenodd" stroke-miterlimit="4" stroke="none" stroke-linecap="butt" fill-opacity="1" stroke-opacity="1" stroke-linejoin="miter" stroke-dasharray="none" d="M49.019,0C23.372,0,2.58,20.792,2.58,46.44C2.58,72.088,23.372,92.879,49.019,92.879L110.939,92.879C136.587,92.879,157.378,72.088,157.378,46.44C157.378,20.792,136.587,0,110.939,0L49.019,0ZM75.851,24.768C75.851,22.488,77.699,20.64,79.979,20.64C82.259,20.64,84.107,22.488,84.107,24.768L84.107,42.312L101.651,42.312C103.931,42.312,105.779,44.16,105.779,46.44C105.779,48.719,103.931,50.567,101.651,50.567L84.107,50.567L84.107,68.111C84.107,70.391,82.259,72.239,79.979,72.239C77.699,72.239,75.851,70.391,75.851,68.111L75.851,50.567L58.307,50.567C56.028,50.567,54.179,48.719,54.179,46.44C54.179,44.16,56.028,42.312,58.307,42.312L75.851,42.312L75.851,24.768ZM75.851,24.768"/>
</g>
  <g id="Thin-S" transform="matrix(1.0,0.0,0.0,1.0,777.7308271681661,614.3304998224432)">  <path stroke-opacity="1" clip-rule="evenodd" stroke="none" stroke-width="1px" stroke-miterlimit="4" fill-rule="evenodd" fill="#000000" stroke-linecap="butt" fill-opacity="1" stroke-dasharray="none" stroke-linejoin="miter" d="M49.019,0C23.372,0,2.58,20.792,2.58,46.44C2.58,72.088,23.372,92.879,49.019,92.879L110.939,92.879C136.587,92.879,157.378,72.088,157.378,46.44C157.378,20.792,136.587,0,110.939,0L49.019,0ZM75.851,24.768C75.851,22.488,77.699,20.64,79.979,20.64C82.259,20.64,84.107,22.488,84.107,24.768L84.107,42.312L101.651,42.312C103.931,42.312,105.779,44.16,105.779,46.44C105.779,48.719,103.931,50.567,101.651,50.567L84.107,50.567L84.107,68.111C84.107,70.391,82.259,72.239,79.979,72.239C77.699,72.239,75.851,70.391,75.851,68.111L75.851,50.567L58.307,50.567C56.028,50.567,54.179,48.719,54.179,46.44C54.179,44.16,56.028,42.312,58.307,42.312L75.851,42.312L75.851,24.768ZM75.851,24.768"/>
</g>
  <g id="Ultralight-S" transform="matrix(1.0,0.0,0.0,1.0,481.020827168166,614.3304998224432)">  <path stroke-linejoin="miter" stroke-linecap="butt" stroke-dasharray="none" fill-opacity="1" stroke-miterlimit="4" fill-rule="evenodd" clip-rule="evenodd" stroke-width="1px" stroke-opacity="1" fill="#000000" stroke="none" d="M49.019,0C23.372,0,2.58,20.792,2.58,46.44C2.58,72.088,23.372,92.879,49.019,92.879L110.939,92.879C136.587,92.879,157.378,72.088,157.378,46.44C157.378,20.792,136.587,0,110.939,0L49.019,0ZM75.851,24.768C75.851,22.488,77.699,20.64,79.979,20.64C82.259,20.64,84.107,22.488,84.107,24.768L84.107,42.312L101.651,42.312C103.931,42.312,105.779,44.16,105.779,46.44C105.779,48.719,103.931,50.567,101.651,50.567L84.107,50.567L84.107,68.111C84.107,70.391,82.259,72.239,79.979,72.239C77.699,72.239,75.851,70.391,75.851,68.111L75.851,50.567L58.307,50.567C56.028,50.567,54.179,48.719,54.179,46.44C54.179,44.16,56.028,42.312,58.307,42.312L75.851,42.312L75.851,24.768ZM75.851,24.768"/>
</g>
 </g>
</svg>
