<svg width="24" height="24" fill="none" xmlns="http://www.w3.org/2000/svg">
  <g clip-path="url(#Urban-Airship_svg__a)">
    <path fill="#fff" d="M24 12c0 6.627-5.373 12-12 12S0 18.627 0 12 5.373 0 12 0s12 5.373 12 12Z"/>
    <path fill="#000" fill-opacity=".12" fill-rule="evenodd" d="M24 12c0 6.627-5.373 12-12 12S0 18.627 0 12 5.373 0 12 0s12 5.373 12 12ZM12 23.5c6.351 0 11.5-5.149 11.5-11.5S18.351.5 12 .5.5 5.649.5 12 5.649 23.5 12 23.5Z" clip-rule="evenodd"/>
    <path fill="#0034B3" d="M15.194 12.46a9.804 9.804 0 0 0-8.03 4.172l.02.02a6.355 6.355 0 0 1 4.825-2.212 6.35 6.35 0 0 1 4.826 2.213L19.5 13.99l-.935-.935a9.804 9.804 0 0 0-3.371-.595Z"/>
    <path fill="#004BFF" d="M15.194 12.46c1.185 0 2.32.209 3.371.595l-6.574-6.576-7.491 7.49 2.663 2.663a9.804 9.804 0 0 1 8.03-4.172ZM12.01 9.538a.756.756 0 1 1 0 1.512.756.756 0 0 1 0-1.512Z"/>
  </g>
  <defs>
    <clipPath id="Urban-Airship_svg__a">
      <path fill="#fff" d="M0 0h24v24H0z"/>
    </clipPath>
  </defs>
</svg>
