<svg width="128" height="96" viewBox="0 0 128 96" fill="none" xmlns="http://www.w3.org/2000/svg">
<path opacity="0.2" d="M105.629 36.2L107.171 35.8C107.457 35.7429 107.743 35.4571 107.8 35.1714L108.2 33.6286C108.314 33.2286 108.657 33 109 33C109.4 33 109.743 33.2857 109.8 33.6286L110.2 35.1714C110.257 35.4571 110.543 35.7429 110.829 35.8L112.371 36.2C112.771 36.3143 113 36.6571 113 37C113 37.4 112.714 37.7429 112.371 37.8L110.829 38.2C110.543 38.2571 110.257 38.5429 110.2 38.8286L109.8 40.3714C109.686 40.7714 109.343 41 109 41C108.6 41 108.257 40.7143 108.2 40.3714L107.8 38.8286C107.743 38.5429 107.457 38.2571 107.171 38.2L105.629 37.8C105.229 37.6857 105 37.3429 105 37C105 36.6 105.286 36.2571 105.629 36.2Z" fill="#888888"/>
<path opacity="0.2" d="M15.9428 29.8L18.2571 29.2C18.6857 29.1143 19.1143 28.6857 19.2 28.2571L19.8 25.9429C19.9714 25.3429 20.4857 25 21 25C21.6 25 22.1143 25.4286 22.2 25.9429L22.8 28.2571C22.8857 28.6857 23.3143 29.1143 23.7429 29.2L26.0572 29.8C26.6572 29.9714 27 30.4857 27 31C27 31.6 26.5714 32.1143 26.0572 32.2L23.7429 32.8C23.3143 32.8857 22.8857 33.3143 22.8 33.7429L22.2 36.0571C22.0286 36.6571 21.5143 37 21 37C20.4 37 19.8857 36.5714 19.8 36.0571L19.2 33.7429C19.1143 33.3143 18.6857 32.8857 18.2571 32.8L15.9428 32.2C15.3428 32.0286 15 31.5143 15 31C15 30.4 15.4285 29.8857 15.9428 29.8Z" fill="#888888"/>
<path opacity="0.1" d="M0.628557 51.2L2.17142 50.8C2.45714 50.7429 2.74287 50.4571 2.80001 50.1714L3.19999 48.6286C3.31427 48.2286 3.65714 48 4 48C4.4 48 4.74287 48.2857 4.80001 48.6286L5.19999 50.1714C5.25713 50.4571 5.54286 50.7429 5.82858 50.8L7.37144 51.2C7.77144 51.3143 8 51.6571 8 52C8 52.4 7.7143 52.7429 7.37144 52.8L5.82858 53.2C5.54286 53.2571 5.25713 53.5429 5.19999 53.8286L4.80001 55.3714C4.68573 55.7714 4.34286 56 4 56C3.6 56 3.25713 55.7143 3.19999 55.3714L2.80001 53.8286C2.74287 53.5429 2.45714 53.2571 2.17142 53.2L0.628557 52.8C0.228557 52.6857 0 52.3429 0 52C0 51.6 0.2857 51.2571 0.628557 51.2Z" fill="#888888"/>
<path opacity="0.1" d="M126.5 50C125.675 50 125 49.325 125 48.5C125 47.675 125.675 47 126.5 47C127.325 47 128 47.675 128 48.5C128 49.325 127.325 50 126.5 50Z" fill="#888888"/>
<path opacity="0.2" d="M23 68C21.9 68 21 67.1 21 66C21 64.9 21.9 64 23 64C24.1 64 25 64.9 25 66C25 67.1 24.1 68 23 68Z" fill="#888888"/>
<path fill-rule="evenodd" clip-rule="evenodd" d="M49 10C44.5817 10 41 13.5817 41 18V74C41 78.4183 44.5817 82 49 82H63.1247C64.2065 82 65 80.9818 65 79.9V65.1C65 62.1983 66.3581 59.6138 68.4733 57.9475C69.3471 57.2592 70 56.2724 70 55.1601C70 51.1687 71.5584 47.3228 74.361 44.4729C77.1667 41.6199 80.9918 40 85 40C86.0613 40 87 39.1905 87 38.1292V18C87 13.5817 83.4183 10 79 10H49Z" fill="#ADC2FC"/>
<path fill-rule="evenodd" clip-rule="evenodd" d="M65 73V70H58.5C57.6716 70 57 70.6716 57 71.5C57 72.3284 57.6716 73 58.5 73H65Z" fill="#2B55CA"/>
<rect x="50" y="20" width="28" height="9" rx="2" fill="#8FABF9"/>
<rect x="50" y="31" width="28" height="9" rx="2" fill="#8FABF9"/>
<rect x="52" y="22" width="5" height="5" rx="2" fill="#557FF3"/>
<rect x="52" y="33" width="5" height="5" rx="2" fill="#557FF3"/>
<rect x="59" y="22" width="16" height="2" rx="1" fill="#557FF3"/>
<rect x="59" y="33" width="14" height="2" rx="1" fill="#557FF3"/>
<rect x="59" y="25" width="12" height="2" rx="1" fill="#557FF3"/>
<rect x="59" y="36" width="9" height="2" rx="1" fill="#557FF3"/>
<path fill-rule="evenodd" clip-rule="evenodd" d="M49 15H79C80.6569 15 82 16.3431 82 18V37.8752C82 39.333 83.4429 40.3587 84.8859 40.1512C86.0382 39.9855 87 39.0563 87 37.8921V18C87 13.5817 83.4183 10 79 10H49C44.5817 10 41 13.5817 41 18V74C41 78.4183 44.5817 82 49 82H63.3411C64.8831 82 65.8512 80.0471 65.3989 78.5729C65.1348 77.7123 64.3885 77 63.4883 77H49C47.3431 77 46 75.6569 46 74V18C46 16.3431 47.3431 15 49 15Z" fill="#2B55CA"/>
<rect x="59" y="11" width="10" height="7" rx="2" fill="#2B55CA"/>
<path fill-rule="evenodd" clip-rule="evenodd" d="M85 48C86.8429 48 88.6189 48.744 89.935 50.0823C91.2525 51.422 92 53.2477 92 55.1601V66.9737C92 68.3544 93.1193 69.4737 94.5 69.4737C95.8807 69.4737 97 68.3544 97 66.9737V55.1601C97 51.9484 95.7457 48.86 93.5 46.5764C91.2529 44.2915 88.1962 43 85 43C81.8038 43 78.7471 44.2915 76.5 46.5764C74.2543 48.86 73 51.9484 73 55.1601V65.6875H78V55.1601C78 53.2477 78.7475 51.422 80.065 50.0823C81.3811 48.744 83.1571 48 85 48Z" fill="#888888"/>
<path d="M71 62H99V83H71V62Z" fill="#FFD65C"/>
<path d="M98 63H85V82H89H98V63Z" fill="#F9BE1A"/>
<path fill-rule="evenodd" clip-rule="evenodd" d="M102 65.1C102 61.7311 99.2689 59 95.9 59H74.1C70.7311 59 68 61.7311 68 65.1V79.9C68 83.2689 70.7311 86 74.1 86H95.9C99.2689 86 102 83.2689 102 79.9V65.1ZM95.9 64C96.5075 64 97 64.4925 97 65.1V79.9C97 80.5075 96.5075 81 95.9 81H74.1C73.4925 81 73 80.5075 73 79.9V65.1C73 64.4925 73.4925 64 74.1 64H95.9Z" fill="#E2A412"/>
<path fill-rule="evenodd" clip-rule="evenodd" d="M90.7 66.9001C91.5837 67.5629 91.7627 68.8165 91.1 69.7001L85.1 77.7001C84.7521 78.1639 84.2201 78.454 83.6418 78.4951C83.0635 78.5362 82.4958 78.3243 82.0858 77.9143L79.0858 74.9143C78.3047 74.1333 78.3047 72.867 79.0858 72.0859C79.8668 71.3049 81.1332 71.3049 81.9142 72.0859L83.2836 73.4553L87.9 67.3001C88.5627 66.4165 89.8163 66.2374 90.7 66.9001Z" fill="#C18010"/>
</svg>
