<svg width="16" height="16" viewBox="0 0 16 16" fill="none" xmlns="http://www.w3.org/2000/svg">
<path fill-rule="evenodd" clip-rule="evenodd" d="M15.25 2.5C14.8358 2.5 14.5 2.83579 14.5 3.25V12.2499C14.5 12.6642 14.8358 12.9999 15.25 12.9999C15.6642 12.9999 16 12.6642 16 12.2499V3.25C16 2.83579 15.6642 2.5 15.25 2.5ZM5.21967 2.71967C4.92678 3.01257 4.92678 3.48744 5.21967 3.78033L8.43933 6.99996H0.75C0.335787 6.99996 0 7.33574 0 7.74996C0 8.16417 0.335787 8.49996 0.75 8.49996H8.43934L5.21967 11.7196C4.92678 12.0125 4.92678 12.4874 5.21967 12.7803C5.51256 13.0732 5.98744 13.0732 6.28033 12.7803L10.7803 8.28029C10.921 8.13964 11 7.94887 11 7.74996C11 7.55104 10.921 7.36028 10.7803 7.21963L6.28033 2.71967C5.98743 2.42678 5.51256 2.42678 5.21967 2.71967Z" fill="black" fill-opacity="0.84"/>
</svg>
