<svg width="24" height="24" fill="none" xmlns="http://www.w3.org/2000/svg">
  <g clip-path="url(#Teads_svg__a)">
    <path fill="#fff" d="M24 12c0 6.627-5.373 12-12 12S0 18.627 0 12 5.373 0 12 0s12 5.373 12 12Z"/>
    <path fill="#000" fill-opacity=".12" fill-rule="evenodd" d="M24 12c0 6.627-5.373 12-12 12S0 18.627 0 12 5.373 0 12 0s12 5.373 12 12ZM12 23.5c6.351 0 11.5-5.149 11.5-11.5S18.351.5 12 .5.5 5.649.5 12 5.649 23.5 12 23.5Z" clip-rule="evenodd"/>
    <path fill="#0B2059" d="M11.18 7.647c-.058-.041-.155.023-.156.024-.05.03-.318.178-.894.296-.575.1-1.229.168-1.229.168-.31.025-.608.054-.896.09.043-.191.059-.405-.034-.527-.1-.131-.194-.198-.282-.198-.059 0-.142.031-.197.18-.073.2-.194.414-.38.67-2.243.367-3.6 1.017-3.612 1.608-.015.735 1.199 1.226 1.199 1.226.05.017.067.01.074-.005.017-.034-.03-.072-.03-.072-.681-.536-.636-.92-.636-.92.036-.451 1.109-.735 2.32-.904-.262.393-.506.8-.728 1.218-.654 1.237-.968 2.308-.933 3.184 0 .043.033 1.074.446 1.347.044.03.096.049.15.053a.137.137 0 0 0 .102-.044c.046-.05.064-.136.055-.267-.002-.037-.006-.078-.01-.123-.04-.476-.117-1.36.576-2.72.393-.77.81-1.51 1.145-2.102.144-.254.274-.484.38-.68a24.74 24.74 0 0 1 2.129-.1c.908.015 1.499-.977 1.483-1.283-.003-.054-.014-.099-.041-.119Z"/>
    <path fill="#0B2059" d="M20.5 13.566a.927.927 0 0 0-.136-.46 2.642 2.642 0 0 0-.642-.663c-.519-.386-.566-.78-.495-.966.072-.186.28-.451.016-.596-.263-.145-.723.34-.74.8a1.998 1.998 0 0 1-.206.75c-.187.352-.936 1.69-1.407 1.542 0 0-.23-.104-.08-.572.145-.45 1.516-3.591.408-4.113 0 0-.67-.258-.83.12 0 0 .542-.064.167 1.54 0 0-1.826-.178-2.656 1.811 0 0-.638 1.216-1.156 1.232 0 0-.208-.04-.096-.65 0 0 .247-1.217.686-2.03 0 0-1.364-1.208-3.063.644 0 0-.407.387-.606 1.272 0 0-.758.894-1.58.717 0 0-.718-.072-.351-1.385 0 0 2.074.137 2.034-1.023 0 0-.032-.757-1.117-.588 0 0-1.2.117-1.89 1.602-.048.116-.343.851-.214 1.281.08.28.35.888 1.171.862 1.063-.032 1.755-.773 1.893-.977 0 0 .01.945.766.988 0 0 .632.02 1.16-1.024 0 0 .02-.043.039-.04a.025.025 0 0 1 .015.012.026.026 0 0 1 .004.019c-.021.177-.091 1.081.685 1.042 0 0 .68.108 1.446-1.202 0 0-.032 1.235.745 1.192 0 0 .705.02 1.215-1.056 0 0 .017-.033.036-.021a.042.042 0 0 1 .012.043c-.034.176-.157 1.021.645 1.036 0 0 .202.011.32-.032.333-.098 1.043-.518 1.833-2.272.005-.012.048-.12.066-.12.01 0 .016.01.024.029 0 0 .205.473.496.831l.064.073c.267.324.381.566.016.719-.066.022-.737.237-.796-.101 0 0-.363.12-.437.364-.034.112-.033.32.142.414l.03.018.006.003a.71.71 0 0 0 .183.057c.214.046.616.07 1.22-.12a3.02 3.02 0 0 0 .152-.05l.017-.006c.388-.148.605-.355.703-.57a.93.93 0 0 0 .08-.35v-.025h.003Zm-11.89-2.26c.471-.2.407.13.407.13-.047.7-1.14.804-1.14.804s.263-.732.734-.934Zm3.008 1.61c-.352 1.04-.726.87-.726.87-.527-.241.04-1.4.04-1.4.718-1.362 1.421-1.136 1.421-1.136-.169.225-.384.63-.735 1.667Zm3.446.879c-.631-.085-.072-1.305-.072-1.305.694-1.417 1.468-1.248 1.468-1.248-.718 2.44-1.396 2.553-1.396 2.553Z"/>
  </g>
  <defs>
    <clipPath id="Teads_svg__a">
      <path fill="#fff" d="M0 0h24v24H0z"/>
    </clipPath>
  </defs>
</svg>
