<svg width="17" height="16" viewBox="0 0 17 16" fill="none" xmlns="http://www.w3.org/2000/svg">
<g clip-path="url(#clip0_4674_68992)">
<path d="M11.5781 12.0555L16.3281 7.05547C16.5573 6.81424 16.5573 6.43576 16.3281 6.19453L11.5781 1.19453C11.3404 0.944279 10.9448 0.934135 10.6945 1.17188C10.4443 1.40962 10.4341 1.80522 10.6719 2.05547L14.4192 6H9.75054C5.19425 6 1.50001 9.69359 1.5 14.25V14.375C1.5 14.7202 1.77982 15 2.125 15C2.47018 15 2.75 14.7202 2.75 14.375L2.75 14.25C2.75001 10.3841 5.88449 7.25 9.75054 7.25H14.4192L10.6719 11.1945C10.4341 11.4448 10.4443 11.8404 10.6945 12.0781C10.9448 12.3159 11.3404 12.3057 11.5781 12.0555Z" fill="white"/>
</g>
<defs>
<clipPath id="clip0_4674_68992">
<rect width="16" height="16" fill="white" transform="translate(0.5)"/>
</clipPath>
</defs>
</svg>
