<svg width="16" height="17" viewBox="0 0 16 17" fill="none" xmlns="http://www.w3.org/2000/svg">
<path d="M5.59242 1.93458C6.6383 0.0398707 9.36166 0.0398767 10.4075 1.93458L15.6441 11.421C16.6558 13.2539 15.33 15.5 13.2365 15.5H2.76345C0.669929 15.5 -0.655826 13.2539 0.355895 11.421L5.59242 1.93458Z" fill="#F9BE1A"/>
<path d="M7.52562 4.5C7.23968 4.5 7.01197 4.73938 7.02625 5.02497L7.22625 9.02497C7.23955 9.29107 7.45919 9.5 7.72562 9.5H8.27438C8.54081 9.5 8.76045 9.29107 8.77375 9.02497L8.97375 5.02497C8.98803 4.73938 8.76032 4.5 8.47438 4.5H7.52562Z" fill="white"/>
<path d="M8 12.5C8.55228 12.5 9 12.0523 9 11.5C9 10.9477 8.55228 10.5 8 10.5C7.44772 10.5 7 10.9477 7 11.5C7 12.0523 7.44772 12.5 8 12.5Z" fill="white"/>
</svg>
