<svg width="24" height="24" viewBox="0 0 24 24" fill="none" xmlns="http://www.w3.org/2000/svg">
<g id="Image-24">
<g id="Union">
<path d="M9 11C10.1046 11 11 10.1046 11 9C11 7.89543 10.1046 7 9 7C7.89543 7 7 7.89543 7 9C7 10.1046 7.89543 11 9 11Z" fill="black" fill-opacity="0.84"/>
<path fill-rule="evenodd" clip-rule="evenodd" d="M19.125 3C20.7128 3 22 4.28718 22 5.875V15.9878C22.0001 15.9941 22.0001 16.0004 22.0001 16.0068C22.0001 16.0091 22 16.0115 22 16.0139V18.125C22 19.7128 20.7128 21 19.125 21H4.875C3.28718 21 2 19.7128 2 18.125L2 5.875C2 4.28718 3.28718 3 4.875 3L19.125 3ZM20 5.875V14.0442L16.047 11.1893C15.6975 10.9369 15.2256 10.9369 14.8761 11.1893L9.92309 14.7665L7.73935 13.1893C7.38983 12.9369 6.91788 12.9369 6.56837 13.1893L4 15.0443L4 5.875C4 5.39175 4.39175 5 4.875 5L19.125 5C19.6082 5 20 5.39175 20 5.875ZM4 18.125V17.5113L7.15386 15.2335L9.3376 16.8107C9.68712 17.0631 10.1591 17.0631 10.5086 16.8107L15.4616 13.2335L20 16.5113V18.125C20 18.6082 19.6082 19 19.125 19H4.875C4.39175 19 4 18.6082 4 18.125Z" fill="black" fill-opacity="0.84"/>
</g>
</g>
</svg>
