<svg width="24" height="24" fill="none" xmlns="http://www.w3.org/2000/svg">
  <g clip-path="url(#TripleLift_svg__a)">
    <path fill="#F36D26" d="M24 12c0 6.627-5.373 12-12 12S0 18.627 0 12 5.373 0 12 0s12 5.373 12 12Z"/>
    <path fill="#000" fill-opacity=".12" fill-rule="evenodd" d="M24 12c0 6.627-5.373 12-12 12S0 18.627 0 12 5.373 0 12 0s12 5.373 12 12ZM12 23.5c6.351 0 11.5-5.149 11.5-11.5S18.351.5 12 .5.5 5.649.5 12 5.649 23.5 12 23.5Z" clip-rule="evenodd"/>
    <path fill="#fff" d="M19.226 14.483 13.764 5.02C13.38 4.358 12.573 4 12.006 4c-.572 0-1.382.358-1.767 1.02l-5.462 9.463a2.01 2.01 0 0 0 0 2.037 2.018 2.018 0 0 0 1.762 1.024h4.092v-3.59H9.257l2.752-4.705 2.752 4.705h-1.378v3.59h4.077a2.01 2.01 0 0 0 1.763-1.024 2.02 2.02 0 0 0 .003-2.037Zm-4.164-.122a.237.237 0 0 0 .21-.122.252.252 0 0 0 0-.243l-3.053-5.219a.241.241 0 0 0-.21-.118.251.251 0 0 0-.21.118l-3.056 5.219a.242.242 0 0 0 0 .243.237.237 0 0 0 .21.122h1.26v1.169H6.737a.153.153 0 0 1-.13-.076.15.15 0 0 1 0-.149l5.288-9.15c.034-.058.08-.073.114-.073.046 0 .084.027.11.072 1.036 1.751 4.294 7.45 5.269 9.151a.151.151 0 0 1 0 .149.138.138 0 0 1-.122.076h-3.468v-1.17h1.264Zm3.807 1.95c-.293.51-.819.814-1.405.814h-3.662v-1.18h3.472a.564.564 0 0 0 .48-.845c-.979-1.702-4.234-7.4-5.273-9.155a.543.543 0 0 0-.468-.278h-.004a.541.541 0 0 0-.468.278L6.258 15.1a.564.564 0 0 0 .48.845h3.478v1.18H6.54a1.613 1.613 0 0 1-1.404-.815 1.61 1.61 0 0 1 .004-1.621l5.462-9.46c.29-.502.955-.814 1.408-.814.457 0 1.104.304 1.397.814l5.463 9.46a1.605 1.605 0 0 1 0 1.621Z"/>
  </g>
  <defs>
    <clipPath id="TripleLift_svg__a">
      <path fill="#fff" d="M0 0h24v24H0z"/>
    </clipPath>
  </defs>
</svg>
