<svg width="24" height="24" fill="none" xmlns="http://www.w3.org/2000/svg">
  <g clip-path="url(#The-Trade-Desk_svg__a)">
    <path fill="#0198F9" d="M24 12c0 6.627-5.373 12-12 12S0 18.627 0 12 5.373 0 12 0s12 5.373 12 12Z"/>
    <path fill="#000" fill-opacity=".12" fill-rule="evenodd" d="M24 12c0 6.627-5.373 12-12 12S0 18.627 0 12 5.373 0 12 0s12 5.373 12 12ZM12 23.5c6.351 0 11.5-5.149 11.5-11.5S18.351.5 12 .5.5 5.649.5 12 5.649 23.5 12 23.5Z" clip-rule="evenodd"/>
    <path fill="#fff" d="M8.356 4.281v2.406h2.46v6.277h2.368V4.281H8.356Z"/>
    <path fill="#fff" d="M7.056 12.406a4.943 4.943 0 0 1 2.575-4.34l-3.513-.001a7.27 7.27 0 0 0-1.43 4.341 7.315 7.315 0 0 0 4.99 6.935v-2.57a4.943 4.943 0 0 1-2.622-4.365Zm7.313-4.341V5.488a7.313 7.313 0 0 1-3.55 14.136v-2.416a4.945 4.945 0 0 0 3.55-9.143Z"/>
  </g>
  <defs>
    <clipPath id="The-Trade-Desk_svg__a">
      <path fill="#fff" d="M0 0h24v24H0z"/>
    </clipPath>
  </defs>
</svg>
