<svg width="24" height="24" fill="none" xmlns="http://www.w3.org/2000/svg">
  <g clip-path="url(#AppsFlyer_svg__a)">
    <path fill="#01061B" d="M24 12c0 6.627-5.373 12-12 12S0 18.627 0 12 5.373 0 12 0s12 5.373 12 12Z"/>
    <path fill="#fff" fill-opacity=".12" fill-rule="evenodd" d="M24 12c0 6.627-5.373 12-12 12S0 18.627 0 12 5.373 0 12 0s12 5.373 12 12ZM12 23.5c6.351 0 11.5-5.149 11.5-11.5S18.351.5 12 .5.5 5.649.5 12 5.649 23.5 12 23.5Z" clip-rule="evenodd"/>
    <path fill="#fff" d="m5.064 9.25 2.22 4.228c.15.288.524.522.833.521l4.528-.01c.309 0 .436-.235.285-.523l-2.22-4.228c-.151-.288-.525-.521-.834-.52l-4.527.009h-.02c-.295.01-.413.241-.265.523Zm8.6 4.926 1.344 2.508a.62.62 0 0 0 .5.306l2.697-.028c.184-.002.258-.142.167-.313l-1.344-2.508a.62.62 0 0 0-.499-.306l-2.697.028h-.01c-.177.007-.248.145-.158.313Zm.016-9.522-2.698 3.462c-.184.236-.208.66-.054.948l2.255 4.208c.153.287.428.329.612.093l2.697-3.463c.184-.236.209-.66.055-.948l-2.255-4.208c-.09-.167-.219-.25-.348-.246a.357.357 0 0 0-.264.154Zm-.632 9.564-1.608 2.063c-.11.141-.124.394-.032.565l1.343 2.508c.092.17.256.195.365.055l1.607-2.063c.11-.141.125-.394.033-.565l-1.344-2.508c-.052-.099-.13-.149-.207-.146-.055.002-.111.032-.157.091Z"/>
  </g>
  <defs>
    <clipPath id="AppsFlyer_svg__a">
      <path fill="#fff" d="M0 0h24v24H0z"/>
    </clipPath>
  </defs>
</svg>
