<svg width="24" height="24" fill="none" xmlns="http://www.w3.org/2000/svg">
  <g clip-path="url(#Pulsepoint_svg__a)">
    <path fill="#333" d="M24 12c0 6.627-5.373 12-12 12S0 18.627 0 12 5.373 0 12 0s12 5.373 12 12Z"/>
    <path fill="#fff" fill-opacity=".12" fill-rule="evenodd" d="M24 12c0 6.627-5.373 12-12 12S0 18.627 0 12 5.373 0 12 0s12 5.373 12 12ZM12 23.5c6.351 0 11.5-5.149 11.5-11.5S18.351.5 12 .5.5 5.649.5 12 5.649 23.5 12 23.5Z" clip-rule="evenodd"/>
    <path fill="#fff" d="M12.62 5.5H7V19h4.037v-3.227h1.316c3.735 0 6.147-2.051 6.147-5.22 0-3.07-2.307-5.053-5.886-5.053m-1.582 3.591h1.506c1.187 0 1.923.559 1.923 1.461 0 1.03-.718 1.645-1.923 1.645h-1.501l-.005-3.106Z"/>
  </g>
  <defs>
    <clipPath id="Pulsepoint_svg__a">
      <path fill="#fff" d="M0 0h24v24H0z"/>
    </clipPath>
  </defs>
</svg>
