<svg width="65" height="64" viewBox="0 0 65 64" fill="none" xmlns="http://www.w3.org/2000/svg">
<path d="M34.2808 43.9143C33.9531 45.0717 33.7776 46.293 33.7776 47.5554C33.7776 50.0555 31.9027 52.2319 29.4117 52.0194C26.6993 51.788 23.9942 51.0175 21.4542 49.6666C21.0112 49.4325 20.464 49.5756 20.2164 50.0049L18.5357 52.8801C18.1187 53.5826 17.0633 53.4395 16.8549 52.6459L13.9363 41.4314C13.806 40.95 14.0926 40.4426 14.5878 40.3125L25.78 37.3853C26.5748 37.1771 27.2262 38.0358 26.8093 38.7383L25.0894 41.6655C24.8288 42.1209 24.9852 42.7194 25.4542 42.9535C28.2791 44.3487 31.4013 44.621 34.2808 43.9143Z" fill="#DE5833"/>
<path d="M43.7542 34.6481C44.0174 33.6624 44.1596 32.6602 44.1905 31.6609C44.2165 30.5421 44.9331 29.5793 46.0146 29.2931L50.3273 28.1612C51.083 27.9661 51.8257 28.4995 51.9038 29.2801C51.9234 29.4844 51.94 29.689 51.9536 29.894C52.1187 32.3778 49.943 34.222 47.4537 34.222H47.111C45.9515 34.222 44.8266 34.37 43.7542 34.6481Z" fill="#DE5833"/>
<path d="M20.8749 24.9553C24.0808 19.4911 30.9505 17.4856 36.5548 20.2477C36.9886 20.4638 37.1333 21.0163 36.8922 21.4366L35.3014 24.1386C34.9157 24.7871 35.5183 25.5797 36.2535 25.3876L46.6063 22.6855C47.0642 22.5654 47.3294 22.0971 47.2089 21.6527L44.5092 11.3008C44.3164 10.5683 43.3401 10.4362 42.9544 11.0847L41.3997 13.7387C41.1708 14.135 40.6646 14.2671 40.2548 14.051C31.2036 9.24729 19.8866 12.3937 14.6439 21.3165C12.5107 24.9433 11.7153 28.9783 12.0889 32.8693C12.1612 33.5899 12.8482 34.0822 13.5472 33.9021L17.5364 32.8573C18.5368 32.5931 19.1996 31.7044 19.2237 30.6716C19.284 28.7262 19.8023 26.7687 20.8629 24.9673L20.8749 24.9553Z" fill="#3969EF"/>
<path d="M47.3333 58C53.2243 58 58 53.2244 58 47.3334C58 41.4423 53.2243 36.6667 47.3333 36.6667C41.4423 36.6667 36.6666 41.4423 36.6666 47.3334C36.6666 53.2244 41.4423 58 47.3333 58Z" fill="#21C000"/>
<path d="M53.0407 46.1244C53.5687 45.6027 53.5687 44.7503 53.0407 44.2285L52.3971 43.5925C51.878 43.0794 51.0427 43.0794 50.5235 43.5925L46.6829 47.388C46.1637 47.901 45.3285 47.901 44.8093 47.388L44.1432 46.7297C43.624 46.2167 42.7887 46.2167 42.2695 46.7297L41.6259 47.3658C41.098 47.8875 41.098 48.74 41.6259 49.2617L44.8093 52.4076C45.3285 52.9206 46.1638 52.9206 46.6829 52.4076L53.0407 46.1244Z" fill="white"/>
<path d="M61.7367 39.3333C61.9408 39.3333 62.145 39.4134 62.301 39.5694C62.6132 39.8816 62.6132 40.3899 62.301 40.7021L60.7001 42.303C60.388 42.6152 59.8797 42.6152 59.5675 42.303C59.2553 41.9908 59.2553 41.4825 59.5675 41.1703L61.1684 39.5694C61.3245 39.4134 61.5286 39.3333 61.7327 39.3333H61.7367Z" fill="#CCCCCC"/>
<path d="M60.9362 46.5374H63.3376C63.7778 46.5374 64.138 46.8976 64.138 47.3379C64.138 47.7781 63.7778 48.1383 63.3376 48.1383H60.9362C60.496 48.1383 60.1358 47.7781 60.1358 47.3379C60.1358 46.8976 60.496 46.5374 60.9362 46.5374Z" fill="#CCCCCC"/>
<path d="M59.5756 52.3774C59.7317 52.2213 59.9358 52.1413 60.14 52.1413H60.144C60.3481 52.1413 60.5522 52.2213 60.7083 52.3774L62.3092 53.9783C62.6214 54.2905 62.6214 54.7988 62.3092 55.1109C61.997 55.4231 61.4887 55.4231 61.1765 55.1109L59.5756 53.51C59.2635 53.1979 59.2635 52.6896 59.5756 52.3774Z" fill="#CCCCCC"/>
</svg>
