<svg width="24" height="24" fill="none" xmlns="http://www.w3.org/2000/svg">
  <g clip-path="url(#Criteo_svg__a)">
    <path fill="#FE5000" d="M24 12c0 6.627-5.373 12-12 12S0 18.627 0 12 5.373 0 12 0s12 5.373 12 12Z"/>
    <path fill="#000" fill-opacity=".12" fill-rule="evenodd" d="M24 12c0 6.627-5.373 12-12 12S0 18.627 0 12 5.373 0 12 0s12 5.373 12 12ZM12 23.5c6.351 0 11.5-5.149 11.5-11.5S18.351.5 12 .5.5 5.649.5 12 5.649 23.5 12 23.5Z" clip-rule="evenodd"/>
    <path fill="#fff" d="M12.106 4.5c2.135 0 4.045.968 5.411 2.513a.441.441 0 0 1-.037.614l-1.938 1.725a.383.383 0 0 1-.535-.024 4.056 4.056 0 0 0-2.899-1.271c-2.067 0-3.74 1.674-3.74 3.953 0 2.28 1.673 3.934 3.74 3.934a4.059 4.059 0 0 0 2.899-1.271.383.383 0 0 1 .535-.025l1.94 1.726a.44.44 0 0 1 .038.614c-1.366 1.544-3.277 2.512-5.412 2.512-4.136 0-7.483-3.159-7.483-7.49 0-4.33 3.347-7.51 7.481-7.51Z"/>
  </g>
  <defs>
    <clipPath id="Criteo_svg__a">
      <path fill="#fff" d="M0 0h24v24H0z"/>
    </clipPath>
  </defs>
</svg>
