<svg width="24" height="24" fill="none" xmlns="http://www.w3.org/2000/svg">
  <g clip-path="url(#Oracle_svg__a)">
    <path fill="#F80000" d="M24 12c0 6.627-5.373 12-12 12S0 18.627 0 12 5.373 0 12 0s12 5.373 12 12Z"/>
    <path fill="#000" fill-opacity=".12" fill-rule="evenodd" d="M24 12c0 6.627-5.373 12-12 12S0 18.627 0 12 5.373 0 12 0s12 5.373 12 12ZM12 23.5c6.351 0 11.5-5.149 11.5-11.5S18.351.5 12 .5.5 5.649.5 12 5.649 23.5 12 23.5Z" clip-rule="evenodd"/>
    <path fill="#fff" d="M14.817 7.503c-1.863-.006-3.725 0-5.588-.003a4.78 4.78 0 0 0-1.078.112c-2.338.536-3.906 2.664-3.617 4.897.3 2.31 2.283 3.985 4.72 3.986h2.757v.002c1.016 0 2.031.009 3.046-.004.574-.006 1.12-.155 1.645-.375 2.056-.864 3.155-2.955 2.693-5.12-.422-1.978-2.394-3.488-4.578-3.495Zm-.119 7.391c-.906.02-1.813.004-2.72.004-.883 0-1.766.018-2.649-.003-1.73-.042-3.037-1.341-3.003-2.958.033-1.598 1.386-2.835 3.099-2.835h5.187c1.714 0 3.056 1.261 3.08 2.89.023 1.562-1.311 2.865-2.994 2.902Z"/>
  </g>
  <defs>
    <clipPath id="Oracle_svg__a">
      <path fill="#fff" d="M0 0h24v24H0z"/>
    </clipPath>
  </defs>
</svg>
