<svg fill="none" viewBox="0 0 48 48" xmlns="http://www.w3.org/2000/svg">
  <path fill="#666" d="M11 4a4 4 0 0 1 4-4h21a4 4 0 0 1 4 4v40a4 4 0 0 1-4 4H15a4 4 0 0 1-4-4V4Z"/>
  <path fill="#888" d="M8 4a4 4 0 0 1 4-4h21a4 4 0 0 1 4 4v40a4 4 0 0 1-4 4H12a4 4 0 0 1-4-4V4Z"/>
  <path fill="#FAFAFA" d="M11 4a1 1 0 0 1 1-1h21a1 1 0 0 1 1 1v40a1 1 0 0 1-1 1H12a1 1 0 0 1-1-1V4Z"/>
  <path fill="#DDD" fill-rule="evenodd" d="M23 36.5a1.5 1.5 0 0 1 1.5-1.5h5a1.5 1.5 0 0 1 0 3h-5a1.5 1.5 0 0 1-1.5-1.5Zm0 4a1.5 1.5 0 0 1 1.5-1.5h3a1.5 1.5 0 0 1 0 3h-3a1.5 1.5 0 0 1-1.5-1.5ZM16 35a2 2 0 0 0-2 2v3a2 2 0 0 0 2 2h3a2 2 0 0 0 2-2v-3a2 2 0 0 0-2-2h-3Z" clip-rule="evenodd"/>
  <path fill="#666" d="M18 5.5A1.5 1.5 0 0 1 19.5 4h6a1.5 1.5 0 0 1 0 3h-6A1.5 1.5 0 0 1 18 5.5Z"/>
  <path fill="#EB102D" d="M31 20.5a8.5 8.5 0 1 1-17 0 8.5 8.5 0 0 1 17 0Z"/>
  <path fill="#fff" d="M23.563 24.219a1.062 1.062 0 1 1-2.125 0 1.062 1.062 0 0 1 2.125 0Zm-1.08-2.656a.648.648 0 0 1-.626-.585l-.417-4.565a.629.629 0 0 1 .626-.694h.869a.65.65 0 0 1 .625.694l-.417 4.565c-.07.329-.348.584-.66.584Z"/>
  <path fill="#CCC" d="M2.702 11a.902.902 0 0 0-.635 1.54l1.8 1.8a.902.902 0 0 0 1.275-1.273l-1.801-1.801A.897.897 0 0 0 2.706 11h-.004Zm.9 8.105H.901c-.496 0-.901.405-.901.9s.405.9.9.9h2.702c.495 0 .9-.405.9-.9s-.405-.9-.9-.9Zm1.531 6.57a.897.897 0 0 0-.635-.266h-.005c-.23 0-.459.09-.635.266l-1.8 1.8a.902.902 0 0 0 1.274 1.275l1.8-1.801a.902.902 0 0 0 0-1.274Z"/>
</svg>
