<svg width="24" height="24" viewBox="0 0 24 24" fill="none" xmlns="http://www.w3.org/2000/svg">
<circle cx="12" cy="12" r="11" fill="white"/>
<path fill-rule="evenodd" clip-rule="evenodd" d="M24 12C24 18.6274 18.6274 24 12 24C5.37258 24 0 18.6274 0 12C0 5.37258 5.37258 0 12 0C18.6274 0 24 5.37258 24 12ZM8.01952 11.0822L8.29662 11.3486C8.43249 11.7091 8.41759 12.0792 8.4027 12.4493C8.39566 12.6244 8.38861 12.7995 8.39754 12.9735C8.40541 13.1275 8.31388 13.1155 8.22507 13.1039C8.18995 13.0993 8.15526 13.0947 8.12731 13.1005C7.98212 13.1306 7.94319 13.0541 7.94471 12.9164C7.9471 12.7002 7.94183 12.484 7.93655 12.2679V12.2679C7.93442 12.1805 7.93229 12.0932 7.93067 12.0059C7.94685 11.8608 7.92105 11.7283 7.81693 11.6188C7.41891 11.3637 7.05387 11.5184 7.01082 11.9785C6.98349 12.2695 6.9925 12.5652 7.0038 12.8581C7.01082 13.039 6.97128 13.1147 6.76746 13.1106C6.58151 13.1069 6.54838 13.0402 6.5499 12.8749C6.55293 12.56 6.54968 12.245 6.54644 11.9301V11.9301V11.93V11.93V11.9299V11.9298V11.9298V11.9297V11.9297V11.9297V11.9296V11.9296V11.9296V11.9296V11.9296V11.9296V11.9295C6.54428 11.7195 6.54212 11.5096 6.54181 11.2996C6.54135 11.0697 6.79235 10.904 6.90746 11.0628C7.06198 11.2761 7.16689 11.1939 7.26831 11.1145C7.32371 11.0712 7.37807 11.0286 7.43891 11.0355L7.58914 11.0153L7.72437 11.0363L8.01952 11.0822ZM20.0085 11.6893C19.9084 11.1009 19.3885 10.8494 18.858 11.129C18.839 11.139 18.82 11.1565 18.801 11.1741C18.7405 11.23 18.6801 11.2858 18.6201 11.0966C18.5879 10.9945 18.4018 11.0318 18.2762 11.0569L18.2502 11.0621M20.0085 11.6893C20.0515 11.9415 20.0465 12.1954 20.0415 12.4492L20.0085 11.6893ZM20.0415 12.4492C20.0383 12.6094 20.0352 12.7697 20.0441 12.9296L20.0415 12.4492ZM20.0441 12.9296C20.0543 13.1078 19.9509 13.1057 19.8413 13.1035L20.0441 12.9296ZM19.8413 13.1035C19.8295 13.1033 19.8176 13.103 19.8058 13.103L19.8413 13.1035ZM19.8058 13.103C19.7935 13.103 19.7811 13.1033 19.7688 13.1035L19.8058 13.103ZM19.7688 13.1035C19.6603 13.1058 19.5583 13.1079 19.5636 12.9316L19.7688 13.1035ZM19.5636 12.9316C19.5709 12.6873 19.5693 12.4427 19.5677 12.1982L19.5636 12.9316ZM19.5677 12.1982V12.198V12.1982ZM19.5677 12.198C19.5672 12.1257 19.5668 12.0533 19.5665 11.9809L19.5677 12.198ZM19.5665 11.9809C19.5658 11.6899 19.471 11.4743 19.1322 11.4755L19.5665 11.9809ZM19.1322 11.4755C18.8366 11.4764 18.6668 11.6658 18.6459 11.996L19.1322 11.4755ZM18.6459 11.996C18.6376 12.1272 18.6433 12.259 18.6489 12.3908L18.6459 11.996ZM18.6489 12.3908C18.6593 12.632 18.6697 12.8733 18.5945 13.1105L18.6489 12.3908ZM18.5945 13.1105L18.1774 13.0964L18.5945 13.1105ZM18.1774 13.0964L18.1683 12.9705L18.1774 13.0964ZM18.1683 12.9705L18.1513 12.7366L18.1683 12.9705ZM18.1513 12.7366L18.1465 11.8548L18.1513 12.7366ZM18.1465 11.8548C18.1489 11.8029 18.1509 11.751 18.1529 11.6991L18.1465 11.8548ZM18.1529 11.6991L18.1529 11.6986L18.1529 11.6991ZM18.1529 11.6986C18.1578 11.5686 18.1628 11.4385 18.1743 11.3091L18.1529 11.6986ZM18.1743 11.3091C18.1764 11.2858 18.173 11.2591 18.1695 11.232L18.1743 11.3091ZM16.9836 12.6897C16.6797 12.779 16.4458 12.664 16.3017 12.3778C16.1042 12.1024 16.1842 11.8448 16.3813 11.6217C16.5436 11.4381 16.7677 11.3535 17.0081 11.4579C17.2692 11.5712 17.4568 11.752 17.4123 12.0749C17.4446 12.4017 17.2778 12.6031 16.9836 12.6897ZM17.9347 11.8555C17.9327 11.8034 17.9312 11.7512 17.9297 11.699V11.699V11.6989C17.926 11.5693 17.9222 11.4396 17.9113 11.3106C17.9094 11.2874 17.9129 11.2609 17.9164 11.234M17.9347 11.8555C17.9369 12.1435 17.939 12.4315 17.9411 12.7193L17.9347 11.8555ZM17.9411 12.7193L17.9412 12.7254L17.9411 12.7193ZM17.9412 12.7254L17.9412 12.7261L17.9412 12.7254ZM17.9412 12.7261L17.9412 12.7268L17.9412 12.7261ZM17.9412 12.7268L17.9412 12.7274L17.9412 12.7268ZM17.9412 12.7274L17.9412 12.7282L17.9412 12.7274ZM17.9412 12.7282L17.9412 12.7289L17.9412 12.7282ZM17.9412 12.7289L17.9412 12.7296L17.9412 12.7289ZM17.9412 12.7296L17.9412 12.7304L17.9412 12.7296ZM17.9412 12.7304L17.9412 12.7311L17.9412 12.7304ZM17.9412 12.7311L17.9413 12.7375L17.9412 12.7311ZM17.9413 12.7375L17.939 12.7636L17.9413 12.7375ZM17.939 12.7636L17.9104 13.0871L17.939 12.7636ZM17.9104 13.0871C17.8596 13.081 17.8058 13.09 17.7519 13.099L17.9104 13.0871ZM17.7519 13.099C17.6259 13.1201 17.4996 13.1413 17.4109 12.9701L17.7519 13.099ZM17.4109 12.9701C17.3848 12.9199 17.3419 12.9537 17.3031 12.9843L17.4109 12.9701ZM17.3031 12.9843C17.2902 12.9945 17.2777 13.0043 17.2665 13.0106L17.3031 12.9843ZM17.2665 13.0106C17.0403 13.1352 16.7985 13.1741 16.5442 13.153L17.2665 13.0106ZM16.5442 13.153C16.2266 13.0465 15.9784 12.8524 15.804 12.5654L16.5442 13.153ZM15.804 12.5654C15.7975 12.4934 15.7855 12.4224 15.7734 12.3514L15.804 12.5654ZM15.7734 12.3514C15.7437 12.1754 15.7139 11.9998 15.7681 11.8111L15.7734 12.3514ZM15.7681 11.8111C15.9588 11.146 16.6084 10.837 17.2269 11.1393L15.7681 11.8111ZM17.2269 11.1393C17.2471 11.1492 17.2669 11.1645 17.2863 11.1794L17.2269 11.1393ZM17.2863 11.1794C17.3521 11.2303 17.4127 11.2772 17.4663 11.0923L17.2863 11.1794ZM17.4663 11.0923C17.4953 10.9923 17.7124 11.0359 17.8371 11.0625L17.4663 11.0923ZM17.8371 11.0625C17.9359 11.0835 17.9259 11.1603 17.9164 11.234L17.8371 11.0625ZM3.79146 12.3089C3.69278 12.2984 3.64426 12.3612 3.5954 12.4244L3.59537 12.4244C3.58513 12.4377 3.57487 12.4509 3.56413 12.4636C3.36245 12.7002 3.12459 12.7961 2.81726 12.6742C2.54322 12.5652 2.39451 12.3419 2.41192 12.0791C2.43283 11.7643 2.60261 11.5068 2.96077 11.4504C3.22215 11.3892 3.41467 11.4866 3.55299 11.7084L3.63986 11.8443C3.67271 11.8457 3.70563 11.8485 3.73856 11.8513C3.84734 11.8605 3.95625 11.8697 4.06337 11.8284C3.91574 11.2691 3.40444 10.9246 2.89329 11.0353C2.67565 11.0394 2.5161 11.1598 2.35648 11.2802C2.32509 11.3039 2.29369 11.3276 2.26184 11.3504C1.84123 11.9252 1.93665 12.6321 2.48123 12.9758C3.00551 13.3066 3.69894 13.1294 3.99222 12.5872C4.00038 12.5722 4.01018 12.5569 4.02015 12.5413C4.05835 12.4817 4.09905 12.4181 4.05909 12.3526C4.01675 12.2832 3.94935 12.293 3.88177 12.3029C3.85092 12.3074 3.82003 12.3119 3.79146 12.3089ZM14.8078 11.8555L14.8354 11.8612C15.2473 11.949 15.6218 12.0778 15.6577 12.5896C15.4075 13.207 14.8108 13.3432 14.2107 12.92C14.202 12.9072 14.1923 12.8949 14.1825 12.8825L14.1825 12.8825L14.1825 12.8825C14.1614 12.8558 14.1404 12.8291 14.1301 12.7986C14.1209 12.7719 14.105 12.7434 14.0888 12.7145L14.0888 12.7145C14.0417 12.6301 13.9925 12.5421 14.1035 12.4858C14.2101 12.4316 14.3918 12.392 14.4893 12.565C14.5391 12.6534 14.6055 12.7241 14.7108 12.7384L14.7182 12.7394C14.9013 12.7642 15.1192 12.7936 15.1841 12.5803C15.245 12.381 15.0882 12.3398 14.9437 12.3019C14.9172 12.2949 14.8912 12.2881 14.867 12.2804C14.8209 12.2659 14.7742 12.2524 14.7275 12.2389L14.7275 12.2389C14.6221 12.2085 14.5166 12.1781 14.4168 12.1349C14.2088 12.045 14.1029 11.8769 14.095 11.6465C14.0869 11.4135 14.1957 11.2497 14.3873 11.1351C14.8722 10.8453 15.429 11.0703 15.5531 11.6135L15.5144 11.6193C15.3371 11.6462 15.1726 11.6711 15.0301 11.4876C14.9412 11.3731 14.7872 11.4087 14.655 11.4584C14.5498 11.4981 14.5438 11.5867 14.5576 11.6694C14.5807 11.8092 14.6967 11.8329 14.8078 11.8555ZM10.2268 11.0328L9.95702 11.0592L9.87369 11.2989L9.83198 11.4188L9.42618 12.4928C9.40703 12.4524 9.38813 12.4129 9.3696 12.3742L9.36929 12.3735L9.36925 12.3734C9.23108 12.0848 9.11373 11.8396 9.06786 11.5641L8.96664 11.3499C8.89837 11.3138 8.89934 11.256 8.90032 11.1982C8.90074 11.1732 8.90117 11.1481 8.89595 11.1249C8.74725 10.998 8.56404 11.0174 8.41702 11.0808C8.36958 11.1013 8.39371 11.1527 8.42106 11.211C8.44159 11.2547 8.46393 11.3023 8.45916 11.3437C8.51851 11.4875 8.57876 11.6311 8.63901 11.7747L8.63918 11.775L8.63925 11.7752C8.79449 12.1451 8.94973 12.515 9.08969 12.8905C9.15351 13.0618 9.2358 13.1055 9.40389 13.1084C9.57458 13.1113 9.65809 13.062 9.72267 12.8956C9.88339 12.4805 10.0552 12.0698 10.227 11.6589L10.2271 11.6587C10.2932 11.5006 10.3593 11.3426 10.4248 11.1843C10.458 11.0483 10.3873 11.0481 10.3166 11.0479C10.2829 11.0478 10.2492 11.0477 10.2268 11.0328ZM21.6731 11.0461C21.7857 11.0281 21.9017 11.0095 21.9148 11.2444C21.9316 11.5463 21.7766 11.5408 21.5863 11.534L21.56 11.5331C21.5363 11.5324 21.5124 11.5404 21.4885 11.5484C21.4775 11.5521 21.4665 11.5558 21.4556 11.5586C21.2548 11.4708 21.231 11.5841 21.2333 11.7458C21.2379 12.0865 21.2414 12.4276 21.2313 12.7681C21.2305 12.7973 21.2342 12.8288 21.2378 12.8605C21.2521 12.9836 21.2667 13.1091 21.0212 13.1134C20.7724 13.1175 20.7788 12.9939 20.7858 12.8586C20.787 12.8344 20.7883 12.81 20.7881 12.7858C20.7875 12.7062 20.7857 12.6265 20.7838 12.5467V12.5466V12.5466V12.5465V12.5464C20.7788 12.3335 20.7738 12.1205 20.7931 11.9099C20.8217 11.5995 20.7414 11.4526 20.4029 11.5058L20.3775 11.5099C20.2545 11.5304 20.1045 11.5554 20.107 11.319C20.1093 11.1299 20.1284 11.0258 20.3574 11.0439C20.5258 11.0571 20.6958 11.0508 20.8657 11.0445C20.9393 11.0417 21.0129 11.039 21.0864 11.0378C21.1342 11.0389 21.1822 11.0386 21.2302 11.0382C21.3404 11.0374 21.4506 11.0365 21.5579 11.0535C21.5925 11.059 21.6326 11.0526 21.6731 11.0461ZM13.7336 11.0343C13.5619 11.0111 13.3977 11.0651 13.2529 11.1696C13.2401 11.1787 13.2273 11.1913 13.2145 11.2039L13.2145 11.2039L13.2145 11.2039C13.164 11.2534 13.1147 11.3018 13.0783 11.1313C13.0521 11.0073 12.9475 11.0263 12.847 11.0445C12.8073 11.0517 12.7683 11.0588 12.735 11.0569C12.6275 11.0507 12.6353 11.13 12.6422 11.1996C12.644 11.2174 12.6457 11.2345 12.6454 11.2494C12.6414 11.4454 12.642 11.6415 12.6426 11.8377V11.8377V11.8377V11.8377C12.6428 11.9099 12.6431 11.9822 12.6431 12.0545L12.6428 12.244C12.6425 12.4247 12.6422 12.6055 12.6435 12.7862C12.6437 12.8107 12.6425 12.8354 12.6412 12.8598C12.6344 12.9953 12.628 13.1191 12.878 13.1135C13.1061 13.1084 13.0992 12.9964 13.0917 12.8753C13.0902 12.8512 13.0887 12.8268 13.089 12.8029C13.0906 12.6913 13.0897 12.5796 13.0889 12.468V12.4679C13.0877 12.3112 13.0866 12.1545 13.0919 11.998C13.1049 11.6212 13.3165 11.414 13.6816 11.4957C13.9707 11.5604 13.9986 11.3642 14.0185 11.2243C14.0208 11.2083 14.0229 11.1931 14.0254 11.179C14.0526 11.0218 13.9329 11.0284 13.8263 11.0342C13.7924 11.0361 13.7598 11.0379 13.7336 11.0343ZM11.4248 11.8404C11.4501 11.842 11.4755 11.8436 11.4987 11.8375C11.5486 11.8242 11.6128 11.8326 11.6757 11.8408C11.7938 11.8562 11.9072 11.871 11.9114 11.7405C11.9181 11.5321 11.6666 11.4431 11.4505 11.4179C11.3257 11.4034 11.2059 11.4286 11.1027 11.4941C11.0896 11.5024 11.0758 11.5107 11.0618 11.5192L11.0618 11.5192C10.9589 11.5813 10.8408 11.6527 10.8831 11.786C10.9082 11.8656 10.9854 11.8547 11.0635 11.8437C11.1017 11.8384 11.1402 11.833 11.1729 11.8381C11.2219 11.8456 11.2724 11.8437 11.3229 11.8419C11.3454 11.841 11.3679 11.8402 11.3903 11.8402V11.8388C11.4017 11.8388 11.4133 11.8396 11.4248 11.8404ZM10.881 11.1437L11.3314 11.0176C11.9518 11.0837 12.261 11.3269 12.4005 11.8362C12.4654 12.0733 12.448 12.1981 12.1474 12.1778C11.8708 12.1591 11.5926 12.1644 11.3145 12.1697H11.3145C11.2266 12.1714 11.1387 12.173 11.0509 12.174C11.0322 12.1742 11.012 12.172 10.9914 12.1698C10.9245 12.1626 10.8539 12.155 10.8208 12.2272C10.7759 12.3249 10.8436 12.4111 10.9043 12.4882L10.906 12.4904C11.1111 12.7514 11.4807 12.8285 11.7526 12.6141C11.9372 12.4686 12.114 12.443 12.323 12.4729C12.1737 12.888 11.8553 13.1311 11.4332 13.1517C11.0428 13.1709 10.6298 12.9236 10.4663 12.5523C10.2776 12.1236 10.3379 11.7199 10.6367 11.359C10.6835 11.3025 10.7421 11.256 10.8007 11.2094C10.8278 11.1879 10.855 11.1663 10.881 11.1437ZM5.31222 12.7153C4.94764 12.722 4.66123 12.4457 4.65574 12.0821C4.6507 11.7524 4.94719 11.4311 5.26413 11.4224C5.63329 11.4124 5.93238 11.7083 5.93925 12.0908C5.94551 12.4254 5.66077 12.7091 5.31222 12.7153ZM5.2878 11.0263C4.70413 11.0286 4.23329 11.4909 4.2307 12.0646C4.2281 12.6546 4.70902 13.1466 5.29009 13.1492C5.89848 13.1517 6.34627 12.6998 6.34688 12.0828C6.34764 11.4666 5.90383 11.0242 5.2878 11.0263Z" fill="#333333"/>
</svg>
