<svg width="128" height="96" viewBox="0 0 128 96" fill="none" xmlns="http://www.w3.org/2000/svg">
<g opacity="0.2">
<path d="M105.629 32.5335L107.171 32.1335C107.457 32.0764 107.743 31.7906 107.8 31.5049L108.2 29.9621C108.314 29.5621 108.657 29.3335 109 29.3335C109.4 29.3335 109.743 29.6192 109.8 29.9621L110.2 31.5049C110.257 31.7906 110.543 32.0764 110.829 32.1335L112.371 32.5335C112.771 32.6478 113 32.9906 113 33.3335C113 33.7335 112.714 34.0764 112.371 34.1335L110.829 34.5335C110.543 34.5906 110.257 34.8764 110.2 35.1621L109.8 36.7049C109.686 37.1049 109.343 37.3335 109 37.3335C108.6 37.3335 108.257 37.0478 108.2 36.7049L107.8 35.1621C107.743 34.8764 107.457 34.5906 107.171 34.5335L105.629 34.1335C105.229 34.0192 105 33.6764 105 33.3335C105 32.9335 105.286 32.5906 105.629 32.5335Z" fill="#888888"/>
<path d="M15.9428 26.1335L18.2571 25.5335C18.6857 25.4478 19.1143 25.0192 19.2 24.5906L19.8 22.2764C19.9714 21.6764 20.4857 21.3335 21 21.3335C21.6 21.3335 22.1143 21.7621 22.2 22.2764L22.8 24.5906C22.8857 25.0192 23.3143 25.4478 23.7429 25.5335L26.0572 26.1335C26.6572 26.3049 27 26.8192 27 27.3335C27 27.9335 26.5714 28.4478 26.0572 28.5335L23.7429 29.1335C23.3143 29.2192 22.8857 29.6478 22.8 30.0764L22.2 32.3906C22.0286 32.9906 21.5143 33.3335 21 33.3335C20.4 33.3335 19.8857 32.9049 19.8 32.3906L19.2 30.0764C19.1143 29.6478 18.6857 29.2192 18.2571 29.1335L15.9428 28.5335C15.3428 28.3621 15 27.8478 15 27.3335C15 26.7335 15.4285 26.2192 15.9428 26.1335Z" fill="#888888"/>
<path d="M0.628557 47.5335L2.17142 47.1335C2.45714 47.0764 2.74287 46.7906 2.80001 46.5049L3.19999 44.9621C3.31427 44.5621 3.65714 44.3335 4 44.3335C4.4 44.3335 4.74287 44.6192 4.80001 44.9621L5.19999 46.5049C5.25713 46.7906 5.54286 47.0764 5.82858 47.1335L7.37144 47.5335C7.77144 47.6478 8 47.9906 8 48.3335C8 48.7335 7.7143 49.0764 7.37144 49.1335L5.82858 49.5335C5.54286 49.5906 5.25713 49.8764 5.19999 50.1621L4.80001 51.7049C4.68573 52.1049 4.34286 52.3335 4 52.3335C3.6 52.3335 3.25713 52.0478 3.19999 51.7049L2.80001 50.1621C2.74287 49.8764 2.45714 49.5906 2.17142 49.5335L0.628557 49.1335C0.228557 49.0192 0 48.6764 0 48.3335C0 47.9335 0.2857 47.5906 0.628557 47.5335Z" fill="#888888"/>
<path d="M126.5 46.3335C125.675 46.3335 125 45.6585 125 44.8335C125 44.0085 125.675 43.3335 126.5 43.3335C127.325 43.3335 128 44.0085 128 44.8335C128 45.6585 127.325 46.3335 126.5 46.3335Z" fill="#888888"/>
<path d="M23 64.3335C21.9 64.3335 21 63.4335 21 62.3335C21 61.2335 21.9 60.3335 23 60.3335C24.1 60.3335 25 61.2335 25 62.3335C25 63.4335 24.1 64.3335 23 64.3335Z" fill="#888888"/>
</g>
<path fill-rule="evenodd" clip-rule="evenodd" d="M54.304 25.1323C54.7107 23.3021 56.3339 22 58.2087 22H73.7913C75.6661 22 77.2894 23.3021 77.6961 25.1323L78.7778 30H92C94.2091 30 96 31.7909 96 34V47.9986C96 50.1014 94.9122 51.9501 93.2687 53.0128C92.7044 53.3776 92.1002 53.6927 91.4901 54H84C73.842 54 65.5459 61.9714 65.0259 72H51C48.7909 72 47 70.2091 47 68V34C47 31.7909 48.7909 30 51 30H53.2222L54.304 25.1323Z" fill="#888888"/>
<path fill-rule="evenodd" clip-rule="evenodd" d="M48.3039 25.1323C48.7106 23.3021 50.3339 22 52.2087 22H67.7913C69.6661 22 71.2894 23.3021 71.6961 25.1323L72.7778 30H86C88.2091 30 90 31.7909 90 34V54H84C73.842 54 65.5459 61.9714 65.0259 72H36C33.7909 72 32 70.2091 32 68V34C32 31.7909 33.7909 30 36 30H47.2222L48.3039 25.1323Z" fill="#ABABAB"/>
<path fill-rule="evenodd" clip-rule="evenodd" d="M60 39C66.6274 39 72 44.3726 72 51C72 57.6274 66.6274 63 60 63C53.3726 63 48 57.6274 48 51C48 44.3726 53.3726 39 60 39ZM76 51C76 42.1634 68.8366 35 60 35C51.1634 35 44 42.1634 44 51C44 59.8366 51.1634 67 60 67C62.3069 67 64.4998 66.5118 66.481 65.633C68.1903 61.5731 71.2697 58.2317 75.1402 56.1878C75.6975 54.561 76 52.8158 76 51Z" fill="#DDDDDD"/>
<path d="M84 39C84 36.7909 82.2091 35 80 35C77.7909 35 76 36.7909 76 39C76 41.2091 77.7909 43 80 43C82.2091 43 84 41.2091 84 39Z" fill="#F9BE1A"/>
<path d="M114.565 72.8579H118.167C118.827 72.8579 119.368 73.3982 119.368 74.0586C119.368 74.719 118.827 75.2593 118.167 75.2593H114.565C113.905 75.2593 113.364 74.719 113.364 74.0586C113.364 73.3982 113.905 72.8579 114.565 72.8579Z" fill="#CCCCCC"/>
<path d="M115.766 62.0518C116.072 62.0518 116.378 62.1718 116.612 62.406C117.08 62.8742 117.08 63.6367 116.612 64.1049L114.211 66.5063C113.743 66.9745 112.98 66.9745 112.512 66.5063C112.044 66.038 112.044 65.2756 112.512 64.8073L114.913 62.406C115.147 62.1718 115.453 62.0518 115.76 62.0518H115.766Z" fill="#CCCCCC"/>
<path d="M113.371 81.2637C113.064 81.2637 112.758 81.3837 112.524 81.6179C112.056 82.0861 112.056 82.8486 112.524 83.3168L114.926 85.7182C115.394 86.1865 116.156 86.1865 116.624 85.7182C117.093 85.2499 117.093 84.4875 116.624 84.0192L114.223 81.6179C113.989 81.3837 113.683 81.2637 113.377 81.2637H113.371Z" fill="#CCCCCC"/>
<path d="M70 73C70 65.268 76.268 59 84 59H94C101.732 59 108 65.268 108 73C108 80.732 101.732 87 94 87H84C76.268 87 70 80.732 70 73Z" fill="#4CBA3C"/>
<path d="M94 83C99.5228 83 104 78.5228 104 73C104 67.4772 99.5228 63 94 63C88.4772 63 84 67.4772 84 73C84 78.5228 88.4772 83 94 83Z" fill="white"/>
</svg>
