<svg width="24" height="24" fill="none" xmlns="http://www.w3.org/2000/svg">
  <g clip-path="url(#Zeotap_svg__a)">
    <path fill="#fff" d="M23.5 12c0 6.351-5.149 11.5-11.5 11.5S.5 18.351.5 12 5.649.5 12 .5 23.5 5.649 23.5 12Z"/>
    <path fill="#000" fill-opacity=".12" fill-rule="evenodd" d="M23.979 12c0 6.616-5.363 11.98-11.98 11.98C5.385 23.98.022 18.615.022 12 .02 5.384 5.384.021 12 .021s11.979 5.363 11.979 11.98Zm-11.98 11.5c6.352 0 11.5-5.149 11.5-11.5S18.352.5 12 .5C5.65.5.5 5.65.5 12S5.65 23.5 12 23.5Z" clip-rule="evenodd"/>
    <path fill="#00154F" d="M18.63 14.516c.178.782.301 1.587.37 2.406a17.958 17.958 0 0 1-6.91 1.378c-1.687 0-3.318-.232-4.861-.669.127-.823.31-1.628.543-2.41a18.005 18.005 0 0 0 8.514.027c.804-.19 1.59-.436 2.343-.732Z"/>
    <path fill="#1065E0" d="M14.126 6.142a17.718 17.718 0 0 1 4.504 8.374c-.759.296-1.54.546-2.344.737a17.75 17.75 0 0 0-4.22-7.296A17.629 17.629 0 0 0 10 6.11a18.22 18.22 0 0 1 2.065-1.805 17.149 17.149 0 0 1 2.06 1.837Z"/>
    <path fill="#102799" d="M10.005 6.106a18.48 18.48 0 0 1 2.065 1.847 17.343 17.343 0 0 0-2.074 2.57c-.41.614-.78 1.25-1.11 1.914a17.577 17.577 0 0 0-1.649 5.199 17.112 17.112 0 0 1-2.233-.791 17.508 17.508 0 0 1 1.777-6.213l1.11-1.915c.62-.937 1.329-1.81 2.114-2.611Z"/>
  </g>
  <defs>
    <clipPath id="Zeotap_svg__a">
      <path fill="#fff" d="M0 0h24v24H0z"/>
    </clipPath>
  </defs>
</svg>
