<svg fill="none" viewBox="0 0 32 32" xmlns="http://www.w3.org/2000/svg">
  <path fill="#3969EF" fill-rule="evenodd" d="M22.15 16A1.15 1.15 0 0 1 21 14.85V2.15A1.15 1.15 0 0 0 19.85 1h-5.7A1.15 1.15 0 0 0 13 2.15v12.7A1.15 1.15 0 0 1 11.85 16H9.776c-1.024 0-1.537 1.239-.813 1.963L14.5 23.5v2h2.267a1.15 1.15 0 0 0 1.046-.313l7.224-7.224c.724-.724.211-1.963-.813-1.963z" clip-rule="evenodd"/>
  <path fill="#7295F6" fill-rule="evenodd" d="M18.5 14.85c0 .635.515 1.15 1.15 1.15h2.074c1.024 0 1.537 1.239.813 1.963l-7.224 7.224a1.15 1.15 0 0 1-1.626 0l-7.224-7.224C5.74 17.24 6.252 16 7.276 16H9.35a1.15 1.15 0 0 0 1.15-1.15V2.15c0-.635.515-1.15 1.15-1.15h5.7c.635 0 1.15.515 1.15 1.15z" clip-rule="evenodd"/>
  <path fill="#AAA" d="M29 29.5c0 .828-5.82 1.5-13 1.5s-13-.672-13-1.5S8.82 28 16 28s13 .672 13 1.5"/>
</svg>
