<svg fill="none" viewBox="0 0 128 96" xmlns="http://www.w3.org/2000/svg">
  <path fill="#888" d="m105.629 38.2 1.542-.4a.875.875 0 0 0 .629-.629l.4-1.543A.84.84 0 0 1 109 35c.4 0 .743.286.8.628l.4 1.543a.875.875 0 0 0 .629.629l1.542.4c.4.114.629.457.629.8 0 .4-.286.743-.629.8l-1.542.4a.875.875 0 0 0-.629.628l-.4 1.543a.84.84 0 0 1-.8.629c-.4 0-.743-.286-.8-.629l-.4-1.543a.875.875 0 0 0-.629-.628l-1.542-.4A.842.842 0 0 1 105 39c0-.4.286-.743.629-.8Zm-89.686-6.4 2.314-.6c.429-.086.857-.514.943-.943l.6-2.314c.171-.6.686-.943 1.2-.943.6 0 1.114.428 1.2.943l.6 2.314c.086.429.514.857.943.943l2.314.6c.6.171.943.686.943 1.2 0 .6-.429 1.114-.943 1.2l-2.314.6c-.429.086-.857.514-.943.943l-.6 2.314c-.171.6-.686.943-1.2.943-.6 0-1.114-.429-1.2-.943l-.6-2.314c-.086-.429-.514-.857-.943-.943l-2.314-.6c-.6-.172-.943-.686-.943-1.2 0-.6.429-1.114.943-1.2ZM.629 53.2l1.542-.4a.876.876 0 0 0 .629-.629l.4-1.543A.841.841 0 0 1 4 50c.4 0 .743.286.8.628l.4 1.543a.876.876 0 0 0 .629.629l1.542.4c.4.114.629.457.629.8 0 .4-.286.743-.629.8l-1.542.4a.875.875 0 0 0-.629.628l-.4 1.543A.841.841 0 0 1 4 58c-.4 0-.743-.286-.8-.629l-.4-1.543a.875.875 0 0 0-.629-.628L.63 54.8A.841.841 0 0 1 0 54c0-.4.286-.743.629-.8ZM126.5 52c-.825 0-1.5-.675-1.5-1.5s.675-1.5 1.5-1.5 1.5.675 1.5 1.5-.675 1.5-1.5 1.5ZM23 70c-1.1 0-2-.9-2-2s.9-2 2-2 2 .9 2 2-.9 2-2 2Z" opacity=".2"/>
  <g clip-path="url(#Radar-128_svg__a)">
    <path fill="#63C853" d="M36 35c0-8.284 6.716-15 15-15h26c8.284 0 15 6.716 15 15v26c0 8.284-6.716 15-15 15H51c-8.284 0-15-6.716-15-15V35Z"/>
    <path fill="#399F29" d="M76.75 16h-26C40.257 16 32 24.507 32 35v26c0 10.493 8.257 19 18.75 19h20.18a3.378 3.378 0 0 0 3.32-4l-2.5-23h20a4 4 0 0 0 4-4V35c0-10.493-8.507-19-19-19Z"/>
    <rect width="56" height="56" x="34" y="18" fill="#B3F1AA" stroke="#4CBA3C" stroke-width="4" rx="12.667"/>
    <circle cx="62" cy="46" r="23" fill="#288419"/>
    <path fill="#B3F1AA" d="M85 23 62 46 33.5 23H85Z" opacity=".1"/>
    <path fill="#B3F1AA" d="M85 23 62 46 45 23h40Z" opacity=".1"/>
    <path fill="#B3F1AA" d="M85 23 62 46l-9-23h32Z" opacity=".1"/>
    <path fill="#B3F1AA" d="M85 23 62 46l-2-23h25Z" opacity=".1"/>
    <path fill="#B3F1AA" d="M85 23 62 46l5-23h18Z" opacity=".1"/>
    <path fill="#B3F1AA" d="M85 23 62 46l13-23h10Z" opacity=".1"/>
    <path fill="#288419" fill-rule="evenodd" d="M50.797 66.092C45.44 61.88 42 55.342 42 48c0-12.703 10.297-23 23-23 4.067 0 7.888 1.056 11.204 2.908A22.901 22.901 0 0 0 62 23c-12.703 0-23 10.297-23 23 0 8.635 4.759 16.159 11.797 20.092Z" clip-rule="evenodd"/>
    <path fill="#D9D9D9" fill-rule="evenodd" stroke="#FAFAFA" stroke-linejoin="round" stroke-width="12" d="M91.493 59a2.332 2.332 0 0 0-1.691.7c-1.255 1.314-2.43 2.105-3.696 2.525-1.261.42-2.703.5-4.553.258a2.387 2.387 0 0 0-1.774.47c-.489.383-.772.939-.777 1.525-.054 6.677.89 10.782 2.738 13.657 1.982 3.081 4.945 4.643 8.344 6.435l.078.04.003.003h.002l.214.113a2.424 2.424 0 0 0 2.238 0l.215-.113.005-.003.077-.04c3.399-1.792 6.362-3.354 8.344-6.435 1.848-2.875 2.792-6.98 2.738-13.657-.005-.587-.289-1.144-.778-1.526a2.39 2.39 0 0 0-1.776-.469c-1.832.242-3.268.178-4.53-.23-1.273-.41-2.462-1.198-3.734-2.545A2.33 2.33 0 0 0 91.493 59Z" clip-rule="evenodd"/>
    <path stroke="#E2A412" stroke-linejoin="round" stroke-width="3" d="M91.493 59a2.332 2.332 0 0 0-1.691.7c-1.255 1.314-2.43 2.105-3.696 2.525-1.261.42-2.703.5-4.553.258a2.387 2.387 0 0 0-1.774.47c-.489.383-.772.939-.777 1.525-.054 6.677.89 10.782 2.738 13.657 1.982 3.081 4.945 4.643 8.344 6.435l.078.04.003.003h.002l.214.113a2.424 2.424 0 0 0 2.238 0l.215-.113.005-.003.077-.04c3.399-1.792 6.362-3.354 8.344-6.435 1.848-2.875 2.792-6.98 2.738-13.657-.005-.587-.289-1.144-.778-1.526a2.39 2.39 0 0 0-1.776-.469c-1.832.242-3.268.178-4.53-.23-1.273-.41-2.462-1.198-3.734-2.545A2.33 2.33 0 0 0 91.493 59Z" clip-rule="evenodd"/>
    <path fill="#FFE8A3" d="M78.931 68.825v-6.768l6.75.161L91.5 58.19l6.052 4.26 6.517-.393v6.768c0 14.986-12.57 17.135-12.57 17.135s-12.567-2.15-12.567-17.135Z"/>
    <path fill="#FFD65C" d="M95.61 84.778c4.943-2.538 8.217-9.897 8.217-15.711v-6.768l-6.275.152-6.052-4.02V86.47l4.11-1.692Z"/>
    <path stroke="#E2A412" stroke-linejoin="round" stroke-width="3.75" d="M91.493 59a2.332 2.332 0 0 0-1.691.7c-1.255 1.314-2.43 2.105-3.696 2.525-1.261.42-2.703.5-4.553.258a2.387 2.387 0 0 0-1.774.47c-.489.383-.772.939-.777 1.525-.054 6.677.89 10.782 2.738 13.657 1.982 3.081 4.945 4.643 8.344 6.435l.078.04.003.003h.002l.214.113a2.424 2.424 0 0 0 2.238 0l.215-.113.005-.003.077-.04c3.399-1.792 6.362-3.354 8.344-6.435 1.848-2.875 2.792-6.98 2.738-13.657-.005-.587-.289-1.144-.778-1.526a2.39 2.39 0 0 0-1.776-.469c-1.832.242-3.268.178-4.53-.23-1.273-.41-2.462-1.198-3.734-2.545A2.33 2.33 0 0 0 91.493 59Z" clip-rule="evenodd"/>
    <path stroke="#C18010" stroke-linecap="round" stroke-linejoin="round" stroke-width="3" d="m86.25 71.715 3.722 3.875 6.628-6.9"/>
    <path fill="#CCC" d="M114.565 70.858h3.602c.661 0 1.201.54 1.201 1.2 0 .66-.54 1.2-1.201 1.2h-3.602c-.66 0-1.2-.54-1.2-1.2 0-.66.54-1.2 1.2-1.2Zm1.201-10.807a1.203 1.203 0 0 1 .847 2.053l-2.402 2.402a1.203 1.203 0 0 1-1.699 0 1.203 1.203 0 0 1 0-1.7l2.402-2.4c.234-.234.54-.355.846-.355h.006Zm-2.395 19.212a1.202 1.202 0 0 0-.846 2.053l2.401 2.402a1.203 1.203 0 0 0 1.699 0 1.203 1.203 0 0 0 0-1.7l-2.402-2.4a1.195 1.195 0 0 0-.846-.355h-.006Z"/>
    <circle cx="58.5" cy="32.5" r="1.5" fill="#96E38A"/>
    <circle cx="48.5" cy="43.5" r="1.5" fill="#63C853"/>
    <circle cx="54.5" cy="47.5" r="1.5" fill="#63C853"/>
    <circle cx="74.5" cy="55.5" r="1.5" fill="#4CBA3C"/>
    <path stroke="#4CBA3C" stroke-linecap="round" stroke-width="2" d="m57 56-3 3m0-3 3 3m22-12-3 3m0-3 3 3"/>
    <path stroke="#96E38A" stroke-linecap="round" stroke-width="2" d="m53 34-3 3m0-3 3 3"/>
  </g>
  <defs>
    <clipPath id="Radar-128_svg__a">
      <path fill="#fff" d="M21.334 7.667h100v82.667h-100z"/>
    </clipPath>
  </defs>
</svg>
