<svg width="24" height="24" viewBox="0 0 24 24" fill="none" xmlns="http://www.w3.org/2000/svg">
<circle cx="12" cy="12" r="11" fill="#444444"/>
<path fill-rule="evenodd" clip-rule="evenodd" d="M24 12C24 18.6274 18.6274 24 12 24C5.37258 24 0 18.6274 0 12C0 5.37258 5.37258 0 12 0C18.6274 0 24 5.37258 24 12ZM9.54908 9.41778C9.62884 8.93992 9.89904 8.65446 10.4179 8.78418C10.7171 8.85884 10.7661 8.67549 10.8105 8.50937L10.8105 8.50936C10.8227 8.46376 10.8346 8.41947 10.8511 8.38216C10.9542 8.14969 10.7699 8.10666 10.6201 8.07168C10.5913 8.06495 10.5638 8.05851 10.5398 8.05108C9.7405 7.80368 8.85782 8.48696 8.83851 9.40911C8.81961 10.3205 8.82301 11.2323 8.82642 12.1441V12.1442V12.1442V12.1442V12.1442V12.1442C8.82813 12.6026 8.82984 13.0611 8.82872 13.5194C8.82816 13.7709 8.83264 13.9813 9.1875 13.9609C9.51256 13.942 9.54796 13.763 9.54488 13.4983C9.53481 12.6623 9.53495 11.8263 9.54656 10.9903C9.54708 10.9552 9.54223 10.9157 9.53724 10.875L9.53723 10.8749C9.51935 10.7292 9.49955 10.5677 9.71686 10.5361C10.0431 10.4885 10.1072 10.2672 10.1722 10.0425C10.1873 9.99034 10.2025 9.93795 10.221 9.88753C10.1452 9.81446 10.0225 9.8096 9.90196 9.80482C9.69142 9.79647 9.48715 9.78837 9.54908 9.41778ZM21.9887 11.0877C21.9544 9.97451 20.8841 9.36217 19.8987 9.9065C19.6342 10.0526 19.4883 10.0499 19.2266 9.91084C18.1995 9.36469 17.1586 9.98374 17.108 11.1484C17.0962 11.4203 17.0994 11.693 17.1026 11.9656C17.104 12.0893 17.1055 12.213 17.1055 12.3367C17.1056 12.4335 17.1059 12.5303 17.1061 12.6271C17.1069 12.8799 17.1076 13.1327 17.1048 13.3853C17.1045 13.412 17.1038 13.4388 17.103 13.4654C17.0958 13.717 17.0891 13.95 17.4901 13.9525C17.856 13.9546 17.8398 13.746 17.8242 13.5454V13.5453C17.8208 13.5017 17.8175 13.4585 17.8181 13.4179C17.8248 12.9689 17.8237 12.5198 17.8227 12.0706V12.0706V12.0706V12.0697C17.8221 11.7967 17.8214 11.5237 17.8225 11.2507C17.8244 10.7973 18.0208 10.4402 18.4938 10.4328C19.0059 10.4249 19.2055 10.7815 19.1985 11.2764C19.1924 11.6887 19.1933 12.101 19.1942 12.5133V12.5137C19.1949 12.8237 19.1956 13.1337 19.1933 13.4437L19.1932 13.4519C19.1914 13.7214 19.1898 13.953 19.5795 13.9373C19.9106 13.9243 19.9077 13.7268 19.9047 13.5196C19.9045 13.5043 19.9043 13.489 19.9042 13.4737C19.9041 13.4672 19.9041 13.4607 19.9041 13.4542C19.906 12.7318 19.9058 12.0094 19.9039 11.2869C19.9025 10.8033 20.0984 10.4245 20.6088 10.4318C21.1173 10.4389 21.2983 10.8142 21.289 11.3043C21.279 11.8294 21.281 12.3548 21.283 12.8802C21.2839 13.1006 21.2847 13.321 21.2847 13.5413L21.2846 13.5721C21.2838 13.7762 21.2831 13.9658 21.5979 13.9512C21.885 13.9379 22.0065 13.8419 21.9997 13.5342C21.9914 13.1539 21.9939 12.7733 21.9964 12.3927V12.3925V12.3925V12.3925V12.3925V12.3925V12.3924C21.9992 11.9573 22.002 11.5223 21.9887 11.0877ZM13.4538 10.926C13.2566 10.6297 13.1874 10.3032 13.4521 10.1254C13.6526 9.99059 13.8029 10.1934 13.933 10.3688L13.933 10.3689L13.933 10.3689L13.933 10.3689C13.9661 10.4135 13.9978 10.4563 14.0288 10.4914C14.6372 11.1817 14.7329 12.1341 14.3085 12.963C13.8856 13.789 13.0762 14.2308 12.1235 14.1559C11.1998 14.0833 10.5255 13.4946 10.2117 12.487L10.2098 12.478C10.2065 12.466 10.2041 12.4541 10.2017 12.4422L10.2017 12.4422L10.2017 12.4421C10.1998 12.4329 10.1979 12.4237 10.1956 12.4145L10.1942 12.4085C10.186 12.3753 10.1777 12.3418 10.1721 12.309C9.94699 11.1503 10.6324 10.0849 11.8207 9.80002C12.0317 9.67716 12.2631 9.67968 12.4943 9.69297C12.5219 9.69454 12.5515 9.69501 12.5819 9.69548C12.7485 9.6981 12.9381 9.70107 12.9525 9.88999C12.9698 10.1168 12.8147 10.3825 12.5501 10.3735C11.8306 10.3492 11.3639 10.7718 10.897 11.2158C10.6538 11.8924 10.9184 12.473 11.242 13.0425C12.1082 13.5951 12.817 13.5833 13.3964 13.0068C13.9714 12.4345 14.0059 11.7555 13.4538 10.926ZM16.6127 9.71526C15.8341 9.57939 15.0833 10.1881 15.0245 11.0085C15.0028 11.3117 15.0083 11.6169 15.0139 11.9222V11.9222V11.9222V11.9222C15.0164 12.06 15.0189 12.1977 15.0189 12.3353H15.0162C15.0162 12.4537 15.0174 12.5722 15.0186 12.6906C15.0214 12.9682 15.0243 13.2457 15.0116 13.5225C14.9987 13.8012 15.061 13.9633 15.3803 13.9673C15.7288 13.9717 15.7342 13.7559 15.7324 13.505C15.73 13.1641 15.7303 12.8232 15.7307 12.4823V12.4823C15.731 12.1246 15.7314 11.767 15.7286 11.4094C15.724 10.8217 15.8858 10.3789 16.5909 10.4433C16.9263 10.474 16.9924 10.1956 17.0347 10.0173L17.0363 10.0108C17.0962 9.75881 16.8871 9.74117 16.7166 9.72678C16.679 9.72361 16.6432 9.7206 16.6127 9.71526ZM6.8255 13.4408C7.24389 13.4327 7.52599 13.2139 7.54838 12.7626C7.55766 12.5751 7.55553 12.387 7.55341 12.1989V12.1989C7.55239 12.109 7.55137 12.0192 7.5516 11.9294C7.55244 11.6749 7.55286 11.4201 7.5523 11.1656C7.55132 10.6758 7.26068 10.4294 6.81613 10.425C6.37758 10.4208 6.06344 10.6411 6.06176 11.1411L6.06065 11.4341C6.05886 11.8688 6.05707 12.3035 6.06358 12.7382C6.071 13.2319 6.37339 13.4494 6.8255 13.4408ZM7.88366 8.26004C8.13819 8.2571 8.26958 8.33266 8.26511 8.61518C8.25716 9.12026 8.25857 9.62547 8.25997 10.1307V10.1307C8.26057 10.3462 8.26117 10.5617 8.26105 10.7772C8.26092 10.9881 8.26232 11.199 8.26372 11.4099V11.41V11.41C8.2668 11.8733 8.26988 12.3367 8.25671 12.7995C8.23348 13.6201 7.64451 14.1588 6.80647 14.1595C5.96423 14.1603 5.37876 13.6233 5.35427 12.8047C5.33929 12.3028 5.34517 11.8004 5.35104 11.2983L5.35217 11.2007C5.36365 10.197 6.03098 9.54782 7.01189 9.73127C7.58378 9.83831 7.57525 9.60883 7.553 9.21814C7.54664 9.10529 7.5486 8.99199 7.55056 8.87866V8.87863C7.55222 8.78259 7.55388 8.68652 7.55048 8.5907C7.54209 8.35365 7.64941 8.2627 7.88366 8.26004ZM3.42658 13.4424C3.04023 13.4409 2.74344 13.2422 2.72105 12.8273C2.70328 12.4984 3.45261 12.0701 3.9453 12.0775C4.23163 12.0819 4.20379 12.2313 4.17899 12.3644C4.16518 12.4385 4.15231 12.5076 4.19522 12.5436C4.22194 13.1363 3.96937 13.4444 3.42658 13.4424ZM4.10986 9.84355C3.58862 9.59111 3.06542 9.64163 2.58392 9.96375C2.56277 9.97789 2.53836 9.99219 2.51293 10.0071L2.51288 10.0071C2.37679 10.0868 2.21119 10.1838 2.35583 10.3677C2.36638 10.3812 2.37722 10.3954 2.3884 10.4101L2.38845 10.4102C2.50644 10.5654 2.66295 10.7712 2.92801 10.6021C3.15217 10.4591 3.38544 10.3596 3.65201 10.4436C3.93439 10.5326 4.17073 10.696 4.18626 11.0177C4.1988 11.2807 4.0144 11.3181 3.83318 11.3549L3.83315 11.3549C3.78388 11.3649 3.73484 11.3748 3.69007 11.3892C3.59513 11.4198 3.49851 11.447 3.40189 11.4743L3.40185 11.4743C3.18358 11.5358 2.96527 11.5974 2.76625 11.6973C1.85292 12.1566 1.73286 13.2909 2.53144 13.8686C3.0219 14.2236 3.56623 14.2715 4.11783 14.0157C4.65783 13.7654 4.91614 13.3301 4.90144 12.7323C4.89722 12.5565 4.89833 12.3807 4.89945 12.2048V12.2048L4.89945 12.2046C4.89996 12.1243 4.90047 12.044 4.90047 11.9638H4.90354C4.90354 11.8756 4.90287 11.7873 4.9022 11.6991C4.90075 11.5078 4.8993 11.3165 4.90466 11.1255C4.92201 10.521 4.63348 10.0974 4.10986 9.84355Z" fill="#DFDFDF"/>
</svg>
