<svg width="24" height="24" fill="none" xmlns="http://www.w3.org/2000/svg">
  <g clip-path="url(#Salesforce_svg__a)">
    <path fill="#fff" d="M24 12c0 6.627-5.373 12-12 12S0 18.627 0 12 5.373 0 12 0s12 5.373 12 12Z"/>
    <path fill="#000" fill-opacity=".12" fill-rule="evenodd" d="M24 12c0 6.627-5.373 12-12 12S0 18.627 0 12 5.373 0 12 0s12 5.373 12 12ZM12 23.5c6.351 0 11.5-5.149 11.5-11.5S18.351.5 12 .5.5 5.649.5 12 5.649 23.5 12 23.5Z" clip-rule="evenodd"/>
    <path fill="#00A1E0" d="M10.754 8.034a2.622 2.622 0 0 1 1.903-.816c.975 0 1.846.563 2.306 1.378a3.054 3.054 0 0 1 1.313-.281c1.78 0 3.224 1.462 3.224 3.262s-1.444 3.263-3.235 3.263c-.216 0-.431-.028-.638-.065a2.344 2.344 0 0 1-2.062 1.219c-.375 0-.722-.094-1.031-.235a2.696 2.696 0 0 1-2.484 1.64 2.688 2.688 0 0 1-2.531-1.762 2.27 2.27 0 0 1-.516.048c-1.377 0-2.503-1.125-2.503-2.531 0-.938.507-1.754 1.256-2.194a2.827 2.827 0 0 1-.244-1.154A2.909 2.909 0 0 1 8.42 6.9c.956 0 1.781.44 2.325 1.125"/>
  </g>
  <defs>
    <clipPath id="Salesforce_svg__a">
      <path fill="#fff" d="M0 0h24v24H0z"/>
    </clipPath>
  </defs>
</svg>
