<svg width="24" height="24" viewBox="0 0 24 24" fill="none" xmlns="http://www.w3.org/2000/svg">
<circle cx="12" cy="12" r="11" fill="white"/>
<path fill-rule="evenodd" clip-rule="evenodd" d="M24 12C24 18.6274 18.6274 24 12 24C5.37258 24 0 18.6274 0 12C0 5.37258 5.37258 0 12 0C18.6274 0 24 5.37258 24 12ZM16.1011 13.1077C15.7134 13.1103 15.6437 13.0439 15.6413 12.6619C15.6406 12.5642 15.642 12.4665 15.6434 12.3687V12.3687V12.3687V12.3686C15.6461 12.1759 15.6489 11.9831 15.6361 11.7914C15.6215 11.5703 15.6969 11.4892 15.9125 11.521C15.9474 11.5261 15.9833 11.5243 16.0193 11.5226C16.0565 11.5207 16.0937 11.5189 16.1297 11.5247C16.3869 11.5667 16.4639 11.4672 16.4602 11.2068C16.4567 10.9685 16.4019 10.8601 16.1526 10.9018C16.1219 10.907 16.0901 10.9053 16.0583 10.9036C16.0274 10.9019 15.9964 10.9002 15.9665 10.9048C15.7173 10.9434 15.6023 10.8615 15.6368 10.5906C15.6513 10.4764 15.6482 10.36 15.6446 10.2225V10.2224C15.6428 10.1542 15.6408 10.0809 15.6408 10C15.5657 10.0584 15.4958 10.1129 15.4295 10.1646L15.4273 10.1663L15.4267 10.1668L15.4266 10.1669L15.4264 10.167C15.2706 10.2886 15.1345 10.3948 14.9971 10.4991C14.9152 10.5612 14.8864 10.6382 14.887 10.7398C14.8883 11.0048 14.888 11.2697 14.8877 11.5347C14.887 12.0162 14.8864 12.4976 14.8961 12.9789C14.904 13.3763 15.1419 13.6779 15.4918 13.7603C15.7665 13.8252 16.0481 13.8035 16.3262 13.7567C16.4431 13.737 16.4956 13.6805 16.5052 13.55C16.5376 13.1138 16.5358 13.1048 16.1011 13.1077ZM3.26353 10.549C4.02303 10.3106 4.68489 10.7551 4.72001 11.5598C4.73823 11.9753 4.73499 12.3916 4.73174 12.8079C4.7298 13.0559 4.72787 13.304 4.73047 13.5519C4.73228 13.717 4.66752 13.7602 4.51072 13.767L4.49315 13.7678C4.2337 13.7791 4.103 13.7848 4.03708 13.7223C3.97017 13.6588 3.97001 13.5249 3.96967 13.2553L3.96966 13.2527C3.96951 13.1215 3.96987 12.9902 3.97023 12.859C3.9712 12.5024 3.97218 12.1459 3.96294 11.7896C3.95285 11.3986 3.8323 11.247 3.54094 11.2022C3.23712 11.1554 2.99496 11.3052 2.8632 11.625C2.78723 11.8093 2.75858 12.0032 2.75833 12.2018C2.75817 12.3292 2.757 12.4566 2.75582 12.584V12.584C2.75298 12.8925 2.75013 13.2011 2.76163 13.5091C2.7696 13.7227 2.69065 13.7688 2.49487 13.768L2.47043 13.768C2.00406 13.7665 2.004 13.7665 2.004 13.2745L2.00395 12.8309C2.00387 12.1901 2.00379 11.5493 2.00425 10.9085C2.00427 10.8852 2.00319 10.8612 2.00212 10.8373L2.00212 10.8373C1.99544 10.6879 1.9888 10.5394 2.24648 10.5749C2.28884 10.5807 2.33574 10.5795 2.38272 10.5782H2.38274C2.56792 10.5732 2.75415 10.5682 2.66698 10.9979C2.87988 10.7428 3.05237 10.6152 3.26353 10.549ZM6.76374 11.8495C6.88624 11.8476 7.00869 11.8457 7.13053 11.8538C7.29641 11.8651 7.31821 11.789 7.29735 11.6502C7.24629 11.3111 6.98687 11.0967 6.61973 11.1003C6.26044 11.1038 5.96335 11.3601 5.92879 11.6886C5.91646 11.8063 5.94728 11.8585 6.07531 11.8522C6.19815 11.8461 6.32138 11.8474 6.44459 11.8488H6.4446C6.49739 11.8494 6.55017 11.85 6.60292 11.85V11.8512C6.65645 11.8512 6.71002 11.8504 6.76358 11.8495L6.76373 11.8495H6.76374ZM5.17477 11.8735C5.24613 11.1467 5.68513 10.6355 6.37426 10.5184C7.38266 10.3471 8.16831 11.0722 8.0731 12.2646C8.06245 12.3974 7.98642 12.4066 7.88411 12.4057C7.6594 12.4039 7.43468 12.4044 7.20994 12.4048H7.20964H7.20962H7.20961H7.20959H7.20958H7.20956L6.98121 12.4052C6.8976 12.4053 6.81397 12.4059 6.73033 12.4066H6.73032H6.73031H6.73029H6.73028H6.73027H6.73026H6.73024H6.73023H6.73022H6.73017C6.52321 12.4082 6.31622 12.4099 6.10956 12.4025C5.9545 12.3969 5.90077 12.4516 5.93271 12.5993C5.99641 12.8937 6.14941 13.13 6.44824 13.2052C6.74253 13.2792 7.02772 13.2469 7.21845 12.9531C7.29255 12.839 7.81331 12.756 7.92689 12.8314M5.17477 11.8735C5.08721 12.7644 5.41973 13.4574 6.06292 13.7245L5.17477 11.8735ZM6.06292 13.7245C6.81214 14.0356 7.66032 13.7283 7.92633 13.0474L6.06292 13.7245ZM7.92633 13.0474C7.93205 13.0328 7.94008 13.0179 7.94821 13.0029L7.92633 13.0474ZM11.2834 10.8807C11.2967 10.5741 11.1483 10.5748 10.979 10.5757H10.979C10.944 10.5758 10.9081 10.576 10.8725 10.5735C10.6353 10.5567 10.4981 10.5795 10.5078 10.8925C10.5106 10.9833 10.5142 11.0741 10.5177 11.165C10.5363 11.643 10.5549 12.1231 10.472 12.5977C10.4077 12.9653 10.1239 13.1828 9.79681 13.1473C9.47475 13.1124 9.31484 12.913 9.30799 12.5074C9.30229 12.169 9.30337 11.8304 9.30445 11.4919V11.4918V11.4917V11.4917V11.4917V11.4917V11.4917C9.30489 11.3537 9.30534 11.2158 9.30532 11.0779V11.0766C9.30529 10.8113 9.30527 10.679 9.23918 10.6161C9.17341 10.5535 9.04221 10.5597 8.78046 10.572L8.76338 10.5728C8.60672 10.5801 8.54532 10.6243 8.54731 10.7888C8.55032 11.0473 8.5486 11.3059 8.54687 11.5645V11.5647V11.5647C8.54418 11.9692 8.54148 12.3737 8.5569 12.7775C8.58642 13.5547 9.23688 13.9975 9.99078 13.7968C10.1879 13.7444 10.3405 13.6256 10.5137 13.4908L10.5138 13.4907C10.5381 13.4718 10.5628 13.4526 10.5881 13.4332V14.0003C10.6377 13.9636 10.6802 13.9306 10.7185 13.9009L10.7185 13.9009C10.7911 13.8445 10.8487 13.7999 10.911 13.7634C11.1971 13.5958 11.2991 13.3672 11.2839 13.0243C11.2524 12.3108 11.2522 11.5941 11.2834 10.8807ZM13.2058 11.8287C13.3519 11.8481 13.498 11.8675 13.6423 11.8962C14.1531 11.9976 14.4376 12.2779 14.4678 12.6868C14.5057 13.2028 14.2777 13.5393 13.7654 13.7228C13.5388 13.804 13.3054 13.844 13.0636 13.8411C12.5715 13.8231 12.1327 13.6747 11.7678 13.3282C11.6578 13.2239 11.6658 13.1654 11.7767 13.0615C12.0058 12.847 12.1858 12.7356 12.4886 13.0024C12.7843 13.2629 13.1777 13.2617 13.5462 13.0981C13.6838 13.037 13.7966 12.9391 13.7716 12.7643C13.7489 12.6056 13.6287 12.5395 13.4893 12.5165C13.3219 12.4888 13.1537 12.4665 12.9854 12.4443L12.9854 12.4443L12.9853 12.4443C12.8971 12.4327 12.809 12.421 12.7209 12.4086C12.2159 12.3374 11.8856 12.0436 11.8426 11.6284C11.792 11.1397 12.0444 10.7645 12.5512 10.598C13.1125 10.4135 13.6528 10.4449 14.1516 10.7921C14.3313 10.9173 14.3704 11.0202 14.1576 11.1816C13.9516 11.3379 13.8106 11.4312 13.5634 11.2302C13.3475 11.0547 13.0586 11.0629 12.7915 11.1704C12.647 11.2284 12.5342 11.3232 12.5523 11.4935C12.5698 11.659 12.6911 11.7481 12.8441 11.7753C12.964 11.7966 13.0849 11.8126 13.2057 11.8287H13.2057L13.2058 11.8287ZM21.7497 10.5314C21.9338 10.5314 22.0244 10.5757 21.9943 10.7742C21.9836 10.8452 21.9879 10.9196 21.9937 10.9917C22.008 11.1663 21.9985 11.262 21.7556 11.2477C21.2547 11.2181 20.9379 11.5378 20.9111 12.0761C20.8878 12.5417 20.8894 13.0096 20.9054 13.4757C20.9137 13.715 20.8308 13.7764 20.6026 13.7683C20.5357 13.7659 20.4782 13.7648 20.4287 13.7639C20.2692 13.7609 20.1934 13.7595 20.1583 13.721C20.1265 13.6861 20.1281 13.6207 20.1311 13.4962C20.1324 13.4453 20.1339 13.3846 20.1334 13.312C20.1286 12.5237 20.1268 11.7355 20.138 10.9474C20.1384 10.9177 20.1327 10.8839 20.1267 10.849L20.1267 10.849C20.1059 10.7277 20.0829 10.5936 20.3119 10.5745C20.7598 10.5372 20.8233 10.5628 20.8899 10.906C21.1318 10.6624 21.409 10.5314 21.7497 10.5314ZM18.8341 12.598C18.7807 13.0384 18.2818 13.3444 17.8606 13.1895C17.6787 13.1227 17.5613 12.9984 17.5781 12.7949C17.5959 12.579 17.7464 12.4615 17.94 12.4256C18.0931 12.3971 18.2492 12.3854 18.4144 12.3731L18.4145 12.3731L18.4145 12.3731C18.489 12.3675 18.5654 12.3618 18.6442 12.3543C18.846 12.2961 18.8547 12.4282 18.8341 12.598ZM19.5861 11.6378C19.5591 10.9213 19.2634 10.6076 18.5583 10.5053C18.213 10.4552 17.8746 10.4992 17.5556 10.6466C17.2756 10.7759 17.0951 10.9946 17.0175 11.2926L17.0114 11.3149C16.9945 11.3753 16.9753 11.4439 17.0326 11.4977C17.1345 11.5933 17.6873 11.4997 17.7603 11.3771C17.9293 11.0937 18.3802 10.9813 18.6544 11.1546C18.8548 11.2814 18.8629 11.4865 18.8329 11.6807C18.8123 11.8133 18.7149 11.8024 18.6214 11.7919C18.5861 11.788 18.5513 11.7841 18.5214 11.788C18.3864 11.8056 18.2503 11.8155 18.1142 11.8254L18.1142 11.8254C18.0123 11.8328 17.9104 11.8403 17.8089 11.8509C17.2391 11.9109 16.8485 12.2869 16.8245 12.7924C16.7994 13.3207 17.153 13.723 17.741 13.8241C18.147 13.894 18.4954 13.7683 18.8575 13.4131C18.7908 13.7548 18.9426 13.7904 19.1497 13.7653C19.2214 13.7567 19.2956 13.7574 19.3673 13.7651C19.5414 13.7836 19.6061 13.714 19.6032 13.5362C19.5989 13.2796 19.5991 13.0228 19.5994 12.7661V12.766C19.5999 12.3897 19.6003 12.0135 19.5861 11.6378Z" fill="#333333"/>
</svg>
