<svg width="24" height="24" fill="none" xmlns="http://www.w3.org/2000/svg">
  <g clip-path="url(#Cognitiv_svg__a)">
    <path fill="#E91D76" fill-rule="evenodd" d="M12 24c6.627 0 12-5.373 12-12S18.627 0 12 0 0 5.373 0 12s5.373 12 12 12Z" clip-rule="evenodd"/>
    <path fill="#fff" fill-opacity=".12" fill-rule="evenodd" d="M24 12c0 6.627-5.373 12-12 12S0 18.627 0 12 5.373 0 12 0s12 5.373 12 12ZM12 23.5c6.351 0 11.5-5.149 11.5-11.5S18.351.5 12 .5.5 5.649.5 12 5.649 23.5 12 23.5Z" clip-rule="evenodd"/>
    <path fill="#fff" fill-rule="evenodd" d="M20.864 11.685C20.537 10.272 17.896 5.5 11.83 5.5 7.038 5.5 3 8.142 3 11.937c0 2.002 1.657 3.746 4.26 3.746h.112c.592 1.191 1.69 1.623 2.844 1.623a5.51 5.51 0 0 0 2.414-.64c.175-.101.371-.161.573-.174.145 0 .284.055.39.153.124.104 1.062.91 1.408 1.208a.067.067 0 0 0 .103-.019.069.069 0 0 0 .008-.039l-.06-.65 1.747 1.228a.067.067 0 0 0 .105-.038.068.068 0 0 0-.003-.043l-.912-2.27c.27.063.547.095.824.097.609.016 1.201-.2 1.656-.605.233-.186.505-.318.795-.386 1.764-.743 1.927-2.03 1.6-3.443Zm-.772 1.963-.862-.96a.538.538 0 0 0-.029-.69l.701-.925c.123.245.222.502.294.767.181.784.157 1.363-.104 1.808Zm-.138.148-.874-.973a.538.538 0 0 1-.55.005l-.563.65 1.987.318Zm-2.229-.35.651-.75a.538.538 0 0 1-.095-.486l-1.468-.746a.54.54 0 0 1-.413.21l-.225 1.365a.54.54 0 0 1 .346.408h1.204Zm-1.346.476a.539.539 0 0 0 .142-.274h1.133l-.28 1.683-.995-1.409Zm-.555.14a.542.542 0 0 0 .392-.024l.964 1.363c-.12.02-.241.03-.363.03a3.176 3.176 0 0 1-.68-.08l.002.001-.92-.203.605-1.088Zm-.18-.1-.633 1.14-1.73-.867 1.252-1.841.992.877a.537.537 0 0 0 .119.69Zm.013-.841c.09-.07.2-.112.321-.114l.224-1.365a.543.543 0 0 1-.22-.15l-1.297.767.972.862ZM18.8 11.82a.54.54 0 0 1 .242.057l.76-1.005a8.076 8.076 0 0 0-.56-.915l-2.33 1.05a.539.539 0 0 1-.007.277l1.467.746a.54.54 0 0 1 .428-.21ZM7.898 15.013l1.335-1.075 1.158.12c.01.127.065.241.148.328l-.59.826-2.05-.2Zm2.805-.51-.582.81.964 1.19 1.849-2.152-1.49-.176a.54.54 0 0 1-.741.328Zm.766-.528 1.546.183-.306-2.14a.538.538 0 0 1-.201-.049l-1.188 1.67a.54.54 0 0 1 .149.336Zm1.727.026-.287-2.012a.542.542 0 0 0 .274-.213l1.18.51-1.167 1.715Zm1.216-1.907-1.152-.498a.543.543 0 0 0-.153-.508l1.2-1.842a.535.535 0 0 0 .105.031v2.817Zm-1.473-1.115 1.206-1.837a.541.541 0 0 1-.085-.1l-2.607 1.069.966.927a.538.538 0 0 1 .52-.06Zm-1.573-1.051 2.617-1.073a.545.545 0 0 1-.007-.17l-2.268-.704a.541.541 0 0 1-.368.276l.026 1.67Zm2.67-1.435-2.268-.705a.564.564 0 0 0-.023-.229l2.102-1.165.445 1.859a.537.537 0 0 0-.256.24Zm-.495-2.159-1.893 1.049a.54.54 0 0 0-.377-.195l-.115-.98c.224-.013.45-.02.676-.02a9.841 9.841 0 0 1 1.708.145v.001Zm-2.588-.116.116.993a.541.541 0 0 0-.283.21L8.85 6.567a11.285 11.285 0 0 1 2.103-.349Zm-2.38.446 2.132.94a.542.542 0 0 0-.008.2l-2.674.912a.543.543 0 0 0-.181-.19l.731-1.862Zm-.485 2.244 2.674-.913a.541.541 0 0 0 .377.265l.026 1.684-3.075-.906a.547.547 0 0 0-.002-.13Zm5.978-2.465.423 1.763h.024c.158 0 .3.068.4.176l1.572-.972a8.695 8.695 0 0 0-2.419-.967Zm2.593 1.095-1.64 1.016a.536.536 0 0 1 .031.13l2.049.147-.44-1.293Zm.44 1.495-2.063-.148a.538.538 0 0 1-.115.216l1.217 1.552a.539.539 0 0 1 .349-.051l.612-1.569Zm-1.12 1.745L14.76 9.227a.536.536 0 0 1-.148.05v2.788l1.265-.748a.54.54 0 0 1 .1-.539Zm-4.718-.571 1.018.976a.538.538 0 0 0 .063.668l-1.188 1.67a.538.538 0 0 0-.4-.02l-.95-1.687a.54.54 0 0 0 .14-.646l1.317-.961Zm-.68 3.391-.951-1.686a.539.539 0 0 1-.129.026l-.19 1.809 1.1.111a.541.541 0 0 1 .17-.26Zm-5.446-3.24a.538.538 0 0 1 .387.129L7.078 9.24a.538.538 0 0 1-.066-.255L5.1 8.634a5.57 5.57 0 0 0-.32.355l.354 1.368Zm-.194.05-.314-1.22a4.637 4.637 0 0 0-.895 2.127l.905-.33a.544.544 0 0 1 .304-.578Zm-.234.766-1 .365c-.013.131-.02.264-.02.399.002.533.152 1.055.433 1.508l.772-2.086a.544.544 0 0 1-.185-.186Zm.375.256-.803 2.169 2.06-.637a.547.547 0 0 1 .117-.4l-1.018-1.196a.538.538 0 0 1-.356.064Zm.51-.195 1.018 1.196a.538.538 0 0 1 .259-.07l.495-2.872a.54.54 0 0 1-.162-.095l-1.554 1.25a.538.538 0 0 1-.056.591Zm1.97-1.713-.496 2.873c.085.032.16.084.219.152l1.661-.967a.54.54 0 0 1 .102-.535L7.801 9.462a.538.538 0 0 1-.24.06Zm.398-.185 1.247 1.583a.538.538 0 0 1 .618.085l1.218-.889-3.01-.887a.542.542 0 0 1-.073.108Zm-.306-.886.68-1.732v-.001a8.64 8.64 0 0 0-2.318 1.139c-.26.183-.507.385-.738.604l1.77.326a.54.54 0 0 1 .606-.336Zm9.175 2.372 2.258-1.018-1.788-.73-.625 1.6c.061.04.114.09.155.148Zm-7.716 2.87.188-1.775a.54.54 0 0 1-.253-.163l-1.661.967a.54.54 0 0 1 .02.284l1.706.687Zm-1.781-.5 1.67.673L7.69 14.92l-.542-1.55a.542.542 0 0 0 .185-.177Zm-.52.245a.53.53 0 0 0 .147-.003l.544 1.558-.143.005h-.099a4.64 4.64 0 0 1-.918-.091l.47-1.47Zm-.412-.283c.05.094.127.171.22.222l-.475 1.488a3.312 3.312 0 0 1-1.786-1.082l.001.001 2.04-.63Zm12.51-3.64-1.587-.65-.403-1.184a8.725 8.725 0 0 1 1.99 1.834ZM7.989 15.38l-.08-.162 1.835.178-1.02.827a2.122 2.122 0 0 1-.736-.845v.002Zm2.229 1.241a2.794 2.794 0 0 1-1.309-.288l1.075-.871.887 1.097a3.67 3.67 0 0 1-.653.062Zm2.104-.564c-.29.147-.59.27-.9.366l1.631-1.899.105 1.287a1.99 1.99 0 0 0-.838.245l.002.001Zm3.127.527-1.105-.777a.063.063 0 0 0-.068-.003.064.064 0 0 0-.031.06l.044.471-.014-.011-.236-.203a1.26 1.26 0 0 0-.677-.302l-.112-1.375 1.714.857.527 1.31-.042-.027ZM19 14.494c-.012.005-.046.015-.075.024l-.013.004c-.33.087-.634.25-.891.473a1.77 1.77 0 0 1-.433.284l.268-1.615 1.972.316a2.67 2.67 0 0 1-.83.513l.002.001Z" clip-rule="evenodd"/>
    <path fill="#fff" d="m20.082 17.928-.324-.825h-.175v1.016h.137v-.402l-.013-.41h.003l.328.813h.09l.33-.816h.003l-.013.413v.402h.137v-1.016h-.176l-.323.825h-.004Zm-.976-.718h.327v-.108h-.79v.108h.326v.907h.137v-.907Z"/>
  </g>
  <defs>
    <clipPath id="Cognitiv_svg__a">
      <path fill="#fff" d="M0 0h24v24H0z"/>
    </clipPath>
  </defs>
</svg>
