<svg width="16" height="16" viewBox="0 0 16 16" fill="none" xmlns="http://www.w3.org/2000/svg">
<path fill-rule="evenodd" clip-rule="evenodd" d="M9.97457 1H10.0658C11.8336 1 13.2667 2.43313 13.2667 4.20098V6.125C13.2667 6.17994 13.2608 6.23351 13.2496 6.28509L14.4795 7.63791C14.8141 8.00606 14.9996 8.48573 14.9996 8.98326V14C14.9996 15.1046 14.1041 16 12.9996 16H7.99957C7.25921 16 6.6128 15.5977 6.26702 14.9998C6.26122 14.9999 6.25541 15 6.24957 15H4.1834C2.41555 15 0.982422 13.5669 0.982422 11.799V4.20098C0.982422 2.48666 2.32979 1.08687 4.02379 1.00389C4.1381 0.431393 4.64346 0 5.24957 0H8.74957C9.35431 0 9.85875 0.42944 9.97457 1ZM4.24948 2.5H4.18301C3.24374 2.5 2.48242 3.2614 2.48242 4.20098V11.799C2.48242 12.7384 3.24398 13.5 4.1834 13.5H5.99957V7C5.99957 5.89543 6.895 5 7.99957 5H11.1966C11.3916 5 11.5835 5.02847 11.7667 5.08298V4.20098C11.7667 3.26155 11.0052 2.5 10.0658 2.5H9.74966C9.52161 2.80361 9.15853 3 8.74957 3H5.24957C4.84062 3 4.47753 2.80361 4.24948 2.5ZM4.99957 1.75V1.25C4.99957 1.11193 5.1115 1 5.24957 1H8.74957C8.88764 1 8.99957 1.11193 8.99957 1.25V1.75C8.99957 1.88807 8.88764 2 8.74957 2H5.24957C5.1115 2 4.99957 1.88807 4.99957 1.75ZM7.49957 7C7.49957 6.72386 7.72343 6.5 7.99957 6.5H10.9996V9C10.9996 9.55228 11.4473 10 11.9996 10H13.4996V14C13.4996 14.2761 13.2757 14.5 12.9996 14.5H7.99957C7.72343 14.5 7.49957 14.2761 7.49957 14V7ZM13.4996 9V8.98326C13.4996 8.85888 13.4532 8.73896 13.3695 8.64692L11.9996 7.13996V9H13.4996Z" fill="black" fill-opacity="0.84"/>
</svg>
