<svg viewBox="0 0 16 16" fill="none" xmlns="http://www.w3.org/2000/svg">
  <path fill-rule="evenodd" clip-rule="evenodd" d="M9.975 1h.091c1.768 0 3.201 1.433 3.201 3.201v1.924c0 .055-.006.109-.017.16l1.23 1.353c.335.368.52.848.52 1.345V14c0 1.105-.895 2-2 2H8c-.74 0-1.387-.402-1.732-1H4.184C2.416 15 .983 13.567.983 11.799V4.201c0-1.714 1.347-3.114 3.041-3.197C4.14.43 4.644 0 5.25 0h3.5c.605 0 1.11.43 1.225 1zM4.25 2.5h-.066c-.94 0-1.701.761-1.701 1.701v7.598c0 .94.761 1.701 1.7 1.701H6V7c0-1.105.895-2 2-2h3.197c.195 0 .387.028.57.083v-.882c0-.94-.761-1.701-1.7-1.701H9.75c-.228.304-.591.5-1 .5h-3.5c-.409 0-.772-.196-1-.5zM5 1.75v-.5c0-.138.112-.25.25-.25h3.5c.138 0 .25.112.25.25v.5c0 .138-.112.25-.25.25h-3.5C5.112 2 5 1.888 5 1.75zM7.5 7c0-.276.224-.5.5-.5h3V9c0 .552.448 1 1 1h1.5v4c0 .276-.224.5-.5.5H8c-.276 0-.5-.224-.5-.5V7zm6 2v-.017c0-.124-.046-.244-.13-.336L12 7.14V9h1.5z" fill="#000"/>
</svg>
