<svg width="16" height="16" viewBox="0 0 16 16" fill="none" xmlns="http://www.w3.org/2000/svg">
<path d="M7.48598 0.20385C7.77477 -0.06795 8.22524 -0.06795 8.51403 0.20385L12.764 4.20385C13.0657 4.48774 13.08 4.96239 12.7962 5.26402C12.5123 5.56565 12.0376 5.58004 11.736 5.29615L9 2.72111V10.25C9 10.6642 8.66421 11 8.25 11C7.83579 11 7.5 10.6642 7.5 10.25V2.25053L4.26403 5.29615C3.9624 5.58004 3.48774 5.56565 3.20385 5.26402C2.91996 4.96239 2.93435 4.48774 3.23598 4.20385L7.48598 0.20385Z" fill="black" fill-opacity="0.84"/>
<path d="M2.5 8.75C2.5 8.33579 2.16421 8 1.75 8C1.33579 8 1 8.33579 1 8.75V11.75C1 13.5449 2.45507 15 4.25 15H11.75C13.5449 15 15 13.5449 15 11.75V8.75C15 8.33579 14.6642 8 14.25 8C13.8358 8 13.5 8.33579 13.5 8.75V11.75C13.5 12.7165 12.7165 13.5 11.75 13.5H4.25C3.2835 13.5 2.5 12.7165 2.5 11.75V8.75Z" fill="black" fill-opacity="0.84"/>
</svg>
