<svg viewBox="0 0 24 24" fill="none" xmlns="http://www.w3.org/2000/svg">
  <path d="M11.36 1.232c-.016.013-.032.027-.047.042L4.94 7.272c-.403.378-.422 1.011-.043 1.413.378.403 1.011.422 1.413.043L11 4.314V15.5c0 .552.448 1 1 1s1-.448 1-1V4.314l4.69 4.414c.402.379 1.035.36 1.413-.043.379-.402.36-1.035-.043-1.413l-6.374-6-.034-.03C12.477 1.09 12.249 1 12 1c-.167 0-.324.04-.463.113-.062.033-.121.072-.177.119z" fill="#000"/>
  <path d="M4 13c0-.552-.448-1-1-1s-1 .448-1 1v5c0 2.21 1.79 4 4 4h12c2.21 0 4-1.79 4-4v-5c0-.552-.448-1-1-1s-1 .448-1 1v5c0 1.105-.895 2-2 2H6c-1.105 0-2-.895-2-2v-5z" fill="#000"/>
</svg>
