<svg width="24" height="24" viewBox="0 0 24 24" fill="none" xmlns="http://www.w3.org/2000/svg">
<circle cx="12" cy="12" r="11" fill="white"/>
<path fill-rule="evenodd" clip-rule="evenodd" d="M24 12C24 18.6274 18.6274 24 12 24C5.37258 24 0 18.6274 0 12C0 5.37258 5.37258 0 12 0C18.6274 0 24 5.37258 24 12ZM21.3652 11.1955C21.307 10.6559 20.9473 10.4232 20.4289 10.4232C20.0056 10.4232 19.5825 10.5766 19.5825 11.0686C19.5825 11.4809 20.0558 11.582 20.5867 11.6953C20.6551 11.7099 20.7245 11.7247 20.7939 11.7404C21.397 11.8779 22 12.0895 22 12.8301C22 13.6342 21.2118 13.9569 20.5241 13.9569C19.6777 13.9569 18.9636 13.5443 18.9636 12.6238H19.4397C19.4397 13.2586 19.9686 13.5337 20.54 13.5337C20.9949 13.5337 21.4975 13.3908 21.4975 12.8459C21.4975 12.3642 20.9765 12.2525 20.4189 12.1329L20.4184 12.1328C20.3762 12.1237 20.3338 12.1147 20.2914 12.1054C19.6883 11.9731 19.08 11.7986 19.08 11.1056C19.08 10.3385 19.7623 10 20.45 10C21.2223 10 21.8096 10.365 21.8413 11.1955H21.3652ZM12.7273 11.9255L11.4842 10.0899H12.0872L13.0289 11.5658L14.0128 10.0899H14.5736L13.3252 11.9255L14.6529 13.8669H14.0393L13.0236 12.3064L11.9761 13.8669H11.4102L12.7273 11.9255ZM3.61881 11.5658L4.60267 10.0899H5.16342L3.91508 11.9255L5.24277 13.867H4.62917L3.61346 12.3064L2.56603 13.867H2L3.31726 11.9255L2.07414 10.0899H2.6771L3.61881 11.5658ZM8.32645 10.5449L8.95598 12.3064H7.67579L8.31588 10.5449H8.32645ZM8.60686 10.0899H8.05133L6.57551 13.8669H7.0939L7.51708 12.7296H9.11461L9.5273 13.8669H10.0827L8.60686 10.0899ZM16.959 13.8669H16.4564V10.0899H16.959V13.8669Z" fill="#333333"/>
</svg>
