<svg width="24" height="24" fill="none" xmlns="http://www.w3.org/2000/svg">
  <g clip-path="url(#Branch-Metrics_svg__a)">
    <path fill="#000" d="M24 12c0 6.627-5.373 12-12 12S0 18.627 0 12 5.373 0 12 0s12 5.373 12 12Z"/>
    <path fill="#fff" fill-opacity=".12" fill-rule="evenodd" d="M24 12c0 6.627-5.373 12-12 12S0 18.627 0 12 5.373 0 12 0s12 5.373 12 12ZM12 23.5c6.351 0 11.5-5.149 11.5-11.5S18.351.5 12 .5.5 5.649.5 12 5.649 23.5 12 23.5Z" clip-rule="evenodd"/>
    <path fill="#fff" fill-rule="evenodd" d="m10.812 23.44.201-7.222L8.4 14.573a2.381 2.381 0 0 1-3.783-1.081A2.354 2.354 0 0 1 5 11.308a2.374 2.374 0 0 1 2.032-.91c.862.054 1.618.604 1.993 1.38a2.21 2.21 0 0 1 .168 1.515l1.875 1.189.186-6.037a2.05 2.05 0 0 1-1.296-1.646 2.032 2.032 0 0 1 .84-1.917 2.057 2.057 0 0 1 2.91.541 2.034 2.034 0 0 1-.976 3.022l.102 2.913 1.722-1.064a2.236 2.236 0 0 1 .165-1.53c.234-.474.63-.851 1.116-1.064a2.266 2.266 0 0 1 2.788.813 2.237 2.237 0 0 1-.33 2.873 2.26 2.26 0 0 1-2.9.168l-2.501 1.523.13 3.65 1.794-1.104a1.887 1.887 0 0 1 .447-1.564 1.903 1.903 0 0 1 1.5-.645c.487.02.949.22 1.294.564.344.343.546.802.566 1.287a1.901 1.901 0 0 1-.998 1.73 1.925 1.925 0 0 1-2.002-.101l-2.542 1.552.106 4.993a11.636 11.636 0 0 1-2.376 0Z" clip-rule="evenodd"/>
  </g>
  <defs>
    <clipPath id="Branch-Metrics_svg__a">
      <path fill="#fff" d="M0 0h24v24H0z"/>
    </clipPath>
  </defs>
</svg>
