<svg width="96" height="64" viewBox="0 0 96 64" fill="none" xmlns="http://www.w3.org/2000/svg">
<path fill-rule="evenodd" clip-rule="evenodd" d="M65 61C71.6274 61 77 55.6274 77 49C77 42.3726 71.6274 37 65 37C58.3726 37 53 42.3726 53 49C53 55.6274 58.3726 61 65 61Z" fill="white"/>
<path d="M65 38.0286C58.9318 38.0286 54.0286 42.9332 54.0286 49.003C54.0286 53.989 57.3606 58.2162 61.9117 59.544C61.3429 56.7529 59.6904 49.1927 59.3382 47.0791C58.9589 44.9113 59.3382 43.3668 60.8011 42.608C61.3158 42.3371 62.0201 42.1474 62.8057 42.0661C61.8576 41.6325 60.6927 41.4699 59.6362 41.5783C59.6362 41.1177 60.4218 41.1448 60.7198 40.9551C60.5302 40.928 60.0425 40.4944 59.8258 40.4673C61.1532 40.2235 62.589 40.4673 63.7539 41.0906C64.3769 41.4157 64.8104 41.768 65.0813 42.1474C65.7856 42.2829 66.4087 42.5267 66.815 42.9332C68.0341 44.1797 69.1448 46.9978 68.6842 48.6237C68.5488 49.0843 68.2508 49.4095 67.8715 49.6805C67.1401 50.2224 67.2755 49.0843 65.4605 50.2495C65.2438 50.385 65.2438 51.5502 65.1625 51.8212C64.7833 53.3657 65.6502 55.7503 66.4899 57.4575C66.7608 57.9994 67.1672 58.7852 67.6277 59.6524C72.4226 58.4872 75.9714 54.1516 75.9714 49.003C75.9714 42.9332 71.0681 38.0286 65 38.0286Z" fill="#DE5833"/>
<path d="M62.5077 42.1203C61.8846 41.9306 61.0448 41.8222 60.1779 41.8222C59.8799 41.8222 59.609 41.8222 59.3652 41.8493H59.3381V41.8222C59.3381 41.6867 59.4465 41.2803 60.0154 41.1448L59.8528 41.2532C59.7174 41.3345 59.6632 41.4158 59.6632 41.5241C59.8528 41.497 60.0696 41.497 60.2863 41.497C61.1803 41.497 62.0742 41.6867 62.8327 42.0119L62.914 42.0661H62.8056C62.7244 42.0932 62.616 42.1203 62.5077 42.1203Z" fill="#CCCCCC"/>
<path d="M61.2886 59.3271C61.099 58.4328 60.8552 57.3219 60.5843 56.1025C59.907 52.905 59.0672 48.9216 58.8234 47.4855C58.4442 45.3719 59.1756 43.5834 60.5572 42.7434L60.4759 42.8518C59.3652 43.6105 59.0131 44.9925 59.3923 47.079C59.6632 48.6507 60.6655 53.2843 61.3699 56.6715C61.6137 57.8096 61.9388 59.4626 61.9388 59.5438C61.8304 59.5167 61.2886 59.3542 61.2886 59.3271Z" fill="#CCCCCC"/>
<path d="M60.503 41.0634C60.3947 41.0092 60.2863 40.9821 60.1509 40.9279C59.8529 40.7925 59.3923 40.5757 59.3923 40.5757C59.4736 40.5486 59.6091 40.4944 59.9612 40.4402C60.0967 40.4673 60.1238 40.6028 60.2863 40.7112C60.4488 40.8196 60.6114 40.9279 60.6927 40.9279H60.7739L60.7197 40.955C60.6927 41.0092 60.6114 41.0363 60.503 41.0634Z" fill="#CCCCCC"/>
<path d="M65.3522 56.6716C65.3522 56.6716 62.3181 55.0729 62.291 55.7232C62.2368 56.3736 62.291 59.0562 62.6432 59.2459C62.9953 59.4356 65.5147 57.9452 65.5147 57.9452L65.3522 56.6716Z" fill="#65BC46"/>
<path d="M66.5171 56.5633C66.5171 56.5633 68.5759 54.9917 69.0364 55.1001C69.497 55.2085 69.5782 58.4331 69.199 58.5686C68.7926 58.704 66.4358 57.7556 66.4358 57.7556L66.5171 56.5633Z" fill="#65BC46"/>
<path d="M64.6208 56.8343C64.6208 57.8911 64.4583 58.3518 64.9188 58.4331C65.3794 58.5415 66.2192 58.4331 66.5442 58.2434C66.8422 58.0537 66.5984 56.6717 66.4901 56.4279C66.3817 56.184 64.6208 56.3737 64.6208 56.8343Z" fill="#43A244"/>
<path d="M64.8103 56.5904C64.8103 57.6472 64.6478 58.1079 65.1083 58.1892C65.5688 58.2976 66.4086 58.1892 66.7066 57.9995C67.0046 57.8098 66.7608 56.4278 66.6524 56.184C66.5711 55.9401 64.8103 56.1298 64.8103 56.5904Z" fill="#65BC46"/>
<path d="M64.377 50.3578C64.4583 49.8701 65.7315 48.9487 66.6254 48.8946C67.5194 48.8404 67.8174 48.8404 68.5488 48.6778C69.3074 48.4881 71.2307 48.0274 71.7725 47.7565C72.3143 47.5126 74.5899 47.8919 72.9916 48.7591C72.2872 49.1384 70.4451 49.8701 69.0906 50.2494C67.7632 50.6559 66.9505 49.8701 66.5171 50.5204C66.1649 51.0353 66.4358 51.7669 68.0341 51.9024C70.1742 52.0921 72.2602 50.9269 72.4769 51.5501C72.6936 52.1733 70.6348 52.9321 69.3615 52.9592C68.0883 52.9863 65.5418 52.1192 65.1626 51.8482C64.7833 51.6314 64.2686 51.0082 64.377 50.3578Z" fill="#FDD20A"/>
<path fill-rule="evenodd" clip-rule="evenodd" d="M61.8847 46.4287C61.4242 46.4287 61.072 46.781 61.072 47.2416C61.072 47.6752 61.4513 48.0546 61.8847 48.0546C62.3452 48.0546 62.6974 47.7023 62.6974 47.2416C62.6974 46.781 62.3452 46.4287 61.8847 46.4287ZM62.264 46.7539C62.1285 46.7539 62.0473 46.8623 62.0473 46.9707C62.0473 47.0791 62.1285 47.1603 62.264 47.1874C62.3994 47.1874 62.4807 47.0791 62.4807 46.9707C62.4807 46.8352 62.3723 46.7539 62.264 46.7539Z" fill="#2D4F8E"/>
<path fill-rule="evenodd" clip-rule="evenodd" d="M67.3298 46.0493C66.9506 46.0493 66.6255 46.3745 66.6255 46.7539C66.6255 47.1332 66.9235 47.4584 67.3298 47.4584C67.7091 47.4584 68.0342 47.1332 68.0342 46.7539C68.0342 46.3745 67.7091 46.0493 67.3298 46.0493ZM67.6276 46.6997C67.5193 46.6997 67.438 46.6184 67.438 46.51C67.438 46.4016 67.5193 46.3203 67.6276 46.3203C67.736 46.3203 67.8172 46.4016 67.8172 46.51C67.8172 46.6184 67.736 46.6997 67.6276 46.6997Z" fill="#2D4F8E"/>
<path d="M62.1284 44.8841C62.1284 44.8841 61.5053 44.6132 60.9094 44.9925C60.3134 45.3719 60.3405 45.7513 60.3405 45.7513C60.3405 45.7513 60.0154 45.0467 60.8552 44.6945C61.695 44.3422 62.1284 44.8841 62.1284 44.8841Z" fill="#2D4F8E"/>
<path d="M67.736 44.8299C67.736 44.8299 67.3025 44.5861 66.9504 44.5861C66.246 44.5861 66.0564 44.9112 66.0564 44.9112C66.0564 44.9112 66.1648 44.1796 67.0587 44.3151C67.5734 44.3964 67.736 44.8299 67.736 44.8299Z" fill="#2D4F8E"/>
<path fill-rule="evenodd" clip-rule="evenodd" d="M65 61C71.6274 61 77 55.6274 77 49C77 42.3726 71.6274 37 65 37C58.3726 37 53 42.3726 53 49C53 55.6274 58.3726 61 65 61Z" fill="#DE5833"/>
<path fill-rule="evenodd" clip-rule="evenodd" d="M66.6876 57.9531C66.6876 57.8594 66.7106 57.838 66.4126 57.244C65.6206 55.658 64.8246 53.422 65.1866 51.98C65.2526 51.718 64.4406 42.278 63.8666 41.974C63.2286 41.634 62.4436 41.0947 61.7256 40.9747C61.3613 40.9164 60.8837 40.944 60.5103 40.9943C60.4439 41.0032 60.4412 41.1225 60.5046 41.144C60.7497 41.227 61.0474 41.3712 61.2228 41.5893C61.256 41.6305 61.2115 41.6954 61.1585 41.6974C60.9932 41.7035 60.6932 41.7728 60.2974 42.109C60.2516 42.1479 60.2896 42.2201 60.3486 42.2084C61.1992 42.0402 62.0679 42.1231 62.5798 42.5884C62.613 42.6186 62.5956 42.6728 62.5523 42.6845C58.1097 43.8918 58.9891 47.7564 60.1718 52.499C61.1612 56.4662 61.571 57.9086 61.7208 58.413C61.7491 58.5084 61.8185 58.5857 61.9118 58.6201C63.4762 59.1969 66.6876 59.2043 66.6876 58.1875V57.9531Z" fill="#DDDDDD"/>
<path fill-rule="evenodd" clip-rule="evenodd" d="M76.0156 49C76.0156 55.0838 71.0838 60.0156 65 60.0156C58.9162 60.0156 53.9844 55.0838 53.9844 49C53.9844 42.9162 58.9162 37.9844 65 37.9844C71.0838 37.9844 76.0156 42.9162 76.0156 49ZM62.4292 58.7473C62.1248 57.8069 61.2741 55.0815 60.4339 51.6372C60.4059 51.5224 60.3779 51.4082 60.3501 51.2946L60.3494 51.2917C59.3323 47.1375 58.5016 43.7444 63.0545 42.6784C63.0961 42.6687 63.1164 42.6189 63.0889 42.5862C62.5665 41.9665 61.5879 41.7634 60.3505 42.1903C60.2998 42.2078 60.2557 42.1566 60.2873 42.1132C60.5299 41.7787 61.0041 41.5216 61.2382 41.4088C61.2865 41.3855 61.2836 41.3147 61.2324 41.2987C61.0792 41.2507 60.8185 41.1774 60.5253 41.13C60.4559 41.1188 60.4496 40.9999 60.5193 40.9906C62.2735 40.7546 64.1053 41.2812 65.0245 42.4391C65.0332 42.45 65.0457 42.4577 65.0593 42.4606C68.4255 43.1835 68.6665 48.5046 68.2787 48.747C68.2023 48.7948 67.9573 48.7674 67.6341 48.7312C66.3243 48.5847 63.7307 48.2945 65.8713 52.2838C65.8924 52.3232 65.8644 52.3754 65.8203 52.3822C64.6173 52.5693 66.1494 56.3262 67.2851 58.818C71.7503 57.7828 75.0781 53.78 75.0781 49C75.0781 43.434 70.566 38.9219 65 38.9219C59.434 38.9219 54.9219 43.434 54.9219 49C54.9219 53.6775 58.1085 57.6108 62.4292 58.7473Z" fill="white"/>
<path d="M68.8025 54.0059C68.5463 53.8871 67.5609 54.5938 66.907 55.1362C66.7703 54.9428 66.5126 54.8022 65.9313 54.9033C65.4225 54.9918 65.1416 55.1145 65.0163 55.326C64.2133 55.0215 62.8623 54.5516 62.5359 55.0054C62.1792 55.5014 62.6251 57.848 63.0989 58.1527C63.3463 58.3117 64.5297 57.5511 65.1476 57.0266C65.2473 57.1671 65.4078 57.2475 65.7378 57.2398C66.2368 57.2283 67.0463 57.1121 67.1719 56.8797C67.1795 56.8656 67.1861 56.8489 67.1917 56.8299C67.8268 57.0673 68.9447 57.3185 69.1944 57.281C69.8452 57.1833 69.1038 54.1455 68.8025 54.0059Z" fill="#3CA82B"/>
<path d="M66.9669 55.2057C66.9939 55.2537 67.0155 55.3044 67.0339 55.3559C67.1245 55.6092 67.272 56.4148 67.1605 56.6138C67.0489 56.8127 66.3243 56.9088 65.8773 56.9166C65.4303 56.9243 65.3297 56.7608 65.2392 56.5076C65.1667 56.305 65.1311 55.8287 65.1319 55.556C65.1136 55.1514 65.2614 55.0092 65.9446 54.8987C66.4501 54.8169 66.7174 54.912 66.8717 55.0748C67.5894 54.5392 68.7869 53.7832 68.9037 53.9214C69.4861 54.6103 69.5598 56.2502 69.4336 56.91C69.3924 57.1257 67.464 56.6963 67.464 56.4637C67.464 55.4978 67.2133 55.2328 66.9669 55.2057Z" fill="#4CBA3C"/>
<path d="M62.7426 54.904C62.9005 54.6541 64.1814 54.9649 64.8844 55.2778C64.8844 55.2778 64.74 55.9324 64.97 56.7036C65.0373 56.9291 63.3524 57.9331 63.1325 57.7604C62.8784 57.5608 62.4106 55.4295 62.7426 54.904Z" fill="#4CBA3C"/>
<path fill-rule="evenodd" clip-rule="evenodd" d="M63.3629 49.8261C63.4665 49.3755 63.9493 48.5264 65.6731 48.547C66.5446 48.5434 67.6272 48.5466 68.3449 48.4651C69.4116 48.3439 70.2034 48.0859 70.731 47.8848C71.4773 47.6001 71.7421 47.6636 71.8349 47.8339C71.9369 48.0211 71.8167 48.3443 71.556 48.6418C71.0579 49.2101 70.1626 49.6504 68.5813 49.7811C67 49.9118 65.9524 49.4877 65.5015 50.1783C65.307 50.4761 65.4574 51.1781 66.9866 51.3991C69.053 51.6974 70.7501 51.0398 70.9598 51.4369C71.1695 51.8341 69.9616 52.6421 67.8918 52.659C65.822 52.6759 64.5292 51.9343 64.0708 51.5657C63.4891 51.098 63.2288 50.416 63.3629 49.8261Z" fill="#FFCC33"/>
<g opacity="0.8">
<path d="M65.9986 44.8989C66.1141 44.7099 66.3701 44.564 66.7891 44.564C67.208 44.564 67.4051 44.7307 67.5416 44.9166C67.5693 44.9544 67.5273 44.9989 67.4842 44.9803C67.4739 44.9758 67.4634 44.9712 67.4527 44.9666C67.2995 44.8997 67.1114 44.8175 66.7891 44.8129C66.4443 44.808 66.227 44.8943 66.0901 44.9688C66.044 44.9938 65.9713 44.9437 65.9986 44.8989Z" fill="#14307E"/>
<path d="M61.2818 45.1408C61.6887 44.9708 62.0084 44.9927 62.2344 45.0462C62.282 45.0575 62.3151 45.0063 62.277 44.9756C62.1016 44.834 61.7089 44.6584 61.1968 44.8493C60.74 45.0197 60.5247 45.3736 60.5234 45.6063C60.5231 45.6611 60.636 45.6658 60.6651 45.6193C60.744 45.4939 60.875 45.3108 61.2818 45.1408Z" fill="#14307E"/>
<path fill-rule="evenodd" clip-rule="evenodd" d="M67.1449 47.4851C66.7853 47.4851 66.4935 47.1941 66.4935 46.8361C66.4935 46.478 66.7853 46.1871 67.1449 46.1871C67.5046 46.1871 67.7963 46.478 67.7963 46.8361C67.7963 47.1941 67.5046 47.4851 67.1449 47.4851ZM67.6037 46.6211C67.6037 46.5284 67.5278 46.4532 67.435 46.4532C67.3423 46.4532 67.2672 46.5284 67.2664 46.6211C67.2664 46.7138 67.3423 46.7889 67.435 46.7889C67.5286 46.7889 67.6037 46.7138 67.6037 46.6211Z" fill="#14307E"/>
<path fill-rule="evenodd" clip-rule="evenodd" d="M62.8292 47.2852C62.8292 47.7032 62.4895 48.0421 62.0699 48.0421C61.6511 48.0421 61.3107 47.7032 61.3107 47.2852C61.3107 46.8672 61.6511 46.5283 62.0699 46.5283C62.4887 46.5283 62.8292 46.8672 62.8292 47.2852ZM62.6054 47.0343C62.6054 46.9264 62.5175 46.8384 62.4088 46.8384C62.3009 46.8384 62.213 46.9256 62.2122 47.0343C62.2122 47.1422 62.3001 47.2301 62.4088 47.2301C62.5175 47.2301 62.6054 47.1422 62.6054 47.0343Z" fill="#14307E"/>
</g>
<path d="M81.9239 48.6431H84.6255C85.1208 48.6431 85.526 49.0483 85.526 49.5436C85.526 50.0389 85.1208 50.4441 84.6255 50.4441H81.9239C81.4287 50.4441 81.0234 50.0389 81.0234 49.5436C81.0234 49.0483 81.4287 48.6431 81.9239 48.6431Z" fill="#CCCCCC"/>
<path d="M82.8244 40.5386C83.054 40.5386 83.2836 40.6286 83.4592 40.8042C83.8104 41.1554 83.8104 41.7272 83.4592 42.0784L81.6582 43.8795C81.307 44.2307 80.7352 44.2307 80.384 43.8795C80.0328 43.5283 80.0328 42.9564 80.384 42.6052L82.185 40.8042C82.3606 40.6286 82.5902 40.5386 82.8199 40.5386H82.8244Z" fill="#CCCCCC"/>
<path d="M81.0281 54.9475C80.7985 54.9475 80.5689 55.0376 80.3933 55.2132C80.0421 55.5644 80.0421 56.1362 80.3933 56.4874L82.1943 58.2884C82.5455 58.6396 83.1173 58.6396 83.4685 58.2884C83.8197 57.9372 83.8197 57.3654 83.4685 57.0142L81.6675 55.2132C81.4919 55.0376 81.2623 54.9475 81.0326 54.9475H81.0281Z" fill="#CCCCCC"/>
<path fill-rule="evenodd" clip-rule="evenodd" d="M71 21.3966C71 28.7953 65.0022 34.7931 57.6035 34.7931C55.9817 34.7931 54.4272 34.5049 52.9885 33.977L50 36.9654H44.2069V43.4328C44.2069 43.8603 43.8604 44.2068 43.4329 44.2068H38.4138V49.226C38.4138 49.6535 38.0673 50 37.6398 50H29V41.3103L44.8381 25.4721C44.4282 24.187 44.2069 22.8176 44.2069 21.3966C44.2069 13.9978 50.2047 8 57.6035 8C65.0022 8 71 13.9978 71 21.3966ZM59.5454 14.4909C56.8041 14.4909 54.5818 16.7132 54.5818 19.4545C54.5818 22.1959 56.8041 24.4182 59.5454 24.4182C62.2868 24.4182 64.5091 22.1959 64.5091 19.4545C64.5091 16.7132 62.2868 14.4909 59.5454 14.4909Z" fill="#F9BE1A"/>
<path fill-rule="evenodd" clip-rule="evenodd" d="M69 21.3966C69 28.7953 63.0022 34.7931 55.6035 34.7931C53.9817 34.7931 52.4272 34.5049 50.9885 33.977L48 36.9654H42.2069V43.4328C42.2069 43.8603 41.8604 44.2068 41.4329 44.2068H36.4138V49.226C36.4138 49.6535 36.0673 50 35.6398 50H27V41.3103L42.8381 25.4721C42.4282 24.187 42.2069 22.8176 42.2069 21.3966C42.2069 13.9978 48.2047 8 55.6035 8C63.0022 8 69 13.9978 69 21.3966ZM57.5454 14.4909C54.8041 14.4909 52.5818 16.7132 52.5818 19.4545C52.5818 22.1959 54.8041 24.4182 57.5454 24.4182C60.2868 24.4182 62.5091 22.1959 62.5091 19.4545C62.5091 16.7132 60.2868 14.4909 57.5454 14.4909Z" fill="#FFD65C"/>
</svg>
