<svg width="96" height="72" viewBox="0 0 96 72" fill="none" xmlns="http://www.w3.org/2000/svg">
<path opacity="0.2" d="M79.2214 28.65L80.3786 28.35C80.5929 28.3071 80.8072 28.0929 80.85 27.8786L81.15 26.7214C81.2357 26.4214 81.4929 26.25 81.75 26.25C82.05 26.25 82.3072 26.4643 82.35 26.7214L82.65 27.8786C82.6928 28.0929 82.9071 28.3071 83.1214 28.35L84.2786 28.65C84.5786 28.7357 84.75 28.9929 84.75 29.25C84.75 29.55 84.5357 29.8071 84.2786 29.85L83.1214 30.15C82.9071 30.1929 82.6928 30.4071 82.65 30.6214L82.35 31.7786C82.2643 32.0786 82.0071 32.25 81.75 32.25C81.45 32.25 81.1928 32.0357 81.15 31.7786L80.85 30.6214C80.8072 30.4071 80.5929 30.1929 80.3786 30.15L79.2214 29.85C78.9214 29.7643 78.75 29.5071 78.75 29.25C78.75 28.95 78.9643 28.6929 79.2214 28.65Z" fill="#888888"/>
<path opacity="0.2" d="M11.9571 23.85L13.6928 23.4C14.0143 23.3357 14.3357 23.0143 14.4 22.6929L14.85 20.9571C14.9786 20.5071 15.3643 20.25 15.75 20.25C16.2 20.25 16.5857 20.5714 16.65 20.9571L17.1 22.6929C17.1643 23.0143 17.4857 23.3357 17.8072 23.4L19.5429 23.85C19.9929 23.9786 20.25 24.3643 20.25 24.75C20.25 25.2 19.9286 25.5857 19.5429 25.65L17.8072 26.1C17.4857 26.1643 17.1643 26.4857 17.1 26.8071L16.65 28.5429C16.5214 28.9929 16.1357 29.25 15.75 29.25C15.3 29.25 14.9143 28.9286 14.85 28.5429L14.4 26.8071C14.3357 26.4857 14.0143 26.1643 13.6928 26.1L11.9571 25.65C11.5071 25.5214 11.25 25.1357 11.25 24.75C11.25 24.3 11.5714 23.9143 11.9571 23.85Z" fill="#888888"/>
<path opacity="0.2" d="M0.471418 39.9L1.62857 39.6C1.84285 39.5571 2.05715 39.3429 2.10001 39.1286L2.39999 37.9714C2.4857 37.6714 2.74286 37.5 3 37.5C3.3 37.5 3.55715 37.7143 3.60001 37.9714L3.89999 39.1286C3.94285 39.3429 4.15715 39.5571 4.37143 39.6L5.52858 39.9C5.82858 39.9857 6 40.2429 6 40.5C6 40.8 5.78572 41.0571 5.52858 41.1L4.37143 41.4C4.15715 41.4429 3.94285 41.6571 3.89999 41.8714L3.60001 43.0286C3.5143 43.3286 3.25714 43.5 3 43.5C2.7 43.5 2.44285 43.2857 2.39999 43.0286L2.10001 41.8714C2.05715 41.6571 1.84285 41.4429 1.62857 41.4L0.471418 41.1C0.171418 41.0143 0 40.7571 0 40.5C0 40.2 0.214275 39.9429 0.471418 39.9Z" fill="#888888"/>
<path opacity="0.2" d="M94.875 39C94.2562 39 93.75 38.4937 93.75 37.875C93.75 37.2562 94.2562 36.75 94.875 36.75C95.4937 36.75 96 37.2562 96 37.875C96 38.4937 95.4937 39 94.875 39Z" fill="#888888"/>
<path opacity="0.2" d="M17.25 52.5C16.425 52.5 15.75 51.825 15.75 51C15.75 50.175 16.425 49.5 17.25 49.5C18.075 49.5 18.75 50.175 18.75 51C18.75 51.825 18.075 52.5 17.25 52.5Z" fill="#888888"/>
<path fill-rule="evenodd" clip-rule="evenodd" d="M63.9188 25.5465C63.9188 33.0517 57.8346 39.1359 50.3294 39.1359C48.9004 39.1359 47.5228 38.9153 46.229 38.5063L43.9595 40.7759H39.2149V44.6725C39.2149 45.0923 38.8745 45.4326 38.4547 45.4326H34.4703V51.1158C34.4703 51.5356 34.1299 51.876 33.7101 51.876H24V42.211L37.1886 29.0224C36.8959 27.9129 36.74 26.7479 36.74 25.5465C36.74 18.0412 42.8242 11.957 50.3294 11.957C57.8346 11.957 63.9188 18.0412 63.9188 25.5465ZM54.1515 25.9711C56.4969 25.9711 58.3982 24.0698 58.3982 21.7244C58.3982 19.379 56.4969 17.4777 54.1515 17.4777C51.8061 17.4777 49.9048 19.379 49.9048 21.7244C49.9048 24.0698 51.8061 25.9711 54.1515 25.9711Z" fill="#E2A412"/>
<path fill-rule="evenodd" clip-rule="evenodd" d="M66.1688 25.5465C66.1688 33.0517 60.0846 39.1359 52.5794 39.1359C51.1504 39.1359 49.7728 38.9153 48.479 38.5063L46.2095 40.7759H41.4649V44.6725C41.4649 45.0923 41.1245 45.4326 40.7047 45.4326H36.7203V51.1158C36.7203 51.5356 36.3799 51.876 35.9601 51.876H26.25V42.211L39.4386 29.0224C39.1459 27.9129 38.99 26.7479 38.99 25.5465C38.99 18.0412 45.0742 11.957 52.5794 11.957C60.0846 11.957 66.1688 18.0412 66.1688 25.5465ZM56.4015 25.9711C58.7469 25.9711 60.6482 24.0698 60.6482 21.7244C60.6482 19.379 58.7469 17.4777 56.4015 17.4777C54.0561 17.4777 52.1548 19.379 52.1548 21.7244C52.1548 24.0698 54.0561 25.9711 56.4015 25.9711Z" fill="#F9BE1A"/>
<path fill-rule="evenodd" clip-rule="evenodd" d="M63.1326 38.3983C67.8161 35.0804 69.8551 28.902 67.7147 23.2913C65.1778 16.6411 57.7302 13.3066 51.08 15.8435C44.4298 18.3805 41.0953 25.8281 43.6322 32.4783C44.0383 33.5428 44.5702 34.5224 45.2046 35.4065L37.9764 51.5507L41.2434 60.1146H43.2937C43.5827 60.1146 43.8468 59.9506 43.975 59.6916L48.3429 50.8661L50.6021 50.0043C50.8401 48.9255 51.1942 47.8904 51.6506 46.9126L50.9729 45.1361L53.2302 44.275C54.0685 43.1542 55.0598 42.1545 56.1733 41.3069L56.4208 40.7543C56.6217 40.7425 56.8229 40.726 57.0241 40.7047C58.8272 39.5201 60.901 38.7136 63.1326 38.3983ZM61.5309 21.7708C62.3237 23.849 61.2817 26.1764 59.2035 26.9692C57.1253 27.7619 54.7979 26.7199 54.0052 24.6417C53.2124 22.5635 54.2544 20.2362 56.3326 19.4434C58.4108 18.6506 60.7382 19.6926 61.5309 21.7708Z" fill="#E2A412"/>
<path fill-rule="evenodd" clip-rule="evenodd" d="M50.25 53.2501V54.929C50.25 56.4844 49.2899 57.8783 47.8366 58.4327L43.4276 60.1146L40.1606 51.5507L47.3887 35.4065C46.7544 34.5224 46.2224 33.5428 45.8164 32.4783C43.2794 25.8281 46.6139 18.3805 53.2641 15.8435C59.9143 13.3066 67.3619 16.6411 69.8988 23.2913C71.853 28.4139 70.3234 34.0096 66.4782 37.4696C65.882 38.006 65.0868 38.2354 64.2875 38.2993C56.5631 38.9175 50.25 45.2817 50.25 53.2501ZM63.7152 21.7708C64.508 23.849 63.466 26.1764 61.3878 26.9692C59.3096 27.762 56.9822 26.7199 56.1894 24.6417C55.3966 22.5635 56.4386 20.2362 58.5168 19.4434C60.595 18.6506 62.9224 19.6926 63.7152 21.7708Z" fill="#FFCC33"/>
<path fill-rule="evenodd" clip-rule="evenodd" d="M57.7776 19.8154C58.427 20.506 59.4544 21 60.75 21C63.0463 21 64.5 19.4483 64.5 18C64.5 16.6426 63.223 15.1943 61.1722 15.0179C60.0372 14.0905 58.7494 13.343 57.3524 12.8188C58.374 12.2923 59.547 12 60.75 12C64.2527 12 67.5 14.4777 67.5 18C67.5 21.5223 64.2527 24 60.75 24C58.9835 24 57.282 23.3698 56.0292 22.2933C56.2637 21.2896 56.8795 20.39 57.7776 19.8154Z" fill="#999999"/>
<path fill-rule="evenodd" clip-rule="evenodd" d="M63.75 23.3709C62.8266 23.7774 61.7998 24 60.75 24C58.9835 24 57.282 23.3698 56.0292 22.2933C56.2637 21.2896 56.8795 20.39 57.7776 19.8154C58.427 20.506 59.4544 21 60.75 21C62.0642 21 63.1023 20.4918 63.75 19.7856V23.3709Z" fill="url(#paint0_linear_9145_19325)"/>
<path d="M81.3761 44.25C81.5992 44.25 81.8222 44.34 81.9927 44.5155C82.3338 44.8664 82.3338 45.4378 81.9927 45.7887L80.2434 47.5884C79.9023 47.9394 79.3469 47.9394 79.0058 47.5884C78.6647 47.2375 78.6647 46.6661 79.0058 46.3151L80.7551 44.5155C80.9257 44.34 81.1487 44.25 81.3717 44.25H81.3761Z" fill="#CCCCCC"/>
<path d="M80.5014 52.3487H83.1254C83.6064 52.3487 84 52.7536 84 53.2485C84 53.7434 83.6064 54.1484 83.1254 54.1484H80.5014C80.0204 54.1484 79.6268 53.7434 79.6268 53.2485C79.6268 52.7536 80.0204 52.3487 80.5014 52.3487Z" fill="#CCCCCC"/>
<path d="M79.0147 58.9138C79.1853 58.7383 79.4083 58.6484 79.6314 58.6484H79.6357C79.8588 58.6484 80.0818 58.7383 80.2523 58.9138L82.0016 60.7135C82.3427 61.0645 82.3427 61.6359 82.0016 61.9868C81.6605 62.3377 81.1051 62.3377 80.764 61.9868L79.0147 60.1871C78.6736 59.8362 78.6736 59.2648 79.0147 58.9138Z" fill="#CCCCCC"/>
<rect x="53.25" y="41.25" width="24" height="24" rx="12" fill="#DE5833"/>
<path d="M68.1108 52.8482C68.0375 52.8949 67.8025 52.8679 67.4928 52.8327C64.7479 52.3499 64.4805 53.9162 65.8031 56.3007C64.6054 56.6576 66.0179 60.1109 67.1697 62.7041C65.91 63.1502 63.5911 63.0541 62.5184 62.6583C62.5166 62.6528 62.5148 62.6464 62.513 62.6409C62.2775 62.554 61.9854 62.5549 61.8488 62.3686C61.4798 59.8314 56.3323 47.7233 62.6213 46.9303C62.6608 46.919 61.809 46.6542 60.6619 46.941C59.2281 47.2278 62.0549 43.0369 65.0247 46.7112C68.2519 47.4168 68.4829 52.6112 68.1112 52.8478L68.1108 52.8482Z" fill="white"/>
<path d="M69.2176 60.817C69.1856 61.0229 69.1146 61.1602 68.9884 61.1794C68.7488 61.216 67.6774 60.9707 67.0685 60.7392C66.9993 61.0577 65.3671 61.3592 65.1086 60.9314C64.5163 61.4434 63.3816 62.186 63.1443 62.0305C62.69 61.733 62.2626 59.4424 62.6046 58.9583C63.1241 58.4861 64.2161 58.9999 64.9824 59.2713C65.2421 58.832 66.5 58.6654 66.7611 59.026C67.4491 58.503 68.5974 57.7654 68.7093 57.8999C69.2674 58.5725 69.338 60.1732 69.2171 60.8174L69.2176 60.817Z" fill="#4CBA3C"/>
<path fill-rule="evenodd" clip-rule="evenodd" d="M63.397 53.9021C63.6312 52.2406 66.7698 52.7604 68.1733 52.5737C69.1961 52.4552 69.9552 52.2035 70.4608 52.0072C71.6216 51.5304 71.8193 52.0036 71.2517 52.7462C69.6491 54.6461 66.0849 53.2633 65.4468 54.2457C65.2603 54.5367 65.4045 55.2217 66.8705 55.4377C68.8514 55.7287 70.4787 55.0867 70.6796 55.4748C70.228 57.5485 62.7072 56.8425 63.3961 53.9025L63.397 53.9021Z" fill="#FFCC33"/>
<path d="M67.4034 49.1096C67.1958 48.6598 66.1285 48.663 65.9245 49.0922C65.9058 49.1808 65.9801 49.1574 66.1218 49.1128C66.3699 49.0347 66.8247 48.8916 67.3486 49.1718C67.39 49.1897 67.43 49.1466 67.4034 49.1096Z" fill="#14307E"/>
<path d="M62.1878 49.2175C61.9897 49.2033 61.6679 49.1801 61.4021 49.3278C61.012 49.4939 60.8861 49.6728 60.8106 49.7954C60.7828 49.8407 60.6749 49.8362 60.6749 49.7826C60.7014 49.067 61.9148 48.7219 62.3561 49.1667C62.4097 49.2335 62.331 49.2278 62.1878 49.2175Z" fill="#14307E"/>
<path d="M67.0233 51.6166C66.2067 51.6125 66.2067 50.3537 67.0233 50.3496C67.8399 50.3537 67.8399 51.6125 67.0233 51.6166Z" fill="#14307E"/>
<path d="M62.8853 51.4214C62.8691 52.3924 61.4459 52.3924 61.4297 51.4214C61.4342 50.455 62.8808 50.4555 62.8853 51.4214Z" fill="#14307E"/>
<path fill-rule="evenodd" clip-rule="evenodd" d="M65.2498 44.217C60.261 44.217 56.2168 48.2612 56.2168 53.25C56.2168 58.2388 60.261 62.2831 65.2498 62.2831C70.2386 62.2831 74.2828 58.2388 74.2828 53.25C74.2828 48.2612 70.2386 44.217 65.2498 44.217ZM54.783 53.25C54.783 47.4694 59.4691 42.7832 65.2498 42.7832C71.0305 42.7832 75.7166 47.4694 75.7166 53.25C75.7166 59.0307 71.0305 63.7169 65.2498 63.7169C59.4691 63.7169 54.783 59.0307 54.783 53.25Z" fill="white"/>
<defs>
<linearGradient id="paint0_linear_9145_19325" x1="58.5" y1="21.75" x2="63" y2="21.75" gradientUnits="userSpaceOnUse">
<stop stop-color="#5F5F5F"/>
<stop offset="1" stop-color="#999999" stop-opacity="0"/>
</linearGradient>
</defs>
</svg>
