<svg width="24" height="24" viewBox="0 0 24 24" fill="none" xmlns="http://www.w3.org/2000/svg">
<circle cx="12" cy="12" r="11" fill="#444444"/>
<path fill-rule="evenodd" clip-rule="evenodd" d="M24 12C24 18.6274 18.6274 24 12 24C5.37258 24 0 18.6274 0 12C0 5.37258 5.37258 0 12 0C18.6274 0 24 5.37258 24 12ZM17.9729 17.2335C17.3125 17.8888 16.543 18.4031 15.6858 18.762C14.8004 19.1327 13.8587 19.321 12.8869 19.3219H12.8802C11.9023 19.3219 10.9539 19.1308 10.0617 18.7538C9.19569 18.388 8.42041 17.864 7.75719 17.1964C6.39848 15.8287 5.65724 14.0013 5.6701 12.0509C5.67652 11.0756 5.87361 10.132 6.25592 9.24632C6.62286 8.39604 7.14483 7.63299 7.80723 6.97827C8.46516 6.32804 9.22821 5.8174 10.0753 5.46068C10.9479 5.09317 11.8691 4.90687 12.8132 4.90687C12.8376 4.90687 12.8622 4.907 12.8866 4.90725C12.9111 4.907 12.9349 4.90687 12.9594 4.90687C13.9079 4.90687 14.8349 5.09677 15.7146 5.47127C16.5732 5.83682 17.3439 6.35924 18.0052 7.02403C19.3633 8.3893 20.1057 10.2092 20.0956 12.1484C20.0854 14.0793 19.3316 15.8852 17.9729 17.2335ZM21.2428 8.71016C20.6133 7.26807 19.5679 6.19865 18.2309 5.40263C16.5824 4.42126 14.7774 4.01663 12.8759 4.00037C12.224 3.99483 11.5745 4.05155 10.9293 4.15497C9.16027 4.43865 7.51681 5.04912 6.02966 6.05312C4.53462 7.06248 3.33518 8.339 2.6095 10.0107C1.78525 11.9096 1.77378 13.8109 2.71734 15.6737C3.48209 17.1834 4.70763 18.2293 6.21004 18.9612C7.74856 19.7106 9.38389 20.0223 11.0909 19.9988C12.7788 19.9754 14.3951 19.6271 15.9374 18.9476C17.7273 18.1591 19.2451 17.0195 20.3769 15.4064C21.2517 14.1594 21.7587 12.7838 21.7643 11.2444C21.7739 10.3611 21.5949 9.51676 21.2428 8.71016ZM16.858 11.9081C16.8583 11.9533 16.858 11.9983 16.8572 12.0433L16.8564 12.0711L16.8558 12.0897L16.8553 12.1072C16.8546 12.1307 16.854 12.1541 16.853 12.1775C16.8524 12.1914 16.8516 12.2052 16.8507 12.2191L16.8494 12.2403L16.8483 12.2615L16.8483 12.2615L16.8483 12.2616L16.8483 12.2616L16.8483 12.2616L16.8483 12.2617L16.8483 12.2617L16.8483 12.2617C16.8474 12.2782 16.8465 12.2947 16.8454 12.3112C16.8441 12.3289 16.8426 12.3465 16.841 12.3642L16.841 12.3643L16.8393 12.3844L16.8377 12.4041L16.8377 12.4042C16.8367 12.4174 16.8356 12.4307 16.8344 12.4439C16.8327 12.4615 16.8307 12.479 16.8287 12.4966L16.8264 12.5175L16.8247 12.5334C16.8232 12.5476 16.8218 12.5618 16.82 12.5759C16.8177 12.5953 16.815 12.6146 16.8123 12.6338L16.8094 12.6548L16.8053 12.6858L16.8024 12.7069C16.7998 12.7248 16.7969 12.7426 16.7939 12.7604L16.7939 12.7604L16.7939 12.7605L16.7939 12.7605L16.7939 12.7605L16.7939 12.7605L16.7939 12.7605L16.7939 12.7606L16.7939 12.7606L16.7898 12.7855L16.7865 12.8062L16.7843 12.8202L16.7815 12.837C16.7793 12.8496 16.777 12.8622 16.7746 12.8748L16.7699 12.8997L16.7699 12.8998L16.7699 12.8998L16.7699 12.8999L16.7698 12.8999L16.7698 12.9L16.7698 12.9L16.7671 12.9144L16.7631 12.936L16.7631 12.9361L16.763 12.9362C16.7618 12.9428 16.7606 12.9494 16.7594 12.956C16.7588 12.9594 16.7581 12.9628 16.7574 12.9662C16.7526 12.9903 16.7474 13.0143 16.7421 13.0382L16.7421 13.0382L16.7421 13.0383L16.7421 13.0385L16.7402 13.0469L16.7363 13.0656L16.7301 13.0942C16.7241 13.1207 16.7176 13.1472 16.7112 13.1737L16.7111 13.1738L16.7096 13.1801L16.7055 13.1973L16.6997 13.2212C16.6931 13.2475 16.686 13.2736 16.6788 13.2998L16.6787 13.3001L16.6787 13.3001L16.6787 13.3001L16.6768 13.3074L16.6721 13.3251L16.6662 13.3471C16.6597 13.3702 16.6529 13.3931 16.6461 13.4161L16.641 13.4332L16.6297 13.4719C16.6208 13.5007 16.6114 13.5294 16.602 13.558L16.5965 13.5753L16.5901 13.5954C16.5812 13.6219 16.5719 13.6482 16.5626 13.6745L16.5626 13.6745L16.5625 13.6747L16.5597 13.6827L16.5544 13.6981L16.5475 13.7176C16.5379 13.7443 16.5278 13.7708 16.5177 13.7972L16.5148 13.8046L16.509 13.8203L16.5021 13.8386C16.4905 13.8683 16.4784 13.8976 16.4663 13.927L16.4537 13.9582C16.4414 13.9876 16.4286 14.0168 16.4156 14.046L16.4104 14.0581L16.4025 14.0764C16.3895 14.1052 16.3762 14.1338 16.3628 14.1623C16.3579 14.1726 16.3533 14.183 16.3485 14.1933C16.3348 14.2219 16.3207 14.2502 16.3065 14.2785C16.3046 14.2823 16.3028 14.2861 16.3009 14.2899C16.2979 14.2961 16.2948 14.3024 16.2917 14.3086C16.2771 14.3373 16.262 14.3657 16.247 14.3941L16.2469 14.3941L16.242 14.4036L16.2321 14.4224C16.2169 14.4507 16.2012 14.4787 16.1854 14.5068L16.17 14.5347C16.154 14.5625 16.1376 14.5902 16.1212 14.6177L16.1149 14.6287L16.1051 14.6453C16.0886 14.6727 16.0715 14.6999 16.0544 14.7271L16.0544 14.7272C16.0521 14.7309 16.0498 14.7346 16.0475 14.7383C16.0442 14.7436 16.041 14.749 16.0376 14.7542C16.0224 14.7782 16.0067 14.802 15.9911 14.8258L15.991 14.8259L15.9845 14.8358C15.9821 14.8394 15.9797 14.843 15.9774 14.8466C15.9741 14.8516 15.9709 14.8565 15.9677 14.8614C15.9495 14.8886 15.9308 14.9154 15.9122 14.9421L15.8951 14.9669C15.8763 14.9936 15.857 15.02 15.8377 15.0464L15.8303 15.0566L15.82 15.0706C15.8008 15.0967 15.781 15.1225 15.7612 15.1481C15.7549 15.1562 15.7489 15.1645 15.7427 15.1726C15.7228 15.1979 15.7026 15.2229 15.6825 15.2479C15.6793 15.2517 15.6762 15.2556 15.6732 15.2595C15.6697 15.2639 15.6663 15.2682 15.6627 15.2725C15.6424 15.2972 15.6218 15.3217 15.6011 15.3461L15.5941 15.3544L15.5863 15.3638L15.5805 15.3706C15.5614 15.3927 15.5421 15.4145 15.5227 15.4363L15.5227 15.4364L15.5226 15.4365L15.5226 15.4365L15.5172 15.4426C15.5137 15.4465 15.5102 15.4505 15.5067 15.4545C15.5032 15.4585 15.4996 15.4626 15.496 15.4666C15.4749 15.4901 15.4533 15.5132 15.4318 15.5362L15.4315 15.5365L15.4178 15.5513L15.4091 15.5607C15.3893 15.5817 15.3692 15.6023 15.349 15.6229L15.3443 15.6277L15.32 15.6528C15.2983 15.6746 15.2763 15.6961 15.2543 15.7175C15.2457 15.7258 15.2373 15.7343 15.2287 15.7426C15.2082 15.7623 15.1873 15.7817 15.1665 15.8011L15.1665 15.8011L15.1665 15.8011L15.1622 15.8051C15.1586 15.8084 15.155 15.8118 15.1514 15.8152C15.1461 15.8203 15.1407 15.8253 15.1353 15.8303C15.1166 15.8474 15.0978 15.8641 15.079 15.8809L15.0789 15.8809L15.0789 15.8809L15.0789 15.881L15.0788 15.881L15.0788 15.881L15.0788 15.8811L15.068 15.8906L15.0547 15.9025L15.0397 15.9158C15.019 15.9339 14.9979 15.9517 14.9769 15.9695L14.9767 15.9696L14.9722 15.9734L14.9604 15.9835L14.9421 15.9991C14.9219 16.0158 14.9015 16.0323 14.881 16.0487L14.8743 16.0542L14.8594 16.0663L14.8424 16.0801C14.821 16.097 14.7993 16.1136 14.7777 16.1301L14.7736 16.1333L14.7608 16.1432L14.7563 16.1467L14.5241 14.7834C14.6724 14.7664 14.8198 14.7079 14.9497 14.6023C14.9565 14.5968 14.9648 14.5911 14.9735 14.5852C15.005 14.5637 15.0406 14.5393 15.0236 14.508C14.9782 14.4246 14.9218 14.3395 14.849 14.2814C14.8133 14.2529 14.7816 14.2858 14.7505 14.3181C14.7373 14.3319 14.7241 14.3456 14.7107 14.3544C14.626 14.41 14.5428 14.439 14.4662 14.4432L14.2497 13.1723C14.3622 13.08 14.5223 13.0797 14.6809 13.192C14.7663 13.2525 14.8021 13.2329 14.8466 13.1593C14.8663 13.1266 14.8898 13.0946 14.9173 13.068C15.0003 12.9876 14.9693 12.9362 14.886 12.8779C14.6784 12.7329 14.4163 12.7121 14.1854 12.7947L13.9432 11.3727C13.9711 11.3747 14.0043 11.3758 14.0441 11.3771L14.0643 11.3778C14.1769 11.3816 14.2228 11.3451 14.2516 11.2374C14.3574 10.8425 14.4686 10.449 14.5797 10.0555L14.6625 9.76198L14.664 9.75656L14.664 9.75654C14.7099 9.59371 14.7327 9.51265 14.702 9.47244C14.6716 9.43258 14.5886 9.43285 14.4233 9.43339H14.4233L14.4103 9.43343C14.3227 9.43375 14.292 9.46564 14.2762 9.54272C14.2064 9.88255 14.1359 10.2223 14.0601 10.5609C14.0565 10.5771 14.0551 10.5945 14.0536 10.612C14.0499 10.6579 14.0462 10.7043 14.0021 10.7311L13.9263 10.4248L13.9262 10.4247L13.9262 10.4247L13.9262 10.4246L13.9262 10.4246L13.9262 10.4245L13.9261 10.4241L13.926 10.4236C13.8692 10.1944 13.8124 9.9651 13.7563 9.73558C13.7109 9.55016 13.6933 9.47898 13.616 9.45143L13.1647 6.80128C15.0947 7.41816 16.5251 9.10416 16.8075 11.105L16.8079 11.1073C16.8133 11.1461 16.8182 11.185 16.8227 11.2241L16.8247 11.2389C16.8288 11.2755 16.8324 11.3122 16.8358 11.349L16.8382 11.3713C16.8413 11.4066 16.8438 11.4421 16.8462 11.4776L16.8471 11.4894L16.8483 11.5045C16.8503 11.5382 16.8518 11.5722 16.8534 11.6062L16.8549 11.6383C16.8564 11.6786 16.8573 11.7191 16.8578 11.7596L16.858 11.7652L16.8581 11.7729C16.8587 11.8178 16.8586 11.863 16.858 11.9081ZM13.1252 6.78884L13.1647 6.80128L12.8866 5.1683C12.9111 5.16798 12.935 5.16785 12.9594 5.16785C16.6407 5.16785 19.8553 8.18912 19.8345 12.147C19.8216 14.6055 18.5565 16.7385 16.6485 17.9623L16.6452 17.9644C16.6106 17.9865 16.576 18.0085 16.5411 18.03L16.5405 18.0303L16.5339 18.0343C16.496 18.0577 16.4577 18.0807 16.4192 18.1033L16.4063 18.1109C16.3681 18.1333 16.3296 18.1553 16.2909 18.1769L16.2827 18.1815L16.2825 18.1816C16.2425 18.2039 16.2025 18.2258 16.162 18.2473L16.1547 18.2511C16.102 18.279 16.0488 18.3061 15.9953 18.3327L15.9826 18.3392L15.973 18.3441L15.9608 18.3499L15.9502 18.355C15.8967 18.3811 15.843 18.4068 15.7888 18.4317C15.8141 18.42 15.8393 18.4079 15.8644 18.3958L15.8629 18.3965L15.8628 18.3966C15.8354 18.4097 15.8081 18.4229 15.7805 18.4354L15.7718 18.4394C15.7356 18.4559 15.6992 18.4719 15.6626 18.4877L15.6293 18.5021C15.5954 18.5166 15.5615 18.5306 15.5274 18.5446L15.4856 18.5615C15.4525 18.5747 15.4195 18.5877 15.3862 18.6005L15.3414 18.6174L15.3375 18.6188L15.337 18.619C15.3053 18.6309 15.2735 18.6427 15.2416 18.6541L15.2117 18.6646L15.2008 18.6683L15.1866 18.6733L14.7563 16.1467L14.7407 16.1586C14.7231 16.172 14.7052 16.185 14.6874 16.1981L14.6715 16.2096L14.6571 16.2203L14.6371 16.2349C14.6192 16.2477 14.6012 16.2602 14.5831 16.2728L14.583 16.2728L14.5678 16.2834L14.5481 16.2971L14.5316 16.3087L14.5275 16.3115L14.3017 14.7783C13.9924 14.7286 13.7168 14.5032 13.6356 14.1568C13.6068 14.0339 13.5977 13.9093 13.598 13.7541C13.5951 13.568 13.6346 13.3621 13.7401 13.1717C13.8096 13.0462 13.9078 12.9461 14.0214 12.8746L13.7861 11.2772C13.7724 11.2434 13.76 11.1974 13.7433 11.1347C13.6557 10.8058 13.5683 10.477 13.4823 10.1534L13.4529 10.0426C13.4249 10.1475 13.3967 10.2525 13.3684 10.3577L13.3684 10.3578L13.3684 10.3579C13.2872 10.66 13.2056 10.9634 13.1286 11.268C13.1077 11.3504 13.0743 11.3753 12.9923 11.3766L12.9849 11.3767H12.9849C12.8427 11.379 12.7706 11.3802 12.7245 11.3461C12.6771 11.3111 12.6574 11.2386 12.6173 11.0916L12.6165 11.0885L12.5762 10.9405L12.5762 10.9405L12.5762 10.9405L12.5762 10.9404L12.5762 10.9404L12.5762 10.9404L12.5762 10.9404L12.5762 10.9404C12.453 10.4879 12.3298 10.0354 12.2001 9.58482C12.1724 9.48851 12.1906 9.4616 12.2852 9.44459L12.2952 9.4428C12.5937 9.38896 12.5951 9.38871 12.6636 9.6902C12.7178 9.92783 12.7708 10.1658 12.8257 10.4117L12.8259 10.4127L12.8259 10.4129L12.9022 10.7546L12.9585 10.5404C12.9988 10.3869 13.0372 10.2408 13.0765 10.0949C13.0937 10.031 13.1117 9.96734 13.1298 9.90366L13.1298 9.90359L13.1298 9.90353L13.1298 9.90347L13.1299 9.9034L13.1299 9.90334L13.1299 9.90325C13.1631 9.78627 13.1962 9.66934 13.2241 9.55116C13.244 9.46646 13.2754 9.4333 13.3683 9.43362L13.3808 9.43366H13.3809H13.3809C13.4344 9.43383 13.4784 9.43398 13.515 9.43578L13.1252 6.78884ZM14.8893 18.7691L14.5275 16.3115C14.509 16.324 14.4903 16.3363 14.4717 16.3485L14.4716 16.3486L14.4716 16.3486L14.462 16.3549L14.4448 16.3664L14.4242 16.38C14.4065 16.3914 14.3886 16.4025 14.3708 16.4137L14.3707 16.4137L14.3544 16.4239L14.339 16.4337C14.3309 16.4387 14.3229 16.4438 14.3148 16.4488C14.2975 16.4594 14.2801 16.4697 14.2626 16.4801L14.2452 16.4904C14.2399 16.4935 14.2346 16.4967 14.2293 16.4998C14.2208 16.5049 14.2124 16.51 14.2038 16.515C14.1832 16.527 14.1623 16.5386 14.1415 16.5502L14.1414 16.5502L14.1342 16.5543L14.112 16.5669L14.0911 16.5786L14.0632 16.5936L14.0387 16.6066L14.0386 16.6066L14.0211 16.6159L14.0024 16.6258L13.9765 16.6395L13.9555 16.6502L13.9207 16.6676L13.9067 16.6745L13.8938 16.681L13.8706 16.6927L13.8603 16.6977C13.8424 16.7065 13.8243 16.7149 13.8062 16.7234L13.7902 16.7309L13.7705 16.7401L13.7559 16.747L13.7426 16.7532C13.7255 16.761 13.7083 16.7685 13.6911 16.776L13.673 16.7839L13.655 16.7919L13.6548 16.792L13.6547 16.792C13.6442 16.7967 13.6337 16.8014 13.6232 16.8059C13.6042 16.814 13.585 16.8218 13.5659 16.8295L13.5659 16.8295L13.5657 16.8296L13.5656 16.8296L13.554 16.8344L13.534 16.8426C13.5235 16.847 13.5129 16.8514 13.5023 16.8557C13.4864 16.862 13.4703 16.8681 13.4542 16.8742L13.4331 16.8822L13.4122 16.8902C13.4015 16.8944 13.3907 16.8986 13.3798 16.9026C13.3632 16.9087 13.3466 16.9146 13.33 16.9204L13.3299 16.9204L13.3114 16.9269L13.2939 16.9332C13.2812 16.9377 13.2686 16.9422 13.2558 16.9465C13.2403 16.9519 13.2246 16.957 13.2089 16.9621L13.1873 16.9691L13.1656 16.9762C13.1597 16.9782 13.1537 16.9801 13.1477 16.9821C13.142 16.9839 13.1363 16.9858 13.1306 16.9876C13.1114 16.9936 13.0919 16.9993 13.0725 17.005L13.0623 17.0081C13.0428 17.0139 13.0234 17.0199 13.0039 17.0255C12.9861 17.0306 12.9682 17.0354 12.9504 17.0402L12.9504 17.0402L12.9364 17.0439C12.9313 17.0453 12.9261 17.0468 12.9209 17.0482C12.9059 17.0524 12.8909 17.0565 12.8757 17.0604C12.8597 17.0646 12.8436 17.0685 12.8274 17.0724C12.8211 17.074 12.8149 17.0755 12.8086 17.077L12.7924 17.081C12.7772 17.0848 12.7619 17.0887 12.7465 17.0922C12.7306 17.0959 12.7147 17.0993 12.6988 17.1028L12.6792 17.107L12.6638 17.1104L12.6637 17.1104L12.6637 17.1105C12.6478 17.114 12.6319 17.1175 12.6159 17.1208C12.6013 17.1238 12.5867 17.1266 12.572 17.1294L12.5719 17.1294L12.5486 17.1339L12.5261 17.1382L12.5261 17.1382L12.526 17.1382L12.526 17.1382L12.5049 17.1423L12.4841 17.1461C12.4679 17.1491 12.4516 17.1518 12.4353 17.1544L12.4352 17.1544L12.4168 17.1574L12.3973 17.1607L12.3971 17.1607C12.3818 17.1633 12.3665 17.1659 12.3511 17.1683C12.3347 17.1709 12.3181 17.1731 12.3016 17.1754L12.2839 17.1778L12.2633 17.1807L12.2633 17.1807L12.2632 17.1807L12.2631 17.1808L12.2631 17.1808L12.263 17.1808L12.2626 17.1808C12.2474 17.183 12.2322 17.1852 12.217 17.1872C12.2021 17.1891 12.1871 17.1907 12.172 17.1924L12.1495 17.1949L12.1291 17.1973C12.1134 17.1992 12.0976 17.201 12.0819 17.2026C12.0669 17.2041 12.0519 17.2054 12.0368 17.2067L12.0147 17.2087L11.9915 17.2108L11.9742 17.2123L11.9455 17.2147C11.9313 17.2158 11.9169 17.2167 11.9026 17.2175L11.9025 17.2175L11.8785 17.219L11.8553 17.2205L11.855 17.2205L11.855 17.2205C11.8394 17.2215 11.8239 17.2226 11.8083 17.2234C11.794 17.2241 11.7795 17.2246 11.7651 17.2251C11.757 17.2253 11.749 17.2256 11.7409 17.2259L11.7307 17.2263L11.7304 17.2264C11.7103 17.2272 11.6902 17.228 11.6701 17.2285C11.6557 17.2289 11.6412 17.229 11.6267 17.2291L11.6026 17.2294L11.5791 17.2298C11.565 17.23 11.5509 17.2302 11.5367 17.2302L11.5254 17.2302C8.56201 17.224 6.16091 14.8448 6.19236 11.8291C6.22274 8.92135 8.54045 6.55656 11.5313 6.54995L11.5434 6.54988C11.5576 6.54988 11.5718 6.55013 11.5859 6.55038L11.6113 6.55077L11.6348 6.55102H11.6348C11.6489 6.55115 11.663 6.55128 11.6771 6.55165C11.6977 6.55213 11.7183 6.55299 11.7389 6.55385L11.7575 6.55461L11.7733 6.55515L11.7733 6.55515C11.7875 6.55561 11.8016 6.55608 11.8156 6.55682C11.8451 6.55826 11.8744 6.56028 11.9037 6.5623L11.9037 6.5623L11.9225 6.56347L11.9532 6.56545C11.9812 6.56762 12.009 6.57019 12.0368 6.57275L12.0478 6.57377L12.0674 6.57554L12.0899 6.57761C12.1239 6.58108 12.1578 6.58511 12.1915 6.58921L12.2056 6.59083L12.2254 6.59318C12.2617 6.59778 12.298 6.60301 12.3342 6.60837L12.3458 6.61005L12.3597 6.61209C12.3984 6.61795 12.437 6.62451 12.4754 6.63131L12.493 6.63427C12.5341 6.64165 12.5751 6.64959 12.6159 6.65797L12.625 6.6598C12.6683 6.66869 12.7114 6.6782 12.7543 6.68816L12.7558 6.68854C12.8808 6.71764 13.004 6.75113 13.1252 6.78884L12.8866 5.1683C12.8622 5.16798 12.8376 5.16785 12.8132 5.16785C10.9099 5.16779 9.15476 5.96519 7.89324 7.26251C7.87521 7.28111 7.85732 7.29983 7.83948 7.31861C7.82095 7.33808 7.80242 7.35768 7.78414 7.37735C7.76643 7.39638 7.74891 7.4156 7.73145 7.43476C7.64196 7.53321 7.5553 7.6343 7.47147 7.73792C7.45546 7.75764 7.43945 7.77743 7.4237 7.79741C7.40914 7.81576 7.39484 7.83428 7.38055 7.85279L7.38054 7.85281L7.38043 7.85295L7.37202 7.86384L7.36233 7.87636L7.36227 7.87643C7.35028 7.89191 7.33832 7.90735 7.32651 7.92302C7.31058 7.94406 7.29505 7.96525 7.27947 7.9865L7.2737 7.99437L7.2591 8.0141L7.25909 8.01412L7.25908 8.01413L7.25907 8.01414L7.25906 8.01415L7.25905 8.01416L7.25905 8.01417L7.25904 8.01418L7.25899 8.01424C7.24997 8.0264 7.24096 8.03856 7.2321 8.05084C7.21004 8.08153 7.18842 8.11261 7.16681 8.14368C7.15036 8.16738 7.13397 8.1912 7.11783 8.21515C7.09647 8.24666 7.07517 8.27824 7.0543 8.31013C7.04712 8.32115 7.04008 8.33225 7.03304 8.34335L7.03299 8.34342L7.01762 8.36755L7.01514 8.37143L7.01503 8.37161L7.0149 8.3718L7.01487 8.37186C6.9994 8.39608 6.98388 8.42036 6.96865 8.44481C6.95847 8.4613 6.94841 8.4779 6.93838 8.49446L6.93834 8.49452L6.93084 8.5069L6.92216 8.52127C6.90999 8.54139 6.89786 8.56145 6.8859 8.58177C6.87329 8.60314 6.861 8.62463 6.84871 8.64612L6.84382 8.65463L6.84378 8.6547L6.84375 8.65476L6.84371 8.65482L6.84368 8.65488L6.84364 8.65495L6.84361 8.65501L6.84357 8.65507L6.84353 8.65514C6.83096 8.677 6.81842 8.69881 6.80617 8.72087C6.79564 8.73965 6.78529 8.75863 6.77493 8.77763L6.76993 8.78679C6.75638 8.81181 6.74283 8.8369 6.72953 8.86211C6.71775 8.88429 6.70615 8.9066 6.69462 8.92898C6.68157 8.9545 6.66865 8.98003 6.65586 9.00568C6.64464 9.02812 6.63354 9.05049 6.6227 9.07299C6.60997 9.09915 6.59756 9.12543 6.5852 9.15177C6.57468 9.17409 6.56422 9.1964 6.55401 9.21877C6.54153 9.24606 6.52943 9.27341 6.51739 9.30089L6.51558 9.30495L6.51554 9.30504C6.50645 9.32546 6.49738 9.34584 6.48859 9.36644C6.47728 9.39273 6.46639 9.41918 6.4555 9.44564L6.45547 9.44571L6.4519 9.45436L6.44227 9.47757L6.44226 9.47759C6.43695 9.49033 6.43164 9.50305 6.42651 9.51587C6.41245 9.55104 6.3989 9.58634 6.38541 9.62176L6.37813 9.64048L6.36789 9.66701C6.34917 9.71718 6.33102 9.7676 6.31337 9.81833C6.30993 9.82823 6.30663 9.83821 6.30334 9.84819L6.29617 9.8697C6.28444 9.90418 6.27285 9.93859 6.26169 9.97325C6.2572 9.98733 6.25287 10.0015 6.24854 10.0156L6.24203 10.0368C6.23239 10.0678 6.22274 10.0988 6.21354 10.13C6.2082 10.1483 6.20302 10.1666 6.19784 10.1849L6.19779 10.185L6.19777 10.1851L6.19413 10.198C6.18556 10.2281 6.17711 10.2581 6.16898 10.2884C6.16268 10.3118 6.15663 10.3353 6.15058 10.3588C6.14289 10.3887 6.13533 10.4186 6.12802 10.4487C6.12222 10.4725 6.11654 10.4964 6.111 10.5203C6.10407 10.5504 6.09726 10.5806 6.09064 10.6108C6.08541 10.6348 6.0803 10.6588 6.07533 10.6829C6.06896 10.7135 6.06297 10.7442 6.05698 10.775L6.05364 10.7925L6.05363 10.7926L6.05362 10.7926L6.05361 10.7927L6.05359 10.7927L6.05358 10.7928C6.05015 10.8107 6.04672 10.8286 6.0435 10.8465C6.0377 10.8782 6.03234 10.91 6.02698 10.9419L6.02352 10.9626L6.02351 10.9627L6.02349 10.9627C6.02076 10.979 6.01803 10.9952 6.01551 11.0115C6.01084 11.0416 6.00651 11.0718 6.00218 11.1021L6.00064 11.1128L5.99698 11.1385L5.99144 11.1779C5.98644 11.2154 5.98205 11.2533 5.97767 11.291L5.97738 11.2935L5.97461 11.3169L5.97127 11.3455C5.96522 11.4016 5.9598 11.4578 5.95514 11.5144L5.95432 11.5251C5.95035 11.5748 5.94688 11.6247 5.94385 11.6747L5.94208 11.7067L5.94121 11.7233C5.93913 11.7627 5.93743 11.8023 5.93591 11.8418L5.93421 11.8902C5.93264 11.9442 5.93144 11.9983 5.93112 12.0526C5.90522 15.9788 9.04819 19.0609 12.8803 19.0609H12.8866C12.9427 19.0609 12.9986 19.0601 13.0542 19.0587L13.0887 19.0576L13.109 19.0569C13.1464 19.0557 13.1838 19.0544 13.2211 19.0526C13.2383 19.0517 13.2554 19.0508 13.2725 19.0498L13.2857 19.0491C13.3197 19.0471 13.3535 19.045 13.3874 19.0426C13.4089 19.0411 13.4304 19.0394 13.4519 19.0377L13.4527 19.0377L13.4529 19.0376L13.4549 19.0375C13.4878 19.0348 13.5208 19.0319 13.5537 19.0287L13.5661 19.0275L13.5663 19.0275C13.5845 19.0258 13.6027 19.0241 13.6209 19.0222C13.6545 19.0186 13.688 19.0148 13.7214 19.0108L13.7529 19.0071L13.7848 19.0032C13.824 18.9982 13.863 18.9926 13.9021 18.9869L13.9229 18.984L13.947 18.9806C13.9988 18.9728 14.0504 18.9642 14.1019 18.9552C14.1168 18.9526 14.1316 18.9498 14.1464 18.947C14.1543 18.9455 14.1622 18.944 14.17 18.9426L14.1726 18.9421C14.2017 18.9367 14.2308 18.9313 14.2597 18.9256C14.2823 18.9211 14.3047 18.9163 14.3271 18.9116L14.3275 18.9115L14.336 18.9097C14.3421 18.9085 14.3482 18.9072 14.3543 18.9059C14.3749 18.9015 14.3956 18.897 14.4162 18.8925C14.4427 18.8865 14.4693 18.8804 14.4958 18.8742C14.5207 18.8683 14.5456 18.8623 14.5704 18.8562L14.6181 18.8443L14.6527 18.8354C14.6742 18.8298 14.6956 18.824 14.717 18.8182L14.7219 18.8169L14.7317 18.8142C14.757 18.8074 14.7824 18.8005 14.8075 18.7933L14.8418 18.7833L14.8657 18.7762L14.8852 18.7704L14.8893 18.7691ZM14.8924 18.7681L14.8893 18.7691L14.8894 18.7691L14.9275 18.7573L14.9571 18.7481L14.969 18.7444C14.9979 18.7354 15.0269 18.7264 15.0556 18.7171C15.0991 18.7029 15.1426 18.6885 15.1857 18.6736L14.8924 18.7681ZM14.8924 18.7681L14.9135 18.7616L14.8894 18.7691L14.8924 18.7681ZM14.106 13.4496C14.0636 13.6618 14.0594 13.8773 14.0995 14.0926C14.1224 14.2156 14.1727 14.3087 14.2413 14.368L14.106 13.4496ZM11.008 13.5627C10.9374 13.5624 10.8668 13.5625 10.7962 13.5626L10.7326 13.5626C10.6698 13.5627 10.607 13.5627 10.5442 13.5626C10.3734 13.5624 10.3696 13.5576 10.4092 13.3952C10.4642 13.1698 10.5997 13.0645 10.7967 13.0938C10.9503 13.1165 11.0807 13.3126 11.0785 13.5031C11.0778 13.563 11.0494 13.5629 11.0094 13.5627L11.008 13.5627ZM10.2112 12.9494C9.93991 13.2174 9.89441 13.5443 9.91874 13.8951C9.94313 14.2477 10.0723 14.5485 10.4159 14.6979C10.7713 14.8524 11.1128 14.7942 11.4288 14.5754C11.4334 14.5723 11.4387 14.569 11.4442 14.5656L11.4443 14.5656C11.4701 14.5497 11.5005 14.5311 11.4856 14.5028C11.4431 14.4225 11.398 14.3373 11.3323 14.2782C11.3073 14.2555 11.2792 14.28 11.2498 14.3055C11.2335 14.3197 11.2168 14.3342 11.2 14.3412C11.1791 14.35 11.1588 14.3607 11.1386 14.3714L11.1386 14.3714C11.1119 14.3855 11.0852 14.3996 11.0569 14.4091C10.7028 14.5279 10.4094 14.3448 10.3904 13.9997C10.3858 13.9146 10.4018 13.8772 10.4976 13.8821C10.6061 13.8877 10.7149 13.8865 10.8238 13.8853H10.8238C10.8695 13.8848 10.9151 13.8843 10.9607 13.8843C11.0047 13.8843 11.0486 13.8841 11.0926 13.8838C11.2031 13.8833 11.3136 13.8827 11.424 13.8854C11.494 13.8872 11.5278 13.8737 11.5266 13.7921C11.5243 13.6228 11.5136 13.4563 11.4721 13.2909C11.3165 12.6708 10.5272 12.6372 10.2112 12.9494ZM10.0806 9.55671C10.08 10.1119 10.0795 10.6671 10.0837 11.2222C10.0846 11.3387 10.0459 11.3518 9.9396 11.3671C9.68289 11.404 9.55936 11.3015 9.45972 11.0665C9.34847 10.8042 9.22493 10.5473 9.10281 10.2933M10.0806 9.55671C10.0807 9.37304 10.0809 9.18936 10.0809 9.00569ZM10.0809 9.00569C10.0809 8.74376 10.0806 8.74375 9.83048 8.73453ZM9.83048 8.73453L9.80913 8.73374ZM9.80913 8.73374C9.68182 8.72888 9.64527 8.76204 9.65138 8.89118ZM9.65138 8.89118C9.66283 9.13242 9.66155 9.37393 9.66027 9.61557ZM9.66027 9.61557V9.61557ZM9.66027 9.61557V9.61558ZM9.66027 9.61558V9.61559ZM9.66027 9.61559V9.6156ZM9.66027 9.6156V9.61561ZM9.66027 9.61561V9.61562ZM9.66027 9.61562V9.61563ZM9.66027 9.61563C9.65855 9.94219 9.65682 10.269 9.68649 10.5956ZM9.68649 10.5956C9.57842 10.297 9.43572 10.0149 9.29323 9.73323ZM9.29323 9.73323C9.18193 9.51322 9.07076 9.29346 8.97631 9.06626ZM8.97631 9.06626C8.86413 8.79657 8.7128 8.69138 8.42704 8.73109ZM8.42704 8.73109C8.32072 8.74584 8.29412 8.76544 8.29481 8.87076ZM8.29481 8.87076C8.2984 9.42017 8.298 9.96956 8.29759 10.5189ZM8.29759 10.5189V10.5193ZM8.29759 10.5193L8.29734 11.0439ZM8.29734 11.0439C8.29734 11.2045 8.29734 11.2844 8.33727 11.3241ZM8.33727 11.3241C8.37673 11.3634 8.45519 11.3635 8.61119 11.3637ZM8.61119 11.3637H8.6112ZM8.6112 11.3637L8.62179 11.3637ZM8.62179 11.3637C8.71513 11.3638 8.74116 11.3413 8.74034 11.244ZM8.74034 11.244C8.73621 10.8009 8.73673 10.3577 8.73724 9.92274ZM8.73724 9.92274V9.92254ZM8.73724 9.92254V9.92234ZM8.73724 9.92234V9.92214ZM8.73724 9.92214V9.92194ZM8.73724 9.92194V9.92174ZM8.73724 9.92174V9.92154ZM8.73724 9.92154V9.92134ZM8.73724 9.92134L8.73724 9.9187ZM8.73724 9.9187C8.73741 9.77737 8.73757 9.63691 8.73757 9.49761ZM8.73757 9.49761C8.84702 9.76146 8.97411 10.0257 9.1028 10.2933ZM12.4582 14.4651C12.3077 14.4394 12.3089 14.3441 12.3101 14.2528C12.3102 14.2402 12.3104 14.2277 12.3102 14.2154C12.3054 13.9674 12.3062 13.7193 12.307 13.4712C12.3073 13.3766 12.3077 13.2821 12.3077 13.1876L12.3078 12.9221C12.3081 12.7114 12.3083 12.5007 12.307 12.29C12.3068 12.2729 12.307 12.2558 12.3071 12.2386C12.3077 12.1594 12.3084 12.0798 12.2848 12.0025C12.2829 11.9962 12.2818 11.9889 12.2807 11.9816C12.2767 11.9555 12.2726 11.9284 12.2303 11.9378C12.1945 11.9458 12.1575 11.9519 12.1205 11.958C12.0264 11.9735 11.9321 11.9891 11.8571 12.0355C11.8125 12.0631 11.8279 12.1249 11.8439 12.1894C11.8529 12.2258 11.8622 12.263 11.8611 12.2954C11.8603 12.3174 11.8613 12.3395 11.8623 12.3616V12.3616V12.3616V12.3617C11.8631 12.3781 11.8639 12.3946 11.8639 12.411C11.8643 12.6137 11.8645 12.8164 11.8647 13.0191V13.0191V13.0191V13.0191V13.0191V13.0191C11.865 13.4486 11.8654 13.878 11.8684 14.3074C11.8708 14.6566 12.0944 14.8336 12.4292 14.7577C12.4387 14.7556 12.4499 14.7545 12.4614 14.7535C12.5009 14.7498 12.5446 14.7457 12.5403 14.6938C12.5398 14.6871 12.5393 14.68 12.5388 14.6727C12.5386 14.669 12.5384 14.6652 12.5381 14.6613L12.5381 14.6612C12.533 14.5802 12.5265 14.4768 12.4582 14.4651ZM13.2356 13.0695V13.7488C13.2356 13.8296 13.2353 13.9105 13.235 13.9914C13.2342 14.1997 13.2334 14.4079 13.2378 14.616C13.2397 14.7078 13.2094 14.7268 13.1233 14.7274L13.1139 14.7274C12.9549 14.7285 12.8753 14.729 12.8354 14.6895C12.7954 14.6498 12.7954 14.5698 12.7954 14.4094V14.4093L12.7957 14.0393C12.7961 13.676 12.7966 13.3127 12.7932 12.9494C12.7924 12.8598 12.8204 12.8263 12.9077 12.8083L12.9178 12.8063C13.0764 12.7736 13.1558 12.7572 13.1956 12.7896C13.2356 12.8221 13.2356 12.9037 13.2356 13.0674V13.0695ZM13.0178 11.9593C12.8661 11.9622 12.7386 12.094 12.7375 12.2493C12.7364 12.4035 12.8662 12.5384 13.0169 12.5398C13.1769 12.5413 13.3023 12.409 13.2996 12.2414C13.297 12.0794 13.1741 11.9565 13.0178 11.9593ZM8.45701 12.8598V12.9322C8.45701 13.1166 8.45701 13.2093 8.50316 13.2513C8.54985 13.2938 8.64377 13.2844 8.8327 13.2656C9.07856 13.2411 9.19668 13.1138 9.19964 12.8699C9.20254 12.6295 9.09924 12.5148 8.84833 12.4812L8.82213 12.4776C8.77345 12.4708 8.72449 12.464 8.67577 12.4643C8.64548 12.4644 8.61932 12.4642 8.59674 12.464C8.51898 12.4633 8.48362 12.463 8.46799 12.4804C8.45494 12.4949 8.45561 12.5218 8.45684 12.571C8.4575 12.5975 8.45832 12.6304 8.45726 12.6714C8.45618 12.7145 8.45646 12.7576 8.45675 12.8007V12.8007L8.45701 12.8598ZM9.09239 13.5875C9.08752 13.5897 9.08229 13.5921 9.07648 13.5945C9.26968 13.8189 9.42098 14.0687 9.57199 14.318C9.63336 14.4194 9.69467 14.5206 9.75874 14.62C9.80809 14.6966 9.80368 14.733 9.70334 14.7253L9.70296 14.7252C9.6935 14.7245 9.68368 14.7237 9.67441 14.7254C9.38619 14.7796 9.20084 14.6808 9.08745 14.3952C8.99934 14.1733 8.85961 13.9707 8.70463 13.7841C8.67259 13.7455 8.6371 13.7098 8.60167 13.6741L8.57549 13.6476C8.5506 13.6223 8.51726 13.6055 8.48385 13.6165C8.45023 13.6278 8.45332 13.6565 8.4562 13.6832C8.457 13.6907 8.45779 13.698 8.45776 13.7047L8.45685 13.8753V13.8754C8.45545 14.1132 8.45405 14.351 8.45934 14.5886C8.46161 14.6921 8.44049 14.7303 8.32654 14.7284L8.30956 14.7281C8.01084 14.7229 8.01072 14.7228 8.01072 14.41L8.01098 13.8779V13.8779V13.8775C8.01139 13.3304 8.0118 12.7832 8.00832 12.2361C8.00763 12.1306 8.03013 12.0915 8.14251 12.0985C8.26269 12.1059 8.38341 12.1027 8.50411 12.0995C8.69738 12.0943 8.89059 12.0892 9.08146 12.1277C9.45603 12.2032 9.66231 12.4554 9.6751 12.8242C9.68746 13.1804 9.49283 13.5133 9.11903 13.5778C9.11036 13.5793 9.10209 13.583 9.09244 13.5875L9.0924 13.5875L9.09239 13.5875ZM10.8944 9.98419C10.953 9.79171 11.1071 9.69295 11.2884 9.73165C11.4312 9.76215 11.5661 9.97852 11.5497 10.1397C11.5441 10.1951 11.516 10.1993 11.4742 10.199C11.408 10.1984 11.3419 10.1986 11.2757 10.1987L11.2001 10.1989L11.0557 10.1989C10.8401 10.1989 10.8322 10.1885 10.8944 9.98419ZM15.1088 18.6994C15.1336 18.6912 15.1585 18.6829 15.1832 18.6744C15.1585 18.6829 15.1336 18.6912 15.1087 18.6994L15.1088 18.6994ZM11.9563 11.1403C11.9169 11.0592 11.8713 10.9744 11.8066 10.9148C11.7776 10.8881 11.7471 10.9171 11.717 10.9456C11.7038 10.9582 11.6906 10.9707 11.6777 10.9783C11.2932 11.2049 10.9296 11.0592 10.8655 10.6518C10.8506 10.5572 10.8617 10.5104 10.9757 10.5181C11.0798 10.5251 11.1845 10.5235 11.2892 10.5219H11.2892C11.3343 10.5212 11.3793 10.5205 11.4243 10.5205H11.6269C11.825 10.5205 11.9239 10.5205 11.9689 10.4713C12.0139 10.422 12.0049 10.3235 11.987 10.1266C11.9515 9.736 11.7088 9.44967 11.3749 9.40454C10.9396 9.34568 10.6159 9.5282 10.4634 9.91694C10.3839 10.1195 10.3698 10.3315 10.391 10.5433C10.4254 10.8862 10.5495 11.1862 10.8883 11.3333C11.2376 11.485 11.5755 11.4342 11.8894 11.2221C11.895 11.2183 11.9014 11.2145 11.9081 11.2106C11.9376 11.1932 11.972 11.1729 11.9563 11.1403Z" fill="#DFDFDF"/>
</svg>
