<svg width="24" height="24" fill="none" xmlns="http://www.w3.org/2000/svg">
  <g clip-path="url(#Outbrain_svg__a)">
    <path fill="#EC6622" d="M24 12c0 6.627-5.373 12-12 12S0 18.627 0 12 5.373 0 12 0s12 5.373 12 12Z"/>
    <path fill="#fff" fill-opacity=".12" fill-rule="evenodd" d="M24 12c0 6.627-5.373 12-12 12S0 18.627 0 12 5.373 0 12 0s12 5.373 12 12ZM12 23.5c6.351 0 11.5-5.149 11.5-11.5S18.351.5 12 .5.5 5.649.5 12 5.649 23.5 12 23.5Z" clip-rule="evenodd"/>
    <path fill="#fff" d="M12 19.496a7.438 7.438 0 0 1-3.302-.656 7.304 7.304 0 0 1-3.455-3.069 7.041 7.041 0 0 1-.859-2.272 8.176 8.176 0 0 1-.024-2.812 7.145 7.145 0 0 1 1.866-3.78 7.514 7.514 0 0 1 3.183-2.01 6.212 6.212 0 0 1 1.618-.334 14.14 14.14 0 0 1 1.604-.06 7.801 7.801 0 0 1 4.137 1.504 7.31 7.31 0 0 1 2.344 2.923 7.457 7.457 0 0 1 .596 3.805 7.167 7.167 0 0 1-2.247 4.686 7.55 7.55 0 0 1-2.764 1.668 7.586 7.586 0 0 1-2.696.407Zm-4.466-5.922h-.42c-.139 0-.234.046-.21.206.02.12.038.242.055.362.035.245.07.488.13.73a4.46 4.46 0 0 0 1.356 2.235 4.971 4.971 0 0 0 2.93 1.316c1 .134 2.017-.03 2.921-.468 1.675-.765 2.754-2.404 2.778-4.217 0-.122-.038-.16-.148-.155h-.616a.842.842 0 0 0-.41.037c-.052.032-.064.121-.077.213-.006.045-.012.09-.023.13a1.85 1.85 0 0 1-1.189 1.184 1.895 1.895 0 0 1-1.675-.247 1.653 1.653 0 0 1-.706-1.026c-.032-.156-.124-.156-.235-.155h-.018c-.12 0-.191 0-.21.155a1.313 1.313 0 0 1-.129.37 1.817 1.817 0 0 1-1.961.993 1.733 1.733 0 0 1-1.432-1.2 1.075 1.075 0 0 1-.04-.168c-.02-.107-.038-.21-.103-.253-.072-.047-.204-.041-.33-.036a2.064 2.064 0 0 1-.148.003l-.09-.01ZM12.07 9.3a3.453 3.453 0 0 1-.328.323 7.212 7.212 0 0 1-2.448 1.19l-1.818.576a.266.266 0 0 0-.153.122c-.124.375-.239.75-.349 1.13-.033.116 0 .173.153.168h.978a.282.282 0 0 0 .2-.131c.245-.47.686-.812 1.208-.937a1.83 1.83 0 0 1 2.162 1.059c.066.171.17.178.315.187h.005a.282.282 0 0 0 .325-.187c.048-.136.116-.263.2-.38a1.875 1.875 0 0 1 1.618-.732c.63.042 1.197.395 1.503.938.053.125.184.2.32.183h.826c.276 0 .276-.033.214-.248a17.133 17.133 0 0 0-.4-1.19.242.242 0 0 0-.149-.132c-.371-.13-.745-.255-1.121-.38l-.788-.266a4.733 4.733 0 0 1-2.228-1.434.291.291 0 0 0-.067-.047 6.088 6.088 0 0 0-.178.188Zm3.041 4.16a1.03 1.03 0 0 0-.313-.763 1.07 1.07 0 0 0-.78-.3 1.109 1.109 0 0 0-.785.31 1.068 1.068 0 0 0-.326.767c.01.594.502 1.07 1.107 1.073.295.008.58-.104.788-.31.208-.206.32-.487.31-.777Zm-4.357-.76a1.08 1.08 0 0 0-.778-.303 1.11 1.11 0 0 0-.79.3c-.211.2-.332.475-.336.763.008.605.51 1.092 1.126 1.092a1.097 1.097 0 0 0 1.098-1.078v-.014a1.044 1.044 0 0 0-.32-.76Z"/>
  </g>
  <defs>
    <clipPath id="Outbrain_svg__a">
      <path fill="#fff" d="M0 0h24v24H0z"/>
    </clipPath>
  </defs>
</svg>
