<svg width="97" height="96" viewBox="0 0 97 96" fill="none" xmlns="http://www.w3.org/2000/svg">
<path fill-rule="evenodd" clip-rule="evenodd" d="M69.7251 34.0619C69.7251 44.0688 61.6128 52.1811 51.6059 52.1811C49.7005 52.1811 47.8638 51.887 46.1387 51.3417L43.1126 54.3678H36.7865V59.5632C36.7865 60.123 36.3327 60.5768 35.7729 60.5768H30.4604V68.1543C30.4604 68.7141 30.0066 69.1679 29.4468 69.1679H16.5V56.2813L34.0848 38.6965C33.6945 37.2172 33.4866 35.6638 33.4866 34.0619C33.4866 24.0549 41.5989 15.9426 51.6059 15.9426C61.6128 15.9426 69.7251 24.0549 69.7251 34.0619ZM56.702 34.6281C59.8292 34.6281 62.3642 32.093 62.3642 28.9658C62.3642 25.8386 59.8292 23.3035 56.702 23.3035C53.5748 23.3035 51.0397 25.8386 51.0397 28.9658C51.0397 32.093 53.5748 34.6281 56.702 34.6281Z" fill="#E2A412"/>
<path fill-rule="evenodd" clip-rule="evenodd" d="M72.7251 34.0619C72.7251 44.0688 64.6128 52.1811 54.6059 52.1811C52.7005 52.1811 50.8638 51.887 49.1387 51.3417L46.1126 54.3678H39.7865V59.5632C39.7865 60.123 39.3327 60.5768 38.7729 60.5768H33.4604V68.1543C33.4604 68.7141 33.0066 69.1679 32.4468 69.1679H19.5V56.2813L37.0848 38.6965C36.6945 37.2172 36.4866 35.6638 36.4866 34.0619C36.4866 24.0549 44.5989 15.9426 54.6059 15.9426C64.6128 15.9426 72.7251 24.0549 72.7251 34.0619ZM59.702 34.6281C62.8292 34.6281 65.3642 32.093 65.3642 28.9658C65.3642 25.8386 62.8292 23.3035 59.702 23.3035C56.5748 23.3035 54.0397 25.8386 54.0397 28.9658C54.0397 32.093 56.5748 34.6281 59.702 34.6281Z" fill="#F9BE1A"/>
<path fill-rule="evenodd" clip-rule="evenodd" d="M68.6768 51.1977C74.9215 46.7738 77.6402 38.536 74.7863 31.055C71.4038 22.1881 61.4736 17.7421 52.6066 21.1247C43.7397 24.5072 39.2937 34.4374 42.6763 43.3044C43.2178 44.7237 43.927 46.0298 44.7727 47.2086L35.1353 68.7342L39.4912 80.1527H42.2249C42.6103 80.1527 42.9624 79.9341 43.1333 79.5887L48.9572 67.8214L51.9695 66.6723C52.2868 65.234 52.7589 63.8538 53.3674 62.5501L52.4638 60.1815L55.4736 59.0333C56.5913 57.5388 57.9131 56.2059 59.3978 55.0759L59.7277 54.339C59.9956 54.3233 60.2638 54.3013 60.5322 54.2729C62.9363 52.6933 65.7013 51.6181 68.6768 51.1977ZM66.5413 29.0277C67.5983 31.7986 66.2089 34.9018 63.438 35.9588C60.6671 37.0159 57.5639 35.6265 56.5069 32.8556C55.4498 30.0847 56.8392 26.9815 59.6101 25.9244C62.381 24.8674 65.4842 26.2568 66.5413 29.0277Z" fill="#E2A412"/>
<path fill-rule="evenodd" clip-rule="evenodd" d="M51.5 71V73.2385C51.5 75.3123 50.2197 77.1709 48.2821 77.9101L42.4033 80.1527L38.0474 68.7341L47.6848 47.2085C46.8391 46.0297 46.1298 44.7236 45.5884 43.3043C42.2058 34.4373 46.6518 24.5071 55.5187 21.1246C64.3856 17.742 74.3158 22.188 77.6984 31.055C80.3039 37.8851 78.2645 45.346 73.1375 49.9593C72.3426 50.6745 71.2824 50.9804 70.2165 51.0656C59.9174 51.8898 51.5 60.3755 51.5 71ZM69.4535 29.0276C70.5105 31.7985 69.1212 34.9017 66.3503 35.9588C63.5794 37.0158 60.4762 35.6264 59.4191 32.8555C58.3621 30.0846 59.7514 26.9814 62.5223 25.9244C65.2933 24.8673 68.3964 26.2567 69.4535 29.0276Z" fill="#FFCC33"/>
<path fill-rule="evenodd" clip-rule="evenodd" d="M61.5369 26.4205C62.4027 27.3414 63.7725 28 65.5 28C68.5618 28 70.5 25.931 70.5 24C70.5 22.1902 68.7974 20.2591 66.0629 20.0239C64.5495 18.7873 62.8326 17.7906 60.9699 17.0918C62.332 16.3897 63.8959 16 65.5 16C70.1702 16 74.5 19.3036 74.5 24C74.5 28.6964 70.1702 32 65.5 32C63.1447 32 60.876 31.1597 59.2056 29.7243C59.5183 28.3861 60.3393 27.1867 61.5369 26.4205Z" fill="#999999"/>
<path fill-rule="evenodd" clip-rule="evenodd" d="M69.5 31.1612C68.2689 31.7033 66.8997 32 65.5 32C63.1447 32 60.876 31.1597 59.2056 29.7243C59.5183 28.3861 60.3393 27.1867 61.5369 26.4205C62.4027 27.3414 63.7725 28 65.5 28C67.2522 28 68.6364 27.3224 69.5 26.3808V31.1612Z" fill="url(#paint0_linear_21_1942)"/>
<path d="M93.0015 59C93.2989 59 93.5962 59.12 93.8236 59.3539C94.2785 59.8219 94.2785 60.5837 93.8236 61.0517L91.4913 63.4512C91.0364 63.9192 90.2959 63.9192 89.8411 63.4512C89.3863 62.9833 89.3863 62.2215 89.8411 61.7535L92.1735 59.3539C92.4009 59.12 92.6983 59 92.9957 59H93.0015Z" fill="#CCCCCC"/>
<path d="M91.8352 69.7982H95.3338C95.9752 69.7982 96.5 70.3381 96.5 70.998C96.5 71.6579 95.9752 72.1978 95.3338 72.1978H91.8352C91.1938 72.1978 90.669 71.6579 90.669 70.998C90.669 70.3381 91.1938 69.7982 91.8352 69.7982Z" fill="#CCCCCC"/>
<path d="M89.853 78.5518C90.0804 78.3178 90.3778 78.1978 90.6751 78.1978H90.681C90.9783 78.1978 91.2757 78.3178 91.5031 78.5518L93.8355 80.9513C94.2903 81.4193 94.2903 82.1811 93.8355 82.6491C93.3807 83.117 92.6402 83.117 92.1854 82.6491L89.853 80.2495C89.3982 79.7815 89.3982 79.0197 89.853 78.5518Z" fill="#CCCCCC"/>
<rect x="55.5" y="55" width="32" height="32" rx="16" fill="#DE5833"/>
<path d="M75.3144 70.4644C75.2167 70.5266 74.9033 70.4906 74.4905 70.4436C70.8305 69.8 70.474 71.8884 72.2374 75.0676C70.6406 75.5435 72.5239 80.148 74.0596 83.6055C72.3801 84.2003 69.2882 84.0722 67.8578 83.5445C67.8555 83.5372 67.8531 83.5286 67.8507 83.5213C67.5367 83.4054 67.1472 83.4066 66.965 83.1583C66.4731 79.7752 59.6098 63.6312 67.9951 62.5739C68.0477 62.5587 66.912 62.2057 65.3826 62.5881C63.4708 62.9704 67.2398 57.3826 71.1996 62.2816C75.5025 63.2224 75.8105 70.1484 75.315 70.4638L75.3144 70.4644Z" fill="white"/>
<path d="M76.7901 81.0891C76.7475 81.3636 76.6529 81.5466 76.4845 81.5723C76.1651 81.6211 74.7366 81.2941 73.9247 80.9853C73.8324 81.41 71.6561 81.812 71.3115 81.2416C70.5218 81.9243 69.0088 82.9145 68.6924 82.7071C68.0866 82.3105 67.5168 79.2563 67.9728 78.6108C68.6654 77.9812 70.1215 78.6663 71.1432 79.0281C71.4895 78.4424 73.1667 78.2203 73.5148 78.7011C74.4322 78.0038 75.9632 77.0203 76.1124 77.1996C76.8566 78.0965 76.9507 80.2306 76.7895 81.0897L76.7901 81.0891Z" fill="#4CBA3C"/>
<path fill-rule="evenodd" clip-rule="evenodd" d="M69.0294 71.8693C69.3415 69.654 73.5264 70.3471 75.3977 70.0982C76.7615 69.9402 77.7736 69.6046 78.4477 69.3429C79.9954 68.7072 80.2591 69.338 79.5023 70.3282C77.3655 72.8614 72.6132 71.0176 71.7623 72.3275C71.5137 72.7156 71.706 73.6289 73.6606 73.9169C76.3019 74.3049 78.4716 73.4489 78.7395 73.9663C78.1373 76.7313 68.1096 75.7899 69.0282 71.87L69.0294 71.8693Z" fill="#FFCC33"/>
<path d="M74.3713 65.4794C74.0944 64.8797 72.6713 64.884 72.3993 65.4563C72.3745 65.5744 72.4735 65.5432 72.6624 65.4838C72.9932 65.3797 73.5997 65.1888 74.2982 65.5624C74.3533 65.5862 74.4066 65.5289 74.3713 65.4794Z" fill="#14307E"/>
<path d="M67.4171 65.6234C67.1529 65.6043 66.7239 65.5734 66.3694 65.7704C65.8493 65.9918 65.6815 66.2304 65.5809 66.3939C65.5437 66.4543 65.3999 66.4482 65.3999 66.3768C65.4353 65.4226 67.0531 64.9626 67.6415 65.5556C67.7129 65.6447 67.608 65.6371 67.4171 65.6234Z" fill="#14307E"/>
<path d="M73.8644 68.8222C72.7757 68.8167 72.7757 67.1383 73.8644 67.1328C74.9532 67.1383 74.9532 68.8167 73.8644 68.8222Z" fill="#14307E"/>
<path d="M68.3471 68.5619C68.3255 69.8565 66.4278 69.8565 66.4062 68.5619C66.4122 67.2733 68.3411 67.2739 68.3471 68.5619Z" fill="#14307E"/>
<path fill-rule="evenodd" clip-rule="evenodd" d="M71.4997 58.9559C64.848 58.9559 59.4557 64.3482 59.4557 70.9999C59.4557 77.6516 64.848 83.0439 71.4997 83.0439C78.1515 83.0439 83.5438 77.6516 83.5438 70.9999C83.5438 64.3482 78.1515 58.9559 71.4997 58.9559ZM57.5439 70.9999C57.5439 63.2923 63.7922 57.0441 71.4997 57.0441C79.2073 57.0441 85.4555 63.2923 85.4555 70.9999C85.4555 78.7075 79.2073 84.9557 71.4997 84.9557C63.7922 84.9557 57.5439 78.7075 57.5439 70.9999Z" fill="white"/>
<defs>
<linearGradient id="paint0_linear_21_1942" x1="62.5" y1="29" x2="68.5" y2="29" gradientUnits="userSpaceOnUse">
<stop stop-color="#5F5F5F"/>
<stop offset="1" stop-color="#999999" stop-opacity="0"/>
</linearGradient>
</defs>
</svg>
