<svg width="128" height="106" viewBox="0 0 128 106" fill="none" xmlns="http://www.w3.org/2000/svg">
<g opacity="0.2">
<path d="M16.9906 35.1781C16.478 34.6655 16.478 33.8345 16.9906 33.3219L19.072 31.2405C19.5845 30.728 20.4156 30.728 20.9281 31.2405L23.0095 33.3219C23.5221 33.8345 23.5221 34.6655 23.0095 35.1781L20.9281 37.2595C20.4156 37.772 19.5845 37.772 19.072 37.2595L16.9906 35.1781Z" fill="#888888"/>
<path d="M11.7406 46.9906C11.228 46.478 11.228 45.647 11.7406 45.1344L12.5094 44.3656C13.022 43.853 13.853 43.853 14.3656 44.3656L15.1344 45.1344C15.647 45.647 15.647 46.478 15.1344 46.9906L14.3656 47.7594C13.853 48.272 13.022 48.272 12.5094 47.7594L11.7406 46.9906Z" fill="#888888"/>
<path d="M34.0531 40.4281C33.5405 39.9155 33.5405 39.0845 34.0531 38.5719L36.1345 36.4905C36.647 35.978 37.4781 35.978 37.9906 36.4905L40.072 38.5719C40.5846 39.0845 40.5846 39.9155 40.072 40.4281L37.9906 42.5095C37.4781 43.022 36.647 43.022 36.1345 42.5095L34.0531 40.4281Z" fill="#888888"/>
<path d="M99.6781 35.1781C99.1655 34.6655 99.1655 33.8345 99.6781 33.3219L101.759 31.2405C102.272 30.728 103.103 30.728 103.616 31.2405L105.697 33.3219C106.21 33.8345 106.21 34.6655 105.697 35.1781L103.616 37.2595C103.103 37.772 102.272 37.772 101.759 37.2595L99.6781 35.1781Z" fill="#888888"/>
<path d="M97.0531 61.4281C96.5405 60.9155 96.5405 60.0845 97.0531 59.5719L99.1345 57.4905C99.647 56.978 100.478 56.978 100.991 57.4905L103.072 59.5719C103.585 60.0845 103.585 60.9155 103.072 61.4281L100.991 63.5095C100.478 64.022 99.647 64.022 99.1345 63.5095L97.0531 61.4281Z" fill="#888888"/>
<path d="M106.241 65.3656C105.728 64.853 105.728 64.022 106.241 63.5094L107.009 62.7406C107.522 62.228 108.353 62.228 108.866 62.7406L109.634 63.5094C110.147 64.022 110.147 64.853 109.634 65.3656L108.866 66.1344C108.353 66.647 107.522 66.647 107.009 66.1344L106.241 65.3656Z" fill="#888888"/>
<path d="M97.0531 73.2406C96.5405 72.728 96.5405 71.897 97.0531 71.3844L99.1345 69.303C99.647 68.7905 100.478 68.7905 100.991 69.303L103.072 71.3844C103.585 71.897 103.585 72.728 103.072 73.2406L100.991 75.322C100.478 75.8345 99.647 75.8345 99.1345 75.322L97.0531 73.2406Z" fill="#888888"/>
<path d="M113.844 48.0311C113.482 47.6688 113.482 47.0812 113.844 46.7189C114.206 46.3565 114.794 46.3565 115.156 46.7189C115.519 47.0812 115.519 47.6688 115.156 48.0311C114.794 48.3935 114.206 48.3935 113.844 48.0311Z" fill="#888888"/>
<path d="M78.6781 20.7406C78.1655 20.228 78.1655 19.397 78.6781 18.8844L80.7595 16.803C81.272 16.2905 82.1031 16.2905 82.6156 16.803L84.697 18.8844C85.2096 19.397 85.2096 20.228 84.697 20.7406L82.6156 22.822C82.1031 23.3345 81.272 23.3345 80.7595 22.822L78.6781 20.7406Z" fill="#888888"/>
<path d="M69.4906 25.9906C68.978 25.478 68.978 24.647 69.4906 24.1344L71.572 22.053C72.0845 21.5405 72.9156 21.5405 73.4281 22.053L75.5095 24.1344C76.0221 24.647 76.0221 25.478 75.5095 25.9906L73.4281 28.072C72.9156 28.5845 72.0845 28.5845 71.572 28.072L69.4906 25.9906Z" fill="#888888"/>
<path d="M23.9375 61.8125C23.9375 62.5374 23.3499 63.125 22.625 63.125C21.9001 63.125 21.3125 62.5374 21.3125 61.8125C21.3125 61.0876 21.9001 60.5 22.625 60.5C23.3499 60.5 23.9375 61.0876 23.9375 61.8125Z" fill="#888888"/>
<path d="M84.6969 72.6969C85.2095 73.2095 86.0405 73.2095 86.5531 72.6969L87.3219 71.9281C87.8345 71.4155 87.8345 70.5845 87.3219 70.0719L86.5531 69.3031C86.0405 68.7905 85.2095 68.7905 84.6969 69.3031L83.9281 70.0719C83.4155 70.5845 83.4155 71.4155 83.9281 71.9281L84.6969 72.6969Z" fill="#888888"/>
</g>
<path d="M40.7214 80.497C35.503 82.3662 30.461 77.3242 32.3303 72.1058L48.5233 26.9002C49.1728 25.0871 51.4888 24.5674 52.8507 25.9293L86.898 59.9766C88.2598 61.3384 87.7402 63.6545 85.927 64.3039L40.7214 80.497Z" fill="#FFD65C"/>
<path fill-rule="evenodd" clip-rule="evenodd" d="M68.3135 70.6131C63.347 68.5027 57.9387 64.7252 53.0205 59.807C48.1022 54.8887 44.3246 49.4802 42.2143 44.5137L44.4239 38.3453C45.3007 43.5935 49.4229 50.6409 55.8048 57.0227C62.1865 63.4044 69.2336 67.5266 74.4817 68.4035L68.3135 70.6131Z" fill="#876ECB"/>
<path fill-rule="evenodd" clip-rule="evenodd" d="M55.1559 75.327C51.7529 73.7717 48.1549 71.1927 44.8952 67.933C41.6355 64.6733 39.0565 61.0754 37.5013 57.6723L39.7843 51.2989C39.927 54.9576 42.8613 60.3306 47.6795 65.1488C52.4976 69.9669 57.8706 72.9012 61.5293 73.044L55.1559 75.327Z" fill="#876ECB"/>
<path fill-rule="evenodd" clip-rule="evenodd" d="M44.5276 79.1337C42.4453 77.9478 40.3489 76.324 38.4262 74.4014C36.5035 72.4787 34.8798 70.3824 33.6939 68.3001L35.6562 62.8219C36.2447 65.3676 38.2317 68.6384 41.2104 71.6172C44.1892 74.596 47.4601 76.583 50.0059 77.1714L44.5276 79.1337Z" fill="#876ECB"/>
<g opacity="0.4">
<path d="M44.1686 79.2623C40.2122 80.6795 37.0849 75.7429 40.0565 72.7712L68.0188 44.809C69.0439 43.7838 70.7059 43.7838 71.7311 44.809L86.8985 59.9765C88.2604 61.3383 87.7408 63.6544 85.9276 64.3038L44.1686 79.2623Z" fill="#FFCC33" style="mix-blend-mode:multiply"/>
</g>
<path d="M89.3644 62.4428C84.7513 67.0559 72.2858 62.0697 61.522 51.3059C50.7582 40.542 45.772 28.0766 50.3851 23.4635C54.9982 18.8505 67.4636 23.8366 78.2274 34.6005C88.9912 45.3643 93.9774 57.8297 89.3644 62.4428Z" fill="#FFCC33"/>
<path d="M61.5221 51.3057C72.286 62.0696 84.7514 67.0557 89.3645 62.4427C93.9775 57.8296 88.9914 45.3642 78.2275 34.6003L61.5221 51.3057Z" fill="#FFDE7A"/>
<path fill-rule="evenodd" clip-rule="evenodd" d="M84.5556 60.225C85.8455 60.2165 86.3684 59.8703 86.5801 59.6586C86.7919 59.4468 87.1381 58.9239 87.1466 57.634C87.1552 56.3204 86.7961 54.515 85.9063 52.2905C84.1324 47.8557 80.5406 42.4821 75.4432 37.3847C70.3458 32.2873 64.9722 28.6955 60.5374 26.9215C58.3129 26.0318 56.5075 25.6726 55.1939 25.6813C53.904 25.6898 53.3811 26.036 53.1693 26.2478C52.9576 26.4595 52.6113 26.9824 52.6029 28.2723C52.5942 29.586 52.9533 31.3913 53.8431 33.6158C55.617 38.0506 59.2088 43.4242 64.3063 48.5216C69.4037 53.619 74.7773 57.2109 79.2121 58.9848C81.4365 59.8746 83.2419 60.2337 84.5556 60.225ZM61.522 51.3059C72.2858 62.0697 84.7513 67.0559 89.3644 62.4428C93.9774 57.8297 88.9912 45.3643 78.2274 34.6005C67.4636 23.8366 54.9982 18.8505 50.3851 23.4635C45.772 28.0766 50.7582 40.542 61.522 51.3059Z" fill="#E2A412"/>
<path fill-rule="evenodd" clip-rule="evenodd" d="M64.9656 16.603C65.5681 15.6979 66.7902 15.4525 67.6954 16.055C71.4444 18.5504 72.4814 22.6158 71.6893 26.6442C70.911 30.602 68.3799 34.6859 64.758 37.9633C63.9518 38.6929 62.7068 38.6307 61.9773 37.8245C61.2477 37.0183 61.3099 35.7733 62.1161 35.0437C65.2644 32.1948 67.2476 28.8245 67.8258 25.8845C68.39 23.0149 67.6257 20.7387 65.5136 19.3328C64.6085 18.7303 64.3631 17.5081 64.9656 16.603Z" fill="#DE5833"/>
<path fill-rule="evenodd" clip-rule="evenodd" d="M99.4085 48.4657C91.5929 45.1006 82.2673 48.4257 76.5062 53.2029C75.6693 53.897 74.4281 53.7811 73.7341 52.9441C73.04 52.1071 73.1559 50.866 73.9929 50.1719C80.3636 44.8892 91.2576 40.6693 100.966 44.8492C101.964 45.2792 102.425 46.4373 101.995 47.436C101.565 48.4347 100.407 48.8957 99.4085 48.4657Z" fill="#3969EF"/>
<path fill-rule="evenodd" clip-rule="evenodd" d="M96.8423 19.9141C97.9339 21.668 98.5359 24.1146 98.0255 26.0848C97.6644 27.4789 96.7616 28.4015 95.6635 28.9142C94.6608 29.3824 93.5462 29.4909 92.6097 29.497C91.7058 29.5029 90.7821 29.4107 90.0031 29.3236C90.0337 29.5732 90.0673 29.8356 90.1028 30.1058C90.1654 30.5814 90.2284 31.0407 90.2893 31.4837C90.3362 31.8258 90.3819 32.1582 90.4249 32.481C90.5086 33.1077 90.6019 33.823 90.6019 34.2039C90.6019 34.6158 90.5187 35.2167 90.1027 35.7653C89.6527 36.3588 89.0317 36.6076 88.5157 36.677C87.6781 36.7896 86.8816 36.4686 86.45 36.277C85.4262 35.8225 84.1659 34.9901 83.0664 34.2396C82.7342 34.0128 82.4124 33.7905 82.1031 33.5768C81.7818 33.3549 81.474 33.1423 81.1821 32.9437C81.1909 33.119 81.2017 33.3017 81.2139 33.4927C81.2194 33.5799 81.2254 33.6694 81.2315 33.761C81.3046 34.8641 81.3979 36.2702 81.1161 37.6453C80.8977 38.7104 79.8573 39.3969 78.7921 39.1786C77.7269 38.9603 77.0404 37.9198 77.2587 36.8546C77.4301 36.0186 77.3722 35.1146 77.2919 33.8618C77.2894 33.8228 77.2869 33.7835 77.2844 33.7438C77.2079 32.5467 77.1161 31 77.5532 29.4691C77.6597 29.0959 77.8813 28.6983 78.2651 28.3872C78.6367 28.0861 79.0368 27.9659 79.3458 27.9242C79.8934 27.8502 80.3616 27.9929 80.5811 28.0677C81.0812 28.2382 81.6161 28.5426 82.0647 28.8177C82.7561 29.2417 83.606 29.8289 84.434 30.4009C84.7233 30.6008 85.01 30.7989 85.2863 30.9874C85.6597 31.2423 86.0138 31.4797 86.3438 31.6939C86.2947 31.3354 86.2448 30.9677 86.1989 30.6194C86.0902 29.7926 85.987 28.9472 85.9368 28.2968C85.9127 27.9849 85.8944 27.6423 85.9073 27.3473C85.9128 27.2217 85.9281 26.965 86.0083 26.6883C86.0458 26.5589 86.1405 26.2673 86.3726 25.9708C86.6382 25.6314 87.1702 25.1978 87.9544 25.1978C88.5873 25.1978 89.3622 25.287 90.0475 25.3658C90.1349 25.3758 90.2209 25.3857 90.3049 25.3952C91.1191 25.4874 91.8872 25.5641 92.5842 25.5596C93.3039 25.5549 93.7522 25.4611 93.9976 25.3465C94.1475 25.2765 94.178 25.2358 94.2139 25.0974C94.384 24.4407 94.1876 23.1004 93.4994 21.9948C92.8118 20.8901 92.2429 20.8534 91.9009 20.9675C90.8695 21.3116 89.7544 20.7544 89.4103 19.7229C89.0662 18.6915 89.6235 17.5764 90.6549 17.2323C93.5579 16.2639 95.7501 18.1594 96.8423 19.9141ZM89.841 27.52C89.8417 27.5054 89.8422 27.5086 89.8408 27.5258C89.8409 27.5237 89.841 27.5218 89.841 27.52Z" fill="#DE5833"/>
</svg>
