<svg width="24" height="24" viewBox="0 0 24 24" fill="none" xmlns="http://www.w3.org/2000/svg">
<circle cx="12" cy="12" r="11" fill="#444444"/>
<path fill-rule="evenodd" clip-rule="evenodd" d="M24 12C24 18.6274 18.6274 24 12 24C5.37258 24 0 18.6274 0 12C0 5.37258 5.37258 0 12 0C18.6274 0 24 5.37258 24 12ZM21.5586 7L20.4684 9.33742L20.0567 8.45019H19.6114L20.2879 9.90071H20.6476L22 7.00032V7H21.5586ZM10.8609 8.20738H9.97494V7.42309H10.8609V8.20738ZM18.6214 8.36565C18.226 8.36565 17.95 8.53518 17.7412 8.84562H17.7239V8.45026H16.872V11.34H17.7522V9.73156C17.7522 9.36451 17.9664 9.10523 18.2826 9.10523C18.5876 9.10523 18.7456 9.31947 18.7456 9.62444V11.34H19.626V9.45491C19.626 8.81731 19.2423 8.36565 18.6214 8.36565ZM15.7885 9.901C15.7885 9.36474 15.5566 9.0202 15.139 9.0202C14.7215 9.0202 14.5014 9.36474 14.5014 9.901C14.5014 10.4315 14.7215 10.7815 15.139 10.7815C15.5566 10.7815 15.7885 10.4315 15.7885 9.901ZM16.6799 9.901C16.6799 10.7644 16.0645 11.4303 15.1448 11.4303C14.2248 11.4303 13.6097 10.7644 13.6097 9.901C13.6097 9.03178 14.2248 8.37103 15.1448 8.37103C16.0645 8.37103 16.6799 9.03178 16.6799 9.901ZM8.80079 10.0137C8.80079 9.41022 9.16205 9.1445 9.71504 9.21785H9.73209V8.45608C9.68674 8.43903 9.63623 8.43356 9.5513 8.43356C9.20709 8.43356 8.97579 8.59151 8.77827 8.92994H8.76122V8.45029H7.92032V11.3401H8.80079V10.0137ZM4.93481 8.45029L3.93016 11.3401H3.00465L2 8.45029H2.90846L3.47271 10.3074H3.48429L4.04854 8.45029H4.93481ZM8.75093 13.3508C8.4006 13.3508 8.21981 13.5711 8.15773 13.9157H9.29909C9.265 13.5711 9.05043 13.3508 8.75093 13.3508ZM8.7342 12.6955C9.14661 12.6955 9.4741 12.8309 9.72276 13.0571C10.0676 13.3733 10.2368 13.8761 10.2314 14.4638H8.15194C8.20855 14.8537 8.42312 15.0966 8.80176 15.0966C9.04463 15.0966 9.20291 14.9892 9.28204 14.8084H10.1805C10.1184 15.0683 9.94859 15.317 9.69446 15.492C9.45158 15.6615 9.15787 15.7577 8.7905 15.7577C7.83571 15.7577 7.24798 15.0966 7.24798 14.221C7.24798 13.3562 7.85276 12.6955 8.7342 12.6955ZM13.5138 9.12765L12.1759 10.629V10.6457H13.5759V11.3399H11.1037V10.6743L12.458 9.16143V9.1447H11.1037V8.45048H13.5138V9.12765ZM16.7965 14.639C16.7965 14.9498 16.5594 15.1589 16.2145 15.1589C15.9887 15.1589 15.8192 15.0681 15.8192 14.8368C15.8192 14.6165 15.9659 14.5258 16.322 14.4469C16.5082 14.4016 16.6778 14.3565 16.7965 14.2941V14.639ZM17.6779 15.2209V13.763C17.6779 13.4014 17.5592 13.119 17.3109 12.9382C17.1018 12.7799 16.8077 12.7011 16.3728 12.7011C15.4968 12.7011 15.0848 13.1586 15.0619 13.6955H15.9096C15.9379 13.4526 16.0846 13.3223 16.3786 13.3223C16.6553 13.3223 16.774 13.4468 16.774 13.6334C16.774 13.8309 16.5819 13.8875 16.0392 13.9554C15.4405 14.0345 14.9319 14.2266 14.9319 14.8648C14.9319 15.4355 15.3444 15.7463 15.9208 15.7463C16.3558 15.7463 16.6099 15.5938 16.7798 15.3509H16.7907C16.8135 15.4976 16.8418 15.6108 16.8869 15.6729H17.7796V15.6334C17.7008 15.5825 17.6779 15.4526 17.6779 15.2209ZM11.3556 14.2153C11.3556 14.7181 11.5705 15.0344 11.9263 15.0344C12.3104 15.0344 12.5362 14.7011 12.5366 14.2266C12.5366 13.7405 12.3387 13.3902 11.9376 13.3902C11.5705 13.3902 11.3556 13.7292 11.3556 14.2153ZM12.4967 13.1077H12.5137V11.7557H13.4347V15.6729H12.5533V15.283H12.542C12.367 15.5825 12.0675 15.7633 11.6889 15.7633C10.9487 15.7633 10.4233 15.1926 10.4233 14.2266C10.4233 13.3223 10.9432 12.6953 11.6889 12.6953C12.0958 12.6953 12.3275 12.8649 12.4967 13.1077ZM6.25536 8.99791C6.56579 8.99791 6.78036 9.22921 6.81414 9.56795H5.63449C5.70237 9.22374 5.88831 8.99791 6.25536 8.99791ZM7.66631 10.4822H6.81961C6.735 10.6743 6.56 10.7868 6.3004 10.7868C5.91115 10.7868 5.67406 10.533 5.62902 10.1435H7.71167C7.71713 9.52259 7.55371 9.0259 7.20918 8.71578C6.9663 8.48995 6.64461 8.36578 6.23831 8.36578C5.36942 8.36578 4.76528 9.0259 4.76528 9.88932C4.76528 10.7589 5.34111 11.4248 6.29493 11.4248C6.65619 11.4248 6.94411 11.3289 7.18087 11.1652C7.43501 10.9902 7.6158 10.736 7.66631 10.4822ZM5.15758 13.2039C5.38373 12.8536 5.69449 12.6953 6.06733 12.6953C6.72262 12.6953 7.05043 13.1418 7.05043 13.7913V15.6729H6.12942V13.9554C6.12942 13.6446 5.99945 13.4639 5.72248 13.4639C5.42877 13.4639 5.26503 13.7067 5.26503 14.0513V15.6729H4.34402V13.9554C4.34402 13.6446 4.21406 13.4639 3.93708 13.4639C3.64884 13.4639 3.47963 13.7067 3.47963 14.0513V15.6729H2.55862V12.7799H3.44006V13.1923H3.45711C3.6379 12.8932 3.91456 12.6953 4.33276 12.6953C4.71139 12.6953 4.99931 12.8932 5.14632 13.2039H5.15758ZM9.97494 11.34H10.8609V8.45026H9.97494V11.34ZM13.7905 12.5451H14.7116V11.7557H13.7905V12.5451ZM14.7116 15.6729H13.7905V12.7799H14.7116V15.6729Z" fill="#DFDFDF"/>
</svg>
