<svg width="24" height="24" viewBox="0 0 24 24" fill="none" xmlns="http://www.w3.org/2000/svg">
<g id="Device-All-24">
<g id="Union">
<path d="M19.1582 2.84238C19.637 3.32128 19.1728 4 18.4956 4H4.875C4.39175 4 4 4.39175 4 4.875V12.125C4 12.6082 4.39175 13 4.875 13H9V19C9 19.5523 8.55228 20 8 20H5C4.44771 20 4 19.5523 4 19C4 18.4477 4.44771 18 5 18H8V16H4.875C3.28718 16 2 14.7128 2 13.125V4.875C2 3.28718 3.28718 2 4.875 2H17.125C17.9191 2 18.6379 2.32192 19.1582 2.84238Z" fill="black"/>
<path d="M15 8.5C15 8.22386 15.2239 8 15.5 8H16.5C16.7761 8 17 8.22386 17 8.5C17 8.77614 16.7761 9 16.5 9H15.5C15.2239 9 15 8.77614 15 8.5Z" fill="black"/>
<path fill-rule="evenodd" clip-rule="evenodd" d="M10 7.875C10 6.28718 11.2872 5 12.875 5H19.125C20.7128 5 22 6.28718 22 7.875V19.125C22 20.7128 20.7128 22 19.125 22H12.875C11.2872 22 10 20.7128 10 19.125V7.875ZM12.875 7C12.3918 7 12 7.39175 12 7.875V19.125C12 19.6082 12.3918 20 12.875 20H19.125C19.6082 20 20 19.6082 20 19.125V7.875C20 7.39175 19.6082 7 19.125 7H12.875Z" fill="black"/>
</g>
</g>
</svg>
