<svg width="64" height="64" viewBox="0 0 64 64" fill="none" xmlns="http://www.w3.org/2000/svg">
<path opacity="0.53" d="M58.9741 34.2936C58.9741 37.7045 58.2764 41.082 56.9209 44.2332C55.5653 47.3845 53.5785 50.2478 51.0738 52.6596C48.5691 55.0715 45.5956 56.9847 42.3231 58.29C39.0506 59.5953 35.5431 60.2671 32.0009 60.2671C28.4588 60.2671 24.9513 59.5953 21.6788 58.29C18.4063 56.9847 15.4328 55.0715 12.9281 52.6596C10.4234 50.2478 8.43656 47.3845 7.08104 44.2332C5.72551 41.082 5.02783 37.7045 5.02783 34.2936C5.02783 27.405 7.86963 20.7985 12.9281 15.9275C17.9865 11.0566 24.8472 8.32007 32.0009 8.32007C35.5431 8.32007 39.0506 8.99189 42.3231 10.2972C45.5956 11.6025 48.5691 13.5157 51.0738 15.9275C53.5785 18.3394 55.5653 21.2027 56.9209 24.354C58.2764 27.5052 58.9741 30.8827 58.9741 34.2936Z" fill="black"/>
<path d="M60 32C60 35.677 59.2758 39.318 57.8686 42.7151C56.4615 46.1123 54.399 49.199 51.799 51.799C49.199 54.3991 46.1123 56.4615 42.7151 57.8687C39.318 59.2758 35.677 60 32 60C24.5739 60 17.452 57.05 12.201 51.799C6.94999 46.548 4 39.4261 4 32C4 24.5739 6.94999 17.452 12.201 12.201C17.452 6.95 24.5739 4 32 4C35.677 4 39.318 4.72424 42.7151 6.13138C46.1123 7.53851 49.199 9.60098 51.799 12.201C54.399 14.8011 56.4615 17.8877 57.8686 21.2849C59.2758 24.682 60 28.323 60 32Z" fill="url(#paint0_linear_4730_968)" stroke="#CDCDCD" stroke-width="0.351543" stroke-linecap="round" stroke-linejoin="round"/>
<path d="M57.8053 32C57.8053 38.8442 55.0864 45.408 50.2469 50.2476C45.4073 55.0872 38.8435 57.806 31.9993 57.806C25.1551 57.806 18.5913 55.0872 13.7517 50.2476C8.91219 45.408 6.19336 38.8442 6.19336 32C6.19336 25.1559 8.91219 18.592 13.7517 13.7525C18.5913 8.91292 25.1551 6.19409 31.9993 6.19409C38.8435 6.19409 45.4073 8.91292 50.2469 13.7525C55.0864 18.592 57.8053 25.1559 57.8053 32Z" fill="url(#paint1_radial_4730_968)"/>
<path d="M31.9995 7.53979C31.7911 7.53979 31.6233 7.70759 31.6233 7.91603V12.2558C31.6233 12.4643 31.7911 12.6321 31.9995 12.6321C32.208 12.6321 32.3758 12.4643 32.3758 12.2558V7.91603C32.3758 7.70759 32.208 7.53979 31.9995 7.53979ZM29.5382 7.69536C29.5132 7.69268 29.4876 7.69268 29.4617 7.69567C29.2543 7.7173 29.1049 7.90162 29.1265 8.10894L29.3162 9.92451C29.3378 10.1318 29.5221 10.2813 29.7294 10.2597C29.9367 10.238 30.0862 10.0537 30.0646 9.84641L29.8751 8.03084C29.8561 7.84943 29.7126 7.7123 29.5382 7.69536ZM34.4781 7.69715C34.3036 7.71395 34.1601 7.85108 34.141 8.03246L33.9501 9.84788C33.9282 10.0552 34.0777 10.2397 34.285 10.2615C34.4923 10.2833 34.6767 10.1339 34.6985 9.92663L34.8894 8.11105C34.9112 7.90375 34.7617 7.71942 34.5544 7.69763C34.5285 7.69495 34.5031 7.69493 34.4781 7.69715ZM27.0097 8.06202C26.9847 8.06221 26.9592 8.0647 26.9338 8.07006C26.7298 8.11324 26.6004 8.3122 26.6436 8.51612L27.5424 12.7617C27.5855 12.9657 27.7845 13.0951 27.9884 13.0519C28.1923 13.0087 28.3218 12.8099 28.2786 12.606L27.3798 8.36024C27.342 8.1818 27.185 8.06065 27.0097 8.06202ZM37.0064 8.06559C36.8311 8.06381 36.6741 8.18532 36.6362 8.36372L35.7343 12.6088C35.6909 12.8127 35.8203 13.0117 36.0241 13.0551C36.228 13.0984 36.4271 12.9691 36.4704 12.7652L37.3722 8.52008C37.4156 8.31619 37.2862 8.11717 37.0824 8.07386C37.0569 8.0685 37.0314 8.06559 37.0064 8.06559ZM24.5967 8.74239C24.548 8.73792 24.4977 8.74328 24.4482 8.75973C24.2499 8.82418 24.1421 9.03548 24.2065 9.23372L24.7707 10.9699C24.8351 11.1681 25.0466 11.2759 25.2448 11.2115C25.4431 11.1471 25.5507 10.9356 25.4863 10.7374L24.9222 9.00119C24.8739 8.85251 24.7429 8.75481 24.5967 8.74239ZM39.4057 8.74328C39.2596 8.75571 39.1286 8.85344 39.0803 9.00212L38.5159 10.7381C38.4514 10.9364 38.5591 11.1478 38.7573 11.2123C38.9556 11.2767 39.1671 11.169 39.2315 10.9708L39.7959 9.23465C39.8604 9.03641 39.7527 8.82494 39.5545 8.7605C39.5049 8.74441 39.4544 8.73917 39.4057 8.74328ZM22.2106 9.61559C22.1617 9.61648 22.1122 9.62721 22.0646 9.6484C21.8742 9.73304 21.789 9.95449 21.8736 10.145L23.6363 14.1106C23.7209 14.3011 23.9424 14.3863 24.1328 14.3016C24.3232 14.2169 24.4086 13.9955 24.3239 13.805L22.5611 9.83936C22.4977 9.69649 22.3572 9.61275 22.2106 9.61559ZM41.8189 9.62891C41.6723 9.62623 41.5317 9.70945 41.468 9.85218L39.7 13.8154C39.615 14.0058 39.6999 14.2274 39.8903 14.3123C40.0806 14.3972 40.3022 14.3124 40.3872 14.122L42.1552 10.1588C42.2401 9.9684 42.1552 9.7468 41.9649 9.66187C41.9173 9.64069 41.8677 9.62998 41.8189 9.62891ZM19.9957 10.7875C19.9235 10.7821 19.849 10.7982 19.7813 10.8374C19.6008 10.9416 19.5394 11.1708 19.6436 11.3513L20.5564 12.9323C20.6606 13.1128 20.8898 13.1742 21.0703 13.07C21.2508 12.9657 21.3122 12.7365 21.208 12.556L20.2953 10.9751C20.2301 10.8623 20.1161 10.7959 19.9957 10.7875ZM44.0034 10.7875C43.883 10.7955 43.7691 10.8622 43.704 10.9751L42.791 12.556C42.6868 12.7365 42.7484 12.9657 42.9289 13.0699C43.1094 13.1741 43.3386 13.1127 43.4428 12.9322L44.3556 11.3513C44.4598 11.1708 44.3984 10.9416 44.2179 10.8373C44.1502 10.7983 44.0756 10.7825 44.0034 10.7875ZM17.8449 12.1289C17.7725 12.1316 17.7 12.1548 17.6368 12.2007C17.4681 12.3231 17.4308 12.5574 17.5532 12.7262L20.1014 16.239C20.2238 16.4077 20.4583 16.445 20.6271 16.3226C20.7958 16.2002 20.8331 15.9659 20.7106 15.7972L18.1622 12.2844C18.0857 12.1789 17.9656 12.1248 17.8449 12.1289ZM46.1811 12.1481C46.0605 12.1436 45.9403 12.1977 45.8636 12.303L43.3105 15.8123C43.1879 15.9809 43.2249 16.2153 43.3935 16.338C43.562 16.4606 43.7965 16.4237 43.9191 16.2552L46.472 12.7458C46.5947 12.5773 46.5576 12.3428 46.3891 12.2202C46.3259 12.1743 46.2534 12.1506 46.1811 12.1481ZM15.9225 13.7412C15.8265 13.7358 15.7285 13.7679 15.651 13.8376C15.4961 13.9771 15.4836 14.214 15.6231 14.3689L16.8446 15.7258C16.984 15.8807 17.2209 15.8932 17.3759 15.7537C17.5308 15.6142 17.5432 15.3771 17.4038 15.2222L16.1825 13.8655C16.1128 13.788 16.0186 13.7462 15.9225 13.7412ZM48.0793 13.7439C47.9833 13.7492 47.8891 13.7908 47.8193 13.8682L46.5979 15.2248C46.4584 15.3797 46.4708 15.6168 46.6257 15.7562C46.7806 15.8957 47.0175 15.8832 47.157 15.7284L48.3786 14.3718C48.5181 14.2169 48.5056 13.9798 48.3507 13.8404C48.2732 13.7706 48.1754 13.7388 48.0793 13.7439ZM14.08 15.511C13.9839 15.5164 13.8899 15.558 13.8202 15.6354C13.6807 15.7903 13.6932 16.0273 13.8481 16.1667L17.0734 19.0703C17.2284 19.2097 17.4653 19.1973 17.6047 19.0424C17.7442 18.8875 17.7319 18.6505 17.5769 18.5111L14.3514 15.6075C14.2739 15.5378 14.176 15.506 14.08 15.511ZM49.9308 15.5237C49.8347 15.5184 49.7366 15.5504 49.6591 15.62L46.4318 18.5213C46.2768 18.6606 46.264 18.8976 46.4034 19.0526C46.5427 19.2076 46.7798 19.2202 46.9348 19.0808L50.1623 16.1796C50.3173 16.0402 50.3299 15.8033 50.1906 15.6483C50.1208 15.5708 50.0268 15.5288 49.9308 15.5237ZM12.5478 17.4812C12.4271 17.4768 12.3069 17.5311 12.2303 17.6365C12.1078 17.8051 12.1449 18.0394 12.3136 18.1619L13.7905 19.235C13.9591 19.3575 14.1934 19.3205 14.3159 19.1518C14.4385 18.9832 14.4014 18.7487 14.2328 18.6262L12.7559 17.5532C12.6927 17.5072 12.6201 17.4838 12.5478 17.4812ZM51.4615 17.4949C51.3891 17.4976 51.3166 17.5208 51.2534 17.5667L49.7759 18.6387C49.6072 18.7611 49.5698 18.9956 49.6922 19.1644C49.8146 19.3331 50.049 19.3702 50.2177 19.2479L51.6953 18.1758C51.8641 18.0534 51.9012 17.8191 51.7788 17.6504C51.7023 17.5449 51.5821 17.4908 51.4615 17.4949ZM11.1159 19.5828C10.9955 19.5909 10.8816 19.6575 10.8164 19.7704C10.7122 19.9509 10.7736 20.1801 10.9541 20.2843L14.7125 22.4542C14.893 22.5584 15.1222 22.497 15.2264 22.3165C15.3306 22.136 15.2692 21.9068 15.0887 21.8026L11.3304 19.6327C11.2627 19.5936 11.1881 19.5778 11.1159 19.5828ZM52.8832 19.5828C52.811 19.5775 52.7364 19.5935 52.6687 19.6327L48.9104 21.8026C48.7299 21.9068 48.6684 22.136 48.7727 22.3165C48.8769 22.497 49.1061 22.5585 49.2866 22.4542L53.0451 20.2843C53.2256 20.1801 53.287 19.9509 53.1828 19.7704C53.1176 19.6576 53.0036 19.5912 52.8832 19.5828ZM10.0333 21.8229C9.88667 21.8193 9.74606 21.9032 9.68238 22.046C9.59746 22.2363 9.68232 22.4579 9.8727 22.5429L11.54 23.2866C11.7304 23.3715 11.952 23.2866 12.0369 23.0963C12.1218 22.9059 12.0368 22.6843 11.8464 22.5994L10.1793 21.8557C10.1317 21.8344 10.0822 21.8238 10.0333 21.8229ZM53.9731 21.8383C53.9242 21.8392 53.8745 21.8499 53.8269 21.8711L52.1593 22.6135C51.9689 22.6984 51.8837 22.9198 51.9685 23.1103C52.0533 23.3007 52.275 23.3858 52.4654 23.3011L54.133 22.5585C54.3235 22.4737 54.4084 22.2522 54.3237 22.0618C54.2601 21.9189 54.1197 21.8354 53.9731 21.8383ZM9.06842 24.1641C8.92228 24.1764 8.79127 24.274 8.74284 24.4226C8.67831 24.6208 8.78575 24.8324 8.98398 24.8969L13.1102 26.2414C13.3084 26.306 13.52 26.1985 13.5846 26.0003C13.6491 25.8021 13.5417 25.5906 13.3434 25.526L9.21716 24.1815C9.16764 24.1653 9.11712 24.16 9.06842 24.1641ZM54.9362 24.1802C54.8875 24.1757 54.8371 24.1811 54.7876 24.1975L50.6604 25.5391C50.4621 25.6036 50.3545 25.8151 50.4189 26.0133C50.4833 26.2115 50.6948 26.3192 50.893 26.2548L55.0201 24.9132C55.2184 24.8487 55.3262 24.6372 55.2617 24.439C55.2134 24.2903 55.0823 24.1926 54.9362 24.1802ZM8.46729 26.6218C8.292 26.62 8.13481 26.7416 8.09689 26.9201C8.05354 27.1239 8.18288 27.3229 8.38674 27.3663L10.1724 27.7458C10.3763 27.7891 10.5753 27.6598 10.6187 27.4559C10.662 27.252 10.5327 27.053 10.3288 27.0097L8.54327 26.6302C8.5178 26.6248 8.49231 26.6218 8.46729 26.6218ZM55.5326 26.6253C55.5076 26.6255 55.4823 26.6289 55.4568 26.6334L53.6711 27.0127C53.4672 27.0561 53.3379 27.2549 53.3812 27.4588C53.4246 27.6627 53.6236 27.7921 53.8275 27.7488L55.613 27.3695C55.8169 27.3261 55.9463 27.1271 55.903 26.9232C55.8651 26.7448 55.7079 26.6239 55.5326 26.6253ZM8.01229 29.0939C7.83781 29.1106 7.6942 29.2475 7.67503 29.4288C7.65313 29.6361 7.80224 29.8207 8.00953 29.8426L12.3253 30.2989C12.5326 30.3208 12.7171 30.1715 12.739 29.9642C12.7609 29.7569 12.6117 29.5724 12.4044 29.5505L8.08862 29.0942C8.06269 29.0915 8.03723 29.0915 8.01229 29.0939ZM55.9908 29.1263C55.9659 29.1236 55.9402 29.1236 55.9143 29.1266L51.5981 29.5771C51.3908 29.5987 51.2413 29.783 51.2629 29.9903C51.2845 30.1976 51.4689 30.3471 51.6762 30.3255L55.9924 29.875C56.1997 29.8534 56.3492 29.6691 56.3276 29.4618C56.3086 29.2804 56.1653 29.1433 55.9908 29.1263ZM7.93922 31.6244C7.73077 31.6244 7.56299 31.7922 7.56299 32.0006C7.56299 32.2091 7.73077 32.3768 7.93922 32.3768H9.76471C9.97315 32.3768 10.1411 32.2091 10.1411 32.0006C10.1411 31.7922 9.97315 31.6244 9.76471 31.6244H7.93922ZM54.2344 31.6244C54.0259 31.6244 53.8581 31.7922 53.8581 32.0006C53.8581 32.2091 54.0259 32.3768 54.2344 32.3768H56.0598C56.2683 32.3768 56.4361 32.2091 56.4361 32.0006C56.4361 31.7922 56.2683 31.6244 56.0598 31.6244H54.2344ZM12.3993 33.6754C12.3744 33.6727 12.3489 33.6727 12.323 33.6757L8.00659 34.1262C7.79927 34.1478 7.64983 34.3321 7.67144 34.5394C7.69307 34.7467 7.87738 34.8962 8.08469 34.8746L12.4011 34.4241C12.6084 34.4025 12.7579 34.2182 12.7363 34.0109C12.7173 33.8295 12.5738 33.6924 12.3993 33.6754ZM51.5975 33.702C51.423 33.7188 51.2794 33.8557 51.2602 34.037C51.2383 34.2443 51.3874 34.4289 51.5947 34.4508L55.9105 34.9071C56.1177 34.929 56.3023 34.7797 56.3242 34.5724C56.3461 34.3651 56.1968 34.1806 55.9895 34.1587L51.6739 33.7024C51.648 33.6997 51.6224 33.6997 51.5975 33.702ZM10.2478 36.2438C10.2228 36.244 10.1973 36.2465 10.1718 36.2518L8.38611 36.6312C8.18221 36.6745 8.05296 36.8735 8.09626 37.0774C8.13961 37.2813 8.33859 37.4105 8.54249 37.3672L10.3282 36.9881C10.5321 36.9447 10.6613 36.7457 10.618 36.5419C10.5801 36.3634 10.4231 36.2423 10.2478 36.2438ZM53.7508 36.2474C53.5755 36.2456 53.4185 36.3671 53.3806 36.5455C53.3372 36.7494 53.4664 36.9484 53.6702 36.9917L55.456 37.3712C55.6598 37.4146 55.8588 37.2854 55.9022 37.0815C55.9455 36.8776 55.8162 36.6785 55.6123 36.6351L53.8268 36.2557C53.8013 36.2503 53.7758 36.2474 53.7508 36.2474ZM13.2548 37.7293C13.206 37.7248 13.1557 37.7302 13.1062 37.7466L8.97895 39.0882C8.78072 39.1526 8.67305 39.3641 8.73749 39.5623C8.80194 39.7606 9.0134 39.8682 9.21164 39.8038L13.3387 38.4622C13.537 38.3978 13.6448 38.1863 13.5803 37.9881C13.532 37.8394 13.4009 37.7417 13.2548 37.7293ZM50.7402 37.7426C50.5941 37.7548 50.4631 37.8525 50.4147 38.0011C50.3501 38.1993 50.4576 38.4108 50.6558 38.4754L54.7821 39.8199C54.9803 39.8845 55.1918 39.7769 55.2564 39.5788C55.321 39.3806 55.2135 39.1691 55.0152 39.1045L50.889 37.76C50.8395 37.7438 50.789 37.7385 50.7402 37.7426ZM11.6798 40.6677C11.6309 40.6686 11.5814 40.6792 11.5338 40.7003L9.86604 41.4429C9.67561 41.5276 9.59062 41.7492 9.6754 41.9396C9.76022 42.1301 9.9817 42.215 10.1721 42.1303L11.8399 41.3879C12.0304 41.3031 12.1153 41.0816 12.0306 40.8911C11.967 40.7483 11.8264 40.6648 11.6798 40.6677ZM52.3132 40.682C52.1666 40.6784 52.026 40.7624 51.9623 40.9051C51.8774 41.0955 51.9623 41.3171 52.1526 41.402L53.8198 42.1457C54.0102 42.2306 54.2318 42.1458 54.3167 41.9554C54.4016 41.765 54.3167 41.5434 54.1264 41.4585L52.4592 40.7148C52.4117 40.6935 52.3621 40.683 52.3132 40.682ZM14.927 41.4973C14.8547 41.492 14.7802 41.5081 14.7125 41.5472L10.9541 43.7171C10.7736 43.8213 10.7122 44.0505 10.8164 44.231C10.9207 44.4115 11.1499 44.473 11.3304 44.3687L15.0887 42.199C15.2692 42.0948 15.3306 41.8654 15.2264 41.6849C15.1612 41.5721 15.0474 41.5057 14.927 41.4973ZM49.0723 41.4973C48.9519 41.5054 48.8378 41.5721 48.7727 41.6849C48.6684 41.8654 48.7299 42.0948 48.9104 42.199L52.6687 44.3687C52.8492 44.4729 53.0786 44.4115 53.1828 44.231C53.287 44.0505 53.2256 43.8213 53.0451 43.7171L49.2866 41.5472C49.2189 41.5081 49.1445 41.4923 49.0723 41.4973ZM13.9895 44.6816C13.9171 44.6843 13.8446 44.7076 13.7814 44.7536L12.3039 45.8256C12.1351 45.948 12.0978 46.1824 12.2202 46.3511C12.3426 46.5198 12.5769 46.5571 12.7457 46.4347L14.2233 45.3626C14.3921 45.2402 14.4294 45.0059 14.307 44.8372C14.2305 44.7317 14.1102 44.6775 13.9895 44.6816ZM50.0006 44.6943C49.88 44.6898 49.7597 44.7442 49.6831 44.8495C49.5606 45.0182 49.5978 45.2527 49.7665 45.3752L51.2433 46.4482C51.4119 46.5707 51.6463 46.5335 51.7688 46.3649C51.8913 46.1962 51.8542 45.9619 51.6856 45.8394L50.2088 44.7664C50.1456 44.7205 50.073 44.6969 50.0006 44.6943ZM17.3359 44.8242C17.2398 44.8188 17.1419 44.8508 17.0644 44.9205L13.8369 47.8218C13.6819 47.9611 13.6693 48.1981 13.8087 48.3531C13.948 48.5081 14.1849 48.5207 14.34 48.3813L17.5674 45.4801C17.7225 45.3407 17.7351 45.1038 17.5957 44.9488C17.5261 44.8713 17.4319 44.8293 17.3359 44.8242ZM46.6543 44.8346C46.5582 44.8399 46.464 44.8815 46.3943 44.959C46.2548 45.1139 46.2673 45.3508 46.4222 45.4903L49.6475 48.3938C49.8025 48.5333 50.0396 48.5208 50.179 48.3659C50.3185 48.211 50.306 47.9741 50.1511 47.8346L46.9256 44.9311C46.8481 44.8614 46.7503 44.8295 46.6543 44.8346ZM20.3977 47.5908C20.2771 47.5864 20.1568 47.6404 20.0801 47.7457L17.5272 51.2551C17.4045 51.4237 17.4414 51.6581 17.6099 51.7807C17.7785 51.9034 18.0129 51.8665 18.1356 51.6979L20.6885 48.1885C20.8111 48.02 20.7742 47.7855 20.6057 47.6629C20.5426 47.6169 20.4701 47.5933 20.3977 47.5908ZM43.5804 47.6066C43.508 47.6093 43.4355 47.6324 43.3722 47.6783C43.2035 47.8008 43.1662 48.0351 43.2885 48.2038L45.8368 51.7166C45.9592 51.8853 46.1935 51.9226 46.3622 51.8003C46.531 51.6779 46.5683 51.4435 46.4459 51.2748L43.8977 47.762C43.8212 47.6566 43.701 47.6025 43.5804 47.6066ZM17.1021 48.1486C17.006 48.154 16.9118 48.1955 16.8421 48.273L15.6206 49.6295C15.4812 49.7844 15.4935 50.0215 15.6484 50.161C15.8034 50.3005 16.0403 50.288 16.1798 50.133L17.4013 48.7765C17.5408 48.6216 17.5283 48.3845 17.3735 48.245C17.296 48.1753 17.1981 48.1436 17.1021 48.1486ZM46.8947 48.1504C46.7987 48.145 46.7009 48.1771 46.6234 48.2468C46.4685 48.3863 46.456 48.6232 46.5954 48.7781L47.8167 50.135C47.9562 50.2899 48.1931 50.3024 48.348 50.1629C48.5029 50.0234 48.5154 49.7863 48.3759 49.6314L47.1546 48.2747C47.0849 48.1972 46.9908 48.1554 46.8947 48.1504ZM23.9628 49.6553C23.8162 49.6518 23.6758 49.7357 23.6121 49.8784L21.8439 53.8417C21.759 54.032 21.8439 54.2536 22.0342 54.3386C22.2246 54.4235 22.4462 54.3386 22.5311 54.1483L24.2993 50.185C24.3842 49.9947 24.2993 49.773 24.1089 49.6881C24.0614 49.6669 24.0117 49.6563 23.9628 49.6553ZM40.0124 49.6662C39.9635 49.6671 39.9139 49.6777 39.8662 49.6989C39.6759 49.7835 39.5906 50.0049 39.6753 50.1954L41.4379 54.1611C41.5226 54.3515 41.7442 54.4367 41.9346 54.3521C42.125 54.2674 42.2103 54.046 42.1256 53.8555L40.363 49.8898C40.2995 49.747 40.159 49.6634 40.0124 49.6662ZM20.8558 50.8807C20.7354 50.8887 20.6215 50.9554 20.5564 51.0682L19.6436 52.6492C19.5394 52.8297 19.6008 53.0589 19.7813 53.1631C19.9619 53.2673 20.1911 53.2059 20.2953 53.0254L21.208 51.4445C21.3122 51.264 21.2508 51.0348 21.0703 50.9305C21.0027 50.8915 20.9281 50.8757 20.8558 50.8807ZM43.1432 50.8807C43.071 50.8753 42.9966 50.8915 42.9289 50.9306C42.7484 51.0348 42.687 51.264 42.7912 51.4445L43.704 53.0254C43.8082 53.2059 44.0374 53.2673 44.2179 53.1631C44.3984 53.0589 44.4598 52.8297 44.3556 52.6492L43.4428 51.0683C43.3777 50.9554 43.2636 50.8891 43.1432 50.8807ZM27.8991 50.9373C27.7238 50.9356 27.5668 51.0571 27.5289 51.2355L26.627 55.4806C26.5836 55.6845 26.713 55.8835 26.9168 55.9268C27.1207 55.9702 27.3198 55.8408 27.3631 55.637L28.2649 51.3919C28.3083 51.188 28.1789 50.9889 27.9751 50.9456C27.9496 50.9403 27.9241 50.9373 27.8991 50.9373ZM36.0867 50.94C36.0616 50.9402 36.0363 50.9427 36.0109 50.9481C35.8069 50.9912 35.6775 51.19 35.7207 51.394L36.6195 55.6397C36.6626 55.8437 36.8616 55.9731 37.0655 55.9299C37.2694 55.8868 37.3989 55.6878 37.3557 55.4839L36.4568 51.2384C36.4189 51.06 36.2619 50.9387 36.0867 50.94ZM31.9995 51.3682C31.7911 51.3682 31.6233 51.536 31.6233 51.7445V56.0843C31.6233 56.2927 31.7911 56.4605 31.9995 56.4605C32.208 56.4605 32.3758 56.2927 32.3758 56.0843V51.7445C32.3758 51.536 32.208 51.3682 31.9995 51.3682ZM25.0931 52.7706C24.947 52.783 24.8159 52.8807 24.7676 53.0294L24.2033 54.7656C24.1388 54.9638 24.2466 55.1753 24.4448 55.2397C24.643 55.3042 24.8545 55.1963 24.9189 54.9981L25.4832 53.2621C25.5476 53.0639 25.4399 52.8524 25.2417 52.7879C25.1922 52.7718 25.1419 52.7664 25.0931 52.7706ZM38.903 52.7714C38.8543 52.767 38.804 52.7723 38.7544 52.7887C38.5562 52.8531 38.4484 53.0646 38.5128 53.2629L39.0769 54.999C39.1414 55.1973 39.3528 55.3049 39.5511 55.2405C39.7493 55.176 39.8571 54.9647 39.7927 54.7665L39.2284 53.0303C39.1801 52.8816 39.0491 52.7839 38.903 52.7714ZM29.6379 53.7384C29.4634 53.7552 29.3197 53.8922 29.3006 54.0736L29.1098 55.8892C29.088 56.0965 29.2373 56.2808 29.4446 56.3026C29.6519 56.3244 29.8364 56.175 29.8582 55.9677L30.049 54.1523C30.0708 53.945 29.9215 53.7606 29.7142 53.7387C29.6883 53.7361 29.6628 53.7361 29.6379 53.7384ZM34.3461 53.7402C34.3212 53.7375 34.2955 53.7375 34.2696 53.7405C34.0623 53.7622 33.9128 53.9465 33.9344 54.1538L34.1241 55.9695C34.1457 56.1768 34.33 56.3262 34.5373 56.3045C34.7447 56.2829 34.8942 56.0986 34.8725 55.8913L34.683 54.0757C34.6641 53.8943 34.5206 53.7572 34.3461 53.7402Z" fill="#F4F2F3"/>
<g opacity="0.409" filter="url(#filter0_f_4730_968)">
<path d="M49.6339 16.9504L29.0493 28.9102L16.0342 49.3996L35.0742 35.2969L49.6339 16.9504Z" fill="black"/>
</g>
<path d="M34.9496 35.0894L29.0493 28.9105L49.9798 14.8306L34.9496 35.0894Z" fill="#FF5150"/>
<path d="M34.9495 35.0896L29.0492 28.9106L14.019 49.1695L34.9495 35.0896Z" fill="#F1F1F1"/>
<path opacity="0.243" d="M14.019 49.1693L34.9495 35.0894L49.9797 14.8306L14.019 49.1693Z" fill="black"/>
<defs>
<filter id="filter0_f_4730_968" x="13.4893" y="14.4056" width="38.6893" height="37.5389" filterUnits="userSpaceOnUse" color-interpolation-filters="sRGB">
<feFlood flood-opacity="0" result="BackgroundImageFix"/>
<feBlend mode="normal" in="SourceGraphic" in2="BackgroundImageFix" result="shape"/>
<feGaussianBlur stdDeviation="1.27242" result="effect1_foregroundBlur_4730_968"/>
</filter>
<linearGradient id="paint0_linear_4730_968" x1="31.999" y1="59.9994" x2="31.999" y2="3.99985" gradientUnits="userSpaceOnUse">
<stop stop-color="#BDBDBD"/>
<stop offset="1" stop-color="white"/>
</linearGradient>
<radialGradient id="paint1_radial_4730_968" cx="0" cy="0" r="1" gradientUnits="userSpaceOnUse" gradientTransform="translate(32.1156 28.2372) scale(27.9999 27.9999)">
<stop stop-color="#06C2E7"/>
<stop offset="0.25" stop-color="#0DB8EC"/>
<stop offset="0.5" stop-color="#12AEF1"/>
<stop offset="0.75" stop-color="#1F86F9"/>
<stop offset="1" stop-color="#107DDD"/>
</radialGradient>
</defs>
</svg>
