<svg width="24" height="24" fill="none" xmlns="http://www.w3.org/2000/svg">
  <g clip-path="url(#Unruly-Group_svg__a)">
    <path fill="#FDD132" d="M24 12c0 6.627-5.373 12-12 12S0 18.627 0 12 5.373 0 12 0s12 5.373 12 12Z"/>
    <path fill="#000" fill-opacity=".12" fill-rule="evenodd" d="M24 12c0 6.627-5.373 12-12 12S0 18.627 0 12 5.373 0 12 0s12 5.373 12 12ZM12 23.5c6.351 0 11.5-5.149 11.5-11.5S18.351.5 12 .5.5 5.649.5 12 5.649 23.5 12 23.5Z" clip-rule="evenodd"/>
    <path fill="#11100D" d="m10.047 16.127 3.23-8.714 3.488 4.222 1.477-3.986H20.5l-3.23 8.716-3.503-4.184-1.462 3.946h-2.258ZM5.84 7.649h2.258l-2.135 5.758c-.131.356.052.644.405.644a.896.896 0 0 0 .583-.212c.24-.206.293-.423.445-.823L9.385 7.65h2.259l-1.72 4.637s-.11.316-.26.703c-.393 1.016-.736 1.97-1.941 2.765-.74.487-1.466.59-2.204.59-1.602-.001-2.42-1.3-1.825-2.904L5.84 7.65Z"/>
  </g>
  <defs>
    <clipPath id="Unruly-Group_svg__a">
      <path fill="#fff" d="M0 0h24v24H0z"/>
    </clipPath>
  </defs>
</svg>
