<svg width="24" height="24" fill="none" xmlns="http://www.w3.org/2000/svg">
  <path fill="#000" d="M24 12c0 6.627-5.373 12-12 12S0 18.627 0 12 5.373 0 12 0s12 5.373 12 12Z"/>
  <path fill="#fff" fill-opacity=".12" fill-rule="evenodd" d="M24 12c0 6.627-5.373 12-12 12S0 18.627 0 12 5.373 0 12 0s12 5.373 12 12ZM12 23.5c6.351 0 11.5-5.149 11.5-11.5S18.351.5 12 .5.5 5.649.5 12 5.649 23.5 12 23.5Z" clip-rule="evenodd"/>
  <path fill="#fff" d="M11.665 14.028c.193-1.854 1.357-3.363 2.715-3.363 1.358 0 2.091 1.509 1.897 3.363-.194 1.853-1.315 3.384-2.586 3.384-1.272 0-2.307-1.164-2.027-3.384ZM5.004 18.77c1.681.539 3.556.064 5.022-1.38.155-.155.299-.32.431-.495.669 1.444 1.962 2.177 3.255 2.177 2.199 0 4.053-2.264 4.268-5.066.216-2.802-1.358-5.022-3.449-5.022a4.074 4.074 0 0 0-2.155.582l.646-3.773a1.056 1.056 0 0 0-.194-.862c-.194-.302-.366-.431-.625-.431H9.186a.366.366 0 0 0-.345.323c-.08.356-.138.716-.173 1.078-.021.237.151.323.345.323h2.199c-.345 2.156-1.035 6.338-1.229 7.394-.203 1-.69 1.92-1.401 2.651-1.207 1.208-3.427 1.488-4.742.173-.953 0 .313 2.328 1.164 2.328Z"/>
</svg>
