<svg fill="none" viewBox="0 0 16 16" xmlns="http://www.w3.org/2000/svg">
  <path fill="#000" fill-rule="evenodd" d="M6.341 1.367c.679-1.375 2.64-1.375 3.318 0l1.366 2.767a.35.35 0 0 0 .264.192l3.054.444c1.517.22 2.123 2.085 1.025 3.155l-2.21 2.155a.35.35 0 0 0-.1.31l.521 3.041c.26 1.512-1.327 2.664-2.684 1.95l-2.732-1.436a.35.35 0 0 0-.326 0l-2.732 1.437c-1.357.713-2.943-.44-2.684-1.95l.522-3.043a.35.35 0 0 0-.1-.31L.631 7.926C-.466 6.855.14 4.99 1.657 4.77l3.055-.444a.35.35 0 0 0 .263-.192l1.366-2.767Zm1.973.664a.35.35 0 0 0-.628 0L6.32 4.798A1.85 1.85 0 0 1 4.927 5.81l-3.054.444a.35.35 0 0 0-.194.597l2.21 2.154a1.85 1.85 0 0 1 .532 1.638L3.9 13.685a.35.35 0 0 0 .508.369l2.732-1.436a1.85 1.85 0 0 1 1.722 0l2.732 1.436a.35.35 0 0 0 .508-.369l-.522-3.042a1.85 1.85 0 0 1 .532-1.638l2.21-2.154a.35.35 0 0 0-.194-.597l-3.054-.444A1.85 1.85 0 0 1 9.68 4.798L8.314 2.031Z" clip-rule="evenodd"/>
</svg>
