<svg width="76" height="76" viewBox="0 0 76 76" fill="none" xmlns="http://www.w3.org/2000/svg">
<path fill-rule="evenodd" clip-rule="evenodd" d="M33.9987 22.9131C35.6348 19.5934 40.3682 19.5934 42.0043 22.9131L44.6187 28.2179C44.7588 28.5022 45.0298 28.6993 45.3434 28.7449L51.1957 29.5965C54.854 30.1288 56.3157 34.6236 53.6703 37.2058L49.4307 41.3441C49.2042 41.5652 49.1009 41.8835 49.1543 42.1954L50.1545 48.0349C50.779 51.6812 46.9507 54.4603 43.6772 52.737L38.4499 49.985C38.1692 49.8372 37.8338 49.8372 37.5531 49.985L32.3258 52.737C29.0523 54.4603 25.2239 51.6812 25.8485 48.0349L26.8486 42.1954C26.9021 41.8835 26.7987 41.5652 26.5723 41.3441L22.3327 37.2058C19.6872 34.6236 21.1489 30.1288 24.8072 29.5965L30.6595 28.7449C30.9731 28.6993 31.2442 28.5022 31.3843 28.2179L33.9987 22.9131ZM38.8648 24.4603C38.5119 23.7443 37.491 23.7443 37.1381 24.4603L34.5237 29.7652C33.8742 31.0831 32.6175 31.9968 31.1635 32.2084L25.3112 33.06C24.5222 33.1748 24.2069 34.1443 24.7775 34.7012L29.017 38.8395C30.067 39.8644 30.5461 41.34 30.2984 42.7862L29.2982 48.6258C29.1635 49.4122 29.9892 50.0117 30.6953 49.64L35.9226 46.888C37.2239 46.2029 38.7791 46.2029 40.0803 46.888L45.3077 49.64C46.0137 50.0117 46.8394 49.4122 46.7047 48.6258L45.7046 42.7862C45.4569 41.34 45.9359 39.8644 46.9859 38.8395L51.2255 34.7012C51.7961 34.1443 51.4808 33.1748 50.6918 33.06L44.8395 32.2084C43.3855 31.9968 42.1288 31.0831 41.4793 29.7652L38.8648 24.4603Z" fill="white"/>
</svg>
