<svg width="76" height="76" viewBox="0 0 76 76" fill="none" xmlns="http://www.w3.org/2000/svg">
<path fill-rule="evenodd" clip-rule="evenodd" d="M33.0224 17.1001C35.0582 12.9751 40.9403 12.9751 42.9761 17.1001L47.074 25.4032C47.2269 25.7131 47.5226 25.9279 47.8646 25.9776L57.0276 27.3091C61.5799 27.9706 63.3975 33.5648 60.1035 36.7757L53.4731 43.2388C53.2256 43.48 53.1127 43.8275 53.1711 44.1681L54.7363 53.2941C55.5139 57.828 50.7552 61.2854 46.6836 59.1448L38.4879 54.8361C38.182 54.6753 37.8165 54.6753 37.5106 54.8361L29.3149 59.1448C25.2433 61.2854 20.4846 57.828 21.2622 53.2941L22.8274 44.1681C22.8858 43.8275 22.7729 43.48 22.5254 43.2388L15.895 36.7757C12.601 33.5648 14.4187 27.9706 18.9709 27.3091L28.1339 25.9776C28.4759 25.9279 28.7716 25.7131 28.9245 25.4032L33.0224 17.1001ZM38.9408 19.0916C38.5557 18.3112 37.4428 18.3112 37.0577 19.0917L32.9598 27.3948C32.1514 29.0328 30.5887 30.1682 28.781 30.4309L19.618 31.7623C18.7567 31.8875 18.4128 32.9458 19.036 33.5533L25.6665 40.0164C26.9745 41.2914 27.5714 43.1285 27.2626 44.9288L25.6974 54.0548C25.5503 54.9126 26.4506 55.5667 27.2209 55.1617L35.4166 50.853C37.0335 50.003 38.965 50.003 40.5819 50.853L48.7776 55.1617C49.5479 55.5667 50.4482 54.9126 50.3011 54.0548L48.7359 44.9288C48.4271 43.1285 49.024 41.2914 50.332 40.0164L56.9625 33.5533C57.5857 32.9458 57.2418 31.8875 56.3805 31.7623L47.2175 30.4309C45.4098 30.1682 43.8471 29.0328 43.0387 27.3948L38.9408 19.0916Z" fill="white" fill-opacity="0.7"/>
</svg>
