<svg width="24" height="24" viewBox="0 0 24 24" fill="none" xmlns="http://www.w3.org/2000/svg">
<circle cx="12" cy="12" r="11" fill="white"/>
<path fill-rule="evenodd" clip-rule="evenodd" d="M24 12C24 18.6274 18.6274 24 12 24C5.37258 24 0 18.6274 0 12C0 5.37258 5.37258 0 12 0C18.6274 0 24 5.37258 24 12ZM6.83533 10.0005C7.22071 9.99977 7.60608 9.99903 7.99136 10.0044C8.43511 10.0106 8.84072 10.137 9.11327 10.5131C9.43802 10.9613 9.46262 11.4592 9.25951 11.9598C9.07027 12.4263 8.68246 12.6462 8.19955 12.7062C7.95894 12.7361 7.71723 12.7326 7.46871 12.7289H7.46869H7.46868H7.46866C7.31235 12.7266 7.15336 12.7243 6.99024 12.7302L7.10384 12.5339C7.2031 12.3625 7.29729 12.1999 7.38968 12.0362C7.41299 11.9949 7.44556 11.996 7.47928 11.9971L7.49454 11.9975C7.64081 11.9985 7.78675 11.9975 7.93227 11.9782C8.28358 11.9315 8.46313 11.7312 8.47155 11.3734C8.47977 11.0237 8.31348 10.8129 7.96458 10.7564C7.74027 10.72 7.51418 10.7249 7.28803 10.7297H7.28799C7.16475 10.7324 7.0415 10.735 6.91851 10.731C6.8692 10.7294 6.85353 10.751 6.85626 10.7961C6.8574 10.8153 6.85709 10.8345 6.85678 10.8537C6.85663 10.8629 6.85648 10.8721 6.85649 10.8814L6.85639 11.5738C6.85619 12.4235 6.85598 13.2733 6.85925 14.123C6.85964 14.2253 6.83341 14.2524 6.73245 14.2487C6.51338 14.2405 6.29375 14.2432 6.07448 14.2476C6.00352 14.249 5.98824 14.2259 5.98834 14.1582C5.99045 12.8055 5.99091 11.4528 5.98824 10.1001C5.98808 10.0176 6.01269 9.99992 6.09031 10.0003C6.33864 10.0015 6.58698 10.001 6.83533 10.0005ZM12.6662 13.067C12.2967 13.6589 11.2612 13.6653 10.9213 12.9961C10.6406 12.4434 10.6451 11.8746 10.9085 11.3199C11.0952 10.9266 11.4393 10.7664 11.8665 10.7826C12.2836 10.7984 12.5765 11.0032 12.7521 11.3804C12.8659 11.6247 12.8995 11.8844 12.9056 12.1378C12.9001 12.4749 12.8427 12.7844 12.6662 13.067ZM10.5281 10.4798C10.0136 10.9224 9.84241 11.5149 9.82953 12.1794C9.83157 12.2077 9.83348 12.237 9.83544 12.2671L9.83545 12.2672C9.83978 12.3337 9.84432 12.4034 9.85086 12.4729C9.94834 13.5111 10.7221 14.2297 11.7629 14.2495C12.6247 14.2659 13.2851 13.8602 13.6117 13.0973C13.8283 12.5914 13.8464 12.0644 13.7217 11.5331C13.3861 10.1032 11.6376 9.52535 10.5281 10.4798ZM20.4312 12.0449L20.4318 12.0457C20.4752 12.103 20.4869 12.1501 20.4366 12.2158C19.95 12.8531 19.4656 13.4921 18.9838 14.1331C18.9344 14.1988 18.8828 14.2248 18.8018 14.2238C18.5734 14.2211 18.345 14.2215 18.1103 14.222H18.1102H18.1101H18.1101H18.1101H18.11H18.11C18.0209 14.2221 17.9308 14.2223 17.8395 14.2223C17.8885 14.12 17.9506 14.0401 18.0108 13.9627C18.0323 13.935 18.0536 13.9076 18.074 13.8796C18.4741 13.3291 18.8743 12.7786 19.2786 12.2311C19.3331 12.1572 19.338 12.1077 19.2813 12.031C18.9271 11.5513 18.5756 11.0696 18.2241 10.5879L18.224 10.5878L18.224 10.5878L18.2239 10.5877L18.2239 10.5876L18.2231 10.5865L17.895 10.1371C17.8903 10.1306 17.8845 10.1241 17.8786 10.1175C17.861 10.0979 17.8428 10.0776 17.8513 10.0549C17.8634 10.0224 17.8936 10.0266 17.922 10.0305C17.9312 10.0318 17.9402 10.033 17.9484 10.033C18.0835 10.032 18.2187 10.032 18.3539 10.0319C18.5029 10.0318 18.6519 10.0318 18.801 10.0305C18.8703 10.0299 18.9217 10.0449 18.967 10.1053C19.4533 10.7532 19.9422 11.399 20.4312 12.0449ZM16.1023 10.0341C16.5 10.0345 16.8976 10.035 17.2952 10.0315C17.3856 10.0307 17.415 10.0511 17.4114 10.1443C17.4041 10.3349 17.4055 10.526 17.411 10.7168C17.4131 10.7919 17.3922 10.8124 17.3166 10.8115C17.1502 10.8093 16.9837 10.8094 16.8173 10.8095C16.6345 10.8096 16.4517 10.8096 16.2689 10.8068C16.1791 10.8055 16.155 10.8271 16.1554 10.9204C16.1573 11.4479 16.1574 11.9755 16.1576 12.503C16.1578 13.0354 16.158 13.5678 16.1599 14.1002C16.1603 14.2014 16.1355 14.2305 16.034 14.2271C15.8027 14.2194 15.5709 14.2194 15.3397 14.2273C15.2441 14.2305 15.2285 14.1992 15.2287 14.1116C15.2301 13.6571 15.2302 13.2026 15.2304 12.7482V12.7471C15.2306 12.146 15.2308 11.545 15.2337 10.944C15.2343 10.8273 15.1975 10.805 15.0915 10.8069C14.922 10.8101 14.7525 10.8098 14.5829 10.8095H14.5829H14.5828C14.4153 10.8092 14.2478 10.8089 14.0804 10.8119C13.9876 10.8136 13.9642 10.7869 13.9679 10.6968C13.9753 10.5143 13.9774 10.331 13.9673 10.1488C13.9616 10.0449 14.0021 10.0305 14.0911 10.0311C14.4936 10.0335 14.8962 10.0332 15.2988 10.0329H15.2992L15.6992 10.0327V10.0338C15.8336 10.0338 15.968 10.0339 16.1023 10.0341ZM20.5734 11.8202C20.6405 11.9166 20.6718 11.8952 20.7291 11.8138C20.9116 11.5548 21.0967 11.2977 21.2818 11.0405C21.3596 10.9325 21.4374 10.8245 21.5149 10.7163C21.6185 10.5719 21.7219 10.4273 21.8288 10.2776L21.8291 10.2772L21.8299 10.2761L21.9987 10.0399L21.7345 10.0401C21.4931 10.0403 21.2631 10.0405 21.0332 10.0389C20.9714 10.0385 20.929 10.055 20.8902 10.1075C20.642 10.4431 20.3912 10.7767 20.1382 11.1087C20.0974 11.1622 20.1071 11.1973 20.1442 11.2455L20.1814 11.2938L20.1815 11.2939C20.315 11.4673 20.4486 11.6408 20.5734 11.8202ZM20.5139 12.5366L20.6563 12.3485L22 14.2184H21.7228C21.6605 14.2184 21.5982 14.2183 21.5358 14.2181L21.5347 14.2181H21.5346C21.3701 14.2178 21.2056 14.2174 21.0411 14.2199C20.9743 14.2209 20.9288 14.2027 20.8878 14.147C20.6425 13.8141 20.3945 13.4832 20.1454 13.1531C20.1115 13.1082 20.1023 13.0754 20.1404 13.0263C20.265 12.8657 20.3877 12.7035 20.5136 12.537L20.5139 12.5366ZM4.08187 11.7638L4.08184 11.7638C4.01024 11.7456 3.93863 11.7274 3.86745 11.708C3.81858 11.6946 3.76949 11.6819 3.72039 11.6693L3.72038 11.6693C3.53769 11.6221 3.35492 11.5748 3.18341 11.4933C3.00831 11.41 2.95061 11.2825 2.98965 11.095C3.02293 10.935 3.12932 10.8418 3.27188 10.7857C3.46336 10.7103 3.66209 10.7171 3.86007 10.7539C4.16893 10.8113 4.31289 10.9552 4.36551 11.2621C4.37617 11.3242 4.3998 11.3425 4.45984 11.3404C4.53962 11.3375 4.61954 11.338 4.69945 11.3386C4.73333 11.3389 4.7672 11.3391 4.80106 11.3391C4.83567 11.3391 4.87029 11.3387 4.90491 11.3384H4.90496C4.98821 11.3375 5.07146 11.3366 5.15448 11.3405C5.2267 11.3439 5.24165 11.3183 5.23723 11.2502C5.20798 10.8007 5.01042 10.4484 4.60211 10.254C3.99012 9.96265 3.36055 9.94168 2.7473 10.2505C2.31822 10.4667 2.10171 10.8294 2.12137 11.3187C2.14022 11.7882 2.41375 12.0648 2.82196 12.2378C3.03191 12.3267 3.25183 12.3837 3.47214 12.4395C3.52147 12.452 3.571 12.4638 3.62053 12.4757C3.81952 12.5234 4.01861 12.571 4.20523 12.6586C4.42753 12.7629 4.5238 12.9041 4.50934 13.0963C4.49257 13.3191 4.34705 13.4297 4.15352 13.4948C3.95372 13.5619 3.7491 13.5769 3.54075 13.5448C3.09948 13.4769 2.92705 13.3116 2.84959 12.8764C2.84254 12.8369 2.831 12.818 2.7906 12.8181C2.54682 12.8187 2.30304 12.819 2.05926 12.8185C2.02119 12.8185 1.99779 12.8277 2.00016 12.8729C2.00188 12.9054 2.00205 12.938 2.00223 12.9706C2.00264 13.0469 2.00305 13.1231 2.02321 13.1995C2.12768 13.595 2.36993 13.8788 2.73599 14.045C3.34651 14.3223 3.97471 14.3276 4.59499 14.0869C5.10878 13.8876 5.3888 13.4497 5.37375 12.9349C5.35903 12.4317 5.08242 12.0797 4.53544 11.8921C4.38702 11.8412 4.23445 11.8025 4.08187 11.7638Z" fill="#333333"/>
</svg>
