<svg fill="none" viewBox="0 0 96 96" xmlns="http://www.w3.org/2000/svg">
  <path fill="#C18010" fill-rule="evenodd" d="M55.258 18.461C53.6 16.688 51.5 15.986 49 16.001c-6.5-.015-5.575.922-7 2.428-2.54 2.687-3.041 4.137-5.295 4.893-2.265.76-5.003.964-8.84.456-4.277-.566-9.823.029-9.861 4.801-.123 15.132 2.983 27.616 7.54 34.769 5.048 7.921 10.058 12.046 16.957 15.717 2.343 1.247 8.425 1.247 10.769 0 6.898-3.67 15.142-7.796 20.189-15.717 4.557-7.153 6.659-17.035 6.536-32.167-.039-4.777-3.795-7.403-8.866-7.403-.538 0-2.46-.106-3.132-.057-.605.043-.18.346-.729.349-1.933.01-3.531-.231-4.948-.692-2.258-.735-4.496-2.174-7.062-4.917" clip-rule="evenodd"/>
  <path fill="#FC3" fill-rule="evenodd" d="M51.662 18.474c-3.026-3.29-8.313-3.297-11.352-.031-2.499 2.685-4.68 4.135-6.898 4.89-2.228.76-4.92.965-8.696.457-4.207-.566-8.673 2.63-8.711 7.402-.12 15.13 1.947 25.008 6.43 32.16 4.964 7.92 13.073 12.044 19.859 15.713a7.812 7.812 0 0 0 7.412 0c6.786-3.67 14.895-7.794 19.86-15.714 4.483-7.15 6.55-17.03 6.429-32.16-.038-4.775-4.511-7.972-8.72-7.4-3.754.509-6.439.336-8.666-.401-2.222-.735-4.423-2.173-6.947-4.916Z" clip-rule="evenodd"/>
  <path fill="#FFD65C" fill-rule="evenodd" d="M51.662 18.474c-3.026-3.29-8.313-3.297-11.352-.031-2.499 2.685-4.68 4.135-6.898 4.89-2.228.76-4.92.965-8.696.457-4.207-.566-8.673 2.63-8.711 7.402-.12 15.13 1.947 25.008 6.43 32.16 4.964 7.92 13.073 12.044 19.859 15.713a7.812 7.812 0 0 0 7.412 0c6.786-3.67 14.895-7.794 19.86-15.714 4.483-7.15 6.55-17.03 6.429-32.16-.038-4.775-4.511-7.972-8.72-7.4-3.754.509-6.439.336-8.666-.401-2.222-.735-4.423-2.173-6.947-4.916Z" clip-rule="evenodd"/>
  <path fill="#FFDE7A" fill-rule="evenodd" d="M46.126 79.999a7.791 7.791 0 0 1-3.832-.934l-.923-.498c-6.586-3.55-14.195-7.652-18.937-15.216-4.482-7.15-6.55-17.03-6.429-32.159.038-4.771 4.504-7.968 8.711-7.402 3.775.508 6.468.303 8.697-.456 2.217-.756 4.398-2.206 6.898-4.891C41.825 16.815 43.898 16 45.972 16c.171 0 .343.006.514.017-.087.472-1.964 10.958-1.964 31.458 0 15.222 1.035 27.131 1.603 32.524Z" clip-rule="evenodd"/>
  <path fill="#E2A412" fill-rule="evenodd" d="m44.673 74.667-.58-.313c-6.855-3.704-13.398-7.239-17.422-13.658-3.732-5.953-5.784-14.687-5.666-29.464.006-.739.329-1.366.926-1.846.647-.52 1.457-.73 2.119-.64 4.251.571 7.78.41 10.976-.68 3.208-1.093 6.057-3.114 8.945-6.217 1.057-1.136 2.961-1.131 4.012.01 2.931 3.186 5.82 5.208 9.056 6.278 3.196 1.057 6.71 1.177 10.908.608.662-.09 1.473.118 2.12.639.599.48.922 1.108.928 1.847.118 14.777-1.934 23.512-5.666 29.465-4.024 6.42-10.567 9.954-17.423 13.658l-.578.313a2.812 2.812 0 0 1-2.655 0m5.033 4.398a7.812 7.812 0 0 1-7.412 0l-.923-.498c-6.586-3.55-14.195-7.652-18.937-15.216-4.483-7.15-6.55-17.03-6.429-32.159.038-4.771 4.504-7.968 8.711-7.402 3.775.508 6.468.303 8.697-.456 2.217-.756 4.398-2.206 6.897-4.891 3.04-3.266 8.326-3.259 11.352.031 2.524 2.743 4.725 4.181 6.947 4.916 2.227.737 4.912.91 8.665.4 4.21-.571 8.683 2.626 8.721 7.401.12 15.13-1.946 25.01-6.43 32.16-4.741 7.564-12.35 11.666-18.936 15.216l-.923.498Z" clip-rule="evenodd"/>
  <path fill="#F9BE1A" fill-rule="evenodd" d="M46.214 79.997a7.793 7.793 0 0 1-3.92-.932l-.921-.497-.002-.001c-6.586-3.55-14.195-7.652-18.937-15.216-4.483-7.15-6.55-17.03-6.43-32.159.039-4.771 4.505-7.968 8.712-7.402 3.775.508 6.468.303 8.696-.456 2.217-.756 4.4-2.206 6.898-4.891C41.825 16.815 43.9 16 45.972 16c.172 0 .344.006.515.017-.025.182-.25 1.844-.518 4.983-.736 0-1.472.283-1.998.849-2.888 3.103-5.737 5.124-8.945 6.218-3.196 1.089-6.725 1.25-10.976.678-.662-.089-1.472.12-2.119.64-.597.481-.92 1.108-.926 1.847-.118 14.777 1.934 23.511 5.666 29.464 4.024 6.42 10.567 9.954 17.422 13.658l.58.313c.367.199.773.308 1.183.33.13 2.016.254 3.698.358 5" clip-rule="evenodd"/>
  <path fill="#F9BE1A" fill-rule="evenodd" d="M60 47.5a3.5 3.5 0 0 1-3.5 3.5h-22a3.5 3.5 0 1 1 0-7h22a3.5 3.5 0 0 1 3.5 3.5" clip-rule="evenodd"/>
  <path fill="#F9BE1A" fill-rule="evenodd" d="M45.5 33a3.5 3.5 0 0 1 3.5 3.5v22a3.5 3.5 0 1 1-7 0v-22a3.5 3.5 0 0 1 3.5-3.5" clip-rule="evenodd"/>
  <path fill="#FFE8A3" fill-rule="evenodd" d="M44 34a4 4 0 0 0-4 4v6h-7.5a3.5 3.5 0 1 0 0 7H40v6a4 4 0 0 0 4 4h4V34z" clip-rule="evenodd"/>
  <path fill="#E2A412" fill-rule="evenodd" d="M45.5 33a3.5 3.5 0 0 1 3.5 3.5V44h7.5a3.5 3.5 0 1 1 0 7H49v7.5a3.5 3.5 0 1 1-7 0v-22a3.5 3.5 0 0 1 3.5-3.5" clip-rule="evenodd"/>
  <path fill="#F9BE1A" fill-rule="evenodd" d="M45.278 61.993A3.5 3.5 0 0 1 42 58.5V51h-7.5a3.5 3.5 0 1 1 0-7H42v-7.5a3.5 3.5 0 0 1 3.268-3.492c-.16 3.937-.269 8.601-.269 13.992 0 5.509.114 10.562.28 14.993Z" clip-rule="evenodd"/>
</svg>
