<svg width="24" height="24" viewBox="0 0 24 24" fill="none" xmlns="http://www.w3.org/2000/svg">
<circle cx="12" cy="12" r="11" fill="white"/>
<path fill-rule="evenodd" clip-rule="evenodd" d="M24 12C24 18.6274 18.6274 24 12 24C5.37258 24 0 18.6274 0 12C0 5.37258 5.37258 0 12 0C18.6274 0 24 5.37258 24 12ZM16.1188 12.1992C16.1478 12.16 16.1715 12.1138 16.1891 12.0603C16.2867 11.7645 16.2888 11.462 16.192 11.1654C16.175 11.1134 16.1517 11.0685 16.123 11.0303C16.1109 11.0141 16.0978 10.9989 16.0837 10.9851C16.0521 10.9544 16.0157 10.9298 15.9752 10.9113C15.9143 10.8836 15.844 10.8697 15.766 10.8695C15.6276 10.8692 15.519 10.9103 15.4388 10.9933C15.4297 11.0027 15.421 11.0126 15.4127 11.023C15.4087 11.0281 15.4046 11.0333 15.4007 11.0387C15.3753 11.0737 15.3535 11.114 15.3354 11.16C15.2928 11.2685 15.2776 11.3813 15.271 11.5057C15.2688 11.5479 15.2676 11.5915 15.2666 11.6367L15.2666 11.6378C15.2689 11.7052 15.2714 11.7802 15.2814 11.8574C15.2894 11.9198 15.3022 11.9837 15.3245 12.0465C15.3976 12.2523 15.538 12.3575 15.7476 12.3623C15.9072 12.3659 16.0353 12.3123 16.1188 12.1992ZM13.2224 12.2003C13.2597 12.1561 13.2902 12.1015 13.3142 12.0363C13.3668 11.8931 13.3796 11.7441 13.375 11.5851C13.3797 11.4888 13.3749 11.3891 13.3554 11.2902C13.3486 11.2554 13.34 11.2207 13.3293 11.1863C13.2694 10.9936 13.1455 10.8812 12.9697 10.8556C12.9477 10.8524 12.925 10.8504 12.9015 10.8499C12.8607 10.8491 12.8225 10.8519 12.7865 10.8579L12.7754 10.86L12.7739 10.8603C12.7494 10.865 12.726 10.8714 12.7038 10.8796C12.6171 10.9113 12.5482 10.9689 12.499 11.0548C12.48 11.0878 12.4639 11.125 12.4507 11.1665C12.4167 11.2741 12.3952 11.3825 12.3865 11.4911C12.3821 11.5454 12.3809 11.5998 12.383 11.6541C12.3878 11.781 12.4102 11.9077 12.4506 12.0334C12.4926 12.1642 12.5653 12.2518 12.6657 12.2995C12.726 12.3282 12.7962 12.3425 12.8758 12.3432C12.9665 12.344 13.0441 12.3268 13.1097 12.2917C13.1168 12.2879 13.1238 12.2838 13.1307 12.2796C13.1459 12.2701 13.1606 12.2599 13.1744 12.2483C13.1915 12.2339 13.2075 12.2179 13.2224 12.2003ZM15.8145 10.024C16.2159 10.0323 16.5928 10.1244 16.9044 10.3924C17.3071 10.7389 17.4395 11.1972 17.419 11.7104C17.4064 12.0263 17.322 12.3221 17.1375 12.5825C16.8521 12.9852 16.4427 13.1604 15.9666 13.2002C15.712 13.2215 15.4575 13.2089 15.2089 13.1407C14.8317 13.0372 14.5302 12.8293 14.3176 12.4784C14.0725 12.8655 13.7277 13.0764 13.3003 13.1528C12.9523 13.215 12.6037 13.2086 12.264 13.1016C11.7863 12.9512 11.4626 12.6385 11.3096 12.1585C11.1859 11.7702 11.1896 11.3793 11.3214 10.9948C11.4794 10.534 11.8006 10.2312 12.2648 10.0903C12.6544 9.97202 13.0507 9.97296 13.4442 10.0755C13.8198 10.1734 14.1169 10.3838 14.3269 10.7282C14.412 10.6033 14.4997 10.4907 14.6094 10.3979C14.9581 10.1025 15.3719 10.0149 15.8145 10.024ZM5.63361 11.0003C5.62829 10.7066 5.63239 10.4125 5.64104 10.1188C5.64314 10.0465 5.63394 10.0242 5.55651 10.0243C5.34259 10.0248 5.12866 10.0224 4.91472 10.0199H4.9147L4.91428 10.0199C4.76595 10.0183 4.61761 10.0166 4.46928 10.0158C3.89311 10.0131 3.31694 10.0112 2.74077 10.0093L2 10.0067V11.0852C2.00504 11.0842 2.01009 11.0831 2.01513 11.0819L2.01514 11.0819C2.02594 11.0794 2.03674 11.0769 2.04751 11.0769C2.1478 11.0777 2.24809 11.0789 2.34838 11.0801L2.34843 11.0801H2.34845C2.58125 11.0829 2.81404 11.0857 3.04675 11.0823C3.14739 11.0809 3.16873 11.1082 3.16796 11.2052C3.16336 11.7719 3.16081 12.3387 3.15826 12.9054C3.15648 13.2989 3.15471 13.6924 3.15226 14.0859C3.1518 14.1571 3.16271 14.1865 3.24524 14.1855C3.61102 14.1814 3.97694 14.1824 4.34269 14.1887C4.42945 14.1901 4.4499 14.1673 4.45002 14.0811C4.45066 13.5675 4.45291 13.0539 4.45516 12.5403V12.5403V12.5403V12.5403V12.5402V12.5402C4.45714 12.0904 4.45911 11.6405 4.46 11.1906C4.46016 11.1109 4.47818 11.0842 4.56194 11.0865C4.73229 11.0914 4.90273 11.0935 5.07317 11.0956H5.07318H5.0732L5.07321 11.0956H5.07323H5.07324H5.07324C5.2227 11.0975 5.37215 11.0994 5.52155 11.103C5.60037 11.105 5.63533 11.0953 5.63361 11.0003ZM16.8272 13.2295C16.0994 13.5065 15.3496 13.6768 14.5677 13.6957C13.7654 13.7151 12.9773 13.6342 12.2132 13.3771C12.0879 13.335 11.9643 13.2876 11.8358 13.2383L11.8358 13.2383C11.7753 13.2151 11.7138 13.1915 11.6504 13.1679L11.6504 13.3986C11.6505 13.6493 11.6505 13.8962 11.65 14.143C11.6499 14.1787 11.673 14.1892 11.6975 14.2004L11.7033 14.203C12.0734 14.3746 12.4519 14.5224 12.845 14.6341C13.3826 14.7868 13.9316 14.7982 14.485 14.797C15.3202 14.7953 16.1038 14.5904 16.8567 14.2436C16.9046 14.2215 16.9235 14.196 16.9231 14.1413C16.921 13.8604 16.9203 13.5794 16.9268 13.2986C16.9289 13.2081 16.9091 13.1984 16.8272 13.2295ZM17.8905 10.096C18.1291 10.0985 18.3676 10.101 18.6061 10.1002C18.6838 10.1 18.7087 10.1194 18.7082 10.2029C18.7051 10.7075 18.7054 11.2121 18.7057 11.7167L18.7059 12.1829L18.6831 12.1829L18.683 12.6245C18.6829 13.147 18.6827 13.6695 18.6846 14.192C18.6849 14.2604 18.6666 14.2811 18.5974 14.2795C18.2644 14.2719 17.9313 14.2672 17.5982 14.2667C17.5309 14.2666 17.5172 14.2442 17.5175 14.1827C17.522 13.4258 17.5254 12.6688 17.5287 11.9119V11.9119V11.9119V11.9119L17.5327 11.0462C17.5339 10.7751 17.5361 10.5039 17.5383 10.2328C17.5395 10.0927 17.5401 10.0927 17.6741 10.0939L17.6753 10.0939L17.8905 10.096ZM10.0988 12.6476C10.0987 12.6742 10.0984 12.7 10.0977 12.7249C10.097 12.7491 10.0961 12.7726 10.0948 12.7954C10.0942 12.807 10.0934 12.8184 10.0926 12.8296C10.0882 12.8883 10.0812 12.9427 10.0707 12.9945C10.059 13.052 10.0429 13.1064 10.0212 13.1597C9.96197 13.3049 9.86354 13.3948 9.72995 13.4328C9.68929 13.4444 9.64552 13.4514 9.59842 13.4533C9.4056 13.4614 9.24076 13.3633 9.16758 13.1746C9.16587 13.1703 9.16432 13.1659 9.16277 13.1615L9.16277 13.1615L9.15976 13.1531C9.04536 12.8437 9.05046 12.5286 9.17519 12.2213C9.21621 12.1201 9.28036 12.0505 9.36234 12.0083C9.3705 12.0041 9.37889 12.0002 9.38744 11.9965C9.39511 11.9933 9.40293 11.9902 9.41088 11.9873C9.46852 11.9666 9.53321 11.957 9.60393 11.9581C9.66566 11.9591 9.72154 11.9686 9.7716 11.9868C9.78158 11.9904 9.79136 11.9944 9.80093 11.9987C9.83911 12.016 9.87358 12.0388 9.90433 12.0671C9.91972 12.0812 9.93419 12.0967 9.94772 12.1135C9.96123 12.1304 9.97388 12.1487 9.98556 12.1683C9.99417 12.1827 10.0021 12.1982 10.0098 12.2142L10.0125 12.2197L10.0125 12.2197C10.0143 12.2235 10.0161 12.2273 10.0179 12.2312C10.0755 12.3617 10.0953 12.4995 10.0984 12.6049C10.0989 12.6198 10.099 12.6341 10.0988 12.6476ZM6.69642 13.0953C6.69599 13.1041 6.69544 13.1128 6.69478 13.1216C6.69076 13.174 6.68223 13.2255 6.66556 13.2765C6.6434 13.3442 6.60627 13.403 6.55915 13.4509C6.4708 13.5406 6.34742 13.5919 6.22215 13.5919C6.15536 13.5919 6.08801 13.5772 6.02519 13.5461L6.02358 13.5452C6.01627 13.5415 6.00903 13.5377 6.00183 13.5336C5.99211 13.528 5.9828 13.5221 5.97376 13.516C5.96307 13.5088 5.95293 13.5012 5.94333 13.4932L5.93695 13.4878C5.88062 13.4384 5.84601 13.374 5.84952 13.2895C5.8504 13.2685 5.85329 13.2488 5.85787 13.2303C5.87068 13.1789 5.89748 13.1367 5.93634 13.1038C5.96109 13.0828 5.99066 13.0656 6.02466 13.0522C6.03175 13.0493 6.03895 13.0468 6.04615 13.0442L6.05089 13.0424C6.08707 13.0293 6.12407 13.018 6.1614 13.0083L6.16623 13.007C6.17066 13.0059 6.17509 13.0048 6.17952 13.0036C6.18383 13.0025 6.18813 13.0015 6.19244 13.0005L6.22789 12.992L6.22791 12.992L6.22795 12.992C6.29966 12.975 6.37145 12.9579 6.44321 12.9378C6.48501 12.9261 6.52683 12.9134 6.56862 12.899C6.6104 12.8847 6.65219 12.8687 6.69391 12.8506L6.69393 12.8512C6.69436 12.8752 6.69506 12.8989 6.69576 12.9225L6.69576 12.9225V12.9225V12.9225V12.9225C6.69668 12.9539 6.6976 12.9849 6.69783 13.0155L6.69785 13.0423C6.69772 13.0601 6.69729 13.0777 6.69642 13.0953ZM9.63966 11.1616C9.44005 11.2183 9.28021 11.336 9.13411 11.5143L9.13409 11.4658L9.13415 11.3965L9.13552 11.0893C9.13685 10.7702 9.13819 10.4512 9.14197 10.1322C9.14276 10.066 9.12846 10.0435 9.05744 10.0441C8.72423 10.047 8.39091 10.0453 8.0577 10.0413C7.99425 10.0405 7.9758 10.0578 7.97558 10.1224C7.97475 10.3734 7.97226 10.6243 7.96977 10.8753C7.96756 11.0979 7.96536 11.3205 7.96431 11.5431C7.96168 12.1019 7.96038 12.6607 7.95908 13.2194L7.95752 13.8563C7.95733 13.928 7.95738 13.9998 7.95744 14.0716L7.95748 14.171L7.92911 14.1731C7.89862 14.1245 7.87662 14.0717 7.86125 14.0158C7.80786 13.822 7.8084 13.6238 7.80895 13.4249L7.80895 13.4233C7.80936 13.2698 7.81212 13.1163 7.81488 12.9628C7.82104 12.6201 7.8272 12.2774 7.80719 11.9348C7.78487 11.5532 7.58213 11.3154 7.22256 11.2007C7.01542 11.1346 6.80266 11.1083 6.58699 11.0975C6.21693 11.0788 5.84891 11.0883 5.49227 11.2025C5.09842 11.3287 4.85709 11.5865 4.81207 12.0096C4.80611 12.0654 4.81858 12.0834 4.87664 12.0832C5.19352 12.0818 5.51044 12.0832 5.82732 12.0862C5.8766 12.0867 5.89421 12.071 5.90283 12.0225C5.92083 11.9207 5.98795 11.854 6.08207 11.8191C6.21421 11.77 6.35121 11.766 6.48636 11.8037C6.62752 11.843 6.70282 11.9373 6.70242 12.0598C6.70205 12.1829 6.62829 12.2625 6.47521 12.3022C6.35524 12.3333 6.23265 12.3478 6.11006 12.3622L6.10991 12.3623C6.06405 12.3677 6.01819 12.3731 5.97246 12.3794L5.96507 12.3804C5.67648 12.42 5.38812 12.4596 5.12256 12.5925C4.78523 12.7614 4.64766 13.0403 4.66297 13.4081C4.67754 13.7573 4.83064 14.0325 5.15636 14.1543C5.6995 14.3574 6.23072 14.3505 6.69642 13.9388C6.69858 13.9369 6.7028 13.9373 6.70838 13.9378C6.71146 13.9381 6.71497 13.9384 6.71878 13.9384L6.72128 13.9828C6.72302 14.0155 6.72478 14.0484 6.72785 14.0812C6.73566 14.1641 6.76062 14.2094 6.86576 14.2065C7.11172 14.1998 7.35794 14.2025 7.60414 14.2052H7.60416H7.60417H7.60419H7.60421C7.67494 14.206 7.74567 14.2068 7.81638 14.2074C8.21464 14.2105 8.61293 14.2144 9.01117 14.2202C9.0654 14.221 9.07774 14.199 9.07615 14.1507C9.07426 14.0936 9.07467 14.0364 9.07508 13.9791V13.9791C9.07525 13.955 9.07542 13.9308 9.07542 13.9067C9.20362 14.0456 9.33056 14.1704 9.50883 14.2265C10.12 14.419 10.717 14.2478 11.0363 13.6266C11.3269 13.061 11.3393 12.471 11.123 11.8808C10.8468 11.1271 10.1139 11.027 9.63966 11.1616ZM20.7875 13.1359C20.7919 13.2155 20.7834 13.3088 20.7462 13.3983C20.6423 13.649 20.3043 13.7549 20.0783 13.6061C19.9911 13.5488 19.9361 13.4711 19.9452 13.3616C19.9541 13.2537 20.0136 13.1825 20.1116 13.1392C20.1919 13.1037 20.2765 13.0846 20.3612 13.0655C20.4035 13.056 20.4458 13.0464 20.4876 13.0348L20.5192 13.0262C20.5811 13.0093 20.6433 12.9924 20.701 12.966C20.7822 12.9288 20.7958 12.9597 20.7879 13.032C20.7859 13.0511 20.7863 13.0705 20.7869 13.0944V13.0944C20.7871 13.1068 20.7875 13.1205 20.7875 13.1359ZM21.9406 14.0356C21.891 13.7536 21.8977 13.4699 21.9043 13.1862C21.9068 13.0783 21.9094 12.9704 21.9088 12.8626C21.9083 12.7721 21.9097 12.6815 21.911 12.5909C21.914 12.3876 21.917 12.1844 21.8995 11.9818C21.872 11.6649 21.7117 11.4394 21.412 11.3187C21.1785 11.2247 20.9337 11.1925 20.6848 11.1815C20.3184 11.1654 19.9534 11.1701 19.599 11.281C19.2052 11.4042 18.9578 11.6568 18.908 12.0792L18.9063 12.0922C18.9009 12.1323 18.8962 12.1659 18.9663 12.1653C19.2831 12.1624 19.5999 12.1646 19.9168 12.168C19.9707 12.1686 19.9907 12.1498 19.9995 12.0986C20.0143 12.0119 20.0691 11.9493 20.1474 11.9156C20.3067 11.847 20.471 11.8413 20.6327 11.9066C20.7497 11.9537 20.7996 12.0397 20.7928 12.1598C20.7868 12.2674 20.7299 12.3371 20.6102 12.3745C20.503 12.4079 20.3918 12.422 20.2808 12.436L20.2642 12.4381L20.1633 12.4507C19.9088 12.4821 19.6543 12.5135 19.4091 12.5951C19.0252 12.7229 18.7804 12.9611 18.7539 13.3894C18.7312 13.7586 18.9101 14.0826 19.2455 14.2399C19.4671 14.3438 19.7036 14.3676 19.9437 14.3555C20.2536 14.3399 20.5445 14.2689 20.772 14.0362C20.7809 14.0271 20.7919 14.0201 20.8087 14.0326L20.814 14.0788L20.8141 14.0792C20.8181 14.1136 20.8222 14.149 20.8257 14.1845C20.8327 14.2559 20.8603 14.2894 20.9431 14.287C21.1008 14.2826 21.2587 14.2863 21.4165 14.29L21.5207 14.2924C21.5757 14.2935 21.6306 14.2926 21.6856 14.2917C21.7905 14.2899 21.8954 14.2881 22 14.3008V14.1832C21.9593 14.1488 21.9513 14.1 21.9435 14.0529L21.9406 14.0356Z" fill="#333333"/>
</svg>
