<svg width="24" height="24" viewBox="0 0 24 24" fill="none" xmlns="http://www.w3.org/2000/svg">
<circle cx="12" cy="12" r="11" fill="#444444"/>
<path fill-rule="evenodd" clip-rule="evenodd" d="M24 12C24 18.6274 18.6274 24 12 24C5.37258 24 0 18.6274 0 12C0 5.37258 5.37258 0 12 0C18.6274 0 24 5.37258 24 12ZM12.1512 12.6824L12.1509 12.6891C12.1491 12.7408 12.1143 12.7491 12.0727 12.7491L10.7678 12.749C10.7253 12.749 10.6931 12.7374 10.691 12.6868C10.6892 12.6413 10.6896 12.5998 10.7477 12.5866C10.786 12.5778 10.824 12.5678 10.862 12.5578L10.862 12.5578C10.908 12.5456 10.954 12.5335 11.0004 12.5237C11.1197 12.4984 11.1765 12.4274 11.1765 12.306L11.1764 12.1866C11.176 11.0196 11.1757 9.85265 11.1771 8.68569C11.1773 8.51646 11.0677 8.45564 10.9335 8.40178C10.9102 8.39244 10.8819 8.38668 10.8532 8.38085C10.7777 8.36551 10.6996 8.34962 10.7036 8.26655C10.707 8.1947 10.7824 8.18811 10.8552 8.18175C10.884 8.17923 10.9124 8.17675 10.9358 8.17029C11.0373 8.14223 11.1402 8.11876 11.2431 8.0953L11.2431 8.0953C11.3572 8.06929 11.4713 8.04328 11.5835 8.01099C11.698 7.9781 11.7062 8.02083 11.7058 8.1149C11.7038 8.64451 11.704 9.17414 11.7043 9.70376V9.70444L11.7044 10.2028L11.7044 12.2092C11.7044 12.4655 11.7213 12.4873 11.9719 12.5546C12.0138 12.5659 12.0559 12.577 12.0982 12.5866C12.1544 12.5993 12.1528 12.6406 12.1512 12.6824ZM6.89838 8.89539C7.1214 8.89399 7.2924 8.72087 7.28753 8.50137C7.28299 8.2967 7.09998 8.12274 6.89224 8.12571C6.6844 8.12862 6.50772 8.30935 6.51115 8.51552C6.51465 8.72953 6.68509 8.89676 6.89838 8.89539ZM19.6549 12.4975C19.6656 12.4993 19.6762 12.501 19.686 12.505C19.7023 12.5118 19.7215 12.5155 19.7407 12.5193C19.7967 12.5302 19.8533 12.5413 19.8439 12.6278C19.8333 12.725 19.7694 12.7136 19.712 12.7034C19.6945 12.7003 19.6776 12.6973 19.663 12.6975C19.3051 12.7026 18.947 12.7012 18.589 12.6997L18.5053 12.6994C18.4968 12.6994 18.4877 12.6999 18.4786 12.7004C18.4293 12.7032 18.3767 12.7061 18.3736 12.6248C18.3704 12.5412 18.4308 12.5304 18.4916 12.52C18.8639 12.4565 18.8623 12.4114 18.8544 12.188V12.1879V12.1879V12.1878V12.1878V12.1877V12.1876C18.853 12.1476 18.8514 12.1019 18.8517 12.0493C18.8531 11.8248 18.8526 11.6002 18.8521 11.3757C18.8513 11.0242 18.8505 10.6728 18.8569 10.3215C18.8603 10.1331 18.7989 10.0279 18.6172 9.97347C18.5991 9.96806 18.578 9.96369 18.5561 9.95914L18.5561 9.95913C18.4746 9.94219 18.3815 9.92283 18.3883 9.8389C18.394 9.76875 18.4776 9.75927 18.5567 9.7503C18.5844 9.74716 18.6114 9.74409 18.6345 9.73852C18.7285 9.71583 18.8233 9.69619 18.918 9.67654L18.918 9.67654L18.918 9.67654C19.0358 9.65213 19.1535 9.62772 19.2697 9.59748C19.3771 9.56955 19.403 9.59807 19.4022 9.70191C19.3995 10.0171 19.3999 10.3323 19.4003 10.6476V10.6481L19.4007 10.99L19.4006 11.3478V11.3504C19.4005 11.6325 19.4003 11.9145 19.4008 12.1966C19.4012 12.4173 19.4254 12.4463 19.6383 12.4945C19.6438 12.4957 19.6493 12.4966 19.6549 12.4975ZM5.47625 12.5707C5.50597 12.5779 5.53567 12.585 5.56563 12.591C5.62305 12.6024 5.62465 12.6437 5.62615 12.6897C5.62814 12.7511 5.59238 12.7601 5.54286 12.76C5.11327 12.7594 4.68371 12.7594 4.25419 12.76C4.19847 12.7601 4.15966 12.7485 4.15865 12.6804C4.1577 12.6164 4.1919 12.5971 4.24723 12.5877C4.64991 12.5198 4.64947 12.4887 4.64527 12.196C4.64469 12.156 4.64405 12.1111 4.64435 12.0606C4.64611 11.7679 4.64543 11.4752 4.64475 11.1825V11.1824L4.64409 10.8372C4.64406 10.8045 4.64351 10.7719 4.64155 10.7393C4.6242 10.451 4.60202 10.1508 4.28326 10.0311C3.95081 9.90634 3.63146 9.97758 3.34595 10.1897C3.3377 10.1958 3.33035 10.2032 3.32301 10.2106C3.31492 10.2187 3.30683 10.2268 3.29754 10.2333C3.28787 10.24 3.2788 10.2504 3.26968 10.2609C3.24793 10.2859 3.22593 10.3112 3.19485 10.2864C3.14896 10.2499 3.18567 10.1909 3.21086 10.1531C3.39593 9.87535 3.63639 9.67215 3.97952 9.62962C4.19621 9.60277 4.41493 9.6014 4.62205 9.68786C4.9639 9.8306 5.1214 10.1064 5.16504 10.4595C5.19286 10.6846 5.18996 10.9105 5.18729 11.119V11.119V11.119V11.119V11.119V11.119V11.119V11.1191C5.18591 11.2266 5.18459 11.3296 5.18758 11.4254C5.18758 11.5252 5.18837 11.6192 5.18913 11.7092V11.7093V11.7093V11.7093V11.7093V11.7093V11.7093V11.7093V11.7093V11.7094V11.7094V11.7094V11.7094V11.7094V11.7094V11.7094V11.7094V11.7094C5.19082 11.9093 5.19234 12.0893 5.18464 12.2689C5.17736 12.4383 5.25245 12.5214 5.40672 12.5546C5.42993 12.5596 5.45303 12.5651 5.47611 12.5707L5.47621 12.5707L5.47625 12.5707ZM3.41077 12.5853C3.36824 12.5765 3.32607 12.5656 3.28403 12.5546C3.03906 12.4908 3.02495 12.4728 3.02482 12.2218C3.02469 11.9647 3.02471 11.7076 3.02474 11.4505L3.02475 11.0298C3.02475 10.9153 3.02454 10.8008 3.02433 10.6863V10.6863C3.02375 10.3763 3.02318 10.0663 3.02681 9.75629C3.02802 9.65174 3.00064 9.62289 2.89658 9.64729C2.73311 9.68566 2.56883 9.72053 2.40454 9.75541L2.40439 9.75544C2.30299 9.77696 2.20159 9.79849 2.10038 9.82083C2.09437 9.82216 2.08807 9.82325 2.08167 9.82435L2.08159 9.82437C2.04589 9.83054 2.00733 9.8372 2.00232 9.88753C1.99712 9.94002 2.03538 9.95383 2.07146 9.96685L2.0848 9.97177C2.15566 9.99904 2.2274 10.0241 2.2991 10.0491L2.29911 10.0491L2.29913 10.0491L2.31462 10.0545C2.42525 10.0932 2.48273 10.1703 2.4828 10.2877C2.48316 10.968 2.48316 11.6483 2.4829 12.3287C2.48283 12.4283 2.43521 12.4934 2.33719 12.5182L2.28697 12.531C2.21423 12.5496 2.14146 12.5682 2.06804 12.5836C2.01379 12.5949 1.99919 12.6264 2.00003 12.6765C2.00098 12.7346 2.03306 12.7495 2.08411 12.7494C2.41384 12.7489 2.74357 12.7489 3.07329 12.7489L3.39032 12.7488C3.43272 12.7488 3.46528 12.738 3.46597 12.6864L3.46606 12.6808C3.46679 12.6382 3.46749 12.5971 3.41077 12.5853ZM7.57641 12.5768C7.62781 12.5877 7.67947 12.5987 7.67027 12.681C7.66149 12.7599 7.61142 12.7549 7.56478 12.7503H7.56477H7.56476H7.56475H7.56474H7.56472L7.56471 12.7503C7.55376 12.7492 7.54301 12.7482 7.53302 12.7482C7.11977 12.7504 6.70651 12.7502 6.29328 12.7484C6.28364 12.7484 6.27336 12.7493 6.26293 12.7502H6.26292L6.26291 12.7502M7.57641 12.5768L7.5764 12.5768ZM7.5764 12.5768C7.56538 12.5745 7.55436 12.5721 7.54396 12.5691ZM7.54396 12.5691C7.52519 12.5636 7.50589 12.5599 7.48659 12.5562ZM7.48659 12.5562L7.48656 12.5562ZM7.48656 12.5562C7.4685 12.5527 7.45043 12.5493 7.43278 12.5443ZM7.43278 12.5443C7.2141 12.4832 7.19512 12.4577 7.19499 12.2259ZM7.19499 12.2259C7.19486 11.9689 7.19489 11.7119 7.19491 11.4549ZM7.19491 11.4549L7.19492 11.0351ZM7.19492 11.0351C7.19492 10.9192 7.19461 10.8034 7.19429 10.6875ZM7.19429 10.6875C7.19346 10.3847 7.19263 10.0818 7.19747 9.77903ZM7.19747 9.77903C7.19946 9.65488 7.1571 9.63012 7.04568 9.65576ZM7.04568 9.65576C6.9156 9.68573 6.78503 9.71358 6.65446 9.74144ZM6.65446 9.74144C6.53028 9.76793 6.4061 9.79443 6.28234 9.82273ZM6.28234 9.82273C6.27484 9.82445 6.26648 9.82559 6.25784 9.82677ZM6.25784 9.82677L6.25779 9.82678ZM6.25779 9.82678C6.21917 9.83205 6.17507 9.83808 6.17795 9.89894ZM6.17795 9.89894C6.18017 9.94621 6.21546 9.95703 6.24975 9.96753ZM6.24975 9.96753L6.24975 9.96754ZM6.24975 9.96754C6.2569 9.96973 6.264 9.9719 6.27075 9.97439ZM6.27075 9.97439C6.29005 9.98151 6.30974 9.98761 6.32942 9.99372ZM6.32942 9.99372L6.32943 9.99372ZM6.32943 9.99372L6.32944 9.99372ZM6.32944 9.99372C6.35131 10.0005 6.37318 10.0073 6.39451 10.0154ZM6.39451 10.0154C6.64575 10.1117 6.66483 10.1397 6.6649 10.4091ZM6.6649 10.4091L6.66493 11.2012ZM6.66493 11.2012L6.66499 12.073ZM6.66499 12.073C6.665 12.1039 6.66518 12.1325 6.66534 12.1589ZM6.66534 12.1589V12.1589ZM6.66534 12.1589C6.66631 12.3189 6.66681 12.4008 6.62737 12.4516ZM6.62737 12.4516C6.58613 12.5048 6.50123 12.5241 6.32753 12.5637ZM6.32753 12.5637L6.32752 12.5637ZM6.32752 12.5637L6.32751 12.5637ZM6.32751 12.5637L6.27372 12.576ZM6.27372 12.576C6.2663 12.5777 6.25878 12.5791 6.25133 12.5806ZM6.25133 12.5806C6.20044 12.5906 6.15253 12.6 6.15897 12.6781ZM6.15897 12.6781C6.16563 12.7586 6.21573 12.7543 6.26291 12.7502ZM11.7409 14.6506C11.7442 14.4717 11.9094 14.3105 12.0885 14.3113C12.2686 14.3121 12.4348 14.4748 12.4365 14.6522C12.4383 14.8238 12.2671 15.0005 12.0962 15.0035C11.9164 15.0068 11.7377 14.8292 11.7409 14.6506ZM16.7142 14.315C16.5325 14.3169 16.3681 14.4821 16.3724 14.6585C16.3768 14.8362 16.5448 15.0045 16.7184 15.0051C16.8954 15.0057 17.0742 14.8229 17.0698 14.6459C17.0654 14.4697 16.8972 14.3131 16.7142 14.315ZM14.0557 14.6584C14.0511 14.4836 14.2163 14.3176 14.3973 14.3151C14.5903 14.3124 14.7417 14.4547 14.7485 14.6454C14.755 14.8306 14.5853 15.0067 14.4022 15.0048C14.2291 15.0029 14.0604 14.8343 14.0557 14.6584ZM19.0324 14.3153C18.8453 14.3171 18.6876 14.4721 18.6869 14.655C18.6861 14.8359 18.8643 15.0085 19.0464 15.0033C19.222 14.9983 19.3803 14.8287 19.3776 14.6484C19.3748 14.4558 19.2272 14.3134 19.0324 14.3153ZM21.0094 14.6525C21.0099 14.4645 21.1611 14.3151 21.3509 14.3149C21.5424 14.3147 21.6928 14.4612 21.695 14.6504C21.6971 14.8314 21.5406 14.9969 21.3613 15.0034C21.178 15.01 21.0089 14.8414 21.0094 14.6525ZM9.76513 14.3151C9.58049 14.3185 9.42018 14.4814 9.42406 14.6618C9.42775 14.837 9.60423 15.008 9.77634 15.0032C9.94949 14.9983 10.1203 14.8208 10.1173 14.6489C10.1141 14.4658 9.95148 14.3117 9.76513 14.3151ZM4.65307 14.66C4.64843 14.4804 4.80826 14.3169 4.99009 14.3152C5.18408 14.3135 5.32741 14.4556 5.32907 14.6513C5.33061 14.8345 5.1735 15.0018 4.99852 15.0033C4.82276 15.0049 4.65771 14.8409 4.65307 14.66ZM7.45538 14.3155C7.26805 14.3145 7.11336 14.4652 7.10977 14.6522C7.10637 14.8283 7.27148 14.9997 7.44767 15.003C7.63147 15.0065 7.78074 14.8532 7.78283 14.6587C7.78508 14.4521 7.65583 14.3166 7.45538 14.3155ZM2.34361 14.6621C2.34099 14.4628 2.48181 14.3162 2.67635 14.3157C2.87109 14.3152 3.01494 14.4611 3.01317 14.6573C3.01144 14.8492 2.85662 15.007 2.67387 15.003C2.49902 14.9991 2.34599 14.8411 2.34361 14.6621ZM17.4216 9.71315C16.7988 9.37483 15.989 9.65155 15.6463 10.3174C15.408 10.7806 15.385 11.2699 15.5022 11.7621C15.6408 12.3438 16.0565 12.7149 16.5786 12.7823C17.0782 12.8469 17.5083 12.6935 17.9007 12.3944C18.0192 12.3039 18.0375 12.2005 17.9908 12.0524C17.8021 12.1877 17.6174 12.3068 17.4028 12.3744C16.8913 12.5356 16.4007 12.367 16.1848 11.9295C16.0041 11.5634 15.9644 11.1672 16.0214 10.7679C16.0637 10.4717 16.1388 10.1812 16.3757 9.96414C16.7057 9.66178 17.1629 9.75607 17.3413 10.1643C17.4011 10.3013 17.4198 10.4454 17.4387 10.5903V10.5903L17.4473 10.6558C17.4615 10.7595 17.4319 10.7996 17.3191 10.797C17.1459 10.793 16.9726 10.7935 16.7994 10.794H16.7992H16.7992C16.6625 10.7944 16.5258 10.7948 16.3891 10.7929C16.3007 10.7917 16.2628 10.8133 16.2642 10.9102C16.2656 11.0033 16.3087 11.0154 16.3856 11.0151C16.886 11.013 17.3864 11.012 17.8867 11.0158C17.9789 11.0165 18.0061 10.9813 18.017 10.895C18.0758 10.4268 17.831 9.93553 17.4216 9.71315ZM9.77798 12.3824C9.94502 12.3319 10.1035 12.2619 10.2464 12.1579C10.2585 12.1491 10.2716 12.1366 10.2852 12.1236C10.3258 12.0846 10.3704 12.042 10.4027 12.0858C10.4496 12.1495 10.4499 12.2596 10.3648 12.3354C10.0982 12.5731 9.79396 12.7387 9.43792 12.7804C8.54719 12.8845 7.9227 12.3647 7.84885 11.459C7.80244 10.8901 7.9031 10.3596 8.33119 9.94226C8.85031 9.43631 9.6617 9.44486 10.1263 9.95778C10.3712 10.228 10.4414 10.5571 10.4223 10.9126C10.4174 11.0032 10.368 11.0157 10.2928 11.015C10.1116 11.0131 9.93037 11.0135 9.74914 11.0138H9.7489L9.5417 11.014L9.33227 11.0138H9.33226C9.15711 11.0134 8.98198 11.0131 8.80687 11.015C8.72279 11.0159 8.66112 11.0148 8.66305 10.8985C8.6648 10.7931 8.72124 10.7935 8.79127 10.794L8.80109 10.794C8.90115 10.7944 9.00124 10.7939 9.10131 10.7934H9.1014C9.30072 10.7923 9.50003 10.7913 9.69913 10.7975C9.82717 10.8015 9.85667 10.7581 9.84723 10.6385C9.8356 10.4907 9.8129 10.3467 9.76185 10.2083C9.59056 9.74387 9.06435 9.64225 8.72946 10.0112C8.48033 10.2858 8.41657 10.6315 8.40726 10.9818C8.39805 11.3303 8.435 11.6788 8.61873 11.9909C8.84211 12.3703 9.30182 12.5262 9.77798 12.3824ZM14.2999 11.0942C14.2346 11.0681 14.1668 11.0482 14.099 11.0284C14.0521 11.0146 14.0051 11.0008 13.9589 10.985C13.8947 10.963 13.8288 10.9451 13.7629 10.9272L13.7629 10.9272C13.6138 10.8868 13.4648 10.8464 13.3339 10.7575C13.1573 10.6375 13.0802 10.4327 13.1387 10.2096C13.1893 10.0167 13.3276 9.91109 13.5223 9.87911C13.698 9.85027 13.8677 9.87424 14.0361 9.93049C14.2475 10.001 14.3941 10.128 14.4467 10.352C14.4563 10.3928 14.4721 10.4322 14.4879 10.4716L14.4879 10.4717C14.4945 10.488 14.501 10.5043 14.5071 10.5207C14.5303 10.583 14.5812 10.5804 14.6311 10.5779L14.6446 10.5773C14.7132 10.5746 14.7093 10.5281 14.7058 10.4854L14.7046 10.4694C14.6974 10.3399 14.6894 10.2105 14.6814 10.0812C14.6756 9.98805 14.6699 9.89495 14.6644 9.80183C14.662 9.76041 14.652 9.72935 14.6055 9.71743C14.1308 9.59582 13.6558 9.51593 13.1868 9.73523C12.8282 9.90292 12.6508 10.2163 12.6755 10.62C12.697 10.9734 12.9019 11.2317 13.271 11.3531C13.3868 11.3913 13.504 11.4252 13.6213 11.4592L13.6213 11.4592C13.7754 11.5038 13.9294 11.5484 14.0801 11.6024C14.3201 11.6885 14.4055 11.8376 14.3927 12.078C14.3802 12.3117 14.2681 12.4543 14.0338 12.5253C13.7058 12.6247 13.4138 12.5047 13.1264 12.3678C12.9907 12.3032 12.9069 12.1959 12.8739 12.0467C12.8629 11.997 12.8459 11.9486 12.8288 11.9002L12.8288 11.9002L12.8288 11.9002L12.8287 11.9001C12.8204 11.8767 12.8122 11.8532 12.8046 11.8295C12.7866 11.7736 12.7442 11.7751 12.7019 11.7767L12.7018 11.7767C12.6955 11.7769 12.6891 11.7771 12.6829 11.7771C12.6197 11.7775 12.6183 11.823 12.6181 11.868C12.6178 11.9367 12.6178 12.0055 12.6178 12.0742L12.6178 12.1946C12.6178 12.2247 12.6184 12.2549 12.6191 12.2851C12.6206 12.353 12.6221 12.421 12.6158 12.4882C12.6056 12.5968 12.6512 12.6446 12.7527 12.6682C12.8235 12.6847 12.8934 12.7051 12.9634 12.7254C13.0605 12.7537 13.1575 12.782 13.2565 12.7998C13.6391 12.8687 14.0167 12.8519 14.3692 12.6674C14.7216 12.4829 14.861 12.1699 14.8514 11.7895C14.8423 11.4273 14.6151 11.2199 14.2999 11.0942ZM21.7693 12.5019C21.6144 12.4634 21.5539 12.3815 21.5577 12.2251C21.5625 12.0299 21.5614 11.8346 21.5604 11.6393V11.6391C21.56 11.5571 21.5596 11.4751 21.5596 11.3931H21.5557C21.5557 11.3036 21.5568 11.214 21.5579 11.1245C21.5604 10.9257 21.5628 10.7269 21.5532 10.5287C21.5282 10.014 21.2816 9.69499 20.8492 9.58907C20.3679 9.47115 19.8292 9.68183 19.5972 10.0811L19.589 10.0948C19.5631 10.1379 19.5305 10.1921 19.5742 10.2277C19.611 10.2578 19.6365 10.226 19.6609 10.1956C19.6699 10.1844 19.6787 10.1733 19.6879 10.1656C19.9436 9.95281 20.2384 9.88817 20.559 9.94758C20.8328 9.99834 20.9976 10.2206 21.0065 10.5673C21.016 10.9334 21.0163 11.2997 21.0167 11.666C21.0168 11.7836 21.0169 11.9011 21.0173 12.0187C21.0187 12.4162 21.0176 12.4165 20.6476 12.5321L20.6466 12.5324L20.6324 12.5367C20.5746 12.5542 20.5173 12.5714 20.5356 12.658C20.5512 12.7312 20.5998 12.7241 20.6445 12.7176C20.6573 12.7157 20.6698 12.7139 20.6811 12.714L20.7768 12.715C21.0983 12.7182 21.4201 12.7214 21.7413 12.711C21.7642 12.7103 21.7916 12.7161 21.8198 12.7221C21.8976 12.7386 21.9822 12.7565 21.9981 12.6429C22.0145 12.526 21.9211 12.518 21.8381 12.5109C21.8132 12.5088 21.7891 12.5068 21.7693 12.5019Z" fill="#DFDFDF"/>
</svg>
