<svg width="24" height="24" viewBox="0 0 24 24" fill="none" xmlns="http://www.w3.org/2000/svg">
<circle cx="12" cy="12" r="11" fill="white"/>
<path fill-rule="evenodd" clip-rule="evenodd" d="M24 12C24 18.6274 18.6274 24 12 24C5.37258 24 0 18.6274 0 12C0 5.37258 5.37258 0 12 0C18.6274 0 24 5.37258 24 12ZM17.472 7.0356C18.2131 6.89344 18.9238 6.61929 19.5532 6.24369C19.3095 7.00513 18.7918 7.64473 18.1117 8.05079C18.7715 7.97981 19.4112 7.79695 20 7.54319C19.5533 8.19295 18.9949 8.77153 18.3553 9.2386C18.3655 9.38066 18.3655 9.52282 18.3655 9.66497C18.3655 14 15.0661 18.9949 9.03564 18.9949C7.17768 18.9949 5.45181 18.4569 4 17.5228C4.264 17.5533 4.51775 17.5634 4.7919 17.5634C6.32485 17.5634 7.73605 17.0457 8.86294 16.1625C7.42128 16.132 6.21316 15.1878 5.79695 13.8883C6.00002 13.9188 6.2031 13.9391 6.41633 13.9391C6.7107 13.9391 7.00516 13.8985 7.27922 13.8274C5.77673 13.5228 4.64975 12.2031 4.64975 10.6092V10.5686C5.08618 10.8122 5.59387 10.9645 6.13202 10.9848C5.24864 10.396 4.67006 9.39091 4.67006 8.25378C4.67006 7.64473 4.83243 7.08627 5.11673 6.59898C6.731 8.58885 9.1574 9.88826 11.8782 10.0304C11.8274 9.78682 11.7969 9.53306 11.7969 9.27922C11.7969 7.47212 13.2589 6 15.0761 6C16.0204 6 16.8731 6.39591 17.472 7.0356Z" fill="#333333"/>
</svg>
