<svg fill="none" viewBox="0 0 16 16" xmlns="http://www.w3.org/2000/svg">
  <g fill="#000" clip-path="url(#Bookmark-All-16_svg__a)">
    <path d="M0 2.25A2.25 2.25 0 0 1 2.25 0h4.5c.885 0 1.65.51 2.018 1.254.185.373-.146.746-.563.746h-.253c-.296 0-.547-.22-.797-.381A.746.746 0 0 0 6.75 1.5h-4.5a.75.75 0 0 0-.75.75v9.125l1.3-.975a.75.75 0 1 1 .9 1.2l-2.5 1.875a.75.75 0 0 1-1.2-.6V2.25Z"/>
    <path d="M6.5 5.25a.75.75 0 0 1 .75-.75h4.625c.345 0 .625.28.625.625v.125a.75.75 0 0 0 1.5 0v-.125A2.125 2.125 0 0 0 11.875 3H7.25A2.25 2.25 0 0 0 5 5.25v10a.75.75 0 0 0 1.12.652l3.375-1.912 3.503 2.034a.75.75 0 0 0 .754-1.298l-3.627-2.106a1.25 1.25 0 0 0-1.244-.006L6.5 13.963V5.25Z"/>
    <path d="M13.25 7.5a.75.75 0 0 1 .75.75V9.5h1.25a.75.75 0 0 1 0 1.5H14v1.25a.75.75 0 0 1-1.5 0V11h-1.25a.75.75 0 0 1 0-1.5h1.25V8.25a.75.75 0 0 1 .75-.75Z"/>
  </g>
  <defs>
    <clipPath id="Bookmark-All-16_svg__a">
      <path fill="#fff" d="M0 0h16v16H0z"/>
    </clipPath>
  </defs>
</svg>
