<svg width="1074" height="1038" viewBox="0 0 1074 1038" fill="none" xmlns="http://www.w3.org/2000/svg">
<g opacity="0.8">
<path d="M1074 819.605H1060.93C1054.43 819.604 1048.02 818.091 1042.2 815.186C1036.38 812.28 1031.32 808.061 1027.41 802.861L988.39 751.011C984.478 745.809 979.411 741.589 973.59 738.683C967.769 735.778 961.353 734.266 954.848 734.267H889.769C883.014 734.267 876.359 732.635 870.369 729.51C864.379 726.384 859.231 721.858 855.363 716.315L819.406 664.781C817.294 661.754 814.542 659.23 811.345 657.388C808.149 655.546 804.586 654.43 800.911 654.121C797.235 653.811 793.537 654.316 790.078 655.598C786.618 656.88 783.484 658.908 780.896 661.539L758.183 684.656C755.7 687.185 752.711 689.16 749.411 690.45C746.111 691.741 742.576 692.318 739.037 692.144C735.499 691.971 732.037 691.049 728.88 689.442C725.722 687.834 722.94 685.575 720.716 682.815L644.576 588.358C642.168 585.37 639.109 582.973 635.633 581.352C632.157 579.731 628.356 578.928 624.522 579.005C620.687 579.082 616.922 580.037 613.513 581.796C610.105 583.555 607.144 586.072 604.858 589.154L477.143 761.353C475.044 764.186 472.374 766.545 469.305 768.277C466.236 770.009 462.837 771.076 459.33 771.408C455.822 771.739 452.284 771.328 448.945 770.202C445.606 769.076 442.542 767.259 439.951 764.87L397.008 725.381C394.33 722.905 391.146 721.042 387.676 719.922C384.207 718.802 380.535 718.451 376.916 718.894C373.297 719.337 369.818 720.563 366.721 722.488C363.623 724.412 360.982 726.988 358.979 730.037L272.381 862.074C268.73 867.637 263.754 872.205 257.902 875.365C252.049 878.525 245.503 880.179 238.853 880.177H170.082C163.697 880.176 157.405 881.701 151.728 884.625C146.052 887.55 141.155 891.788 137.446 896.989L113.539 930.489C109.968 935.488 105.299 939.601 99.8909 942.511C94.4829 945.421 88.48 947.05 82.3441 947.274L0 950.241V1037.51H1074V819.605Z" fill="url(#paint0_linear_695_13276)"/>
<path d="M1056.45 1000.09L1019.17 950.144C1015.45 945.175 1010.61 941.143 1005.06 938.368C999.502 935.593 993.377 934.151 987.168 934.156H973.98C968.088 934.155 962.27 932.85 956.941 930.335C951.613 927.821 946.905 924.159 943.156 919.611L863.296 822.722C860.926 819.849 857.953 817.533 854.588 815.94C851.223 814.347 847.549 813.515 843.826 813.505C840.104 813.494 836.425 814.305 833.051 815.879C829.677 817.453 826.691 819.752 824.306 822.612L676.265 1000.09H1056.45Z" fill="url(#paint1_linear_695_13276)"/>
<path opacity="0.8" d="M959.414 608.673L937.842 607.693C933.025 607.474 928.268 608.834 924.293 611.567C920.319 614.299 917.344 618.254 915.819 622.833C914.299 618.254 911.326 614.298 907.354 611.565C903.381 608.832 898.625 607.473 893.81 607.693L872.237 608.673C871.756 608.697 871.301 608.897 870.96 609.237C870.619 609.576 870.415 610.031 870.389 610.511C870.362 610.992 870.515 611.466 870.817 611.841C871.12 612.216 871.55 612.465 872.025 612.541L891.454 615.455C895.581 616.076 899.45 617.852 902.613 620.577C905.777 623.303 908.106 626.867 909.334 630.86C909.76 632.25 910.62 633.468 911.789 634.333C912.957 635.197 914.372 635.664 915.826 635.664C917.279 635.664 918.694 635.197 919.863 634.333C921.031 633.468 921.892 632.25 922.317 630.86C923.551 626.874 925.884 623.318 929.047 620.6C932.21 617.882 936.075 616.113 940.197 615.495L959.626 612.581C960.144 612.553 960.629 612.32 960.975 611.933C961.322 611.547 961.5 611.039 961.472 610.521C961.444 610.003 961.212 609.517 960.826 609.171C960.44 608.824 959.932 608.645 959.414 608.673V608.673Z" fill="white"/>
<path opacity="0.8" d="M937.508 657.883L951.802 657.234C954.987 657.093 958.132 657.996 960.759 659.806C963.386 661.615 965.353 664.232 966.36 667.26C967.363 664.23 969.328 661.61 971.956 659.8C974.584 657.99 977.731 657.089 980.918 657.234L995.211 657.883C995.497 657.943 995.754 658.096 995.943 658.318C996.133 658.54 996.244 658.818 996.259 659.11C996.274 659.401 996.192 659.69 996.027 659.93C995.861 660.17 995.621 660.349 995.344 660.439L982.479 662.373C979.734 662.774 977.159 663.944 975.051 665.749C972.943 667.554 971.389 669.92 970.568 672.572V672.572C970.29 673.495 969.721 674.303 968.948 674.878C968.175 675.453 967.237 675.763 966.274 675.763C965.31 675.763 964.373 675.453 963.599 674.878C962.826 674.303 962.258 673.495 961.979 672.572V672.572C961.158 669.92 959.604 667.554 957.496 665.749C955.388 663.944 952.813 662.774 950.068 662.373L937.204 660.439C936.926 660.335 936.69 660.141 936.536 659.888C936.381 659.634 936.316 659.336 936.351 659.041C936.387 658.746 936.52 658.472 936.729 658.261C936.939 658.051 937.213 657.918 937.508 657.883V657.883Z" fill="white"/>
<path opacity="0.8" d="M398.448 655.23L384.141 654.581C380.955 654.441 377.81 655.344 375.183 657.153C372.556 658.963 370.59 661.58 369.583 664.608C368.576 661.58 366.609 658.963 363.982 657.153C361.355 655.344 358.21 654.441 355.024 654.581L340.731 655.23C340.446 655.291 340.188 655.444 339.999 655.666C339.809 655.888 339.699 656.166 339.683 656.458C339.668 656.749 339.75 657.038 339.915 657.278C340.081 657.518 340.321 657.697 340.599 657.787L353.463 659.721C356.21 660.121 358.787 661.293 360.896 663.101C363.004 664.909 364.557 667.278 365.374 669.933V669.933C365.657 670.854 366.227 671.66 367.001 672.232C367.776 672.805 368.713 673.114 369.675 673.114C370.638 673.114 371.575 672.805 372.349 672.232C373.124 671.66 373.694 670.854 373.977 669.933V669.933C374.789 667.287 376.332 664.924 378.427 663.117C380.523 661.31 383.086 660.133 385.822 659.721L398.699 657.787C398.976 657.687 399.212 657.497 399.37 657.248C399.527 656.999 399.597 656.704 399.568 656.411C399.54 656.117 399.414 655.841 399.211 655.628C399.008 655.414 398.739 655.274 398.448 655.23V655.23Z" fill="white"/>
<path opacity="0.75" fill-rule="evenodd" clip-rule="evenodd" d="M769.326 417.232L796.51 415.179C797.287 415.12 798.031 414.84 798.653 414.37C799.275 413.9 799.748 413.262 800.018 412.53C802.648 405.139 807.489 398.739 813.883 394.201C820.277 389.662 827.913 387.205 835.751 387.165C840.708 387.15 845.618 388.13 850.19 390.048C854.761 391.966 858.902 394.783 862.366 398.331C862.967 398.957 863.752 399.375 864.607 399.523C865.462 399.671 866.342 399.541 867.118 399.152C870.196 397.545 873.607 396.68 877.079 396.625C880.55 396.57 883.987 397.326 887.115 398.834C887.609 399.07 888.146 399.2 888.693 399.218C889.24 399.236 889.785 399.141 890.293 398.938C890.801 398.735 891.262 398.43 891.647 398.04C892.032 397.651 892.332 397.186 892.528 396.675C896.089 387.545 902.283 379.682 910.322 374.086C918.361 368.489 927.882 365.413 937.673 365.248C947.464 365.084 957.083 367.838 965.306 373.161C973.528 378.483 979.983 386.134 983.848 395.138C984.233 396.029 984.923 396.753 985.794 397.181C986.665 397.608 987.659 397.71 988.599 397.47C991.479 396.753 994.433 396.375 997.4 396.344C1002.7 396.396 1007.87 397.984 1012.28 400.916C1016.69 403.847 1020.16 407.996 1022.27 412.861C1022.56 413.543 1023.03 414.132 1023.63 414.566C1024.24 415 1024.94 415.262 1025.68 415.325L1047.77 417.1C1053.73 417.391 1053.59 422.464 1047.36 422.464H769.737C763.596 422.597 763.371 417.51 769.326 417.232Z" fill="white"/>
<path opacity="0.75" fill-rule="evenodd" clip-rule="evenodd" d="M235.714 772.123L213.042 770.467C212.395 770.42 211.775 770.186 211.258 769.794C210.742 769.401 210.35 768.866 210.131 768.255C207.95 762.082 203.918 756.733 198.586 752.94C193.254 749.147 186.881 747.094 180.34 747.062C176.209 747.045 172.117 747.857 168.304 749.449C164.492 751.042 161.038 753.383 158.145 756.334C157.644 756.859 156.988 757.209 156.273 757.333C155.558 757.457 154.823 757.348 154.175 757.023C151.609 755.685 148.767 754.965 145.875 754.919C142.982 754.873 140.119 755.503 137.512 756.758C137.1 756.945 136.655 757.047 136.204 757.057C135.752 757.068 135.302 756.988 134.882 756.821C134.462 756.654 134.08 756.404 133.759 756.086C133.438 755.768 133.184 755.388 133.012 754.97C130.045 747.366 124.886 740.817 118.191 736.155C111.496 731.492 103.568 728.927 95.4126 728.785C87.2576 728.643 79.2446 730.931 72.3917 735.357C65.5388 739.784 60.1555 746.149 56.9259 753.645C56.6044 754.389 56.0271 754.993 55.2987 755.348C54.5703 755.703 53.739 755.785 52.9555 755.579C50.5564 754.981 48.0957 754.665 45.6234 754.638C41.21 754.685 36.9043 756.009 33.2265 758.451C29.5486 760.893 26.656 764.349 24.8979 768.401C24.6542 768.97 24.261 769.463 23.76 769.827C23.259 770.19 22.6689 770.412 22.0524 770.467L3.64296 771.95C-1.32005 772.189 -1.21418 776.414 3.97383 776.414H235.369C240.438 776.586 240.677 772.348 235.714 772.123Z" fill="white"/>
<path opacity="0.75" fill-rule="evenodd" clip-rule="evenodd" d="M334.576 271.343L357.247 269.688C357.894 269.641 358.514 269.407 359.031 269.014C359.548 268.622 359.939 268.087 360.158 267.476C362.339 261.303 366.371 255.954 371.703 252.161C377.035 248.368 383.408 246.315 389.95 246.283C394.08 246.266 398.173 247.078 401.985 248.67C405.797 250.263 409.251 252.604 412.144 255.555C412.645 256.08 413.301 256.43 414.016 256.554C414.731 256.678 415.466 256.569 416.115 256.243C418.68 254.906 421.522 254.186 424.415 254.14C427.307 254.094 430.17 254.723 432.777 255.978C433.189 256.165 433.634 256.267 434.085 256.278C434.537 256.289 434.987 256.209 435.407 256.042C435.827 255.875 436.209 255.625 436.53 255.307C436.852 254.989 437.105 254.609 437.277 254.19C440.244 246.587 445.403 240.038 452.098 235.375C458.793 230.713 466.721 228.148 474.876 228.006C483.031 227.864 491.044 230.151 497.897 234.578C504.75 239.004 510.134 245.37 513.363 252.866C513.685 253.61 514.262 254.214 514.99 254.569C515.719 254.924 516.55 255.006 517.334 254.8C519.733 254.202 522.193 253.886 524.666 253.859C529.079 253.905 533.385 255.23 537.063 257.672C540.74 260.114 543.633 263.57 545.391 267.621C545.635 268.191 546.028 268.684 546.529 269.047C547.03 269.411 547.62 269.632 548.237 269.688L566.646 271.171C571.609 271.41 571.503 275.635 566.315 275.635H334.92C329.851 275.807 329.613 271.568 334.576 271.343Z" fill="white"/>
</g>
<defs>
<linearGradient id="paint0_linear_695_13276" x1="536.979" y1="1037.51" x2="536.979" y2="578.99" gradientUnits="userSpaceOnUse">
<stop stop-color="white" stop-opacity="0"/>
<stop offset="0.08" stop-color="white" stop-opacity="0.04"/>
<stop offset="0.23" stop-color="white" stop-opacity="0.13"/>
<stop offset="0.4" stop-color="white" stop-opacity="0.3"/>
<stop offset="0.61" stop-color="white" stop-opacity="0.52"/>
<stop offset="0.85" stop-color="white" stop-opacity="0.8"/>
<stop offset="1" stop-color="white"/>
</linearGradient>
<linearGradient id="paint1_linear_695_13276" x1="866.356" y1="1000.09" x2="866.356" y2="813.451" gradientUnits="userSpaceOnUse">
<stop stop-color="white" stop-opacity="0"/>
<stop offset="0.1" stop-color="white" stop-opacity="0.07"/>
<stop offset="0.3" stop-color="white" stop-opacity="0.25"/>
<stop offset="0.58" stop-color="white" stop-opacity="0.53"/>
<stop offset="0.93" stop-color="white" stop-opacity="0.92"/>
<stop offset="1" stop-color="white"/>
</linearGradient>
</defs>
</svg>
