<svg width="18" height="18" viewBox="0 0 18 18" fill="none" xmlns="http://www.w3.org/2000/svg">
<g clip-path="url(#clip0_1411_55336)">
<path d="M18 9C18 13.9706 13.9706 18 9 18C4.02944 18 0 13.9706 0 9C0 4.02944 4.02944 0 9 0C13.9706 0 18 4.02944 18 9Z" fill="white"/>
<path fill-rule="evenodd" clip-rule="evenodd" d="M16 9C16 12.866 12.866 16 9 16C5.13401 16 2 12.866 2 9C2 5.13401 5.13401 2 9 2C12.866 2 16 5.13401 16 9ZM13.6667 9C13.6667 11.5773 11.5773 13.6667 9 13.6667C8.13455 13.6667 7.32413 13.4311 6.62936 13.0205L13.0205 6.62936C13.4311 7.32413 13.6667 8.13455 13.6667 9ZM4.97945 11.3706L11.3706 4.97945C10.6759 4.56892 9.86544 4.33333 9 4.33333C6.42267 4.33333 4.33333 6.42267 4.33333 9C4.33333 9.86544 4.56892 10.6759 4.97945 11.3706Z" fill="#EB102D"/>
</g>
<defs>
<clipPath id="clip0_1411_55336">
<rect width="18" height="18" fill="white"/>
</clipPath>
</defs>
</svg>
