<svg width="256" height="160" viewBox="0 0 256 160" fill="none" xmlns="http://www.w3.org/2000/svg">
<g clip-path="url(#clip0_1403_61759)">
<g opacity="0.7" filter="url(#filter0_f_1403_61759)">
<path d="M76.8106 130.381C77.5988 130.128 78.4213 130 79.2488 130H176.751C177.579 130 178.401 130.128 179.189 130.381L203.595 138.19C207.943 139.582 206.941 146 202.376 146H53.6244C49.059 146 48.0571 139.582 52.4053 138.19L76.8106 130.381Z" fill="url(#paint0_linear_1403_61759)"/>
</g>
<g filter="url(#filter1_f_1403_61759)">
<path d="M65 120H193L257 124H1L65 120Z" fill="url(#paint1_linear_1403_61759)"/>
</g>
<g filter="url(#filter2_diii_1403_61759)">
<path d="M0 61.4742C0 53.8 0 49.9629 1.54076 47.0529C2.78415 44.7046 4.7046 42.7841 7.05294 41.5408C9.96294 40 13.8 40 21.4742 40H234.526C242.2 40 246.037 40 248.947 41.5408C251.295 42.7841 253.216 44.7046 254.459 47.0529C256 49.9629 256 53.8 256 61.4742V98.5258C256 106.2 256 110.037 254.459 112.947C253.216 115.295 251.295 117.216 248.947 118.459C246.037 120 242.2 120 234.526 120H21.4742C13.8 120 9.96294 120 7.05294 118.459C4.7046 117.216 2.78415 115.295 1.54076 112.947C0 110.037 0 106.2 0 98.5258V61.4742Z" fill="url(#paint2_linear_1403_61759)" shape-rendering="crispEdges"/>
</g>
<rect x="204" y="66.0001" width="12.8333" height="12.8333" fill="#F04F21"/>
<rect x="219.167" y="66.0001" width="12.8333" height="12.8333" fill="#85B219"/>
<rect x="219.167" y="81.1668" width="12.8333" height="12.8333" fill="#FFB901"/>
<rect x="204" y="81.1668" width="12.8333" height="12.8333" fill="#00A2F1"/>
<path fill-rule="evenodd" clip-rule="evenodd" d="M38.7282 66.1236C36.8731 68.1925 37.169 70.6981 37.169 70.6981C37.169 70.6981 39.449 70.9905 41.5551 68.5564C43.3501 66.482 42.9943 63.999 42.9943 63.999C42.9943 63.999 40.6062 64.0289 38.7282 66.1236ZM45.1357 79.5561C45.1031 75.5813 48.2711 73.9192 48.2711 73.9192C48.2711 73.9192 46.5235 71.0065 42.5143 71.0065C41.4303 71.0065 40.2555 71.46 39.2575 71.8453C38.5203 72.1298 37.8795 72.3772 37.4428 72.3772C36.7339 72.3772 36.2042 72.1381 35.6112 71.8705C34.8571 71.5301 34.0006 71.1436 32.5428 71.1436C28.2594 71.1436 25.3639 75.307 25.3639 79.042C25.3639 86.8205 30.2127 93.0743 32.834 93.0743C33.9563 93.0743 34.534 92.8 35.1289 92.5176C35.7601 92.2179 36.4105 91.9091 37.7512 91.9091C39.1222 91.9091 39.7857 92.232 40.4141 92.5379C40.9794 92.813 41.5163 93.0743 42.5143 93.0743C46.3865 93.0743 49.0421 85.3471 49.0421 85.3471C49.0421 85.3471 45.17 83.7366 45.1357 79.5561Z" fill="#222222"/>
<path fill-rule="evenodd" clip-rule="evenodd" d="M12 14C5.37258 14 5.43646e-06 19.3726 1.21427e-05 26L2.56401e-05 39.3388C2.56369 36.0873 6.53809 34 11 34H12L12 14Z" fill="#FFCC33"/>
<g clip-path="url(#clip1_1403_61759)">
<rect width="27" height="20" transform="matrix(1 0 1.01189e-06 1 12 14)" fill="#FFCC33"/>
<path d="M12.9561 27.5L12.9561 19.7495H14.1592L17.9673 25.0884H18.0532L18.0532 19.7495H19.3853L19.3853 27.5H18.1875L14.3794 22.1611H14.2935L14.2935 27.5H12.9561ZM21.3628 27.5L21.3627 19.7495H26.3793L26.3793 20.915H22.7485L22.7485 23.0151H26.1806L26.1806 24.1162H22.7485L22.7485 26.3345H26.3794L26.3794 27.5H21.3628ZM29.7533 27.5L27.6747 19.7495H29.1195L30.4462 25.5664H30.5268L32.0521 19.7495H33.2821L34.829 25.5664H34.9042L36.2308 19.7495H37.6649L35.5863 27.5H34.2865L32.7074 21.9517H32.6268L31.0585 27.5H29.7533Z" fill="black" fill-opacity="0.84"/>
</g>
<path d="M39 14C40.3132 14 41.6136 14.2587 42.8268 14.7612C44.0401 15.2638 45.1425 16.0003 46.0711 16.9289C46.9997 17.8575 47.7363 18.9599 48.2388 20.1732C48.7414 21.3864 49 22.6868 49 24C49 25.3132 48.7414 26.6136 48.2388 27.8268C47.7363 29.0401 46.9997 30.1425 46.0711 31.0711C45.1425 31.9997 44.0401 32.7363 42.8269 33.2388C41.6136 33.7413 40.3132 34 39 34L39 24L39 14Z" fill="#FFCC33"/>
<g filter="url(#filter3_ii_1403_61759)">
<path d="M79.129 64.6373C78.566 53.8951 78.2845 48.5239 80.2278 44.3375C81.796 40.9591 84.3434 38.13 87.5394 36.2172C91.4997 33.847 96.8708 33.5655 107.613 33.0025L143.363 31.129C154.105 30.566 159.476 30.2845 163.662 32.2278C167.041 33.796 169.87 36.3434 171.783 39.5393C174.153 43.4997 174.434 48.8708 174.997 59.613L176.871 95.3627C177.434 106.105 177.715 111.476 175.772 115.662C174.204 119.041 171.657 121.87 168.461 123.783C164.5 126.153 159.129 126.434 148.387 126.997L112.637 128.871C101.895 129.434 96.524 129.715 92.3375 127.772C88.9591 126.204 86.13 123.657 84.2173 120.461C81.847 116.5 81.5655 111.129 81.0026 100.387L79.129 64.6373Z" fill="#DE5833"/>
</g>
<path d="M79.5156 64.617C79.2337 59.2393 79.0239 55.23 79.1255 52.0413C79.2268 48.8573 79.6384 46.5268 80.5789 44.5005C82.1145 41.1925 84.6088 38.4223 87.7381 36.5494C89.655 35.4022 91.9298 34.7493 95.0857 34.3157C98.2464 33.8814 102.256 33.671 107.633 33.3891L143.383 31.5156C148.761 31.2337 152.77 31.0239 155.959 31.1255C159.143 31.2268 161.473 31.6384 163.499 32.5789C166.808 34.1144 169.578 36.6087 171.451 39.7381C172.598 41.655 173.251 43.9297 173.684 47.0857C174.119 50.2463 174.329 54.2556 174.611 59.6333L176.484 95.3829C176.766 100.761 176.976 104.77 176.875 107.959C176.773 111.143 176.362 113.473 175.421 115.499C173.886 118.807 171.391 121.578 168.262 123.451C166.345 124.598 164.07 125.251 160.914 125.684C157.754 126.119 153.744 126.329 148.367 126.611L112.617 128.484C107.239 128.766 103.23 128.976 100.041 128.875C96.8573 128.773 94.5268 128.362 92.5005 127.421C89.1925 125.886 86.4223 123.391 84.5494 120.262C83.4022 118.345 82.7493 116.07 82.3157 112.914C81.8814 109.754 81.671 105.744 81.3891 100.367L79.5156 64.617Z" stroke="url(#paint3_linear_1403_61759)" stroke-width="0.774194"/>
<path fill-rule="evenodd" clip-rule="evenodd" d="M128 120C150.091 120 168 102.091 168 80C168 57.9086 150.091 40 128 40C105.909 40 88 57.9086 88 80C88 102.091 105.909 120 128 120Z" fill="#DE5833"/>
<path fill-rule="evenodd" clip-rule="evenodd" d="M133.625 109.844C133.625 109.531 133.702 109.46 132.708 107.48C130.068 102.193 127.415 94.74 128.622 89.9333C128.842 89.06 126.135 57.5933 124.222 56.58C122.095 55.4466 119.478 53.6488 117.085 53.2488C115.871 53.0545 114.279 53.1465 113.034 53.3142C112.813 53.344 112.804 53.7416 113.015 53.8132C113.832 54.09 114.824 54.5707 115.409 55.2975C115.52 55.435 115.371 55.6514 115.195 55.6579C114.644 55.6783 113.644 55.9094 112.324 57.03C112.172 57.1596 112.298 57.4002 112.495 57.3614C115.33 56.8004 118.226 57.0768 119.932 58.6279C120.043 58.7285 119.985 58.9091 119.841 58.9484C105.032 62.9728 107.963 75.8547 111.906 91.6632C115.417 105.744 116.739 110.283 117.155 111.666C117.196 111.8 117.29 111.906 117.42 111.957C122.517 113.987 133.625 114.077 133.625 110.625V109.844Z" fill="#DDDDDD"/>
<path fill-rule="evenodd" clip-rule="evenodd" d="M164.719 80C164.719 100.279 148.279 116.719 128 116.719C107.721 116.719 91.2813 100.279 91.2813 80C91.2813 59.7208 107.721 43.2812 128 43.2812C148.279 43.2812 164.719 59.7208 164.719 80ZM119.431 112.491C118.416 109.356 115.58 100.272 112.78 88.7907C112.686 88.4081 112.593 88.0274 112.5 87.6486L112.498 87.6391C109.108 73.7915 106.339 62.4813 121.515 58.9281C121.654 58.8956 121.721 58.7298 121.63 58.6208C119.888 56.5551 116.626 55.878 112.502 57.301C112.333 57.3593 112.186 57.1888 112.291 57.0439C113.1 55.9291 114.68 55.0719 115.461 54.6961C115.622 54.6185 115.612 54.3823 115.441 54.3289C114.931 54.1691 114.062 53.9246 113.084 53.7668C112.853 53.7295 112.832 53.3331 113.064 53.3019C118.912 52.5152 125.018 54.2707 128.082 58.1305C128.111 58.1668 128.152 58.1922 128.198 58.2019C139.418 60.6116 140.222 78.3488 138.929 79.1567C138.674 79.3159 137.858 79.2245 136.78 79.104C132.414 78.6155 123.769 77.6483 130.904 90.9461C130.975 91.0774 130.881 91.2513 130.734 91.2742C126.724 91.8977 131.831 104.421 135.617 112.727C150.501 109.276 161.594 95.9335 161.594 80C161.594 61.4467 146.553 46.4062 128 46.4062C109.447 46.4062 94.4063 61.4467 94.4063 80C94.4063 95.5918 105.028 108.703 119.431 112.491Z" fill="white"/>
<path d="M140.675 96.6863C139.821 96.2905 136.537 98.6459 134.357 100.454C133.901 99.8094 133.042 99.3408 131.104 99.6777C129.408 99.9726 128.472 100.382 128.055 101.086C125.378 100.072 120.874 98.5054 119.787 100.018C118.597 101.671 120.084 109.493 121.663 110.509C122.488 111.039 126.432 108.504 128.492 106.755C128.824 107.224 129.36 107.492 130.459 107.466C132.123 107.428 134.821 107.04 135.24 106.266C135.265 106.219 135.287 106.163 135.306 106.1C137.423 106.891 141.149 107.728 141.982 107.603C144.151 107.278 141.679 97.1516 140.675 96.6863Z" fill="#3CA82B"/>
<path d="M134.556 100.685C134.646 100.845 134.718 101.014 134.78 101.186C135.082 102.03 135.573 104.716 135.202 105.379C134.83 106.042 132.414 106.363 130.924 106.388C129.434 106.414 129.099 105.869 128.797 105.025C128.556 104.35 128.437 102.762 128.44 101.853C128.379 100.505 128.871 100.03 131.149 99.662C132.834 99.3893 133.725 99.7064 134.239 100.249C136.631 98.4636 140.623 95.9437 141.012 96.4042C142.954 98.7006 143.199 104.167 142.779 106.366C142.641 107.085 136.213 105.654 136.213 104.879C136.213 101.659 135.378 100.776 134.556 100.685Z" fill="#4CBA3C"/>
<path d="M120.475 99.6798C121.002 98.8466 125.271 99.8828 127.615 100.926C127.615 100.926 127.133 103.108 127.9 105.678C128.124 106.43 122.508 109.777 121.775 109.201C120.928 108.536 119.369 101.431 120.475 99.6798Z" fill="#4CBA3C"/>
<path fill-rule="evenodd" clip-rule="evenodd" d="M122.543 82.7541C122.888 81.252 124.498 78.4216 130.244 78.4903C133.149 78.4782 136.757 78.489 139.15 78.2173C142.705 77.8134 145.345 76.9533 147.103 76.2829C149.591 75.3339 150.474 75.5456 150.783 76.1134C151.123 76.7373 150.722 77.8146 149.853 78.8063C148.193 80.7006 145.209 82.1684 139.938 82.6041C134.667 83.0398 131.175 81.6258 129.672 83.9278C129.023 84.9206 129.524 87.2606 134.622 87.9974C141.51 88.9916 147.167 86.7996 147.866 88.1234C148.565 89.4472 144.539 92.1406 137.639 92.197C130.74 92.2534 126.431 89.7815 124.903 88.5527C122.964 86.9938 122.096 84.7202 122.543 82.7541Z" fill="#FFCC33"/>
<g opacity="0.8">
<path d="M131.329 66.3294C131.714 65.6992 132.568 65.2129 133.964 65.2129C135.361 65.2129 136.018 65.7686 136.472 66.3883C136.565 66.5143 136.425 66.6627 136.281 66.6006C136.247 66.5857 136.212 66.5705 136.176 66.5549C135.666 66.3319 135.038 66.058 133.964 66.0427C132.815 66.0264 132.09 66.3141 131.634 66.5622C131.48 66.6457 131.238 66.4787 131.329 66.3294Z" fill="#14307E"/>
<path d="M115.607 67.1356C116.963 66.5689 118.029 66.6421 118.782 66.8204C118.941 66.8579 119.051 66.6872 118.924 66.5849C118.339 66.1132 117.03 65.5276 115.323 66.1641C113.801 66.7319 113.083 67.9116 113.079 68.6872C113.078 68.87 113.454 68.8855 113.551 68.7308C113.814 68.3127 114.251 67.7023 115.607 67.1356Z" fill="#14307E"/>
<path fill-rule="evenodd" clip-rule="evenodd" d="M135.15 74.9499C133.951 74.9499 132.979 73.9801 132.979 72.7866C132.979 71.593 133.951 70.6233 135.15 70.6233C136.349 70.6233 137.322 71.593 137.322 72.7866C137.322 73.9801 136.349 74.9499 135.15 74.9499ZM136.679 72.0699C136.679 71.7609 136.426 71.5105 136.117 71.5105C135.808 71.5105 135.558 71.7609 135.555 72.0699C135.555 72.379 135.808 72.6294 136.117 72.6294C136.429 72.6294 136.679 72.379 136.679 72.0699Z" fill="#14307E"/>
<path fill-rule="evenodd" clip-rule="evenodd" d="M120.765 74.2837C120.765 75.6771 119.632 76.8067 118.234 76.8067C116.838 76.8067 115.703 75.6771 115.703 74.2837C115.703 72.8904 116.838 71.7608 118.234 71.7608C119.63 71.7608 120.765 72.8904 120.765 74.2837ZM120.019 73.4472C120.019 73.0875 119.726 72.7945 119.363 72.7945C119.004 72.7945 118.711 73.0849 118.708 73.4472C118.708 73.8068 119.001 74.0999 119.363 74.0999C119.726 74.0999 120.019 73.8068 120.019 73.4472Z" fill="#14307E"/>
</g>
</g>
<defs>
<filter id="filter0_f_1403_61759" x="33.6208" y="114" width="188.758" height="48" filterUnits="userSpaceOnUse" color-interpolation-filters="sRGB">
<feFlood flood-opacity="0" result="BackgroundImageFix"/>
<feBlend mode="normal" in="SourceGraphic" in2="BackgroundImageFix" result="shape"/>
<feGaussianBlur stdDeviation="8" result="effect1_foregroundBlur_1403_61759"/>
</filter>
<filter id="filter1_f_1403_61759" x="-15" y="104" width="288" height="36" filterUnits="userSpaceOnUse" color-interpolation-filters="sRGB">
<feFlood flood-opacity="0" result="BackgroundImageFix"/>
<feBlend mode="normal" in="SourceGraphic" in2="BackgroundImageFix" result="shape"/>
<feGaussianBlur stdDeviation="8" result="effect1_foregroundBlur_1403_61759"/>
</filter>
<filter id="filter2_diii_1403_61759" x="-26.5113" y="16.8026" width="309.023" height="133.023" filterUnits="userSpaceOnUse" color-interpolation-filters="sRGB">
<feFlood flood-opacity="0" result="BackgroundImageFix"/>
<feColorMatrix in="SourceAlpha" type="matrix" values="0 0 0 0 0 0 0 0 0 0 0 0 0 0 0 0 0 0 127 0" result="hardAlpha"/>
<feOffset dy="3.31392"/>
<feGaussianBlur stdDeviation="13.2557"/>
<feComposite in2="hardAlpha" operator="out"/>
<feColorMatrix type="matrix" values="0 0 0 0 0 0 0 0 0 0 0 0 0 0 0 0 0 0 0.05 0"/>
<feBlend mode="normal" in2="BackgroundImageFix" result="effect1_dropShadow_1403_61759"/>
<feBlend mode="normal" in="SourceGraphic" in2="effect1_dropShadow_1403_61759" result="shape"/>
<feColorMatrix in="SourceAlpha" type="matrix" values="0 0 0 0 0 0 0 0 0 0 0 0 0 0 0 0 0 0 127 0" result="hardAlpha"/>
<feOffset dy="3.31392"/>
<feGaussianBlur stdDeviation="6.62783"/>
<feComposite in2="hardAlpha" operator="arithmetic" k2="-1" k3="1"/>
<feColorMatrix type="matrix" values="0 0 0 0 0.827031 0 0 0 0 0.829304 0 0 0 0 0.831302 0 0 0 0.2 0"/>
<feBlend mode="normal" in2="shape" result="effect2_innerShadow_1403_61759"/>
<feColorMatrix in="SourceAlpha" type="matrix" values="0 0 0 0 0 0 0 0 0 0 0 0 0 0 0 0 0 0 127 0" result="hardAlpha"/>
<feOffset dy="-3.02191"/>
<feGaussianBlur stdDeviation="2.07217"/>
<feComposite in2="hardAlpha" operator="arithmetic" k2="-1" k3="1"/>
<feColorMatrix type="matrix" values="0 0 0 0 0.848455 0 0 0 0 0.894733 0 0 0 0 0.909878 0 0 0 0.12 0"/>
<feBlend mode="normal" in2="effect2_innerShadow_1403_61759" result="effect3_innerShadow_1403_61759"/>
<feColorMatrix in="SourceAlpha" type="matrix" values="0 0 0 0 0 0 0 0 0 0 0 0 0 0 0 0 0 0 127 0" result="hardAlpha"/>
<feOffset dy="-1.12156"/>
<feGaussianBlur stdDeviation="0.89725"/>
<feComposite in2="hardAlpha" operator="arithmetic" k2="-1" k3="1"/>
<feColorMatrix type="matrix" values="0 0 0 0 0.65849 0 0 0 0 0.678034 0 0 0 0 0.683177 0 0 0 0.5 0"/>
<feBlend mode="normal" in2="effect3_innerShadow_1403_61759" result="effect4_innerShadow_1403_61759"/>
</filter>
<filter id="filter3_ii_1403_61759" x="78.7124" y="27.6156" width="100.898" height="101.672" filterUnits="userSpaceOnUse" color-interpolation-filters="sRGB">
<feFlood flood-opacity="0" result="BackgroundImageFix"/>
<feBlend mode="normal" in="SourceGraphic" in2="BackgroundImageFix" result="shape"/>
<feColorMatrix in="SourceAlpha" type="matrix" values="0 0 0 0 0 0 0 0 0 0 0 0 0 0 0 0 0 0 127 0" result="hardAlpha"/>
<feOffset dy="-3.09677"/>
<feGaussianBlur stdDeviation="12.3871"/>
<feComposite in2="hardAlpha" operator="arithmetic" k2="-1" k3="1"/>
<feColorMatrix type="matrix" values="0 0 0 0 0.941176 0 0 0 0 0.309804 0 0 0 0 0.129412 0 0 0 1 0"/>
<feBlend mode="normal" in2="shape" result="effect1_innerShadow_1403_61759"/>
<feColorMatrix in="SourceAlpha" type="matrix" values="0 0 0 0 0 0 0 0 0 0 0 0 0 0 0 0 0 0 127 0" result="hardAlpha"/>
<feOffset dx="2.32258" dy="-2.32258"/>
<feGaussianBlur stdDeviation="1.16129"/>
<feComposite in2="hardAlpha" operator="arithmetic" k2="-1" k3="1"/>
<feColorMatrix type="matrix" values="0 0 0 0 0.769236 0 0 0 0 0.255749 0 0 0 0 0.114097 0 0 0 0.58 0"/>
<feBlend mode="normal" in2="effect1_innerShadow_1403_61759" result="effect2_innerShadow_1403_61759"/>
</filter>
<linearGradient id="paint0_linear_1403_61759" x1="128" y1="130" x2="128" y2="146" gradientUnits="userSpaceOnUse">
<stop stop-color="#D65733" stop-opacity="0.5"/>
<stop offset="1" stop-color="#D9D9D9" stop-opacity="0"/>
</linearGradient>
<linearGradient id="paint1_linear_1403_61759" x1="129" y1="120" x2="129" y2="124" gradientUnits="userSpaceOnUse">
<stop stop-color="#D7ECFF"/>
<stop offset="1" stop-color="#D9D9D9" stop-opacity="0"/>
</linearGradient>
<linearGradient id="paint2_linear_1403_61759" x1="141.67" y1="129.6" x2="234.15" y2="171.907" gradientUnits="userSpaceOnUse">
<stop stop-color="#D2DAE2" stop-opacity="0.21"/>
<stop offset="0.443664" stop-color="#EAF9FF" stop-opacity="0.33"/>
<stop offset="1" stop-color="white" stop-opacity="0.33"/>
</linearGradient>
<linearGradient id="paint3_linear_1403_61759" x1="103.613" y1="117.549" x2="188.387" y2="29.6779" gradientUnits="userSpaceOnUse">
<stop stop-color="#C83911"/>
<stop offset="1" stop-color="#FEC4B4" stop-opacity="0.4"/>
</linearGradient>
<clipPath id="clip0_1403_61759">
<rect width="256" height="160" fill="white"/>
</clipPath>
<clipPath id="clip1_1403_61759">
<rect width="27" height="20" fill="white" transform="matrix(1 0 1.01189e-06 1 12 14)"/>
</clipPath>
</defs>
</svg>
